<?xml version="1.0" encoding="utf-8"?>
<!-- Generator: Adobe Illustrator 15.0.2, SVG Export Plug-In . SVG Version: 6.00 Build 0)  -->
<!DOCTYPE svg PUBLIC "-//W3C//DTD SVG 1.1//EN" "http://www.w3.org/Graphics/SVG/1.1/DTD/svg11.dtd">
<svg version="1.1" id="Ebene_1" xmlns="http://www.w3.org/2000/svg" xmlns:xlink="http://www.w3.org/1999/xlink" x="0px" y="0px"
	 width="16px" height="16px" viewBox="0 0 16 16" enable-background="new 0 0 16 16" xml:space="preserve">
<path fill="#999999" d="M15.2,0H0.8C0.36,0,0,0.36,0,0.8v14.4C0,15.64,0.36,16,0.8,16h14.4c0.439,0,0.8-0.36,0.8-0.8V0.8
	C16,0.36,15.64,0,15.2,0z M6.666,4.139c0-0.39,0.317-0.707,0.707-0.707h1.256c0.389,0,0.707,0.317,0.707,0.707V4.91
	c0,0.39-0.317,0.708-0.707,0.708H7.372c-0.389,0-0.707-0.317-0.707-0.708V4.139z M10.08,12.33c-0.143,0.304-0.605,0.23-1.15,0.23
	c-0.61,0-1.255,0-1.876,0c-0.529,0-1.03,0.074-1.15-0.266c-0.051-0.145-0.015-0.962,0-1.149c0.026-0.359,0.453-0.269,0.833-0.286
	c0.001-0.792,0.001-1.755-0.001-2.53C6.192,8.303,5.92,8.367,5.92,7.939c0-0.436-0.013-0.75-0.009-0.944
	c0.004-0.267,0.145-0.431,0.473-0.427c0.322,0.004,1.502-0.006,2.053,0c0.754,0.01,0.82,0.024,0.828,0.459
	c0.004,0.243,0,2.822,0,3.833c0.49,0.018,0.834-0.092,0.845,0.336C10.114,11.447,10.151,12.175,10.08,12.33z"/>
</svg>
