<?xml version="1.0" encoding="utf-8"?>
<!-- Generator: Adobe Illustrator 15.0.2, SVG Export Plug-In . SVG Version: 6.00 Build 0)  -->
<!DOCTYPE svg PUBLIC "-//W3C//DTD SVG 1.1//EN" "http://www.w3.org/Graphics/SVG/1.1/DTD/svg11.dtd">
<svg version="1.1" id="Ebene_1" xmlns="http://www.w3.org/2000/svg" xmlns:xlink="http://www.w3.org/1999/xlink" x="0px" y="0px"
	 width="16px" height="16px" viewBox="0 0 16 16" enable-background="new 0 0 16 16" xml:space="preserve">
<path fill="#999999" d="M8,0C3.582,0,0,3.581,0,7.999S3.582,16,8,16c4.417,0,8-3.583,8-8.001S12.417,0,8,0z M8.419,12.455
	c0,0.082-0.067,0.149-0.15,0.149H6.804c-0.082,0-0.148-0.067-0.148-0.149v-1.541c0-0.081,0.067-0.148,0.148-0.148H8.27
	c0.083,0,0.149,0.067,0.149,0.148V12.455L8.419,12.455z M10.666,7.75c-0.528,0.773-1.777,1.031-2.146,1.842
	c-0.077,0.168-0.069,0.529-0.176,0.626c-0.182,0.164-1.439,0.122-1.587-0.042c-0.237-0.261-0.029-1.08,0.056-1.299
	C7.03,8.338,7.48,7.897,8.08,7.529C8.574,7.227,9.426,7.021,9.345,6.21C9.28,5.538,8.307,4.644,7.427,5.247
	C7.153,5.435,6.915,5.758,6.714,5.962C6.55,6.125,6.343,6.632,6.1,6.677c-0.29,0.053-1.167-0.52-1.211-0.797
	C4.843,5.595,5.45,4.907,5.66,4.696c1.989-2.002,3.659-1.154,4.017-0.935C10.702,4.391,11.725,6.196,10.666,7.75z"/>
</svg>
