<?xml version="1.0" standalone="no"?>
<!DOCTYPE svg PUBLIC "-//W3C//DTD SVG 1.1//EN" "http://www.w3.org/Graphics/SVG/1.1/DTD/svg11.dtd" >
<svg xmlns="http://www.w3.org/2000/svg">
<metadata></metadata>
<defs>
<font id="bienchen_sasitalic" horiz-adv-x="641" >
<font-face units-per-em="2048" ascent="1638" descent="-410" />
<missing-glyph horiz-adv-x="919" />
<glyph horiz-adv-x="2048" />
<glyph horiz-adv-x="2048" />
<glyph unicode="&#xd;" horiz-adv-x="1950" />
<glyph unicode=" "  horiz-adv-x="919" />
<glyph unicode="&#x09;" horiz-adv-x="919" />
<glyph unicode="&#xa0;" horiz-adv-x="919" />
<glyph unicode="!" horiz-adv-x="412" d="M17 19q7 70 63 70q54 0 47 -70q-10 -66 -64 -67q-57 0 -46 67zM100 256l219 814q7 32 42 23q32 -9 23 -42l-218 -812q-8 -34 -42 -26q-36 15 -24 43z" />
<glyph unicode="&#x22;" horiz-adv-x="412" d="M150 951l32 119q7 32 42 23q32 -9 24 -42l-32 -117q-8 -34 -42 -26q-36 15 -24 43zM287 951l32 119q7 32 42 23q32 -9 23 -42l-32 -117q-8 -34 -42 -26q-35 15 -23 43z" />
<glyph unicode="#" d="M89 128q0 35 35 35h63l64 134h-94q-35 0 -35 36q0 35 35 35h127l51 109q16 29 47 15q30 -17 17 -46l-37 -78h95l52 109q16 29 47 15q30 -17 16 -46l-37 -78h41q35 0 35 -35t-35 -36h-74l-63 -134h104q35 0 35 -35t-35 -35h-137l-53 -112q-18 -31 -46 -16q-28 17 -16 48 l37 80h-96l-53 -112q-18 -31 -45 -16q-28 17 -17 48l37 80h-30q-35 0 -35 35zM265 163h96l63 134h-95z" />
<glyph unicode="$" horiz-adv-x="774" d="M107 253q9 32 43 21q67 -23 157 -28l79 295q-128 46 -154 131q-18 45 2 96q14 35 63 82q76 57 193 75l42 157q9 33 41 26q34 -9 27 -43l-38 -136q69 0 143 -16q33 -8 25 -39q-9 -34 -41 -28q-80 18 -146 13l-72 -274q137 -50 166 -147q14 -51 -10 -103q-21 -47 -70 -84 q-81 -61 -196 -71l-50 -189q-7 -31 -42 -23q-34 10 -25 42l47 167q-86 4 -162 32q-33 12 -22 44zM297 693q16 -51 108 -84l66 243q-77 -17 -129 -56q-27 -20 -45 -54q-9 -29 0 -49zM381 253q78 11 137 54q31 23 47 56q11 29 4 56q-15 59 -117 101z" />
<glyph unicode="%" horiz-adv-x="847" d="M37 19l710 1074q20 25 49 10q26 -21 10 -50l-710 -1071q-21 -29 -49 -9q-27 16 -10 46zM160 886q0 24 7 50q17 66 70 120q56 52 120 52q19 0 30 -3q45 -15 66 -49q23 -33 23 -85q0 -25 -7 -50q-19 -73 -70 -120q-54 -52 -117 -52q-21 0 -30 3q-44 13 -69 49 q-23 40 -23 85zM230 886q0 -27 12 -47q11 -17 25 -20q3 0 7 -1t8 -1q33 0 70 33q36 36 52 86q5 29 5 35q0 26 -12 47q-12 15 -28 20q-3 2 -12 2q-36 0 -70 -34q-43 -43 -52 -85q-5 -20 -5 -35zM408 152q0 24 6 51q17 66 71 120q56 51 120 51q19 0 30 -2q45 -15 65 -49 q23 -33 24 -85q0 -25 -7 -51q-19 -73 -70 -120q-54 -52 -117 -51q-21 0 -31 3q-44 13 -68 48q-23 40 -23 85zM478 152q0 -27 12 -47q11 -17 25 -19q3 0 7 -1t8 -1q33 0 70 33q36 36 51 86q5 29 5 35q0 26 -11 47q-13 14 -29 19q-3 2 -11 2q-36 0 -71 -33q-43 -43 -51 -86 q-5 -20 -5 -35z" />
<glyph unicode="&#x26;" horiz-adv-x="701" d="M33 63v2q-26 84 57.5 179.5t153.5 160.5q-14 61 -17 122q-5 109 37 187q37 71 99 93q23 8 40 8q32 0 60 -14q36 -21 47 -71q12 -39 -7 -98q-35 -112 -172 -243q-5 -5 -10 -8q9 -36 28 -86q9 -25 17 -48t15 -46l174 157q25 21 47 -2q25 -26 -2 -49l-190 -173l-5 -3 q34 -90 49 -101q14 -9 45.5 21t95.5 118q22 25 47 7q26 -20 8 -49q-86 -116 -140 -148.5t-97 -0.5q-36 24 -62 102q-35 -34 -77.5 -64.5t-84.5 -44.5h-2q-113 -37 -154 92zM98 84q20 -60 68 -49h3q38 12 81.5 47.5t75.5 67.5l-5 12q-8 26 -17.5 53.5t-19.5 56.5 q-11 24 -20 56q-61 -57 -121.5 -125.5t-44.5 -118.5zM297 530q0 -36 7 -69q105 105 134 192q11 41 5 64q-5 20 -17 25q-8 5 -21 5q-8 0 -19 -5q-36 -13 -60 -60q-31 -59 -29 -152z" />
<glyph unicode="'" horiz-adv-x="288" d="M150 951l32 119q7 32 42 23q32 -9 24 -42l-32 -117q-8 -34 -42 -26q-36 15 -24 43z" />
<glyph unicode="(" horiz-adv-x="585" d="M125.5 211q7.5 158 48.5 319q79 332 306 643q20 27 50 7q27 -22 6 -47q-114 -157 -186.5 -312.5t-110.5 -307.5q-71 -290 -33 -608q5 -36 -30 -40q-35 -5 -40 31q-18 157 -10.5 315z" />
<glyph unicode=")" horiz-adv-x="585" d="M139 -72q114 157 187 312.5t111 307.5q71 290 33 608q-5 36 30 40q35 5 40 -31q18 -157 10.5 -315t-48.5 -318q-79 -332 -306 -644q-20 -27 -50 -7q-28 22 -7 47z" />
<glyph unicode="*" horiz-adv-x="1743" d="M106 616q31 35 40 56q-10 12 -24 30q-28 33 -8 57.5t21 55.5q2 42 -7.5 57t9.5 71q1 6 10 18q19 25 19 23.5t23 23.5q20 23 51.5 17.5t54.5 -15.5q111 -53 133 -75.5t85 -116.5q22 -36 38.5 -64t37.5 -62q30 -51 38.5 -67.5t26.5 -69.5q11 -29 43 -59q35 -36 67 -16 q0 52 1 54t-29 39q-9 10 -12 20.5t-7 18.5q-11 7 -16.5 12t-13.5 18q-16 20 -15 21.5t-1 28.5q-5 36 2 41q17 12 35 -10q9 -14 3 -52q50 -46 46.5 -52t18.5 -27q32 -31 32 -110q34 -12 53 -18.5t18 21.5l-32 -5q3 67 23.5 98.5t110.5 13.5q-11 27 -19.5 80.5t37.5 60.5 l17 -31q1 -13 -9 -29.5t1 -40.5l3 -7v-1q0 -1 2 -1q22 -44 37.5 -59t67.5 -25q33 -11 71 14q26 -24 29 -35q-102 -30 -97 -21t-42 7q27 -61 5 -116.5t-114 -18.5l8 31h-29q4 -14 13.5 -41t18.5 -38q60 -1 64.5 2t36.5 6q27 1 75.5 -22.5t76.5 -42.5q7 -6 17 -8t16 -10 q6 -14 -9 -36q-34 9 -56.5 26t-68.5 35q-45 18 -73 12q-24 -6 -43.5 -3t-33.5 -2l-2 -22l79 -25q24 -15 33 -15q27 -12 48 -26t50 -28q92 -44 88 -36t68 -11q21 -7 31 -17t26 -20q10 -6 15 -12t14 -11l34 -16q33 -16 48.5 -29t41.5 -31q37 -30 55 -41q52 -35 39.5 -79.5 t-62.5 -64.5q-17 -8 -26.5 -5.5t-20.5 -0.5l-19 -5q-23 -13 -52 -22.5t-57 -26.5q-10 -4 -15.5 -10t-12.5 -9q-26 -12 -72 19l-82 -46q-53 9 -52 10q-8 -5 -18 -12.5t-19 -12.5q-43 -21 -87 12q-49 32 -56 67q-20 69 -32 98q-20 51 -20.5 43.5t-7.5 52.5q-5 32 -14.5 47 t-20.5 42q-8 22 -12.5 51t-30.5 29l29 -100q6 -44 -2.5 -136.5t-4.5 -141.5q0 -22 4 -25t-12 -28h-24l-8 65l7 146q0 35 1.5 73t-3.5 74q-7 42 -21 52q2 -36 4.5 -75t-8.5 -71q-15 -53 -48 -114q-16 -25 -31.5 -48t-27.5 -53q-9 -19 -28.5 -64t-10.5 -60q9 -19 29.5 -28 t-2.5 -45q-23 -37 -58.5 -8.5t-7.5 113.5q3 11 4.5 24t6.5 26q13 43 20.5 48t19.5 31q31 67 68 120.5t37 133.5q0 38 -3.5 41.5t-10.5 4.5q-5 -38 -9 -67.5t-23 -61.5q-34 -55 -104 -55q-13 -42 -24.5 -72t-55.5 -46q-27 -10 -33 -22q-4 -8 -19 -29q-33 -41 -92 -27l-9 -18 q-21 -36 -50 -31.5t-63 4.5q-9 12 -21.5 32t-12.5 32q-6 43 26 73l-10 59q0 14 20 52q11 15 19 15t21 12q0 88 24.5 99t58.5 32v17q0 -2 4 23q9 46 29 58t33 34l-60 -41q-16 -19 -26 -27q-3 -3 -16 -9q-15 -10 -52.5 -38t-45.5 -36q-40 -32 -70 -60.5t-55 -30.5 q-92 -9 -49 51q19 31 33.5 16.5t21.5 -19.5q30 22 59 48t65 45q25 19 23.5 18.5t23.5 21.5l24 17q61 39 58 52t101 50q16 5 34 7q25 2 31 8q-43 0 -46.5 -1.5t-42.5 -8.5q-22 -6 -49 -10.5t-49 -9.5q-30 -8 -95.5 -43t-73.5 -9q-3 0 -4 25.5t30 29.5l6 -11q2 -8 3 -8 q39 19 75.5 36.5t83.5 27.5q23 4 44.5 5t47.5 10q32 11 51 10q30 -4 33 17q-17 7 -33 10h-22q-9 0 -20 3q-21 4 -79 4l-43 5q-13 0 -22.5 -3t-17.5 -2q-9 0 -19 2t-22 3q-45 0 -50 5t-29 11q-35 6 -63 0t-46 34q-21 39 -15 80.5t-16 81.5q-21 45 -1 66zM135 586 q10 -24 18.5 -41t10.5 -49l18 -100h44q30 0 37.5 -6t30.5 -10q54 -14 78.5 -6.5t58.5 1.5q26 -4 66 -4.5t74 -4.5l56 -10l11 22q-5 2 -34 16q-9 3 -18 8.5t-17 9.5l-93 14l1 34q-62 13 -107.5 -5t-73.5 -10l-49 21l-37 -20q0 18 44 54q7 -9 6.5 -13t11.5 -11q21 -16 53 -11 t56 10q-3 4 -14 8l-65 16q-12 24 -6.5 24.5t-27.5 8.5l-27 44l-45 3q0 17 57 17l16 -40q13 -7 19.5 -5.5t22.5 -11.5q22 -23 43.5 -23.5t51.5 -11.5q22 -7 34 -14.5t40 -3.5q26 3 26 -10t-5.5 -13t-2.5 -23q23 -3 41.5 -1.5t41.5 -9.5l70 -33l20 25q-11 30 -51 43 q-19 6 -42 6t-38 9q-23 7 -26 22t-13 32q-20 40 -61 29q-36 -13 -40 -23.5t-85 46.5q-33 22 -63 33t-66 24q15 23 67 0q19 -7 31 -16q52 -25 82 -52.5t61 8.5q-29 10 -37.5 8.5t-35.5 26.5q-34 30 -74 31q-38 0 -53 38t-22 67l20 8q4 -31 25 -69q4 -6 31 -13.5t36 -7.5 q14 0 32 -19.5t26 -26.5l105 -42q-1 9 -23.5 38t-26.5 35q-27 12 -36.5 6t-26.5 37q-12 27 -32.5 28.5t-35.5 17.5l-82 134q24 6 29 -25t88 -94q9 -9 14.5 -11t14.5 -8q7 -6 35 -58q18 -2 66 -31l-3 47q-9 9 -13 10.5t-11 16.5q-21 35 -21.5 34.5t-65.5 24.5q-2 12 4 20.5 t-9 15.5q-31 10 -37 21q-6 7 -10 18t-10 17q-1 0 -40 20q3 16 17 16q37 -3 50 -42q9 -22 33 -28l30 -36q46 -6 64 -40q17 -35 48 -58l-11 -32q16 -46 30 -67q0 -39 26 -74q-11 -35 12.5 -39t53.5 -6q44 -3 71 -42q15 -19 21 -15.5t-1 15.5q-20 23 -41 34t-38 64 q-18 58 -32.5 81.5t-45.5 73.5q-21 31 -66 110t-76 101q-23 13 -80 43.5t-82 29.5q-18 -1 -36 -24t-24 -39q-15 -40 -0.5 -73t-4.5 -73q-17 -39 -16 -41q3 -29 28.5 -40.5t-16.5 -75.5zM305 -249q-20 -33 1.5 -56.5t48.5 -22.5q21 3 29 22q-6 4 -21.5 12.5t-36.5 30.5z M326 -190q7 -27 41 -56q107 -90 128 10q-13 4 -25 5.5t-24 7.5q-37 15 -54.5 39.5t-44.5 63.5q-38 -23 -21 -70zM378 -53q0 -80 41 -106l106 -38q37 -8 58 25l21 64q-88 7 -151 98q-16 19 -29 16q-46 -13 -46 -59zM478 24.5q20 -34.5 47 -51.5q27 -22 61 -39t85 -1 q75 24 65 127q-10 3 -52.5 13.5t-70.5 60.5l-23 45q-20 0 -67 -24q-28 -19 -44 -53q-21 -43 -1 -77.5zM638.5 170q57.5 -110 156.5 -51q49 26 93 69q64 56 55 106q-12 72 -55 111q-16 14 -56.5 30t-70.5 1q-19 -9 -25 -13l-24 -18q-131 -125 -73.5 -235zM886 489 q15 -9 24 -11.5t27 -17.5q6 -6 9 -10.5t13 -10.5q21 -20 20 -27t20 -12q19 -3 37 6q26 15 14 57q-15 40 -23 58q-14 22 -60.5 32.5t-63.5 1.5q-21 -11 -17 -66zM905 152q-4 -18 3.5 -21.5t17.5 -21.5q4 -12 6 -23t6 -24q8 -27 20.5 -43.5t16.5 -47.5q2 -15 3.5 -31.5 t7.5 -25.5q9 -33 25 -63.5t25 -74.5q6 -29 23 -42q3 -3 17.5 -15.5t19.5 -13.5q21 -9 39.5 11t47.5 24q32 4 47 -10.5t45 21.5q32 38 47 20.5t37 -20.5q5 -2 37.5 15.5t37.5 22.5q14 6 41 17l16 5q29 12 57 14t50 25q32 27 -24 66q-1 1 -14 10q-13 6 -18 12q-9 7 -15 11.5 t-15 13.5q-23 16 -31.5 23.5t-38.5 19.5q-27 9 -39 20.5t-29 24.5q-36 27 -86 33q-43 5 -48 7q-21 3 -21.5 7.5t-14.5 11.5q-17 11 -37.5 20t-37.5 19q-21 13 -82 44t-79 25q-19 -8 13 -29q19 -14 29 -27q10 -14 13.5 -12.5t14.5 -16.5q0 -3 32 -24q11 -6 18.5 -13t14.5 -11 q5 -3 49 -6q40 -7 66 -50q52 -5 49.5 -7t33.5 -22q12 -10 26 -14.5t29 -12.5q16 -16 26.5 -12t37.5 1q27 -5 44.5 -8t35.5 -25l9 -10q3 -6 7 -26q-22 0 -26.5 11.5t-13.5 22.5l-64 14q0 -31 21 -39.5t25 -23.5l9 -38q-19 1 -25 20q-4 9 -21 24l-34 57q-9 0 -12 -3t-14 3 q-9 3 -10 6.5t-11 9.5q-18 12 -34.5 18t-32.5 19q-23 17 -44.5 14t-34.5 22q-19 33 -50.5 29t-56.5 11q-37 21 -83 64q0 -4 29 -50q20 -32 51 -33q23 -3 64 -15.5t55 -29.5q7 -12 5.5 -14.5t12.5 -10.5q22 -17 24.5 -21t28.5 -9q19 -5 28 -12q27 -21 57.5 -24.5t27.5 -28.5 l-1 -16l62 -39q-12 -6 -36 6q-44 19 -45 18.5t-5 30.5q-4 13 -24.5 14.5t-35.5 12.5q-25 16 -24 16q-11 4 -18 2.5t-15 7.5q-27 13 -47 32l-40 38q15 -20 19.5 -24t11.5 -32q8 -30 17 -27t18 -28q17 -58 20.5 -56.5t26.5 -32.5l-18 -18q-3 4 -16 26q-19 23 -26.5 53.5 t-22.5 45.5q-29 25 -21 40t-46 56l-13 15q-69 2 -77 23.5t-31 51.5l-32 32q9 -28 31 -63t34 -63q3 -11 26 -37q1 -3 8 -23q2 -2 17 -18q9 -13 6.5 -25t2.5 -27q10 -29 26.5 -49t26.5 -61l-20 2l-18 44q-20 14 -27 41q-9 16 -9 31.5t-3 24.5q1 -9 -16 18q-5 6 -6.5 12 t-4.5 12q-4 12 -13 19t-13 25q-14 30 -21 46q-15 18 -25 47t-24 43z" />
<glyph unicode="+" d="M122 333q0 35 35 35h182l42 157q8 31 43 23q34 -10 26 -42l-37 -138h163q35 0 35 -35t-35 -36h-183l-42 -159q-12 -33 -42 -23q-35 7 -25 42l37 140h-164q-35 0 -35 36z" />
<glyph unicode="," horiz-adv-x="344" d="M107 -111q-8 33 22 44q45 15 88 63q20 23 32 44q2 8 3 9q-26 19 -11 47q18 29 47 11q11 -5 23 -20q18 -33 0 -75q-11 -22 -44 -63q-49 -54 -115 -82q-31 -12 -45 22z" />
<glyph unicode="-" d="M122 333q0 35 35 35h419q35 0 35 -35t-35 -36h-419q-35 0 -35 36z" />
<glyph unicode="." horiz-adv-x="181" d="M54 35q8 68 63 68q57 0 45 -68q-9 -69 -64 -69q-54 0 -44 69z" />
<glyph unicode="/" horiz-adv-x="863" d="M37 19l710 1074q20 25 49 10q26 -21 10 -50l-710 -1071q-21 -29 -49 -9q-27 16 -10 46z" />
<glyph unicode="0" horiz-adv-x="643" d="M-20 227q0 98 32 216q49 181 135 271q102 103 258 103q162 0 195 -117q14 -50 3 -118t-34 -154q-20 -82 -51 -163.5t-73 -145.5q-44 -68 -105 -110.5t-146 -42.5q-39 0 -65 10q-80 20 -117 94q-32 59 -32 157zM49 227q0 -77 23 -127q26 -49 75 -60q24 -5 47 -5 q112 0 195 122q38 59 65.5 135.5t48.5 155.5q47 167 29 236q-16 65 -127 65q-124 0 -208 -84q-75 -78 -120 -241q-28 -104 -28 -197z" />
<glyph unicode="1" horiz-adv-x="333" d="M33 609q-18 29 12 46l262 157q28 18 47 -11q9 -12 4 -29l-222 -781q-9 -30 -42 -23q-33 9 -24 42l197 699l-185 -112q-27 -20 -49 12z" />
<glyph unicode="2" horiz-adv-x="715" d="M-54 -4q-5 24 21 34q243 145 370 265.5t173 214.5q36 69 28 127q-8 50 -42 75q-44 36 -110 33q-79 -6 -130 -55q-55 -50 -71 -130q-9 -32 -42 -28q-35 7 -26 41q20 100 92 169q75 64 172 73q95 3 160 -49q55 -45 66 -117q11 -77 -34 -169q-44 -88 -151 -196.5 t-298 -234.5q101 8 187 8q156 0 319 -22q35 -10 30 -39q-9 -33 -40 -30q-142 23 -309 23q-79 0 -161 -6t-164 -17q-37 -3 -40 30z" />
<glyph unicode="3" horiz-adv-x="630" d="M-1 65q19 28 48 12q45 -27 87 -32q37 -10 83 -10q82 0 143.5 38t91.5 91q24 41 21 82q0 37 -28 65q-69 68 -274 31q3 -15 -6 -9.5t6 9.5h-2q-37 -10 -40 26q-9 30 23 40h2q142 32 219 78.5t107 96.5q37 63 -2 117q-36 47 -97 47q-43 -4 -84 -30q-47 -40 -73 -92 q-18 -32 -47 -14q-31 17 -13 47q37 74 93 112q59 45 124 45q99 0 152 -73q68 -93 5 -194q-48 -79 -154 -134q66 -14 110 -56q45 -46 49 -109q0 -62 -30 -118q-38 -67 -115 -116t-181 -49q-57 0 -98 12q-52 11 -107 41q-29 18 -13 46z" />
<glyph unicode="4" horiz-adv-x="668" d="M-16 253l412 551q20 26 49 6q27 -22 7 -46l-372 -497h306l87 323q9 33 42 25q32 -8 23 -42l-82 -306h148q33 0 33 -33q0 -35 -33 -35h-166l-57 -208q-7 -30 -42 -23q-33 9 -23 42l52 189h-356q-10 0 -21 7q-28 20 -7 47z" />
<glyph unicode="5" horiz-adv-x="675" d="M-1 127q-20 26 6 49q26 19 49 -7q47 -67 105 -101q54 -33 108 -33q73 0 129 61t84 143q32 88 21 169q-12 70 -63 90q-90 33 -272 -93q-28 -21 -49 9q-11 14 -2 34l147 348q10 21 33 21h314q35 0 35 -33q0 -35 -35 -35h-290l-99 -229q149 76 241 42q87 -30 108 -143 q14 -91 -24 -203q-33 -99 -106.5 -173.5t-171.5 -76.5q-74 0 -143 41q-66 41 -125 120z" />
<glyph unicode="6" horiz-adv-x="687" d="M21 223.5q6 81.5 28 155.5v2q35 103 83 188.5t116 144.5q148 126 372 103q33 -4 30 -37q-4 -35 -37 -31q-195 20 -318 -87q-103 -88 -174 -283q79 58 167 77q74 17 142 -2q69 -23 105 -80q42 -67 29 -157q-15 -121 -99 -184q-85 -64 -214 -67h-8q-25 3 -61 12 q-88 24 -128 97q-39 67 -33 148.5zM94 244q-8 -85 20 -137q29 -49 87 -65q11 -2 22.5 -4.5t24.5 -2.5q110 2 175 52q60 46 73 137q5 69 -19 113q-26 38 -67 49q-45 17 -106 3q-116 -24 -210 -129v-16z" />
<glyph unicode="7" horiz-adv-x="678" d="M-18 21l247 321h-126q-35 0 -35 35t35 36h178l255 329q-44 -2 -88 -3.5t-90 -1.5q-138 0 -248 12q-36 5 -30 38q3 33 39 30q134 -12 239 -11q61 0 123 2.5t128 8.5q32 3 38 -30q0 -16 -10 -26l-269 -348h88q33 0 34 -36q0 -35 -34 -35h-140l-279 -362q-24 -28 -48 -7 q-29 21 -7 48z" />
<glyph unicode="8" horiz-adv-x="566" d="M-34 142q0 6 5 35q26 107 108.5 171t176.5 113q-50 42 -75.5 92t6.5 126q24 60 90 98q59 40 129 40h18q59 -8 101 -45q45 -42 45 -98q0 -7 -3 -12q-7 -76 -60.5 -124t-127.5 -88q63 -50 106 -115t16 -173q-9 -35 -35 -75.5t-75 -69.5q-76 -51 -185 -51q-48 0 -91 12 q-77 20 -112 67q-37 44 -37 97zM35 142q0 -31 19 -53q25 -33 78 -47q28 -7 74 -7q87 0 150 40q63 41 77 102q23 88 -20 141.5t-99 95.5q-88 -46 -171.5 -102.5t-107.5 -149.5v-20zM251 653q-21 -52 3.5 -87.5t66.5 -69.5q70 36 121 76.5t57 97.5v4q0 26 -21 50 q-25 20 -61 23q-3 0 -4.5 1t-4.5 1h-2q-45 0 -94 -30q-44 -29 -61 -66z" />
<glyph unicode="9" horiz-adv-x="672" d="M-1 60q21 29 48 3q31 -27 80 -30q57 -5 126 32q69 34 136 115q99 116 147 283q-91 -127 -192 -166q-62 -21 -108 -11q-55 10 -86 51q-66 77 -31 216q26 114 108 192q82 72 192 72q75 0 122 -23q55 -25 77 -75q7 -8 2 -22h3q10 -3 14 -15l1 -2l1 -1v-2q3 -5 3 -12 q-15 -173 -69.5 -306.5t-129.5 -222.5q-74 -87 -157 -131q-90 -46 -167 -39q-65 4 -117 46q-22 21 -3 48zM187 536q-27 -101 14 -155q18 -21 48 -27q25 -7 70 9q61 22 128.5 97.5t123.5 213.5q-9 6 -16 16q-11 24 -42 40q-42 19 -94 19q-83 0 -145 -56q-63 -60 -87 -157z " />
<glyph unicode=":" horiz-adv-x="226" d="M17 19q7 70 63 70q54 0 47 -70q-10 -66 -64 -67q-57 0 -46 67zM100 323q8 68 64 68q52 0 45 -68q-9 -70 -64 -70q-58 0 -45 70z" />
<glyph unicode=";" horiz-adv-x="344" d="M107 -111q-8 33 22 44q45 15 88 63q20 23 32 44q-23 27 -8 56q18 29 47 11q11 -5 23 -20q18 -33 0 -75q-11 -22 -44 -63q-49 -54 -115 -82q-31 -12 -45 22zM277 323q7 68 63 68q52 0 45 -68q-9 -70 -63 -70q-58 0 -45 70z" />
<glyph unicode="&#x3c;" horiz-adv-x="202" d="M0 -9v595h55v-1h1184v-11h-1184v-566h1184v-16h-1184v-1h-55z" />
<glyph unicode="=" horiz-adv-x="0" d="M-516 -8v16h1718v-16h-1718zM-516 574v11h1718v-11h-1718z" />
<glyph unicode="&#x3e;" horiz-adv-x="202" d="M-276 -8v16h569v566h-569v11h569v1h54v-595h-54v1h-569z" />
<glyph unicode="?" horiz-adv-x="557" d="M17 19q7 70 63 70q54 0 47 -70q-10 -66 -64 -67q-57 0 -46 67zM63 894q19 110 103 169q69 45 190 45q31 0 58 -8q59 -17 92 -67q25 -42 26 -108q0 -48 -14 -98q-21 -70 -63.5 -129.5t-91.5 -121.5q-57 -70 -113 -150.5t-84 -186.5q-8 -34 -42 -26q-36 15 -24 43 q29 117 89 202.5t120 159.5q45 58 84.5 112.5t56.5 115.5q12 48 11 79q0 44 -13 73q-20 27 -52 37q-20 5 -40 5q-101 0 -152 -36q-57 -35 -73 -121q-4 -32 -39 -29q-34 5 -29 40z" />
<glyph unicode="@" horiz-adv-x="908" d="M77 138q5 65 28 136q53 162 176 248q120 90 297 93h2q122 0 197 -55q42 -28 66 -73q23 -44 23 -103q0 -129 -121 -302q-76 -101 -127 -121q-50 -14 -73 17q-20 24 -20 69q-4 23 5 65q-6 -5 -22 -25q-116 -126 -206 -126q-94 5 -89 111q0 67 47 167q52 97 117 150 q58 49 123.5 57.5t129.5 -48.5l7 12l7 14q18 28 46 16q29 -16 17 -47q-119 -230 -115 -344q0 -19 3 -24q34 16 94 97q110 157 110 262q0 38 -17 70q-20 33 -45 49q-62 45 -159 45q-153 -5 -257 -82q-104 -72 -150 -213q-22 -59 -26 -119q-7 -99 44 -168q46 -59 120 -84 q26 -9 72 -15q61 -3 137 17q60 17 79 37q22 26 50 5q23 -20 3 -49q-33 -37 -114 -61q-79 -20 -159 -16q-51 4 -89 16q-99 37 -154 110q-66 85 -57 212zM281 70q0 -40 23 -40q59 0 152 104q31 36 67.5 86.5t73.5 114.5q-81 80 -176 2q-59 -49 -100 -131q-40 -80 -40 -136z " />
<glyph unicode="A" horiz-adv-x="1204" d="M-122 29q0 11 9 23q22 26 49 5q40 -35 79 -35q22 0 43 11q40 18 93 63.5t129 119.5l339 327h-147q-35 0 -35 35t35 35h220l504 485q12 12 24 12l24 -12q9 -12 9 -24q0 -5 -1 -9l-288 -1074q-7 -24 -30 -24q-5 0 -12 1q-33 9 -24 42l143 533h-320l-391 -377 q-79 -76 -137 -124.5t-105 -70.5q-37 -18 -75 -18q-61 0 -121 49q-14 13 -14 27zM791 613h269l94 350z" />
<glyph unicode="B" horiz-adv-x="857" d="M35 -3q0 6 2 13l272 1013q-38 -9 -65 -20q-34 -9 -45 23q-15 32 21 42q132 45 232 53q32 3 62 3q62 0 111 -12q64 -18 112 -54q44 -40 62 -89q11 -30 11 -65q0 -26 -6 -54q-37 -141 -202 -227q-32 -18 -61 -26q110 -28 173 -82q70 -63 78 -149q0 -8 1 -15 q-1 -111 -85 -201q-90 -96 -188 -140q-90 -40 -206 -54q-42 -5 -87 -6q-77 0 -162 16q-2 2 -5 2q-25 7 -25 29zM112 28q62 -10 119 -10q47 0 89 6q96 14 172 48q80 36 158 114q72 72 72 159q0 8 -1 16q-4 58 -51 102q-62 51 -164 70q-65 15 -127 17h-42q-42 0 -84 -2z M272 618h20q145 0 277 66q138 73 166 182q5 21 5 39q0 22 -7 41q-13 33 -40 58q-34 25 -84 40q-48 11 -101 11q-58 0 -122 -13z" />
<glyph unicode="C" horiz-adv-x="727" d="M-12 395v29q4 138 71 278q59 134 170 242q109 104 230 142q61 21 118 21q71 0 137 -32q61 -29 115 -82q10 -12 10 -24q0 -13 -12 -25q-23 -22 -50 0q-39 44 -91 67q-53 27 -111 27q-46 0 -95 -17q-105 -31 -204 -129q-95 -92 -157 -220q-59 -126 -63 -250v-24 q0 -109 33 -194q26 -74 85 -124q51 -45 117 -45h7q114 0 243 136q22 24 49 3q22 -24 2 -50q-151 -158 -301 -158q-89 0 -162 59q-66 55 -106 155q-35 94 -35 215z" />
<glyph unicode="D" horiz-adv-x="1103" d="M31 0v7l1 1l1 2l271 1016q-47 -7 -103 -20q-35 -8 -42 27q-9 32 25 42q197 42 356 42q113 0 206 -21q126 -31 197 -92q80 -70 101 -165q8 -37 8 -75q0 -49 -13 -102q-42 -190 -137 -330t-221 -229q-139 -98 -302 -132q-85 -18 -169 -18q-76 0 -152 15q-27 5 -27 32z M107 28q57 -9 113 -9q222 0 421 140q116 82 203.5 212t128.5 308q11 50 11 90q0 30 -6 55q-18 74 -80 127q-68 57 -169 79q-80 18 -184 18q-77 0 -167 -10z" />
<glyph unicode="E" horiz-adv-x="839" d="M-13 232q0 20 2 40q17 84 63 142q45 62 126 110t199 66q-64 42 -96 96q-31 58 -31 119q0 13 1 26q2 56 28 110q46 92 131 139q62 35 130 35q25 0 50 -5q58 -10 99 -33q64 -35 93 -86q7 -12 7 -21q0 -16 -19 -26q-30 -18 -46 12q-24 39 -66 60q-39 18 -80 26q-19 4 -38 4 q-50 0 -95 -28q-71 -38 -103 -107q-20 -40 -23 -84q-1 -9 0 -18q0 -49 23 -88q29 -53 98 -86q58 -30 140 -40q9 0 19.5 -1.5t18.5 -1.5q33 -4 31 -39q-4 -31 -36 -31h-2q-9 2 -19 2.5t-19 2.5q-46 4 -88 4h-7q-120 0 -203 -35q-116 -48 -170 -122q-38 -53 -48 -112 q-3 -20 -2 -38q0 -40 13 -72q44 -115 192 -122h13q75 0 163 40q92 38 144 101q23 23 50 3q26 -23 5 -50q-67 -74 -172 -117q-110 -46 -197 -46h-10q-97 6 -161 52t-90 116q-18 49 -18 103z" />
<glyph unicode="F" horiz-adv-x="869" d="M47 -2q0 6 2 12l143 526h-47q-35 0 -35 33q0 35 35 35h66l115 436h-102q-35 0 -35 35q0 33 35 33h570q35 0 35 -33q0 -35 -35 -35h-396l-117 -436h307q35 0 35 -35q0 -32 -35 -33h-326l-145 -545q-7 -24 -30 -24q-5 0 -12 1q-28 7 -28 30z" />
<glyph unicode="G" horiz-adv-x="995" d="M4 277q0 111 33 236q15 53 43 119q40 99 101 192t140 162q151 128 328 131q61 0 131 -14q76 -18 138 -45q22 -9 22 -27q0 -8 -4 -17q-14 -31 -44 -19q-57 24 -126 40q-45 11 -107 11h-10q-150 0 -283 -114q-73 -61 -129.5 -147t-94.5 -178q-11 -29 -20.5 -57t-16.5 -56 q-34 -122 -34 -221q0 -43 6 -81q19 -125 99 -159q28 -11 57 -11q47 0 97 28q80 47 131 92q166 146 338 453q15 22 42 16q31 -9 23 -42l-164 -534l141 139q25 21 48 -3q25 -24 0 -49l-231 -221l-87 -286q-36 -120 -103 -150q-18 -7 -35 -7q-26 0 -47 18q-32 26 -40 75 q-2 12 -2 24q0 40 17 90q22 66 91 132l145 141l124 401q-111 -158 -213 -247q-69 -61 -166 -110q-55 -28 -109 -28q-42 0 -83 17q-115 45 -140 211q-6 46 -6 95zM413 -422q0 -8 1 -15q2 -20 14 -33q4 -2 7.5 -2t7.5 2q33 15 63 105l51 167l-56 -54q-56 -53 -74 -102 q-14 -38 -14 -68z" />
<glyph unicode="H" horiz-adv-x="1025" d="M10 -4q0 6 2 14l145 543h-105q-35 0 -35 35q0 32 35 32h124l123 462q7 27 32 27q5 0 11 -1q30 -9 24 -43l-120 -445h534l124 462q7 27 31 27q5 0 11 -1q25 -7 25 -30q0 -6 -2 -13l-287 -1074q-7 -24 -31 -24q-6 0 -12 1q-31 9 -24 42l146 543h-532l-152 -562 q-7 -24 -30 -24q-5 0 -12 1q-25 7 -25 28z" />
<glyph unicode="I" horiz-adv-x="773" d="M-21 102q0 15 15 27q28 18 48 -10q42 -57 105 -74q22 -8 46 -8q15 0 31 3q36 6 80 35q94 73 139 232l215 733h-367q-33 0 -34 35q1 33 34 33h411q35 0 35 -33q0 -10 -2 -14l-227 -773q-52 -186 -164 -267q-55 -39 -108 -48q-22 -4 -42 -4q-35 0 -65 11q-88 25 -142 100 q-8 12 -8 22z" />
<glyph unicode="J" horiz-adv-x="596" d="M-139 -438q0 47 27 112q31 72 106 149l240 245l258 972h-368q-32 0 -32 35q0 33 32 33h412q35 0 35 -33q0 -10 -1 -12l-239 -894l4 2q22 24 49 3q22 -25 0 -50l-89 -91l-19 -72q-56 -211 -124 -325t-125 -153q-41 -26 -78 -26q-18 0 -35 6q-49 22 -53 90v9zM-71 -434v-8 q3 -25 13 -32q4 -1 9 -1q16 0 36 15q48 32 103 126t107 267l-154 -156q-114 -120 -114 -211z" />
<glyph unicode="K" horiz-adv-x="1001" d="M1 1q0 4 1 9l289 1072q7 27 31 27q5 0 11 -1q33 -10 25 -43l-109 -405q160 76 296 174q175 121 307 264q12 11 24.5 11t24.5 -11q27 -24 0 -49q-155 -163 -316 -272q-138 -97 -309 -180q71 -121 134 -241q53 -99 95 -171t83 -113q39 -37 84 -38q18 0 36 6q66 19 178 131 q20 26 48 3q10 -14 10 -26t-10 -24q-138 -139 -228 -157q-18 -4 -34 -4q-70 0 -131 60q-48 45 -93 121t-99 179q-29 53 -61 111t-68 121l-150 -564q-10 -24 -34 -24q-5 0 -11 1q-24 8 -24 33z" />
<glyph unicode="L" horiz-adv-x="1161" d="M-21 0q0 16 17 30q106 101 186 246.5t153 292.5q103 213 211.5 376t284.5 163q88 0 150 -33q56 -36 94 -101q18 -31 -12 -47q-28 -19 -49 12q-33 54 -68 75q-47 25 -115 26q-142 0 -240.5 -153t-194.5 -349q-59 -121 -123 -242t-146 -221q53 9 106 9q35 0 71 -4 q88 -10 179 -23q71 -13 142 -23q39 -5 77 -5q32 0 64 4q73 6 133 35q74 38 136 103q23 23 49 3q11 -12 11 -25t-11 -25q-83 -85 -155 -117q-71 -33 -159 -41q-31 -3 -63 -3h-12l-74 5q-75 10 -150 21q-113 19 -225 25q-13 1 -26 0q-98 0 -190 -43q-24 -12 -43 7q-8 11 -8 22 z" />
<glyph unicode="M" horiz-adv-x="1959" d="M-33 70q0 16 17 26q29 19 46 -12q5 -7 9 -14t10 -11q27 -22 64 -22q13 0 27 3q53 8 139 56q89 51 173 126t136 132q114 123 224 247t218 246q53 61 107 123t108 123q13 15 32 15h6q36 -10 24 -43l-244 -911l735 939q9 15 30 15h7q25 -7 25 -31q0 -5 -1 -12l-231 -861 q-15 -53 -24 -103q-4 -22 -4 -39q0 -20 6 -29q5 -9 42 17.5t122 113.5q20 24 50 2q20 -24 0 -49q-120 -122 -183 -141q-20 -6 -36 -6q-35 0 -53 29q-15 23 -15 62q1 16 3 34q8 64 25 125l189 701l-736 -941q-14 -16 -28 -16q-10 0 -21 9q-14 16 -14 32q2 2 2 5l250 931 q-32 -35 -62 -70t-59 -67q-111 -127 -221 -252t-222 -245q-55 -60 -143.5 -138t-181.5 -134q-101 -54 -162 -62q-20 -3 -38 -3q-66 0 -112 40q-15 17 -29 39q-6 12 -6 21z" />
<glyph unicode="N" horiz-adv-x="1749" d="M-29 71q0 14 16 27q26 16 48 -9q33 -50 82 -51q39 0 87 32q51 35 105.5 92t106.5 119q18 20 35 39t34 36l683 740q11 13 24 13q11 0 23 -11q17 -12 12 -28v-5l-244 -901l534 714q115 153 206 206q46 21 81 21h8q49 -9 70 -47q25 -39 28 -105q0 -35 -32 -35q-33 -4 -38 33 q0 45 -16 70q-6 11 -21 17q-17 0 -47 -15q-81 -49 -183 -187l-641 -856q-13 -15 -27 -15q-10 0 -22 8q-21 18 -12 37l252 936l-587 -637q-18 -20 -35 -37.5t-33 -37.5q-57 -61 -114.5 -122.5t-112.5 -99.5q-71 -47 -138 -47l-1 1q-67 0 -122 83q-9 11 -9 22z" />
<glyph unicode="O" horiz-adv-x="1007" d="M-16 253q0 126 63 295q44 120 108 227t149 183q161 150 361 150q66 0 127 -22q84 -31 129 -107q39 -67 39 -173q0 -128 -56 -281q-99 -256 -265 -408q-174 -151 -370 -151q-71 0 -127 21q-83 29 -121 102q-37 68 -37 164zM54 257q0 -89 28 -135q26 -49 87 -73 q39 -14 100 -14q170 0 323 134q156 138 247 379q53 142 53 254v4q0 80 -30 140q-34 53 -94 77q-49 17 -103 17q-173 0 -314 -131q-154 -145 -241 -384q-56 -147 -56 -268z" />
<glyph unicode="P" horiz-adv-x="765" d="M-7 -2q0 6 1 12l273 1020q-23 -3 -47.5 -8.5t-50.5 -10.5q-35 -10 -42 27q-6 33 27 42q158 37 284 37q55 0 103 -7q88 -15 148 -54q58 -42 72 -108q5 -16 5 -36v-6q0 -16 -2 -35v-14q-36 -181 -184 -255q-93 -50 -228 -50q-60 0 -128 10q-7 0 -11 3l-154 -574 q-7 -24 -30 -24q-5 0 -12 1q-24 7 -24 30zM232 630h4q64 -9 119 -9q116 0 195 41q119 63 143 209q2 3 2 10q2 11 2 21q-1 4 -1 6q0 12 -1 24q-10 37 -46 68q-45 28 -117 42q-39 6 -86.5 6t-103.5 -6z" />
<glyph unicode="Q" horiz-adv-x="1005" d="M-51 253q0 126 63 295q44 120 108 227t149 183q161 150 361 150q67 0 126 -22q86 -32 129 -107q40 -66 40 -173q0 -128 -56 -281q-99 -256 -265 -408q-15 -13 -29 -23l-27 -22q69 -32 123 -32q24 0 45 6q68 22 167 125q22 24 48 3q12 -12 12 -25t-12 -25 q-134 -138 -219 -157q-16 -4 -35 -4q-79 0 -199 65q-121 -62 -244 -62q-71 0 -127 21q-82 29 -122 102q-36 66 -36 164zM19 257q0 -89 28 -135q26 -49 87 -73q39 -14 100 -14q90 0 171 35q-32 19 -67.5 40.5t-73.5 46.5l-40 25q-28 17 -11 47t46 12l40 -24q53 -33 97 -61 t82 -49q41 29 79 62q156 139 246 379q54 145 54 254v4q0 81 -31 140q-31 53 -94 77q-47 17 -102 17q-173 0 -314 -131q-153 -143 -241 -384q-56 -147 -56 -268z" />
<glyph unicode="R" horiz-adv-x="984" d="M15 -4q0 6 2 14l274 1020q-23 -3 -48 -8.5t-49 -10.5q-34 -9 -42 27q-9 32 25 42q160 37 288 37q54 0 102 -7q91 -16 145 -54q59 -43 75 -108q5 -23 4 -45q0 -16 -2 -32q0 -4 -1 -7.5t-1 -6.5q-32 -180 -180 -255q-99 -51 -234 -51q-37 0 -78 4l267 -450q41 -68 94 -69 q4 0 9 1q81 12 199 134q22 24 49 3q12 -12 12 -25t-12 -25q-139 -142 -239 -153q-8 -1 -16 -1q-95 0 -155 100l-276 463l-145 -542q-7 -24 -30 -24q-5 0 -12 1q-25 7 -25 28zM253 630h7q63 -9 119 -9q116 0 194 41q118 60 146 209q0 7 2 10q2 12 2 23q0 15 -4 28 q-7 38 -47 68q-46 29 -117 42q-39 6 -86 6t-103 -6z" />
<glyph unicode="S" horiz-adv-x="758" d="M-17 87q0 9 6 20q17 28 46 12q139 -85 252 -85h3q46 0 87 13q59 18 96 65q34 44 42 110q1 15 1 29q0 144 -142 290q-100 103 -126 203q-13 49 -13 92q0 46 14 87q16 53 60 103q38 40 101 65q40 13 83 13q31 0 63 -6q78 -16 146 -84q10 -12 10 -24q0 -13 -12 -25 q-24 -23 -47 0q-73 72 -154 72q-32 0 -66 -11q-44 -16 -72 -47q-35 -35 -47 -78q-10 -31 -10 -66q0 -37 11 -77q22 -80 109 -170q92 -94 130 -192q30 -77 30 -143q0 -20 -1 -36q-8 -89 -56 -147q-48 -63 -129 -88q-46 -14 -101 -14q-37 0 -78 6q-102 16 -219 86 q-17 11 -17 27z" />
<glyph unicode="T" horiz-adv-x="797" d="M7 1075q0 33 35 33h859q35 0 35 -33q0 -35 -35 -35h-381l-284 -1049q-6 -24 -30 -24q-6 0 -12 1q-32 10 -23 42l277 1030h-406q-35 0 -35 35z" />
<glyph unicode="U" horiz-adv-x="1066" d="M26 97q0 70 28 179q31 121 94.5 295t153.5 400q-11 -7 -18 -11q-30 -20 -60.5 -38.5t-61.5 -34.5q-32 -20 -47 14q-19 31 14 47q29 16 58 33.5t59 36.5q28 18 53.5 38.5t54.5 41.5q15 11 27 11q13 0 24 -13q14 -17 5 -38q-105 -267 -179 -466.5t-109 -331.5 q-30 -112 -30 -168.5t30 -56.5q113 0 358 309q107 135 224.5 322t234.5 418q12 25 31 25q7 0 16 -4q20 -12 20 -30q0 -10 -6 -22q-142 -292 -235.5 -530t-115.5 -376q-6 -35 -6 -61q0 -21 4 -37q3 -20 20 -14q59 18 174 136q22 24 48 3q24 -25 0 -50q-131 -133 -203 -153 q-18 -5 -33 -5q-47 0 -68 48q-12 19 -12 54q1 8 1 16q4 46 6 75q20 126 106 354q-71 -113 -153 -211q-263 -336 -411 -336q-96 0 -96 131z" />
<glyph unicode="V" horiz-adv-x="1101" d="M87 78q0 103 80 326t217 567q-11 -7 -18 -11q-30 -20 -60.5 -38.5t-61.5 -34.5q-31 -19 -47 14q-16 30 15 47q47 25 117 70q56 35 110 82l1 1q1 2 3 2q10 5 19 5q7 0 12 -3q30 -12 18 -44l-14 -40q-147 -372 -235 -608t-88 -333q0 -45 25 -45q73 0 178.5 76t212.5 198 q107 121 197.5 270t138.5 295q7 24 7 53q0 16 -2 33q-37 0 -59 7q-30 10 -43 24q-19 20 -20 42q-1 5 -1 9q0 27 31 44q30 20 59 17q36 0 65 -35q16 -23 19 -30q61 14 159 65q11 6 20 6q16 0 27 -18q4 -10 4 -19q0 -18 -18 -28q-96 -55 -176 -73q4 -23 4 -45q0 -38 -11 -74 q-50 -153 -144.5 -308t-204.5 -280q-116 -132 -234.5 -214t-208.5 -84q-93 0 -93 112zM864 1044q0 -2 5 -9q12 -5 17 -5q-5 12 -12 12q-6 3 -8 3q-1 0 -2 -1z" />
<glyph unicode="W" horiz-adv-x="1699" d="M17 78q0 104 80 326.5t217 566.5q-11 -7 -19 -11q-30 -20 -60 -38.5t-61 -34.5q-32 -20 -47 14q-19 29 13 47q29 16 58 33.5t59 36.5q53 32 111 82q13 9 24 9q13 0 24 -13q16 -20 5 -38l-28 -67q-140 -359 -224.5 -586.5t-84.5 -324.5q0 -45 26 -45q97 0 300 279 q211 284 456 774q5 5 5 8l3 2l2 2h2v3h3v2h5l1 3h22v-3h1q0 -1 11 -7h2v-2h2v-3h2v-5h2v-6q3 -5 3 -14v-3h-3v-4q-105 -267 -175.5 -467.5t-100.5 -333.5q-24 -104 -25 -160q0 -65 34 -65q72 0 167.5 71.5t191.5 188.5q99 123 186 276t135 303q8 26 8 63q0 11 -1 23 q-36 0 -61 7q-30 10 -43 24q-19 21 -18 42v8q0 30 28 45q30 20 59 17q39 0 68 -35q10 -16 16 -30q59 12 159 65q11 6 20 6q16 0 27 -18q5 -11 5 -20q0 -17 -19 -27q-88 -53 -173 -73q2 -20 2 -38q0 -48 -12 -81q-50 -157 -139.5 -315.5t-194.5 -283.5q-104 -127 -212 -206 t-196 -81h-3q-100 2 -100 144q0 67 23 166q16 67 40.5 151t60.5 184q-108 -184 -220 -339q-226 -306 -356 -306q-93 0 -93 112zM1304 1035q2 0 2.5 -1t2.5 -1t5.5 -1.5t8.5 -1.5q-9 5 -11 5h-8z" />
<glyph unicode="X" horiz-adv-x="1253" d="M35 0q0 12 14 23l548 548q-6 45 -10 89.5t-9 88.5q-8 81 -15 161.5t-18 159.5q-4 32 31 38h5q28 0 32 -31q10 -79 18.5 -159.5t17.5 -160.5q2 -47 11 -122l463 463q12 11 24.5 11t25.5 -11q10 -12 10 -24t-10 -25l-506 -504q12 -105 27.5 -211.5t40.5 -209.5 q19 -87 48 -87h4h2q53 12 171 134q23 23 49 3q22 -25 0 -50q-134 -139 -208 -153h-5q-7 -1 -14 -1q-80 0 -115 137q-21 94 -36 188t-24 190l-511 -507q-12 -12 -24 -12t-25 12q-12 11 -12 22z" />
<glyph unicode="Y" horiz-adv-x="1050" d="M39 134q0 60 18 142q23 120 83 294.5t151 400.5q-4 -2 -19 -11q-30 -20 -60.5 -38.5t-61.5 -34.5q-36 -19 -47 14q-19 30 12 47q61 34 119 70q53 32 110 82l1 1l1 2q17 8 33 2q30 -12 19 -44q-105 -267 -176.5 -467t-97.5 -332q-16 -74 -16 -124q0 -103 68 -103 q126 0 314 272q97 137 204.5 334.5t232.5 444.5q9 23 31 23q4 0 9 -1q27 -8 27 -32q0 -5 -1 -11l-251 -943l47 49q23 23 50 3q22 -24 2 -50l-136 -137l-8 -26q-53 -202 -119.5 -315t-121.5 -155q-41 -29 -76 -29q-15 0 -29 6q-47 19 -47 78v10q3 50 42.5 127t131.5 168 l166 170l199 751q-81 -153 -155.5 -280t-142.5 -225q-207 -298 -369 -301q-137 0 -137 168zM373 -461q0 -9 4 -9h3q11 0 34 17q40 30 91.5 111.5t98.5 223.5l-77 -78q-81 -82 -116 -147t-37 -104q-1 -8 -1 -14z" />
<glyph unicode="Z" horiz-adv-x="1127" d="M14 0q0 11 11 23l911 1017h-657q-35 0 -35 35q0 33 35 33h735q35 0 35 -33q0 -20 -11 -26l-874 -977q52 10 104 10q32 0 66 -4q86 -10 174 -21q54 -12 108.5 -19.5t104.5 -7.5q81 0 136 29q67 32 146 112q22 24 48 3q11 -12 11 -25t-11 -25q-86 -90 -164 -128 q-74 -32 -166 -32q-55 0 -111 8t-114 17q-111 17 -220 23q-13 1 -26 1q-95 0 -180 -42q-22 -13 -40 5q-16 11 -16 24z" />
<glyph unicode="[" horiz-adv-x="202" d="M0 -570v1727h1260v-10h-1205v-562h1205v-11h-1205v-566h1205v-16h-1205v-552h1205v-10h-1260z" />
<glyph unicode="\" horiz-adv-x="198" d="M-29 431q-5 34 29 40q52 5 103 44q41 33 98 92q21 25 50 0q20 -28 0 -50q-25 -24 -51.5 -49.5t-54.5 -48.5q-75 -51 -138 -58q-32 -6 -36 30z" />
<glyph unicode="]" horiz-adv-x="202" d="M-276 -8v16h569v566h-569v11h569v562h-569v10h623v-1727h-623v10h569v552h-569z" />
<glyph unicode="^" horiz-adv-x="779" d="M253 759q-24 24 0 48l288 291q24 24 49 0q7 -7 7 -14l133 -285q12 -33 -18 -47q-33 -14 -45 16l-112 246l-253 -255q-25 -23 -49 0z" />
<glyph unicode="_" horiz-adv-x="0" d="M-516 -8v16h1715v-16h-1715zM-516 -560h1715v-10h-1715v10zM-516 574v11h1715v-11h-1715zM-516 1147v10h1715v-10h-1715z" />
<glyph unicode="`" horiz-adv-x="490" d="M123 949q20 31 50 13l194 -115q30 -19 10 -49q-16 -33 -49 -13l-195 115q-27 17 -10 49z" />
<glyph unicode="a" horiz-adv-x="458" d="M-240 92v13q3 103 67 230q65 132 162 210q81 67 175 77q9 1 18 1q84 0 163 -80q5 12 19 35l10 22q19 29 46 13q33 -13 14 -44q-46 -94 -108 -238t-65 -249q-8 -29 4 -45q4 -3 15 0q58 20 154 134q23 23 50 3q14 -13 14 -27q0 -11 -9 -23q-115 -127 -191 -151 q-17 -5 -32 -5q-33 0 -54 26q-22 28 -22 70q0 9 1 20q3 57 21 120q-15 -18 -30 -35.5t-29 -32.5q-158 -175 -278 -175q-115 5 -115 131zM-173 103q0 -73 50 -73h4q86 0 223 152q102 113 206 296q-65 71 -132 71h-9q-72 -5 -135 -57q-85 -70 -145 -190q-57 -104 -62 -199z " />
<glyph unicode="b" horiz-adv-x="638" d="M-115 104q0 41 8 90q16 102 133 546q40 149 99 234t112 114q34 19 66 19q22 0 42 -9q47 -26 52 -98q0 -57 -43.5 -143.5t-146.5 -191.5l-178 -182q-18 -67 -37.5 -147.5t-28.5 -153.5q-11 -61 -11 -104t16 -43q68 0 162 87q58 54 103 119.5t62 109.5q12 29 12 56 q0 23 -9 45q-21 41 -61 73q-40 27 -40 28q-28 20 -12 47q20 26 50 11q15 -10 42 -31q31 -20 72 -40.5t85 -26.5q34 -3 62 -3q89 0 124 31q30 20 50 -3q3 -8 3 -18q0 -14 -6 -30q-56 -50 -169 -50q-36 0 -78 5q-33 5 -51 14q8 -26 8 -52q0 -40 -18 -81q-20 -50 -70 -122 t-112 -132q-50 -46 -103.5 -76t-102.5 -30h-3q-62 2 -76 67q-7 32 -7 71zM66 618l92 94q93 97 130.5 169.5t37.5 118.5q0 31 -14 38q-5 2 -10 2q-13 0 -32 -12q-43 -25 -91.5 -99t-83.5 -208z" />
<glyph unicode="c" horiz-adv-x="299" d="M-233 87q3 111 57 248q76 147 185 227q83 60 170 60h4q89 -2 168 -107q6 -12 6 -22q0 -16 -16 -27q-24 -20 -46 7q-57 77 -121 77t-122 -44q-50 -35 -93.5 -90t-75.5 -114q-46 -132 -46 -215q0 -52 64 -60q156 1 231 45q63 20 142 99q22 24 49 3q22 -25 0 -50 q-87 -91 -166 -113q-78 -50 -256 -53q-134 11 -134 129z" />
<glyph unicode="d" horiz-adv-x="512" d="M-245 97q0 9 1 18q4 102 67 224q65 127 159 206q82 69 178 77q8 1 16 0q88 0 169 -86q7 19 17 52l133 494q7 27 31 27q5 0 11 -1q26 -7 26 -30q0 -6 -2 -13l-143 -533q-28 -100 -33 -118q-2 -5 -3 -9l1 1q1 -2 -16 -71q-54 -203 -54 -273q0 -25 7 -34q1 -1 3 -1 q22 0 163 144q21 27 46 3q23 -24 3 -50q-156 -158 -229 -158q-25 0 -40 18q-16 21 -16 75q0 80 35 232q-34 -45 -82 -102q-92 -102 -185.5 -165t-147.5 -63h-3q-112 7 -112 136zM-178 99q0 -66 50 -69h3q38 0 114 56q79 58 162 150q92 99 162 232l-2 1q-1 2 -1 4 q-64 78 -135 78q-4 -1 -8 -1q-75 -4 -140 -58q-81 -67 -143 -183q-59 -116 -61 -197q0 -7 -1 -13z" />
<glyph unicode="e" horiz-adv-x="282" d="M-131 184q0 33 4 69q14 125 70.5 234t162.5 123q23 3 44 3q74 0 117 -38q46 -41 46 -106v-9q0 -9 -1 -19q-12 -85 -100 -129q-20 -10 -43 -11q-77 0 -183 114q-29 -61 -39 -145q-7 -60 -7 -98q0 -16 1 -26q4 -38 28 -72.5t75 -40.5q9 -1 18 -1q40 0 80 22q48 28 110 102 q19 24 40 6q21 -16 21 -33q0 -9 -6 -17q-59 -90 -133 -125q-53 -28 -115 -28q-9 1 -21 1q-74 6 -116 53.5t-50 115.5q-3 26 -3 55zM20 484q96 -102 154 -102q16 0 29 8q45 26 45 68q0 15 -6 31q-20 59 -92 59h-12q-83 -5 -118 -64z" />
<glyph unicode="f" horiz-adv-x="136" d="M-297 58q0 9 6 19q13 30 44 15q40 -20 109 -20l182 668q38 149 97 234t112 114q33 19 65 19q22 0 44 -9q50 -27 50 -98q0 -57 -42.5 -143.5t-148.5 -191.5l-177 -182l-107 -399q112 30 170 87q22 24 49 3q23 -25 3 -50q-78 -76 -220 -110q-10 0 -24 -4l-145 -522 q-8 -27 -30 -27q-6 0 -12 2q-25 10 -25 31q0 6 2 13l137 498q-71 0 -119 25q-20 12 -20 28zM81 618l92 94q93 97 131 170q37 70 37 116q0 31 -11 40q-6 2 -12 2q-15 0 -33 -12q-42 -25 -90.5 -98.5t-85.5 -208.5z" />
<glyph unicode="g" horiz-adv-x="403" d="M-249 105q4 98 69 230q69 132 161 210q82 67 175 77q9 1 19 1q83 0 161 -80q2 4 17 30l5 17q8 22 28 25q15 5 26 -2q20 -9 20 -27q0 -7 -4 -17l-10 -19l-123 -466l84 87q22 24 49 3q11 -12 11 -25t-11 -25l-171 -175l-30 -119q-39 -138 -105 -224.5t-125 -119.5 q-39 -23 -69 -23q-14 0 -26 5q-48 13 -48 67q0 7 1 16q5 39 45 105t128 156l168 172l23 93l67 242q-83 -122 -139 -183q-158 -175 -281 -175q-115 5 -115 144zM-178 91q0 -61 46 -61h4q88 0 224 152q101 112 205 296q-63 71 -131 71h-8q-73 -5 -137 -57q-84 -72 -145 -190 q-58 -115 -58 -196v-15zM-78 -458v-9q2 -1 4 -1q12 0 39 15q47 26 103.5 101.5t90.5 200.5l-82 -84q-79 -81 -114 -137t-41 -86z" />
<glyph unicode="h" horiz-adv-x="520" d="M-153 -2q0 5 2 12l185 730q40 149 97.5 234t113.5 114q34 19 65 19q22 0 42 -9q48 -26 52 -98q0 -57 -43.5 -143.5t-145.5 -191.5l-162 -169l-64 -232q52 77 106 146q64 84 128.5 143.5t108.5 61.5h2q82 0 82 -96q0 -12 -1 -27q-6 -41 -21 -93t-32 -106l-3 -9 q-20 -64 -38 -123.5t-18 -97.5q0 -28 17 -28q18 0 54 25q42 27 126 111q22 24 49 3q11 -12 11 -25t-11 -25q-43 -44 -76 -73.5t-59 -48.5q-59 -36 -94 -36q-85 0 -85 97q0 45 17.5 109.5t41.5 131.5l2 10q18 53 31.5 101t17.5 83q8 47 -11 47q-26 0 -76.5 -52t-109.5 -125 q-82 -105 -151.5 -218.5t-79.5 -158.5q-12 -30 -43 -23q-27 8 -27 30zM74 618l91 94q93 97 131 169.5t38 118.5q0 30 -14 38q-4 2 -10 2q-13 0 -33 -12q-42 -25 -91.5 -98.5t-84.5 -208.5z" />
<glyph unicode="i" horiz-adv-x="157" d="M-123 60q0 42 13.5 100.5t31.5 123.5l75 283l7 23l1 1q2 1 2 4q7 25 37 20q31 -7 28 -37v-7q-3 -5 -7 -21l-78 -283v-3q-16 -59 -29 -113.5t-13 -90.5q0 -25 7 -25q18 0 57 25q56 39 124 111q23 23 49 3q12 -13 12 -26q0 -12 -10 -24q-44 -44 -78 -73.5t-60 -48.5 q-59 -36 -94 -36q-75 0 -75 94zM52 761q0 6 2 14l42 157q7 25 31 25q5 0 11 -1q27 -8 27 -31q0 -6 -2 -12l-42 -156q-7 -26 -29 -26q-6 0 -13 2q-27 5 -27 28z" />
<glyph unicode="j" horiz-adv-x="50" d="M-498 -470q0 10 2 21q6 39 44 105t125 156l169 172l25 93l132 490l5 23q2 2 2 5q9 25 40 20q30 -8 25 -39v-5q-5 -13 -5 -18l-125 -469l86 87q21 27 47 3q22 -24 2 -50l-171 -175l-33 -119q-37 -138 -103 -224.5t-124 -119.5q-41 -23 -72 -23q-14 0 -26 5q-45 13 -45 62z M-431 -467q2 -1 5 -1q12 0 36 15q49 26 105 101.5t89 200.5l-82 -84q-79 -81 -113 -137t-38 -86q-1 -5 -1 -7zM49 749q0 6 2 12l42 157q7 27 31 27q5 0 11 -1q27 -8 27 -31q0 -6 -2 -12l-42 -156q-10 -28 -31 -28q-5 0 -11 2q-27 10 -27 30z" />
<glyph unicode="k" horiz-adv-x="497" d="M-141 -3q0 6 2 13l185 730q40 149 97.5 234t110.5 114q35 19 67 19q22 0 43 -9q50 -27 50 -98q1 -57 -42 -143.5t-147 -191.5l-161 -169l-65 -240q22 32 49 65t53 65q63 68 132 115t131 49q58 0 87 -40q14 -22 14 -48q0 -12 -3 -26q-9 -38 -35 -75q-39 -57 -124.5 -113.5 t-212.5 -83.5q48 -78 77 -101q34 -28 80 -28q43 0 95 30q52 29 130 106q22 24 49 3q11 -12 11 -25t-11 -25q-77 -79 -143 -119q-68 -39 -131 -39q-70 0 -124 44q-57 51 -108 149q-72 -107 -89 -168q-9 -30 -42 -23q-25 8 -25 29zM64 229q117 24 194 73t113 99q20 25 23 49 q2 7 2 12.5t-2 8.5q-6 9 -30 9q-46 0 -101.5 -40.5t-109.5 -100.5q-51 -58 -89 -110zM85 618l92 94q93 97 130.5 169.5t37.5 118.5q0 30 -14 38q-5 2 -10 2q-13 0 -32 -12q-44 -25 -92.5 -99t-83.5 -208z" />
<glyph unicode="l" horiz-adv-x="138" d="M-150 63q0 45 19 109.5t154 567.5q40 149 98 234t111 114q34 19 66 20q22 0 44 -10q49 -27 49 -98q0 -57 -42 -143.5t-145 -191.5l-174 -178q-76 -267 -92.5 -326.5t-16.5 -97.5q0 -28 14 -28q18 0 56 25q54 38 126 111q21 27 47 3q23 -25 3 -50q-43 -44 -77.5 -73.5 t-61.5 -48.5q-56 -36 -91 -36h-2q-85 0 -85 97zM61 618l91 94q95 97 133 169.5t38 118.5q0 28 -14 38q-4 2 -10 2q-14 0 -35 -12q-42 -25 -90 -98.5t-85 -208.5z" />
<glyph unicode="m" horiz-adv-x="1137" d="M-32 514q0 12 12 24q55 61 95 75q14 6 28 6q18 0 35 -10q22 -16 31 -56q1 -11 1 -24q0 -71 -36 -208l-34 -122q179 266 303 368q59 47 100 51q61 0 75 -68q5 -21 5 -49q0 -80 -40 -220l-20 -82q180 267 306 368q59 48 96 48h2h7q53 0 70 -62q6 -25 5 -55q0 -40 -10 -90 q-19 -86 -34 -148q-16 -60 -27.5 -112t-11.5 -88q0 -25 3 -25q21 0 57 25q42 27 127 111q20 26 49 3q10 -14 10 -26t-10 -24q-43 -44 -76.5 -73.5t-59.5 -48.5q-59 -36 -97 -36q-74 0 -74 94q0 41 13.5 98t30.5 118q12 51 31 132q12 53 12 92q0 20 -3 36q-4 12 -7 12 q-20 0 -61 -35q-72 -59 -179.5 -198t-230.5 -333q-10 -18 -24 -18q-10 0 -23 9q-20 12 -16 34h1q2 0 2 3l77 289q36 133 36 202q0 20 -3 35q0 12 -5 12q-20 0 -58 -35q-74 -60 -180.5 -199t-227.5 -332q-11 -18 -25 -18q-10 0 -22 9q-15 9 -15 28v6v3l87 329q34 129 34 186 q0 10 -1 18v5q-23 -10 -70 -56q-24 -24 -48 -2q-12 12 -12 24z" />
<glyph unicode="n" horiz-adv-x="711" d="M-35 515q0 11 10 23q59 61 98 75q14 6 28 6q18 0 35 -10q25 -16 28 -56q2 -14 3 -32q0 -70 -35 -200l-35 -129q192 280 311 375q58 48 96 48h2h7q53 0 70 -62q6 -25 6 -55q0 -40 -11 -90q-19 -86 -35 -148q-16 -60 -29 -112t-13 -88q0 -25 7 -25q18 0 57 25 q52 37 126 111q21 27 47 3q12 -13 12 -26q0 -12 -10 -24q-43 -44 -76 -73.5t-59 -48.5q-64 -36 -97 -36q-75 0 -75 94q0 41 13 98t30 118q14 51 32 132q11 49 12 86q0 24 -5 42q0 12 -4 12q-20 0 -61 -35q-74 -59 -180.5 -198t-229.5 -333q-2 -3 -12 -9q-12 -8 -28 -5 q-27 8 -27 30q0 5 2 12l88 329q35 130 35 190q0 8 -1 14v5q-24 -9 -71 -56q-24 -23 -49 -2q-12 12 -12 25z" />
<glyph unicode="o" horiz-adv-x="607" d="M-236 101q0 11 1 23q7 77 42 157q49 117 141.5 222.5t200.5 119.5q8 0 21 -5q27 13 50 14q12 0 22 -4q32 -10 62.5 -56.5t38.5 -91.5q169 0 239 61q30 21 50 -5q8 -11 8 -21q0 -13 -13 -25q-89 -75 -282 -80q-16 -65 -38.5 -105t-50.5 -78q-46 -60 -94 -106t-93 -79 q-116 -81 -190 -81q-75 5 -100 64q-15 34 -15 76zM-166 95q0 -23 8 -41q12 -23 37 -24h6q52 0 144 68q89 62 174 171q55 77 70 134q0 3 1 5.5t1 5.5h-2q-55 12 -85 31q-46 29 -53 61q-7 19 -7 42q-79 -25 -149.5 -112t-108.5 -180q-33 -79 -35 -141q-1 -10 -1 -20zM197 535 q0 -3 1 -5q8 -17 25 -27q25 -12 47 -18q-5 19 -20 53l-5 5q-8 15 -19 19q-2 1 -5 1q-8 0 -18 -6q-6 -14 -6 -22z" />
<glyph unicode="p" horiz-adv-x="586" d="M-297 -508q0 6 2 13l285 1062l7 23v5q14 24 40 20q31 -7 28 -37q0 -2 -2 -5v-2q0 -5 -4 -21l-80 -297q123 205 238 300q68 57 122 67q13 3 25 3q51 0 79 -52q17 -32 17 -85q0 -74 -34 -191l-3 -9q-18 -65 -33.5 -125t-15.5 -98q0 -28 10 -28q18 0 54 25q47 31 126 111 q23 23 49 3q11 -13 11 -25.5t-11 -24.5q-43 -44 -76 -73.5t-59 -48.5q-59 -36 -94 -36q-78 0 -78 97q0 45 16 108.5t36 130.5l2 12q32 107 32 169q0 37 -11 58q-7 15 -30 12q-33 -8 -89 -52q-104 -88 -225.5 -283.5t-188.5 -448.5v-2l-75 -279q-8 -27 -30 -27q-6 0 -12 2 q-28 8 -28 29z" />
<glyph unicode="q" horiz-adv-x="432" d="M-235 96v9q4 104 68 230q66 134 162 210q80 67 173 77q10 1 19 1q84 0 163 -80q15 24 28 54q8 27 40 18q34 -8 26 -42l-154 -571q59 103 124 169q23 23 49 3q11 -12 11 -25t-11 -25q-86 -89 -173 -263q-89 -184 -139 -373v-2q-11 -25 -31 -25q-5 0 -11 2q-34 10 -25 42 l222 826q-81 -121 -147 -195q-158 -175 -279 -175q-115 5 -115 135zM-167 103q0 -73 49 -73h4q87 0 223 152q101 112 206 296q-64 71 -132 71h-9q-72 -5 -135 -57q-82 -68 -145 -190q-58 -109 -61 -199z" />
<glyph unicode="r" horiz-adv-x="625" d="M-35 515q0 11 10 23q62 62 98 75q14 6 28 6q18 0 36 -10q23 -16 28 -56q2 -12 2 -28q0 -35 -9 -92q54 93 142 174q8 8 19 8h3q4 1 7 1q20 0 28 -21q1 -4 1.5 -10.5t3.5 -11.5q6 -33 25 -51q10 -9 80 -19q26 -5 39 -2q57 2 93 37q22 24 49 3q11 -12 11 -24.5t-11 -24.5 q-47 -49 -134 -61q-10 -1 -24 -1q-34 0 -91 8q-33 10 -61 35q-18 18 -31 45q-98 -105 -153.5 -235.5t-105.5 -275.5l-5 -16q-7 -24 -30 -24q-5 0 -12 1q-28 7 -28 30q0 6 2 12l89 329q35 127 35 191q-4 23 -23 6q-9 -9 -22.5 -20t-27.5 -24q-24 -24 -48 -2q-13 12 -13 25z " />
<glyph unicode="s" horiz-adv-x="237" d="M-211 37q0 10 9 21q18 28 51 18q39 -27 109 -33q14 -1 26 -1q51 0 75 20q28 23 28 66q-1 4 -1 7q-2 48 -70 109t-72 153q11 152 115 210q11 13 23 13h1q12 0 25 -13q20 -27 0 -50q-91 -67 -94 -137v-6q0 -67 70 -134q72 -70 74 -140q0 -4 1 -7q0 -64 -39 -110 q-41 -48 -132 -52h-15l-167 40q-17 12 -17 26z" />
<glyph unicode="t" horiz-adv-x="208" d="M-200 153q0 16 7 34q24 49 68 57q22 6 52 -8q24 -13 37 -35l80 297l-15 -9q-25 -22 -49 2q-21 25 2 49q98 121 219 542v2q2 2 2 4q10 21 31 21q4 0 9 -1q27 -8 27 -31q0 -6 -2 -12l-254 -946q112 5 163 52q20 26 49 3q20 -25 0 -50q-35 -37 -101 -54.5t-131 -17.5 l-14 -61h-1v-2q-7 -22 -28 -22q-5 0 -12 1q-34 10 -27 39v3q6 20 10 47q-21 2 -50 11q-46 18 -62 49q-10 16 -10 36zM-130 150q3 -10 27 -16q7 -4 25 -7q-3 20 -14 35q-5 10 -11 14h-10q-9 0 -17 -17v-9z" />
<glyph unicode="u" horiz-adv-x="550" d="M-144 77q0 77 40 225l77 290q6 25 30 25q6 0 13 -2q35 -8 23 -42l-78 -289q-36 -134 -36 -200q0 -22 4 -37q2 -12 5 -12q18 0 58 33q73 61 179.5 201t227.5 333q2 0 2 1l1 1q11 13 25 13q5 0 10 -2q34 -8 25 -42v-2q-8 -24 -28 -96.5t-42 -155.5t-39 -157t-17 -102 q0 -25 7 -25q18 0 56 25q53 36 127 111q21 27 46 3q12 -13 12 -27q0 -12 -9 -23q-43 -44 -77.5 -73.5t-60.5 -48.5q-59 -36 -94 -36q-75 0 -75 94q0 59 17.5 126t34.5 128l20 70q-187 -272 -304 -367q-56 -47 -100 -51h-5q-55 0 -70 67q-5 18 -5 44z" />
<glyph unicode="v" horiz-adv-x="609" d="M-122 104q0 55 11 123q15 93 39.5 193.5t44.5 169.5q7 27 30 27q6 0 12 -2q31 -7 24 -42q-19 -68 -43.5 -167.5t-39.5 -189.5q-12 -74 -15 -127.5t13 -53.5q41 0 85 28q49 26 107 89q48 53 82 104q39 55 54 95q12 29 12 56q0 23 -9 45q-21 41 -62 73q-13 7 -32 23 q-35 24 -16 52q6 15 23 15h2h4q14 0 31 -13q19 -15 30 -22q29 -20 70 -40.5t85 -26.5q27 -3 51 -3q74 0 112 31q26 22 47 -3q12 -12 12 -24q0 -13 -15 -24q-54 -50 -155 -50q-31 0 -66 5q-35 6 -51 14q8 -26 8 -52q0 -40 -18 -81q-17 -43 -60 -110q-38 -58 -87 -111 q-74 -74 -124 -100q-62 -39 -120 -39q-61 0 -72 76q-4 29 -4 62z" />
<glyph unicode="w" horiz-adv-x="894" d="M-142 71q0 81 38 231l75 288q7 27 30 27q6 0 12 -2q32 -7 23 -42l-72 -287q-37 -143 -37 -213q0 -18 2 -31q0 -6 -3 -7q17 2 48 33q135 132 358 532q1 1 1 2.5t3 4.5q12 9 24 9q5 0 9 -1q35 -8 26 -42q-18 -68 -42 -167.5t-38 -189.5q-13 -74 -18 -127.5t4 -53.5 q29 0 68 25q44 31 93 92q38 48 73 101q35 65 47 96q12 33 12 62q0 22 -7 43q-18 48 -61 87h-2v2h-3q-4 2 -14 12q-27 22 -7 47q12 15 26 15q9 0 18 -6q5 0 10 -4q20 -20 64.5 -52t94.5 -42q29 -3 53 -3q71 0 99 28q27 27 50 0q14 -12 14 -22q0 -11 -14 -24q-50 -52 -151 -52 q-31 0 -67 5q-25 6 -38 11q5 -22 5 -45q0 -41 -16 -85q-24 -58 -54 -109q-38 -59 -77 -110q-26 -29 -53 -56.5t-55 -45.5q-61 -39 -108 -39q-57 0 -64 76q-2 21 -2 45q0 61 13 140q9 61 25 139q-150 -247 -251 -347q-57 -47 -88 -51h-10q-50 0 -63 60q-3 18 -3 43z" />
<glyph unicode="x" horiz-adv-x="602" d="M-314 -5.5q0 12.5 12 25.5l342 329l-63 222q-9 31 23 44q7 2 12 2q22 0 30 -25l56 -191l220 203l5 7q12 6 22 6q16 0 28 -15q11 -20 32 -37q23 -23 84 -39q22 -6 40 -6q31 0 49 18q22 24 49 3q12 -12 12 -24.5t-12 -24.5q-37 -40 -89 -40q-35 0 -97 19.5t-85 43.5l-17 17 l-220 -204l90 -318q7 -33 -24 -42q-7 -1 -12 -1q-24 0 -31 24l-82 283l-316 -306q-13 -10 -24 -10q-12 0 -22 12q-12 12 -12 24.5z" />
<glyph unicode="y" horiz-adv-x="395" d="M-150 -469q0 9 2 20q6 39 44 105t125 156l169 172l26 93l70 269q-142 -231 -239 -327q-52 -46 -89 -51h-10q-50 0 -62 60q-3 16 -3 39q0 77 38 235l74 288q7 27 31 27q5 0 12 -2q34 -8 25 -42l-75 -287q-37 -145 -37 -214q0 -17 2 -30q4 -6 0 -7q15 2 45 33 q139 136 356 529q2 3 5 5q10 15 26 15q8 0 18 -4q25 -18 16 -42l-130 -487l85 87q21 27 47 3q12 -13 12 -26q0 -12 -9 -24l-170 -175l-34 -119q-37 -138 -103 -224.5t-124 -119.5q-40 -23 -70 -23q-13 0 -25 5q-48 13 -48 63zM-84 -467q2 -1 5 -1q13 0 37 15 q49 26 105 101.5t89 200.5l-82 -84q-79 -81 -114 -137t-38 -86q0 -5 -1 -7z" />
<glyph unicode="z" horiz-adv-x="434" d="M-182 0.5q0 11.5 14 22.5l486 497q-20 1 -63 12q-53 14 -113 16h-3q-58 0 -114 -56q-23 -26 -46 -2q-25 22 -3 48q76 78 150 78h2q76 -2 143 -16q40 -9 73.5 -13t57.5 20q12 11 24.5 11t25.5 -11q11 -12 11 -24q0 -11 -10 -23h-1v-3l-476 -485q29 2 56 -4t57 -11 q46 -13 98 -13q17 0 35 2q72 6 188 125q22 24 48 3q11 -12 11 -25t-11 -25q-138 -139 -225 -146q-24 -2 -48 -2q-61 0 -116 13q-45 12 -91 15h-7q-44 0 -98 -31q-9 -7 -17 -7q-12 0 -24 12q-14 11 -14 22.5z" />
<glyph unicode="{" horiz-adv-x="585" d="M5 498q-10 35 16 47q146 72 178.5 144t41.5 145q11 84 48 169t209 170q30 16 47 -16q13 -29 -15 -47q-148 -72 -180 -143t-41 -143q-9 -79 -40 -158t-169 -156q95 -82 83 -162t-45 -161q-29 -69 -35 -136.5t94 -133.5q27 -17 9 -47q-21 -29 -47 -9q-137 90 -129.5 178.5 t45.5 176.5q27 68 34.5 134.5t-90.5 134.5z" />
<glyph unicode="|" horiz-adv-x="0" d="M-516 -8v16h1742v-16h-1742z" />
<glyph unicode="}" horiz-adv-x="585" d="M8 -127q-13 29 15 47q148 72 180 143t41 143q9 79 40 158t169 156q-95 82 -83 162t44 161q29 69 35.5 136t-93.5 134q-27 17 -9 47q21 29 47 9q137 -90 129.5 -178.5t-45.5 -176.5q-27 -68 -34.5 -135t90.5 -134l14 -13q10 -35 -16 -47q-146 -72 -178.5 -144t-41.5 -145 q-11 -84 -48 -169.5t-209 -169.5q-30 -16 -47 16z" />
<glyph unicode="~" horiz-adv-x="39" d="M-36 530l77 77q23 27 47 0q25 -24 2 -47l-77 -80q-23 -27 -47 0q-23 23 -2 50z" />
<glyph unicode="&#xa1;" horiz-adv-x="545" d="M168 -485l218 813q8 34 42 26q36 -15 24 -43l-219 -814q-7 -32 -42 -24q-32 9 -23 42zM425 548q10 66 64 66q57 0 46 -66q-7 -70 -63 -70q-54 0 -47 70z" />
<glyph unicode="&#xa6;" horiz-adv-x="645" d="M188 24l115 404q7 32 42 24q32 -9 24 -42l-115 -402q-8 -34 -42 -27q-36 15 -24 43zM372 699l99 371q7 32 42 23q32 -9 23 -42l-99 -368q-8 -34 -42 -27q-35 15 -23 43z" />
<glyph unicode="&#xa7;" horiz-adv-x="67" d="M-388 13q2 23 35 25q44 -7 98 -2.5t108 20.5t103 45t81 71q20 23 52 0q20 -25 4 -40q-41 -53 -93.5 -85t-109.5 -49.5t-115.5 -21t-111.5 -0.5l-22 4q-23 1 -29 33z" />
<glyph unicode="&#xa8;" horiz-adv-x="490" d="M171 814l44 165q9 31 44 25q34 -11 27 -45l-44 -164q-10 -35 -44 -25q-37 7 -27 44zM341 814l44 165q8 31 44 25q35 -11 26 -45l-43 -164q-9 -35 -44 -25q-38 7 -27 44z" />
<glyph unicode="&#xa9;" horiz-adv-x="1123" d="M44 256q-27 126 10 297q26 119 78.5 225.5t136.5 183.5q156 149 391 148q78 -1 156 -23q105 -31 176 -108q59 -68 84 -174q27 -128 -5 -282q-63 -255 -225 -407q-170 -150 -401 -149q-85 1 -155 22q-104 29 -165 103q-59 69 -81 164zM113 254q20 -83 65 -131 q41 -48 121 -72q51 -14 126 -15q206 -1 360 132q161 135 218 373q32 143 7 254q-20 79 -70 140q-52 52 -131 76q-63 18 -129 18q-209 1 -351 -129q-157 -141 -207 -378q-35 -149 -9 -268zM227 428q0 55 13.5 115.5t39.5 118.5q22 50 54.5 96t73.5 85q81 76 172 106 q23 9 45.5 12.5t44.5 3.5q27 0 54 -6t51 -19q21 -11 45.5 -28.5t47.5 -40.5q18 -20 -7 -44q-22 -23 -51 -1l-2 1q-26 30 -63 47q-14 6 -35 11.5t-40 5.5q-31 0 -68 -12q-75 -21 -145 -91q-67 -64 -113 -158q-22 -50 -33.5 -101.5t-11.5 -98.5q0 -37 6.5 -71.5t17.5 -63.5 q18 -50 58 -86q35 -29 79 -30q81 -3 175 96q12 14 26 13t29 -13q22 -23 -1 -50q-113 -119 -229 -119q-70 0 -125 46q-51 40 -81 119q-13 34 -20 73.5t-7 83.5z" />
<glyph unicode="&#xaa;" horiz-adv-x="638" d="M112 643q1 38 14 81.5t36 89.5q24 47 55.5 87.5t65.5 69.5q59 51 133 59q34 4 66 -8t65 -43q3 5 3.5 5.5t2.5 4.5l2 4l4 8l4 8q20 28 47 13l-1 1q33 -14 12 -45l1 1q-17 -35 -36 -78.5t-43 -96.5q-20 -51 -32.5 -97.5t-14.5 -83.5q-3 -16 0 -22h1q1 0 2 1l-1 -1 q40 14 111 95q23 23 47 3q26 -23 5 -49q-87 -96 -143 -113q-12 -4 -26 -4q-29 0 -46 22q-11 14 -15.5 32.5t-2.5 40.5q0 26 6 52q-5 -6 -9.5 -11t-9.5 -10q-119 -131 -210 -130q-98 3 -93 114zM178 640q0 -44 28 -44q30 -2 70.5 26t90.5 82q35 41 73 94t73 117 q-44 49 -92 44q-51 -3 -93 -39q-61 -52 -105 -137q-42 -76 -45 -143z" />
<glyph unicode="&#xab;" horiz-adv-x="889" d="M17 274q-17 27 13 47l497 290q30 16 46 -11q18 -31 -11 -47l-457 -267l305 -261q24 -20 4 -47q-24 -23 -48 -2l-340 286q-3 5 -9 12zM299 274q-17 27 14 47l496 290q30 16 47 -11q18 -31 -11 -47l-457 -267l304 -261q24 -20 5 -47q-24 -23 -48 -2l-340 286q-3 5 -10 12z " />
<glyph unicode="&#xac;" d="M122 333q0 35 35 35h419q22 0 31 -15q8 -11 3 -29q-1 -6 -33 -123q-8 -34 -42 -26q-35 14 -23 42l21 80h-376q-35 0 -35 36z" />
<glyph unicode="&#xad;" d="M122 333q0 35 35 35h419q35 0 35 -35t-35 -36h-419q-35 0 -35 36z" />
<glyph unicode="&#xae;" horiz-adv-x="1124" d="M44 256q-27 126 10 297q26 119 78.5 225.5t136.5 183.5q156 149 391 148q78 -1 156 -23q105 -31 176 -108q59 -68 84 -174q27 -128 -5 -282q-41 -162 -121 -283q-55 -77 -104 -124q-170 -150 -401 -149q-85 1 -155 22q-104 29 -165 103q-59 69 -81 164zM113 254 q20 -83 65 -131q41 -48 121 -72q51 -14 126 -15q157 -1 284 76q-52 15 -87 75l-188 315q-25 -93 -50.5 -186t-50.5 -185q-10 -30 -45 -25q-34 10 -25 45l195 731q-5 -1 -15 -2t-5 -3l3 -1q-36 -10 -45 23q-9 35 26 45q29 7 52 12t43.5 8t41 4.5t44.5 1.5q20 0 39 -1.5 t37 -3.5q69 -12 112 -40q46 -33 59 -87q3 -15 3.5 -30.5t-1.5 -29.5q0 -5 -1 -7q0 -2 -1 -3q-24 -138 -139 -196h1q-36 -20 -79.5 -29t-94.5 -9h-11.5h-7.5h-8.5t-12.5 1q47 -79 93.5 -156t92.5 -155q14 -22 30.5 -33t33.5 -12q25 5 58.5 26t70.5 59q87 114 126 277 q32 143 7 254q-20 79 -70 140q-52 52 -131 76q-63 18 -129 18q-209 1 -351 -129q-157 -141 -207 -378q-35 -149 -9 -268zM461 613q42 -6 78 -5q41 0 75.5 7.5t62.5 21.5q41 20 66 57.5t35 87.5q0 3 2 9q2 8 1 16.5t-3 14.5q-4 22 -29 43h1q-15 9 -37.5 16t-44.5 12 q-14 2 -30.5 3t-31.5 1q-17 0 -31.5 -0.5t-34.5 -2.5q-40 -142 -79 -281z" />
<glyph unicode="&#xaf;" horiz-adv-x="490" d="M191 872q-2 36 38 35l318 1q32 -1 34 -36q-1 -37 -35 -37h-319q-36 1 -36 37z" />
<glyph unicode="&#xb0;" horiz-adv-x="393" d="M59 886q0 24 6 50q17 66 71 120q56 52 120 52q19 0 30 -3q45 -15 65 -49q23 -33 23 -85q0 -25 -6 -50q-19 -73 -71 -120q-54 -52 -117 -52q-21 0 -30 3q-44 13 -68 49q-23 40 -23 85zM129 886q0 -27 11 -47q11 -17 26 -20q3 0 7 -1t7 -1q33 0 71 33q36 36 51 86 q5 29 5 35q0 26 -12 47q-12 15 -28 20q-3 2 -11 2q-36 0 -71 -34q-43 -43 -51 -85q-5 -20 -5 -35z" />
<glyph unicode="&#xb1;" d="M63 117q0 35 35 35h420q35 0 35 -35t-35 -35h-420q-35 0 -35 35zM140 409q0 35 36 35h182l42 157q8 31 43 23q33 -10 25 -42l-37 -138h164q35 0 35 -35t-35 -35h-183l-42 -159q-12 -33 -42 -24q-35 7 -26 42l37 141h-163q-35 0 -36 35z" />
<glyph unicode="&#xb2;" horiz-adv-x="542" d="M131 446q-6 26 21 38q86 52 154 100.5t114 91.5q43 41 76 81.5t49 72.5q12 22 17 44.5t3 42.5q-5 28 -27 47q-31 23 -74 22q-54 -4 -88 -37q-37 -33 -47 -91q-9 -33 -47 -28q-35 9 -26 45v-1q15 77 71 130q59 50 133 56q37 1 69 -8t57 -31q21 -18 34.5 -40.5t16.5 -51.5 q9 -60 -25 -130q-31 -62 -101.5 -137t-195.5 -161q50 3 95 3q59 0 118 -4t119 -11q34 -10 30 -44q-9 -33 -43 -30q-53 8 -108.5 12.5t-115.5 4.5q-58 0 -118 -4.5t-120 -12.5q-40 -5 -41 31z" />
<glyph unicode="&#xb3;" horiz-adv-x="525" d="M149 512q20 32 50 13q15 -10 30.5 -15t31.5 -7q14 -4 28.5 -5.5t30.5 -1.5q58 0 99 26t63 63q14 26 12 54q0 24 -16 41q-30 28 -100 28l-108 -12q-25 0 -28 30q-8 33 28 42q52 15 90.5 29.5t66 30.5t46 32t28.5 32q5 8 8.5 19t3.5 20q0 18 -13 34h1q-24 29 -60 30 q-28 -3 -58 -20l2 1q-17 -14 -29 -29.5t-21 -34.5q-19 -34 -51 -15q-33 20 -14 50l-1 -1q14 27 33.5 50t38.5 37q46 35 99 35q78 0 121 -58q27 -39 27 -79q0 -18 -7 -37.5t-17 -39.5q-16 -25 -39 -47.5t-53 -39.5q32 -14 59 -38q36 -36 39 -88q0 -45 -25 -92 q-27 -51 -89 -89q-57 -37 -136 -37q-43 0 -76 8q-20 4 -40 12.5t-42 18.5q-30 19 -13 50z" />
<glyph unicode="&#xb4;" horiz-adv-x="490" d="M261 787q-22 31 10 52l184 128q27 19 50 -9q20 -31 -10 -52l-185 -128q-28 -20 -49 9z" />
<glyph unicode="&#xb5;" horiz-adv-x="550" d="M-321 -495l294 1087q8 31 43 23t23 -42l-87 -326q-37 -149 -23 -200q2 -12 5 -12q18 0 58 33q73 61 179.5 201t227.5 333q2 0 2 1l1 1q15 17 35 11q34 -8 25 -42v-2q-8 -24 -28 -96.5t-42 -155.5t-39 -157t-17 -102q0 -25 7 -25q18 0 56 25q53 36 127 111q21 27 46 3 q23 -24 3 -50q-43 -44 -77.5 -73.5t-60.5 -48.5q-59 -36 -94 -36q-75 0 -75 94q0 59 17.5 126t34.5 128l20 70q-187 -272 -304 -367q-56 -47 -100 -51q-34 -2 -55 22l-137 -500q-8 -34 -41 -26q-35 15 -24 43z" />
<glyph unicode="&#xb6;" horiz-adv-x="546" d="M-84.5 423.5q4.5 138.5 69.5 278.5q59 134 171 242q79 75 164 116l27 102q12 33 42 25q34 -10 25 -42l-14 -55q93 28 176 7l18 65q12 33 42 25q34 -10 25 -42l-19 -71q60 -29 114 -81q21 -25 -2 -49q-23 -22 -50 0q-35 39 -81 61l-246 -913q45 31 91 79q22 24 49 3 q22 -24 2 -50q-84 -87 -167 -126l-28 -107q-8 -32 -42 -24q-35 10 -24 42l17 63q-29 -6 -58 -6q-60 0 -113 27l-27 -102q-8 -32 -42 -24q-35 10 -23 42l33 125q-59 54 -95 146q-39 105 -34.5 243.5zM-17 421.5q-4 -123.5 33 -217.5q18 -51 50 -91l229 855q-46 -31 -92 -76 q-95 -92 -157 -220q-59 -127 -63 -250.5zM123 62q43 -27 94 -27q38 -2 78 12l264 984q-72 17 -152 -10q-14 -4 -29 -10z" />
<glyph unicode="&#xb7;" horiz-adv-x="433" d="M319 323q7 68 63 68q52 0 45 -68q-9 -70 -63 -70q-58 0 -45 70z" />
<glyph unicode="&#xb8;" horiz-adv-x="167" d="M12.5 -308q-3.5 10 4.5 22q25 36 42 64.5t25 50.5q5 10 6 17.5t0 10.5q-19 -8 -33 -8q-11 0 -19 4t-18 13q-9 15 -4.5 31t11.5 36q2 5 4 9t3 11v-1q0 3 2 10.5t2 11.5h66q-3 -12 -5 -21.5t-3 -13.5q-1 -2 -2.5 -5.5t-1.5 -2.5q0 -4 -1 -5q30 13 47 -14v1 q8 -11 11.5 -23.5t3.5 -28.5q0 -24 -11 -56q-11 -22 -28.5 -54.5t-44.5 -69.5q-8 -13 -19 -15t-23 5q-11 11 -14.5 21z" />
<glyph unicode="&#xb9;" horiz-adv-x="370" d="M176 904q-18 32 12 51l193 116q14 7 27 5t21 -16q5 -7 7 -15t-2 -17l1 1q-41 -144 -82 -287t-82 -288q-11 -30 -45 -24q-34 10 -24 45q34 124 67.5 242.5t68.5 243.5q-28 -17 -55.5 -34.5t-55.5 -33.5h1q-28 -21 -52 11z" />
<glyph unicode="&#xba;" horiz-adv-x="723" d="M154 667q6 58 31 117q18 43 44.5 85.5t61.5 80.5q68 79 152 91q5 0 15 -3q20 10 38 9q38 0 69 -48q22 -33 29 -64q116 2 164 45q15 11 26 8.5t22 -15.5q17 -26 -5 -46q-34 -27 -84.5 -42.5t-121.5 -17.5q-11 -46 -28.5 -74t-36.5 -56q-34 -47 -70 -80.5t-69 -57.5 q-89 -60 -145 -61q-60 3 -81 52q-8 17 -10.5 36t-0.5 41zM222 658q-3 -22 5 -41q7 -12 20 -11q33 -3 104 48q65 47 126 123q19 27 31.5 50.5t17.5 44.5q-18 5 -32.5 9.5t-25.5 12.5q-36 21 -44 50l1 -1q-2 6 -3 11.5t-2 10.5q-50 -21 -94 -76q-25 -31 -45 -63.5t-33 -66.5 q-13 -28 -19 -53t-7 -48zM489 966q2 -4 5.5 -8t8.5 -7v1q7 -5 17 -8q-2 5 -4.5 11t-5.5 11l-4 3q-4 7 -9 10q-3 0 -7 -2q-1 -5 -1 -11z" />
<glyph unicode="&#xbb;" horiz-adv-x="889" d="M18 -19q-18 31 11 47l457 267l-305 261q-24 20 -4 48q24 23 48 2l340 -287q3 -5 9 -12q17 -27 -13 -47l-497 -290q-30 -16 -46 11zM300 -19q-17 31 12 47l456 267l-304 261q-24 20 -5 48q24 23 49 2l339 -287q3 -5 10 -12q17 -27 -13 -47l-497 -290q-30 -16 -47 11z" />
<glyph unicode="&#xbc;" horiz-adv-x="1046" d="M121 19l710 1074q20 25 49 10q26 -21 9 -50l-710 -1071q-21 -29 -48 -9q-27 16 -10 46zM176 904q-18 32 12 51l193 116q14 7 27 5t21 -16q5 -7 7 -15t-2 -17l1 1q-41 -144 -82 -287t-82 -288q-11 -30 -45 -24q-34 10 -24 45q34 124 67.5 242.5t68.5 243.5 q-28 -17 -55.5 -34.5t-55.5 -33.5h1q-28 -21 -52 11zM488 203q76 100 151.5 202t150.5 203q22 28 52 7q29 -22 7 -50q-66 -90 -128.5 -173t-129.5 -174h191q16 57 31.5 115t31.5 115q11 33 43 26q20 -5 26.5 -17t1.5 -29l-56 -210h92q35 0 35 -36q0 -37 -35 -37h-113 q-10 -34 -20.5 -71.5t-18.5 -71.5v1q-8 -34 -48 -27q-34 10 -23 46q9 32 17 61.5t18 61.5h-247q-8 0 -22 7q-29 22 -7 51z" />
<glyph unicode="&#xbd;" horiz-adv-x="1072" d="M121 19l710 1074q20 25 49 10q26 -21 9 -50l-710 -1071q-21 -29 -48 -9q-27 16 -10 46zM176 904q-18 32 12 51l193 116q14 7 27 5t21 -16q5 -7 7 -15t-2 -17l1 1q-41 -144 -82 -287t-82 -288q-11 -30 -45 -24q-34 10 -24 45q34 124 67.5 242.5t68.5 243.5 q-28 -17 -55.5 -34.5t-55.5 -33.5h1q-28 -21 -52 11zM497 6q-6 26 22 38q86 52 153.5 100.5t114.5 91.5q43 41 75.5 81.5t49.5 72.5q12 22 16.5 44.5t2.5 42.5q-5 28 -26 47q-31 23 -74 22q-54 -4 -88 -37q-37 -33 -48 -91q-9 -33 -46 -28q-35 9 -27 45v-1q15 77 71 131 q59 50 134 55q37 1 68.5 -8t57.5 -31q21 -18 34.5 -40.5t16.5 -50.5q9 -60 -25 -131q-31 -62 -101.5 -137t-195.5 -161q50 3 94 3q59 0 118.5 -3.5t118.5 -11.5q34 -10 31 -44q-9 -33 -43 -29q-53 8 -108.5 12t-116.5 4q-58 0 -117.5 -4.5t-120.5 -11.5q-40 -5 -41 30z" />
<glyph unicode="&#xbe;" horiz-adv-x="1231" d="M172 516q20 32 51 14q32 -20 63 -25q23 -6 57 -6q58 0 99.5 26t61.5 62q17 29 15 55q0 23 -18 40q-29 29 -98 29h-19t-29.5 -1t-33.5 -2.5t-29 -4.5q-10 -2 -18.5 2.5t-7.5 23.5q-3 15 3 27t24 16q100 24 154.5 57t77.5 65q5 11 9 21.5t2 18.5q-5 20 -13 32t-18.5 19 t-21 10t-19.5 3q-26 -3 -44 -13.5t-30 -23t-19 -25t-12 -21.5q-20 -36 -51 -16q-34 20 -13 54q13 24 30 46t38.5 38t46.5 25.5t53 9.5q29 0 56 -11t48 -29t33 -43t12 -55q0 -19 -6.5 -38t-17.5 -39q-14 -24 -38 -46t-55 -41q17 -7 31 -16t28 -22q36 -36 39 -88 q0 -50 -22 -92q-14 -24 -38 -47t-53 -42q-28 -18 -63.5 -28t-73.5 -10q-47 0 -76 9q-22 4 -40.5 12t-41.5 19q-31 19 -13 51zM346 19l710 1074q20 25 49 10q26 -21 10 -50l-710 -1071q-21 -29 -49 -9q-27 16 -10 46zM714 203q76 100 151.5 202t150.5 203q22 28 52 7 q29 -22 8 -50q-66 -90 -128.5 -173t-130.5 -174h191q16 57 31.5 115t31.5 115q11 33 44 26q20 -5 26 -17t1 -29l-56 -210h92q35 0 35 -36q0 -37 -35 -37h-113q-10 -34 -20 -71.5t-19 -71.5v1q-8 -34 -48 -27q-34 10 -23 46q9 32 17 61.5t18 61.5h-247q-8 0 -21 7 q-29 22 -8 51z" />
<glyph unicode="&#xbf;" horiz-adv-x="742" d="M217 -352q0 48 14 97q21 70 63.5 130t91.5 121q57 70 113 150.5t84 187.5q8 34 42 26q36 -15 24 -43q-29 -117 -89 -203t-120 -160q-45 -58 -84.5 -112.5t-56.5 -114.5q-12 -48 -11 -79q0 -44 13 -73q20 -27 52 -37q20 -5 40 -5q101 0 152 35q57 35 73 122q4 32 39 28 q34 -5 29 -40q-19 -110 -103 -169q-69 -45 -190 -44q-31 0 -58 7q-59 17 -92 68q-25 42 -26 108zM622 554q10 66 64 66q57 0 46 -66q-7 -70 -63 -70q-54 0 -47 70z" />
<glyph unicode="&#xc0;" horiz-adv-x="1467" d="M28 52q22 26 49 5q62 -54 122 -24q40 18 93 63.5t129 119.5l340 327h-148q-35 0 -35 35t35 35h221l503 485q24 24 49 0q13 -17 8 -33l-289 -1074q-9 -30 -42 -23q-33 9 -23 42l142 533h-320l-391 -377q-79 -76 -137 -124.5t-105 -70.5q-99 -48 -196 31q-25 24 -5 50z M932 613h269l94 350zM1211 1443q20 31 50 13l194 -115q30 -19 11 -49q-17 -32 -50 -12l-195 115q-27 17 -10 48z" />
<glyph unicode="&#xc1;" horiz-adv-x="1467" d="M28 52q22 26 49 5q62 -54 122 -24q40 18 93 63.5t129 119.5l340 327h-148q-35 0 -35 35t35 35h221l503 485q24 24 49 0q13 -17 8 -33l-289 -1074q-9 -30 -42 -23q-33 9 -23 42l142 533h-320l-391 -377q-79 -76 -137 -124.5t-105 -70.5q-99 -48 -196 31q-25 24 -5 50z M932 613h269l94 350zM1197 1281q-23 31 9 52l185 129q27 19 49 -10q20 -31 -9 -52l-186 -127q-28 -20 -48 8z" />
<glyph unicode="&#xc2;" horiz-adv-x="1467" d="M28 52q22 26 49 5q62 -54 122 -24q40 18 93 63.5t129 119.5l340 327h-148q-35 0 -35 35t35 35h221l503 485q24 24 49 0q13 -17 8 -33l-289 -1074q-9 -30 -42 -23q-33 9 -23 42l142 533h-320l-391 -377q-79 -76 -137 -124.5t-105 -70.5q-99 -48 -196 31q-25 24 -5 50z M932 613h269l94 350zM1238 1290l129 149q5 9 13.5 16t21.5 10q16 3 30 -9q8 -13 30.5 -54t59.5 -113v1q20 -31 -9 -52q-33 -19 -54 9l-61 114q-52 -61 -78 -88t-27 -35q-25 -23 -51 -1q-22 28 -4 53z" />
<glyph unicode="&#xc3;" horiz-adv-x="1467" d="M28 52q22 26 49 5q62 -54 122 -24q40 18 93 63.5t129 119.5l340 327h-148q-35 0 -35 35t35 35h221l503 485q24 24 49 0q13 -17 8 -33l-289 -1074q-9 -30 -42 -23q-33 9 -23 42l142 533h-320l-391 -377q-79 -76 -137 -124.5t-105 -70.5q-99 -48 -196 31q-25 24 -5 50z M932 613h269l94 350zM1196 1344q22 29 44 51t47 31q64 20 126 -60q19 -25 30 -28q13 -3 21 -1l-1 -1l10 4t10 7q29 20 42 56v-1q7 33 38 26q34 -12 27 -41q-9 -30 -25.5 -53.5t-39.5 -40.5q-12 -7 -23 -12t-22 -8v1q-27 -7 -52 1q-20 5 -37 18.5t-32 32.5q-33 43 -50 37 q-11 -4 -26 -20.5t-34 -36.5q-21 -31 -48 -8q-25 21 -5 46z" />
<glyph unicode="&#xc4;" horiz-adv-x="1467" d="M28 52q22 26 49 5q62 -54 122 -24q40 18 93 63.5t129 119.5l340 327h-148q-35 0 -35 35t35 35h221l503 485q24 24 49 0q13 -17 8 -33l-289 -1074q-9 -30 -42 -23q-33 9 -23 42l142 533h-320l-391 -377q-79 -76 -137 -124.5t-105 -70.5q-99 -48 -196 31q-25 24 -5 50z M932 613h269l94 350zM1255 1309l44 165q9 31 45 24q34 -11 26 -45l-44 -164q-10 -35 -44 -24q-37 7 -27 44zM1426 1309l44 165q8 31 44 24q35 -11 26 -45l-44 -164q-9 -35 -44 -24q-37 7 -26 44z" />
<glyph unicode="&#xc5;" horiz-adv-x="1467" d="M28 52q22 26 49 5q62 -54 122 -24q40 18 93 63.5t129 119.5l340 327h-148q-35 0 -35 35t35 35h221l503 485q24 24 49 0q13 -17 8 -33l-289 -1074q-9 -30 -42 -23q-33 9 -23 42l142 533h-320l-391 -377q-79 -76 -137 -124.5t-105 -70.5q-99 -48 -196 31q-25 24 -5 50z M932 613h269l94 350zM1249 1424q0 26 7 53q18 69 74 126q59 55 126 55q20 0 32 -3q47 -16 68 -52q24 -35 25 -88q0 -27 -7 -54q-20 -77 -74 -126q-57 -55 -123 -55q-22 0 -31 4q-47 13 -72 51q-24 42 -25 89zM1323 1424q0 -28 12 -49q12 -18 26 -20q4 0 8 -1t8 -1 q35 0 74 35q38 37 54 89q6 30 6 38q0 27 -13 48q-13 16 -29 21q-3 2 -13 2q-38 0 -74 -34q-45 -46 -54 -91q-5 -20 -5 -37z" />
<glyph unicode="&#xc6;" horiz-adv-x="1828" d="M19 52q22 26 48 5q62 -54 122 -24q40 18 93 63.5t130 119.5l338 326q-108 -2 -225 -1q-37 5 -40 33q-3 22 33 34q157 -2 303 2l506 488q24 24 49 0q13 -19 7 -33l-113 -420l20 3q121 16 214 34l-2 4q-38 70 -34 157.5t59.5 171t186.5 85.5t162.5 -114.5t-54 -210 t-186.5 -127.5q12 -7 25 -13q58 -30 140 -40q9 0 19.5 -1.5t18.5 -1.5q33 -4 31 -39q-4 -31 -36 -31h-2q-9 2 -19 2.5t-19 2.5q-182 16 -298 -31.5t-170 -121.5q-38 -53 -48 -112q-9 -63 11 -110q44 -115 192 -122q80 -4 176 40q92 38 144 101q23 23 50 3q26 -23 5 -50 q-67 -74 -172 -117q-117 -49 -207 -46q-97 6 -161 52t-90 116q-25 66 -16 143q17 84 63 142q45 62 126 110t199 66q-25 17 -45 34q-98 -24 -223 -41q-39 -6 -79 -11l-156 -581q-9 -30 -42 -23q-33 9 -23 42l149 556q-151 -15 -327 -21l-392 -379q-79 -76 -136.5 -124.5 t-104.5 -70.5q-98 -48 -197 31q-22 23 -3 50zM925 614q141 8 273 22l87 327zM1534.5 843.5q0.5 -75.5 28.5 -122.5q6 -12 14 -22q117 29 193.5 108t45 159t-118.5 72t-125 -63.5t-37.5 -131z" />
<glyph unicode="&#xc7;" horiz-adv-x="892" d="M-11.5 423.5q4.5 138.5 70.5 278.5q59 134 170 242q109 104 230 142q136 46 255 -11q61 -29 115 -82q21 -25 -2 -49q-23 -22 -50 0q-39 44 -91 67q-95 48 -206 10q-105 -31 -204 -129q-95 -92 -157 -220q-59 -127 -63 -250.5t33 -217.5q26 -74 85 -124q51 -45 117 -45 q117 -4 250 136q22 24 49 3q22 -24 2 -50q-125 -131 -250 -153q-7 -22 -7 -32q-1 -2 -2.5 -5.5t-1.5 -2.5q0 -4 -1 -5q30 13 47 -14l-1 1q8 -11 12 -23.5t4 -28.5q0 -24 -11 -56q-11 -22 -28.5 -54.5t-44.5 -69.5q-8 -13 -19 -15t-23 5q-11 11 -14.5 21t4.5 22 q25 36 42 64.5t25 50.5q5 10 6 17.5t0 10.5q-19 -8 -34 -8q-11 0 -18.5 4t-18.5 13q-9 15 -4 31t12 36q2 5 4 9t3 11v-1q0 2 1 6t2 9q-81 4 -147 58q-66 55 -106 155q-39 105 -34.5 243.5z" />
<glyph unicode="&#xc8;" horiz-adv-x="839" d="M-11 272q17 84 63 142q45 62 126 110t199 66q-64 42 -96 96q-38 70 -30 145q2 56 28 110q46 92 131 139q84 47 180 30q58 -10 99 -33q64 -35 93 -86q18 -31 -12 -47q-30 -18 -46 12q-24 39 -66 60q-39 18 -80 26q-72 14 -133 -24q-71 -38 -103 -107q-20 -40 -23 -84 q-5 -59 23 -106q29 -53 98 -86q58 -30 140 -40q9 0 19.5 -1.5t18.5 -1.5q33 -4 31 -39q-4 -31 -36 -31h-2q-9 2 -19 2.5t-19 2.5q-182 16 -298 -31.5t-170 -121.5q-38 -53 -48 -112q-9 -63 11 -110q44 -115 192 -122q80 -4 176 40q92 38 144 101q23 23 50 3q26 -23 5 -50 q-67 -74 -172 -117q-117 -49 -207 -46q-97 6 -161 52t-90 116q-25 66 -16 143zM407 1443q20 31 49 13l194 -115q30 -19 11 -49q-17 -32 -50 -12l-195 115q-27 17 -9 48z" />
<glyph unicode="&#xc9;" horiz-adv-x="839" d="M-11 272q17 84 63 142q45 62 126 110t199 66q-64 42 -96 96q-38 70 -30 145q2 56 28 110q46 92 131 139q84 47 180 30q58 -10 99 -33q64 -35 93 -86q18 -31 -12 -47q-30 -18 -46 12q-24 39 -66 60q-39 18 -80 26q-72 14 -133 -24q-71 -38 -103 -107q-20 -40 -23 -84 q-5 -59 23 -106q29 -53 98 -86q58 -30 140 -40q9 0 19.5 -1.5t18.5 -1.5q33 -4 31 -39q-4 -31 -36 -31h-2q-9 2 -19 2.5t-19 2.5q-182 16 -298 -31.5t-170 -121.5q-38 -53 -48 -112q-9 -63 11 -110q44 -115 192 -122q80 -4 176 40q92 38 144 101q23 23 50 3q26 -23 5 -50 q-67 -74 -172 -117q-117 -49 -207 -46q-97 6 -161 52t-90 116q-25 66 -16 143zM492 1281q-22 31 10 52l185 129q27 19 49 -10q20 -31 -9 -52l-186 -127q-28 -20 -49 8z" />
<glyph unicode="&#xca;" horiz-adv-x="839" d="M-11 272q17 84 63 142q45 62 126 110t199 66q-64 42 -96 96q-38 70 -30 145q2 56 28 110q46 92 131 139q84 47 180 30q58 -10 99 -33q64 -35 93 -86q18 -31 -12 -47q-30 -18 -46 12q-24 39 -66 60q-39 18 -80 26q-72 14 -133 -24q-71 -38 -103 -107q-20 -40 -23 -84 q-5 -59 23 -106q29 -53 98 -86q58 -30 140 -40q9 0 19.5 -1.5t18.5 -1.5q33 -4 31 -39q-4 -31 -36 -31h-2q-9 2 -19 2.5t-19 2.5q-182 16 -298 -31.5t-170 -121.5q-38 -53 -48 -112q-9 -63 11 -110q44 -115 192 -122q80 -4 176 40q92 38 144 101q23 23 50 3q26 -23 5 -50 q-67 -74 -172 -117q-117 -49 -207 -46q-97 6 -161 52t-90 116q-25 66 -16 143zM466 1290l130 149q5 9 13 16t22 10q16 3 29 -9q8 -13 31 -54t60 -113v1q20 -31 -10 -52q-33 -19 -53 9l-62 114q-52 -61 -77.5 -88t-26.5 -35q-25 -23 -51 -1q-22 28 -5 53z" />
<glyph unicode="&#xcb;" horiz-adv-x="839" d="M-11 272q17 84 63 142q45 62 126 110t199 66q-64 42 -96 96q-38 70 -30 145q2 56 28 110q46 92 131 139q84 47 180 30q58 -10 99 -33q64 -35 93 -86q18 -31 -12 -47q-30 -18 -46 12q-24 39 -66 60q-39 18 -80 26q-72 14 -133 -24q-71 -38 -103 -107q-20 -40 -23 -84 q-5 -59 23 -106q29 -53 98 -86q58 -30 140 -40q9 0 19.5 -1.5t18.5 -1.5q33 -4 31 -39q-4 -31 -36 -31h-2q-9 2 -19 2.5t-19 2.5q-182 16 -298 -31.5t-170 -121.5q-38 -53 -48 -112q-9 -63 11 -110q44 -115 192 -122q80 -4 176 40q92 38 144 101q23 23 50 3q26 -23 5 -50 q-67 -74 -172 -117q-117 -49 -207 -46q-97 6 -161 52t-90 116q-25 66 -16 143zM445 1309l44 165q9 31 44 24q34 -11 27 -45l-44 -164q-10 -35 -44 -24q-37 7 -27 44zM615 1309l44 165q8 31 44 24q35 -11 26 -45l-43 -164q-9 -35 -44 -24q-38 7 -27 44z" />
<glyph unicode="&#xcc;" horiz-adv-x="773" d="M-13 80q-18 28 7 49q28 18 48 -10q42 -57 105 -74q36 -13 77 -5q36 6 80 35q94 73 139 232l215 733h-367q-33 0 -34 35q1 33 34 33h411q35 0 35 -33q0 -10 -2 -14l-227 -773q-52 -186 -164 -267q-55 -39 -108 -48q-59 -10 -107 7q-88 25 -142 100zM371 1443q20 31 49 13 l194 -115q30 -19 11 -49q-17 -32 -50 -12l-195 115q-27 17 -9 48z" />
<glyph unicode="&#xcd;" horiz-adv-x="773" d="M-13 80q-18 28 7 49q28 18 48 -10q42 -57 105 -74q36 -13 77 -5q36 6 80 35q94 73 139 232l215 733h-367q-33 0 -34 35q1 33 34 33h411q35 0 35 -33q0 -10 -2 -14l-227 -773q-52 -186 -164 -267q-55 -39 -108 -48q-59 -10 -107 7q-88 25 -142 100zM466 1281q-22 31 10 52 l184 129q27 19 50 -10q20 -31 -10 -52l-185 -127q-28 -20 -49 8z" />
<glyph unicode="&#xce;" horiz-adv-x="773" d="M-13 80q-18 28 7 49q28 18 48 -10q42 -57 105 -74q36 -13 77 -5q36 6 80 35q94 73 139 232l215 733h-367q-33 0 -34 35q1 33 34 33h411q35 0 35 -33q0 -10 -2 -14l-227 -773q-52 -186 -164 -267q-55 -39 -108 -48q-59 -10 -107 7q-88 25 -142 100zM387 1290l130 149 q5 9 13 16t22 10q16 3 29 -9q8 -13 31 -54t60 -113v1q20 -31 -10 -52q-33 -19 -53 9l-62 114q-52 -61 -77.5 -88t-26.5 -35q-25 -23 -51 -1q-22 28 -5 53z" />
<glyph unicode="&#xcf;" horiz-adv-x="773" d="M-13 80q-18 28 7 49q28 18 48 -10q42 -57 105 -74q36 -13 77 -5q36 6 80 35q94 73 139 232l215 733h-367q-33 0 -34 35q1 33 34 33h411q35 0 35 -33q0 -10 -2 -14l-227 -773q-52 -186 -164 -267q-55 -39 -108 -48q-59 -10 -107 7q-88 25 -142 100zM392 1309l44 165 q9 31 45 24q34 -11 26 -45l-44 -164q-10 -35 -44 -24q-37 7 -27 44zM563 1309l44 165q8 31 43 24q35 -11 27 -45l-44 -164q-9 -35 -44 -24q-37 7 -26 44z" />
<glyph unicode="&#xd0;" horiz-adv-x="1056" d="M-24 7l1 1l1 2l139 522h-58q-35 0 -35 36q0 35 35 35h77l113 423q-47 -7 -104 -20q-35 -8 -42 27q-9 32 26 42q336 72 561 21q126 -31 197 -92q80 -70 101 -165q19 -83 -5 -177q-42 -190 -137 -330t-221 -229q-139 -98 -302 -132t-321 -3q-31 6 -26 39zM52 28 q285 -44 533 131q116 82 204 212t129 308q19 86 5 145q-18 74 -80 127q-68 57 -169 79q-139 31 -351 8l-117 -435h273q35 0 35 -35t-35 -36h-293z" />
<glyph unicode="&#xd1;" horiz-adv-x="2005" d="M-20 49q-20 27 7 49q26 16 48 -9q59 -90 169 -19q51 35 105.5 92t106.5 119q18 20 35 39t34 36l683 740q22 25 47 2q17 -12 12 -28v-5l-244 -901l534 714q115 153 206 206q52 24 89 21q49 -9 70 -47q25 -39 28 -105q0 -35 -32 -35q-33 -4 -38 33q0 45 -16 70 q-6 11 -21 17q-17 0 -47 -15q-81 -49 -183 -187l-641 -856q-22 -25 -49 -7q-21 18 -12 37l252 936l-587 -637q-18 -20 -35 -37.5t-33 -37.5q-57 -61 -114.5 -122.5t-112.5 -99.5q-72 -47 -139 -46.5t-122 83.5zM1333 1344q22 29 44 51t48 31q64 20 126 -60q19 -25 30 -28 q13 -3 20 -1l-1 -1q5 2 10.5 4t10.5 7q29 20 42 56v-1q7 33 38 26q34 -12 26 -41q-9 -30 -25.5 -53.5t-38.5 -40.5q-12 -7 -23 -12t-22 -8v1q-27 -7 -53 1q-20 5 -36.5 18.5t-32.5 32.5q-33 43 -50 37q-11 -4 -26 -20.5t-33 -36.5q-21 -31 -49 -8q-25 21 -5 46z" />
<glyph unicode="&#xd2;" horiz-adv-x="1007" d="M-16 253q0 126 63 295q44 120 108 227t149 183q161 150 361 150q66 0 127 -22q84 -31 129 -107q39 -67 39 -173q0 -128 -56 -281q-99 -256 -265 -408q-174 -151 -370 -151q-71 0 -127 21q-83 29 -121 102q-37 68 -37 164zM54 253q0 -85 28 -131q26 -49 87 -73 q39 -14 100 -14q170 0 323 134q156 138 247 379q54 145 53 258q0 80 -30 140q-34 53 -94 77q-49 17 -103 17q-173 0 -314 -131q-154 -145 -241 -384q-57 -150 -56 -272zM500 1443q20 31 50 13l194 -115q30 -19 11 -49q-17 -32 -50 -12l-195 115q-27 17 -10 48z" />
<glyph unicode="&#xd3;" horiz-adv-x="1007" d="M-16 253q0 126 63 295q44 120 108 227t149 183q161 150 361 150q66 0 127 -22q84 -31 129 -107q39 -67 39 -173q0 -128 -56 -281q-99 -256 -265 -408q-174 -151 -370 -151q-71 0 -127 21q-83 29 -121 102q-37 68 -37 164zM54 253q0 -85 28 -131q26 -49 87 -73 q39 -14 100 -14q170 0 323 134q156 138 247 379q54 145 53 258q0 80 -30 140q-34 53 -94 77q-49 17 -103 17q-173 0 -314 -131q-154 -145 -241 -384q-57 -150 -56 -272zM617 1281q-22 31 10 52l184 129q27 19 50 -10q20 -31 -10 -52l-185 -127q-28 -20 -49 8z" />
<glyph unicode="&#xd4;" horiz-adv-x="1007" d="M-16 253q0 126 63 295q44 120 108 227t149 183q161 150 361 150q66 0 127 -22q84 -31 129 -107q39 -67 39 -173q0 -128 -56 -281q-99 -256 -265 -408q-174 -151 -370 -151q-71 0 -127 21q-83 29 -121 102q-37 68 -37 164zM54 253q0 -85 28 -131q26 -49 87 -73 q39 -14 100 -14q170 0 323 134q156 138 247 379q54 145 53 258q0 80 -30 140q-34 53 -94 77q-49 17 -103 17q-173 0 -314 -131q-154 -145 -241 -384q-57 -150 -56 -272zM580 1290l130 149q5 9 13 16t22 10q16 3 29 -9q8 -13 31 -54t60 -113v1q20 -31 -10 -52q-33 -19 -53 9 l-62 114q-52 -61 -77.5 -88t-26.5 -35q-25 -23 -51 -1q-22 28 -5 53z" />
<glyph unicode="&#xd5;" horiz-adv-x="1007" d="M-16 253q0 126 63 295q44 120 108 227t149 183q161 150 361 150q66 0 127 -22q84 -31 129 -107q39 -67 39 -173q0 -128 -56 -281q-99 -256 -265 -408q-174 -151 -370 -151q-71 0 -127 21q-83 29 -121 102q-37 68 -37 164zM54 253q0 -85 28 -131q26 -49 87 -73 q39 -14 100 -14q170 0 323 134q156 138 247 379q54 145 53 258q0 80 -30 140q-34 53 -94 77q-49 17 -103 17q-173 0 -314 -131q-154 -145 -241 -384q-57 -150 -56 -272zM523 1344q22 29 44 51t47 31q64 20 126 -60q19 -25 30 -28q13 -3 21 -1l-1 -1q5 2 10.5 4t9.5 7 q29 20 42 56v-1q7 33 38 26q34 -12 27 -41q-9 -30 -25.5 -53.5t-39.5 -40.5q-12 -7 -23 -12t-22 -8v1q-27 -7 -52 1q-20 5 -37 18.5t-32 32.5q-33 43 -50 37q-11 -4 -26 -20.5t-34 -36.5q-21 -31 -48 -8q-25 21 -5 46z" />
<glyph unicode="&#xd6;" horiz-adv-x="1007" d="M-16 253q0 126 63 295q44 120 108 227t149 183q161 150 361 150q66 0 127 -22q84 -31 129 -107q39 -67 39 -173q0 -128 -56 -281q-99 -256 -265 -408q-174 -151 -370 -151q-71 0 -127 21q-83 29 -121 102q-37 68 -37 164zM54 253q0 -85 28 -131q26 -49 87 -73 q39 -14 100 -14q170 0 323 134q156 138 247 379q54 145 53 258q0 80 -30 140q-34 53 -94 77q-49 17 -103 17q-173 0 -314 -131q-154 -145 -241 -384q-57 -150 -56 -272zM598 1309l44 165q9 31 45 24q34 -11 26 -45l-44 -164q-10 -35 -44 -24q-37 7 -27 44zM768 1309l44 165 q8 31 44 24q35 -11 27 -45l-44 -164q-9 -35 -44 -24q-38 7 -27 44z" />
<glyph unicode="&#xd7;" horiz-adv-x="708" d="M77 129q-19 27 10 47l229 161l-139 155q-22 26 5 49q26 20 50 -3l141 -161l234 166q28 20 46 -10q21 -26 -6 -46l-231 -161l137 -155q25 -26 -3 -49q-25 -22 -49 2l-140 162l-234 -167q-29 -20 -50 10z" />
<glyph unicode="&#xd8;" horiz-adv-x="1007" d="M-16 253q0 126 63 295q44 120 108 227t149 183q161 150 361 150q66 0 127 -22q13 -5 25 -10l12 17q20 25 49 10q26 -21 9 -50l-11 -18q25 -23 45 -56q39 -67 39 -173q0 -128 -56 -281q-99 -256 -265 -408q-174 -151 -370 -151q-53 0 -96 12q-20 -22 -44 -5q-18 11 -17 27 q-60 30 -91 89q-37 68 -37 164zM54 253q0 -85 28 -131q20 -39 63 -63l634 959l-11 5q-49 17 -103 17q-173 0 -314 -131q-154 -145 -241 -384q-57 -150 -56 -272zM215 38q24 -3 54 -3q170 0 323 134q156 138 247 379q54 145 53 258q0 80 -30 140q-11 18 -25 31z" />
<glyph unicode="&#xd9;" horiz-adv-x="1066" d="M54 276q31 121 94.5 295t153.5 400q-11 -7 -18 -11q-30 -20 -60.5 -38.5t-61.5 -34.5q-32 -20 -47 14q-19 31 14 47q29 16 58 33.5t59 36.5q28 18 53.5 38.5t54.5 41.5q31 23 51 -2q14 -17 5 -38q-105 -267 -179 -466.5t-109 -331.5q-60 -225 0 -225q113 0 358 309 q107 135 224.5 322t234.5 418q16 34 47 21q30 -18 14 -52q-142 -292 -235.5 -530t-115.5 -376q-11 -64 -2 -98q3 -20 20 -14q59 18 174 136q22 24 48 3q24 -25 0 -50q-131 -133 -203 -153q-73 -21 -101 43q-15 24 -11.5 70.5t6.5 74.5q20 126 106 354q-71 -113 -153 -211 q-263 -336 -411 -336t-68 310zM559 1443q20 31 50 13l194 -115q30 -19 10 -49q-16 -32 -49 -12l-195 115q-27 17 -10 48z" />
<glyph unicode="&#xda;" horiz-adv-x="1066" d="M54 276q31 121 94.5 295t153.5 400q-11 -7 -18 -11q-30 -20 -60.5 -38.5t-61.5 -34.5q-32 -20 -47 14q-19 31 14 47q29 16 58 33.5t59 36.5q28 18 53.5 38.5t54.5 41.5q31 23 51 -2q14 -17 5 -38q-105 -267 -179 -466.5t-109 -331.5q-60 -225 0 -225q113 0 358 309 q107 135 224.5 322t234.5 418q16 34 47 21q30 -18 14 -52q-142 -292 -235.5 -530t-115.5 -376q-11 -64 -2 -98q3 -20 20 -14q59 18 174 136q22 24 48 3q24 -25 0 -50q-131 -133 -203 -153q-73 -21 -101 43q-15 24 -11.5 70.5t6.5 74.5q20 126 106 354q-71 -113 -153 -211 q-263 -336 -411 -336t-68 310zM605 1281q-23 31 9 52l185 129q27 19 49 -10q20 -31 -9 -52l-186 -127q-28 -20 -48 8z" />
<glyph unicode="&#xdb;" horiz-adv-x="1066" d="M54 276q31 121 94.5 295t153.5 400q-11 -7 -18 -11q-30 -20 -60.5 -38.5t-61.5 -34.5q-32 -20 -47 14q-19 31 14 47q29 16 58 33.5t59 36.5q28 18 53.5 38.5t54.5 41.5q31 23 51 -2q14 -17 5 -38q-105 -267 -179 -466.5t-109 -331.5q-60 -225 0 -225q113 0 358 309 q107 135 224.5 322t234.5 418q16 34 47 21q30 -18 14 -52q-142 -292 -235.5 -530t-115.5 -376q-11 -64 -2 -98q3 -20 20 -14q59 18 174 136q22 24 48 3q24 -25 0 -50q-131 -133 -203 -153q-73 -21 -101 43q-15 24 -11.5 70.5t6.5 74.5q20 126 106 354q-71 -113 -153 -211 q-263 -336 -411 -336t-68 310zM570 1290l129 149q5 9 13.5 16t21.5 10q16 3 30 -9q8 -13 30.5 -54t59.5 -113v1q20 -31 -9 -52q-33 -19 -54 9l-62 114q-52 -61 -77.5 -88t-26.5 -35q-25 -23 -51 -1q-22 28 -4 53z" />
<glyph unicode="&#xdc;" horiz-adv-x="1066" d="M54 276q31 121 94.5 295t153.5 400q-11 -7 -18 -11q-30 -20 -60.5 -38.5t-61.5 -34.5q-32 -20 -47 14q-19 31 14 47q29 16 58 33.5t59 36.5q28 18 53.5 38.5t54.5 41.5q31 23 51 -2q14 -17 5 -38q-105 -267 -179 -466.5t-109 -331.5q-60 -225 0 -225q113 0 358 309 q107 135 224.5 322t234.5 418q16 34 47 21q30 -18 14 -52q-142 -292 -235.5 -530t-115.5 -376q-11 -64 -2 -98q3 -20 20 -14q59 18 174 136q22 24 48 3q24 -25 0 -50q-131 -133 -203 -153q-73 -21 -101 43q-15 24 -11.5 70.5t6.5 74.5q20 126 106 354q-71 -113 -153 -211 q-263 -336 -411 -336t-68 310zM552 1309l44 165q9 31 45 24q34 -11 26 -45l-44 -164q-10 -35 -44 -24q-37 7 -27 44zM723 1309l44 165q8 31 43 24q35 -11 27 -45l-44 -164q-9 -35 -44 -24q-37 7 -26 44z" />
<glyph unicode="&#xdd;" horiz-adv-x="1050" d="M57 276q23 120 83 294.5t151 400.5q-4 -2 -19 -11q-30 -20 -60.5 -38.5t-61.5 -34.5q-36 -19 -47 14q-19 30 12 47q61 34 119 70q53 32 110 82l1 1l1 2q17 8 33 2q30 -12 19 -44q-105 -267 -176.5 -467t-97.5 -332q-49 -227 52 -227q126 0 314 272q97 137 204.5 334.5 t232.5 444.5q11 27 40 22q33 -10 26 -43l-251 -943l47 49q23 23 50 3q22 -24 2 -50l-136 -137l-8 -26q-53 -202 -119.5 -315t-121.5 -155q-60 -42 -105 -23q-51 20 -47 88q3 50 42.5 127t131.5 168l166 170l199 751q-81 -153 -155.5 -280t-142.5 -225q-207 -298 -369 -301 q-186 0 -119 310zM374 -447q-4 -23 3 -23q10 -3 37 17q40 30 91.5 111.5t98.5 223.5l-77 -78q-81 -82 -116 -147t-37 -104zM624 1281q-22 31 10 52l184 129q27 19 50 -10q20 -31 -10 -52l-185 -127q-28 -20 -49 8z" />
<glyph unicode="&#xde;" horiz-adv-x="685" d="M8 10l199 732q-23 -3 -47.5 -8t-51.5 -10q-35 -10 -42 26q-6 33 28 42q70 17 134 25l68 253q7 32 42 23q32 -9 24 -42l-61 -226q98 8 180 -3q88 -15 147 -54q58 -42 72 -108q10 -32 3 -90q-36 -181 -183 -256q-56 -72 -356 -40q-6 0 -11 2l-74 -277l-3 -7.5t-2.5 -4 t-4 -4.5t-8.5 -8q-19 -10 -31 -7q-30 9 -22 42zM172 342h4q198 -29 314 32q119 63 143 209q5 38 2 62q-10 37 -47 67q-45 28 -117 42q-78 12 -189 0z" />
<glyph unicode="&#xdf;" horiz-adv-x="529" d="M-297 -495l423 1577v2q9 29 43 24q28 -10 25 -38v-5h-2l-50 -187l3 3q70 87 150 130q130 68 218 29q41 -19 62 -54q20 -27 27 -77q3 -99 -94 -179q-65 -53 -190 -100q109 -31 155 -122q31 -64 28 -140q-5 -73 -33 -146q-43 -104 -121 -180t-160 -76q-114 0 -168 59 q-44 47 -52 151q0 35 33 35t37 -34q5 -78 33 -105q32 -37 117 -37q61 0 121.5 63.5t94.5 150.5q27 64 30 121q0 68 -21 108q-53 100 -225 98q-46 0 -53 24q-8 20 8 37q7 5 24 11t26 10q76 27 150 57.5t124 68.5q68 59 66 122q0 21 -12 42q-11 18 -33 28q-66 25 -159 -25 q-69 -39 -129 -115q-73 -88 -101.5 -156.5t-55.5 -173.5l-274 -1018q-10 -33 -42 -25q-33 10 -23 42z" />
<glyph unicode="&#xe0;" horiz-adv-x="458" d="M-240 105q3 103 67 230q65 132 162 210q81 67 174.5 77t181.5 -79q5 12 19 35l10 22q19 29 46 13q33 -13 14 -44q-46 -94 -108 -238t-65 -249q-8 -29 4 -45q4 -3 15 0q58 20 154 134q23 23 50 3q26 -23 5 -50q-115 -127 -191 -151q-56 -17 -86 21q-27 34 -21 90 q3 57 21 120q-15 -18 -30 -35.5t-29 -32.5q-158 -175 -278 -175q-121 5 -115 144zM-173 103q0 -73 50 -73q87 -4 227 152q102 113 206 296q-69 76 -141 71t-135 -57q-85 -70 -145 -190q-57 -104 -62 -199zM101 949q20 31 50 13l194 -115q30 -19 11 -49q-17 -33 -50 -13 l-195 115q-27 17 -10 49z" />
<glyph unicode="&#xe1;" horiz-adv-x="458" d="M-240 105q3 103 67 230q65 132 162 210q81 67 174.5 77t181.5 -79q5 12 19 35l10 22q19 29 46 13q33 -13 14 -44q-46 -94 -108 -238t-65 -249q-8 -29 4 -45q4 -3 15 0q58 20 154 134q23 23 50 3q26 -23 5 -50q-115 -127 -191 -151q-56 -17 -86 21q-27 34 -21 90 q3 57 21 120q-15 -18 -30 -35.5t-29 -32.5q-158 -175 -278 -175q-121 5 -115 144zM-173 103q0 -73 50 -73q87 -4 227 152q102 113 206 296q-69 76 -141 71t-135 -57q-85 -70 -145 -190q-57 -104 -62 -199zM242 787q-22 31 10 52l184 128q27 19 50 -9q20 -31 -10 -52 l-185 -128q-28 -20 -49 9z" />
<glyph unicode="&#xe2;" horiz-adv-x="458" d="M-240 105q3 103 67 230q65 132 162 210q81 67 174.5 77t181.5 -79q5 12 19 35l10 22q19 29 46 13q33 -13 14 -44q-46 -94 -108 -238t-65 -249q-8 -29 4 -45q4 -3 15 0q58 20 154 134q23 23 50 3q26 -23 5 -50q-115 -127 -191 -151q-56 -17 -86 21q-27 34 -21 90 q3 57 21 120q-15 -18 -30 -35.5t-29 -32.5q-158 -175 -278 -175q-121 5 -115 144zM-173 103q0 -73 50 -73q87 -4 227 152q102 113 206 296q-69 76 -141 71t-135 -57q-85 -70 -145 -190q-57 -104 -62 -199zM86 796l130 149q5 9 13 15.5t22 9.5q16 3 29 -8q8 -13 31 -54 t60 -113v1q20 -31 -10 -53q-33 -19 -54 10l-61 114q-52 -61 -78 -88t-27 -36q-24 -23 -50 -1q-22 28 -5 54z" />
<glyph unicode="&#xe3;" horiz-adv-x="458" d="M-240 105q3 103 67 230q65 132 162 210q81 67 174.5 77t181.5 -79q5 12 19 35l10 22q19 29 46 13q33 -13 14 -44q-46 -94 -108 -238t-65 -249q-8 -29 4 -45q4 -3 15 0q58 20 154 134q23 23 50 3q26 -23 5 -50q-115 -127 -191 -151q-56 -17 -86 21q-27 34 -21 90 q3 57 21 120q-15 -18 -30 -35.5t-29 -32.5q-158 -175 -278 -175q-121 5 -115 144zM-173 103q0 -73 50 -73q87 -4 227 152q102 113 206 296q-69 76 -141 71t-135 -57q-85 -70 -145 -190q-57 -104 -62 -199zM68 849q22 29 44.5 51.5t47.5 30.5q64 20 126 -59q19 -25 30 -28 q13 -3 20 -1l-1 -1q5 2 10.5 3.5t10.5 6.5q29 20 42 57v-1q7 33 38 25q34 -12 26 -41q-9 -30 -25.5 -53.5t-38.5 -39.5q-12 -7 -23 -12.5t-22 -8.5v1q-27 -7 -53 1q-20 5 -36.5 18.5t-32.5 33.5q-33 43 -50 37q-11 -4 -26 -20.5t-33 -37.5q-21 -31 -49 -7q-25 20 -5 45z" />
<glyph unicode="&#xe4;" horiz-adv-x="458" d="M-240 105q3 103 67 230q65 132 162 210q81 67 174.5 77t181.5 -79q5 12 19 35l10 22q19 29 46 13q33 -13 14 -44q-46 -94 -108 -238t-65 -249q-8 -29 4 -45q4 -3 15 0q58 20 154 134q23 23 50 3q26 -23 5 -50q-115 -127 -191 -151q-56 -17 -86 21q-27 34 -21 90 q3 57 21 120q-15 -18 -30 -35.5t-29 -32.5q-158 -175 -278 -175q-121 5 -115 144zM-173 103q0 -73 50 -73q87 -4 227 152q102 113 206 296q-69 76 -141 71t-135 -57q-85 -70 -145 -190q-57 -104 -62 -199zM137 814l43 165q9 31 45 25q34 -11 27 -45l-44 -164 q-10 -35 -44 -25q-37 7 -27 44zM307 814l44 165q8 31 44 25q35 -11 26 -45l-44 -164q-9 -35 -43 -25q-38 7 -27 44z" />
<glyph unicode="&#xe5;" horiz-adv-x="458" d="M-240 105q3 103 67 230q65 132 162 210q81 67 174.5 77t181.5 -79q5 12 19 35l10 22q19 29 46 13q33 -13 14 -44q-46 -94 -108 -238t-65 -249q-8 -29 4 -45q4 -3 15 0q58 20 154 134q23 23 50 3q26 -23 5 -50q-115 -127 -191 -151q-56 -17 -86 21q-27 34 -21 90 q3 57 21 120q-15 -18 -30 -35.5t-29 -32.5q-158 -175 -278 -175q-121 5 -115 144zM-173 103q0 -73 50 -73q87 -4 227 152q102 113 206 296q-69 76 -141 71t-135 -57q-85 -70 -145 -190q-57 -104 -62 -199zM141 929q0 26 7 54q18 69 74 126q59 54 126 54q20 0 32 -2 q47 -16 69 -52q24 -35 24 -89q0 -27 -7 -54q-20 -77 -74 -125q-57 -55 -123 -55q-22 0 -31 4q-47 13 -72 51q-24 42 -25 88zM216 929q0 -28 11 -48q12 -18 27 -21q4 0 7.5 -1t7.5 -1q35 0 74 35q38 37 54 90q6 30 6 37q0 27 -13 49q-13 15 -29 20q-3 2 -13 2q-38 0 -74 -34 q-45 -46 -54 -91q-5 -20 -4 -37z" />
<glyph unicode="&#xe6;" horiz-adv-x="660" d="M-89 136.5q11 84.5 99 136.5q91 44 268 54q8 69 4 103q-5 39 -29 73.5t-74.5 40.5t-92 -14.5t-63.5 -40.5q-19 -24 -40 -6q-32 25 -15 49q21 25 81 58q62 33 136 27.5t116 -53.5q26 -30 39 -70q57 101 158 116q105 15 161.5 -34.5t45 -134.5t-99.5 -130 q-103 -48 -267 -55q-8 -75 -3 -110q4 -38 27.5 -72.5t74.5 -40.5t98.5 21.5t109.5 101.5q19 24 40 6q32 -25 15 -50q-59 -90 -133 -125q-62 -33 -136.5 -27.5t-115.5 53.5q-27 31 -40 71q-56 -102 -158 -116q-105 -15 -161 34.5t-45 134zM-20 88q21 -64 98 -61.5t110 48.5 t48 87q19 39 30 87v4q-170 -11 -246 -65q-61 -36 -40 -100zM350 331q176 13 246 58q61 41 39.5 102.5t-98.5 59t-110 -48.5t-48 -87q-19 -37 -29 -84z" />
<glyph unicode="&#xe7;" horiz-adv-x="299" d="M-233 87q3 111 57 248q76 147 185 227q85 61 174 59.5t168 -106.5q16 -31 -10 -49q-24 -20 -46 7q-57 77 -121 77t-122 -44q-50 -35 -93.5 -90t-75.5 -114q-46 -132 -46 -215q0 -52 64 -60q156 1 231 45q63 20 142 99q22 24 49 3q22 -25 0 -50q-87 -91 -166 -113 q-59 -37 -172 -48q-2 -8 -3.5 -14.5t-1.5 -9.5q-1 -2 -2.5 -5.5t-1.5 -2.5q0 -4 -1 -5q30 13 47 -14l-1 1q8 -11 12 -23.5t4 -28.5q0 -24 -11 -56q0 -28 -23 -57.5t-50 -66.5q-8 -13 -19 -15t-23 5q-11 11 -14.5 21t4.5 22q25 36 42 64.5t25 50.5q5 10 6 17.5t0 10.5 q-19 -8 -33 -8q-11 0 -19 4t-19 13q-9 15 -4 31t12 36q2 5 4 9.5t3 11.5q0 2 0.5 2.5t0.5 2.5q-9 -1 -18 -1q-134 11 -134 129z" />
<glyph unicode="&#xe8;" horiz-adv-x="157" d="M-248 35q-14 38 0 105q10 56 39 124q53 125 150.5 238t196.5 113h19q50 -4 72 -32q26 -30 27 -68q0 -4 -1.5 -7.5t-1.5 -6.5q-9 -104 -101 -175q-87 -68 -276 -30q-5 -8 -8 -17q-34 -82 -46 -133.5t-4 -91.5q7 -19 23 -19q77 -4 142 25q73 33 151 111q22 24 48 3 q24 -25 0 -50q-86 -90 -172 -125q-72 -33 -169 -33q-70 3 -89 69zM-86 361q156 -26 208 19q56 50 63 128v7q0 13 -7 21q-9 8 -28 12h-10q-58 -4 -148 -95q-46 -47 -78 -92zM-49 949q20 31 50 13l194 -115q30 -19 11 -49q-17 -33 -50 -13l-195 115q-27 17 -10 49z" />
<glyph unicode="&#xe9;" horiz-adv-x="157" d="M-248 35q-14 38 0 105q10 56 39 124q53 125 150.5 238t196.5 113h19q50 -4 72 -32q26 -30 27 -68q0 -4 -1.5 -7.5t-1.5 -6.5q-9 -104 -101 -175q-87 -68 -276 -30q-5 -8 -8 -17q-34 -82 -46 -133.5t-4 -91.5q7 -19 23 -19q77 -4 142 25q73 33 151 111q22 24 48 3 q24 -25 0 -50q-86 -90 -172 -125q-72 -33 -169 -33q-70 3 -89 69zM-86 361q156 -26 208 19q56 50 63 128v7q0 13 -7 21q-9 8 -28 12h-10q-58 -4 -148 -95q-46 -47 -78 -92zM158 787q-22 31 10 52l184 128q27 19 50 -9q20 -31 -10 -52l-185 -128q-28 -20 -49 9z" />
<glyph unicode="&#xea;" horiz-adv-x="157" d="M-248 35q-14 38 0 105q10 56 39 124q53 125 150.5 238t196.5 113h19q50 -4 72 -32q26 -30 27 -68q0 -4 -1.5 -7.5t-1.5 -6.5q-9 -104 -101 -175q-87 -68 -276 -30q-5 -8 -8 -17q-34 -82 -46 -133.5t-4 -91.5q7 -19 23 -19q77 -4 142 25q73 33 151 111q22 24 48 3 q24 -25 0 -50q-86 -90 -172 -125q-72 -33 -169 -33q-70 3 -89 69zM-86 361q156 -26 208 19q56 50 63 128v7q0 13 -7 21q-9 8 -28 12h-10q-58 -4 -148 -95q-46 -47 -78 -92zM27 796l130 149q5 9 13 15.5t22 9.5q16 3 29 -8q8 -13 31 -54t60 -113v1q20 -31 -10 -53 q-33 -19 -53 10l-62 114q-52 -61 -77.5 -88t-26.5 -36q-25 -23 -51 -1q-22 28 -5 54z" />
<glyph unicode="&#xeb;" horiz-adv-x="157" d="M-248 35q-14 38 0 105q10 56 39 124q53 125 150.5 238t196.5 113h19q50 -4 72 -32q26 -30 27 -68q0 -4 -1.5 -7.5t-1.5 -6.5q-9 -104 -101 -175q-87 -68 -276 -30q-5 -8 -8 -17q-34 -82 -46 -133.5t-4 -91.5q7 -19 23 -19q77 -4 142 25q73 33 151 111q22 24 48 3 q24 -25 0 -50q-86 -90 -172 -125q-72 -33 -169 -33q-70 3 -89 69zM-86 361q156 -26 208 19q56 50 63 128v7q0 13 -7 21q-9 8 -28 12h-10q-58 -4 -148 -95q-46 -47 -78 -92zM49 814l44 165q9 31 45 25q34 -11 26 -45l-44 -164q-10 -35 -44 -25q-37 7 -27 44zM219 814l44 165 q8 31 44 25q35 -11 27 -45l-44 -164q-9 -35 -44 -25q-38 7 -27 44z" />
<glyph unicode="&#xec;" horiz-adv-x="157" d="M-123 60q0 42 13.5 100.5t31.5 123.5l75 283l7 23l1 1q2 1 2 4q7 25 37 20q31 -7 28 -37v-7q-3 -5 -7 -21l-78 -283v-3q-16 -59 -29 -113.5t-13 -90.5q0 -25 7 -25q18 0 57 25q56 39 124 111q23 23 49 3q22 -25 2 -50q-44 -44 -78 -73.5t-60 -48.5q-59 -36 -94 -36 q-75 0 -75 94zM-49 949q20 31 50 13l194 -115q30 -19 11 -49q-17 -33 -50 -13l-195 115q-27 17 -10 49z" />
<glyph unicode="&#xed;" horiz-adv-x="157" d="M-123 60q0 42 13.5 100.5t31.5 123.5l75 283l7 23l1 1q2 1 2 4q7 25 37 20q31 -7 28 -37v-7q-3 -5 -7 -21l-78 -283v-3q-16 -59 -29 -113.5t-13 -90.5q0 -25 7 -25q18 0 57 25q56 39 124 111q23 23 49 3q22 -25 2 -50q-44 -44 -78 -73.5t-60 -48.5q-59 -36 -94 -36 q-75 0 -75 94zM-41 787q-22 31 10 52l184 128q27 19 50 -9q20 -31 -10 -52l-185 -128q-28 -20 -49 9z" />
<glyph unicode="&#xee;" horiz-adv-x="162" d="M-123 60q0 42 13.5 100.5t31.5 123.5l75 283l7 23l1 1q2 1 2 4q7 25 37 20q31 -7 28 -37v-7q-3 -5 -7 -21l-78 -283v-3q-16 -59 -29 -113.5t-13 -90.5q0 -25 7 -25q18 0 57 25q56 39 124 111q23 23 49 3q22 -25 2 -50q-44 -44 -78 -73.5t-60 -48.5q-59 -36 -94 -36 q-75 0 -75 94zM-64 796l129 149q5 9 13.5 15.5t21.5 9.5q16 3 30 -8q8 -13 30.5 -54t59.5 -113v1q20 -31 -9 -53q-33 -19 -54 10l-61 114q-52 -61 -78 -88t-27 -36q-24 -23 -50 -1q-22 28 -5 54z" />
<glyph unicode="&#xef;" horiz-adv-x="157" d="M-123 60q0 42 13.5 100.5t31.5 123.5l75 283l7 23l1 1q2 1 2 4q7 25 37 20q31 -7 28 -37v-7q-3 -5 -7 -21l-78 -283v-3q-16 -59 -29 -113.5t-13 -90.5q0 -25 7 -25q18 0 57 25q56 39 124 111q23 23 49 3q22 -25 2 -50q-44 -44 -78 -73.5t-60 -48.5q-59 -36 -94 -36 q-75 0 -75 94zM-62 814l43 165q9 31 45 25q34 -11 27 -45l-44 -164q-10 -35 -44 -25q-37 7 -27 44zM108 814l44 165q8 31 44 25q35 -11 26 -45l-44 -164q-9 -35 -43 -25q-38 7 -27 44z" />
<glyph unicode="&#xf0;" horiz-adv-x="276" d="M-240 105q3 103 67 230q65 132 162 210q182 147 356 -2q43 134 5 233l-6 16l-129 -84q-28 -20 -49 9q-22 30 10 51l133 87q-31 48 -75 83q-24 26 -10 50q25 22 58 1q48 -51 82 -98l91 60q27 19 50 -10q20 -31 -10 -52l-92 -59q35 -69 26 -183q-10 -123 -71 -230.5 t-146 -212.5q-15 -18 -30 -35.5t-29 -32.5q-158 -175 -278 -175q-121 5 -115 144zM-173 103q0 -73 50 -73q87 -4 227 152q102 113 206 296q-69 76 -141 71t-135 -57q-85 -70 -145 -190q-57 -104 -62 -199z" />
<glyph unicode="&#xf1;" horiz-adv-x="715" d="M-25 10l88 329q39 147 34 204v5q-24 -9 -71 -56q-24 -23 -49 -2q-23 23 -2 48q59 61 98 75q32 14 63 -4q25 -16 28 -56q11 -68 -32 -232l-35 -129q192 280 311 375q59 49 98 48q59 4 77 -62q14 -60 -5 -145.5t-35 -147.5q-16 -60 -29 -112t-13 -88q0 -25 7 -25 q18 0 57 25q52 37 126 111q21 27 47 3q22 -24 2 -50q-43 -44 -76 -73.5t-59 -48.5q-64 -36 -97 -36q-75 0 -75 94q0 41 13 98t30 118q14 51 32.5 132t6.5 128q0 12 -4 12q-20 0 -61 -35q-74 -59 -180.5 -198t-229.5 -333q-2 -3 -12 -9q-12 -8 -28 -5q-34 10 -25 42zM166 849 q22 29 44 51.5t47 30.5q64 20 126 -59q19 -25 31 -28q13 -3 20 -1l-1 -1q5 2 10.5 3.5t9.5 6.5q29 20 42 57v-1q7 33 38 25q34 -12 27 -41q-9 -30 -25.5 -53.5t-39.5 -39.5q-12 -7 -23 -12.5t-21 -8.5v1q-27 -7 -53 1q-20 5 -37 18.5t-32 33.5q-33 43 -50 37 q-11 -4 -26 -20.5t-34 -37.5q-21 -31 -48 -7q-25 20 -5 45z" />
<glyph unicode="&#xf2;" horiz-adv-x="607" d="M-235 124q7 77 42 157q49 117 141.5 222.5t200.5 119.5q8 0 21 -5q41 20 72.5 10t62 -56.5t38.5 -91.5q169 0 239 61q30 21 50 -5q19 -25 -5 -46q-89 -75 -282 -80q-16 -65 -38.5 -105t-50.5 -78q-46 -60 -94 -106t-93 -79q-116 -81 -190 -81q-75 5 -100 64 q-19 43 -14 99zM-165 115q-5 -35 7 -61q12 -23 37 -24q53 -4 150 68q89 62 174 171q55 77 70 134q0 3 1 5.5t1 5.5h-2q-55 12 -85 31q-46 29 -53 61q-7 19 -7 42q-79 -25 -149.5 -112t-108.5 -180q-33 -79 -35 -141zM176 949q20 31 49 13l194 -115q30 -19 11 -49 q-17 -33 -50 -13l-195 115q-27 17 -9 49zM198 530q8 -17 25 -27q25 -12 47 -18q-5 19 -20 53l-5 5q-8 15 -19 19q-9 3 -23 -5q-8 -19 -5 -27z" />
<glyph unicode="&#xf3;" horiz-adv-x="607" d="M-235 124q7 77 42 157q49 117 141.5 222.5t200.5 119.5q8 0 21 -5q41 20 72.5 10t62 -56.5t38.5 -91.5q169 0 239 61q30 21 50 -5q19 -25 -5 -46q-89 -75 -282 -80q-16 -65 -38.5 -105t-50.5 -78q-46 -60 -94 -106t-93 -79q-116 -81 -190 -81q-75 5 -100 64 q-19 43 -14 99zM-165 115q-5 -35 7 -61q12 -23 37 -24q53 -4 150 68q89 62 174 171q55 77 70 134q0 3 1 5.5t1 5.5h-2q-55 12 -85 31q-46 29 -53 61q-7 19 -7 42q-79 -25 -149.5 -112t-108.5 -180q-33 -79 -35 -141zM183 787q-22 31 10 52l184 128q27 19 50 -9 q20 -31 -10 -52l-185 -128q-28 -20 -49 9zM198 530q8 -17 25 -27q25 -12 47 -18q-5 19 -20 53l-5 5q-8 15 -19 19q-9 3 -23 -5q-8 -19 -5 -27z" />
<glyph unicode="&#xf4;" horiz-adv-x="607" d="M-235 124q7 77 42 157q49 117 141.5 222.5t200.5 119.5q8 0 21 -5q41 20 72.5 10t62 -56.5t38.5 -91.5q169 0 239 61q30 21 50 -5q19 -25 -5 -46q-89 -75 -282 -80q-16 -65 -38.5 -105t-50.5 -78q-46 -60 -94 -106t-93 -79q-116 -81 -190 -81q-75 5 -100 64 q-19 43 -14 99zM-165 115q-5 -35 7 -61q12 -23 37 -24q53 -4 150 68q89 62 174 171q55 77 70 134q0 3 1 5.5t1 5.5h-2q-55 12 -85 31q-46 29 -53 61q-7 19 -7 42q-79 -25 -149.5 -112t-108.5 -180q-33 -79 -35 -141zM160 796l130 149q5 9 13 15.5t22 9.5q16 3 29 -8 q8 -13 31 -54t60 -113v1q20 -31 -10 -53q-33 -19 -54 10l-61 114q-52 -61 -77.5 -88t-26.5 -36q-25 -23 -51 -1q-22 28 -5 54zM198 530q8 -17 25 -27q25 -12 47 -18q-5 19 -20 53l-5 5q-8 15 -19 19q-9 3 -23 -5q-8 -19 -5 -27z" />
<glyph unicode="&#xf5;" horiz-adv-x="607" d="M-235 124q7 77 42 157q49 117 141.5 222.5t200.5 119.5q8 0 21 -5q41 20 72.5 10t62 -56.5t38.5 -91.5q169 0 239 61q30 21 50 -5q19 -25 -5 -46q-89 -75 -282 -80q-16 -65 -38.5 -105t-50.5 -78q-46 -60 -94 -106t-93 -79q-116 -81 -190 -81q-75 5 -100 64 q-19 43 -14 99zM-165 115q-5 -35 7 -61q12 -23 37 -24q53 -4 150 68q89 62 174 171q55 77 70 134q0 3 1 5.5t1 5.5h-2q-55 12 -85 31q-46 29 -53 61q-7 19 -7 42q-79 -25 -149.5 -112t-108.5 -180q-33 -79 -35 -141zM111 849q22 29 44 51.5t48 30.5q64 20 126 -59 q19 -25 30 -28q13 -3 20 -1l-1 -1q5 2 10.5 3.5t10.5 6.5q29 20 42 57v-1q7 33 38 25q34 -12 26 -41q-9 -30 -25.5 -53.5t-38.5 -39.5q-12 -7 -23 -12.5t-22 -8.5v1q-27 -7 -53 1q-20 5 -36.5 18.5t-32.5 33.5q-33 43 -50 37q-11 -4 -26 -20.5t-33 -37.5q-21 -31 -49 -7 q-25 20 -5 45zM198 530q8 -17 25 -27q25 -12 47 -18q-5 19 -20 53l-5 5q-8 15 -19 19q-9 3 -23 -5q-8 -19 -5 -27z" />
<glyph unicode="&#xf6;" horiz-adv-x="607" d="M-235 124q7 77 42 157q49 117 141.5 222.5t200.5 119.5q8 0 21 -5q41 20 72.5 10t62 -56.5t38.5 -91.5q169 0 239 61q30 21 50 -5q19 -25 -5 -46q-89 -75 -282 -80q-16 -65 -38.5 -105t-50.5 -78q-46 -60 -94 -106t-93 -79q-116 -81 -190 -81q-75 5 -100 64 q-19 43 -14 99zM-165 115q-5 -35 7 -61q12 -23 37 -24q53 -4 150 68q89 62 174 171q55 77 70 134q0 3 1 5.5t1 5.5h-2q-55 12 -85 31q-46 29 -53 61q-7 19 -7 42q-79 -25 -149.5 -112t-108.5 -180q-33 -79 -35 -141zM162 814l44 165q9 31 45 25q34 -11 26 -45l-44 -164 q-10 -35 -44 -25q-37 7 -27 44zM198 530q8 -17 25 -27q25 -12 47 -18q-5 19 -20 53l-5 5q-8 15 -19 19q-9 3 -23 -5q-8 -19 -5 -27zM333 814l43 165q8 31 44 25q35 -11 27 -45l-44 -164q-9 -35 -44 -25q-37 7 -26 44z" />
<glyph unicode="&#xf7;" horiz-adv-x="275" d="M63 177q9 72 64 72q54 0 47 -72q-9 -70 -64 -70q-56 0 -47 70zM147 480q8 70 64 70q53 0 45 -70q-10 -70 -64 -70q-55 0 -45 70z" />
<glyph unicode="&#xf8;" horiz-adv-x="549" d="M-235 124q7 77 42 157q49 117 141.5 222.5t200.5 119.5q8 0 21 -5q26 13 49 13l15 24q20 25 49 10q26 -21 10 -50l-10 -15q11 -12 21 -29q31 -47 39 -91q107 0 178 61q30 21 50 -5q19 -25 -5 -46q-89 -75 -221 -80q-16 -65 -38.5 -105t-50.5 -78q-46 -60 -94 -106 t-93 -79q-99 -69 -168 -79l-22 -36q-21 -29 -49 -10q-26 16 -9 46l6 11q-33 17 -48 51q-19 43 -14 99zM-165 115q-5 -35 7 -61q8 -16 20 -21l276 461q-3 6 -3 12q-7 19 -7 42q-79 -25 -149.5 -112t-108.5 -180q-33 -79 -35 -141zM-47 50q33 16 76 48q89 62 174 171 q55 77 70 134q0 3 1 5.5t1 5.5h-2q-54 11 -84 30zM224 502q24 -11 46 -17q-5 19 -20 53l-2 2z" />
<glyph unicode="&#xf9;" horiz-adv-x="571" d="M-118 33q-18 70 35 269l77 290q8 31 43 23t23 -42l-78 -289q-48 -179 -32 -237q2 -12 5 -12q18 0 59 33q73 61 179 201t227 333q2 0 2 1l1 1q15 17 35 11q34 -8 26 -42v-2q-8 -24 -28.5 -96.5t-42.5 -155.5t-38.5 -157t-16.5 -102q0 -25 7 -25q18 0 55 25q53 36 127 111 q21 27 47 3q23 -25 3 -50q-43 -44 -77.5 -73.5t-61.5 -48.5q-59 -36 -93 -36q-75 0 -75 94q0 59 17.5 126t33.5 128l21 70q-187 -272 -304 -367q-56 -47 -101 -51q-59 -3 -75 67zM157 949q20 31 50 13l194 -115q30 -19 11 -49q-17 -33 -50 -13l-195 115q-27 17 -10 49z" />
<glyph unicode="&#xfa;" horiz-adv-x="571" d="M-118 33q-18 70 35 269l77 290q8 31 43 23t23 -42l-78 -289q-48 -179 -32 -237q2 -12 5 -12q18 0 59 33q73 61 179 201t227 333q2 0 2 1l1 1q15 17 35 11q34 -8 26 -42v-2q-8 -24 -28.5 -96.5t-42.5 -155.5t-38.5 -157t-16.5 -102q0 -25 7 -25q18 0 55 25q53 36 127 111 q21 27 47 3q23 -25 3 -50q-43 -44 -77.5 -73.5t-61.5 -48.5q-59 -36 -93 -36q-75 0 -75 94q0 59 17.5 126t33.5 128l21 70q-187 -272 -304 -367q-56 -47 -101 -51q-59 -3 -75 67zM166 787q-22 31 10 52l184 128q27 19 50 -9q20 -31 -10 -52l-185 -128q-28 -20 -49 9z" />
<glyph unicode="&#xfb;" horiz-adv-x="571" d="M-118 33q-18 70 35 269l77 290q8 31 43 23t23 -42l-78 -289q-48 -179 -32 -237q2 -12 5 -12q18 0 59 33q73 61 179 201t227 333q2 0 2 1l1 1q15 17 35 11q34 -8 26 -42v-2q-8 -24 -28.5 -96.5t-42.5 -155.5t-38.5 -157t-16.5 -102q0 -25 7 -25q18 0 55 25q53 36 127 111 q21 27 47 3q23 -25 3 -50q-43 -44 -77.5 -73.5t-61.5 -48.5q-59 -36 -93 -36q-75 0 -75 94q0 59 17.5 126t33.5 128l21 70q-187 -272 -304 -367q-56 -47 -101 -51q-59 -3 -75 67zM142 796l130 149q5 9 13.5 15.5t21.5 9.5q16 3 29 -8q8 -13 31 -54t60 -113v1q20 -31 -10 -53 q-33 -19 -53 10l-62 114q-52 -61 -77.5 -88t-26.5 -36q-25 -23 -51 -1q-22 28 -5 54z" />
<glyph unicode="&#xfc;" horiz-adv-x="571" d="M-118 33q-18 70 35 269l77 290q8 31 43 23t23 -42l-78 -289q-48 -179 -32 -237q2 -12 5 -12q18 0 59 33q73 61 179 201t227 333q2 0 2 1l1 1q15 17 35 11q34 -8 26 -42v-2q-8 -24 -28.5 -96.5t-42.5 -155.5t-38.5 -157t-16.5 -102q0 -25 7 -25q18 0 55 25q53 36 127 111 q21 27 47 3q23 -25 3 -50q-43 -44 -77.5 -73.5t-61.5 -48.5q-59 -36 -93 -36q-75 0 -75 94q0 59 17.5 126t33.5 128l21 70q-187 -272 -304 -367q-56 -47 -101 -51q-59 -3 -75 67zM144 814l44 165q9 31 45 25q34 -11 26 -45l-43 -164q-10 -35 -44 -25q-38 7 -28 44zM315 814 l44 165q8 31 44 25q35 -11 26 -45l-44 -164q-9 -35 -44 -25q-37 7 -26 44z" />
<glyph unicode="&#xfd;" horiz-adv-x="395" d="M-148 -449q6 39 44 105t125 156l169 172l26 93l70 269q-142 -231 -239 -327q-52 -46 -89 -51q-59 -6 -72 60q-15 69 35 274l74 288q9 33 43 25t25 -42l-75 -287q-47 -182 -35 -244q4 -6 0 -7q15 2 45 33q139 136 356 529q2 3 5 5q15 23 44 11q25 -18 16 -42l-130 -487 l85 87q21 27 47 3q23 -24 3 -50l-170 -175l-34 -119q-37 -138 -103 -224.5t-124 -119.5t-95 -18q-57 16 -46 83zM-84 -467q13 -4 42 14q49 26 105 101.5t89 200.5l-82 -84q-79 -81 -114 -137t-38 -86q0 -5 -1 -7zM78 787q-22 31 10 52l184 128q27 19 50 -9q20 -31 -10 -52 l-185 -128q-28 -20 -49 9z" />
<glyph unicode="&#xfe;" horiz-adv-x="654" d="M-227 -495l267 993l-15 -9q-25 -22 -48 2q-21 25 2 49q98 121 218 542v2q2 2 2 4q12 25 40 20q33 -10 25 -43l-217 -812q123 205 239 300q68 57 122 67q70 15 103 -49q41 -77 -17 -276l-2 -9q-18 -65 -33.5 -125t-15.5 -98q0 -28 10 -28q18 0 53 25q47 31 126 111 q23 23 50 3q22 -25 0 -50q-43 -44 -76.5 -73.5t-59.5 -48.5q-59 -36 -93 -36q-78 0 -79 97q0 45 16.5 108.5t35.5 130.5l2 12q50 169 22 227q-7 15 -31 12q-33 -8 -88 -52q-104 -88 -226 -283.5t-189 -448.5v-2l-75 -279q-10 -33 -42 -25q-36 10 -26 42z" />
<glyph unicode="&#xff;" horiz-adv-x="395" d="M-148 -449q6 39 44 105t125 156l169 172l26 93l70 269q-142 -231 -239 -327q-52 -46 -89 -51q-59 -6 -72 60q-15 69 35 274l74 288q9 33 43 25t25 -42l-75 -287q-47 -182 -35 -244q4 -6 0 -7q15 2 45 33q139 136 356 529q2 3 5 5q15 23 44 11q25 -18 16 -42l-130 -487 l85 87q21 27 47 3q23 -24 3 -50l-170 -175l-34 -119q-37 -138 -103 -224.5t-124 -119.5t-95 -18q-57 16 -46 83zM-84 -467q13 -4 42 14q49 26 105 101.5t89 200.5l-82 -84q-79 -81 -114 -137t-38 -86q0 -5 -1 -7zM57 814l43 165q9 31 45 25q34 -11 27 -45l-44 -164 q-10 -35 -44 -25q-37 7 -27 44zM227 814l44 165q8 31 44 25q35 -11 26 -45l-44 -164q-9 -35 -43 -25q-38 7 -27 44z" />
<glyph unicode="&#x152;" horiz-adv-x="1316" d="M-16 253q0 126 63 295q44 120 108 227t149 183q161 150 361 150q66 0 127 -22q31 -12 56 -30q18 13 37 24q84 47 180 30q58 -10 98 -33q64 -35 94 -86q18 -31 -12 -47q-30 -18 -46 12q-24 39 -66 60q-39 18 -80 26q-72 14 -133 -24q-10 -5 -19 -11q11 -14 20 -28 q39 -67 39 -173q0 -85 -25 -182q51 -21 120 -29q9 0 19 -1.5t19 -1.5q33 -4 30 -39q-4 -31 -35 -31h-2q-9 2 -19 2.5t-19 2.5q-77 7 -143 2q-1 -2 -1 -4q-99 -256 -265 -408q-23 -20 -47 -38q52 -45 143 -49q80 -4 176 40q92 38 144 101q23 23 50 3q26 -23 5 -50 q-67 -74 -172 -117q-117 -49 -208 -46q-97 6 -160 52q-19 14 -35 29q-128 -76 -266 -76q-71 0 -127 21q-83 29 -121 102q-37 68 -37 164zM54 253q0 -85 28 -131q26 -49 87 -73q39 -14 100 -14q116 0 224 63q-8 15 -13 31q-25 66 -16 143q17 84 63 142q45 62 126 110t199 66 q-64 42 -96 96q-38 70 -30 145q2 56 28 110q19 37 44 67q-14 8 -30 15q-49 17 -103 17q-173 0 -314 -131q-154 -145 -241 -384q-57 -150 -56 -272zM532 262q-9 -63 11 -110q3 -9 7 -16q22 14 42 33q146 130 234 349q-41 -9 -76 -24q-116 -47 -170 -120q-38 -53 -48 -112z M794 827q-5 -59 23 -106q20 -35 56 -62q19 80 19 147q0 80 -30 140q-6 9 -13 17q-20 -23 -32 -52q-20 -40 -23 -84z" />
<glyph unicode="&#x153;" horiz-adv-x="559" d="M-240 105q3 103 67 230q65 132 162 210q81 67 174.5 77t198.5 -94q20 28 68 53t105 21h19q50 -4 72 -32q26 -30 26 -69q0 -4 -1 -7t-1 -6q-9 -104 -101 -183q-281 -163 -342 -197q-11 -45 1.5 -66t29.5 -21q77 -4 142 26q73 33 151 110q22 24 48 3q24 -25 0 -50 q-86 -90 -172 -125q-72 -33 -169 -33q-70 3 -91 38.5t-10 86.5q-142 -116 -262 -116q-121 5 -115 144zM-173 103q0 -73 50 -73q85 1 268 131q49 132 168 314q-72 79 -144 74t-135 -57q-85 -70 -145 -190q-57 -104 -62 -199zM226 193q210 113 293 174q56 50 63 127v7 q0 13 -7 22q-9 8 -28 11h-10q-77 9 -150 -80q-79 -85 -161 -261z" />
<glyph unicode="&#x178;" horiz-adv-x="1050" d="M57 276q23 120 83 294.5t151 400.5q-4 -2 -19 -11q-30 -20 -60.5 -38.5t-61.5 -34.5q-36 -19 -47 14q-19 30 12 47q61 34 119 70q53 32 110 82l1 1l1 2q17 8 33 2q30 -12 19 -44q-105 -267 -176.5 -467t-97.5 -332q-49 -227 52 -227q126 0 314 272q97 137 204.5 334.5 t232.5 444.5q11 27 40 22q33 -10 26 -43l-251 -943l47 49q23 23 50 3q22 -24 2 -50l-136 -137l-8 -26q-53 -202 -119.5 -315t-121.5 -155q-60 -42 -105 -23q-51 20 -47 88q3 50 42.5 127t131.5 168l166 170l199 751q-81 -153 -155.5 -280t-142.5 -225q-207 -298 -369 -301 q-186 0 -119 310zM374 -447q-4 -23 3 -23q10 -3 37 17q40 30 91.5 111.5t98.5 223.5l-77 -78q-81 -82 -116 -147t-37 -104zM566 1308l44 165q9 31 44 25q34 -11 27 -45l-44 -164q-10 -35 -44 -25q-37 7 -27 44zM736 1308l44 165q8 31 44 25q35 -11 26 -45l-43 -164 q-9 -35 -44 -25q-38 7 -27 44z" />
<glyph unicode="&#x2c6;" horiz-adv-x="301" d="M126 796l130 149q5 9 13 15.5t22 9.5q16 3 29 -8q8 -13 31 -54t60 -113v1q20 -31 -10 -53q-33 -19 -54 10l-61 114q-52 -61 -78 -88t-27 -36q-24 -23 -50 -1q-22 28 -5 54z" />
<glyph unicode="&#x2dc;" horiz-adv-x="456" d="M204 849q22 29 44 51.5t47 30.5q64 20 126 -59q19 -25 31 -28q13 -3 20 -1l-1 -1q5 2 10.5 3.5t10.5 6.5q29 20 41 57v-1q7 33 38 25q34 -12 27 -41q-9 -30 -25.5 -53.5t-39.5 -39.5q-12 -7 -23 -12.5t-21 -8.5v1q-27 -7 -53 1q-20 5 -37 18.5t-32 33.5q-33 43 -50 37 q-11 -4 -26 -20.5t-34 -37.5q-21 -31 -48 -7q-25 20 -5 45z" />
<glyph unicode="&#x2000;" horiz-adv-x="829" />
<glyph unicode="&#x2001;" horiz-adv-x="1658" />
<glyph unicode="&#x2002;" horiz-adv-x="829" />
<glyph unicode="&#x2003;" horiz-adv-x="1658" />
<glyph unicode="&#x2004;" horiz-adv-x="552" />
<glyph unicode="&#x2005;" horiz-adv-x="414" />
<glyph unicode="&#x2006;" horiz-adv-x="276" />
<glyph unicode="&#x2007;" horiz-adv-x="276" />
<glyph unicode="&#x2008;" horiz-adv-x="207" />
<glyph unicode="&#x2009;" horiz-adv-x="331" />
<glyph unicode="&#x200a;" horiz-adv-x="92" />
<glyph unicode="&#x2010;" d="M122 333q0 35 35 35h419q35 0 35 -35t-35 -36h-419q-35 0 -35 36z" />
<glyph unicode="&#x2011;" d="M122 333q0 35 35 35h419q35 0 35 -35t-35 -36h-419q-35 0 -35 36z" />
<glyph unicode="&#x2012;" d="M122 333q0 35 35 35h419q35 0 35 -35t-35 -36h-419q-35 0 -35 36z" />
<glyph unicode="&#x2013;" horiz-adv-x="679" d="M122 333q0 35 35 35h453q35 0 36 -35q0 -35 -36 -36h-453q-35 0 -35 36z" />
<glyph unicode="&#x2014;" horiz-adv-x="1004" d="M122 333q0 35 35 35h790q35 0 35 -35t-29 -36h-796q-35 0 -35 36z" />
<glyph unicode="&#x2018;" horiz-adv-x="333" d="M132 903q2 24 19 74q27 66 80 116q25 21 50 -5q19 -28 -6 -48q-37 -29 -61 -90q-11 -29 -14 -52q0 -10 -1 -10q32 -8 27 -40q-7 -33 -40 -27q-12 1 -29 12q-27 24 -25 70zM199 886h1h-1z" />
<glyph unicode="&#x2019;" horiz-adv-x="342" d="M148 842q-19 28 6 48q37 29 62 90q11 29 13 52q0 10 1 10q-32 8 -27 40q7 33 40 27q12 -1 29 -12q27 -24 25 -70q-2 -24 -19 -74q-27 -66 -80 -116q-25 -21 -50 5zM229 1044l1 -2z" />
<glyph unicode="&#x201a;" horiz-adv-x="344" d="M148 -141q-19 28 6 48q37 29 62 90q11 29 13 52q0 10 1 10q-32 8 -27 39q7 34 40 28q12 -1 29 -12q27 -24 25 -70q-2 -24 -19 -74q-27 -66 -80 -116q-25 -21 -50 5zM229 60l1 -1l-1 2v-1z" />
<glyph unicode="&#x201c;" horiz-adv-x="500" d="M132 903q2 24 19 74q27 66 80 116q25 21 50 -5q19 -28 -6 -48q-37 -29 -61 -90q-11 -29 -14 -52q0 -10 -1 -10q32 -8 27 -40q-7 -33 -40 -27q-12 1 -29 12q-27 24 -25 70zM199 886h1h-1zM291 903q2 24 19 74q27 66 80 116q25 21 50 -5q19 -28 -6 -48q-37 -29 -61 -90 q-11 -29 -14 -52q0 -10 -1 -10q32 -8 27 -40q-7 -33 -40 -27q-12 1 -29 12q-27 24 -25 70zM358 886h1h-1z" />
<glyph unicode="&#x201d;" horiz-adv-x="500" d="M148 842q-19 28 6 48q37 29 62 90q11 29 13 52q0 10 1 10q-32 8 -27 40q7 33 40 27q12 -1 29 -12q27 -24 25 -70q-2 -24 -19 -74q-27 -66 -80 -116q-25 -21 -50 5zM229 1044l1 -2zM307 842q-19 28 6 48q37 29 61 90q11 29 14 52q0 10 1 10q-32 8 -27 40q7 33 40 27 q12 -1 29 -12q27 -24 25 -70q-2 -24 -19 -74q-27 -66 -80 -116q-25 -21 -50 5zM388 1044l1 -2z" />
<glyph unicode="&#x201e;" horiz-adv-x="500" d="M148 -141q-19 28 6 48q37 29 62 90q11 29 13 52q0 10 1 10q-32 8 -27 39q7 34 40 28q12 -1 29 -12q27 -24 25 -70q-2 -24 -19 -74q-27 -66 -80 -116q-25 -21 -50 5zM229 60l1 -1l-1 2v-1zM307 -141q-19 28 6 48q37 29 61 90q11 29 14 52q0 10 1 10q-32 8 -27 39 q7 34 40 28q12 -1 29 -12q27 -24 25 -70q-2 -24 -19 -74q-27 -66 -80 -116q-25 -21 -50 5zM388 60l1 -1l-1 2v-1z" />
<glyph unicode="&#x2022;" horiz-adv-x="393" d="M129 572q0 16 5 36q9 43 51 85q34 33 71 34q8 0 11 -2q16 -5 28 -20q12 -20 12 -47q0 -6 -5 -35q-16 -50 -51 -86q-37 -33 -71 -33q-4 0 -7.5 1t-6.5 1q-15 3 -26 20q-12 20 -11 46z" />
<glyph unicode="&#x2026;" horiz-adv-x="988" d="M210 35q8 68 63 68q57 0 45 -68q-9 -69 -63 -69t-45 69zM539 35q9 68 64 68q57 0 45 -68q-9 -69 -64 -69q-54 0 -45 69zM869 35q8 68 63 68q57 0 45 -68q-9 -69 -63 -69t-45 69z" />
<glyph unicode="&#x202f;" horiz-adv-x="331" />
<glyph unicode="&#x2039;" horiz-adv-x="590" d="M17 274q-17 27 13 47l497 290q30 16 46 -11q18 -31 -11 -47l-457 -267l305 -261q24 -20 4 -47q-24 -23 -48 -2l-340 286q-3 5 -9 12z" />
<glyph unicode="&#x203a;" horiz-adv-x="590" d="M18 -19q-18 31 11 47l457 267l-305 261q-24 20 -4 48q24 23 48 2l340 -287q3 -5 9 -12q17 -27 -13 -47l-497 -290q-30 -16 -46 11z" />
<glyph unicode="&#x205f;" horiz-adv-x="414" />
<glyph unicode="&#x20ac;" horiz-adv-x="892" d="M-94 458q0 35 35 35h54q9 66 32 135h-52q-35 0 -35 35t35 35h82l2 4q59 134 170 242q109 104 230 142q136 46 255 -11q61 -29 115 -82q21 -25 -2 -49q-22 -22 -50 0q-39 44 -91 67q-95 48 -206 10q-105 -31 -204 -129q-85 -82 -144 -194h364q35 0 36 -35q0 -35 -36 -35 h-397q-25 -68 -37 -135h299q35 0 35 -35t-35 -35h-305v-2q-4 -123 33 -217q26 -74 85 -124q51 -45 117 -45q117 -4 250 136q22 24 49 3q22 -24 2 -50q-151 -158 -301 -158q-89 0 -162 59q-66 55 -106 155q-39 105 -34 243h-48q-35 0 -35 35z" />
<glyph unicode="&#x25fc;" horiz-adv-x="615" d="M0 0v615h615v-615h-615z" />
</font>
</defs>
</svg>
