<?xml version="1.0" standalone="no"?>
<!DOCTYPE svg PUBLIC "-//W3C//DTD SVG 1.1//EN" "http://www.w3.org/Graphics/SVG/1.1/DTD/svg11.dtd" >
<svg xmlns="http://www.w3.org/2000/svg">
<metadata></metadata>
<defs>
<font id="schulbuchbayerncomp-boldRg" horiz-adv-x="1138" >
<font-face units-per-em="2048" ascent="1522" descent="-526" />
<missing-glyph horiz-adv-x="540" />
<glyph unicode="&#xfb01;" horiz-adv-x="1146" d="M45 758v221h129v197q0 152 64.5 222t224.5 70q23 0 46 -2t58 -6v-241q-41 4 -59.5 5t-32.5 1q-35 0 -48 -18.5t-13 -73.5v-154h155v-221h-155v-758h-240v758h-129zM748 1161q0 59 41 98t98 39t97 -38.5t40 -98.5q0 -57 -41 -98t-98 -41t-97 41t-40 98zM762 0v918h252 v-918h-252z" />
<glyph unicode="&#xfb02;" horiz-adv-x="1191" d="M45 758v221h129v197q0 152 64.5 222t224.5 70q23 0 46 -2t58 -6v-241q-41 4 -59.5 5t-32.5 1q-35 0 -48 -18.5t-13 -73.5v-154h155v-221h-155v-758h-240v758h-129zM762 219v1249h225v-1226q0 -27 13.5 -36t44.5 -9h69v-224q-31 -4 -62.5 -7t-66.5 -3q-121 0 -172 60.5 t-51 195.5z" />
<glyph horiz-adv-x="2048" />
<glyph horiz-adv-x="2048" />
<glyph unicode="&#xd;" horiz-adv-x="540" />
<glyph unicode=" "  horiz-adv-x="540" />
<glyph unicode="&#x09;" horiz-adv-x="540" />
<glyph unicode="&#xa0;" horiz-adv-x="540" />
<glyph unicode="!" horiz-adv-x="743" d="M211 164q0 27 9 56.5t27.5 54t49.5 40t74 15.5q61 0 111 -44t50 -122q0 -23 -8 -51.5t-27.5 -53t-50 -42t-75.5 -17.5q-27 0 -55.5 10t-51 29.5t-38 50.5t-15.5 74zM236 983v485h272v-485l-47 -571h-180z" />
<glyph unicode="&#x22;" horiz-adv-x="1003" d="M174 1468h244l-31 -589h-180zM584 1468h245l-30 -589h-181z" />
<glyph unicode="#" d="M-12 416l53 192h211l65 244h-213l52 192h213l110 418h223l-110 -418h121l112 418h222l-111 -418h213l-53 -192h-211l-68 -244h215l-51 -192h-211l-113 -416h-223l111 416h-121l-111 -416h-223l111 416h-213zM475 608h121l66 244h-121z" />
<glyph unicode="$" d="M74 496h250q2 -55 9 -104.5t24.5 -88.5t49 -64.5t82.5 -37.5v424q-86 20 -157.5 52t-122.5 81t-80 119t-29 170q0 59 17.5 128.5t62.5 131t121 106.5t191 55v129h161v-129q78 -10 146.5 -39.5t122 -84t86 -135.5t36.5 -193h-247q-8 78 -42 138t-102 77v-375 q100 -31 179 -63.5t132.5 -78.5t81 -111.5t27.5 -164.5q0 -92 -19.5 -170t-67.5 -139t-129 -103t-202 -61v-192h-163v190q-121 14 -201 58.5t-128 114t-68.5 160.5t-20.5 200zM352 1063q0 -59 30 -100t107 -68v340q-76 -16 -106.5 -65.5t-30.5 -106.5zM653 195q31 4 59.5 16 t52 34.5t38 58.5t14.5 89q0 25 -4 48.5t-21.5 48t-50 47t-88.5 43.5v-385z" />
<glyph unicode="%" horiz-adv-x="1824" d="M61 1028q0 76 30 144.5t81 118.5t119.5 80t146.5 30t146.5 -30t119 -80t80 -118.5t29.5 -144.5q0 -78 -29.5 -145.5t-80 -117.5t-119 -80t-146.5 -30t-146.5 30t-119.5 80t-81 117.5t-30 145.5zM272 1028q0 -68 49.5 -115t116.5 -47q66 0 115 47.5t49 114.5 q0 33 -13.5 62.5t-36 51t-52 35t-62.5 13.5q-35 0 -64.5 -13.5t-52 -35t-36 -51t-13.5 -62.5zM410 -37l804 1464h199l-805 -1464h-198zM1014 371q0 76 29.5 144.5t80 118.5t119 79.5t146.5 29.5t146.5 -29.5t118.5 -79.5t79.5 -119t29.5 -144q0 -78 -29.5 -145.5t-79.5 -119 t-119 -80t-146 -28.5q-78 0 -146.5 28.5t-119 80t-80 119t-29.5 145.5zM1225 371q0 -68 49 -115t115 -47q68 0 115.5 47t47.5 115q0 66 -47.5 113.5t-115.5 47.5q-33 0 -63 -13t-52.5 -34.5t-35.5 -51.5t-13 -62z" />
<glyph unicode="&#x26;" horiz-adv-x="1425" d="M100 391q0 74 16.5 131.5t51.5 107.5t90 96t133 97q-45 57 -85 130t-40 163q0 78 26.5 142.5t76 111.5t119 72.5t153.5 25.5q72 0 134.5 -21.5t110.5 -62.5t75.5 -101t27.5 -138q0 -43 -5 -85t-28.5 -88t-68.5 -95.5t-125 -106.5l174 -211q10 35 19.5 80t17.5 104h248 q-27 -248 -115 -401l283 -342h-334l-107 131q-29 -29 -63.5 -57.5t-80.5 -52t-107.5 -39t-141.5 -15.5q-131 0 -219 41t-140.5 104.5t-74 137.5t-21.5 141zM362 391q0 -82 58.5 -133t146.5 -51q59 0 120 21.5t116 86.5l-262 322q-84 -57 -131.5 -112.5t-47.5 -133.5z M520 1135q0 -18 3 -36t14.5 -38.5t31 -48t52.5 -64.5q16 12 37.5 29.5t40 41t31.5 52.5t13 64q0 14 -4 32.5t-16 35t-32.5 27.5t-51.5 11q-55 0 -87 -28.5t-32 -77.5z" />
<glyph unicode="'" horiz-adv-x="544" d="M150 1468h245l-30 -589h-181z" />
<glyph unicode="(" horiz-adv-x="790" d="M135 557q0 242 90 476.5t258 463.5h226q-55 -102 -103.5 -204.5t-85.5 -217t-57.5 -246t-20.5 -288.5q0 -176 26 -316.5t65.5 -256t89 -209t94.5 -173.5h-221q-117 156 -187.5 296.5t-108.5 263t-51.5 226t-13.5 185.5z" />
<glyph unicode=")" horiz-adv-x="790" d="M74 -414q45 80 94 173.5t89 209t65.5 256t25.5 316.5q0 158 -20.5 289t-57.5 245.5t-85 217t-103 204.5h225q168 -229 258 -463.5t90 -476.5q0 -82 -13 -185.5t-51 -226t-108.5 -263t-187.5 -296.5h-221z" />
<glyph unicode="*" horiz-adv-x="823" d="M82 1184l61 172l176 -64v185h183v-185l176 64l63 -172l-182 -60l113 -155l-152 -107l-108 156l-111 -156l-151 107l112 155z" />
<glyph unicode="+" horiz-adv-x="1157" d="M55 506v244h400v403h245v-403h402v-244h-402v-404h-245v404h-400z" />
<glyph unicode="," horiz-adv-x="577" d="M129 152q0 18 6 44.5t23.5 50t47.5 41t77 17.5q37 0 66.5 -14.5t49 -37t29.5 -50t10 -53.5v-95q0 -135 -64.5 -222t-211.5 -107v155q86 16 102 121q-47 2 -91 41t-44 109z" />
<glyph unicode="-" horiz-adv-x="675" d="M82 426v199h512v-199h-512z" />
<glyph unicode="." horiz-adv-x="577" d="M127 164q0 27 9 56.5t27.5 54t49.5 40t74 15.5q61 0 111.5 -44t50.5 -122q0 -23 -8.5 -51.5t-28 -53t-50 -42t-75.5 -17.5q-27 0 -55.5 10t-51 29.5t-38 50.5t-15.5 74z" />
<glyph unicode="/" horiz-adv-x="636" d="M-12 0l446 1468h219l-446 -1468h-219z" />
<glyph unicode="0" d="M68 713q0 70 3 153.5t17 166.5t45 161t86 137.5t140 95t208 35.5q143 0 240.5 -50t156 -146.5t83 -236.5t24.5 -318q0 -176 -25.5 -314.5t-84 -234.5t-154.5 -147.5t-238 -51.5q-143 0 -239.5 50t-154.5 146.5t-82.5 236t-24.5 317.5zM369 713q0 -84 3 -174t21.5 -165 t59.5 -123t116 -48q47 0 84 19.5t61.5 74.5t38 154.5t13.5 259.5q0 174 -14.5 275t-41 153.5t-62.5 67t-81 14.5q-55 0 -93 -22.5t-61.5 -80t-33.5 -155.5t-10 -250z" />
<glyph unicode="1" d="M145 997v201q90 4 159 12.5t118 34t78.5 73.5t44.5 134h243v-1452h-299v997h-344z" />
<glyph unicode="2" d="M68 0q0 68 13 136.5t51 142t108.5 151.5t185.5 164l98 74q51 37 94.5 73.5t75 76.5t49 85t17.5 98q0 29 -7.5 66t-29 68.5t-59 53t-97.5 21.5q-33 0 -66.5 -6t-61 -32.5t-46 -81t-24.5 -148.5h-287q8 246 122.5 381t350.5 135q88 0 178 -23.5t162 -77.5t118 -144.5 t46 -223.5q0 -86 -25.5 -154.5t-66.5 -125t-94.5 -103.5t-110.5 -88l-111 -80q-74 -53 -125 -92t-82 -86h619v-260h-995z" />
<glyph unicode="3" d="M68 444h290v-10q0 -37 7.5 -78t30 -74.5t63.5 -56t106 -22.5q20 0 54 7t67 30.5t55.5 66.5t22.5 115q0 51 -14.5 91t-49 66.5t-93 41t-148.5 14.5h-8v209h16q150 2 207 48t57 146q0 27 -7 58.5t-26.5 59.5t-54.5 46.5t-90 18.5q-39 0 -74 -12.5t-60.5 -40t-39.5 -70.5 t-10 -107h-275q2 86 23.5 170t75 150.5t143.5 106.5t229 40q86 0 170 -22.5t148.5 -70.5t104.5 -123t40 -181q0 -98 -49 -177t-127 -112q109 -39 164 -129t55 -217q0 -72 -22.5 -152.5t-80 -149.5t-154.5 -115t-245 -46q-88 0 -174 17.5t-155.5 69.5t-116.5 146.5t-55 247.5 z" />
<glyph unicode="4" d="M59 307v258l523 877h336v-905h159v-230h-159v-307h-289v307h-570zM274 537h357v624z" />
<glyph unicode="5" d="M63 389h295q6 -27 15.5 -59.5t30 -61t56.5 -48t95 -19.5q41 0 78 13t65.5 44t46 79t17.5 120q0 41 -8.5 87t-30 84t-61 63.5t-103.5 25.5q-133 0 -184 -101l-266 15l102 803h803v-248h-590l-51 -309q33 18 57.5 32.5t51 24.5t59 15t82.5 5q82 0 161.5 -26.5t143 -84 t102.5 -147.5t39 -217q0 -80 -24.5 -170t-83 -168t-156.5 -129t-248 -51q-104 0 -191 28.5t-150.5 84t-103.5 135.5t-49 180z" />
<glyph unicode="6" d="M63 655q0 172 25 320.5t84 257t157.5 171t248.5 62.5q199 0 320.5 -101t137.5 -278h-293q0 53 -39.5 96.5t-117.5 43.5q-115 0 -165 -97.5t-69 -302.5q37 39 74 62.5t73 35t69.5 14.5t62.5 3q84 0 162.5 -28.5t140 -86t98.5 -145.5t37 -205q0 -43 -7 -97t-25.5 -111.5 t-53.5 -113t-90 -98.5t-134 -69.5t-188 -26.5q-106 0 -199 40t-162 124t-108 216t-39 314zM358 461q0 -39 10.5 -85t35 -85t65.5 -64.5t104 -25.5q29 0 63 9t63.5 36.5t49 76t19.5 128.5q0 43 -9 89t-31.5 82.5t-62.5 61.5t-102 25q-82 0 -143.5 -60.5t-61.5 -187.5z" />
<glyph unicode="7" d="M59 1169v265h1031v-230q-115 -121 -211.5 -269.5t-166 -308t-107.5 -321.5t-34 -305h-307q4 156 51 326t120 329.5t162 294.5t177 219h-715z" />
<glyph unicode="8" d="M63 401q0 41 8.5 91.5t32 101.5t65.5 97t112 81q-76 51 -121 122.5t-45 182.5q0 72 27.5 140.5t84 122t142.5 86t202 32.5q88 0 170 -22.5t145.5 -68.5t102.5 -118.5t39 -173.5q0 -25 -5 -61.5t-22.5 -77.5t-51.5 -81t-89 -71q102 -59 158.5 -153t56.5 -232 q0 -80 -30.5 -158.5t-95 -141t-162 -100.5t-230.5 -38q-109 0 -200 29.5t-156.5 86t-101.5 138.5t-36 186zM371 424q0 -35 7 -74t28.5 -70.5t60.5 -53t104 -21.5q31 0 67 9t65.5 32.5t49 66.5t19.5 111q0 121 -59.5 171t-141.5 50q-27 0 -61.5 -5t-65 -27.5t-52 -66.5 t-21.5 -122zM395 1044q0 -29 7.5 -59.5t27 -56t54 -43t87.5 -17.5q31 0 62 8.5t56.5 28t42 53t16.5 84.5q0 31 -7.5 63t-28 58.5t-54 43t-87.5 16.5q-25 0 -55.5 -6.5t-57 -24.5t-45 -53.5t-18.5 -94.5z" />
<glyph unicode="9" d="M63 940q0 109 33 205t94.5 166.5t151.5 111.5t207 41q166 0 269.5 -63.5t159.5 -167t76.5 -235.5t20.5 -271q0 -84 -8 -173t-28.5 -175t-58.5 -163t-97.5 -134t-144.5 -91t-199 -34q-88 0 -164 25.5t-135.5 73.5t-97.5 118t-48 160h295q10 -72 57.5 -102.5t106.5 -30.5 q66 0 107.5 29.5t67.5 82t36 124t14 155.5q-35 -47 -98.5 -82t-175.5 -35q-59 0 -136 19.5t-144.5 71.5t-114 142.5t-46.5 231.5zM362 969q0 -37 5.5 -81t25 -83t61.5 -64.5t115 -25.5q29 0 64 10t65.5 36.5t51 74t20.5 120.5q0 121 -54 193t-153 72q-35 0 -70.5 -11.5 t-64.5 -39t-47.5 -76.5t-18.5 -125z" />
<glyph unicode=":" horiz-adv-x="690" d="M184 164q0 27 9.5 56.5t28 54t49 40t73.5 15.5q61 0 111.5 -44t50.5 -122q0 -23 -8.5 -51.5t-27.5 -53t-50 -42t-76 -17.5q-27 0 -55.5 10t-51 29.5t-38 50.5t-15.5 74zM188 754q0 27 9.5 56.5t28 54t49 40t73.5 15.5q61 0 111.5 -44t50.5 -122q0 -23 -8 -51.5t-27.5 -53 t-50.5 -42t-76 -17.5q-27 0 -55.5 10t-51 29.5t-38 50.5t-15.5 74z" />
<glyph unicode=";" horiz-adv-x="690" d="M184 152q0 18 6.5 44.5t23.5 50t47 41t77 17.5q37 0 66.5 -14.5t49 -37t30 -50t10.5 -53.5v-95q0 -135 -64.5 -222t-212.5 -107v155q86 16 102 121q-47 2 -91 41t-44 109zM184 752q0 27 9.5 56.5t28 54t49 40t73.5 15.5q61 0 111.5 -44t50.5 -122q0 -23 -8.5 -51.5 t-27.5 -53t-50 -42t-76 -17.5q-27 0 -55.5 10t-51 29.5t-38 50.5t-15.5 74z" />
<glyph unicode="&#x3c;" horiz-adv-x="1157" d="M41 520v219l1077 422v-264l-715 -268l715 -264v-267z" />
<glyph unicode="=" horiz-adv-x="1157" d="M55 317v236h1047v-236h-1047zM55 702v234h1047v-234h-1047z" />
<glyph unicode="&#x3e;" horiz-adv-x="1157" d="M41 98v267l715 264l-715 268v264l1077 -422v-219z" />
<glyph unicode="?" horiz-adv-x="1243" d="M152 975q0 123 30.5 221t90 168t144.5 106.5t195 36.5q94 0 176 -29.5t141.5 -85t94.5 -133t35 -176.5q0 -49 -7.5 -85.5t-27.5 -73.5t-54 -77t-85 -95l-92 -99q-41 -43 -57.5 -101t-16.5 -171h-250q0 82 6 143.5t24.5 113.5t53.5 101t92 109l72 74q27 27 52.5 64.5 t25.5 96.5q0 86 -45 135.5t-142 49.5q-104 0 -152 -73t-55 -220h-249zM438 164q0 27 9.5 56.5t28 54t49 40t73.5 15.5q61 0 111.5 -44t50.5 -122q0 -23 -8.5 -51.5t-27.5 -53t-50 -42t-76 -17.5q-27 0 -55.5 10t-51 29.5t-38 50.5t-15.5 74z" />
<glyph unicode="@" horiz-adv-x="2048" d="M211 492q0 160 58.5 305t171 255.5t273 177t367.5 66.5q168 0 307.5 -44t238.5 -124.5t153.5 -197.5t54.5 -264q0 -109 -36 -210.5t-99.5 -179t-147.5 -125t-180 -47.5q-82 0 -133 32t-74 85q-45 -55 -107.5 -86t-146.5 -31q-63 0 -118.5 25t-96.5 69t-64.5 107.5 t-23.5 140.5q0 84 32 175.5t88 167t136 125t176 49.5q66 0 124.5 -25t97.5 -78l20 70h227l-147 -479q-10 -29 -14.5 -54.5t-4.5 -44.5q0 -16 8.5 -30.5t37.5 -14.5q43 0 85 25.5t75.5 74t55 116t21.5 151.5q0 102 -39 182t-109.5 134t-167 83t-210.5 29q-166 0 -293 -48 t-212 -132t-128 -196t-43 -241q0 -102 36 -200.5t112.5 -176t197.5 -126t289 -48.5q43 0 99 5.5t125 25t149.5 59t175.5 109.5l110 -147q-49 -41 -119.5 -85t-158.5 -79t-190.5 -57.5t-213.5 -22.5q-184 0 -335.5 55.5t-260 153.5t-169 236.5t-60.5 304.5zM850 440 q0 -78 31.5 -111.5t72.5 -33.5q55 0 97.5 42t72 100.5t44 123t14.5 111.5q0 14 -5.5 33.5t-17.5 36t-32.5 27.5t-51.5 11q-47 0 -88 -32.5t-71.5 -83t-48 -111t-17.5 -113.5z" />
<glyph unicode="A" horiz-adv-x="1325" d="M41 0l491 1468h281l471 -1468h-301l-115 348h-413l-125 -348h-289zM537 592h258l-131 473z" />
<glyph unicode="B" horiz-adv-x="1300" d="M154 0v1468h530q227 0 347 -99t120 -286q0 -90 -30.5 -161.5t-104.5 -128.5q104 -53 151 -138.5t47 -208.5q0 -98 -34.5 -180t-101 -141t-163 -92t-219.5 -33h-542zM422 250h274q115 0 179.5 52t64.5 157q0 88 -62.5 136t-207.5 48h-248v-393zM422 887h221 q125 0 179.5 42t54.5 130q0 84 -52.5 124t-183.5 40h-219v-336z" />
<glyph unicode="C" horiz-adv-x="1343" d="M82 748q0 154 41 292t121 242t195.5 164.5t267.5 60.5q106 0 198 -37.5t164 -106.5t118 -164t60 -210h-270q-33 115 -100.5 188.5t-178.5 73.5q-150 0 -241.5 -138t-91.5 -394q0 -121 25.5 -213t71.5 -155.5t107.5 -95.5t135.5 -32q53 0 98 25.5t80 72t60.5 109 t41.5 137.5h275q-16 -123 -63.5 -232.5t-121.5 -191.5t-175 -130t-224 -48q-129 0 -237.5 52.5t-188.5 152.5t-124 245.5t-44 332.5z" />
<glyph unicode="D" horiz-adv-x="1353" d="M154 0v1468h491q137 0 251 -46t194.5 -136t126 -222t45.5 -306q0 -170 -41 -310.5t-120 -239.5t-193.5 -153.5t-260.5 -54.5h-493zM430 250h180q174 0 273.5 119.5t99.5 357.5q0 260 -97.5 377t-277.5 117h-178v-971z" />
<glyph unicode="E" horiz-adv-x="1175" d="M154 0v1468h919v-258h-649v-327h588v-250h-588v-379h649v-254h-919z" />
<glyph unicode="F" horiz-adv-x="1089" d="M154 0v1468h874v-258h-604v-329h534v-254h-534v-627h-270z" />
<glyph unicode="G" horiz-adv-x="1349" d="M82 719q0 162 43 306t123 250.5t195.5 169t261.5 62.5q113 0 200.5 -42t150 -113.5t103.5 -164.5t60 -196h-275q-20 121 -88 190.5t-164 69.5q-78 0 -138 -40t-102 -110.5t-64.5 -165.5t-22.5 -208q0 -248 92 -379t248 -131q72 0 138 35t113 106v222h-274v245h524v-825 h-248v53q-53 -39 -119.5 -63.5t-156.5 -24.5q-125 0 -234.5 50.5t-190.5 147.5t-128 237.5t-47 318.5z" />
<glyph unicode="H" horiz-adv-x="1341" d="M154 0v1468h278v-569h481v569h275v-1468h-275v645h-481v-645h-278z" />
<glyph unicode="I" horiz-adv-x="581" d="M154 0v1468h274v-1468h-274z" />
<glyph unicode="J" horiz-adv-x="1007" d="M72 348v152h260v-152q0 -68 30.5 -101.5t106.5 -33.5q70 0 99.5 63.5t29.5 221.5v970h266v-1011q0 -246 -101 -370t-294 -124q-80 0 -152.5 17.5t-127 61.5t-86 117.5t-31.5 188.5z" />
<glyph unicode="K" horiz-adv-x="1341" d="M154 0v1468h272v-503l479 503h359l-680 -692l757 -776h-376l-539 565v-565h-272z" />
<glyph unicode="L" horiz-adv-x="1099" d="M154 0v1468h272v-1214h602v-254h-874z" />
<glyph unicode="M" horiz-adv-x="1617" d="M154 0v1468h354l305 -936l299 936h352v-1468h-268v958l-307 -958h-160l-307 948v-948h-268z" />
<glyph unicode="N" horiz-adv-x="1417" d="M154 0v1468h288l553 -999v999h269v-1468h-279l-567 1001v-1001h-264z" />
<glyph unicode="O" horiz-adv-x="1419" d="M82 733q0 176 47 318.5t131 244t198.5 156.5t252.5 55q135 0 249.5 -55t198.5 -156.5t131 -244t47 -318.5t-45 -317.5t-127 -241.5t-197.5 -154.5t-256.5 -54.5t-258 54.5t-199 154.5t-127 241.5t-45 317.5zM356 723q0 -111 23.5 -203t69 -158.5t112 -102.5t150.5 -36 q82 0 147.5 36t110.5 102.5t68.5 158.5t23.5 203q0 117 -25.5 213t-71.5 165.5t-110.5 107.5t-142.5 38q-80 0 -145.5 -38t-111.5 -107.5t-72 -165.5t-26 -213z" />
<glyph unicode="P" horiz-adv-x="1239" d="M154 0v1468h546q100 0 182.5 -28.5t140.5 -84t91 -138t33 -191.5q0 -102 -30 -185t-87 -141.5t-141 -91.5t-193 -33h-268v-575h-274zM428 825h213q121 0 176 50.5t55 148.5q0 100 -55 148.5t-176 48.5h-213v-396z" />
<glyph unicode="Q" horiz-adv-x="1419" d="M82 733q0 174 47 318.5t130 246t197.5 157.5t250.5 56h4q135 0 249.5 -56t198.5 -157.5t131 -245t47 -319.5q0 -180 -48 -324.5t-138 -248.5l131 -111l-149 -176l-168 145q-111 -55 -254 -55q-141 0 -258 54.5t-199 154.5t-127 242.5t-45 318.5zM356 723 q0 -111 23.5 -203t69 -158.5t112 -102.5t150.5 -36h20l-80 70l152 176l151 -133q106 135 107 387q0 117 -25.5 214t-71.5 167t-111 107.5t-142 37.5q-80 0 -145.5 -37.5t-111.5 -107.5t-72 -167t-26 -214z" />
<glyph unicode="R" horiz-adv-x="1247" d="M154 0v1468h555q229 -12 335.5 -120.5t106.5 -294.5q0 -109 -39 -193t-104.5 -142.5t-151.5 -91t-180 -36.5l549 -590h-357l-442 483v-483h-272zM426 836h248q104 0 151 49t47 147q0 188 -182 189h-264v-385z" />
<glyph unicode="S" horiz-adv-x="1239" d="M82 483h264q18 -129 91 -199.5t202 -70.5q111 0 169 47t58 123q0 47 -13 80t-45 58.5t-86 47t-134 47.5q-113 37 -197 76t-139 88t-83 115t-28 156q0 94 31 177t92.5 145.5t154.5 98t216 35.5q104 0 190 -37.5t150.5 -105.5t103.5 -160t47 -200h-266q-16 111 -78.5 179 t-160.5 68t-154.5 -38.5t-56.5 -112.5q0 -47 10 -80t38.5 -58.5t78 -47t129.5 -48.5q113 -37 199.5 -75.5t147 -88t92.5 -115t32 -155.5q0 -96 -31 -181t-93.5 -148.5t-155.5 -101.5t-218 -38q-121 0 -220.5 36t-171 103.5t-114.5 163.5t-51 217z" />
<glyph unicode="T" horiz-adv-x="1093" d="M33 1214v254h1028v-254h-377v-1214h-276v1214h-375z" />
<glyph unicode="U" horiz-adv-x="1339" d="M143 606v862h279v-899q0 -166 62.5 -259t172.5 -93q125 0 193 86t68 266v899h278v-862q0 -328 -137 -485.5t-385 -157.5q-252 0 -391.5 158t-139.5 485z" />
<glyph unicode="V" horiz-adv-x="1220" d="M41 1468h299l266 -1054l275 1054h299l-441 -1468h-266z" />
<glyph unicode="W" horiz-adv-x="1910" d="M51 1468h303l215 -913l17 -80l24 84l244 909h203l252 -940l14 -55l14 57l219 938h304l-394 -1468h-270l-242 879l-239 -879h-269z" />
<glyph unicode="X" horiz-adv-x="1329" d="M41 0l453 752l-439 716h338l277 -483l274 483h328l-443 -716l459 -752h-336l-290 520l-293 -520h-328z" />
<glyph unicode="Y" horiz-adv-x="1329" d="M20 1468h320l326 -557l319 557h324l-506 -823v-645h-279v645z" />
<glyph unicode="Z" horiz-adv-x="1290" d="M72 0v221l764 993h-709v254h1055v-239l-744 -975h760v-254h-1126z" />
<glyph unicode="[" horiz-adv-x="585" d="M129 -385v1882h399v-229h-178v-1426h178v-227h-399z" />
<glyph unicode="\" horiz-adv-x="636" d="M-16 1468h219l450 -1476h-219z" />
<glyph unicode="]" horiz-adv-x="587" d="M57 -158h179v1428h-179v227h400v-1882h-400v227z" />
<glyph unicode="^" horiz-adv-x="1157" d="M123 604l352 864h199l358 -864h-244l-210 526l-211 -526h-244z" />
<glyph unicode="_" d="M-4 -156h1147v-102h-1147v102z" />
<glyph unicode="`" horiz-adv-x="901" d="M139 1407h326l215 -350h-217z" />
<glyph unicode="a" horiz-adv-x="1112" d="M72 442q0 111 29.5 203t83 158.5t130 102.5t172.5 36q39 0 79 -12t75 -30.5t60.5 -41t35.5 -45.5v105h242v-918h-240v104q-12 -25 -39.5 -50t-64.5 -44.5t-79 -32t-85 -12.5q-72 0 -142.5 29t-128 88t-93 148t-35.5 212zM334 457q0 -53 15.5 -99.5t43 -80t64.5 -54 t78 -20.5t77.5 20.5t64.5 54t43 79.5t15 100q0 51 -15 98t-43 81t-64.5 54.5t-77.5 20.5t-78 -20.5t-64.5 -54.5t-43 -81t-15.5 -98z" />
<glyph unicode="b" horiz-adv-x="1112" d="M133 0v1468h242v-649q31 63 102.5 93t147.5 30q94 0 171.5 -36t131 -102.5t83 -158.5t29.5 -203q0 -123 -35.5 -213t-93 -149.5t-129 -88t-141.5 -28.5q-43 0 -86 12.5t-80 33t-63.5 46t-38.5 49.5v-104h-240zM377 457q0 -53 15.5 -99.5t43 -80t64.5 -54t78 -20.5 t77.5 20.5t64.5 54t43 79.5t15 100q0 51 -15 98t-43 81t-64.5 54.5t-77.5 20.5t-78 -20.5t-64.5 -54.5t-43 -81t-15.5 -98z" />
<glyph unicode="c" horiz-adv-x="1091" d="M72 469q0 109 36.5 197t103.5 149.5t156 94t193 32.5q80 0 155 -28.5t136 -79t104 -121t62 -154.5h-266q-23 61 -69 111.5t-122 50.5q-57 0 -100 -22.5t-73 -58.5t-45 -82t-15 -93q0 -59 15 -110.5t44 -89.5t70 -60.5t94 -22.5q72 0 130 46t95 157h254 q-47 -217 -173 -319.5t-318 -102.5q-90 0 -174 30t-148.5 92t-104.5 157.5t-40 226.5z" />
<glyph unicode="d" horiz-adv-x="1112" d="M72 442q0 111 29.5 203t83 158.5t130 102.5t172.5 36q76 0 148 -29.5t102 -93.5v649h242v-1468h-240v104q-12 -25 -39.5 -50t-64.5 -45.5t-79 -33t-85 -12.5q-72 0 -142.5 28.5t-128 88t-93 149.5t-35.5 213zM334 457q0 -53 15.5 -99.5t43 -80t64.5 -54t78 -20.5 t77.5 20.5t64.5 54t43 79.5t15 100q0 51 -15 98t-43 81t-64.5 54.5t-77.5 20.5t-78 -20.5t-64.5 -54.5t-43 -81t-15.5 -98z" />
<glyph unicode="e" horiz-adv-x="1064" d="M72 463q0 98 29.5 185t88 152.5t144.5 103.5t201 38t201.5 -40t145 -113.5t87 -178t28.5 -235.5h-649q16 -82 62.5 -136.5t124.5 -54.5q106 0 161 95h277q-53 -154 -162 -234t-276 -80q-115 0 -202 41t-145.5 109.5t-87 159t-28.5 188.5zM358 590h353q-41 131 -176 131 t-177 -131z" />
<glyph unicode="f" horiz-adv-x="628" d="M45 758v221h129v197q0 152 64.5 222t224.5 70q23 0 46 -2t58 -6v-241q-41 4 -59.5 5t-32.5 1q-35 0 -48 -18.5t-13 -73.5v-154h155v-221h-155v-758h-240v758h-129z" />
<glyph unicode="g" horiz-adv-x="1110" d="M72 463q0 123 35.5 213t92 149.5t127 88t142.5 28.5q43 0 84 -10t78 -28.5t64.5 -42t41.5 -48.5v105h240v-852q0 -111 -12.5 -191t-36 -136t-57 -94t-76.5 -67q-49 -35 -117 -55.5t-154 -20.5q-70 0 -139.5 16.5t-126.5 59.5t-98 117t-51 188h258q10 -70 45.5 -111.5 t107.5 -41.5q61 0 102.5 19.5t67 62.5t35.5 111.5t10 166.5q-10 -23 -35.5 -45t-60.5 -40.5t-75 -30t-79 -11.5q-96 0 -172.5 36t-130 102.5t-82 158.5t-28.5 203zM332 451q0 -53 15 -99.5t42 -81t62.5 -55t76.5 -20.5t79 20.5t65.5 55t44 80.5t16.5 100q0 51 -15.5 97 t-43 81t-64.5 54t-78 19t-77.5 -19t-64.5 -54t-43 -81t-15 -97z" />
<glyph unicode="h" horiz-adv-x="1081" d="M133 0v1468h252v-645q6 20 26.5 42t49 39.5t63.5 27.5t70 10q174 0 264 -103.5t90 -324.5v-514h-256v500q0 104 -42 152t-95 48q-31 0 -61.5 -15t-54 -44t-39 -71t-15.5 -97v-473h-252z" />
<glyph unicode="i" horiz-adv-x="518" d="M119 1161q0 59 41 98t98 39t97 -38.5t40 -98.5q0 -57 -41 -98t-98 -41t-97 41t-40 98zM133 0v918h252v-918h-252z" />
<glyph unicode="j" horiz-adv-x="507" d="M18 -492l7 236h36q35 0 53.5 18.5t18.5 65.5v1090h242v-1108q0 -74 -10.5 -131.5t-40 -96.5t-80.5 -59.5t-131 -20.5q-14 0 -40 1t-55 5zM117 1161q0 59 41 98t98 39t97 -38.5t40 -98.5q0 -57 -41 -98t-98 -41t-97 41t-40 98z" />
<glyph unicode="k" horiz-adv-x="1067" d="M133 0v1468h244v-809l291 259h348l-498 -404l549 -514h-336l-354 346v-346h-244z" />
<glyph unicode="l" horiz-adv-x="563" d="M133 219v1249h225v-1226q0 -27 13.5 -36t44.5 -9h69v-224q-31 -4 -62.5 -7t-66.5 -3q-121 0 -172 60.5t-51 195.5z" />
<glyph unicode="m" horiz-adv-x="1613" d="M133 0v918h250v-76q2 12 21.5 29.5t47 33t59 26.5t60.5 11q96 0 171 -27.5t124 -93.5q47 66 115 93.5t135 27.5q84 0 151.5 -20.5t115 -65.5t73 -118.5t25.5 -178.5v-559h-262v539q0 98 -36 135t-108 37t-105.5 -37t-33.5 -135v-539h-262v539q0 98 -35 135t-109 37 q-72 0 -104.5 -37t-32.5 -135v-539h-260z" />
<glyph unicode="n" horiz-adv-x="1071" d="M133 0v918h240v-78q35 45 93 73.5t130 28.5q74 0 136.5 -20.5t108.5 -65.5t71.5 -117.5t25.5 -179.5v-559h-252v539q0 92 -38 132t-107 40q-74 0 -116 -38t-42 -128v-545h-250z" />
<glyph unicode="o" horiz-adv-x="1069" d="M72 453q0 98 28.5 186t87 155.5t145.5 107.5t202 40t200.5 -40t144 -107.5t88 -155.5t29.5 -186t-29.5 -187.5t-88 -156t-144.5 -105.5t-200 -39q-117 0 -203 39t-144.5 106.5t-87 155.5t-28.5 187zM342 453q0 -125 47 -197t146 -72q98 0 144 72t46 197q0 123 -46 195.5 t-144 72.5t-145.5 -73t-47.5 -195z" />
<glyph unicode="p" horiz-adv-x="1112" d="M133 -492v1410h240v-105q41 51 111.5 89t156.5 38q70 0 141.5 -28.5t129 -88t93 -149.5t35.5 -213q0 -111 -28.5 -202t-83 -157.5t-131 -102.5t-172.5 -36q-39 0 -79 11.5t-75 30t-60.5 41t-35.5 44.5v-582h-242zM377 449q0 -53 15.5 -99.5t43 -80t64.5 -54t78 -20.5 t77.5 20.5t64.5 54t43 79.5t15 100q0 51 -15 98t-43 81t-65 54t-77 20q-41 0 -78 -20t-64.5 -54t-43 -81t-15.5 -98z" />
<glyph unicode="q" horiz-adv-x="1112" d="M72 461q0 123 35.5 213t93 149.5t128 88t142.5 28.5q86 0 156.5 -38t111.5 -89v105h240v-1410h-242v582q-10 -23 -35.5 -45t-60.5 -40.5t-75 -30t-79 -11.5q-96 0 -172.5 36t-131 102.5t-83 157.5t-28.5 202zM334 449q0 -53 15.5 -99.5t43 -80t64.5 -54t78 -20.5 t77.5 20.5t64.5 54t43 79.5t15 100q0 51 -15 98t-43 81t-65 54t-77 20q-41 0 -78 -20t-64.5 -54t-43 -81t-15.5 -98z" />
<glyph unicode="r" horiz-adv-x="694" d="M133 0v918h225v-123q8 25 31 51t53.5 47.5t67.5 35t72 13.5q16 0 32.5 -1t49.5 -11v-236q-43 8 -60 9.5t-29 1.5q-74 0 -130 -52.5t-70 -144.5v-508h-242z" />
<glyph unicode="s" horiz-adv-x="985" d="M61 332h248q16 -72 67.5 -111t145.5 -39q57 0 90 14.5t33 53.5q0 18 -6 30.5t-26.5 23.5t-59.5 22.5t-104 29.5q-111 31 -178.5 64t-102.5 71.5t-46 85t-11 103.5q0 117 95 189.5t263 72.5q203 0 308.5 -91t107.5 -243h-246q-2 43 -47 79t-123 36q-61 0 -84 -25.5 t-23 -40.5q0 -12 5.5 -21t22 -18.5t47 -19t83.5 -23.5q113 -31 185.5 -57t115.5 -58t59.5 -71t16.5 -92q0 -88 -30.5 -150.5t-83 -102.5t-122 -59.5t-149.5 -19.5q-219 0 -323.5 90t-127.5 277z" />
<glyph unicode="t" horiz-adv-x="638" d="M47 788v226h127v454h240v-454h147v-226h-147v-512q0 -25 13 -34t46 -9q14 0 30.5 1.5t57.5 5.5v-222q-29 -4 -67.5 -11t-83.5 -7q-127 0 -181.5 60.5t-54.5 195.5v532h-127z" />
<glyph unicode="u" horiz-adv-x="1071" d="M133 348v570h254v-549q0 -94 37 -133t106 -39q76 0 118 37.5t42 125.5v558h248v-918h-240v76q-35 -47 -88 -79t-143 -32q-70 0 -131.5 19.5t-106.5 64.5t-70.5 119t-25.5 180z" />
<glyph unicode="v" horiz-adv-x="972" d="M25 918h278l184 -594l193 594h268l-344 -918h-242z" />
<glyph unicode="w" horiz-adv-x="1394" d="M33 918h268l137 -553l129 553h271l129 -549l135 549h260l-277 -918h-247l-142 535l-135 -535h-248z" />
<glyph unicode="x" horiz-adv-x="1042" d="M25 0l337 492l-286 426h315l135 -250l140 250h303l-291 -422l340 -496h-318l-184 279l-178 -279h-313z" />
<glyph unicode="y" horiz-adv-x="929" d="M10 918h271l202 -545l162 545h260l-436 -1407h-262l160 526z" />
<glyph unicode="z" horiz-adv-x="948" d="M61 0v188l424 498h-360v232h754v-168l-443 -517h441v-233h-816z" />
<glyph unicode="{" horiz-adv-x="749" d="M51 467v180q57 6 101.5 20.5t74 44t45 76t15.5 115.5v172q0 96 18.5 174t67.5 133.5t135 88t221 42.5v-192q-43 -4 -82 -18.5t-68.5 -45t-46 -80t-16.5 -124.5v-123q0 -164 -43 -250t-119 -125q76 -41 119 -126t43 -243v-157q0 -111 56.5 -167.5t156.5 -72.5v-195 q-92 8 -173 33t-140.5 72t-94 121t-34.5 184v211q0 41 -8.5 81t-34 75t-71.5 60.5t-122 35.5z" />
<glyph unicode="|" horiz-adv-x="722" d="M225 -410v1899h273v-1899h-273z" />
<glyph unicode="}" horiz-adv-x="747" d="M20 -209q27 4 64 15.5t68.5 38t54 70.5t22.5 114v157q0 53 4.5 107.5t20.5 103.5t47 90t84 70q-72 37 -114 123t-42 250v123q0 55 -8 102t-31.5 81t-64.5 56.5t-105 28.5v190q104 0 186.5 -23.5t138.5 -75.5t86 -135t30 -202v-172q0 -49 9 -91t34.5 -74.5t72 -55.5 t119.5 -35v-180q-43 -6 -86 -19.5t-75.5 -41t-53 -73.5t-20.5 -118v-211q0 -104 -32 -177t-90 -121t-139 -74.5t-180 -37.5v197z" />
<glyph unicode="~" horiz-adv-x="1157" d="M20 514l43 90q49 100 124 151.5t167 51.5q61 0 118.5 -21.5t112 -48t106.5 -48t102 -21.5q51 0 84.5 24.5t66.5 81.5l21 37l170 -82l-45 -94q-49 -98 -121 -147.5t-152 -49.5q-66 0 -126 21.5t-116.5 48.5t-107.5 48.5t-98 21.5q-53 0 -90 -26t-66 -77l-23 -41z" />
<glyph unicode="&#xa1;" horiz-adv-x="743" d="M211 815q0 23 8 51.5t27.5 53t50.5 42t76 17.5q27 0 55.5 -10.5t51 -29.5t37.5 -50t15 -74q0 -29 -9 -57.5t-27.5 -53t-49 -40t-73.5 -15.5q-61 0 -111.5 44t-50.5 122zM236 -4l47 571h180l45 -571v-485h-272v485z" />
<glyph unicode="&#xa2;" d="M109 465q0 113 34.5 200t98 146t150.5 90t192 31h20l39 143h158l-47 -174q100 -41 171.5 -135t100.5 -223h-266q-8 39 -23.5 70.5t-46.5 56.5l-133 -482h18q70 0 121.5 47.5t87.5 157.5h254q-47 -219 -165.5 -324.5t-311.5 -105.5q-16 0 -31.5 1t-31.5 3l-39 -145h-160 l49 188q-106 51 -172.5 161t-66.5 294zM367 461q0 -59 12 -111.5t39 -89.5l123 445q-90 -16 -132 -86t-42 -158z" />
<glyph unicode="&#xa3;" d="M47 180q39 27 83 63t80 79t59.5 92t23.5 104q0 10 -3 36t-22 73h-213v178h115q-37 72 -52.5 135.5t-15.5 120.5q0 78 32 153.5t93.5 134t153.5 94.5t215 36q84 0 166 -21.5t147.5 -80t106.5 -159t43 -260.5h-258q-2 129 -50.5 205t-166.5 78h-6q-86 0 -147.5 -47 t-61.5 -143q0 -18 4 -39t14 -47.5t27.5 -65.5t46.5 -94h313v-178h-248q4 -23 5 -39.5t1 -40.5q0 -66 -23.5 -131.5t-78.5 -132.5q18 6 40 8t44 2q39 0 85 -9.5t99 -25.5q47 -14 76 -22.5t49 -8.5q35 0 72 18.5t96 59.5l113 -205q-86 -66 -155.5 -95.5t-137.5 -29.5 q-63 0 -201 48q-59 20 -106 30t-84 10q-66 0 -124 -28.5t-116 -57.5z" />
<glyph unicode="&#xa4;" d="M96 215l135 135q-31 49 -48 117t-17 158t17.5 157.5t47.5 116.5l-135 135l131 129l142 -141q47 23 98 33t102 10t102.5 -10.5t98.5 -32.5l141 141l131 -129l-135 -135q31 -49 48.5 -116.5t17.5 -157.5t-17.5 -158t-48.5 -117l135 -135l-131 -129l-141 141 q-47 -23 -98 -33t-103 -10q-51 0 -102 10.5t-98 32.5l-142 -141zM391 623q0 -68 15.5 -112t40 -68.5t56.5 -34t66 -9.5q35 0 68 9.5t57.5 34t40 68.5t15.5 112t-15.5 110.5t-40 67t-57.5 34t-68 9.5t-66.5 -9.5t-56 -34t-40 -67.5t-15.5 -110z" />
<glyph unicode="&#xa5;" d="M-47 1413h311l307 -592l308 592h309l-412 -725h260v-207h-334v-127h334v-207h-334v-147h-266v147h-334v207h334v127h-334v207h260z" />
<glyph unicode="&#xa6;" horiz-adv-x="722" d="M225 371h273v-781h-273v781zM225 764v725h273v-725h-273z" />
<glyph unicode="&#xa7;" d="M82 616q0 92 44 166t128 138q-25 29 -45.5 76.5t-20.5 119.5q0 59 18.5 125t62.5 121t117 91t179 36q82 0 152.5 -22.5t123 -75t85 -136.5t37.5 -204h-248q-6 98 -39 151t-105 53q-53 0 -92 -26.5t-39 -85.5q0 -49 29 -76t98 -70l256 -155q51 -31 93 -70t73 -85t48.5 -94 t17.5 -97q0 -37 -5.5 -75t-23.5 -76t-53 -80t-92 -87q88 -98 88 -221q0 -63 -24.5 -129t-74 -118t-125 -85t-178.5 -33q-84 0 -154.5 23t-125 75t-87 137t-40.5 212h252q2 -45 10 -84t24.5 -66.5t44 -43t68.5 -15.5q57 0 103.5 21.5t46.5 93.5q0 41 -31 73.5t-119 92.5 l-235 159q-55 37 -99.5 73t-76 77t-49 88t-17.5 108zM330 651q0 -35 18.5 -69.5t65.5 -65.5l313 -209q33 23 56.5 56.5t23.5 93.5q0 20 -5 39.5t-21.5 40t-45 43t-73.5 51.5l-248 153q-37 -23 -60.5 -51.5t-23.5 -81.5z" />
<glyph unicode="&#xa8;" horiz-adv-x="901" d="M104 1196q0 59 41.5 101t98.5 42q55 0 97 -42t42 -101q0 -57 -42 -99t-97 -42q-57 0 -98.5 42t-41.5 99zM520 1196q0 59 41 101t98 42t98.5 -42t41.5 -101q0 -57 -41 -99t-99 -42q-57 0 -98 42t-41 99z" />
<glyph unicode="&#xa9;" horiz-adv-x="1593" d="M61 705q0 174 63.5 309t168 229t237 143.5t267.5 49.5q121 0 251 -43t237.5 -133.5t177 -228.5t69.5 -326q0 -174 -63.5 -310.5t-167 -231.5t-235.5 -145.5t-269 -50.5q-127 0 -258 47t-236.5 139.5t-173.5 231t-68 320.5zM244 705q0 -92 32.5 -191.5t100 -181.5 t172 -135.5t248.5 -53.5q88 0 185 33t179 102.5t134.5 175t52.5 251.5q0 88 -33 186t-100.5 181t-171 136.5t-246.5 53.5q-90 0 -187.5 -34t-179.5 -102.5t-134 -173t-52 -247.5zM395 709q0 63 17.5 141t62.5 145.5t123 113.5t199 46q55 0 117.5 -15.5t117.5 -55.5 t95 -110.5t53 -180.5h-199q-10 66 -50 117t-120 51q-92 0 -142.5 -70t-50.5 -178q0 -51 12.5 -98.5t38 -83t63.5 -57t89 -21.5q18 0 41 4t45.5 20.5t43 47t36.5 85.5h199q-14 -90 -49 -156.5t-85.5 -109.5t-111.5 -64.5t-125 -21.5q-102 0 -181 38t-132 100.5t-80 144.5 t-27 168z" />
<glyph unicode="&#xaa;" horiz-adv-x="851" d="M61 1010q0 90 22.5 157.5t62.5 112.5t93.5 67.5t114.5 22.5q66 0 115 -27.5t72 -60.5v76h209v-676h-209v78q-37 -45 -81 -68.5t-114 -23.5q-59 0 -111.5 23.5t-91.5 68.5t-60.5 107.5t-21.5 142.5zM281 1018q0 -102 39.5 -144.5t87.5 -42.5q23 0 46 10.5t41.5 32t30 55.5 t11.5 81q0 92 -38 141t-91 49q-51 0 -89 -45t-38 -137z" />
<glyph unicode="&#xab;" horiz-adv-x="1157" d="M174 420v211l365 289v-265l-170 -131l170 -131v-264zM612 420v211l371 287v-263l-172 -131l172 -131v-262z" />
<glyph unicode="&#xac;" horiz-adv-x="1157" d="M55 655v244h1030v-647h-245v403h-785z" />
<glyph unicode="&#xad;" horiz-adv-x="675" d="M82 426v199h512v-199h-512z" />
<glyph unicode="&#xae;" horiz-adv-x="1593" d="M61 705q0 160 61.5 295t164 231t234.5 150.5t276 54.5q121 0 251 -43t237.5 -133.5t177 -228.5t69.5 -326q0 -174 -63.5 -310.5t-167 -231.5t-235.5 -145.5t-269 -50.5q-121 0 -250 43t-237.5 133t-178.5 229.5t-70 332.5zM242 705q0 -100 35.5 -201t106.5 -180.5 t174.5 -130t238.5 -50.5q92 0 190 34t180 106h-217q-10 16 -14 39.5t-4 44.5l-2 57q-2 37 -8.5 66.5t-23.5 49t-50 30t-88 10.5h-66v-297h-221v843h318q82 0 148.5 -11t113.5 -41t72.5 -80t25.5 -128q0 -133 -107 -190q41 -27 68 -74t27 -121v-57q0 -47 8 -73.5t35 -55.5 q74 72 122 172t48 238q0 90 -34 188t-102.5 180t-173 135.5t-245.5 53.5q-113 0 -213.5 -43t-176 -118t-120.5 -177.5t-45 -218.5zM694 760h78q76 0 118 18.5t42 77.5q0 47 -38 70.5t-132 23.5h-68v-190z" />
<glyph unicode="&#xaf;" horiz-adv-x="901" d="M127 1116v160h647v-160h-647z" />
<glyph unicode="&#xb0;" horiz-adv-x="835" d="M113 1128q0 63 23.5 120t64.5 99t96 65.5t121 23.5q70 0 127 -27t96 -70t60.5 -97.5t21.5 -111.5q0 -55 -20.5 -109t-59.5 -98t-95 -71t-130 -27q-61 0 -117.5 23.5t-97.5 64.5t-65.5 96.5t-24.5 118.5zM287 1130q0 -18 8 -40.5t23.5 -42t40 -33t59.5 -13.5 q18 0 40.5 7.5t42 23t33 40t13.5 58.5q0 18 -7.5 41t-22.5 43.5t-39.5 34t-59.5 13.5q-53 0 -92 -38t-39 -94z" />
<glyph unicode="&#xb1;" horiz-adv-x="1157" d="M76 0v244h1005v-244h-1005zM76 709v243h379v383h245v-383h381v-243h-381v-383h-245v383h-379z" />
<glyph unicode="&#xb2;" horiz-adv-x="790" d="M72 1165q0 70 17 130.5t57 105.5t104.5 70.5t159.5 25.5q141 0 225 -67.5t84 -198.5q0 -96 -44 -160.5t-114 -114.5l-104 -73q-35 -25 -58.5 -43.5t-33.5 -40.5h350v-185h-637q2 68 12 120t32.5 96t58.5 83t91 76l109 76q47 33 79 69.5t32 88.5q0 53 -27 77.5t-74 24.5 q-115 0 -115 -160h-204z" />
<glyph unicode="&#xb3;" horiz-adv-x="790" d="M68 895h204q0 -125 113 -125q49 0 79 28.5t30 78.5q0 43 -25 76.5t-107 33.5q-10 0 -18 -1t-14 -1v137q12 -2 20 -2h19q53 0 81.5 25.5t28.5 85.5q0 94 -100 94q-47 0 -72.5 -27.5t-25.5 -85.5h-205q0 59 16.5 111.5t55 90.5t102 60.5t158.5 22.5q55 0 108 -12t96 -39 t69 -71t26 -105q0 -51 -12.5 -87t-31 -58.5t-38 -34t-33.5 -15.5q78 -35 103.5 -89t25.5 -122q0 -131 -86 -198.5t-234 -67.5q-92 0 -155.5 22.5t-103.5 62.5t-57 94t-17 118z" />
<glyph unicode="&#xb4;" horiz-adv-x="901" d="M221 1057l215 350h326l-324 -350h-217z" />
<glyph unicode="&#xb5;" horiz-adv-x="1071" d="M133 -492v1410h254v-549q0 -94 37 -133t106 -39q76 0 118 37.5t42 125.5v558h248v-918h-240v76q-31 -63 -86 -87t-96 -24q-47 0 -83 17.5t-58 42.5v-517h-242z" />
<glyph unicode="&#xb6;" horiz-adv-x="1208" d="M61 987q0 92 28 182.5t88.5 160t155.5 112.5t230 43h584v-197h-117v-1636h-221v1636h-135v-1636h-217v850q-104 8 -179 54t-123.5 113.5t-71 150.5t-22.5 167z" />
<glyph unicode="&#xb7;" horiz-adv-x="628" d="M154 526q0 27 9 56.5t27.5 54.5t49 40t73.5 15q61 0 111.5 -44t50.5 -122q0 -23 -8 -51.5t-27.5 -53t-50.5 -42t-76 -17.5q-27 0 -55.5 10.5t-51 30t-37.5 50t-15 73.5z" />
<glyph unicode="&#xb8;" horiz-adv-x="901" d="M197 -393l36 86q39 -14 82 -24.5t78 -10.5q63 0 87 29.5t24 54.5q0 33 -18.5 52.5t-73.5 19.5q-8 0 -32 -3.5t-52 -13.5l-45 37l102 166h113l-70 -106q20 6 42 9t38 3q72 0 124 -36t52 -118q0 -31 -12.5 -65.5t-42 -65.5t-81.5 -50.5t-132 -19.5q-51 0 -108.5 15.5 t-110.5 40.5z" />
<glyph unicode="&#xb9;" horiz-adv-x="561" d="M37 1171v162q59 2 97 10.5t61.5 24.5t37 42t23.5 65h188v-861h-223v557h-184z" />
<glyph unicode="&#xba;" horiz-adv-x="833" d="M61 1018q0 76 24 141.5t69 111.5t111.5 72.5t152.5 26.5q172 0 263 -94t91 -258q0 -76 -22.5 -140.5t-66.5 -110.5t-109.5 -72.5t-153.5 -26.5q-170 0 -264.5 97t-94.5 253zM281 1018q0 -188 137 -189q63 0 99 48.5t36 140.5q0 98 -38 144t-97 46q-25 0 -48.5 -8 t-44 -28.5t-32.5 -58.5t-12 -95z" />
<glyph unicode="&#xbb;" horiz-adv-x="1157" d="M174 131v262l172 131l-172 131v263l371 -289v-211zM618 129v264l170 131l-170 131v265l365 -291v-211z" />
<glyph unicode="&#xbc;" horiz-adv-x="1632" d="M37 1122v162q59 2 97 10.5t61.5 24.5t37 41.5t23.5 64.5h188v-860h-223v557h-184zM217 -39l866 1487h164l-868 -1487h-162zM897 160v178l336 522h242v-518h102v-182h-102v-160h-222v160h-356zM1087 342h166v256z" />
<glyph unicode="&#xbd;" horiz-adv-x="1693" d="M37 1124v162q59 2 97 10.5t61.5 24.5t37 42t23.5 65h188v-861h-223v557h-184zM217 -39l866 1487h164l-868 -1487h-162zM975 553q0 70 17 130.5t57 105.5t104.5 70.5t159.5 25.5q141 0 225 -67.5t84 -198.5q0 -96 -44 -160.5t-114 -114.5l-104 -73q-35 -25 -58.5 -43.5 t-33.5 -40.5h350v-185h-637q2 68 12 120t32.5 96t58.5 83t91 76l109 76q47 33 79 69.5t32 88.5q0 53 -27 77.5t-74 24.5q-115 0 -115 -160h-204z" />
<glyph unicode="&#xbe;" horiz-adv-x="1861" d="M68 846h204q0 -125 113 -125q49 0 79 28.5t30 77.5q0 43 -25 77t-107 34q-10 0 -18 -1t-14 -1v137q12 -2 20 -2h19q53 0 81.5 25.5t28.5 85.5q0 94 -100 94q-47 0 -72.5 -27.5t-25.5 -85.5h-205q0 59 16.5 111.5t55 90.5t102 60.5t158.5 22.5q55 0 108 -12.5t96 -39 t69 -70.5t26 -105q0 -51 -12.5 -87t-31 -58.5t-38 -34t-33.5 -15.5q78 -35 103.5 -89t25.5 -122q0 -131 -86 -198.5t-234 -67.5q-92 0 -155.5 22.5t-103.5 62.5t-57 94t-17 118zM446 -39l867 1487h164l-869 -1487h-162zM1126 160v178l336 522h242v-518h102v-182h-102v-160 h-221v160h-357zM1317 342h166v256z" />
<glyph unicode="&#xbf;" horiz-adv-x="1243" d="M184 -104q0 49 7.5 85.5t28 73.5t53 77t85.5 95l93 99q41 43 57 101t16 171h250q0 -84 -6 -144.5t-24.5 -112.5t-53.5 -101.5t-92 -108.5l-72 -74q-27 -27 -52 -64.5t-25 -96.5q0 -86 45 -135.5t141 -49.5q104 0 152.5 73t54.5 220h250q0 -123 -31 -221t-90.5 -168 t-144.5 -106.5t-195 -36.5q-94 0 -176 29.5t-141.5 85t-94.5 133t-35 176.5zM483 815q0 23 8.5 51.5t28 53t50 42t75.5 17.5q27 0 55.5 -10.5t51 -29.5t38 -50t15.5 -74q0 -29 -9.5 -57.5t-27.5 -53t-49 -40t-74 -15.5q-61 0 -111.5 44t-50.5 122z" />
<glyph unicode="&#xc0;" horiz-adv-x="1325" d="M41 0l491 1468h281l471 -1468h-301l-115 348h-413l-125 -348h-289zM254 1962h330l219 -356h-221zM537 592h258l-131 473z" />
<glyph unicode="&#xc1;" horiz-adv-x="1325" d="M41 0l491 1468h281l471 -1468h-301l-115 348h-413l-125 -348h-289zM522 1606l221 356h334l-332 -356h-223zM537 592h258l-131 473z" />
<glyph unicode="&#xc2;" horiz-adv-x="1325" d="M41 0l491 1468h281l471 -1468h-301l-115 348h-413l-125 -348h-289zM303 1606l250 356h221l248 -356h-252l-107 153l-106 -153h-254zM537 592h258l-131 473z" />
<glyph unicode="&#xc3;" horiz-adv-x="1325" d="M41 0l491 1468h281l471 -1468h-301l-115 348h-413l-125 -348h-289zM279 1649q10 47 25.5 92t43 81t71.5 57.5t112 21.5q23 0 55.5 -7.5t85.5 -27.5q57 -23 87 -32t46 -9q41 0 57.5 15t37.5 71h137q-6 -41 -21.5 -84t-42 -80t-67.5 -60.5t-101 -23.5q-23 0 -79 12.5 t-117 34.5q-41 16 -62.5 19.5t-38.5 3.5q-10 0 -22 -2t-26.5 -9.5t-27 -25t-18.5 -47.5h-135zM537 592h258l-131 473z" />
<glyph unicode="&#xc4;" horiz-adv-x="1325" d="M41 0l491 1468h281l471 -1468h-301l-115 348h-413l-125 -348h-289zM303 1751q0 59 42 102t97 43q57 0 99 -43t42 -102t-42 -102t-99 -43q-55 0 -97 43t-42 102zM537 592h258l-131 473zM745 1751q0 59 41 102t98 43q55 0 97.5 -43t42.5 -102t-42 -102t-98 -43 q-57 0 -98 43t-41 102z" />
<glyph unicode="&#xc5;" horiz-adv-x="1325" d="M41 0l491 1468h281l471 -1468h-301l-115 348h-413l-125 -348h-289zM440 1743q0 45 17.5 85t47 69.5t70.5 47t88 17.5t88 -17.5t71 -47t47.5 -69.5t17.5 -85t-17.5 -85t-47.5 -69.5t-70.5 -47t-88.5 -17.5q-47 0 -88 17.5t-70.5 47t-47 69.5t-17.5 85zM537 592h258 l-131 473zM551 1743q0 -49 32.5 -84t79.5 -35t80 35t33 84t-32.5 84t-80.5 35q-47 0 -79.5 -35t-32.5 -84z" />
<glyph unicode="&#xc6;" horiz-adv-x="1937" d="M20 0l594 1468h1219v-258h-647v-325h588v-250h-588v-381h649v-254h-920v395h-440l-149 -395h-306zM573 643h345v578h-119z" />
<glyph unicode="&#xc7;" horiz-adv-x="1343" d="M82 748q0 154 41 292t121 242t195.5 164.5t267.5 60.5q106 0 198 -37.5t164 -106.5t118 -164t60 -210h-270q-33 115 -100.5 188.5t-178.5 73.5q-150 0 -241.5 -138t-91.5 -394q0 -121 25.5 -213t71.5 -155.5t107.5 -95.5t135.5 -32q53 0 98 25.5t80 72t60.5 109 t41.5 137.5h275q-16 -123 -63.5 -232.5t-121.5 -191.5t-175 -130t-224 -48q-129 0 -237.5 52.5t-188.5 152.5t-124 245.5t-44 332.5zM455 -393l37 86q39 -14 82 -24.5t78 -10.5q63 0 86.5 29.5t23.5 54.5q0 33 -18.5 52.5t-73.5 19.5q-8 0 -31.5 -3.5t-52.5 -13.5l-45 37 l103 166h112l-69 -106q20 6 41.5 9t37.5 3q72 0 124.5 -36t52.5 -118q0 -31 -12.5 -65.5t-42 -65.5t-82 -50.5t-132.5 -19.5q-51 0 -108.5 15.5t-110.5 40.5z" />
<glyph unicode="&#xc8;" horiz-adv-x="1175" d="M154 0v1468h919v-258h-649v-327h588v-250h-588v-379h649v-254h-919zM199 1962h330l219 -356h-221z" />
<glyph unicode="&#xc9;" horiz-adv-x="1175" d="M154 0v1468h919v-258h-649v-327h588v-250h-588v-379h649v-254h-919zM467 1606l221 356h334l-332 -356h-223z" />
<glyph unicode="&#xca;" horiz-adv-x="1175" d="M154 0v1468h919v-258h-649v-327h588v-250h-588v-379h649v-254h-919zM248 1606l250 356h221l248 -356h-252l-107 153l-106 -153h-254z" />
<glyph unicode="&#xcb;" horiz-adv-x="1175" d="M154 0v1468h919v-258h-649v-327h588v-250h-588v-379h649v-254h-919zM248 1751q0 59 42 102t97 43q57 0 99 -43t42 -102t-42 -102t-99 -43q-55 0 -97 43t-42 102zM690 1751q0 59 41 102t98 43q55 0 97.5 -43t42.5 -102t-42 -102t-98 -43q-57 0 -98 43t-41 102z" />
<glyph unicode="&#xcc;" horiz-adv-x="581" d="M-119 1962h330l219 -356h-221zM154 0v1468h274v-1468h-274z" />
<glyph unicode="&#xcd;" horiz-adv-x="581" d="M150 1606l221 356h334l-332 -356h-223zM154 0v1468h274v-1468h-274z" />
<glyph unicode="&#xce;" horiz-adv-x="581" d="M-70 1606l250 356h221l248 -356h-252l-107 153l-106 -153h-254zM154 0v1468h274v-1468h-274z" />
<glyph unicode="&#xcf;" horiz-adv-x="581" d="M-70 1751q0 59 42.5 102t97.5 43q57 0 99 -43t42 -102t-42 -102t-99 -43q-55 0 -97.5 43t-42.5 102zM154 0v1468h274v-1468h-274zM373 1751q0 59 41 102t98 43q55 0 97 -43t42 -102t-42 -102t-97 -43q-57 0 -98 43t-41 102z" />
<glyph unicode="&#xd0;" horiz-adv-x="1384" d="M63 659v222h121v587h492q137 0 250.5 -46t194.5 -136t126 -222t45 -306q0 -170 -41 -310.5t-119.5 -239.5t-193.5 -153.5t-260 -54.5h-494v659h-121zM461 250h180q174 0 273.5 119.5t99.5 357.5q0 260 -97.5 377t-277.5 117h-178v-340h278v-222h-278v-409z" />
<glyph unicode="&#xd1;" horiz-adv-x="1417" d="M154 0v1468h288l553 -999v999h269v-1468h-279l-567 1001v-1001h-264zM324 1649q10 47 25.5 92t43 81t71.5 57.5t112 21.5q23 0 55.5 -7.5t85.5 -27.5q57 -23 87 -32t46 -9q41 0 57.5 15t37.5 71h137q-6 -41 -21.5 -84t-42 -80t-67.5 -60.5t-101 -23.5q-23 0 -79 12.5 t-117 34.5q-41 16 -62.5 19.5t-38.5 3.5q-10 0 -22 -2t-26.5 -9.5t-27 -25t-18.5 -47.5h-135z" />
<glyph unicode="&#xd2;" horiz-adv-x="1419" d="M82 733q0 176 47 318.5t131 244t198.5 156.5t252.5 55q135 0 249.5 -55t198.5 -156.5t131 -244t47 -318.5t-45 -317.5t-127 -241.5t-197.5 -154.5t-256.5 -54.5t-258 54.5t-199 154.5t-127 241.5t-45 317.5zM301 1982h330l219 -356h-221zM356 723q0 -111 23.5 -203 t69 -158.5t112 -102.5t150.5 -36q82 0 147.5 36t110.5 102.5t68.5 158.5t23.5 203q0 117 -25.5 213t-71.5 165.5t-110.5 107.5t-142.5 38q-80 0 -145.5 -38t-111.5 -107.5t-72 -165.5t-26 -213z" />
<glyph unicode="&#xd3;" horiz-adv-x="1419" d="M82 733q0 176 47 318.5t131 244t198.5 156.5t252.5 55q135 0 249.5 -55t198.5 -156.5t131 -244t47 -318.5t-45 -317.5t-127 -241.5t-197.5 -154.5t-256.5 -54.5t-258 54.5t-199 154.5t-127 241.5t-45 317.5zM356 723q0 -111 23.5 -203t69 -158.5t112 -102.5t150.5 -36 q82 0 147.5 36t110.5 102.5t68.5 158.5t23.5 203q0 117 -25.5 213t-71.5 165.5t-110.5 107.5t-142.5 38q-80 0 -145.5 -38t-111.5 -107.5t-72 -165.5t-26 -213zM570 1626l221 356h334l-332 -356h-223z" />
<glyph unicode="&#xd4;" horiz-adv-x="1419" d="M82 733q0 176 47 318.5t131 244t198.5 156.5t252.5 55q135 0 249.5 -55t198.5 -156.5t131 -244t47 -318.5t-45 -317.5t-127 -241.5t-197.5 -154.5t-256.5 -54.5t-258 54.5t-199 154.5t-127 241.5t-45 317.5zM350 1626l250 356h221l248 -356h-252l-107 153l-106 -153h-254 zM356 723q0 -111 23.5 -203t69 -158.5t112 -102.5t150.5 -36q82 0 147.5 36t110.5 102.5t68.5 158.5t23.5 203q0 117 -25.5 213t-71.5 165.5t-110.5 107.5t-142.5 38q-80 0 -145.5 -38t-111.5 -107.5t-72 -165.5t-26 -213z" />
<glyph unicode="&#xd5;" horiz-adv-x="1419" d="M82 733q0 176 47 318.5t131 244t198.5 156.5t252.5 55q135 0 249.5 -55t198.5 -156.5t131 -244t47 -318.5t-45 -317.5t-127 -241.5t-197.5 -154.5t-256.5 -54.5t-258 54.5t-199 154.5t-127 241.5t-45 317.5zM330 1669q10 47 25.5 92t43 81t71.5 57.5t112 21.5 q23 0 55.5 -7.5t85.5 -27.5q57 -23 87 -32t46 -9q41 0 57.5 15t37.5 71h137q-6 -41 -21.5 -84t-42 -80t-67.5 -60.5t-101 -23.5q-23 0 -79 12.5t-117 34.5q-41 16 -62.5 19.5t-38.5 3.5q-10 0 -22 -2t-26.5 -9.5t-27 -25t-18.5 -47.5h-135zM356 723q0 -111 23.5 -203 t69 -158.5t112 -102.5t150.5 -36q82 0 147.5 36t110.5 102.5t68.5 158.5t23.5 203q0 117 -25.5 213t-71.5 165.5t-110.5 107.5t-142.5 38q-80 0 -145.5 -38t-111.5 -107.5t-72 -165.5t-26 -213z" />
<glyph unicode="&#xd6;" horiz-adv-x="1419" d="M82 733q0 176 47 318.5t131 244t198.5 156.5t252.5 55q135 0 249.5 -55t198.5 -156.5t131 -244t47 -318.5t-45 -317.5t-127 -241.5t-197.5 -154.5t-256.5 -54.5t-258 54.5t-199 154.5t-127 241.5t-45 317.5zM350 1771q0 59 42 102t97 43q57 0 99 -43t42 -102t-42 -102 t-99 -43q-55 0 -97 43t-42 102zM356 723q0 -111 23.5 -203t69 -158.5t112 -102.5t150.5 -36q82 0 147.5 36t110.5 102.5t68.5 158.5t23.5 203q0 117 -25.5 213t-71.5 165.5t-110.5 107.5t-142.5 38q-80 0 -145.5 -38t-111.5 -107.5t-72 -165.5t-26 -213zM792 1771 q0 59 41 102t98 43q55 0 97.5 -43t42.5 -102t-42 -102t-98 -43q-57 0 -98 43t-41 102z" />
<glyph unicode="&#xd7;" horiz-adv-x="1157" d="M94 313l314 314l-314 313l170 170l314 -313l313 313l170 -170l-313 -313l313 -314l-170 -170l-313 314l-314 -314z" />
<glyph unicode="&#xd8;" horiz-adv-x="1419" d="M-29 57l209 228q-47 92 -72.5 203.5t-25.5 244.5q0 176 47 318.5t131 244t198.5 156.5t252.5 55q127 0 233.5 -47t190.5 -137l188 207l109 -117l-203 -223q53 -92 80.5 -207t27.5 -250q0 -176 -45 -317.5t-127 -241.5t-197.5 -154.5t-256.5 -54.5q-131 0 -238.5 45 t-189.5 131l-187 -207zM356 723q0 -125 27 -217l565 616q-45 59 -105 92t-132 33q-80 0 -145.5 -38t-111.5 -107.5t-72 -165.5t-26 -213zM465 342q45 -57 106.5 -88t139.5 -31q82 0 147.5 36t110.5 102.5t68.5 158.5t23.5 203q0 133 -35 242z" />
<glyph unicode="&#xd9;" horiz-adv-x="1339" d="M143 606v862h279v-899q0 -166 62.5 -259t172.5 -93q125 0 193 86t68 266v899h278v-862q0 -328 -137 -485.5t-385 -157.5q-252 0 -391.5 158t-139.5 485zM260 1962h330l219 -356h-221z" />
<glyph unicode="&#xda;" horiz-adv-x="1339" d="M143 606v862h279v-899q0 -166 62.5 -259t172.5 -93q125 0 193 86t68 266v899h278v-862q0 -328 -137 -485.5t-385 -157.5q-252 0 -391.5 158t-139.5 485zM529 1606l221 356h334l-332 -356h-223z" />
<glyph unicode="&#xdb;" horiz-adv-x="1339" d="M143 606v862h279v-899q0 -166 62.5 -259t172.5 -93q125 0 193 86t68 266v899h278v-862q0 -328 -137 -485.5t-385 -157.5q-252 0 -391.5 158t-139.5 485zM309 1606l250 356h221l248 -356h-252l-107 153l-106 -153h-254z" />
<glyph unicode="&#xdc;" horiz-adv-x="1339" d="M143 606v862h279v-899q0 -166 62.5 -259t172.5 -93q125 0 193 86t68 266v899h278v-862q0 -328 -137 -485.5t-385 -157.5q-252 0 -391.5 158t-139.5 485zM309 1751q0 59 42 102t97 43q57 0 99 -43t42 -102t-42 -102t-99 -43q-55 0 -97 43t-42 102zM751 1751q0 59 41 102 t98 43q55 0 97.5 -43t42.5 -102t-42 -102t-98 -43q-57 0 -98 43t-41 102z" />
<glyph unicode="&#xdd;" horiz-adv-x="1329" d="M20 1468h320l326 -557l319 557h324l-506 -823v-645h-279v645zM522 1606l221 356h334l-332 -356h-223z" />
<glyph unicode="&#xde;" horiz-adv-x="1239" d="M154 0v1468h274v-200h272q100 0 182.5 -29t140.5 -84t91 -138t33 -192q0 -102 -30 -185t-87 -141.5t-141 -91t-193 -32.5h-268v-375h-274zM428 625h213q121 0 176 50t55 148q0 100 -55 148.5t-176 48.5h-213v-395z" />
<glyph unicode="&#xdf;" horiz-adv-x="1064" d="M137 -492v1518q0 117 19.5 207t62.5 151.5t114 93t173 31.5q80 0 152.5 -24.5t128 -75.5t87 -130t31.5 -189q0 -111 -34.5 -182.5t-90.5 -100.5q35 -10 70 -40t62.5 -76t44 -109.5t16.5 -139.5q0 -78 -20.5 -165t-72 -162.5t-135 -124.5t-210.5 -49h-27q-14 0 -41 4v237 h29q37 0 74.5 11.5t70.5 39t53.5 76.5t20.5 125q0 45 -11.5 87t-37 74t-66.5 51.5t-102 19.5h-31v227h27q90 8 125.5 61.5t35.5 112.5q0 88 -27.5 146.5t-111.5 58.5q-68 0 -97.5 -52.5t-29.5 -199.5v-1512h-252z" />
<glyph unicode="&#xe0;" horiz-adv-x="1112" d="M72 442q0 111 29.5 203t83 158.5t130 102.5t172.5 36q39 0 79 -12t75 -30.5t60.5 -41t35.5 -45.5v105h242v-918h-240v104q-12 -25 -39.5 -50t-64.5 -44.5t-79 -32t-85 -12.5q-72 0 -142.5 29t-128 88t-93 148t-35.5 212zM127 1407h326l215 -350h-217zM334 457 q0 -53 15.5 -99.5t43 -80t64.5 -54t78 -20.5t77.5 20.5t64.5 54t43 79.5t15 100q0 51 -15 98t-43 81t-64.5 54.5t-77.5 20.5t-78 -20.5t-64.5 -54.5t-43 -81t-15.5 -98z" />
<glyph unicode="&#xe1;" horiz-adv-x="1112" d="M72 442q0 111 29.5 203t83 158.5t130 102.5t172.5 36q39 0 79 -12t75 -30.5t60.5 -41t35.5 -45.5v105h242v-918h-240v104q-12 -25 -39.5 -50t-64.5 -44.5t-79 -32t-85 -12.5q-72 0 -142.5 29t-128 88t-93 148t-35.5 212zM334 457q0 -53 15.5 -99.5t43 -80t64.5 -54 t78 -20.5t77.5 20.5t64.5 54t43 79.5t15 100q0 51 -15 98t-43 81t-64.5 54.5t-77.5 20.5t-78 -20.5t-64.5 -54.5t-43 -81t-15.5 -98zM397 1057l215 350h326l-324 -350h-217z" />
<glyph unicode="&#xe2;" horiz-adv-x="1112" d="M72 442q0 111 29.5 203t83 158.5t130 102.5t172.5 36q39 0 79 -12t75 -30.5t60.5 -41t35.5 -45.5v105h242v-918h-240v104q-12 -25 -39.5 -50t-64.5 -44.5t-79 -32t-85 -12.5q-72 0 -142.5 29t-128 88t-93 148t-35.5 212zM176 1057l246 350h219l246 -350h-250l-105 151 l-106 -151h-250zM334 457q0 -53 15.5 -99.5t43 -80t64.5 -54t78 -20.5t77.5 20.5t64.5 54t43 79.5t15 100q0 51 -15 98t-43 81t-64.5 54.5t-77.5 20.5t-78 -20.5t-64.5 -54.5t-43 -81t-15.5 -98z" />
<glyph unicode="&#xe3;" horiz-adv-x="1112" d="M72 442q0 111 29.5 203t83 158.5t130 102.5t172.5 36q39 0 79 -12t75 -30.5t60.5 -41t35.5 -45.5v105h242v-918h-240v104q-12 -25 -39.5 -50t-64.5 -44.5t-79 -32t-85 -12.5q-72 0 -142.5 29t-128 88t-93 148t-35.5 212zM166 1102q10 47 25.5 92t43 81t71.5 57.5 t111 21.5q23 0 56 -7.5t86 -27.5q57 -23 86.5 -32t46.5 -9q41 0 57.5 15.5t36.5 70.5h137q-6 -41 -21.5 -84t-42 -80t-67.5 -60.5t-100 -23.5q-23 0 -79 12.5t-118 34.5q-41 16 -62.5 19.5t-37.5 3.5q-10 0 -22.5 -2t-27 -9.5t-26.5 -24.5t-18 -48h-135zM334 457 q0 -53 15.5 -99.5t43 -80t64.5 -54t78 -20.5t77.5 20.5t64.5 54t43 79.5t15 100q0 51 -15 98t-43 81t-64.5 54.5t-77.5 20.5t-78 -20.5t-64.5 -54.5t-43 -81t-15.5 -98z" />
<glyph unicode="&#xe4;" horiz-adv-x="1112" d="M72 442q0 111 29.5 203t83 158.5t130 102.5t172.5 36q39 0 79 -12t75 -30.5t60.5 -41t35.5 -45.5v105h242v-918h-240v104q-12 -25 -39.5 -50t-64.5 -44.5t-79 -32t-85 -12.5q-72 0 -142.5 29t-128 88t-93 148t-35.5 212zM196 1196q0 59 41 101t98 42q55 0 97.5 -42 t42.5 -101q0 -57 -42 -99t-98 -42q-57 0 -98 42t-41 99zM334 457q0 -53 15.5 -99.5t43 -80t64.5 -54t78 -20.5t77.5 20.5t64.5 54t43 79.5t15 100q0 51 -15 98t-43 81t-64.5 54.5t-77.5 20.5t-78 -20.5t-64.5 -54.5t-43 -81t-15.5 -98zM612 1196q0 59 41 101t98 42t98 -42 t41 -101q0 -57 -40.5 -99t-98.5 -42q-57 0 -98 42t-41 99z" />
<glyph unicode="&#xe5;" horiz-adv-x="1112" d="M72 442q0 111 29.5 203t83 158.5t130 102.5t172.5 36q39 0 79 -12t75 -30.5t60.5 -41t35.5 -45.5v105h242v-918h-240v104q-12 -25 -39.5 -50t-64.5 -44.5t-79 -32t-85 -12.5q-72 0 -142.5 29t-128 88t-93 148t-35.5 212zM309 1274q0 45 17.5 85t47 69.5t70.5 47t88 17.5 t88 -17.5t71 -47t47.5 -69.5t17.5 -85t-17.5 -85t-47.5 -69.5t-70.5 -47t-88.5 -17.5q-47 0 -88 17.5t-70.5 47t-47 69.5t-17.5 85zM334 457q0 -53 15.5 -99.5t43 -80t64.5 -54t78 -20.5t77.5 20.5t64.5 54t43 79.5t15 100q0 51 -15 98t-43 81t-64.5 54.5t-77.5 20.5 t-78 -20.5t-64.5 -54.5t-43 -81t-15.5 -98zM420 1274q0 -49 32.5 -84t79.5 -35t80 35t33 84t-32.5 84t-80.5 35q-47 0 -79.5 -35t-32.5 -84z" />
<glyph unicode="&#xe6;" horiz-adv-x="1562" d="M66 248q0 57 16 110.5t52 95.5t93.5 68.5t141.5 32.5q102 16 144 22.5t56 8.5q6 2 12.5 2t12.5 4v47q0 14 -4 20q-8 18 -33 32t-68 14q-57 0 -86.5 -34t-33.5 -75h-271q4 61 21.5 121.5t61.5 110t120 79t197 29.5q63 0 128.5 -15.5t121.5 -56.5q53 35 119.5 53.5 t148.5 18.5q121 0 211 -38t149.5 -106.5t89 -162.5t29.5 -209v-25q0 -10 -2 -22h-668q14 -82 61.5 -135.5t129.5 -53.5q119 0 174 109h285q-53 -147 -167 -237.5t-292 -90.5q-104 0 -185 29t-141 80q-49 -47 -118.5 -78t-178.5 -31q-70 0 -129 17.5t-103 53.5t-69.5 88 t-25.5 124zM303 242q0 -43 36 -62.5t75 -19.5q27 0 58.5 8t58 27.5t45 51.5t18.5 79v53q-14 -2 -24.5 -3t-26 -4t-39 -7.5t-64.5 -10.5q-61 -10 -99 -37.5t-38 -74.5zM836 586h360q-41 129 -180 129t-180 -129z" />
<glyph unicode="&#xe7;" horiz-adv-x="1091" d="M72 469q0 109 36.5 197t103.5 149.5t156 94t193 32.5q80 0 155 -28.5t136 -79t104 -121t62 -154.5h-266q-23 61 -69 111.5t-122 50.5q-57 0 -100 -22.5t-73 -58.5t-45 -82t-15 -93q0 -59 15 -110.5t44 -89.5t70 -60.5t94 -22.5q72 0 130 46t95 157h254 q-47 -217 -173 -319.5t-318 -102.5q-90 0 -174 30t-148.5 92t-104.5 157.5t-40 226.5zM280 -393l37 86q39 -14 82 -24.5t78 -10.5q63 0 86.5 29.5t23.5 54.5q0 33 -18.5 52.5t-73.5 19.5q-8 0 -31.5 -3.5t-52.5 -13.5l-45 37l103 166h112l-69 -106q20 6 41.5 9t37.5 3 q72 0 124.5 -36t52.5 -118q0 -31 -12.5 -65.5t-42 -65.5t-82 -50.5t-132.5 -19.5q-51 0 -108.5 15.5t-110.5 40.5z" />
<glyph unicode="&#xe8;" horiz-adv-x="1064" d="M72 463q0 98 29.5 185t88 152.5t144.5 103.5t201 38t201.5 -40t145 -113.5t87 -178t28.5 -235.5h-649q16 -82 62.5 -136.5t124.5 -54.5q106 0 161 95h277q-53 -154 -162 -234t-276 -80q-115 0 -202 41t-145.5 109.5t-87 159t-28.5 188.5zM135 1407h326l215 -350h-217z M358 590h353q-41 131 -176 131t-177 -131z" />
<glyph unicode="&#xe9;" horiz-adv-x="1064" d="M72 463q0 98 29.5 185t88 152.5t144.5 103.5t201 38t201.5 -40t145 -113.5t87 -178t28.5 -235.5h-649q16 -82 62.5 -136.5t124.5 -54.5q106 0 161 95h277q-53 -154 -162 -234t-276 -80q-115 0 -202 41t-145.5 109.5t-87 159t-28.5 188.5zM358 590h353q-41 131 -176 131 t-177 -131zM405 1057l215 350h326l-324 -350h-217z" />
<glyph unicode="&#xea;" horiz-adv-x="1064" d="M72 463q0 98 29.5 185t88 152.5t144.5 103.5t201 38t201.5 -40t145 -113.5t87 -178t28.5 -235.5h-649q16 -82 62.5 -136.5t124.5 -54.5q106 0 161 95h277q-53 -154 -162 -234t-276 -80q-115 0 -202 41t-145.5 109.5t-87 159t-28.5 188.5zM184 1057l246 350h219l246 -350 h-250l-105 151l-106 -151h-250zM358 590h353q-41 131 -176 131t-177 -131z" />
<glyph unicode="&#xeb;" horiz-adv-x="1064" d="M72 463q0 98 29.5 185t88 152.5t144.5 103.5t201 38t201.5 -40t145 -113.5t87 -178t28.5 -235.5h-649q16 -82 62.5 -136.5t124.5 -54.5q106 0 161 95h277q-53 -154 -162 -234t-276 -80q-115 0 -202 41t-145.5 109.5t-87 159t-28.5 188.5zM194 1196q0 59 41 101t98 42 q55 0 97.5 -42t42.5 -101q0 -57 -42 -99t-98 -42q-57 0 -98 42t-41 99zM358 590h353q-41 131 -176 131t-177 -131zM610 1196q0 59 41 101t98 42t98 -42t41 -101q0 -57 -40.5 -99t-98.5 -42q-57 0 -98 42t-41 99z" />
<glyph unicode="&#xec;" horiz-adv-x="559" d="M-127 1407h326l215 -350h-217zM153 0v918h252v-918h-252z" />
<glyph unicode="&#xed;" horiz-adv-x="559" d="M143 1057l215 350h326l-324 -350h-217zM153 0v918h252v-918h-252z" />
<glyph unicode="&#xee;" horiz-adv-x="559" d="M-78 1057l246 350h219l246 -350h-250l-105 151l-106 -151h-250zM153 0v918h252v-918h-252z" />
<glyph unicode="&#xef;" horiz-adv-x="559" d="M-31 1196q0 59 41.5 101t98.5 42q55 0 97 -42t42 -101q0 -57 -42 -99t-97 -42q-57 0 -98.5 42t-41.5 99zM154 0v918h252v-918h-252zM324 1196q0 59 41 101t98 42t98 -42t41 -101q0 -57 -41 -99t-98 -42t-98 42t-41 99z" />
<glyph unicode="&#xf0;" horiz-adv-x="1085" d="M72 442q0 109 30.5 199t86 153.5t133 98.5t170.5 35q61 0 107 -18.5t79 -51.5q-16 49 -46 107.5t-63 99.5l-286 -66l-39 172l186 43q-41 39 -87 72t-99 68l129 135q84 -41 160.5 -96.5t144.5 -122.5l256 59l39 -172l-166 -39q92 -129 144.5 -282.5t52.5 -327.5 q0 -143 -37 -246.5t-100.5 -169t-149.5 -97.5t-185 -32q-94 0 -178 28.5t-146.5 88t-99 149.5t-36.5 213zM334 446q0 -51 14 -98t41 -84t62.5 -59.5t78.5 -22.5t79 22.5t62.5 60.5t41 88t14.5 104q0 55 -15.5 101t-42 80t-62.5 52.5t-77 18.5t-76.5 -19.5t-62 -54.5t-42 -83 t-15.5 -106z" />
<glyph unicode="&#xf1;" horiz-adv-x="1071" d="M133 0v918h240v-78q35 45 93 73.5t130 28.5q74 0 136.5 -20.5t108.5 -65.5t71.5 -117.5t25.5 -179.5v-559h-252v539q0 92 -38 132t-107 40q-74 0 -116 -38t-42 -128v-545h-250zM158 1102q10 47 25.5 92t43 81t71.5 57.5t111 21.5q23 0 56 -7.5t86 -27.5q57 -23 86.5 -32 t46.5 -9q41 0 57.5 15.5t36.5 70.5h137q-6 -41 -21.5 -84t-42 -80t-67.5 -60.5t-100 -23.5q-23 0 -79 12.5t-118 34.5q-41 16 -62.5 19.5t-37.5 3.5q-10 0 -22.5 -2t-27 -9.5t-26.5 -24.5t-18 -48h-135z" />
<glyph unicode="&#xf2;" horiz-adv-x="1069" d="M72 453q0 98 28.5 186t87 155.5t145.5 107.5t202 40t200.5 -40t144 -107.5t88 -155.5t29.5 -186t-29.5 -187.5t-88 -156t-144.5 -105.5t-200 -39q-117 0 -203 39t-144.5 106.5t-87 155.5t-28.5 187zM129 1407h326l215 -350h-217zM342 453q0 -125 47 -197t146 -72 q98 0 144 72t46 197q0 123 -46 195.5t-144 72.5t-145.5 -73t-47.5 -195z" />
<glyph unicode="&#xf3;" horiz-adv-x="1069" d="M72 453q0 98 28.5 186t87 155.5t145.5 107.5t202 40t200.5 -40t144 -107.5t88 -155.5t29.5 -186t-29.5 -187.5t-88 -156t-144.5 -105.5t-200 -39q-117 0 -203 39t-144.5 106.5t-87 155.5t-28.5 187zM342 453q0 -125 47 -197t146 -72q98 0 144 72t46 197q0 123 -46 195.5 t-144 72.5t-145.5 -73t-47.5 -195zM399 1057l215 350h326l-324 -350h-217z" />
<glyph unicode="&#xf4;" horiz-adv-x="1069" d="M72 453q0 98 28.5 186t87 155.5t145.5 107.5t202 40t200.5 -40t144 -107.5t88 -155.5t29.5 -186t-29.5 -187.5t-88 -156t-144.5 -105.5t-200 -39q-117 0 -203 39t-144.5 106.5t-87 155.5t-28.5 187zM178 1057l246 350h219l246 -350h-250l-105 151l-106 -151h-250z M342 453q0 -125 47 -197t146 -72q98 0 144 72t46 197q0 123 -46 195.5t-144 72.5t-145.5 -73t-47.5 -195z" />
<glyph unicode="&#xf5;" horiz-adv-x="1069" d="M72 453q0 98 28.5 186t87 155.5t145.5 107.5t202 40t200.5 -40t144 -107.5t88 -155.5t29.5 -186t-29.5 -187.5t-88 -156t-144.5 -105.5t-200 -39q-117 0 -203 39t-144.5 106.5t-87 155.5t-28.5 187zM168 1102q10 47 25.5 92t43 81t71.5 57.5t111 21.5q23 0 56 -7.5 t86 -27.5q57 -23 86.5 -32t46.5 -9q41 0 57.5 15.5t36.5 70.5h137q-6 -41 -21.5 -84t-42 -80t-67.5 -60.5t-100 -23.5q-23 0 -79 12.5t-118 34.5q-41 16 -62.5 19.5t-37.5 3.5q-10 0 -22.5 -2t-27 -9.5t-26.5 -24.5t-18 -48h-135zM342 453q0 -125 47 -197t146 -72 q98 0 144 72t46 197q0 123 -46 195.5t-144 72.5t-145.5 -73t-47.5 -195z" />
<glyph unicode="&#xf6;" horiz-adv-x="1069" d="M72 453q0 98 28.5 186t87 155.5t145.5 107.5t202 40t200.5 -40t144 -107.5t88 -155.5t29.5 -186t-29.5 -187.5t-88 -156t-144.5 -105.5t-200 -39q-117 0 -203 39t-144.5 106.5t-87 155.5t-28.5 187zM188 1196q0 59 41 101t98 42q55 0 97.5 -42t42.5 -101q0 -57 -42 -99 t-98 -42q-57 0 -98 42t-41 99zM342 453q0 -125 47 -197t146 -72q98 0 144 72t46 197q0 123 -46 195.5t-144 72.5t-145.5 -73t-47.5 -195zM604 1196q0 59 41 101t98 42t98 -42t41 -101q0 -57 -40.5 -99t-98.5 -42q-57 0 -98 42t-41 99z" />
<glyph unicode="&#xf7;" horiz-adv-x="1157" d="M55 506v244h1047v-244h-1047zM414 246q0 27 9 56.5t27.5 54t49 40t73.5 15.5q61 0 111.5 -44t50.5 -122q0 -23 -8 -51.5t-27.5 -53t-50.5 -42t-76 -17.5q-27 0 -55.5 10t-51 29.5t-37.5 50.5t-15 74zM418 1008q0 27 9 56.5t27.5 54t49.5 40t74 15.5q61 0 111 -44t50 -122 q0 -23 -8 -51.5t-27.5 -53t-50 -42t-75.5 -17.5q-27 0 -55.5 10t-51 29.5t-38 50.5t-15.5 74z" />
<glyph unicode="&#xf8;" horiz-adv-x="1069" d="M72 453q0 98 28.5 186t87 155.5t145.5 107.5t202 40q66 0 122 -14.5t103 -38.5l82 129l61 -39l-82 -129q88 -70 132 -174.5t44 -222.5q0 -98 -29.5 -187.5t-88 -156t-144.5 -105.5t-200 -39q-70 0 -128.5 14.5t-107.5 38.5l-59 -94l-62 39l62 96q-86 68 -127 171.5 t-41 222.5zM342 453q0 -111 33 -177l260 414q-41 31 -100 31q-98 0 -145.5 -73t-47.5 -195zM424 217q45 -33 111 -33q98 0 144 72t46 197q0 113 -39 182z" />
<glyph unicode="&#xf9;" horiz-adv-x="1071" d="M129 1407h326l215 -350h-217zM133 348v570h254v-549q0 -94 37 -133t106 -39q76 0 118 37.5t42 125.5v558h248v-918h-240v76q-35 -47 -88 -79t-143 -32q-70 0 -131.5 19.5t-106.5 64.5t-70.5 119t-25.5 180z" />
<glyph unicode="&#xfa;" horiz-adv-x="1071" d="M133 348v570h254v-549q0 -94 37 -133t106 -39q76 0 118 37.5t42 125.5v558h248v-918h-240v76q-35 -47 -88 -79t-143 -32q-70 0 -131.5 19.5t-106.5 64.5t-70.5 119t-25.5 180zM399 1057l215 350h326l-324 -350h-217z" />
<glyph unicode="&#xfb;" horiz-adv-x="1071" d="M133 348v570h254v-549q0 -94 37 -133t106 -39q76 0 118 37.5t42 125.5v558h248v-918h-240v76q-35 -47 -88 -79t-143 -32q-70 0 -131.5 19.5t-106.5 64.5t-70.5 119t-25.5 180zM178 1057l246 350h219l246 -350h-250l-105 151l-106 -151h-250z" />
<glyph unicode="&#xfc;" horiz-adv-x="1071" d="M133 348v570h254v-549q0 -94 37 -133t106 -39q76 0 118 37.5t42 125.5v558h248v-918h-240v76q-35 -47 -88 -79t-143 -32q-70 0 -131.5 19.5t-106.5 64.5t-70.5 119t-25.5 180zM188 1196q0 59 41 101t98 42q55 0 97.5 -42t42.5 -101q0 -57 -42 -99t-98 -42q-57 0 -98 42 t-41 99zM604 1196q0 59 41 101t98 42t98 -42t41 -101q0 -57 -40.5 -99t-98.5 -42q-57 0 -98 42t-41 99z" />
<glyph unicode="&#xfd;" horiz-adv-x="929" d="M10 918h271l202 -545l162 545h260l-436 -1407h-262l160 526zM321 1057l215 350h326l-324 -350h-217z" />
<glyph unicode="&#xfe;" horiz-adv-x="1112" d="M133 -489v1957h242v-649q31 63 102.5 93t147.5 30q94 0 171.5 -36t131 -102.5t83 -158.5t29.5 -203q0 -123 -35.5 -213t-93 -149.5t-129 -88t-141.5 -28.5q-98 0 -162.5 40t-103.5 101v-593h-242zM377 457q0 -53 15.5 -99.5t43 -80t64.5 -54t78 -20.5t77.5 20.5t64.5 54 t43 79.5t15 100q0 51 -15 98t-43 81t-64.5 54.5t-77.5 20.5t-78 -20.5t-64.5 -54.5t-43 -81t-15.5 -98z" />
<glyph unicode="&#xff;" horiz-adv-x="929" d="M10 918h271l202 -545l162 545h260l-436 -1407h-262l160 526zM110 1196q0 59 41 101t98 42q55 0 97.5 -42t42.5 -101q0 -57 -42 -99t-98 -42q-57 0 -98 42t-41 99zM526 1196q0 59 41 101t98 42t98 -42t41 -101q0 -57 -40.5 -99t-98.5 -42q-57 0 -98 42t-41 99z" />
<glyph unicode="&#x152;" horiz-adv-x="2076" d="M82 731q0 176 48 319.5t133 245t203 156.5t257 55q80 0 154.5 -20.5t142.5 -59.5v43h954v-256h-676v-327h613v-250h-613v-383h676v-254h-954v35q-131 -72 -297 -72q-145 0 -263 54.5t-202 154.5t-130 241.5t-46 317.5zM362 721q0 -111 25 -203t71 -158.5t113.5 -102.5 t153.5 -36q100 0 174 49t121 142v626q-47 98 -123 153.5t-174 55.5q-80 0 -146.5 -39t-114.5 -107.5t-74 -165.5t-26 -214z" />
<glyph unicode="&#x153;" horiz-adv-x="1767" d="M72 453q0 98 30.5 186t90 154.5t149.5 105.5t209 39q104 0 188 -33t146 -86q59 53 143 86t201 33q113 0 200 -37t147 -104.5t92 -161.5t32 -209v-25q0 -12 -2 -26h-672q14 -80 60.5 -135.5t130.5 -55.5q121 0 172 103h288q-53 -143 -168.5 -232.5t-291.5 -89.5 q-106 0 -189.5 31t-142.5 84q-59 -53 -143.5 -84t-190.5 -31q-121 0 -210 39t-149.5 106.5t-90 155.5t-29.5 187zM352 453q0 -125 48.5 -197t150.5 -72t150.5 72t48.5 197q0 123 -49.5 193.5t-149.5 70.5q-102 0 -150.5 -71t-48.5 -193zM1034 588h365q-41 129 -182 129 t-183 -129z" />
<glyph unicode="&#x178;" horiz-adv-x="1329" d="M20 1468h320l326 -557l319 557h324l-506 -823v-645h-279v645zM303 1751q0 59 42 102t97 43q57 0 99 -43t42 -102t-42 -102t-99 -43q-55 0 -97 43t-42 102zM745 1751q0 59 41 102t98 43q55 0 97.5 -43t42.5 -102t-42 -102t-98 -43q-57 0 -98 43t-41 102z" />
<glyph unicode="&#x2c6;" horiz-adv-x="901" d="M94 1057l246 350h219l246 -350h-250l-105 151l-106 -151h-250z" />
<glyph unicode="&#x2dc;" horiz-adv-x="901" d="M57 1102q10 47 25.5 92t43.5 81t72 57.5t111 21.5q23 0 55.5 -7.5t86.5 -27.5q57 -23 86.5 -32t46.5 -9q41 0 57 15.5t37 70.5h137q-6 -41 -21.5 -84t-42 -80t-67.5 -60.5t-100 -23.5q-23 0 -79 12.5t-118 34.5q-41 16 -62.5 19.5t-37.5 3.5q-10 0 -22.5 -2t-27 -9.5 t-26.5 -24.5t-18 -48h-136z" />
<glyph unicode="&#x2000;" horiz-adv-x="991" />
<glyph unicode="&#x2001;" horiz-adv-x="1982" />
<glyph unicode="&#x2002;" horiz-adv-x="991" />
<glyph unicode="&#x2003;" horiz-adv-x="1982" />
<glyph unicode="&#x2004;" horiz-adv-x="660" />
<glyph unicode="&#x2005;" horiz-adv-x="495" />
<glyph unicode="&#x2006;" horiz-adv-x="330" />
<glyph unicode="&#x2007;" horiz-adv-x="330" />
<glyph unicode="&#x2008;" horiz-adv-x="247" />
<glyph unicode="&#x2009;" horiz-adv-x="396" />
<glyph unicode="&#x200a;" horiz-adv-x="110" />
<glyph unicode="&#x2010;" horiz-adv-x="675" d="M82 426v199h512v-199h-512z" />
<glyph unicode="&#x2011;" horiz-adv-x="675" d="M82 426v199h512v-199h-512z" />
<glyph unicode="&#x2012;" horiz-adv-x="675" d="M82 426v199h512v-199h-512z" />
<glyph unicode="&#x2013;" d="M-4 444v158h1147v-158h-1147z" />
<glyph unicode="&#x2014;" horiz-adv-x="2048" d="M-4 444v158h2056v-158h-2056z" />
<glyph unicode="&#x2018;" horiz-adv-x="544" d="M123 1049v94q0 135 64.5 222t211.5 108v-156q-86 -16 -102 -121q47 -2 91 -41t44 -108q0 -18 -6 -45t-23.5 -50.5t-47 -41t-76.5 -17.5q-37 0 -67 14.5t-49.5 37t-29.5 50t-10 54.5z" />
<glyph unicode="&#x2019;" horiz-adv-x="544" d="M113 1317q0 18 6 45t23.5 50.5t47 40.5t76.5 17q37 0 66.5 -14t49 -36.5t30 -50.5t10.5 -54v-94q0 -135 -64.5 -222.5t-212.5 -107.5v156q86 16 103 120q-47 2 -91 41t-44 109z" />
<glyph unicode="&#x201a;" horiz-adv-x="544" d="M113 117q0 18 6 44.5t23.5 50.5t47 41t76.5 17q37 0 66.5 -14t49 -36.5t30 -50.5t10.5 -54v-95q0 -135 -64.5 -222t-212.5 -107v155q86 16 103 121q-47 2 -91 41t-44 109z" />
<glyph unicode="&#x201c;" horiz-adv-x="1003" d="M123 1049v94q0 135 64.5 222t211.5 108v-156q-86 -16 -102 -121q47 -2 91 -41t44 -108q0 -18 -6 -45t-23.5 -50.5t-47 -41t-76.5 -17.5q-37 0 -67 14.5t-49.5 37t-29.5 50t-10 54.5zM582 1049v94q0 135 64.5 222t209.5 108v-156q-88 -16 -100 -121q47 -2 91 -41t44 -108 q0 -18 -6 -45t-23.5 -50.5t-47.5 -41t-77 -17.5q-37 0 -66.5 14.5t-49 37t-29.5 50t-10 54.5z" />
<glyph unicode="&#x201d;" horiz-adv-x="1003" d="M113 1317q0 18 6 45t23.5 50.5t47 40.5t76.5 17q37 0 66.5 -14t49 -36.5t30 -50.5t10.5 -54v-94q0 -135 -64.5 -222.5t-210.5 -107.5v156q88 16 101 120q-47 2 -91 41t-44 109zM571 1317q0 18 6.5 45t23.5 50.5t47 40.5t77 17q37 0 66.5 -14t49 -36.5t30 -50.5t10.5 -54 v-94q0 -135 -64.5 -222.5t-212.5 -107.5v156q86 16 103 120q-47 2 -91.5 41t-44.5 109z" />
<glyph unicode="&#x201e;" horiz-adv-x="1003" d="M113 152q0 18 6 44.5t23.5 50t47 41t76.5 17.5q37 0 66.5 -14.5t49 -37t30 -50t10.5 -53.5v-95q0 -135 -64.5 -222t-210.5 -107v155q88 16 101 121q-47 2 -91 41t-44 109zM571 152q0 18 6.5 44.5t23.5 50t47 41t77 17.5q37 0 66.5 -14.5t49 -37t30 -50t10.5 -53.5v-95 q0 -135 -64.5 -222t-212.5 -107v155q86 16 103 121q-47 2 -91.5 41t-44.5 109z" />
<glyph unicode="&#x2022;" horiz-adv-x="999" d="M246 524q0 51 20.5 98.5t54 81t79.5 54t100 20.5q51 0 98 -20.5t81 -54t54.5 -81t20.5 -98.5q0 -53 -20.5 -99t-54.5 -80t-81 -54.5t-98 -20.5q-53 0 -99.5 20.5t-80 54.5t-54 80t-20.5 99z" />
<glyph unicode="&#x2026;" horiz-adv-x="2048" d="M180 164q0 27 9.5 56.5t28 54t49 40t73.5 15.5q61 0 111.5 -44t50.5 -122q0 -23 -8.5 -51.5t-28 -53t-50 -42t-75.5 -17.5q-27 0 -55.5 10t-51 29.5t-38 50.5t-15.5 74zM864 164q0 27 9.5 56.5t28 54t49 40t73.5 15.5q61 0 111.5 -44t50.5 -122q0 -23 -8.5 -51.5t-28 -53 t-50 -42t-75.5 -17.5q-27 0 -55.5 10t-51 29.5t-38 50.5t-15.5 74zM1546 166q0 27 9.5 56.5t28 54t49 40t73.5 15.5q61 0 111.5 -44t50.5 -122q0 -23 -8.5 -51.5t-28 -53t-50 -42t-75.5 -17.5q-27 0 -55.5 10.5t-51 29.5t-38 50t-15.5 74z" />
<glyph unicode="&#x202f;" horiz-adv-x="396" />
<glyph unicode="&#x2039;" horiz-adv-x="673" d="M174 420v211l326 287v-263l-154 -131l154 -131v-262z" />
<glyph unicode="&#x203a;" horiz-adv-x="673" d="M174 131v262l150 131l-150 131v263l326 -287v-211z" />
<glyph unicode="&#x205f;" horiz-adv-x="495" />
<glyph unicode="&#x20ac;" d="M-4 518v121h119q-2 16 -2 37v78q0 16 2 39h-119v120h127q31 287 162 416t329 129q205 0 311.5 -108.5t121.5 -339.5h-291q-6 102 -40 156.5t-118 54.5q-37 0 -64.5 -14.5t-49 -49.5t-36 -94t-22.5 -150h399v-120h-403q-2 -18 -2 -37v-80q0 -20 2 -37h403v-121h-399 q6 -90 21.5 -150.5t38 -97.5t52 -52t62.5 -15q68 0 111 56t53 161h291q-4 -100 -33 -184t-85 -144.5t-141 -94.5t-202 -34q-96 0 -176 26.5t-141.5 90t-101.5 170t-54 268.5h-125z" />
<glyph unicode="&#x2122;" horiz-adv-x="2035" d="M154 1319v188h667v-188h-221v-539h-225v539h-221zM883 780v727h276l141 -379l142 379h276v-727h-211v336l-121 -336h-172l-120 336v-336h-211z" />
</font>
</defs>
</svg>
