<?xml version="1.0" standalone="no"?>
<!DOCTYPE svg PUBLIC "-//W3C//DTD SVG 1.1//EN" "http://www.w3.org/Graphics/SVG/1.1/DTD/svg11.dtd" >
<svg>
<metadata>
Created by FontForge 20110222 at Fri Sep 19 06:51:49 2014
 By Orthosie Webhosting
Copyright (c) 1996-2010 www.will-software.com
</metadata>
<defs>
<font id="VAPe2Normal" horiz-adv-x="167" >
  <font-face 
    font-family="VAPe2Normal"
    font-weight="400"
    font-stretch="normal"
    units-per-em="1000"
    panose-1="0 0 0 0 0 0 0 0 0 0"
    ascent="800"
    descent="-200"
    x-height="365"
    cap-height="702"
    bbox="-447 -389 1369 879"
    underline-thickness="30"
    underline-position="15"
    unicode-range="U+0020-2122"
  />
<missing-glyph horiz-adv-x="500" 
d="M31 0v800h438v-800h-438zM438 31v738h-376v-738h376z" />
    <glyph glyph-name=".notdef" horiz-adv-x="500" 
d="M31 0v800h438v-800h-438zM438 31v738h-376v-738h376z" />
    <glyph glyph-name=".null" horiz-adv-x="0" 
 />
    <glyph glyph-name="nonmarkingreturn" horiz-adv-x="400" 
 />
    <glyph glyph-name="space" unicode=" " horiz-adv-x="400" 
 />
    <glyph glyph-name="exclam" unicode="!" horiz-adv-x="324" 
d="M334 353h-70l-38 -184q-4 -20 -21 -20q-9 0 -15 7.5t-4 19.5l36 177h-232v12h234l55 269q5 21 22 21q10 0 16.5 -8t3.5 -21l-55 -261h68v-12zM334 -1h-137q-11 -10 -25 -7q-9 2 -16 7h-166v12h157q-3 9 -2 17q3 26 34 26q14 0 22 -11t6 -25l-2 -7h129v-12z" />
    <glyph glyph-name="quotedbl" unicode="&#x22;" 
d="M240 643l-26 -127q-6 -20 -22 -20q-9 0 -15 7.5t-4 19.5l25 127q4 22 23 22q10 0 16 -8t3 -21zM162 643l-26 -127q-6 -20 -22 -20q-9 0 -15 7.5t-4 19.5l25 127q4 22 23 22q10 0 16 -8t3 -21zM177 353h-187v12h187v-12zM177 -1h-187v12h187v-12z" />
    <glyph glyph-name="numbersign" unicode="#" horiz-adv-x="40" 
d="M40 353h-50v12h50v-12zM40 -1h-50v12h50v-12z" />
    <glyph glyph-name="percent" unicode="%" horiz-adv-x="622" 
d="M632 -1h-109q-30 -14 -59 -14q-24 0 -49 11l-6 3h-276q-3 -2 -11 -2q-7 0 -10 2h-122v12h113q-2 11 5 20l251 322h-86q-27 -12 -60 -12q-29 0 -47 12h-176v12h157q-54 41 -54 116q0 39 19.5 81t59 69t82.5 27q25 0 50 -11q35 -17 55 -52t20 -77q0 -19 -4 -38t-13 -38
q-25 -51 -67 -77h74l191 245q10 13 24 13q19 0 19 -17q0 -7 -6 -15l-175 -226h210v-12h-219l-266 -342h243q-50 41 -50 113q0 39 19.5 81.5t59 69.5t82.5 27q25 0 50 -11q35 -17 55 -52t20 -77q0 -19 -4 -38t-14 -40t-26.5 -40.5t-36.5 -32.5h87v-12zM326 458q13 29 13 61
q0 69 -51 92q-18 8 -35 8q-31 0 -60.5 -21t-46.5 -57q-13 -29 -13 -61q0 -68 51 -93q15 -7 34 -7q31 0 61 21t47 57zM573 103q13 29 13 61q0 31 -13 55.5t-34.5 34t-38.5 9.5q-31 0 -60.5 -21t-46.5 -57q-13 -29 -13 -61q0 -69 51 -92q18 -8 35 -8q31 0 60.5 21.5t46.5 57.5
z" />
    <glyph glyph-name="quotesingle" unicode="'" horiz-adv-x="90" 
d="M162 643l-26 -127q-6 -20 -22 -20q-9 0 -15 7.5t-4 19.5l25 127q4 22 23 22q10 0 16 -8t3 -21zM90 353h-100v12h100v-12zM90 -1h-100v12h100v-12z" />
    <glyph glyph-name="parenleft" unicode="(" horiz-adv-x="331" 
d="M341 -1h-194q1 -10 -7 -19t-18 -9q-9 0 -15 9l-10 19h-107v12h101q-44 94 -44 195q0 39 6 73.5t18 73.5h-81v12h85q32 92 94 165.5t147 119.5q7 4 12 4q18 0 18 -22q0 -13 -11 -19q-72 -39 -128 -103t-86 -145h220v-12h-225q-25 -72 -25 -145q0 -53 11.5 -99.5
t38.5 -97.5h200v-12z" />
    <glyph glyph-name="parenright" unicode=")" horiz-adv-x="331" 
d="M341 -1h-298l-39 -24q-7 -4 -13 -4q-18 0 -18 22q0 13 11 19q93 49 158.5 140.5t81.5 200.5h-234v12h235q2 14 3 26t1 28q0 51 -13.5 102t-40.5 101q-7 11 1.5 21.5t22.5 10.5q10 0 15 -8q30 -53 44 -110.5t14 -114.5q0 -27 -3 -56h72v-12h-74q-15 -102 -69.5 -191
t-137.5 -151h281v-12z" />
    <glyph glyph-name="asterisk" unicode="*" horiz-adv-x="169" 
d="M179 353h-189v12h189v-12zM166 288q-2 -12 -12 -20t-23 -6t-21.5 12.5t-6.5 23.5q5 26 34 26q14 0 22.5 -11t6.5 -25zM179 -1h-189v12h189v-12z" />
    <glyph glyph-name="plus" unicode="+" horiz-adv-x="442" 
d="M452 353h-190v-90h173q10 0 17.5 -4.5t7.5 -16.5q0 -21 -25 -21h-173v-166q0 -24 -21 -24t-21 24v166h-171q-24 0 -24 21t24 21h171v90h-230v12h230v60q0 25 21 25t21 -25v-60h190v-12zM452 -1h-462v12h462v-12z" />
    <glyph glyph-name="comma" unicode="," 
d="M177 353h-187v12h187v-12zM177 -1h-38l-64 -95q-9 -12 -20 -12q-19 0 -19 19q0 7 5 15l48 73h-99v12h107l27 41q8 12 20 12q20 0 20 -20q0 -9 -5 -15l-12 -18h30v-12z" />
    <glyph glyph-name="hyphen" unicode="-" horiz-adv-x="328" 
d="M338 353h-348v12h348v-12zM284 219h-176q-24 0 -24 21t24 21h176q10 0 17.5 -4.5t7.5 -16.5q0 -21 -25 -21zM338 -1h-348v12h348v-12z" />
    <glyph glyph-name="period" unicode="." horiz-adv-x="169" 
d="M179 353h-189v12h189v-12zM179 -1h-37q-11 -10 -25 -7q-10 2 -15 7h-112v12h102q-3 9 -2 17q3 26 34 26q14 0 22 -11t6 -25l-2 -7h29v-12z" />
    <glyph glyph-name="slash" unicode="/" horiz-adv-x="408" 
d="M419 589l-129 -224h128v-12h-135l-197 -342h332v-12h-343q-6 -3 -11 -3q-7 0 -12 3h-62v12h53q-1 7 3 16l188 326h-244v12h251l142 245q7 12 18 12q21 0 21 -22q0 -5 -3 -11z" />
    <glyph glyph-name="zero" unicode="0" horiz-adv-x="494" 
d="M504 -1h-213q-20 -5 -38 -5q-11 0 -18 1t-20 4h-225v12h195q-82 46 -82 211q0 64 13 131h-126v12h129q19 82 57 151q77 126 178 126q70 0 110 -56.5t40 -170.5l-2 -50l2 -12q-14 -125 -62.5 -216t-118.5 -126h181v-12zM462 413q0 89 -28 137.5t-84 48.5q-86 0 -141 -109
q-15 -27 -26.5 -59t-19.5 -66h296zM458 353h-298q-12 -60 -12 -127q0 -189 110 -189q70 0 127 89.5t73 226.5z" />
    <glyph glyph-name="one" unicode="1" horiz-adv-x="355" 
d="M365 -1h-154q-8 -5 -17 0h-204v12h194v13l65 329h-259v12h261l37 186l-121 -102q-8 -7 -17 -7q-8 0 -13.5 5.5t-5.5 13.5q0 10 12 21l164 140q9 6 17 6q22 0 17 -26l-48 -237h72v-12h-74l-68 -336l-2 -6h144v-12z" />
    <glyph glyph-name="two" unicode="2" horiz-adv-x="488" 
d="M498 -1h-441q-6 -3 -11 -3q-6 0 -11 3h-45v12h37q-2 10 8 20l253 241q34 32 40 39q17 18 37 42h-375v12h384q30 37 46 71t16 64q0 36 -26 63q-14 15 -35 24.5t-45 9.5q-38 0 -69 -24q-37 -29 -61 -91q-5 -15 -21 -15q-19 0 -19 19q0 4 2 10q25 71 71.5 106.5t98.5 35.5
q65 0 112 -49q18 -18 26 -39.5t8 -45.5q0 -33 -13.5 -66.5t-40.5 -72.5h74v-12h-82q-19 -26 -43.5 -53.5t-53.5 -54.5l-190 -179q35 11 58 11q35 0 77 -17.5t55 -17.5q18 0 30 9q17 13 54 61q9 10 19 10q20 0 20 -20q0 -6 -6 -14q-13 -16 -26 -31q-20 -24 -33 -33l-19 -13
h140v-12zM266 11l-3 1q-19 8 -35 13q-31 10 -60 10q-21 0 -43.5 -5.5t-46.5 -18.5h188z" />
    <glyph glyph-name="three" unicode="3" horiz-adv-x="446" 
d="M460 486q0 -75 -61 -121h57v-12h-74q-22 -14 -56 -25q40 -21 66 -61t26 -83q0 -59 -32.5 -105t-87.5 -68h158v-12h-200l-35 -3l-29 3h-202v12h167q-67 32 -99 99q-3 8 -3 13q0 9 7 15t16 6q12 0 18 -11q19 -39 54.5 -66t73.5 -27q63 0 106.5 40.5t43.5 100.5q0 48 -39 86
q-42 41 -101 41q-8 0 -12 3q-8 6 -8 19q0 17 13 23h-237v12h320q51 14 79.5 45t28.5 72q0 45 -27 76.5t-74 31.5q-43 0 -77 -27q-28 -22 -54 -67q-7 -11 -19 -11q-8 0 -14.5 5.5t-6.5 13.5q0 6 4 13q32 54 66 81q43 34 100 34q61 0 102.5 -40.5t41.5 -105.5z" />
    <glyph glyph-name="four" unicode="4" horiz-adv-x="433" 
d="M433 -1h-166q-8 -5 -18 0h-259v12h249v12l36 152h-163q-24 0 -24 21q0 7 1 10l36 147h-135v12h138l59 244q5 19 22 19q9 0 15 -7t3 -19l-58 -237h264v-12h-267l-33 -136h152l22 91q4 19 21 19q13 0 17 -8t2 -18l-20 -84h82q10 0 17.5 -4.5t7.5 -16.5q0 -21 -25 -21h-92
l-38 -159l-2 -5h156v-12z" />
    <glyph glyph-name="five" unicode="5" horiz-adv-x="434" 
d="M470 596q-65 -33 -131 -33q-53 0 -116 21l-53 -194q42 16 87 16q70 0 116 -41h71v-12h-59q39 -44 39 -114q0 -84 -47 -147q-42 -56 -109 -81h176v-12h-222q-8 -1 -18.5 -1.5t-15.5 -0.5h-12q-7 0 -21 2h-165v12h122q-34 14 -59 42q-6 8 -6 15q0 9 7 16t16 7q8 0 15 -7
q21 -22 50.5 -34t60.5 -12q72 0 126 52q58 56 58 145q0 40 -17.5 71.5t-49.5 46.5h-124q-22 -8 -44 -21q-8 -5 -14 -5q-19 0 -17 26h-124v12h127l74 254q2 18 18 18q5 0 13 -3q68 -31 123 -31q52 0 107 31q8 3 13 3q18 0 18 -20q0 -14 -13 -21z" />
    <glyph glyph-name="six" unicode="6" horiz-adv-x="454" 
d="M464 -1h-189l-30 -3l-36 3h-219v12h181q-81 40 -81 174q0 43 8 85t26 83h-134v12h139q31 67 88 134q62 72 149 141q8 6 15 6q20 0 20 -21q0 -10 -10 -19q-69 -53 -114 -99q-50 -51 -84 -109q26 12 53 18t48 6q76 0 118 -57h52v-12h-44q29 -47 29 -117q0 -73 -38.5 -135.5
t-98.5 -89.5h152v-12zM342 365h-123h123zM404 234q0 39 -11.5 69t-33.5 50h-164q-8 -5 -16.5 -10t-14.5 -10q-31 -83 -31 -153q0 -65 29 -102.5t88 -37.5q62 0 108 57t46 137z" />
    <glyph glyph-name="seven" unicode="7" horiz-adv-x="431" 
d="M493 604l-145 -239h93v-12h-100l-6 -10h67q19 0 19 -19q0 -23 -24 -23h-90l-176 -290h310v-12h-323q-8 -4 -17 0h-111v12h99q-3 7 2 17l168 273h-71q-19 0 -19 19q0 23 24 23h93l6 10h-302v12h309l127 209q-49 -10 -82 -10q-31 0 -71 12t-69 12t-77 -67q-7 -11 -19 -11
q-6 0 -11 3q-10 6 -10 16q0 3 4 11q35 47 61.5 69t53.5 22q23 0 71 -12.5t76 -12.5t53.5 5.5t60.5 22.5q3 2 10 2q8 0 14 -5t6 -14q0 -6 -4 -13z" />
    <glyph glyph-name="eight" unicode="8" horiz-adv-x="476" 
d="M500 499q0 -42 -18 -73.5t-62 -60.5h66v-12h-85l-51 -25q56 -41 80.5 -76.5t24.5 -73.5q0 -59 -33 -103.5t-92 -63.5h156v-12h-496v12h200q-45 16 -71.5 54t-26.5 89q0 58 38.5 99.5t127.5 80.5l-25 19h-243v12h230q-22 23 -33.5 49t-11.5 59q0 66 54 114t126 48
q57 0 101 -39t44 -97zM456 496q0 39 -30 68t-73 29q-50 0 -92.5 -35t-42.5 -83q0 -34 14.5 -57t58.5 -53h45q69 28 94.5 57t25.5 74zM413 175q0 35 -18 57q-21 26 -94 75q-101 -41 -135 -74q-30 -29 -30 -77q0 -52 36 -84t90 -32q60 0 105.5 38t45.5 97z" />
    <glyph glyph-name="nine" unicode="9" horiz-adv-x="454" 
d="M464 -1h-268l-9 -7q-8 -6 -15 -6q-13 0 -19 13h-163v12h162q2 10 10 15q69 53 114 99q50 51 84 109q-26 -12 -53 -18t-48 -6q-61 0 -101 38t-51 105h-117v12h116l-2 31q0 94 61.5 167t142.5 73q155 0 155 -189q0 -33 -1.5 -46t-6.5 -36h9v-12h-12q-19 -85 -75 -167
q-60 -87 -166 -175h253v-12zM409 365q11 49 11 87q0 65 -28 101q-31 39 -89 39q-62 0 -108 -57t-46 -137l3 -33h257zM406 353h-252q11 -47 40.5 -74t72.5 -27q56 0 122 47q3 7 8 24t9 30z" />
    <glyph glyph-name="colon" unicode=":" horiz-adv-x="194" 
d="M240 304q-5 -30 -35 -27q-13 2 -21.5 12.5t-6.5 23.5q2 14 12 21.5t24 5.5q13 -2 21 -12.5t6 -23.5zM194 353h-204v12h204v-12zM194 -1h-27q-11 -10 -25 -7q-9 2 -16 7h-136v12h127q-3 9 -2 17q3 26 34 26q14 0 22 -11t6 -25l-2 -7h19v-12z" />
    <glyph glyph-name="semicolon" unicode=";" horiz-adv-x="194" 
d="M248 304q-5 -30 -35 -27q-13 2 -21.5 12.5t-6.5 23.5q2 14 12 21.5t24 5.5q13 -2 21 -12.5t6 -23.5zM194 353h-204v12h204v-12zM197 29l-12 -18h9v-12h-17l-65 -96q-8 -12 -20 -12q-20 0 -20 21q0 6 5 14l49 73h-136v12h144l28 42q8 11 19 11q21 0 21 -21q0 -6 -5 -14z
" />
    <glyph glyph-name="less" unicode="&#x3c;" horiz-adv-x="435" 
d="M445 353h-10l-282 -103l278 -101q16 -6 16 -20q0 -8 -6 -14.5t-15 -6.5q-4 0 -10 2l-327 119q-17 6 -17 21t17 21l225 82h-324v12h357l69 25q8 2 10 2q21 0 21 -20q0 -3 -2 -9v-10zM445 -1h-455v12h455v-12z" />
    <glyph glyph-name="equal" unicode="=" horiz-adv-x="435" 
d="M445 353h-455v12h455v-12zM416 270h-348q-24 0 -24 21t24 21h348q24 0 24 -21t-24 -21zM416 148h-348q-24 0 -24 21t24 21h348q24 0 24 -21t-24 -21zM445 -1h-455v12h455v-12z" />
    <glyph glyph-name="greater" unicode="&#x3e;" horiz-adv-x="435" 
d="M445 353h-243l225 -82q17 -6 17 -21t-17 -21l-327 -119q-8 -2 -10 -2q-12 0 -16 7t-4 14q0 15 15 20l278 101l-282 103h-91v12h80q-3 9 3 18t17 9q2 0 10 -2l69 -25h276v-12zM445 -1h-455v12h455v-12z" />
    <glyph glyph-name="question" unicode="?" horiz-adv-x="415" 
d="M450 526q0 -46 -24 -84q-17 -27 -68 -77h67v-12h-79q-66 -54 -91 -77q-44 -40 -44 -74q0 -27 16 -41t40 -14q38 0 70 29q8 6 15 6t13 -6t6 -14q0 -9 -9 -17q-24 -19 -51 -29.5t-50 -10.5q-41 0 -67 26t-26 69q0 38 36 80q23 27 78 73h-292v12h306l30 25q34 30 56 64
q27 41 27 72q0 23 -14 38q-9 11 -20 17q-16 9 -33 9q-20 0 -43 -10t-54 -34q-8 -6 -15 -6q-19 0 -19 20q0 10 9 18q30 25 63 38.5t61 13.5q47 0 76.5 -28.5t29.5 -75.5zM425 -1h-187q-10 -10 -24 -7q-9 2 -16 7h-208v12h199q-4 10 -3 17q3 26 34 26q14 0 22 -11t6 -25l-2 -7
h179v-12z" />
    <glyph glyph-name="at" unicode="@" horiz-adv-x="400" 
d="M400 353h-410v12h410v-12zM400 -1h-410v12h410v-12z" />
    <glyph glyph-name="A" unicode="A" horiz-adv-x="636" 
d="M816 314q-50 -40 -112 -69t-140 -47l-37 -178l-3 -9h122v-12h-656v12h9q-4 10 1.5 20t17.5 10h36q29 0 63 29q47 40 136 153q-8 4 -13 6q-12 6 -24 15q-9 5 -9 16q0 10 7.5 17.5t17.5 7.5q4 0 9 -3l37 -22l73 93h-361v12h370l262 335q11 12 22 12q23 0 18 -26l-64 -321
h48v-12h-50l-22 -111q67 16 122 41.5t96 62.5q6 6 15 6q7 0 12 -6t5 -15q0 -10 -8 -17zM605 605l-187 -240h138zM553 353h-145l-86 -111q24 -9 51.5 -13.5t59.5 -4.5q45 0 96 10zM520 191q-59 -8 -97 -8q-64 0 -131 22q-58 -76 -99 -119q-52 -55 -93 -75h386q-3 4 -1 13z
" />
    <glyph glyph-name="B" unicode="B" horiz-adv-x="542" 
d="M552 -1h-562v12h18q-2 6 -2 10q0 22 24 22h70l65 310h-175v12h177l62 295h-79q-21 0 -21 21q0 8 6.5 14.5t16.5 6.5h198q80 0 125 -44q41 -40 41 -102q0 -53 -32 -104.5t-90 -81.5l15 -5h143v-12h-116q40 -22 60.5 -57t20.5 -76q0 -67 -48 -125q-51 -62 -137 -84h220v-12
zM348 660h-77l-59 -282h52q92 0 154 59q57 54 57 121q0 45 -30 72q-33 30 -97 30zM307 336h-103l-61 -293h105q100 0 165 56q60 52 60 118q0 51 -39 83q-44 36 -127 36z" />
    <glyph glyph-name="C" unicode="C" horiz-adv-x="510" 
d="M672 307l-129 -135q-50 -56 -94 -93q-55 -46 -108 -68h179v-12h-215q-23 -6 -45 -6q-29 0 -53 6h-217v12h184q-89 44 -89 187q0 70 22 155h-117v12h120l18 59q50 147 143 225q85 71 184 71q84 0 152 -54q8 -6 8 -15t-7.5 -16.5t-16.5 -7.5q-6 0 -11 4q-60 45 -129 45
q-85 0 -159 -66q-79 -71 -123 -200l-14 -45h365v-12h-369q-12 -46 -17.5 -81t-5.5 -69q0 -79 31 -121q35 -47 105 -47q64 0 137 55q49 37 110 107l132 137q8 8 17 8q8 0 14 -5t6 -14q0 -8 -8 -16z" />
    <glyph glyph-name="D" unicode="D" horiz-adv-x="627" 
d="M637 -1h-647v12h18q-2 6 -2 10q0 22 24 22h70l65 310h-175v12h177l62 295h-79q-13 0 -17.5 7.5t-4.5 14.5q0 20 24 20h198q148 0 226 -80q70 -72 70 -189q0 -136 -90 -258q-96 -129 -242 -164h323v-12zM591 365q8 38 8 72q0 98 -59 157q-66 66 -192 66h-77l-61 -295h381z
M589 353h-382l-64 -310h81q133 0 238 97q96 88 127 213z" />
    <glyph glyph-name="E" unicode="E" horiz-adv-x="499" 
d="M658 307l-128 -135q-59 -64 -79 -82q-58 -54 -112 -79h170v-12h-202q-29 -10 -63 -10q-39 0 -68 10h-186v12h157q-38 20 -59 55t-21 83q0 66 36.5 120.5t99.5 83.5h-213v12h244l37 9q-38 19 -62 59t-24 85q0 39 16 73t51 64q29 25 67.5 37t77.5 12q34 0 62.5 -7t55.5 -21
q12 -8 12 -19q0 -22 -24 -22q-6 0 -10 2q-56 24 -106 24q-30 0 -56.5 -8.5t-52.5 -28.5q-49 -38 -49 -99q0 -46 30.5 -84t89.5 -55q14 -3 14 -21h146v-12h-149q-6 -8 -20 -9q-104 0 -170 -61q-61 -56 -61 -131q0 -57 39.5 -89t98.5 -32q65 0 141 59q41 32 110 107l131 137
q8 8 17 8q8 0 14 -5t6 -14q0 -8 -8 -16z" />
    <glyph glyph-name="F" unicode="F" horiz-adv-x="346" 
d="M556 702q11 0 17 -9q3 -5 3 -11q0 -22 -23 -22h-282l-61 -295h146v-12h-149l-10 -49q20 -3 42 -5t44 -2q63 0 117.5 12.5t101.5 39.5q7 4 13 4q18 0 18 -20q0 -12 -11 -20q-33 -22 -99 -40.5t-144 -18.5q-41 0 -89 8l-52 -246l-1 -5h219v-12h-230q-5 -3 -11 -3t-12 3
h-113v12h106v8l52 250q-26 6 -41 13q-7 3 -27 13q-10 6 -10 17q0 10 6.5 17.5t16.5 7.5q5 0 12.5 -4t22 -10t29.5 -10l8 40h-175v12h177l62 295h-79q-11 0 -15 7.5t-4 12.5q0 22 21 22h404z" />
    <glyph glyph-name="G" unicode="G" horiz-adv-x="644" 
d="M803 307l-132 -133l-71.5 -71.5t-81.5 -78.5l-3 -13h139v-12h-142q-41 -186 -85 -258q-25 -41 -55.5 -60t-61.5 -19q-34 0 -57 23t-23 61q0 25 13 55t40 60q13 15 60.5 58.5t88.5 79.5h-200q-15 -4 -33 -4q-19 0 -32 4h-177v12h151q-27 18 -40 53.5t-13 86.5q0 90 42 202
h-140v12h145q22 54 52 106t67 97q57 69 121.5 105.5t128.5 36.5q72 0 126 -44q8 -7 8 -15q0 -9 -7 -16t-17 -7q-7 0 -12 4q-43 35 -101 35q-53 0 -108 -30t-105 -93q-31 -40 -57 -84t-48 -95h471v-12h-476q-48 -116 -48 -206q0 -51 18 -80t55 -29q86 0 339 303q8 11 22 11
q22 0 17 -26l-48 -236q29 28 55 54q38 39 54 56l132 134q8 8 17 8q8 0 14 -5t6 -14q0 -8 -8 -16zM523 254q-52 -62 -93 -107q-50 -55 -83 -83q-43 -37 -80 -53h179l31 26zM469 -21q-48 -39 -86.5 -74.5t-64 -64t-37 -52.5t-11.5 -44q0 -42 41 -42q21 0 45.5 18.5t42.5 53.5
q34 68 70 205z" />
    <glyph glyph-name="H" unicode="H" horiz-adv-x="629" 
d="M808 311q-93 -45 -119 -56q-73 -30 -150 -44l-40 -200h140v-12h-152h-13h-361h-13h-110v12h95q-3 4 -1 12l43 206q-19 8 -25 10q-23 10 -33 18t-10 17q0 10 6.5 17.5t15.5 7.5q3 0 12 -5t20 -10t23 -9l16 78h-162v12h164l65 319q2 9 9 14t14 5q26 0 21 -25l-67 -313h331
l66 319q4 19 22 19q26 0 21 -25l-65 -313h68v-12h-71l-20 -96q62 10 136 40q59 24 106 51q7 4 13 4q17 0 17 -21q0 -15 -12 -20zM525 353h-331l-19 -91q41 -12 89.5 -20t98.5 -8q31 0 64.5 3t75.5 10zM494 205q-73 -14 -141 -14q-80 0 -186 26l-43 -206h336q-4 5 -2 12z" />
    <glyph glyph-name="I" unicode="I" horiz-adv-x="442" 
d="M493 679l-63 -314h22v-12h-24l-15 -73q-24 -117 -67 -185q-38 -60 -92 -84h198v-12h-237q-14 -3 -28 -3q-17 0 -32 3h-165v12h121q-26 10 -50.5 27.5t-37.5 33.5q-4 5 -4 12q0 9 6.5 16.5t15.5 7.5q7 0 14 -7q24 -26 58.5 -44.5t71.5 -18.5q60 0 104 51q54 62 81 194
l14 70h-394v12h396l60 295h-242q-21 0 -21 21q0 8 6.5 14.5t16.5 6.5h267q21 0 21 -16q0 -4 -1 -7z" />
    <glyph glyph-name="J" unicode="J" horiz-adv-x="352" 
d="M510 307l-132 -133l-91 -90l-15 -73h90v-12h-93q-20 -92 -43 -159t-46.5 -105t-54.5 -56.5t-63 -18.5q-41 0 -69 27t-28 72q0 39 23.5 84.5t75.5 96.5q12 12 30.5 28.5t34.5 30.5h-139v12h153l103 86l51 256h-307v12h309l60 295h-244q-21 0 -21 21t24 21h266q26 0 20 -24
l-62 -313h20v-12h-22l-40 -202l49 49l132 134q8 8 17 8q8 0 14 -5t6 -14q0 -8 -8 -16zM232 31l-23 -20h18zM224 -1h-30q-61 -50 -88 -77q-54 -53 -84 -106q-15 -29 -15 -52q0 -26 17 -43t41 -17q22 0 45.5 17.5t41.5 52.5q27 55 42 105q12 38 30 120z" />
    <glyph glyph-name="K" unicode="K" horiz-adv-x="667" 
d="M829 307l-271 -273q-13 -13 -28 -23h147v-12h-548q-3 -2 -10 -2t-10 2h-119v12h110v12l66 330h-176v12h178l65 318q4 19 22 19q26 0 21 -26l-62 -303l402 335q8 6 15 6q9 0 14.5 -5.5t5.5 -13.5t-9 -16l-374 -314h409v-12h-424l-3 -3l216 -288q9 -13 14.5 -18t14.5 -5
q14 0 37 23l268 272q10 8 17 8q8 0 14 -5t6 -14q0 -8 -8 -16zM454 11q-7 5 -10.5 8.5t-12.5 15.5l-227 299l-64 -318l-1 -5h315z" />
    <glyph glyph-name="L" unicode="L" horiz-adv-x="596" 
d="M759 307l-248 -252q-34 -34 -49 -44h144v-12h-167l-23 -3q-4 -1 -12 -1q-7 0 -27 4h-271l-8 -3q-14 -5 -22 3h-86v12h80q0 7 6 15q27 41 41 79q18 47 37 136l22 112h-186v12h188l28 135q18 87 48 135q35 54 96 74q12 4 19.5 -2.5t7.5 -17.5q0 -15 -17 -21
q-42 -11 -69 -51t-43 -120l-27 -132h385v-12h-387l-23 -114q-18 -84 -29.5 -119.5t-27.5 -67.5q31 6 47 8q31 5 56 5q23 0 45 -3t57 -13t62 -10q23 0 38.5 9.5t38.5 33.5l247 252q8 8 17 8q19 0 19 -19q0 -9 -7 -16zM327 11h-184h184z" />
    <glyph glyph-name="M" unicode="M" horiz-adv-x="1060" 
d="M1221 307l-275 -278q-12 -12 -24 -18h148v-12h-182q-10 -2 -17 -2q-6 0 -18 2h-358l-7 -10q-7 -11 -22 -11q-21 0 -18 21h-458v12h11q-3 9 2.5 19.5t16.5 10.5h36q29 0 74 38q56 48 125 144l93 130h-358v12h366l237 329q10 13 22 13q9 0 15 -7.5t4 -17.5l-66 -317h143
l241 331q8 12 20 12q23 0 18 -25l-67 -318h147v-12h-150l-60 -283q-1 -5 -1 -13q0 -20 17 -20q10 0 23 7t24 18l269 272q8 8 17 8q8 0 14 -5t6 -14q0 -8 -8 -16zM928 594l-167 -229h118zM571 593l-163 -228h116zM876 353h-124l-248 -342h324q-13 15 -13 44q0 14 2 23t3 14z
M702 353h-137l-55 -263zM522 353h-123l-106 -148q-48 -66 -94 -115q-55 -58 -98 -79h350z" />
    <glyph glyph-name="N" unicode="N" horiz-adv-x="680" 
d="M780 709q19 0 19 -16q0 -9 -6 -16t-17 -7q-56 0 -76 -101l-42 -204h32v-12h-35l-70 -342h105v-12h-107q-5 -24 -21 -24q-12 0 -20 15l-4 9h-548v12h40q-3 9 2.5 18t17.5 9q35 0 50 26q10 17 22 76l43 213h-175v12h177l66 320q5 23 23 23q12 0 20 -14l147 -329h191l43 209
q11 58 39 93q33 42 84 42zM374 365l-111 246l-52 -246h163zM611 353h-183l126 -280zM533 11l-154 342h-170l-45 -215q-12 -56 -23 -81q-14 -32 -40 -46h432z" />
    <glyph glyph-name="O" unicode="O" horiz-adv-x="595" 
d="M605 -1h-279q-19 -4 -42 -4q-25 0 -44 4h-250v12h212q-61 27 -91.5 95t-30.5 158q0 47 7 89h-97v12h99q4 21 10 46.5t13 45.5q33 101 106 172q88 85 196 85q91 0 145 -77q51 -73 51 -190q0 -43 -7 -82l2 -12h-4q-7 -39 -23 -84q-33 -94 -85 -160q-56 -70 -125 -98h237
v-12zM557 365q8 48 8 88q0 96 -37 154q-41 65 -118 65q-87 0 -160 -69q-66 -63 -98 -158q-13 -40 -20 -80h425zM555 353h-425q-3 -21 -5 -42t-2 -43q0 -100 37 -161q43 -70 128 -70q74 0 142.5 69.5t105.5 175.5q6 17 11 34.5t8 36.5z" />
    <glyph glyph-name="P" unicode="P" horiz-adv-x="467" 
d="M477 -1h-487v12h107q-2 6 -1 12l69 330h-175v12h177l62 295h-79q-21 0 -21 21q0 8 6.5 14.5t16.5 6.5h224q97 0 151 -50q50 -46 50 -117q0 -50 -25 -95.5t-75 -80.5v-6h-10q-38 -24 -84.5 -36.5t-105.5 -12.5h-79l-61 -287l-2 -6h342v-12zM396 365q64 24 100.5 71.5
t36.5 97.5q0 54 -39 88q-43 38 -122 38h-101l-62 -295h187zM354 353h-148l-1 -7h77q41 0 72 7z" />
    <glyph glyph-name="Q" unicode="Q" horiz-adv-x="708" 
d="M867 307l-273 -276q-11 -11 -26 -20h150v-12h-176q-18 -6 -38 -6q-15 0 -32 6h-145q-19 -4 -43 -4q-8 0 -18 0.5t-25 3.5h-251v12h212q-61 27 -91.5 95t-30.5 158q0 47 7 89h-97v12h99q4 21 10 46.5t13 45.5q33 101 106 172q88 85 196 85q91 0 145 -77q51 -73 51 -190
q0 -43 -7 -82h115v-12h-117q-7 -39 -23 -84q-21 -61 -52.5 -113t-70.5 -88q28 -34 60 -34q27 0 53 26l270 274q8 8 17 8q8 0 14 -5t6 -14q0 -8 -8 -16zM557 365q8 48 8 88q0 96 -37 154q-41 65 -118 65q-87 0 -160 -69q-66 -63 -98 -158q-13 -40 -20 -80h425zM555 353h-425
q-3 -21 -5 -42t-2 -43q0 -100 37 -161q43 -70 128 -70q27 0 53.5 9.5t52.5 28.5l-87 124q-4 5 -4 13q0 10 7.5 16.5t16.5 6.5q11 0 17 -9l84 -121q70 68 108 177q6 17 11 34.5t8 36.5zM448 11q-9 6 -14 11t-15 17q-11 -8 -24.5 -15.5t-26.5 -12.5h80z" />
    <glyph glyph-name="R" unicode="R" horiz-adv-x="658" 
d="M815 307l-238 -242q-17 -18 -32 -31t-31 -23h154v-12h-180q-12 -3 -22 -3q-9 0 -20 3h-456v12h107q-2 6 -1 12l69 330h-175v12h177l62 295h-79q-21 0 -21 21q0 8 6.5 14.5t16.5 6.5h176q96 0 149 -49q48 -44 48 -113q0 -50 -26.5 -97t-75.5 -78h245v-12h-267
q-54 -27 -120 -27h-22l153 -235q33 -52 61 -52q25 0 74 51l239 244q8 8 17 8q8 0 14 -5t6 -14q0 -8 -8 -16zM324 660h-53l-62 -292h77q83 0 138.5 54.5t55.5 118.5q0 52 -36 83q-41 36 -120 36zM423 11q-13 10 -25 23.5t-25 33.5l-164 258h-7l-65 -309l-3 -6h289z" />
    <glyph glyph-name="S" unicode="S" horiz-adv-x="467" 
d="M524 665q9 -6 9 -18q0 -9 -6 -16t-16 -7q-7 0 -12 4q-50 35 -110 35q-64 0 -109.5 -37t-45.5 -97q0 -38 19.5 -74t73.5 -90h150v-12h-138q59 -58 80 -99.5t21 -84.5q0 -58 -35.5 -98.5t-95.5 -59.5h168v-12h-220q-10 -1 -22 -1.5t-18 -0.5h-15h-13q-9 2 -13 2h-186v12
h132q-26 9 -42.5 17.5t-35.5 24.5q-9 8 -9 16t8 16t17 8q7 0 11 -4q28 -24 67.5 -36.5t79.5 -12.5q74 0 125 33q55 36 55 94q0 35 -24.5 76.5t-72.5 88.5l-21 21h-290v12h279q-42 46 -60 83.5t-18 78.5q0 74 57 128t139 54q34 0 68.5 -10.5t68.5 -33.5z" />
    <glyph glyph-name="T" unicode="T" horiz-adv-x="393" 
d="M578 702q12 0 16 -7.5t4 -12.5q0 -22 -22 -22h-214l-61 -295h102v-12h-104l-70 -337l-1 -5h175v-12h-185q-6 -3 -12 -3t-12 3h-204v12h197v8l69 334h-266v12h268l62 295h-218q-11 0 -15 7.5t-4 12.5q0 22 21 22h474z" />
    <glyph glyph-name="U" unicode="U" horiz-adv-x="738" 
d="M897 307l-251 -254q-34 -34 -50 -42h152v-12h-514q-8 -2 -18.5 -2h-16.5l-26 2h-183v12h148q-23 13 -35.5 39.5t-12.5 74.5q0 23 3 49t11 62l24 117h-138v12h141l66 318q4 20 24 20q24 0 19 -24l-65 -314h342l80 318q6 20 24 20q23 0 17 -24l-74 -314h184v-12h-187
l-31 -135q-22 -89 -22 -126q0 -27 10 -39q7 -9 26 -13q27 -7 72 38l252 256q8 8 17 8q8 0 14 -5t6 -14q0 -8 -8 -16zM514 353h-342l-24 -117q-15 -69 -15 -109q0 -48 18 -67.5t53 -19.5q70 0 143 61q58 48 109 125q42 63 51 98zM502 11q-16 9 -25 29.5t-9 52.5q0 19 4 44.5
t13 56.5q-48 -70 -96 -115q-52 -49 -106 -68h219z" />
    <glyph glyph-name="V" unicode="V" horiz-adv-x="523" 
d="M760 709q18 0 18 -20q0 -18 -25 -21t-67 -36q-29 -23 -60 -56l-193 -211h100v-12h-111l-313 -342h424v-12h-435q-8 -8 -20 -8t-17 8h-71v12h69l70 342h-139v12h141l65 315q4 20 24 20q11 0 15.5 -7t2.5 -16l-63 -312h205l215 236q45 46 75 69q51 39 90 39zM369 353h-197
l-56 -277z" />
    <glyph glyph-name="W" unicode="W" horiz-adv-x="919" 
d="M1151 709q18 0 18 -20q0 -18 -25 -21t-67 -36q-33 -26 -60 -56l-193 -211h105v-12h-116l-313 -342h429v-12h-440q-8 -8 -20 -8t-17 8h-358q-8 -9 -18 -9q-11 0 -16 9h-70v12h69l69 342h-138v12h141l65 315q4 20 24 20q11 0 15.5 -7t2.5 -16l-63 -312h160l255 324
q8 11 22 11q22 0 17 -23l-63 -312h205l215 236q41 45 74 70q51 38 91 38zM568 593l-182 -228h135zM760 353h-196l-56 -276zM519 353h-143l-272 -342h346zM326 353h-154l-53 -264z" />
    <glyph glyph-name="X" unicode="X" horiz-adv-x="715" 
d="M874 307l-238 -242q-16 -16 -33.5 -30.5t-34.5 -23.5h157v-12h-185q-12 -4 -27 -4q-12 0 -23 4h-500v12h46q-2 6 -2 10q0 8 6 14l296 313l-2 5h-344v12h340l-97 307q-4 12 4 20.5t19 8.5q13 0 16 -11l98 -307l300 317q7 8 18 8q8 0 15 -6t7 -15q0 -7 -6 -13l-293 -309
h314v-12h-325l-15 -16l67 -210q15 -46 33 -67t39 -21q16 0 38 14t44 37l239 244q8 8 17 8q8 0 14 -5t6 -14q0 -8 -8 -16zM468 11q-16 13 -29.5 34.5t-24.5 58.5l-63 198l-277 -291h394z" />
    <glyph glyph-name="Y" unicode="Y" horiz-adv-x="632" 
d="M791 307q-25 -26 -49 -51q-67 -69 -112 -114q-68 -68 -122 -118l-3 -13h137v-12h-140q-41 -187 -86 -258q-26 -42 -56.5 -62t-62.5 -20q-35 0 -58.5 23.5t-23.5 62.5q0 27 13.5 57.5t43.5 63.5q38 38 149 133h-431v12h130q-25 12 -38 38t-13 74q0 44 15 113l25 117h-119
v12h121l68 318q4 20 24 20q24 0 19 -24l-68 -314h328q77 128 93 193l29 125q4 20 24 20q24 0 19 -24l-67 -314h62v-12h-65l-55 -263q33 32 102 102q75 76 96 98l42 44q8 8 17 8q8 0 14 -5t6 -14q0 -8 -8 -16zM535 353h-8q-51 -96 -129 -191q-97 -119 -172 -151h208l34 29z
M475 353h-323l-25 -117q-15 -68 -15 -108q0 -49 20 -70q17 -18 52 -18q50 0 138 100q76 86 153 213zM456 -24q-98 -77 -146 -132q-26 -29 -38.5 -55t-12.5 -45t10.5 -29.5t28.5 -10.5q23 0 45 16q26 19 45 54q32 64 68 202zM541 382l-4 -17h-4z" />
    <glyph glyph-name="Z" unicode="Z" horiz-adv-x="639" 
d="M797 307l-246 -252q-32 -32 -58 -44h156v-12h-190l-22 -3q-5 -1 -15 -1q-8 0 -18.5 1.5t-16.5 2.5h-305l-8 -3q-14 -5 -22 3h-62v12h56q0 7 6 15l271 327h-333v12h343l243 294h-356q-10 0 -16.5 6.5t-6.5 15.5q0 21 24 21h399q10 0 16.5 -6.5t6.5 -15.5t-6 -15l-248 -300
h260v-12h-270l-248 -299q24 3 54.5 7.5t55.5 4.5q30 0 54 -3.5t57 -12.5q15 -4 37 -7.5t35 -3.5q30 0 53 10.5t44 32.5l247 252q8 8 17 8q8 0 14 -5t6 -14q0 -8 -8 -16zM325 11h-205h205z" />
    <glyph glyph-name="bracketleft" unicode="[" horiz-adv-x="120" 
d="M130 -1h-130v366h130v-12h-118v-342h118v-12z" />
    <glyph glyph-name="bracketright" unicode="]" horiz-adv-x="1" 
d="M1 -1h-21v12h9v342h-9v12h21v-366z" />
    <glyph glyph-name="underscore" unicode="_" horiz-adv-x="456" 
d="M466 353h-476v12h476v-12zM466 -1h-476v12h476v-12zM466 -40h-476v30h476v-30z" />
    <glyph glyph-name="a" unicode="a" horiz-adv-x="494" 
d="M657 307l-273 -276q-11 -11 -29 -20h151v-12h-184q-6 -2 -18 -2t-18 2h-296v12h97q-23 15 -37.5 42.5t-14.5 69.5q0 41 15.5 94t49.5 89q30 32 69 47h-179v12h516v-12h-157q3 -5 1 -13l-52 -252q-2 -14 -2 -19q0 -29 22 -29q20 0 42 22l268 272q10 8 17 8q8 0 14 -5
t6 -14q0 -8 -8 -16zM314 353h-45q24 -11 35 -31l6 22zM287 251q0 32 -19 49.5t-50 17.5q-37 0 -71 -27q-38 -31 -56 -87q-12 -39 -12 -76q0 -38 14.5 -63t44.5 -25q23 0 53 25q35 29 63 79q11 19 19 41q14 37 14 66zM267 11q-14 16 -14 49q0 12 1 19q-11 -21 -30.5 -39
t-41.5 -29h85z" />
    <glyph glyph-name="b" unicode="b" horiz-adv-x="436" 
d="M592 301q-17 -16 -51.5 -31.5t-72.5 -15.5q-24 0 -44 5.5t-44 18.5q3 -16 4 -39.5t1 -24.5q0 -71 -24.5 -123.5t-64.5 -79.5h150v-12h-173q-17 -7 -36 -7q-30 0 -51 7h-196v12h172q-50 36 -50 147q0 46 7 95.5t19 99.5h-148v12h151q27 104 83 218q31 62 64 92.5t62 30.5
q25 0 40.5 -21.5t15.5 -56.5q0 -34 -15 -71t-47 -77q-28 -35 -50 -58q-27 -28 -60 -57h212v-12h-76q17 -31 42.5 -45t56.5 -14q29 0 57.5 12.5t45.5 29.5q5 5 14 5q19 0 19 -17q0 -10 -13 -23zM306 502q29 35 44 70t15 60q0 30 -18 30q-14 0 -35.5 -23.5t-48.5 -73.5
t-43 -90t-31 -94q30 25 53.5 48.5t63.5 72.5zM330 353h-109l-46 -37q-11 -52 -15 -88.5t-4 -71.5q0 -67 21 -95q16 -22 47 -22q62 0 92 60q24 49 24 130q0 57 -12 108q-2 11 2 16z" />
    <glyph glyph-name="c" unicode="c" horiz-adv-x="343" 
d="M507 307l-237 -241q-37 -38 -75 -55h158v-12h-191q-14 -3 -26 -3t-24 3h-122v12h94q-22 15 -35 44t-13 70q0 47 17 99q14 44 43 77.5t68 51.5h-174v12h363v-12h-62l17 -9q8 -4 8 -14q0 -12 -9.5 -19.5t-20.5 -2.5q-16 9 -31.5 13t-31.5 4q-42 0 -77 -31t-53 -84
q-7 -22 -10.5 -41.5t-3.5 -39.5q0 -42 17 -66.5t47 -24.5q43 0 97 54l238 242q8 8 17 8q8 0 14 -5t6 -14q0 -8 -8 -16z" />
    <glyph glyph-name="d" unicode="d" horiz-adv-x="496" 
d="M659 307l-273 -276q-11 -11 -29 -20h149v-12h-182q-6 -2 -18 -2t-18 2h-298v12h99q-23 15 -37.5 42.5t-14.5 69.5q0 41 15.5 94t49.5 89q30 32 69 47h-181v12h325l70 327q2 9 9 14t14 5q22 0 17 -23l-67 -323h148v-12h-151l-55 -265q-2 -14 -2 -19q0 -29 22 -29
q20 0 42 22l268 272q10 8 17 8q8 0 14 -5t6 -14q0 -8 -8 -16zM312 353h-41q24 -11 35 -31zM289 251q0 32 -19 49.5t-50 17.5q-37 0 -71 -27q-38 -31 -56 -87q-12 -39 -12 -76q0 -38 14.5 -63t44.5 -25q23 0 53 25q35 29 63 79q11 19 19 41q14 37 14 66zM269 11
q-14 16 -14 49q0 12 1 19q-11 -21 -30.5 -39t-41.5 -29h85z" />
    <glyph glyph-name="e" unicode="e" horiz-adv-x="376" 
d="M540 307l-235 -237q-22 -22 -43 -36t-45 -23h169v-12h-396v12h114q-27 14 -43 42.5t-16 70.5q0 44 18.5 96.5t42.5 84t54 48.5h-170v12h396v-12h-136q30 -22 30 -67q0 -47 -37 -105q-14 -22 -38 -35.5t-49 -13.5q-22 0 -37 8.5t-25 29.5q-7 -22 -7 -45q0 -39 21.5 -63.5
t55.5 -24.5q27 0 54.5 14t59.5 46l233 237q8 8 17 8q8 0 14 -5t6 -14q0 -8 -8 -16zM212 208q11 16 19 37.5t8 40.5q0 18 -6.5 28t-22.5 10q-28 0 -56.5 -28.5t-43.5 -79.5q14 -43 49 -43q30 0 53 35z" />
    <glyph glyph-name="f" unicode="f" horiz-adv-x="320" 
d="M484 307l-135 -137q-64 -65 -92 -85q-47 -34 -99 -34q-16 0 -36 3l-9 -43h217v-12h-220l-67 -313q-5 -21 -23 -21q-24 0 -18 28l65 306h-77v12h79l11 51q-12 3 -26 9q-3 1 -26 12q-11 6 -11 17q0 10 9 17.5t20 3.5q19 -8 44 -15l51 247h-151v12h154l17 83q28 133 74 200
q39 57 84 57q16 0 30 -8q31 -17 31 -71q0 -52 -32 -113q-37 -71 -117 -148h99v-12h-112l-42 -37l-45 -221q15 -3 28 -3q45 0 90 35q15 12 71 69l135 138q8 8 17 8q8 0 14 -5t6 -14q0 -8 -8 -16zM309 531q16 28 23.5 52.5t7.5 42.5q0 34 -22 34q-17 0 -38.5 -23.5t-39 -65
t-30 -94t-22.5 -97.5q38 36 69 75t52 76z" />
    <glyph glyph-name="g" unicode="g" horiz-adv-x="486" 
d="M647 307l-132 -133q-33 -34 -77 -77q-53 -52 -90 -86h148v-12h-161l-67 -57q-15 -78 -27 -127q-4 -19 -12 -44q-12 -52 -43.5 -78.5t-68.5 -26.5q-34 0 -57 19.5t-23 54.5q0 34 26.5 73t98.5 99q24 20 68 53l7 34h-247v12h97q-23 15 -37.5 42.5t-14.5 69.5q0 41 15.5 94
t49.5 89q30 32 69 47h-179v12h506v-12h-147q3 -5 1 -13l-69 -329h11q42 34 118 111q52 53 76 78l132 134q8 8 17 8q8 0 14 -5t6 -14q0 -8 -8 -16zM314 353h-45q24 -11 35 -31l6 22zM287 251q0 32 -19 49.5t-50 17.5q-37 0 -71 -27q-38 -31 -56 -87q-12 -39 -12 -76
q0 -38 14.5 -63t44.5 -25q23 0 53 25q35 29 63 79q11 19 19 41q14 37 14 66zM254 79q-11 -21 -30.5 -39t-41.5 -29h58zM219 -94q-33 -27 -50 -42q-50 -44 -63.5 -61.5t-19 -31.5t-5.5 -27q0 -17 11 -27t28 -10q22 0 41.5 16t25.5 44.5t9.5 46.5t22.5 92z" />
    <glyph glyph-name="h" unicode="h" horiz-adv-x="551" 
d="M712 307l-273 -276q-5 -5 -10.5 -9.5t-15.5 -10.5h148v-12h-178q-14 -2 -23 -2q-5 0 -15 2h-253q-9 -3 -17 0h-85v12h76v8l70 334h-146v12h149l18 83q29 134 74 201q39 57 82 57q10 0 14.5 -1.5t16.5 -7.5q31 -17 31 -71q0 -51 -32 -112q-38 -72 -118 -149h336v-12h-182
q16 -14 16 -51q0 -26 -7 -57l-36 -175q-1 -4 -1 -7.5v-4.5q0 -20 18 -20q22 0 44 22l270 274q10 8 17 8q8 0 14 -5t6 -14q0 -8 -8 -16zM304 531q16 28 23.5 52.5t7.5 42.5q0 34 -22 34q-17 0 -38.5 -23.5t-39 -65t-30 -94t-22.5 -97.5q38 36 69 75t52 76zM312 353h-99
l-42 -37l-25 -122q27 40 67 81q55 57 99 78zM346 248q4 21 6 32.5t2 22.5q0 18 -10 18q-6 0 -14 -4q-45 -24 -115 -103q-77 -87 -93 -146l-14 -51l-2 -6h214q-13 15 -13 43q0 15 5 38z" />
    <glyph glyph-name="i" unicode="i" horiz-adv-x="331" 
d="M222 470q0 -11 -11 -19t-24 -6q-14 2 -21.5 12.5t-5.5 23.5t12 21t24 6q26 -5 26 -38zM489 307l-273 -276q-11 -11 -29 -20h154v-12h-184q-14 -3 -26 -3q-10 0 -19 3h-122v12h103q-13 15 -13 42q0 13 5 36l55 255l4 9h-154v12h351v-12h-161q3 -4 1 -13l-54 -251
q-3 -15 -3 -24q0 -27 21 -27q10 0 24 7.5t23 16.5l268 272q10 8 17 8q19 0 19 -19q0 -9 -7 -16z" />
    <glyph glyph-name="j" unicode="j" horiz-adv-x="316" 
d="M221 472q-5 -30 -35 -27q-13 2 -21.5 12.5t-6.5 23.5t12.5 21t23.5 6t21 -12.5t6 -23.5zM477 307l-131 -133l-86 -86t-82 -77h148v-12h-161l-67 -57q-15 -78 -27 -127q-4 -19 -12 -44q-12 -52 -43.5 -78.5t-68.5 -26.5q-34 0 -57 19.5t-23 54.5q0 34 26.5 73t98.5 99
q24 20 68 53l7 34h-77v12h80l69 333l3 9h-152v12h336v-12h-148q3 -5 1 -13l-68 -329h10q49 42 107 99q63 64 88 90l132 134q8 8 17 8q8 0 14 -5t6 -14q0 -8 -8 -16zM49 -94q-33 -27 -50 -42q-50 -44 -63.5 -61.5t-19 -31.5t-5.5 -27q0 -17 11 -27t28 -10q22 0 41.5 16
t25.5 44.5t9.5 46.5t22.5 92z" />
    <glyph glyph-name="k" unicode="k" horiz-adv-x="502" 
d="M663 307l-278 -284l-14 -12h141v-12h-406q-5 -5 -14 -5t-14 5h-88v12h82v9l69 333h-151v12h154l17 83q27 133 74 200q40 57 84 57q16 0 30 -8q31 -17 31 -71q0 -52 -32 -113q-37 -71 -117 -148h281v-12h-147q42 -20 42 -72q0 -37 -26.5 -67.5t-79.5 -39.5q-23 -3 -45 -6
q-6 -3 0 -12q10 -19 20 -37q13 -20 40 -53q9 -10 15 -15.5t11 -5.5q9 0 25 17l267 272q10 8 17 8q8 0 14 -5t6 -14q0 -8 -8 -16zM309 531q16 28 23.5 52.5t7.5 42.5q0 34 -22 34q-17 0 -38.5 -23.5t-39 -65t-30 -94t-22.5 -97.5q38 36 69 75t52 76zM294 353h-76l-42 -37
l-12 -59q68 74 130 96zM332 320q-31 3 -95.5 -50.5t-92.5 -107.5l-31 -151h194l-6 5q-12 13 -46 61t-38 56.5t-8 21t-4 20.5q0 14 9.5 22t33.5 8q59 0 93 26q29 22 29 52q0 15 -10 26t-28 11z" />
    <glyph glyph-name="l" unicode="l" horiz-adv-x="392" 
d="M554 307l-224 -228q-21 -21 -43.5 -39t-44.5 -29h160v-12h-190q-14 -3 -25 -3q-10 0 -19 3h-178v12h158q-35 32 -35 146q0 56 4 89.5t18 106.5h-145v12h147l7 35q31 161 83 241q41 64 88 64q17 0 31 -8q31 -17 31 -72q0 -51 -32 -112q-38 -73 -116 -148h173v-12h-186
l-42 -37q-19 -117 -19 -171q0 -33 6.5 -68.5t35.5 -35.5q21 0 51.5 20.5t63.5 54.5l213 218q8 8 18 8q18 0 18 -19q0 -9 -7 -16zM306 531q16 30 23.5 53t7.5 41q0 36 -23 36q-17 0 -37 -22q-24 -26 -41 -69.5t-32 -101.5q-7 -27 -19 -88q38 33 70 74q27 35 51 77z" />
    <glyph glyph-name="m" unicode="m" horiz-adv-x="787" 
d="M943 307l-275 -278q-12 -12 -24 -18h153v-12h-186q-14 -2 -23 -2q-4 0 -14 2h-250q-9 -3 -17 0h-213q-5 -3 -10 -3q-6 0 -11 3h-83v12h76v8l70 324l4 10h-150v12h807v-12h-187q15 -12 15 -49q0 -11 -1 -23t-6 -36l-36 -175q-1 -5 -1 -13q0 -20 17 -20q10 0 23 7t24 18
l269 272q8 8 17 8q8 0 14 -5t6 -14q0 -8 -8 -16zM540 353h-161q16 -14 16 -52q0 -36 -17 -107q32 43 69 83q54 57 93 76zM576 248q4 18 6 32.5t2 24.5q0 16 -9 16q-6 0 -13 -4q-51 -28 -113 -99q-77 -89 -101 -176l-7 -25l-3 -6h212q-13 15 -13 43q0 15 5 38zM312 353h-135
q2 -8 1 -13l-32 -146q27 40 67 81q55 57 99 78zM346 248q8 40 8 56q0 17 -10 17q-6 0 -14 -4q-45 -24 -115 -103q-77 -87 -93 -146l-14 -51l-2 -6h193v8z" />
    <glyph glyph-name="n" unicode="n" horiz-adv-x="551" 
d="M713 307l-275 -278q-12 -12 -24 -18h147v-12h-181q-10 -2 -17 -2q-6 0 -18 2h-253q-9 -3 -17 0h-85v12h76v8l70 324l4 10h-150v12h571v-12h-182q16 -14 16 -51q0 -26 -7 -57l-36 -175q-1 -5 -1 -13q0 -20 17 -20q10 0 23 7t24 18l269 272q8 8 17 8q8 0 14 -5t6 -14
q0 -8 -8 -16zM312 353h-135q2 -8 1 -13l-32 -146q27 40 67 81q55 57 99 78zM346 248q4 21 6 32.5t2 22.5q0 18 -10 18q-6 0 -14 -4q-45 -24 -115 -103q-77 -87 -93 -146l-14 -51l-2 -6h214q-13 15 -13 43q0 15 5 38z" />
    <glyph glyph-name="o" unicode="o" horiz-adv-x="413" 
d="M565 301q-17 -16 -51.5 -31.5t-72.5 -15.5q-23 0 -43 5.5t-43 18.5q-14 -115 -45 -179.5t-81 -87.5h194v-12h-433v12h113q-31 16 -45 47t-14 72q0 24 4 45.5t11 41.5q19 54 47 88t63 48h-179v12h433v-12h-60q2 -6 1 -11q0 -22 14 -31.5t36 -12.5t28 -3q32 0 58.5 11.5
t44.5 29.5q5 5 14 5q19 0 19 -17q0 -10 -13 -23zM325 353h-53q14 -6 17 -7q13 -6 29 -18l2 14q2 8 5 11zM311 283q-49 37 -92 37q-37 0 -68 -28t-48 -79q-6 -16 -11 -40.5t-5 -44.5q0 -40 18.5 -64t63.5 -24q54 0 90.5 60.5t51.5 182.5z" />
    <glyph glyph-name="p" unicode="p" horiz-adv-x="552" 
d="M713 307l-275 -278q-12 -12 -24 -18h148v-12h-181q-14 -2 -23 -2q-4 0 -14 2h-237l-68 -313q-5 -21 -23 -21q-24 0 -18 28l65 306h-73v12h75l71 332l4 10h-150v12h572v-12h-183q16 -14 16 -51q0 -26 -7 -57l-36 -175q-1 -5 -1 -13q0 -20 17 -20q10 0 23 7t24 18l269 272
q8 8 17 8q8 0 14 -5t6 -14q0 -8 -8 -16zM312 353h-136q3 -7 2 -13l-32 -146q27 40 67 81q55 57 99 78zM346 248q4 21 6 32.5t2 22.5q0 18 -10 18q-6 0 -14 -4q-46 -25 -117 -105q-79 -89 -91 -144l-13 -57h211q-13 15 -13 43q0 15 5 38z" />
    <glyph glyph-name="q" unicode="q" horiz-adv-x="429" 
d="M588 307l-278 -280l-14 -16h143v-12h-151q-5 -7 -7.5 -13t-5.5 -18l-59 -279q-4 -20 -23 -20q-24 0 -19 24l64 306h-248v12h98q-23 14 -36 39t-13 68q0 20 4 46t13 54q16 52 47 88q28 32 66 47h-179v12h449v-12h-88q3 -5 1 -13l-57 -273l264 267q8 8 17 8q8 0 14 -5
t6 -14q0 -8 -8 -16zM316 353h-45q22 -10 34 -30l7 21zM289 251q0 32 -19.5 50.5t-49.5 18.5q-36 0 -68 -27q-37 -32 -55 -89q-13 -42 -13 -82q0 -38 13.5 -60t42.5 -22q23 0 53 25q35 29 63 79q11 19 19 41q14 37 14 66zM253 71q-16 -21 -33 -36t-33 -24h54z" />
    <glyph glyph-name="r" unicode="r" horiz-adv-x="329" 
d="M485 301q-18 -17 -57 -31t-83 -14q-35 0 -55 18q-16 20 -31 40q-6 0 -14 -11q-32 -40 -64 -121q-28 -72 -52 -166l-2 -5h212v-12h-224q-3 -2 -10 -2q-6 0 -9 2h-106v12h98v8q27 98 41 160t14 97v66l2 11h-155v12h349v-12h-54q7 -6 21 -25q24 -32 44 -32q37 0 67 11t48 29
q5 5 14 5q19 0 19 -17q0 -10 -13 -23zM242 353h-60q4 -4 4 -12v-47q35 46 56 59z" />
    <glyph glyph-name="s" unicode="s" horiz-adv-x="328" 
d="M491 311q-20 -31 -83 -66q-68 -39 -145 -57q6 -18 11 -38t5 -38q0 -72 -45 -101h104v-12h-133l-20 -2l-19 2h-176v12h150q-31 23 -31 75q0 34 21 64q25 35 77 60q-10 28 -19 46.5t-27 49.5l-28 -28q-9 -9 -19 -9q-19 0 -19 20q0 10 8 18l46 46h-159v12h348v-12h-153l4 -5
q19 -28 35 -61q11 -24 25 -60q65 12 125 43t88 66q8 9 17 9q18 0 18 -18q0 -7 -6 -16zM236 108q0 15 -2.5 24t-10.5 37q-37 -16 -54.5 -37.5t-17.5 -41.5q0 -23 9 -37.5t29 -14.5q23 0 35 20.5t12 49.5z" />
    <glyph glyph-name="t" unicode="t" horiz-adv-x="490" 
d="M651 307l-135 -137q-66 -67 -113 -90.5t-109 -23.5l-9 -40l-2 -5h217v-12h-510v12h253v8l9 43q-33 5 -64.5 21t-67.5 47q-10 9 -10 20q0 9 6 15t15 6q6 0 14 -6q23 -22 55.5 -40t60.5 -22l52 250h-108l-40 -41q-5 -6 -15 -6q-5 0 -10 3q-10 6 -10 16q0 8 6 14l13 14h-159
v12h170q57 64 117 147q68 95 110 177q8 16 20 16q7 0 12 -7.5t3 -17.5l-64 -315h142v-12h-144l-53 -255q56 0 101 27q32 20 84 72l134 137q8 8 17 8q8 0 14 -5t6 -14q0 -8 -8 -16zM355 553q-59 -99 -140 -188h101z" />
    <glyph glyph-name="u" unicode="u" horiz-adv-x="572" 
d="M731 307l-252 -254q-30 -30 -53 -42h156v-12h-182q-11 -4 -22 -4q-12 0 -20 4h-144q-22 -5 -39 -5q-16 0 -23.5 2t-11.5 3h-150v12h128q-14 12 -21.5 31.5t-7.5 48.5q0 24 8 66l39 186l4 10h-150v12h592v-12h-160q2 -6 1 -12l-39 -192q-9 -42 -9 -69q0 -39 20 -39
q18 0 56 38l251 255q8 8 17 8q8 0 14 -5t6 -14q0 -8 -8 -16zM384 353h-207q2 -8 1 -13l-37 -186q-7 -36 -7 -61q0 -35 15 -47q11 -9 38 -9q41 0 96 63q62 71 81 164l17 82zM343 11q-14 17 -14 50v13.5t4 20.5q-37 -59 -87 -84h97z" />
    <glyph glyph-name="v" unicode="v" horiz-adv-x="438" 
d="M591 301q-18 -17 -54 -32.5t-73 -15.5q-21 0 -37.5 4t-37.5 16l-29 -100q-16 -56 -45.5 -98t-68.5 -64h202v-12h-229q-18 -6 -37 -6q-13 0 -23 1t-20 5h-149v12h127q-28 23 -28 78q0 24 1.5 34t6.5 34l39 186l4 10h-150v12h458v-12h-40q3 -8 2 -13q0 -22 16 -33.5
t39 -11.5q31 0 60 11.5t46 29.5q5 5 14 5q19 0 19 -17q0 -10 -13 -23zM369 353h-194q3 -5 1 -13l-37 -186q-7 -35 -7 -61q0 -31 11.5 -44.5t35.5 -13.5q50 0 89 45q35 40 54 108z" />
    <glyph glyph-name="w" unicode="w" horiz-adv-x="600" 
d="M755 301q-18 -17 -54 -32.5t-73 -15.5q-21 0 -37.5 4t-37.5 16l-35 -119q-13 -47 -35 -82q-25 -40 -58 -61h185v-12h-210q-17 -6 -36 -6q-18 0 -35 6h-119q-19 -7 -36 -7q-24 0 -39 7h-145v12h126q-12 11 -18.5 29t-6.5 46q0 29 9 71l39 186l4 10h-153v12h620v-12h-37
q2 -8 1 -13q0 -22 16 -33.5t39 -11.5q31 0 60 11.5t46 29.5q5 5 14 5q19 0 19 -17q0 -10 -13 -23zM533 353h-159q3 -7 2 -13l-37 -186q-9 -45 -9 -69q0 -27 10.5 -38t31.5 -11q37 0 68 44q27 38 44 100zM339 353h-161q3 -5 1 -13l-37 -186q-5 -25 -6.5 -41.5t-1.5 -25.5
q0 -28 10 -40t34 -12q34 0 71 45t49 99l37 164zM310 11q-10 10 -15.5 23t-5.5 33q-16 -32 -54 -56h75z" />
    <glyph glyph-name="x" unicode="x" horiz-adv-x="438" 
d="M592 301q-22 -21 -56 -34.5t-71 -13.5q-29 0 -51.5 9.5t-38.5 31.5l-113 -114l83 -151q6 -9 2 -18h101v-12h-111q-6 -3 -12 -3q-5 0 -10 3h-236q-6 -3 -11 -3t-10 3h-68v12h61q-2 12 7 21l154 155l-77 143q-3 6 -3 12t3 11h-145v12h458v-12h-39q2 -4 2 -13q0 -23 16 -34
t39 -11q31 0 60 11.5t46 29.5q5 5 14 5q19 0 19 -17q0 -10 -13 -23zM374 353h-204l73 -133zM306 11l-75 138l-138 -138h213z" />
    <glyph glyph-name="y" unicode="y" horiz-adv-x="565" 
d="M723 307l-132 -133q-33 -33 -77 -76q-59 -57 -91 -87h152v-12h-165l-67 -57q-13 -69 -27 -126q-4 -19 -12 -45q-12 -52 -43.5 -78.5t-68.5 -26.5q-34 0 -57 19.5t-23 54.5q0 34 26.5 73t98.5 99q24 20 68 53l7 34h-100q-20 -5 -36 -5q-11 0 -17 1t-17 4h-152v12h129
q-14 12 -21.5 31.5t-7.5 48.5q0 24 8 66l39 186l4 10h-151v12h585v-12h-152q2 -6 1 -12l-68 -330h11q42 34 119 111q52 53 76 78l132 134q8 8 17 8q8 0 14 -5t6 -14q0 -8 -8 -16zM385 353h-207q2 -8 1 -13l-37 -186q-7 -36 -7 -61q0 -35 15 -47q11 -9 38 -9q41 0 96 63
q62 71 81 164l17 82zM331 89q-17 -23 -40 -43.5t-49 -34.5h72zM294 -94q-33 -27 -50 -42q-50 -44 -63.5 -61.5t-19 -31.5t-5.5 -27q0 -17 11 -27t28 -10q22 0 41.5 16t25.5 44.5t9.5 46.5t22.5 92z" />
    <glyph glyph-name="z" unicode="z" horiz-adv-x="395" 
d="M555 307l-294 -296h144v-12h-156l-14 -14q0 -72 -10 -126q-13 -71 -44 -122q-23 -37 -53.5 -55.5t-60.5 -18.5q-35 0 -58 22t-23 59q0 26 12.5 55.5t41.5 62.5q19 23 82 76q53 45 67 57l-1 4h-198v12h195q-8 21 -27 30.5t-41 9.5q-16 0 -25 -4t-13 -4q-15 0 -15 17
q0 16 15 24q88 41 129 84q35 37 46 87q2 6 2 11.5v8.5q0 21 -11.5 34.5t-30.5 13.5q-15 0 -34 -8.5t-41 -26.5q-2 -2 -6 -3.5t-8 -1.5q-17 0 -17 19q0 9 6 15q28 25 52 36h-176v12h415v-12h-145q39 -24 39 -85q0 -47 -36.5 -98t-99.5 -87q20 -4 38.5 -19.5t23.5 -33.5
l301 304q8 8 17 8q8 0 14 -5t6 -14q0 -8 -8 -16zM193 -54q-53 -45 -72 -62q-33 -28 -57 -58q-19 -23 -27.5 -43.5t-8.5 -37.5q0 -42 39 -42q21 0 41 15q25 18 44 52q41 73 41 176z" />
    <glyph glyph-name="braceleft" unicode="{" horiz-adv-x="62" 
d="M72 353h-82v12h82v-12zM198 283l-164 -166q-9 -9 -19 -9q-19 0 -19 20q0 10 8 18l164 166q8 8 18 8q20 0 20 -20q0 -7 -8 -17zM72 -1h-82v12h82v-12z" />
    <glyph glyph-name="asciitilde" unicode="~" horiz-adv-x="1" 
 />
    <glyph glyph-name="c129" horiz-adv-x="639" 
 />
    <glyph glyph-name="c141" horiz-adv-x="380" 
d="M512 659q20 -11 29 -34.5t9 -54.5q0 -55 -24 -130q-19 -59 -48 -115q-54 -104 -98 -158q-36 -44 -86 -80q-5 -4 -15 -10.5t-20 -11.5q25 -16 50 -21.5t53 -5.5h23t25 1q21 0 21 -20t-20 -20h-421v12h19q-4 9 2.5 18.5t18.5 9.5q26 0 73.5 12t89.5 29q-16 32 -16 70
q0 48 7.5 95t27.5 108h-222v12h226q17 51 47 110q46 91 102 143t106 52q21 0 41 -11zM494 617q-10 9 -28 9q-42 0 -99 -69q-50 -61 -78 -126l-26 -66h117v-12h-121q-38 -108 -38 -188q0 -40 12 -67l26 16q64 49 104 102q32 42 74 125q32 62 51.5 125.5t19.5 106.5
q0 33 -14 44zM270 11q-16 6 -28 13.5t-24 20.5q-53 -22 -105 -34h157z" />
    <glyph glyph-name="c142" horiz-adv-x="340" 
d="M551 682l-139 -665q-3 -18 -23 -18q-24 0 -19 24l118 570l-163 -228h15v-12h-24l-245 -342h269v-12h-350v12h42q-4 9 3 21l230 321h-275v12h284l236 329q10 13 22 13q9 0 15 -7.5t4 -17.5z" />
    <glyph glyph-name="c143" horiz-adv-x="776" 
d="M832 173q-22 -62 -70 -103q-59 -50 -142 -50q-75 0 -109 50q-29 43 -29 125q0 37 4.5 73t14.5 85h-379q-20 -43 -36 -86.5t-30 -93.5q-4 -19 -22 -19q-19 0 -19 21q0 6 1 9q12 48 26 87q11 32 33 82h-85v12h91q66 142 154.5 231.5t171.5 89.5q87 0 126 -55
q32 -46 32 -131q0 -59 -16 -135h227v-12h-229q-20 -92 -20 -161q0 -63 20 -96.5t67 -33.5q80 0 126 42q27 25 52 80q8 15 23 15q19 0 19 -17q0 -3 -2 -9zM776 -1h-786v12h786v-12zM503 365q6 34 11.5 74t5.5 69q0 63 -21 96q-26 40 -85 40q-74 0 -152 -79q-74 -75 -134 -200
h375z" />
    <glyph glyph-name="c157" horiz-adv-x="300" 
d="M355 278q0 -40 -21 -85q-27 -57 -81 -104l-31 -24q23 -18 46 -22t68 -4q12 0 16 -7.5t4 -12.5q0 -20 -19 -20h-347v12h19q-4 9 2.5 18.5t18.5 9.5q27 0 59.5 9.5t69.5 27.5q-9 18 -14 35t-5 39q0 67 23 115q18 36 53 68q12 11 32 20h-258v12h310v-7q24 -5 39.5 -25
t15.5 -55zM312 276q0 24 -9.5 34.5t-24.5 10.5q-7 0 -13 -3q-33 -15 -57 -56q-27 -46 -27 -97q0 -43 14 -69l24 18q50 41 74 90q19 39 19 72zM234 11q-29 10 -49 31q-16 -9 -36.5 -17.5t-38.5 -13.5h124z" />
    <glyph glyph-name="c158" horiz-adv-x="166" 
d="M166 353h-176v12h176v-12zM306 340l-68 -324q-3 -11 -9 -14t-13 -3q-12 0 -17 7.5t-3 15.5l47 229l-172 -240h95v-12h-176v12h41q-3 8 3 19l231 322q10 13 22 13q9 0 15 -7.5t4 -17.5z" />
    <glyph glyph-name="exclamdown" unicode="&#xa1;" horiz-adv-x="380" 
d="M533 670q21 0 21 -19q0 -21 -22 -21q-26 0 -73.5 -12t-89.5 -29q16 -32 16 -70q0 -39 -4 -72t-17 -82h16v-12h-19q-12 -42 -26 -79t-36 -80q-34 -68 -76 -116t-84 -67h241v-12h-390v12h58q-19 11 -27.5 33.5t-8.5 54.5q0 56 24 131q19 58 48 114l5 9h-99v12h105
q51 94 93 144q33 39 80 73q6 4 15.5 10.5t19.5 11.5q-25 16 -50 21.5t-53 5.5q-12 0 -24 -0.5t-24 -0.5q-10 0 -16 6t-6 15q0 19 21 19q84 0 109 -4q52 -8 84 -42q48 20 102 33t87 13zM341 504q0 40 -12 67l-26 -16q-57 -44 -93 -88q-32 -40 -66 -102h174q23 80 23 139z
M315 353h-177l-13 -25q-32 -62 -51.5 -125.5t-19.5 -106.5q0 -33 12 -43t30 -10q42 0 99 69q50 61 78 126q24 57 42 115z" />
    <glyph glyph-name="cent" unicode="&#xa2;" horiz-adv-x="300" 
d="M341 361q21 0 21 -19q0 -21 -22 -21q-27 0 -59.5 -9.5t-69.5 -27.5q9 -18 14 -35t5 -39q0 -67 -23 -115q-18 -36 -53 -68q-13 -11 -24 -16h170v-12h-310v12h57q-15 10 -23.5 28t-8.5 43q0 40 21 85q27 57 81 104l31 24q-21 17 -42 21.5t-54 4.5h-18q-12 0 -17 8.5
t-5 12.5q0 6 3 11h-25v12h310v-7zM275 353h-152q37 -10 62 -35q43 24 90 35zM189 195q0 43 -14 69l-24 -18q-50 -41 -74 -90q-19 -39 -19 -72q0 -24 9.5 -34.5t24.5 -10.5q7 0 13 3q33 15 58.5 58.5t25.5 94.5z" />
    <glyph glyph-name="sterling" unicode="&#xa3;" horiz-adv-x="340" 
d="M551 682l-139 -665q-3 -18 -23 -18q-24 0 -19 24l118 570l-163 -228h15v-12h-24l-245 -342h269v-12h-350v12h42q-4 9 3 21l230 321h-275v12h284l236 329q10 13 22 13q9 0 15 -7.5t4 -17.5z" />
    <glyph glyph-name="currency" unicode="&#xa4;" horiz-adv-x="166" 
d="M166 353h-176v12h176v-12zM306 340l-68 -324q-3 -11 -9 -14t-13 -3q-12 0 -17 7.5t-3 15.5l47 229l-172 -240h95v-12h-176v12h41q-3 8 3 19l231 322q10 13 22 13q9 0 15 -7.5t4 -17.5z" />
    <glyph glyph-name="brokenbar" unicode="&#xa6;" horiz-adv-x="10" 
d="M10 353h-20v12h20v-12zM10 -1h-20v12h20v-12z" />
    <glyph glyph-name="macron" unicode="&#xaf;" horiz-adv-x="480" 
d="M480 353h-490v12h490v-12zM480 -1h-490v12h490v-12zM430 -64h-380v36h380v-36z" />
    <glyph glyph-name="paragraph" unicode="&#xb6;" horiz-adv-x="563" 
d="M458 722h-52v-855h-61v855h-72v-855h-60v517q-133 50 -133 198q0 82 55 142t134 60h189v-62z" />
    <glyph glyph-name="Adieresis" unicode="&#xc4;" horiz-adv-x="636" 
d="M734 759q-2 -16 -14 -22t-21 -4q-13 2 -21 12.5t-6 23.5q3 26 34 26q14 0 22 -11t6 -25zM591 759q-2 -16 -14 -22t-21 -4q-13 2 -21 12.5t-6 23.5q3 26 34 26q14 0 22 -11t6 -25zM816 314q-50 -40 -112 -69t-140 -47l-37 -178l-3 -9h122v-12h-656v12h9q-4 10 1.5 20
t17.5 10h36q29 0 63 29q47 40 136 153q-8 4 -13 6q-12 6 -24 15q-9 5 -9 16q0 10 7.5 17.5t17.5 7.5q4 0 9 -3l37 -22l73 93h-361v12h370l262 335q11 12 22 12q23 0 18 -26l-64 -321h48v-12h-50l-22 -111q67 16 122 41.5t96 62.5q6 6 15 6q7 0 12 -6t5 -15q0 -10 -8 -17z
M605 605l-187 -240h138zM553 353h-145l-86 -111q24 -9 51.5 -13.5t59.5 -4.5q45 0 96 10zM520 191q-59 -8 -97 -8q-64 0 -131 22q-58 -76 -99 -119q-52 -55 -93 -75h386q-3 4 -1 13z" />
    <glyph glyph-name="Odieresis" unicode="&#xd6;" horiz-adv-x="595" 
d="M531 759q-2 -16 -14 -22t-21 -4q-13 2 -21 12.5t-6 23.5q3 26 34 26q14 0 22 -11t6 -25zM388 759q-2 -16 -14 -22t-21 -4q-13 2 -21 12.5t-6 23.5q3 26 34 26q14 0 22 -11t6 -25zM605 -1h-279q-19 -4 -42 -4q-25 0 -44 4h-250v12h212q-61 27 -91.5 95t-30.5 158
q0 47 7 89h-97v12h99q4 21 10 46.5t13 45.5q33 101 106 172q88 85 196 85q91 0 145 -77q51 -73 51 -190q0 -43 -7 -82l2 -12h-4q-7 -39 -23 -84q-33 -94 -85 -160q-56 -70 -125 -98h237v-12zM557 365q8 48 8 88q0 96 -37 154q-41 65 -118 65q-87 0 -160 -69
q-66 -63 -98 -158q-13 -40 -20 -80h425zM555 353h-425q-3 -21 -5 -42t-2 -43q0 -100 37 -161q43 -70 128 -70q74 0 142.5 69.5t105.5 175.5q6 17 11 34.5t8 36.5z" />
    <glyph glyph-name="Udieresis" unicode="&#xdc;" horiz-adv-x="738" 
d="M528 759q-2 -16 -14 -22t-21 -4q-13 2 -21 12.5t-6 23.5q3 26 34 26q14 0 22 -11t6 -25zM385 759q-2 -16 -14 -22t-21 -4q-13 2 -21 12.5t-6 23.5q3 26 34 26q14 0 22 -11t6 -25zM897 307l-251 -254q-34 -34 -50 -42h152v-12h-514q-8 -2 -18.5 -2h-16.5l-26 2h-183v12
h148q-23 13 -35.5 39.5t-12.5 74.5q0 23 3 49t11 62l24 117h-138v12h141l66 318q4 20 24 20q24 0 19 -24l-65 -314h342l80 318q6 20 24 20q23 0 17 -24l-74 -314h184v-12h-187l-31 -135q-22 -89 -22 -126q0 -27 10 -39q7 -9 26 -13q27 -7 72 38l252 256q8 8 17 8q8 0 14 -5
t6 -14q0 -8 -8 -16zM514 353h-342l-24 -117q-15 -69 -15 -109q0 -48 18 -67.5t53 -19.5q70 0 143 61q58 48 109 125q42 63 51 98zM502 11q-16 9 -25 29.5t-9 52.5q0 19 4 44.5t13 56.5q-48 -70 -96 -115q-52 -49 -106 -68h219z" />
    <glyph glyph-name="Thorn" unicode="&#xde;" horiz-adv-x="532" 
d="M542 -1h-114l-25 -2l-25 2h-196l-56 -311q-5 -21 -22 -21q-10 0 -16 7t-4 21l55 304h-149v12h152l27 149q2 9 3 21t1 21q0 31 -9.5 56.5t-27.5 50.5q-5 7 -5 13q0 20 21 20q8 0 17 -7t19 -25q3 -6 9 -17l13 60h-220v12h223q41 164 117 257q66 81 135 81q21 0 39 -9
q48 -23 48 -100q0 -57 -33 -114q-38 -66 -114 -115h137v-12h-157l-5 -3q61 -41 97.5 -108t36.5 -133q0 -69 -52 -98h80v-12zM486 654q-14 7 -27 7q-48 0 -99 -67q-60 -79 -103 -229h75q96 54 142 121q38 55 38 108q0 46 -26 60zM470 106q0 34 -9.5 62.5t-25 59.5t-44.5 61.5
t-58 40.5q-15 6 -9 23h-70q-18 -65 -33 -145l-36 -197h162q-16 10 -30 25q-6 6 -6 15q0 22 20 22q9 0 17 -8q13 -13 22 -18q16 -9 37 -9q30 0 46.5 19.5t16.5 48.5z" />
    <glyph glyph-name="germandbls" unicode="&#xdf;" horiz-adv-x="533" 
d="M701 309q-21 -21 -79.5 -50t-129.5 -55q7 -31 7 -60q0 -48 -17 -81.5t-47 -51.5h108v-12h-135q-12 -3 -24 -3q-11 0 -22 3h-178l-57 -311q-5 -21 -22 -21q-10 0 -16 7t-4 21l56 304h-151v12h153l27 149q2 9 3 21t1 21q0 31 -9.5 56.5t-27.5 50.5q-5 7 -5 13q0 20 21 20
q8 0 17 -7t19 -25q3 -6 9 -17l13 60h-221v12h224q41 164 117 257q66 81 135 81q21 0 39 -9q48 -23 48 -100q0 -57 -33 -114q-38 -66 -114 -115h137v-12h-157l-5 -3q28 -18 52.5 -47t41.5 -62q65 22 113 45q57 26 87 50q9 6 17 6q18 0 18 -16q0 -8 -9 -17zM487 654
q-14 7 -27 7q-48 0 -99 -67q-60 -79 -103 -229h75q95 54 142 122q38 55 38 108q0 45 -26 59zM460 144q0 24 -7 46q-58 -25 -83 -58q-19 -25 -19 -53q0 -23 10 -33t25 -10q27 0 50.5 30.5t23.5 77.5zM437 226q-19 34 -45 62q-30 32 -58 42q-14 5 -10 23h-69q-18 -65 -33 -145
l-36 -197h153q-11 6 -19 29t-8 49q0 38 28 72q32 39 97 65z" />
    <glyph glyph-name="adieresis" unicode="&#xe4;" horiz-adv-x="496" 
d="M369 467q-2 -16 -14 -22t-21 -4q-13 2 -21 12.5t-6 23.5q3 26 34 26q14 0 22 -11t6 -25zM226 467q-2 -16 -14 -22t-21 -4q-13 2 -21 12.5t-6 23.5q3 26 34 26q14 0 22 -11t6 -25zM657 307l-273 -276q-11 -11 -29 -20h151v-12h-184q-6 -2 -18 -2t-18 2h-296v12h97
q-23 15 -37.5 42.5t-14.5 69.5q0 41 15.5 94t49.5 89q30 32 69 47h-179v12h516v-12h-157q3 -5 1 -13l-52 -252q-2 -14 -2 -19q0 -29 22 -29q20 0 42 22l268 272q10 8 17 8q8 0 14 -5t6 -14q0 -8 -8 -16zM314 353h-45q24 -11 35 -31l6 22zM287 251q0 32 -19 49.5t-50 17.5
q-37 0 -71 -27q-38 -31 -56 -87q-12 -39 -12 -76q0 -38 14.5 -63t44.5 -25q23 0 53 25q35 29 63 79q11 19 19 41q14 37 14 66zM267 11q-14 16 -14 49q0 12 1 19q-11 -21 -30.5 -39t-41.5 -29h85z" />
    <glyph glyph-name="ograve" unicode="&#xf2;" horiz-adv-x="200" 
d="M365 312q-13 -18 -41 -45q-34 -33 -67 -56q13 -35 19 -58.5t6 -43.5q0 -39 -20 -69t-52 -39l-7 -2q-6 -2 -18 -2q-15 0 -22 2h-173v12h147q-29 24 -29 75q0 38 23 73.5t72 65.5q-12 27 -21 44q-1 3 -21 37l-28 -28q-9 -9 -19 -9q-19 0 -19 20q0 10 8 18l46 46h-159v12
h220v-12h-25l4 -5q15 -22 27.5 -44.5t25.5 -54.5q27 20 52.5 45.5t41.5 44.5q7 8 16 8q8 0 13.5 -5.5t5.5 -13.5q0 -7 -6 -16zM238 109q0 17 -3.5 29.5t-14.5 45.5q-39 -25 -56 -52q-13 -21 -13 -42q0 -24 8.5 -38t29.5 -14q22 0 35.5 20.5t13.5 50.5z" />
    <glyph glyph-name="oacute" unicode="&#xf3;" horiz-adv-x="282" 
d="M292 -1h-92l-30 -3l-28 3h-152v12h123q-10 7 -15 11t-12.5 12t-7.5 17q0 22 20 22q9 0 17 -8q13 -13 22 -18q16 -9 37 -9q31 0 46.5 19t15.5 49q0 48 -39 131q-15 31 -36 69l-28 -28q-9 -9 -19 -9q-19 0 -19 20q0 10 8 18l46 46h-159v12h302v-12h-107l4 -5
q32 -47 62 -121t30 -118q0 -67 -51 -98h62v-12z" />
    <glyph glyph-name="ocircumflex" unicode="&#xf4;" horiz-adv-x="398" 
d="M422 680l-65 -315h51v-12h-53l-70 -337l-2 -5h125v-12h-418v12h253v8l70 334h-108l-40 -41q-5 -6 -15 -6q-5 0 -10 3q-10 6 -10 16q0 8 6 14l13 14h-159v12h170q57 64 117 147q68 95 110 177q8 16 20 16q7 0 12 -7.5t3 -17.5zM355 553q-58 -98 -139 -188h100z" />
    <glyph glyph-name="otilde" unicode="&#xf5;" horiz-adv-x="490" 
d="M651 307l-135 -137q-66 -66 -105 -88q-47 -26 -117 -26l-9 -40l-2 -5h217v-12h-510v12h254q-1 6 -1 8l9 43q-38 8 -66 22t-66 46q-8 7 -8 17q0 8 7 16t15 8t13 -5q22 -20 54.5 -38t59.5 -24l54 249h-342q-114 -72 -194 -120q-61 -37 -149 -87q-15 -9 -20 -13
q-17 -13 -17 -27q0 -9 9.5 -17.5t9.5 -18.5q0 -9 -7.5 -15.5t-15.5 -6.5q-7 0 -12 5q-12 12 -18 26.5t-6 25.5q0 24 15.5 43.5t40.5 32.5q98 54 246 145q153 94 294 191q162 111 247 185q5 3 10 3q7 0 12.5 -7t3.5 -18l-65 -315h143v-12h-145l-52 -255q78 0 121 35
q9 7 64 64l134 137q8 8 17 8q8 0 14 -5t6 -14q0 -8 -8 -16zM375 632q-77 -61 -181 -133q-91 -63 -202 -134h325z" />
    <glyph glyph-name="odieresis" unicode="&#xf6;" horiz-adv-x="413" 
d="M369 467q-2 -16 -14 -22t-21 -4q-13 2 -21 12.5t-6 23.5q3 26 34 26q14 0 22 -11t6 -25zM226 467q-2 -16 -14 -22t-21 -4q-13 2 -21 12.5t-6 23.5q3 26 34 26q14 0 22 -11t6 -25zM565 301q-17 -16 -51.5 -31.5t-72.5 -15.5q-23 0 -43 5.5t-43 18.5q-14 -115 -45 -179.5
t-81 -87.5h194v-12h-433v12h113q-31 16 -45 47t-14 72q0 24 4 45.5t11 41.5q19 54 47 88t63 48h-179v12h433v-12h-60q2 -6 1 -11q0 -22 14 -31.5t36 -12.5t28 -3q32 0 58.5 11.5t44.5 29.5q5 5 14 5q19 0 19 -17q0 -10 -13 -23zM325 353h-53q14 -6 17 -7q13 -6 29 -18l2 14
q2 8 5 11zM311 283q-49 37 -92 37q-37 0 -68 -28t-48 -79q-6 -16 -11 -40.5t-5 -44.5q0 -40 18.5 -64t63.5 -24q54 0 90.5 60.5t51.5 182.5z" />
    <glyph glyph-name="ucircumflex" unicode="&#xfb;" horiz-adv-x="321" 
d="M481 307l-294 -296h144v-12h-156l-14 -14q0 -72 -10 -126q-13 -71 -44 -122q-23 -37 -53.5 -55.5t-60.5 -18.5q-35 0 -58 22t-23 59q0 26 12.5 55.5t41.5 62.5q19 23 82 76q53 45 67 57l-1 4h-124v12h121q-8 21 -27 30.5t-41 9.5q-16 0 -25 -4t-13 -4q-15 0 -15 17
q0 16 15 24q88 41 129 84q35 37 46 87q2 7 2 21q0 42 -38 47q-8 1 -15.5 1.5t-18.5 0.5q-57 0 -120.5 -24t-129.5 -69q-9 -6 -16 -6t-12 5.5t-5 12.5q0 8 9 16q46 36 95.5 59.5t90.5 33.5h-32v12h341v-12h-147q41 -24 41 -85q0 -47 -36.5 -98t-99.5 -87q20 -4 38.5 -19.5
t23.5 -33.5l301 304q8 8 17 8q8 0 14 -5t6 -14q0 -8 -8 -16zM119 -54q-53 -45 -72 -62q-33 -28 -57 -58q-19 -23 -27.5 -43.5t-8.5 -37.5q0 -42 39 -42q21 0 41 15q25 18 44 52q41 73 41 176z" />
    <glyph glyph-name="udieresis" unicode="&#xfc;" horiz-adv-x="572" 
d="M394 467q-2 -16 -14 -22t-21 -4q-13 2 -21 12.5t-6 23.5q3 26 34 26q14 0 22 -11t6 -25zM251 467q-2 -16 -14 -22t-21 -4q-13 2 -21 12.5t-6 23.5q3 26 34 26q14 0 22 -11t6 -25zM731 307l-252 -254q-30 -30 -53 -42h156v-12h-182q-11 -4 -22 -4q-12 0 -20 4h-144
q-22 -5 -39 -5q-16 0 -23.5 2t-11.5 3h-150v12h128q-14 12 -21.5 31.5t-7.5 48.5q0 24 8 66l39 186l4 10h-150v12h592v-12h-160q2 -6 1 -12l-39 -192q-9 -42 -9 -69q0 -39 20 -39q18 0 56 38l251 255q8 8 17 8q8 0 14 -5t6 -14q0 -8 -8 -16zM384 353h-207q2 -8 1 -13
l-37 -186q-7 -36 -7 -61q0 -35 15 -47q11 -9 38 -9q41 0 96 63q62 71 81 164l17 82zM343 11q-14 17 -14 50v13.5t4 20.5q-37 -59 -87 -84h97z" />
    <glyph glyph-name="OE" unicode="&#x152;" horiz-adv-x="595" 
d="M595 -1h-605v12h212q-61 27 -91.5 95t-30.5 158q0 47 7 89h-97v12h99q4 21 10 46.5t13 45.5q33 101 106 172q88 85 196 85q92 0 144 -74.5t52 -190.5q0 -90 -32.5 -182t-84.5 -158q-56 -70 -125 -98h227v-12zM557 365q8 48 8 88q0 96 -37 154q-41 65 -118 65
q-87 0 -160 -69q-66 -63 -98 -158q-13 -40 -20 -80h425zM555 353h-425q-3 -21 -5 -42t-2 -43q0 -100 37 -161q43 -70 128 -70q74 0 142.5 69.5t105.5 175.5q6 17 11 34.5t8 36.5z" />
    <glyph glyph-name="oe" unicode="&#x153;" horiz-adv-x="349" 
d="M349 -1h-359v12h106q-32 17 -46 47.5t-14 71.5q0 24 4 45.5t11 41.5q19 55 47 88t64 48h-172v12h359v-12h-81q33 -15 50.5 -46.5t17.5 -74.5q0 -23 -6 -49q-15 -68 -44.5 -111t-67.5 -61h131v-12zM288 192q2 8 3 19t1 20q0 77 -61 87q-6 1 -18 1q-82 0 -118 -106
q-6 -16 -11 -40.5t-5 -44.5q0 -40 18.5 -64t63.5 -24q40 0 76 41.5t51 110.5z" />
    <glyph glyph-name="Scaron" unicode="&#x160;" horiz-adv-x="1204" 
d="M1368 504q-13 -67 -40 -145q-33 -93 -70 -152q-47 -75 -102 -125t-115 -71h163v-12h-1214v12h111q-23 13 -36 40.5t-13 73.5q0 41 14 111l24 117h-100v12h102l67 318q4 20 24 20q24 0 19 -24l-65 -314h345q22 64 41 143q15 62 27 123q4 26 9 52q3 9 10 14.5t14 5.5
q24 0 19 -24l-65 -314h345q22 64 41 143q15 62 27 123q4 26 9 52q6 20 25 20q9 0 14.5 -6.5t3.5 -17.5l-65 -314h267v-12h-270l-24 -117q-15 -69 -15 -109q0 -48 18 -67.5t53 -19.5q81 0 160 73q61 57 113 149q25 45 49 118q21 64 35 132q4 20 25 20q11 0 17 -7t3 -21z
M878 353h-344l-24 -117q-14 -64 -14 -109q0 -48 19 -69q16 -18 51 -18q81 0 160 73q61 57 113 149q21 41 39 91zM901 11q-23 12 -36 40t-13 76q0 35 9 85q-47 -75 -104 -128t-116 -73h260zM478 353h-344l-24 -117q-15 -69 -15 -109q0 -48 18 -67.5t53 -19.5q81 0 160 73
q61 57 113 149q21 41 39 91zM501 11q-23 12 -36 40t-13 76q0 35 9 85q-50 -78 -104.5 -129t-115.5 -72h260z" />
    <glyph glyph-name="scaron" unicode="&#x161;" horiz-adv-x="761" 
d="M865 223l-19 -50q-20 -56 -51 -98.5t-69 -63.5h35v-12h-63q-18 -6 -39 -6q-24 0 -42 6h-177q-20 -6 -40 -6q-24 0 -42 6h-178q-18 -6 -39 -6q-22 0 -42 6h-109v12h85q-16 12 -25.5 34.5t-9.5 55.5q0 35 10 78l36 164l4 10h-100v12h771v-12h-114q3 -4 1 -10l-38 -189
q-7 -32 -7 -57q0 -33 13.5 -47.5t39.5 -14.5q49 0 91 45q37 40 61 108l16 42q9 19 25 19q18 0 18 -17q0 -3 -2 -9zM609 353h-220v-10l-38 -189q-7 -32 -7 -57q0 -33 13.5 -47.5t39.5 -14.5q49 0 92 47q39 42 61 106l57 159zM593 11q-32 24 -32 103q-19 -36 -42.5 -62
t-51.5 -41h126zM351 353h-227q3 -7 2 -13l-36 -186q-6 -32 -6 -54q0 -34 14.5 -49.5t39.5 -15.5q49 0 92 47q39 42 61 106l57 159zM334 11q-32 24 -32 103q-19 -36 -42.5 -62t-51.5 -41h126z" />
    <glyph glyph-name="Ydieresis" unicode="&#x178;" horiz-adv-x="437" 
d="M493 173q-15 -56 -42 -97q-30 -45 -69 -65h55v-12h-88q-15 -4 -34 -4q-22 0 -35 4h-290v12h263q-17 12 -24.5 33t-7.5 49q0 19 3.5 43t10 54.5t9 44t2.5 31.5q0 26 -11 41t-38 15q-50 0 -86 -40.5t-55 -108.5q-6 -20 -24 -20q-19 0 -19 20q0 3 2 11q19 63 49.5 107
t73.5 62h-148v12h447v-12h-189q22 -12 31.5 -33.5t9.5 -52.5q0 -22 -3 -41t-9 -46q-13 -50 -13 -84q0 -29 10.5 -44t37.5 -15q50 0 89 44q36 40 52 103q6 20 22 20q19 0 19 -22q0 -6 -1 -9z" />
    <glyph glyph-name="florin" unicode="&#x192;" horiz-adv-x="900" 
d="M910 -354h-920v719l70 110v253h102v-109l68 99h440l240 -353v-719zM895 365l-232 341h-426l-232 -341h890zM150 669v47h-33v-47h33zM105 669v47h-33v-47h33zM150 599v58h-33v-58h33zM105 599v58h-33v-58h33zM139 587h-22v-31zM898 11v342h-896v-342h896zM105 539v48h-33
v-95zM898 -342v341h-896v-341h896z" />
    <glyph glyph-name="circumflex" unicode="&#x2c6;" horiz-adv-x="310" 
d="M378 612q0 -40 -21 -85q-27 -57 -81 -104q-8 -7 -26 -20q-14 -10 -27 -18l5 -20h74q16 3 35.5 5.5t25.5 2.5q11 0 16.5 -5.5t5.5 -13.5q0 -18 -27 -21t-58 -10t-56 -21q3 -16 6 -40.5t3 -39.5q0 -67 -23 -115q-18 -36 -53 -68q-30 -27 -68 -27q-30 0 -51 21t-21 61t21 85
q27 57 81 104q24 21 57 41l-8 29h-34q-42 -11 -102 -20q-11 -1 -17 5t-4 15h-41v12h46q7 7 26.5 8.5t53 10t58.5 21.5q-6 25 -8.5 41.5t-2.5 37.5q0 67 23 115q18 36 53 68q30 27 68 27q31 0 51 -21t20 -61zM310 -1h-320v12h320v-12zM335 610q0 24 -9.5 34.5t-24.5 10.5
q-7 0 -13 -3q-33 -15 -57 -56q-27 -46 -27 -97q0 -21 1.5 -33.5t7.5 -38.5l30 21q51 42 74 90q18 37 18 72zM258 353h-27l3 -10zM211 207q0 38 -6 73l-33 -22q-50 -41 -74 -90q-19 -38 -19 -71q0 -23 10.5 -34.5t24.5 -11.5q7 0 13 3q33 15 58.5 58.5t25.5 94.5z" />
    <glyph glyph-name="tilde" unicode="&#x2dc;" horiz-adv-x="232" 
d="M413 340l-48 -167q-18 -63 -53 -108.5t-80 -62.5l-8 -3q-18 -6 -37 -6q-14 0 -24 1t-19 5h-154v12h132q-28 23 -28 78q0 24 1.5 34t6.5 34l39 186l4 10h-155v12h242v-12h-52q3 -5 1 -13l-37 -186q-7 -35 -7 -61q0 -31 11.5 -44.5t35.5 -13.5q50 0 89 45q35 40 54 108
l45 159q5 18 22 18q10 0 16.5 -7t2.5 -18z" />
    <glyph glyph-name="endash" unicode="&#x2013;" horiz-adv-x="365" 
d="M365 -1h-375v12h143q-42 14 -63.5 49t-21.5 81q0 47 23 87l81 125h-162v12h158l-77 119q-23 41 -23 87q0 57 32 95q36 42 99 42q62 0 99 -41q34 -38 34 -94q0 -48 -25 -89l-77 -119h155v-12h-159l81 -125q27 -42 27 -90q0 -45 -22.5 -79.5t-65.5 -47.5h139v-12zM233 483
q18 26 26.5 50t8.5 45q0 39 -26 63t-63 24t-62.5 -23.5t-25.5 -64.5q0 -44 34 -94l54 -79zM233 229l-54 79l-54 -79q-17 -24 -25.5 -49t-8.5 -45q0 -39 25.5 -63.5t62.5 -24.5t62.5 23.5t25.5 63.5q0 44 -34 95z" />
    <glyph glyph-name="emdash" unicode="&#x2014;" horiz-adv-x="763" 
d="M763 353h-773v12h773v-12zM735 173q0 -62 -40.5 -96.5t-97.5 -34.5q-46 0 -86 23l-128 83l-128 -83q-41 -23 -87 -23q-57 0 -95 32q-42 36 -42 99q0 62 39.5 97.5t95.5 35.5q48 0 89 -25l128 -83l128 83q42 27 90 27q55 0 94.5 -36.5t39.5 -98.5zM763 -1h-773v12h773v-12
zM692 173q0 37 -23.5 62.5t-63.5 25.5q-44 0 -95 -34l-79 -54l79 -54q24 -17 49 -25.5t45 -8.5q39 0 63.5 25.5t24.5 62.5zM335 173l-79 54q-26 18 -50 26.5t-45 8.5q-39 0 -63 -26t-24 -63t23.5 -62.5t64.5 -25.5q44 0 94 34z" />
    <glyph glyph-name="quoteleft" unicode="&#x2018;" horiz-adv-x="90" 
d="M157 523q5 -27 -19 -27q-16 0 -22 20l-26 127q-3 13 3 21t16 8q19 0 23 -22zM90 353h-100v12h100v-12zM90 -1h-100v12h100v-12z" />
    <glyph glyph-name="quoteright" unicode="&#x2019;" horiz-adv-x="90" 
d="M162 643l-26 -127q-6 -20 -22 -20q-9 0 -15 7.5t-4 19.5l25 127q4 22 23 22q10 0 16 -8t3 -21zM90 353h-100v12h100v-12zM90 -1h-100v12h100v-12z" />
    <glyph glyph-name="quotesinglbase" unicode="&#x201a;" horiz-adv-x="118" 
d="M118 353h-128v12h128v-12zM118 -1h-36l-18 -88q-6 -20 -22 -20q-9 0 -15 7.5t-4 19.5l16 81h-49v12h51l7 34q4 22 23 22q10 0 16 -8t3 -21l-6 -27h34v-12z" />
    <glyph glyph-name="quotedblleft" unicode="&#x201c;" 
d="M239 523q5 -27 -19 -27q-16 0 -22 20l-26 127q-2 10 2.5 19.5t17.5 9.5q18 0 22 -22zM161 523q5 -27 -19 -27q-16 0 -22 20l-26 127q-3 13 3 21t16 8q19 0 23 -22zM167 353h-177v12h177v-12zM167 -1h-177v12h177v-12z" />
    <glyph glyph-name="quotedblright" unicode="&#x201d;" 
d="M240 643l-26 -127q-6 -20 -22 -20q-9 0 -15 7.5t-4 19.5l25 127q4 22 23 22q10 0 16 -8t3 -21zM162 643l-26 -127q-6 -20 -22 -20q-9 0 -15 7.5t-4 19.5l25 127q4 22 23 22q10 0 16 -8t3 -21zM167 353h-177v12h177v-12zM167 -1h-177v12h177v-12z" />
    <glyph glyph-name="quotedblbase" unicode="&#x201e;" horiz-adv-x="198" 
d="M198 353h-208v12h208v-12zM198 -1h-38l-18 -88q-4 -21 -22 -21q-9 0 -15 7.5t-4 20.5l16 81h-35l-18 -88q-6 -20 -22 -20q-9 0 -15 7.5t-4 19.5l16 81h-49v12h51l7 34q4 22 23 22q10 0 16 -8t3 -21l-6 -27h35l7 34q4 22 23 22q10 0 16 -8t3 -21l-6 -27h36v-12z" />
    <glyph glyph-name="dagger" unicode="&#x2020;" horiz-adv-x="840" 
d="M800 -389h-760v1268h760v-1268zM753 -342v1174h-666v-1174h666z" />
    <glyph glyph-name="daggerdbl" unicode="&#x2021;" horiz-adv-x="840" 
d="M840 -1h-40v-388h-760v388h-50v12h50v342h-50v12h50v514h760v-514h40v-12h-40v-342h40v-12zM753 365v467h-666v-467h666zM753 11v342h-666v-342h666zM753 -342v341h-666v-341h666zM24 -348q0 8 0 -8v8z" />
    <glyph glyph-name="bullet" unicode="&#x2022;" horiz-adv-x="458" 
d="M458 353h-468v12h468v-12zM449 224q0 -52 -36 -89t-88 -37q-53 0 -89 36t-36 90q0 51 36.5 87.5t88.5 36.5t88 -36t36 -88zM458 -1h-468v12h468v-12z" />
    <glyph glyph-name="ellipsis" unicode="&#x2026;" horiz-adv-x="400" 
d="M400 353h-410v12h410v-12zM400 -1h-410v12h410v-12z" />
    <glyph glyph-name="perthousand" unicode="&#x2030;" horiz-adv-x="528" 
d="M541 184q0 -55 -28.5 -101t-77.5 -72h93v-12h-120q-31 -11 -64 -11t-64 11h-290v12h263q-46 25 -74.5 72t-28.5 101q0 53 25.5 98t68.5 71h-254v12h277q37 16 77 16t77 -16h107v-12h-83q43 -26 69.5 -71t26.5 -98zM516 184q0 72 -50 122t-122 50q-71 0 -120.5 -50.5
t-49.5 -121.5t49 -121t121 -50t122 50t50 121zM439 249q0 -14 -10 -24t-25 -10q-12 0 -22 10t-10 24q0 13 9.5 22.5t22.5 9.5q15 0 25 -9t10 -23zM309 249q0 -14 -9 -24t-23 -10t-24 10t-10 24q0 12 10 22t24 10q13 0 22.5 -9.5t9.5 -22.5zM477 158q-8 -49 -45 -82.5
t-88 -33.5q-49 0 -86 33t-47 83h27q5 -39 36 -65t71 -26q41 0 70.5 25.5t35.5 65.5h26z" />
    <glyph glyph-name="guilsinglleft" unicode="&#x2039;" horiz-adv-x="841" 
d="M1000 535l-126 -513q-2 -9 -9 -14t-14 -5q-5 0 -10 3v-7h-851v12h283q-3 7 -2 14l80 328h-235l-17 -56q-4 -18 -22 -18q-10 0 -16.5 7t-3.5 18l15 49h-82v12h86l48 154q21 80 74.5 130t114.5 50q46 0 77 -17q40 -22 56 -74q27 42 66.5 66.5t81.5 24.5q46 0 75 -16
q38 -21 57 -75q27 41 67.5 66t81.5 25q53 0 87 -24q43 -30 43 -94q0 -18 -5 -46zM958 538q3 18 3 33q0 44 -28 67q-23 19 -55 19q-51 0 -93 -43.5t-60 -109.5l-38 -139h154v-12h-157l-90 -335l-3 -7h245q-3 7 -2 14zM677 538q3 18 3 33q0 44 -28 67q-23 19 -55 19
q-51 0 -93 -43.5t-60 -109.5l-37 -139h228zM396 538q3 18 3 33q0 44 -28 67q-23 19 -55 19q-51 0 -92.5 -43.5t-59.5 -109.5l-44 -139h234zM632 353h-229l-90 -335l-3 -7h244q-3 7 -2 14z" />
    <glyph glyph-name="guilsinglright" unicode="&#x203a;" horiz-adv-x="695" 
d="M782 198l-37 -176q-2 -9 -9 -14t-14 -5q-22 0 -17 22l35 176q7 35 7 61q0 31 -11.5 44.5t-35.5 13.5q-50 0 -89 -45q-35 -40 -54 -108l-42 -149l-3 -7h183v-12h-705v12h254q-3 7 -2 14l36 176q7 35 7 61q0 31 -11.5 44.5t-35.5 13.5q-49 0 -91 -41q-37 -36 -57 -92
l-12 -35q-7 -20 -23 -20q-9 0 -15.5 7.5t-2.5 19.5l15 43q20 54 55 94.5t80 56.5h-197v12h705l2 -3q44 0 66 -19q27 -23 27 -77q0 -26 -8 -68zM652 353h-136q21 -10 32 -29.5t11 -52.5q20 30 43 51t50 31zM421 353h-136q21 -10 32 -29.5t11 -52.5q39 61 93 82zM509 201
q7 35 7 61q0 31 -11.5 44.5t-35.5 13.5q-50 0 -89 -45q-35 -40 -54 -108l-42 -149l-3 -7h194q-3 7 -2 14z" />
    <glyph glyph-name="uni20AC" unicode="&#x20ac;" horiz-adv-x="639" 
d="M661 307l-129 -135q-49 -56 -93 -93q-54 -45 -108 -68h309v-12h-345q-23 -6 -46 -6q-28 0 -52 6h-207v12h174q-90 46 -90 188q0 55 13 116h-46q-24 0 -24 20q0 11 10 18h-37v12h109l15 52h-40q-24 0 -24 20q0 22 24 22h56q51 128 141 198q81 63 173 63q86 0 152 -54
q8 -6 8 -15t-7.5 -16.5t-16.5 -7.5q-6 0 -11 4q-60 45 -129 45q-77 0 -147 -55.5t-116 -161.5h217q13 0 17.5 -8t4.5 -13q0 -11 -6.5 -16t-15.5 -5h-234l-2 -7l-14 -45h501v-12h-270q8 -5 8 -16q0 -22 -22 -22h-230q-14 -62 -14 -113q0 -78 33 -122.5t103 -44.5q64 0 137 55
q49 37 110 107l132 137q8 8 17 8q8 0 14 -5t6 -14q0 -8 -8 -16z" />
    <glyph glyph-name="trademark" unicode="&#x2122;" horiz-adv-x="232" 
d="M352 198l-36 -176q-2 -9 -9 -14t-14 -5q-24 0 -19 22l35 176q7 35 7 61q0 31 -11.5 44.5t-35.5 13.5q-50 0 -89 -45q-35 -40 -54 -108l-42 -149l-3 -7h151v-12h-242v12h53q-3 7 -1 14l46 157q17 62 52.5 108t79.5 63h-230v12h242v-8l20 5h14q44 0 67 -20q27 -24 27 -77
q0 -25 -8 -67z" />
  </font>
</defs>
</svg>
