<?xml version="1.0" standalone="no"?>
<!DOCTYPE svg PUBLIC "-//W3C//DTD SVG 1.1//EN" "http://www.w3.org/Graphics/SVG/1.1/DTD/svg11.dtd" >
<svg xmlns="http://www.w3.org/2000/svg">
<metadata></metadata>
<defs>
<font id="va_unliniertregular" horiz-adv-x="1024" >
<font-face units-per-em="2048" ascent="1638" descent="-410" />
<missing-glyph horiz-adv-x="500" />
<glyph horiz-adv-x="2048" />
<glyph horiz-adv-x="2048" />
<glyph unicode="&#xd;" />
<glyph unicode=" " />
<glyph unicode="!" horiz-adv-x="1047" d="M413 233q0 -48 45 -96q37 -27 84 -28q57 -1 96 33t39 91t-38.5 93.5t-96.5 38.5q-54 2 -91.5 -37.5t-37.5 -94.5zM413 1573l12 -148l78 -602l23 -264h32l115 1026q8 71 -33 139q-32 53 -100 54q-70 1 -102 -72q-22 -50 -25 -133z" />
<glyph unicode="&#x22;" horiz-adv-x="569" d="M98 881v553h101v-553h-101zM371 881v553h102v-553h-102z" />
<glyph unicode="#" horiz-adv-x="1575" d="M117 479l39 109h325l101 276h-353l35 107h354l173 483h127l-168 -483h264l172 483h127l-170 -483h315l-37 -107h-317l-98 -276h340l-37 -109h-340l-170 -479h-129l172 479h-269l-172 -479h-127l170 479h-327zM612 588h267l96 276h-266z" />
<glyph unicode="$" horiz-adv-x="580" d="M60 723q0 -33 35 -35q16 -1 69 31l119 102q17 -8 82.5 -173t65.5 -197q0 -27 4 -35l10 -41l12 -64q0 -53 -28 -88q-57 -43 -99 -45q-27 -1 -43 10l-98 70l-29 8q-11 0 -35 -20l-6 -25l2 -18q45 -64 97 -92l63 -23l61 -4l64 6l51 19l33 18q23 16 37 39l28 61l7 43l2 43 l-6 82q-2 23 -33 117q-14 47 -64 162l-59 110l-49 109q-23 52 -49 65q-19 0 -80 -49l-51 -51l-54 -49l-18 -21l-39 -45z" />
<glyph unicode="%" horiz-adv-x="2160" d="M254 897l2 21l658 862l34 22l7 2q25 -15 30 -26l-41 -209q-15 -77 -41 -195l-169 -654q333 167 719 224l43 2h92q66 -13 98 -43l52 -49q49 -78 49 -156q0 -47 -12 -94q-52 -118 -164 -213l-129 -110l16 -23l23 -12l26 -19l82 -65l756 741q25 24 57 23q51 -2 51 -39 q0 -23 -24 -47l-766 -764q-51 -51 -51 -160q-26 -146 -47 -172q-28 -85 -80 -158l-103 -145q-30 -53 -98 -96l-33 -21l-31 -14l-69 -19q-78 3 -119 27q-38 38 -43 59q-10 21 -10 74q0 88 55 176q38 61 117 148l319 280l2 13q0 12 -12 30l-18 33q-51 51 -119 51l-129 13 q-14 28 -14 43q3 23 26 36l168 97q107 62 154 116l39 45l41 52q39 63 38 112q-1 44 -29 84.5t-69 55.5q-37 13 -72 12l-94 -4q-76 -3 -307 -73q-264 -80 -406 -159l-82 -276q-20 -66 -41 -139l-25 -88q-8 -18 -39 -17q-27 1 -31 2q-13 4 -18 19l10 57l114 398 q-106 -42 -188 -126q-22 -18 -47 -18q-31 0 -31 31q0 10 3 22q8 27 91 81q53 42 202 123l59 265l25 78l14 66l103 389v34q-28 -15 -58 -71l-418 -549q-38 -38 -53 -37q-45 2 -45 41zM1123 -549q10 -22 19 -44q9 -13 49 -21q87 19 121 71l108 150q127 176 127 260q0 10 -2 26 t-2 23q-4 5 -12 5q-20 0 -68 -34q-39 -28 -143 -129q-55 -52 -133 -139q-64 -92 -64 -168z" />
<glyph unicode="&#x26;" horiz-adv-x="1794" d="M18 705q0 -19 18 -37l43 -15q15 0 27 9l153 153l78 -106q47 -64 74 -117l33 -45l4 -23l-41 -49l-41 -45q-80 -106 -80 -178q0 -46 27 -90q17 -28 65 -53l41 -9l55 -2q181 34 181 209l-7 60q-1 12 -16 57l-14 31l-11 34l7 21q124 142 348 408l522 614l-276 -1045 q-18 -68 -43 -120q-28 -7 -95 28q-48 25 -108 43q-37 0 -37 -26q0 -18 14 -35l119 -70l86 -41v-35q0 -27 -10 -43l-17 -73q13 -19 50 -21q29 -1 38 15l19 67q11 38 31 70q203 0 424 194q81 53 260 228q151 148 184 231q6 6 6 12q0 7 -6 15l-39 16l-35 -12q-75 -86 -215 -223 q-158 -155 -268 -228q-140 -93 -283 -143l54 207l16 73l49 209l37 136l108 415q47 179 80 404q-3 12 -53 18q-11 0 -616 -704l-418 -486l-6 2l-250 375l-258 -258l-6 -12zM378 246q-1 39 29 78l41 53l63 74q54 -83 54 -137q0 -24 -9 -42q-41 -83 -96 -86q-80 14 -82 60z" />
<glyph unicode="'" horiz-adv-x="295" d="M98 881v553h101v-553h-101z" />
<glyph unicode="(" horiz-adv-x="756" d="M176 916q9 524 214 949l157 -3q-217 -397 -226 -932q-9 -497 147 -864l-149 3q-152 356 -143 847z" />
<glyph unicode=")" horiz-adv-x="756" d="M130 59q210 401 210 936q0 496 -162 861h149q157 -352 157 -845q0 -526 -197 -952h-157z" />
<glyph unicode="*" d="M125 1128l37 119l291 -96v305h114v-305l289 96l41 -119l-301 -86l205 -251l-105 -74l-186 264l-182 -264l-107 74l201 251z" />
<glyph unicode="+" horiz-adv-x="1706" d="M254 561v98h551v562h98v-562h549v-98h-549v-561h-98v561h-551z" />
<glyph unicode="," horiz-adv-x="578" d="M104 -162l156 428h143l-155 -428h-144z" />
<glyph unicode="-" horiz-adv-x="659" d="M94 483v133h469v-133h-469z" />
<glyph unicode="." horiz-adv-x="578" d="M217 0v266h143v-266h-143z" />
<glyph unicode="/" horiz-adv-x="569" d="M-49 -190l498 1646h120l-497 -1646h-121z" />
<glyph unicode="0" horiz-adv-x="1450" d="M94 557q-6 -120 51 -254q42 -98 136 -162q21 -14 100 -47q9 -2 28 -6l27 -6q35 -3 70 -4q235 -4 467 260q92 105 176 256q231 415 233 731q1 194 -91 328q-106 151 -292 151q-248 0 -487 -252q-111 -117 -203 -280q-79 -141 -151 -344l-47 -211l-13 -84zM225 516 q-1 97 25 197l31 118l43 138q62 198 180 362q252 349 514 355q106 2 180 -99q65 -89 66 -248q1 -179 -84 -413q-108 -296 -258 -483q-205 -256 -457 -259q-39 0 -100 25q-30 17 -76 74q-62 106 -64 233z" />
<glyph unicode="1" horiz-adv-x="864" d="M94 80h148l549 1585q8 22 28 82q-6 35 -37 37l-26 2q-9 1 -84 -74l-502 -500q-24 -24 -26 -37q-1 -19 -1 -38q16 -32 35 -31q14 0 47 20l377 377z" />
<glyph unicode="2" horiz-adv-x="1753" d="M291 104q101 2 410 2t825 -2q22 4 50.5 16.5t28.5 45.5q0 7 -1 16q-9 49 -62 49h-921l141 113q381 305 653 678q30 42 82 127l64 131q49 100 49 225q0 113 -89 186q-82 68 -198 70q-237 3 -467 -229q-89 -90 -158 -209l11 -20l18 -19l37 -20l166 176q193 205 368 205 q80 0 130.5 -44.5t52.5 -123.5q1 -41 -27 -129q-36 -113 -74 -174l-55 -89l-86 -118q-16 -22 -129 -150q-40 -48 -166 -168z" />
<glyph unicode="3" horiz-adv-x="1366" d="M92 424q-1 -31 8 -72l13 -63q31 -148 219 -185l119 -8h73q6 3 23 8l65 19l88 37q136 57 255 188q129 142 145 279l10 88l2 51q4 95 -57 160q-51 54 -140 112q124 56 209 152q49 55 74 92l31 45l28 59l15 44l14 49l10 53l2 47q2 55 -22 92q-13 27 -55 64q-24 14 -88 39 l-52 10l-55 4l-43 -2l-51 -12l-53 -17l-66 -28q-56 -24 -96 -52l-58 -41l-36 -30q-86 -72 -107 -164q11 -35 39 -47q38 12 86 63q68 97 174 154l100 43l95 16l24 2l47 -6l43 -18q50 -29 50 -90v-35l-17 -70l-14 -41q-22 -63 -119 -172q-29 -32 -88 -84l-117 -82l-133 2 q-145 2 -158 -82q6 -29 27 -43l51 -12l47 -6l78 16l72 17q73 7 133 -82q53 -80 53 -156v-37q0 -30 -4 -39q0 -27 -10 -53q0 -14 -8 -31l-15 -32l-32 -60q-57 -107 -205 -196q-126 -76 -260 -93l-56 2q-196 7 -229 250l2 72l2 37l-10 10l-25 4q-45 0 -47 -139z" />
<glyph unicode="4" horiz-adv-x="1227" d="M168 825h567l-188 -370l-125 -269l-6 -26l-4 -27q6 -33 39 -47q50 0 73 49l60 129l63 131l211 428l277 -2q24 5 31 10q18 11 22 37q6 38 -29 58q-55 2 -258 -2l62 143l122 246q34 68 74 129l10 43q0 43 -39 45q-27 1 -45 -23l-67 -118l-141 -273l-91 -188h-432l369 798 q0 57 -33 58q-39 2 -74 -45q-8 -8 -221 -434q-219 -438 -227 -480z" />
<glyph unicode="5" horiz-adv-x="1581" d="M86 287q0 -22 18 -72q22 -34 60 -70q67 -63 233 -65q163 -2 336 70q168 69 291 184q127 118 205 282q41 85 51 123q13 48 14 129q2 190 -170 306q-13 9 -80 32l-49 11l-51 4q-65 5 -127 -15l-108 -35l-58 -20l54 137l135 377l326 1q292 1 304 11q26 21 29 105h-92 l-791 -2q-39 0 -39 -57q0 -35 23 -50q31 -2 111 -6q14 -1 14 -4l-227 -592q6 -18 24 -51q12 -5 49 -23q49 0 74 17q9 6 117 47q100 24 166 26q114 3 172 -61q33 -36 49 -82l12 -51l4 -64q1 -16 1 -31q0 -65 -26 -119q-11 -23 -77 -124q-41 -63 -129 -152l-76 -61l-90 -59 q-44 -29 -180 -82l-74 -17l-51 -8l-53 -2q-62 -2 -93 10l-77 31q-65 38 -66 88q-2 94 -37 96q-51 3 -51 -112z" />
<glyph unicode="6" horiz-adv-x="1282" d="M102 457q0 -155 84 -257q90 -108 242 -110q69 -1 154 27q30 10 80 30l81 48q144 86 267 282q53 84 71 154q16 60 17 166q1 62 -25 123l-20 38l-33 54q-26 42 -109 84l-63 16q-21 2 -53 10h-41q-148 0 -222 -39l-67 -90l-25 -45l166 41l68 10l69 5q105 8 185 -64 q11 -10 26 -47l19 -76l-2 -47q-2 -37 -10 -59q-5 -35 -11 -43l-24 -64q-5 -14 -29 -53l-31 -51l-43 -64q-68 -101 -160 -171q-111 -83 -214 -85t-166 69q-59 68 -56 173l2 65l7 48l10 38q2 22 24 80q61 158 115 232l121 164l184 256l31 34l41 41q82 82 143 129l123 95 q48 37 129 79q64 33 66 72q1 13 -19 25l-37 16l-34 -12l-119 -84l-76 -49l-66 -47l-88 -68l-73 -63q-83 -71 -209 -216q-143 -164 -250 -360l-78 -143l-27 -64l-26 -67l-6 -56q-13 -53 -13 -110z" />
<glyph unicode="7" horiz-adv-x="1536" d="M340 116q0 41 35 109l366 707l-2 6l-12 4h-10l-12 -2h-29l-8 -2h-78l-8 2h-9l-6 2l-16 4l-6 2l-10 6l-9 4l-8 9l-4 6l-4 8l-2 8v8l2 9l2 6l4 8l6 6l8 6l11 4l10 4l12 2h15l194 -2l4 4l4 7l4 4l4 6l5 6l6 8l4 8l354 559h-674q-11 -2 -21 -2q-57 0 -73 54q3 21 21 51 q34 20 53 18l905 2l-450 -718l6 -3l10 -2l6 -2h14l9 -2h98l8 2h47l6 -2l8 -8l5 -8l4 -8l2 -8l2 -11v-18l-2 -10l-4 -9l-7 -8l-6 -6l-8 -6l-10 -2l-12 -2l-220 -2l-4 -6l-4 -4l-4 -9l-4 -6l-2 -6l-4 -6l-307 -633q-88 -182 -168 -182q-37 0 -37 36z" />
<glyph unicode="8" horiz-adv-x="1509" d="M94 389q-2 -155 141 -236q115 -66 283 -69q39 -1 72 12q210 35 328 127q134 105 172 301q0 121 -60 226q-73 128 -119 172l-49 47l-39 39q87 59 246 178l236 176q51 38 79 80l17 33l10 51q0 24 -31 51l-18 4q-21 0 -37 -35q-36 -81 -65 -102l-523 -391l-119 133 q-7 8 -47 84l-28 110q0 148 170 236q129 67 334 84l71 6q20 2 84 -12q35 -7 68 -31l22 -37l27 -29l37 -18l22 10q12 5 15 27l-7 31l-16 32q-31 62 -121 97l-51 12l-63 4l-101 2q-116 2 -260 -47q-342 -117 -342 -367q0 -64 33 -133q19 -40 70 -114l77 -86l43 -39l-96 -74 l-88 -66q-35 -23 -121 -84q-125 -90 -198 -200q-57 -86 -58 -195zM211 446q14 125 210 283q86 70 304 207q258 -199 258 -385q0 -42 -18 -92l-27 -53q-115 -175 -305 -203l-27 -4l-35 -2l-61 -7q-296 0 -299 256z" />
<glyph unicode="9" horiz-adv-x="1544" d="M122 415q0 -23 5 -48q53 -270 325 -270q125 0 267 58q125 51 182 111q140 146 217 336l117 287q42 103 58 147q31 85 48 168l31 150l88 454h-125q-7 0 -18.5 -55t-21.5 -55q-4 1 -7 4q-33 26 -46 34q-30 19 -56 23l-146 25l-63 2q-192 6 -334 -105q-96 -75 -168 -186 q-94 -145 -96 -283q-2 -191 180 -329q44 -26 211 -60l47 -4l62 2l41 6l36 11q36 11 105 43q35 23 55 20q13 -2 -6 -24l-86 -220q-88 -225 -268 -368q-31 -25 -109 -55q-110 -43 -204 -43q-258 0 -285 331q-2 27 -19 -27.5t-17 -79.5zM487 1182v41q0 78 35 131l84 127 q87 132 247 172q77 19 159 22q37 1 47 -4l31 -6q181 -35 186 -197l-6 -98q-1 -24 -8 -49l-15 -57q-9 -35 -33 -101q-17 -48 -45 -86q-15 -27 -71 -62q-24 -14 -70 -42q-25 -16 -92 -35l-82 -12h-70l-36 2q-30 2 -72 12l-76 45l-53 43q-30 24 -37 53l-12 47z" />
<glyph unicode=":" horiz-adv-x="588" d="M223 0v266h142v-266h-142zM223 834v266h142v-266h-142z" />
<glyph unicode=";" horiz-adv-x="588" d="M104 -162l156 428h143l-155 -428h-144zM223 834v266h142v-266h-142z" />
<glyph unicode="&#x3c;" horiz-adv-x="1706" d="M264 569v82l1178 484v-109l-1022 -416l1022 -413v-109z" />
<glyph unicode="=" horiz-adv-x="1706" d="M254 375v98h1198v-98h-1198zM254 748v98h1198v-98h-1198z" />
<glyph unicode="&#x3e;" horiz-adv-x="1706" d="M264 88v109l1022 413l-1022 416v109l1178 -484v-82z" />
<glyph unicode="?" horiz-adv-x="1210" d="M115 1290q3 220 133.5 345.5t350.5 125.5q189 0 317 -89q146 -102 146 -283q0 -153 -136 -255q-67 -50 -239 -117q-166 -64 -189 -77q-118 -64 -118 -149q0 -77 77 -123q65 -39 147 -39q214 0 240 229h161q-8 -181 -114 -280.5t-287 -99.5q-156 0 -266 77 q-124 87 -124 237q0 138 112 219q54 39 201 98q219 88 232 95q140 77 140 183q0 109 -99 171q-83 52 -199 52q-166 0 -257 -106q-64 -74 -69 -214h-160zM462 239q0 57 39.5 95.5t96.5 38.5q56 0 95.5 -39t39.5 -95t-39.5 -95t-95.5 -39t-96 39t-40 95z" />
<glyph unicode="@" horiz-adv-x="1776" d="M137 750q0 -213 103.5 -391.5t288.5 -282t404 -103.5q208 0 369 94q113 66 248 234h-106q-122 -123 -232 -178q-126 -62 -284 -62q-195 0 -357 89q-168 92 -263 257q-93 162 -93 352q0 189 91 349q92 164 254 255q159 89 355 89q265 0 448 -155q197 -166 197 -421 q0 -262 -199 -414l-64 -49q-24 -18 -67 -21l-17 7q-13 10 -18 28l-4 43v39l80 633l-31 4q-26 0 -37 -16l-6 -29l-4 -12l-8 -15l-15 -4h-14q-8 2 -27 28.5t-41 31.5l-49 10l-61 4q-72 5 -129 -20q-33 -15 -107 -72q-42 -44 -84 -101q-20 -27 -57 -120l-14 -35l-15 -53l-6 -97 v-69l25 -119l24 -66l37 -45q32 -30 45 -30q18 -18 47 -27l58 -8l67 6l33 8l37 21l27 14q35 18 61 45l47 49q0 -17 29 -57l24 -33l11 -12q12 -19 38 -31l50 -10q41 0 77 14q52 21 143 125q40 46 73 99l33 54q86 135 86 322q0 278 -224 466q-212 178 -494 178 q-214 0 -394 -102.5t-284.5 -287.5t-104.5 -400zM662 605q-6 79 5 103l6 37l12 32q8 21 27 56q89 184 163 202q53 18 95 21l55 -6q24 -6 49 -31l37 -57q19 -80 20 -111q2 -96 -51 -217q-42 -96 -96 -156l-37 -34l-37 -31q-37 -31 -94 -25q-67 0 -102 35l-45 94z" />
<glyph unicode="A" horiz-adv-x="1733" d="M86 133l2 -14l8 -21q39 -12 71 -12h5l98 2l60 16q36 10 55 21q129 77 215 194l174 236l37 6l160 -35l82 -10l90 -4l205 14q14 1 14 -41v-71l-8 -60l-19 -268q-1 -18 45 -20h2q19 0 33 20l60 449q477 76 581 335l10 39q0 24 -26 27l-15 -4l-20 -6q-65 -77 -203 -164 q-48 -30 -141 -64q-36 -13 -172 -45l2 35l4 37l133 991q5 34 -10 49q-11 18 -45 27q-44 -21 -113 -111l-59 -77l-660 -883q-28 0 -118 57q-99 63 -134 74q-14 -3 -18 -14l-8 -21l6 -45q4 -6 33 -35q27 -10 86 -63q50 -36 76 -68l-117 -170q-55 -80 -146 -162 q-38 -53 -163 -77l-99 -19q-25 -5 -43 -10zM868 676l619 878h8l2 -30l-4 -33l-18 -113q0 -31 -13 -147l-28 -250l-27 -154q-10 -57 -35 -180l-76 -12l-168 -4l-77 2q-15 0 -70 8q-87 12 -113 35z" />
<glyph unicode="B" horiz-adv-x="1407" d="M96 129q0 -43 23 -43h649q220 58 289 109q127 65 213 223q51 93 51 201q1 87 -53 187q-54 102 -131 144q-61 11 -154 37v10q119 56 141 84q50 46 99 158q38 86 39 168v8q0 109 -54 189q-77 114 -164 154q-76 34 -223 34h-436q-17 0 -47 -18q-9 -10 -23 -41q0 -60 70 -60 h113q11 0 18 -12l8 -14l-28 -222l-107 -706l-61 -467l-11 -41q0 -12 -18 -18l-49 -5l-60 2q-41 1 -51 -4q-17 -1 -39 -20l-2 -16zM434 213l111 686q106 19 209 19h61l82 -9q41 -4 137 -30q166 -102 166 -263q0 -110 -47 -184q-92 -145 -311 -207q-106 -30 -381 -30 q-12 0 -27 18zM565 1028l21 176l26 176q14 92 45 291h70l74 2l94 -2q44 -1 80 -14q88 -31 131 -87q45 -58 45 -135q0 -30 -18 -104l-21 -57l-27 -60q-145 -190 -510 -190z" />
<glyph unicode="C" horiz-adv-x="1176" d="M99 696q0 -233 78 -393q39 -80 119 -145q26 -21 158 -72l61 -8l43 2l25 6q224 54 303 127l156 145l415 510l15 39q0 33 -41 35h-1q-29 0 -71 -39l-244 -285l-205 -233q-90 -102 -256 -164q-48 -12 -100 -12q-105 0 -176 59q-142 150 -142 358q0 16 1 33l6 117l20 152 l27 159l102 242q12 30 58 84l108 129q38 45 148 109q77 32 159 35h19q31 0 45 -5q79 -6 293 -110l22 -6q19 0 29 10q7 7 22 39q0 15 -20 33q-159 141 -373 141h-20l-62 -2l-32 -2l-50 -12q-237 -57 -407 -289q-143 -196 -199 -465q-31 -151 -33 -305v-17z" />
<glyph unicode="D" horiz-adv-x="1450" d="M88 134q0 -48 74 -48h471q410 49 753 483q166 255 166 539v29l-2 69v37l-8 43q-25 137 -53 182q-23 48 -148 174q-91 92 -301 123q-182 27 -329 27h-402q-69 0 -80 -53q0 -49 80 -49h140q7 1 14 1q24 0 51 -16l6 -45q0 -42 -24 -151l-27 -123l-197 -1032 q-13 -68 -43 -121l-24 -13l-45 -4q-72 0 -72 -52zM358 211l285 1460q62 13 107 13q9 0 18 -1l111 -6l90 -10q166 -18 247 -64t189 -229l27 -112l8 -119q1 -15 1 -31q0 -208 -145 -485q-218 -326 -585 -402l-166 -18l-158 -8l-14 4z" />
<glyph unicode="E" horiz-adv-x="1241" d="M86 524q0 -143 47 -215q30 -46 135 -151q24 -19 123 -52l70 -14l69 -6q24 -2 47 -2q181 0 306 125l639 641l6 22q0 43 -53 46h-2q-29 0 -62 -33l-598 -598q-51 -51 -98 -74q-52 -19 -127 -20h-7q-138 0 -239 79q-119 92 -119 263v28l4 33q65 206 215 289q113 63 338 65 q56 1 56 43q0 38 -52 41l-106 47l-53 31q-42 30 -133 174q-21 78 -21 107q0 124 139 215q122 80 267 80q117 0 159 -13l97 -30l22 -3q55 0 55 46q0 25 -69 59l-144 29l-108 10l-103 2q-166 -25 -286 -126q-135 -114 -135 -271v-43l2 -27l2 -14l12 -23q18 -81 72 -135 q25 -31 110 -105l-2 -12l-49 -18l-106 -37q-42 -9 -78 -31q-242 -115 -242 -422z" />
<glyph unicode="F" horiz-adv-x="844" d="M82 849q0 -34 49 -54l105 -41q42 -16 49 -43l-109 -602q0 -18 14 -35q21 -13 46 -13q31 0 59 39l125 602l82 -2h39l47 -4h33l34 4h82l56 9l67 6q25 0 31 4l49 16q191 44 252 119q11 11 14 29q0 30 -49 47l-20 -6q-47 -34 -115 -56l-133 -43l-135 -16l-230 -6l-28 4 q-19 0 -60 18l-4 21l4 35l6 28l162 752l19 6l34 2l160 2l135 -2h178q144 0 175 12q13 1 34 13q8 7 23 41q0 57 -64 57h-1069q-24 0 -47 -16q-16 -14 -28 -50q0 -45 53 -45h135l47 -4q68 -6 68 -16q-11 -119 -51 -350l-13 -76l-6 -41q0 -20 -4 -27q0 -5 -12 -32l-19 -93 l-28 -108l-11 -37q0 -23 -8 -39l-41 2l-35 14l-49 19l-26 2h-12h-2q-58 0 -58 -46z" />
<glyph unicode="G" horiz-adv-x="1593" d="M112 396q0 -99 40 -187q39 -86 155 -123l58 -12l53 -6q37 0 86 18q131 77 237 164q75 62 168 162l187 202l41 56q14 19 26 26l11 -8l-99 -442q0 -16 -47 -72q-38 -46 -84 -76l-39 -26l-45 -35l-69 -62q-82 -74 -144 -153q-68 -73 -117 -150q-61 -97 -61 -164l2 -20 q25 -128 170 -197l25 -2q7 -1 14 -1q72 0 145 55q79 48 129 131l47 77l43 89l37 116l37 148l51 227l86 96l154 160l485 473l17 37q0 43 -45 45q-19 1 -37 -16l-604 -578l-6 6l2 23l104 528l-6 29q-12 24 -43 24q-27 0 -49 -28l-146 -185l-98 -110l-49 -62l-60 -65l-116 -115 q-95 -94 -266 -192l-37 -11l-39 -4q-59 0 -127 50q-16 20 -47 108l-11 62l-4 59q32 254 84 385l31 78l41 100l55 129q32 75 99 168l49 68l53 61q114 131 303 197l111 14l96 6h43q33 0 43 -4q28 0 76 -18q53 -13 104 -39l25 -6q30 0 55 53q0 24 -29 41q-41 35 -157 65 l-101 13l-114 4h-60q-194 -25 -334 -117q-63 -41 -225 -229q-125 -145 -192 -301l-70 -164l-51 -178l-29 -156l-14 -111l-6 -98q-1 -15 -1 -30zM582 -480q0 80 135 232q29 33 160 144l67 57l74 47q11 0 14 -16l-22 -105l-15 -49l-20 -57l-98 -230q-74 -130 -191 -133l-24 2 q-23 5 -60 37q-20 37 -20 71z" />
<glyph unicode="H" horiz-adv-x="1528" d="M6 813l6 -22l21 -33l49 -43q49 -43 154 -94l-80 -500q0 -21 4 -25l10 -2l29 -8l34 4q20 0 33 16l101 488l55 -2h24l43 -8q137 -25 202 -25h5l176 4l267 15q7 -4 22 -33l-2 -21l-74 -418q0 -12 15 -18l35 -2h6q30 0 45 18l90 459q0 25 14 33h25l31 4l86 18l102 25l43 12 l39 17q124 54 215 184l16 47q0 37 -35 37q-30 0 -55 -37q-64 -77 -205 -143q-106 -50 -223 -53l-10 8l190 1046q0 25 -16 25q-12 6 -20 6l-43 -8q-25 -12 -25 -51l-207 -1012q0 -18 -27 -27l-63 -8l-137 -10l-273 -2h-12q-70 0 -152 11q-120 15 -149 42l-4 47l201 979 q0 36 -29 39q-69 0 -86 -80l-188 -911q0 -17 -27 -47q-4 -1 -8 -1q-38 0 -115 50q-57 46 -94 46q-6 0 -12 -1z" />
<glyph unicode="I" horiz-adv-x="1118" d="M123 345q0 -18 24 -42q102 -81 183 -125l168 -92q33 -18 131 -18q61 0 86 18q113 81 173 158q56 73 113 205l56 202l35 144l67 358l27 178l33 178l26 119l10 113l-20 37l-18 14h-666q-23 0 -47 -12q-16 -11 -29 -33q0 -12 19 -31q18 -12 57 -12h125l135 2q40 1 74 1 q126 0 180 -9q79 0 82 -35l6 -10l-82 -432q-15 -107 -74 -396l-49 -202q-27 -111 -57 -185l-53 -94l-31 -49q-54 -86 -129 -105l-47 -12l-43 -6l-45 6q-70 17 -177 85q-164 104 -171 108l-33 10q-39 0 -39 -36z" />
<glyph unicode="J" horiz-adv-x="1186" d="M100 -461q0 -197 240 -248l61 7q18 0 31 8l33 14q63 27 98 78q101 88 180 352q10 32 82 363q12 131 102 223l490 500q12 12 12 30q0 31 -47 47q-20 0 -37 -22l-377 -375l-55 -43l-8 2l196 1245q-1 16 -14 39l-55 23l-43 10h-602q-51 0 -51 -49q0 -57 63 -60l147 -6l232 4 h25q99 0 182 -14l4 -35l-6 -55l-11 -57l-219 -1196q-32 -39 -129 -119l-137 -113q-139 -94 -252 -239q-135 -173 -135 -314zM209 -441q0 22 8 42q63 159 193.5 306.5t293.5 227.5l17 4v-16q-3 -31 -9 -49q0 -10 -6 -33q-2 -10 -24 -92q-13 -48 -52 -166q-54 -164 -159 -320 q-45 -67 -117 -67q-62 0 -104 49q-41 48 -41 114z" />
<glyph unicode="K" horiz-adv-x="1589" d="M86 102q0 -10 4 -12l8 -14l35 -8q14 0 41 18l164 764l22 8l670 -772q16 -18 74 -18q38 0 55 18l721 782q0 25 -39 27q-24 1 -51 -21l-633 -655q-30 -31 -59 -31q-14 0 -23 11l-620 733l22 29l897 755l21 43q0 31 -37 31q-27 0 -47 -16l-908 -736q-12 -8 -19 -8q-4 0 -7 2 q-14 0 -12 27l2 26l104 678q5 33 -39 35h-2q-30 0 -35 -24z" />
<glyph unicode="L" horiz-adv-x="1468" d="M86 100l14 -10l29 -4h113q75 37 118 43l72 10l86 4h51l37 -8l86 -14q103 -17 180 -35l132 -10q8 -1 15 -1q30 0 46 11l182 178l174 182q143 150 322 392q12 16 12 32q0 39 -53 41q-32 1 -55 -24l-521 -578q-51 -56 -82 -82q-14 -12 -96 -47l-286 53q-70 13 -175 13h-53 q-43 0 -51 -4q-41 0 -98 -21l-11 6q179 473 179 1002q25 210 59 264q36 99 172 188l49 17l27 24q1 8 1 16q0 28 -18 42l-26 2h-9q-36 0 -81 -21l-80 -47q-89 -75 -146 -233q-30 -84 -55 -287l-51 -416q-31 -256 -94 -432z" />
<glyph unicode="M" horiz-adv-x="2703" d="M86 86l76 -14l65 -6q56 0 103 20l286 338l740 993q-2 -20 -76 -391l-82 -414l-76 -467q0 -22 19 -59l26 -4q55 0 88 45l955 1311l6 -4l-82 -347l-63 -288q-58 -267 -60 -439v-7q0 -130 39 -191q27 -42 55 -62q26 -11 68 -14h11q72 0 140 70l72 75l559 584q25 26 25 49 q0 31 -47 41q-23 0 -39 -8l-41 -35q-84 -72 -211 -209l-223 -241q-130 -140 -185 -172l-26 -15l-29 -8q-49 15 -61 55l260 1502q0 25 -27 41q-17 0 -65 -50l-1008 -1419l-14 -2l260 1423q3 37 -27 37q-19 0 -35 -22l-1145 -1551q-16 -11 -118 -32q-53 0 -68 -11 q-25 -6 -45 -26v-76z" />
<glyph unicode="N" horiz-adv-x="1749" d="M86 139l2 -37l35 -16l24 -14l25 -4l47 18q61 55 115 174q31 69 57 205l201 1065l20 4q8 -9 37 -68l21 -43l678 -1337l30 -10q22 0 39 10l15 33l10 41l213 1134q8 60 37 207q21 88 112 170q32 8 58 58q-6 35 -25 43l-22 4q-17 0 -72 -25l-57 -49q-53 -64 -97 -205 l-37 -213l-196 -991q-14 0 -21 16l-12 29l-678 1386q-17 35 -70 58q-13 0 -26 -8l-21 -19l-260 -1360q-29 -95 -92 -176l-53 -37q-25 -18 -37 -43z" />
<glyph unicode="O" horiz-adv-x="1257" d="M92 780q0 -117 21 -207q42 -180 80 -262q45 -96 192 -180q31 -18 76 -31l112 -16h76l90 10q49 0 74 15q53 11 163 95q107 82 138 132l57 92l60 109l41 94l35 102l26 98l23 103l10 84l4 86q1 12 1 25q0 123 -52 303q-70 243 -348 346q-70 18 -146 18q-72 0 -110 -10 l-72 -19l-59 -24q-155 -63 -316 -279l-37 -63l-41 -86q-98 -312 -98 -535zM213 623v114q0 191 14 289q6 39 25 119q7 30 20 61l27 66q58 143 125 221q59 70 203 149q110 37 196 39h8q58 0 109 -14q176 -48 255 -237q16 -39 42 -142l12 -84l4 -84q1 -15 1 -31q0 -70 -15 -143 l-37 -186q-48 -151 -127 -289q-62 -109 -205 -213q-141 -74 -241 -76h-3q-88 0 -229 68q-63 46 -125 166q-10 25 -59 207z" />
<glyph unicode="P" horiz-adv-x="1141" d="M76 1749q0 -41 33 -41h235l4 -12l4 -15l-231 -1595l16 -10l43 -4q47 0 49 14l127 729q5 11 23 21l418 30q184 53 285 145q108 100 157 277l6 47l2 49v22q-1 147 -89 250q-96 111 -255 136h-794q-33 0 -33 -43zM395 983l101 711q65 18 161 18q93 0 103 -4l51 -6l78 -14 q147 -26 209 -144q38 -72 39 -147v-9q0 -270 -297 -380q-133 -49 -275 -52l-88 7q-36 3 -82 20z" />
<glyph unicode="Q" horiz-adv-x="1645" d="M94 776l2 -145l8 -53l15 -84l31 -91q32 -95 96 -163q25 -26 143 -121l49 -15l80 -12l139 -8h9q51 0 108 29l117 61q17 15 31 15q6 0 12 -3q85 -100 172 -100q33 0 41 -4h31l55 6q27 7 43 25l614 684q8 9 23 49q0 37 -45 39h-2q-26 0 -64 -33l-532 -590q-55 -61 -137 -67 l-37 6l-60 37l-18 28q3 24 18 51q10 25 41 60l125 186l98 258l21 86l6 70v94q0 211 -24 313q-26 111 -78 183q-122 168 -289 217l-57 8l-64 2h-13q-135 0 -259 -76q-86 -53 -219 -202q-47 -52 -74 -113l-64 -143q-21 -61 -75 -273l-13 -102zM199 768v23l2 96l12 80l43 174 l29 80q93 256 309 395l127 51q65 19 121 19q137 0 235 -113q150 -135 150 -508q-18 -154 -70 -317q-27 -85 -59 -146l-43 -82l-37 -57l-25 -43l-24 -31q-12 -12 -43 -12l-37 39l-29 43l-96 149q-33 51 -76 66q-13 0 -47 -37q0 -68 51 -143q114 -168 137 -222l-84 -47 q-53 -19 -92 -20h-17q-139 0 -208 31q-59 27 -123 114q-25 34 -59 127l-35 158q-12 55 -12 133z" />
<glyph unicode="R" horiz-adv-x="1577" d="M94 72q9 -6 35 -6q55 0 61 20l129 727q5 31 21 49l10 4l557 -760q9 -15 35 -24l59 -8l62 6q25 6 53 26l721 725l21 43q0 27 -35 29q-27 1 -51 -22l-691 -672q-32 -19 -55 -19q-11 0 -18 7l-508 663l-4 21l8 16l141 21l68 12l43 14l49 17l51 22q186 80 221 283l6 96l-2 72 q-1 32 -14 61q-17 75 -53 117q-79 128 -236 180h-643q-37 0 -37 -43q0 -41 37 -41h197q24 0 24 -33zM356 1001l4 25l107 666q59 18 121 18h30l56 -8l98 -19q141 -42 199 -200q15 -72 16 -129v-9q0 -122 -82 -210q-145 -156 -528 -156q-18 0 -21 22z" />
<glyph unicode="S" horiz-adv-x="1128" d="M86 256q12 -57 90 -98l82 -43l82 -23l111 -6h45q151 0 216 18q80 22 191 103q152 111 152 261v13l-2 43q-2 39 -17 68q-10 36 -24 61l-31 54q-9 22 -37 53l-41 45l-151 164q-72 78 -141 165q-70 88 -70 208q0 166 209 300q23 15 61 25l57 8q45 0 119 -24q163 -53 199 -54 h5q54 0 54 43q0 13 -10 23q-7 14 -33 25l-164 69q-81 34 -164 35h-6q-180 0 -310 -126q-132 -128 -132 -312q0 -129 66 -228l75 -112q11 -17 101 -115l170 -186q96 -105 96 -211v-13l-2 -40q0 -9 -14 -46q-26 -72 -91.5 -130t-138.5 -72l-78 -15l-84 -6q-11 -1 -23 -1 q-59 1 -137 21q-94 24 -151 60l-53 33q-27 17 -51 12q-25 0 -25 -49z" />
<glyph unicode="T" d="M104 1741q0 -45 56 -45l266 -2q54 -2 162 -4q67 -1 67 -31l-301 -1573q6 -10 17 -12l45 -4l41 2q11 1 14 14l311 1583q14 29 170 29h31l145 -2h168q46 0 52 47q0 49 -52 49h-1134q-58 0 -58 -51z" />
<glyph unicode="U" horiz-adv-x="1712" d="M112 353q0 -218 226 -267l37 -8l39 -2h9q101 0 265 110q109 74 236 207l59 62l47 59l8 4l2 -10l-22 -139l-4 -62q-1 -8 -1 -17q0 -30 9 -59q8 -27 39 -61q28 -46 113 -84l32 -2h8q66 0 150 59q51 36 129 119l530 563q25 27 25 49q0 25 -29 25q-21 0 -71 -37l-672 -667 l-35 -9q-63 0 -97 51q-30 45 -30 111l12 94l27 111l266 1192l-12 35l-37 14q-31 0 -43 -31l-246 -1028l-30 -53q-30 -53 -82 -100l-138 -125q-76 -68 -204 -170q-56 -34 -123 -62q-68 -17 -119 -20q-42 8 -70 16q-39 12 -63 41q-49 59 -49 162q0 36 8 78l238 1245q2 4 2 8 q0 12 -13 23q-12 15 -43 18q-33 0 -39 -29l-221 -1140l-16 -146l-6 -102q-1 -13 -1 -26z" />
<glyph unicode="V" horiz-adv-x="1434" d="M86 106q0 -30 14 -30l31 10l1423 1393q80 78 146 133q20 16 166 90q12 6 12 31l-6 24q-18 18 -55 21l-39 -6l-23 -9q-131 -74 -299 -243l-1235 -1237l244 1419l-6 57q-16 13 -33 13l-20 -5q-11 -5 -48 -133z" />
<glyph unicode="W" horiz-adv-x="2275" d="M91 110q0 -24 36 -24q8 -2 15 -2q16 0 30 10l55 66l1071 1333q13 -12 13 -33l-8 -43l-236 -1341l25 -10q18 0 38 20l41 41l43 55q23 31 78 101l1065 1282q25 30 62 61l108 90l2 13v10q0 24 -18 43l-33 8l-24 -6q-37 -14 -89 -68l-75 -78l-1073 -1284l-11 8l27 162 l211 1172l-6 71l-27 17q-5 3 -11 3q-7 0 -16 -5l-1146 -1428l-7 2l11 76l233 1282q0 29 -10 47q-6 6 -47 11q-33 -14 -43 -68l-283 -1587q-1 -4 -1 -7z" />
<glyph unicode="X" horiz-adv-x="1855" d="M86 113l4 -11l8 -12l29 -4q21 0 37 16l59 60l600 612l25 -18l43 -117l250 -475q18 -34 39 -49l57 -29l74 -10q48 0 71 10l41 18l39 25l68 59l604 623q17 17 20 53q-6 25 -32 31q-22 -5 -84 -49l-68 -66l-477 -504l-76 -61q-42 -27 -88 -29q-32 -1 -41 4l-35 21 q-17 10 -36 37l-314 602q0 10 4 12l15 23l718 823l11 47q-5 12 -31 35q-25 0 -49 -21l-39 -34l-643 -721q-6 0 -12 6q-4 3 -17 12l-264 711q-12 33 -29 43q-5 1 -10 1q-20 0 -41 -18q-12 -18 -12 -36l4 -27l8 -27l268 -774l-20 -28l-39 -48l-600 -630q-36 -38 -39 -86z" />
<glyph unicode="Y" horiz-adv-x="1749" d="M139 215q3 -13 17 -37q51 -112 204 -112h48l20 4l78 18q141 32 233 121q71 68 250 299l246 383q3 2 6 2q6 0 23 -8l-2 -49l-15 -91l-43 -194l-41 -217l-16 -109q-14 -98 -45 -139l-338 -250l-64 -57q-50 -55 -102 -139l-23 -66l-10 -68q0 -52 43 -118q69 -76 156 -82 l29 -2h11q58 0 118 39q41 20 102 100q74 97 100 219l50 154l36 182q0 43 62 86q30 21 92 66l133 104l143 119l265 272q57 59 149 168q0 51 -10 61l-25 7l-32 -13l-370 -369q-45 -47 -153 -151q-89 -80 -200 -131l-11 8v8l17 78l166 928q21 115 57 254q29 111 29 190v31 l-4 33l-23 35l-20 4q-22 0 -37 -10l-29 -99l-23 -92q-19 -97 -71 -305q-25 -82 -109 -231l-125 -220l-174 -274q-95 -150 -209 -258q-48 -45 -143 -102q-72 -43 -164 -48l-45 5q-62 18 -88 71l-16 47q-7 33 -11 74q0 24 13 102l215 1293q0 12 -15 26l-32 11l-27 -4l-27 -68z M678 -506q0 154 141 273l256 174q4 3 7 3t5 -5l-2 -23l-22 -117l-25 -80q-24 -77 -80 -188l-61 -98q-26 -27 -104 -29h-3q-75 0 -112 90z" />
<glyph unicode="Z" horiz-adv-x="1669" d="M86 127q10 -20 33 -31l43 -10q179 74 341 74h21l66 -2q81 -2 155 -25l154 -47q66 -20 174 -20h68l26 4q38 0 50 16l694 743l14 43q0 31 -33 31q-46 0 -88 -45l-544 -579q-49 -52 -91 -62l-51 -12l-59 -4h-58l-47 8l-86 12q-315 44 -403 44q-23 0 -45 -1l-43 -2 q-12 -1 -23 10q0 17 35 60l1127 1399q0 15 -15 36q-6 19 -24 25h-1028q-13 0 -25 -17.5t-12 -31.5l12 -29l20 -22h865q29 0 41 -9l-7 -16l-1032 -1253q-17 -29 -127 -138q-80 -79 -98 -149z" />
<glyph unicode="[" horiz-adv-x="541" d="M133 -410v1866h332v-119h-191v-1630h191v-117h-332z" />
<glyph unicode="\" horiz-adv-x="569" d="M0 1456h119l499 -1646h-120z" />
<glyph unicode="]" horiz-adv-x="541" d="M76 -293h190v1630h-190v119h332v-1866h-332v117z" />
<glyph unicode="^" horiz-adv-x="2048" d="M422 901l532 557h140l530 -557h-143l-457 455l-459 -455h-143z" />
<glyph unicode="_" d="M0 -383h1024v-100h-1024v100z" />
<glyph unicode="`" d="M276 1597h152l209 -350h-92z" />
<glyph unicode="a" horiz-adv-x="1180" d="M-19 371l25 -119l24 -66l37 -45q32 -30 45 -30q18 -18 47 -27l58 -8l67 6l33 8l37 21l27 14q35 18 61 45l47 49q0 -17 29 -57l24 -33l11 -12q12 -19 38 -31l50 -10q85 0 129 43l243 235q38 36 150 155q142 149 299 361l14 33q0 22 -35 23q-37 1 -51 -23l-203 -217 l-227 -231l-188 -199l-60 -49q-22 -18 -67 -21l-17 7q-13 10 -18 28l-4 43v39l80 633l-31 4q-26 0 -37 -16l-6 -29l-4 -12l-8 -15l-15 -4h-14q-8 2 -27 28.5t-41 31.5l-49 10l-61 4q-12 1 -24 1q-58 0 -105 -21q-33 -15 -107 -72q-42 -44 -84 -101q-20 -27 -57 -120l-14 -35 l-15 -53l-6 -97v-69zM75 448q0 39 7 54l6 37l12 32q8 21 27 56q89 184 163 202q53 18 95 21l55 -6q24 -6 49 -31l37 -57q19 -80 20 -111v-7q0 -93 -51 -210q-42 -96 -96 -156l-37 -34l-37 -31q-31 -26 -76 -26q-9 0 -18 1q-67 0 -102 35l-45 94l-7 88q-2 28 -2 49z" />
<glyph unicode="b" horiz-adv-x="1130" d="M156 555q0 -67 12 -158l6 -45q2 -10 10 -33l31 -79l61 -84q25 -35 86 -58l21 -8h61l74 2q24 3 55 21q60 35 93 69l34 43q20 26 33 60q39 70 45 121l10 79l13 123l4 84l-2 31l-2 6l-4 6q24 -38 102 -96q76 -39 211 -41h3q60 0 131 42q20 11 80 62l48 40l54 53l43 49l-7 53 v6q0 1 -1 1q3 -11 -25 9l-10 3l-55 -42q-23 -18 -52 -42l-39 -33l-53 -47q-26 -23 -109 -47l-28 -3q-100 0 -199 84l-80 68l-88 90l-6 2l-23 8l-24 -36l-6 -46l28 -145l8 -92l2 -49l-2 -66q-1 -43 -8 -69l-14 -54l-23 -53q-44 -102 -168 -147l-30 -2h-9q-69 0 -126 69 q-46 67 -56 127l-12 70l-4 78l6 96q3 54 12 117l17 45l30 55l236 240l65 73q136 152 185 353q8 33 8 73q0 68 -33 123q-19 32 -47 37l-72 14q-52 0 -100 -41q-19 -16 -76 -84q-27 -32 -67 -94l-90 -190l-17 -58q-6 -32 -20 -55l-86 -334q-42 -164 -45 -344v-10zM322 995 q7 51 24 105l55 174q26 82 93 205q48 88 147 178l18 6q45 0 56 -72l-6 -39l-9 -32q-41 -145 -151 -287q-62 -80 -217 -240l-8 -6z" />
<glyph unicode="c" horiz-adv-x="819" d="M38 416l6 -92l8 -41l15 -43q21 -60 94 -127l43 -19l47 -8q74 0 129 18l27 13l30 16l82 55q229 254 574 672q26 31 26 62q0 28 -32 28q-43 0 -74 -47l-279 -315l-137 -172q-43 -54 -147 -168q-73 -61 -168 -64l-41 4q-51 19 -90 86q-21 59 -23 150v11q0 152 82 300 q95 115 227 121l119 -25l70 -10q12 12 12 29l-2 16q0 15 -4 19q-69 55 -188 55q-103 0 -148 -22q-57 -20 -123 -80q-42 -50 -69 -103l-50 -133l-10 -100z" />
<glyph unicode="d" horiz-adv-x="1194" d="M-5 354q0 -59 13 -123q7 -35 45 -88q23 -32 74 -57l49 -14l75 -6q13 -1 26 -1q54 0 91 21l72 64l70 69l14 6l10 -4l35 -67l37 -68q18 -18 78 -18q66 0 96 20l383 389q12 18 377 389l16 35q0 25 -39 27q-31 1 -53 -21l-350 -350l-353 -340q-25 -24 -61 -24l-20 2 q-15 7 -25 22l-14 27l-2 28l6 45l12 45l23 136l18 63l68 248l112 438q49 191 53 475l-12 -4l-29 4q-28 0 -51 -36l-174 -787q0 -11 -14 -14q-38 6 -49 26q-58 37 -154 37q-102 0 -176 -35q-90 -66 -136 -125.5t-93 -164.5l-35 -146q-13 -54 -13 -123zM98 350v51l8 78 q6 56 27 84q38 167 155 236l27 16l45 19q28 12 80 12h22l45 -10q17 0 54 -33l41 -64q7 -18 10 -59l-4 -43l-8 -41l-45 -127q-24 -67 -62 -123q-61 -70 -108 -106q-65 -50 -138 -62q-104 0 -143 107q-6 16 -6 65z" />
<glyph unicode="e" horiz-adv-x="918" d="M-4 309l4 -33q24 -107 151 -190q30 -15 86 -16h13q59 0 86 16l80 33q31 13 82 51l155 143l291 277l291 284l8 19l-6 12l-12 13l-37 14l-33 -12l-227 -226l-228 -219l-227 -205l-66 -47l-61 -33q-67 -24 -113 -24q-99 0 -145 170v61q0 27 16 43l33 -6q13 0 53 -33l35 -2 h10q94 0 197 105q36 37 78 133q23 97 26 162q-32 139 -155 143h-5q-29 0 -57 -10l-47 -17l-30 -14q-43 -20 -91 -76l-32 -49l-33 -57q-90 -155 -90 -357v-53zM158 596q0 53 34 104q24 47 70 91q55 51 98 53h1q36 0 77 -64l2 -28v-6q0 -25 -14 -66l-16 -47l-19 -33l-33 -35 l-35 -30q-40 -27 -90 -29h-3q-20 0 -38 14l-30 45z" />
<glyph unicode="f" horiz-adv-x="778" d="M-139 -686l2 -27l45 -16q25 0 45 27l65 292l27 136l78 308q22 80 39 111l61 11q37 0 56 6q37 0 96 18q11 3 65 33q3 2 95 63l170 166l313 342q25 28 25 59q0 7 -1 13q-6 17 -26 21q-22 0 -49 -21l-406 -414q-43 -57 -100 -92l-113 -69l-57 -7l-43 -4q-18 0 -53 13l-5 30 l5 52l6 41l26 149l29 150l27 118q7 30 57 78q104 100 197 209q134 157 176 244q30 41 63 131q19 76 23 153q-12 51 -35 74q-17 30 -64 51l-65 11q-58 0 -133 -43q-69 -55 -99 -113l-32 -62l-27 -79l-94 -326l-43 -164l-39 -168q-17 -72 -55 -327l-9 -60l-14 -59 q-7 -30 -31 -54q-18 -3 -52 9t-48 12q-15 0 -31 -10q-23 -19 -26 -56l2 -20q13 -20 63 -37q50 -12 68 -43l-2 -45l-10 -76l-156 -676zM354 1094l6 51l50 192q61 233 145 308q35 24 70 24q20 0 37 -8q30 -34 30 -76q0 -23 -12 -65l-18 -45l-25 -45l-123 -179 q-57 -68 -149 -157h-11z" />
<glyph unicode="g" horiz-adv-x="1167" d="M-8 352q0 -35 4 -43q0 -30 4 -41l12 -49q31 -79 125 -149q19 -8 56 -8q14 0 30 1l113 7q43 3 86 26l45 51q5 11 49 46l10 -3l4 -34q0 -47 -14 -86l-16 -62q-62 -88 -314 -250q-82 -75 -106 -106q-47 -60 -51 -127l-2 -31v-15q0 -96 86 -157l43 -18l45 -6l55 2q17 1 47 14 q88 24 150 141l63 174l31 127l28 148q15 26 62 82l139 116l70 56l55 49l117 115l256 266q110 114 229 278l-6 23l-6 14q-3 3 -14 3q-7 0 -17 -1l-12 -6l-16 -12q-50 -38 -138 -131l-127 -135l-159 -177l-172 -165q-30 -36 -86 -80l-91 -72q-10 -4 -17 -4q-9 0 -13 6l-8 43 q0 74 30 178l39 135l37 179l18 116l11 33l8 68q0 32 -4 39l-8 4l-33 6q-19 0 -23 -4l-16 -39q-10 -24 -35 -27q-16 5 -72 47q-36 27 -77 29l-43 2l-29 2q-13 1 -26 1q-87 0 -142 -42q-264 -201 -264 -504v-43zM94 311v129l8 35q84 367 299 367h25l37 -8q82 -18 115 -54 q32 -37 32 -108v-13l-2 -49v-47q-14 -58 -37 -104l-55 -113q-91 -186 -242 -192l-51 6q-51 12 -73 41q-18 25 -56 110zM133 -502q0 43 37 103q23 38 86 86l90 69l53 37l43 25h5q14 0 14 -17l-2 -20l-37 -137l-25 -72l-28 -61q-25 -53 -56 -80q-36 -37 -88 -37 q-27 0 -56 21.5t-32 47.5z" />
<glyph unicode="h" horiz-adv-x="1354" d="M86 84h88q44 165 119 281l80 124q42 65 96 121l115 119q57 59 137 86l20 2q45 0 58 -82q0 -59 -11 -82l-6 -37l-12 -45l-22 -77l-19 -99l-12 -102l-4 -100q9 -69 41 -109q6 -20 65 -23l64 7q26 6 39 16l65 51l62 64l372 399q132 142 193 190l31 39q12 26 12 50 q0 17 -27 26q-19 -6 -69 -43l-103 -92l-98 -111l-326 -348q-75 -80 -188 -114q-6 0 -12 6q-5 2 -17 14q0 73 25 203q51 267 53 330v7q0 44 -12 109q-30 72 -123 78l-66 -2l-51 -31q-30 -18 -43 -39q-112 -98 -166 -163l-155 -187l-7 12q0 84 19 162l39 160q31 73 98 162 l137 180q82 107 111 162l26 67l33 80l10 66l5 51q0 63 -23 100q-17 42 -80 56l-35 4q-166 0 -245 -264l-31 -103l-27 -119l-80 -401l-63 -383l-33 -158zM385 1147l12 86l17 88l55 199l18 41l15 32l26 35l31 25q17 17 41 20q18 0 35 -28l10 -68q0 -99 -86 -231l-84 -129 l-31 -54q-20 -35 -57 -41z" />
<glyph unicode="i" horiz-adv-x="754" d="M83 178q1 -22 21 -54q24 -38 48 -38q27 -18 94 -18q54 0 100 18l21 23l677 708q43 45 43 88l-8 23l-45 -6l-39 -25q-146 -167 -329 -354q-130 -133 -342 -336q-22 -13 -64 -27q-29 0 -51 23l-6 12l-10 43l6 45l8 37q22 81 67 295l29 160l10 112l-2 27l-24 16l-27 -2 q-27 -13 -37 -35l-16 -63l-62 -303l-61 -361q-1 -4 -1 -8zM238 1255q0 -29 24 -55q26 -20 64 -22h3q32 0 52 18q15 14 33 59q0 30 -28.5 53.5t-59.5 24.5h-3q-28 0 -57 -18q-13 -13 -28 -60z" />
<glyph unicode="j" horiz-adv-x="727" d="M-304 -516q0 -88 63 -141q13 -17 68 -39l96 -9q86 20 137 93l51 157l27 240q23 205 133 287q121 90 266 231l256 248l285 291q12 18 12 41l-6 26q-4 19 -33 19q-72 -61 -264 -234l-264 -250l-248 -241q-20 -19 -28 -21l-23 6l6 64l19 106q18 71 55 265l45 292l-6 17 l-19 6l-30 4l-37 -4l-86 -453q-7 -43 -27 -143l-18 -172q-10 -99 -68 -160l-213 -225q-102 -108 -145 -264zM-202 -508l6 45l19 45q43 68 118 170l43 45l54 47l16 -10l-25 -190q-13 -99 -55 -191q-18 -63 -90 -65h-2q-35 0 -63 28q-18 41 -21 76zM273 1229q0 -37 24.5 -61.5 t61.5 -24.5q31 0 57.5 27.5t26.5 58.5t-26.5 58.5t-57.5 27.5q-36 0 -61 -25t-25 -61z" />
<glyph unicode="k" horiz-adv-x="1284" d="M98 86h99q18 32 24 76l12 94q20 156 109 288q92 137 229 206l82 41l43 14q37 12 52 12q26 0 32 -4q14 0 31 -14q39 -17 39 -53q0 -29 -29 -68q-18 -32 -45 -49l-129 -19q-28 0 -49 -8l-53 -14q-81 -21 -109 -66q26 -99 119 -225l156 -211l26 -16l41 -7q63 0 86 23 l135 133l308 324l129 127l112 114l66 82q0 23 -15 31l-22 2q-12 0 -51 -18l-45 -37l-174 -166l-162 -164l-250 -268q-55 -49 -111 -49q-25 18 -108 116l-86 138q0 14 4 18l192 49q109 41 148 127l18 55l9 56q0 29 -13 55l-24 37l-33 39q-35 42 -70 51l-53 6q-28 0 -84 -18 l-70 -35q-52 -26 -147 -88l-131 -105l-10 7l-2 26q-1 7 -1 15q0 92 93 172l43 49l65 84l107 149l96 152l41 96l25 70q6 33 12 59q1 15 4 47q0 53 -10 74q-40 85 -105 92l-39 4q-63 0 -137 -53q-84 -100 -135 -250l-109 -473q-28 -113 -94 -453zM412 1104q6 59 24 141l29 129 l63 195l31 53l43 45l45 21q25 0 49 -33l4 -45q0 -70 -30 -135l-23 -50l-43 -73l-84 -129q-48 -74 -96 -119h-12z" />
<glyph unicode="l" horiz-adv-x="872" d="M92 359q0 -54 25 -140q24 -81 76 -133l34 -16l52 -7q70 0 110 23l47 27l47 32l92 66l209 205l203 215l189 213q12 21 12 37q0 29 -41 32q-54 -22 -119 -92l-61 -65l-181 -199q-281 -309 -462 -369q-60 0 -97 60l-14 67l-4 101l2 125l2 41l12 57q0 123 103 231l241 252 l54 72l118 192q62 101 62 213q0 57 -25 117q-50 68 -127 68l-28 -4q-50 -7 -134 -80l-92 -123l-41 -92l-39 -96l-71 -197l-72 -262l-37 -158l-31 -209l-10 -102l-4 -94v-8zM313 1012l27 121l14 38l41 115l56 150l67 129q38 72 103 104l18 4q23 0 43 -20q11 -18 14 -54 l-4 -38l-8 -39q-111 -296 -360 -514z" />
<glyph unicode="m" horiz-adv-x="1933" d="M86 86h104l39 133q47 161 197 332q79 90 285 256q31 10 53 14q33 0 43 -33l4 -32v-31l-102 -457l-33 -182h106q19 98 58 180l37 78l53 90q21 35 78 125q104 155 299 262q38 0 55 -20l8 -60l-2 -55l-12 -57l-33 -123q0 -28 -8 -49l-45 -176l-4 -60l6 -82q6 -26 37 -53 l32 -14l39 -6q43 0 72 20q98 40 188 131l101 102q92 90 330 328q9 9 71 78q36 40 117 133l-6 39q-29 15 -45 18l-64 -51l-49 -45l-108 -104l-166 -180l-170 -173l-125 -122q-49 -37 -99 -37l-20 2q-26 14 -29 69l2 35q2 28 17 56l18 75l33 111l35 229q0 51 -13 86 q-6 31 -45 70l-63 10q-27 0 -66 -8q-93 -48 -200 -139q-49 -42 -174 -172l-9 26l5 27l4 29l6 53l4 49q3 34 -8 61q-18 69 -123 72h-7q-40 0 -63 -10q-27 -7 -82 -41q-43 -27 -125 -94l-61 -62l-115 -131l-6 -4l-14 16q0 51 24 170l17 84l10 76h-92z" />
<glyph unicode="n" horiz-adv-x="1405" d="M91 86h96l17 43l26 78l43 133q70 119 190.5 243.5t235.5 194.5l58 35q20 12 47 12q22 0 37 -16l8 -55l-4 -41l-15 -74l-16 -86l-68 -303q0 -55 37 -131l33 -33q18 -18 53 -18q27 0 70 18l59 31l56 39q57 40 131 116l155 160l273 293l59 57q32 31 43 72l-6 16l-6 13l-23 4 q-36 0 -78 -37l-55 -49l-94 -96l-342 -353l-148 -139q-30 -18 -57 -18q-17 0 -31 6q-6 6 -20 47l2 28l8 39l98 463v23l-4 26q0 12 -14 47q-20 49 -51 58l-58 10q-54 0 -100 -29l-94 -59l-84 -55l-76 -64q-76 -64 -86 -84l-45 -55q-20 -20 -35 -20q-4 0 -8 2l-2 24 q-3 36 4 43l4 31l43 174l19 98h-99z" />
<glyph unicode="o" horiz-adv-x="895" d="M-12 436q0 -62 18 -151l43 -88q7 -14 55 -64l66 -35q41 -12 80 -12h131q33 0 83 36q24 17 52 54l33 43l39 68q20 51 43 137l71 272l33 -14l60 -35l57 -14l61 -4h25l27 4l49 16q53 17 100 90l74 115l2 25q1 17 -6 24l-27 12h-20q-33 -22 -93 -106q-39 -55 -116 -88h-41 q-34 3 -45 10l-35 14q-23 9 -37 23q-9 2 -41 49l-10 41l-2 47q-1 27 -12 43h-50q-12 -27 -37 -74q-23 0 -79 37l-50 21l-51 12l-53 4l-37 -2l-51 -6q-36 -4 -61 -20l-82 -64q-111 -108 -154 -301q-12 -54 -12 -119zM87 399q0 11 1 21l6 76l19 82l28 94q13 44 52 88 q75 85 204 88q40 -5 103 -31q49 -20 84 -65l4 -52l-2 -65q0 -7 -15 -66l-32 -127q-9 -34 -25 -67l-31 -62q-20 -41 -63 -75q-33 -26 -101 -45l-71 6l-103 49q-58 69 -58 151z" />
<glyph unicode="p" horiz-adv-x="1303" d="M-38 -680q11 -9 41 -22q22 0 43 16l168 879q30 159 172 313l149 162l134 114q47 31 94 37q18 -6 33 -41l-3 -55l-12 -72l-10 -65l-6 -27l-64 -371l6 -59q8 -20 37 -43l43 -18l47 -9q36 0 84 27q132 114 254 242l129 135q58 61 99 119l217 245q12 23 12 41q0 31 -47 47 q-11 0 -53 -24l-420 -488q-30 -23 -94 -102q-86 -106 -179 -139q-25 0 -36 28q0 91 30 244l49 250l11 92q0 46 -13 92q-10 53 -34 80q-25 19 -56 19q-14 0 -59 -19l-35 -20l-39 -27l-82 -74l-141 -135l-100 -112l-31 -25l-8 4l-4 37q0 74 45 338q0 45 -33 45q-13 0 -25 -8 q-8 -4 -28 -37l-52 -268l-26 -174l-39 -224l-14 -65q-16 -76 -33 -137z" />
<glyph unicode="q" d="M-14 346q0 -84 53 -182q18 -33 53 -49l41 -19l53 -12l54 -4l57 2l53 14l72 51l41 31l31 21l4 -17q-1 6 -33 -170l-121 -667q0 -45 37 -47h1q26 0 58 45l131 661q4 20 19 66l41 43l725 753q3 9 3 17q0 41 -54 47q-20 0 -33 -8l-535 -572q-45 -48 -75 -51l-17 4l-6 49 q0 44 18 92q20 67 56 252l16 121l10 98q-6 25 -43 27q-23 1 -47 -10l-4 -33l-20 -18q-25 0 -39 20q-6 19 -29 33q-65 18 -122 18h-11l-64 -2l-24 -2l-49 -14q-28 -8 -37 -14l-47 -31q-77 -51 -135 -193l-29 -71l-25 -78l-26 -146l-2 -43v-12zM98 362v60l21 102q11 56 20 68 q32 80 80 162q81 90 191 96q103 -12 161 -94q19 -39 19 -84v-37l-8 -27l-21 -65q-7 -33 -37 -94l-51 -103l-49 -63l-64 -62q-76 -49 -108 -49q-28 0 -96 33q-19 9 -47 63l-9 41z" />
<glyph unicode="r" horiz-adv-x="850" d="M86 86q18 -18 51 -18q31 0 49 18l2 64q1 17 5 34q1 9 16 60l27 94q38 134 135 278l73 109q35 52 103 70q13 -54 61 -121q25 -36 84 -60l64 -18l65 -8q126 0 230 149q46 66 73 119l6 25q0 41 -45 41l-28 -23l-33 -37l-109 -127l-38 -26l-23 -9l-20 -6l-35 2l-60 15 q-46 12 -92 100l-67 129l-23 8q-25 0 -43 -24l-178 -174q-11 0 -14 22l4 39q0 74 -7 109l-16 14l-24 8l-31 -6q-19 -16 -25 -66q0 -49 -8 -65l-6 -84l-6 -55l-10 -41z" />
<glyph unicode="s" horiz-adv-x="725" d="M25 670q0 -31 34 -31q29 0 52 23l155 155l56 -121l28 -75l19 -62l10 -37q3 -6 3 -12q0 -7 -3 -16l-41 -37l-37 -23q-40 -25 -90 -90q-36 -47 -39 -102l12 -58q32 -56 60 -75l32 -13l60 -16l26 -2q9 -1 18 -1q43 0 79 17q31 14 65 62l21 59l8 72v24q0 27 -4 33l-17 43 l-8 53l6 27l277 182q128 84 231 217l9 33q0 39 -35 41q-17 1 -37 -16l-203 -176q-85 -73 -280 -187l-15 -2h-8l-72 219q-67 203 -93 203h-1q-34 -8 -115 -104l-69 -82l-80 -84q-11 -11 -14 -41zM270 238l6 26q14 40 66 80q24 18 64 39q1 1 3 1q6 0 19 -15l12 -43l6 -41 q0 -81 -102 -109q-30 0 -53 17z" />
<glyph unicode="t" horiz-adv-x="1118" d="M203 897q0 -39 45 -41h2q39 0 72 33l397 553q30 56 58 71v-34l-23 -84l-80 -305l-14 -66l-25 -78l-121 -461q-19 -73 -43 -120q-4 -1 -10 -1q-28 0 -86 29q-54 27 -108 43q-37 0 -37 -28q0 -13 14 -35l119 -70l88 -39l-19 -94l-10 -57q12 -19 49 -21h3q28 0 36 17l25 88 q3 9 24 47q82 0 197 45q88 35 229 149l177 144l84 82q150 147 184 233l2 23q-11 14 -43 20l-33 -12l-106 -115l-109 -108q-152 -151 -268 -228q-140 -93 -285 -143l37 139l33 139l16 78l35 133l37 135l106 416q11 53 41 195q8 38 41 209q-5 11 -30 26l-7 -2l-34 -22 l-658 -862z" />
<glyph unicode="u" horiz-adv-x="1376" d="M121 268q0 -32 6 -57q6 -27 39 -70l53 -37q34 -16 68 -18l35 -2h10q49 0 123 27l49 18q8 4 26 16q4 2 29 25l64 57l71 82l8 -4l19 -121l24 -75q13 -24 86 -27l70 6q32 6 47 16l467 478l258 276l15 31q0 24 -50 29q-30 0 -43 -17l-663 -676q-37 -18 -68 -18q-17 0 -41 20 q-7 14 -10 56l2 28l4 29l123 559q4 16 -8 25l-37 12q-31 0 -43 -25q-14 -52 -74 -225q-7 -19 -35 -84q-52 -118 -190 -299q-37 -49 -100 -86q-52 -31 -100 -31h-11l-29 2q-57 17 -73 39l-15 31l-2 39l2 74l121 532q1 3 2 7q0 11 -14 18l-43 8q-15 0 -39 -12l-18 -68 l-48 -199l-30 -155l-29 -115l-6 -47l-2 -55v-17z" />
<glyph unicode="v" horiz-adv-x="1108" d="M94 327q0 -104 58 -161q50 -49 163 -80l33 -2h13q165 0 323 235l70 138q59 116 73 184l11 53q5 24 22 27l51 -47l56 -45l77 -29q32 -12 76 -12q92 0 131 47l41 49q11 10 66 82l47 106q4 8 4 15q0 9 -6 18q-9 19 -29 19l-18 -6q-18 -13 -39 -46l-29 -47l-26 -41l-33 -39 q-29 -35 -68 -49l-33 -4q-17 0 -65 13l-66 32q-32 21 -77 84l-46 103l-34 10l-41 -2q-16 -35 -43 -148l-33 -139q-21 -90 -66 -166l-43 -73q-24 -41 -57 -87q-48 -52 -104 -94l-62 -24l-67 -8l-60 26q-17 7 -39 43q-8 26 -14 70q0 33 4 39l113 551l-15 16q-6 6 -34 6 q-44 0 -60 -22l-80 -336q-44 -184 -45 -252v-7z" />
<glyph unicode="w" horiz-adv-x="1503" d="M100 279q0 -83 35 -127q38 -38 117 -62l31 -4l47 4l63 12q15 3 90 68q56 62 86 74l6 -4l46 -72q21 -33 61 -62l47 -14l53 -4h12q61 0 144 43q82 65 176 209q15 35 43 102l47 154l8 59l19 62q3 2 6 2q22 0 82 -53l35 -31q93 -36 131 -39l26 2q14 1 50 10q27 7 88 62 l145 190l6 21q0 37 -49 37l-29 -13q-65 -97 -168 -182q-30 -25 -79 -25l-17 2q-78 28 -126 87q-36 42 -79 135q0 20 -39 22q-36 1 -43 -22l-22 -72l-19 -82l-14 -80l-6 -82q-45 -166 -104 -268q-33 -57 -123 -119q-45 -12 -92 -20q-50 0 -86 30q-16 16 -25 45l-8 58l4 37 l51 270l61 285q3 4 3 7q0 7 -11.5 12t-40.5 5q-39 0 -43 -16l-63 -252l-37 -137l-39 -115q-7 -22 -31 -63l-41 -56l-88 -90q-65 -36 -114 -39q-27 10 -60 45l-12 35l-4 47l4 62l12 69l80 490l-14 6q-14 6 -37 6q-37 0 -43 -12l-100 -555z" />
<glyph unicode="x" horiz-adv-x="1174" d="M84 110q0 -8 8 -24l45 -8q21 0 37 8q157 169 326 332l30 14q15 -16 111 -153l135 -193l39 -8l25 2l8 8l-227 436q12 35 47 70l161 162q36 36 72 39l98 -95q63 -61 109 -73q53 -13 85 -13h5l45 2q20 3 33 15q23 10 92 84l92 98q8 11 13 31v33l-25 12l-29 6q-13 -5 -57 -43 l-82 -96l-29 -29q-13 -13 -28 -18l-37 -4q-58 0 -94 34q-11 4 -91 86l-38 58l-33 43q-7 7 -29 8l-37 2q-29 -38 -114 -127l-127 -119l-35 -37q-3 -3 -41 -16q-36 17 -101 139q-73 137 -100 164l-53 4q-19 -16 -19 -43l2 -20q14 -65 82 -164l103 -150l4 -37 q-32 -58 -129 -155q-171 -171 -250 -260q-2 -2 -2 -5z" />
<glyph unicode="y" horiz-adv-x="1339" d="M154 276q0 -103 68 -153l57 -27l68 -8q84 0 203 96q25 20 160 187l36 32l-12 -88q-1 -7 -45 -297q-28 -35 -119 -118l-207 -189q-118 -108 -118 -235v-45l8 -33q35 -84 78 -115q16 -9 118 -16l29 -2h12q106 0 154 129l47 125l86 395q7 55 29 74l96 82l186 176l211 211 q125 125 367 407l10 23q0 17 -16 28l-25 17l-22 4q-13 0 -21 -8l-758 -776l-6 6q0 107 31 291q69 410 72 491l-25 6l-37 -2l-16 -33l-14 -51q-49 -179 -158 -360q-95 -157 -264 -281q-28 -11 -70 -20q-78 0 -90 55l-4 61l106 580l-6 33l-67 2q-5 0 -29 -45l-10 -45l-52 -240 l-30 -174l-10 -125q-1 -13 -1 -25zM357 -526q0 98 90 188l179 143q12 0 16 -4l-6 -92q-1 -20 -8 -43l-15 -51l-59 -178q-32 -62 -105 -62q-32 0 -49 9q-11 5 -35 34z" />
<glyph unicode="z" horiz-adv-x="981" d="M-183 -549q0 -53 10 -74q5 -21 43 -59q41 -24 119 -27l69 19l31 14l33 21q68 43 98 96l103 145q52 73 80 158q21 26 47 172q0 109 51 160l766 764q24 24 24 47q0 37 -51 39q-32 1 -57 -23l-756 -741l-82 65l-26 19l-23 12l-16 23l129 110q112 95 164 213q12 47 12 94 q0 78 -49 156l-52 49q-32 30 -98 43h-92l-43 -2q-20 -1 -33 -14l-12 -12q-12 -12 -12 -29q0 -19 26 -45l94 4h7q77 0 131 -64q32 -38 32 -90q0 -48 -38 -110l-41 -52l-39 -45q-47 -54 -154 -116l-168 -97q-23 -13 -26 -36q0 -15 14 -43l129 -13q68 0 119 -51l18 -33 q12 -18 12 -30l-2 -13l-319 -280q-79 -87 -117 -148q-55 -88 -55 -176zM-79 -549q0 76 64 168q21 30 133 139q51 49 143 129q48 34 68 34q8 0 12 -5q0 -159 -123 -309l-133 -162q-25 -38 -96 -59q-31 0 -68 65z" />
<glyph unicode="{" d="M174 477v109q35 0 45 -2q142 0 200 71q52 63 52 209v242q0 212 62 287q69 84 274 84h47v-107h-37q-137 0 -183 -59q-40 -51 -40 -195v-242q0 -146 -32 -216q-42 -92 -165 -128q122 -34 165 -128q32 -70 32 -216v-241q0 -142 37 -192q44 -60 178 -62q29 0 45 2v-107h-47 q-205 0 -274 83q-62 74 -62 286v244q0 146 -52 209q-58 71 -200 71q-31 0 -45 -2z" />
<glyph unicode="|" d="M459 -483v2048h108v-2048h-108z" />
<glyph unicode="}" d="M172 -307h39q137 0 182 58q39 50 39 194v241q0 152 30 217q42 92 167 127q-124 35 -166 128q-31 68 -31 216v242q0 144 -36 194q-44 60 -179 62q-29 0 -45 -2v107h47q205 0 274 -84q62 -75 62 -287v-242q0 -146 52 -209q58 -71 200 -71q33 0 45 2v-109q-35 0 -45 2 q-142 0 -200 -71q-52 -63 -52 -209v-244q0 -211 -63 -286q-69 -83 -273 -83h-47v107z" />
<glyph unicode="~" horiz-adv-x="1706" d="M178 471v113q211 145 387 145q101 0 272 -61q5 -2 18 -7l21 -7l10 -4q150 -60 257 -60q165 0 387 160v-113q-201 -142 -387 -143q-95 -1 -260 57q-9 3 -29 10l-16 6q-169 63 -273 64q-158 1 -387 -160z" />
<glyph horiz-adv-x="2159" d="M4 764l66 174h229l-4 86l2 82h-293l72 172l252 2q64 266 268 467q133 131 322 219q106 49 194 62l98 14l109 6q188 10 398 -85q193 -87 339 -230l-74 -177q-189 221 -477 295q-85 22 -186 23q-150 2 -330 -68l-71 -37l-74 -43q-57 -33 -125 -102q-129 -131 -211 -344 h1358l-72 -174h-1321l-4 -82l4 -86h1243l-67 -172l-1139 -2q130 -377 477 -524q152 -64 332 -66q393 -3 661 318l5 6l-3 -250q-165 -140 -311 -185l-78 -24l-114 -27q-51 -12 -160 -12q-413 0 -723 301q-177 172 -268 463h-324z" />
<glyph unicode="&#xa0;" />
<glyph unicode="&#xa1;" horiz-adv-x="588" d="M223 0v1075h142v-1075h-142zM223 1190v266h142v-266h-142z" />
<glyph unicode="&#xa2;" horiz-adv-x="1157" d="M70 723q0 219 125 378q128 163 342 197v211h133v-206q350 -40 450 -394h-147q-85 271 -365 271q-178 0 -290 -143q-103 -131 -103 -314q0 -186 107 -315q114 -137 296 -138q132 -1 227 76q91 73 128 203h147q-116 -365 -450 -402v-229h-133v232q-209 28 -341 197 q-126 161 -126 376z" />
<glyph unicode="&#xa3;" horiz-adv-x="1157" d="M68 672v139h145q-14 46 -36 140q-5 35 -5 75q0 201 131.5 328.5t333.5 128.5q177 1 291 -103q110 -99 145 -276h-131q-25 116 -105 183.5t-198 68.5q-146 1 -236.5 -89.5t-91.5 -236.5q-1 -100 56 -219h493v-141h-385q79 -140 80 -291q1 -136 -71 -252q3 0 58 -5 q8 -1 56 -1q366 -3 369 282q0 45 -17 127h142q14 -81 14 -118q0 -90 -32 -171q-65 -165 -226 -217q-75 -24 -213 -24h-514v127h223q79 95 80 238q1 145 -105 307h-251z" />
<glyph unicode="&#xa4;" horiz-adv-x="1157" d="M-6 532l26 111h119v168h-137l27 111h110v22q0 232 86 346q148 197 406 197q185 0 327 -113q148 -120 160 -301h-145q-21 135 -112.5 210t-229.5 75q-173 0 -264 -108q-86 -101 -86 -277v-51h639l-27 -111h-612v-168h591l-26 -111h-565v-51q0 -175 86 -276 q92 -106 264 -107q278 -1 338 264h147q-15 -110 -72 -188q-147 -201 -413 -203q-251 -1 -408 197q-84 106 -84 344v20h-145z" />
<glyph unicode="&#xa5;" horiz-adv-x="1157" d="M45 1446h162l375 -748l368 748h162l-260 -500h184v-110h-243l-88 -168h331v-111h-389v-557h-141v557h-391v111h334l-87 168h-247v110h188z" />
<glyph unicode="&#xa6;" d="M459 -350v758h108v-758h-108zM459 674v758h108v-758h-108z" />
<glyph unicode="&#xa7;" horiz-adv-x="1278" d="M20 -655q0 -19 9 -31q5 -11 39 -21q22 0 34 11q12 5 15 32l362 1684q18 85 51 166l27 67l43 88q25 38 113 164q31 44 71 78l95 80q53 25 98 25q123 0 129 -144q7 -167 -115 -287l-139 -137l-150 -114q-15 -12 -53 -60q9 -30 45 -69l60 -54q103 -92 186 -223l55 -119 q22 -47 23 -100q2 -64 -47 -123q-24 -29 -78 -57l-64 -23l-53 -4q-30 -2 -98 34q-63 33 -90 60q-27 33 -68 35q-17 1 -26 -14l-9 -25q0 -16 45 -78q53 -45 109 -75l68 -23l51 -4q91 -7 180 33q128 58 162 184l14 82l-6 70q-2 18 -8 36l-15 41l-57 125q-27 60 -102 140 q-101 108 -121 145q4 10 119 121l106 102l90 105q24 28 66 121q20 72 18 131l-2 55q-1 24 -16 59q-14 47 -47 76l-33 29l-41 24q-44 20 -82 21q-32 1 -80 -12q-30 -8 -106 -50q-37 -25 -82 -69q-157 -151 -223 -312l-52 -127l-41 -112l-20 -82l-25 -96l-8 -52 q-10 -67 -33 -67q-9 0 -24 43l-19 53l-30 12l-29 -18q-19 -12 -18 -29l2 -43l14 -57l20 -96l9 -84l4 -97v-75l-9 -47z" />
<glyph unicode="&#xa8;" d="M256 1313v164h141v-164h-141zM625 1313v164h143v-164h-143z" />
<glyph unicode="&#xa9;" horiz-adv-x="1706" d="M121 723q-2 298 219 522q208 211 512 211q310 0 520.5 -211.5t212.5 -521.5q1 -146 -54 -281q-112 -276 -399 -396q-131 -55 -280 -56q-302 -2 -515.5 214.5t-215.5 518.5zM201 723q-1 -196 110.5 -361t293.5 -241q115 -48 247 -49q267 -2 467 194q186 182 186 457 q0 276 -188.5 463.5t-464.5 189.5q-130 1 -249 -48q-244 -100 -352 -356q-49 -117 -50 -249zM469 727q0 193 97 315q105 134 294 134q129 0 219 -66q97 -71 111 -195h-117q-38 167 -217 168q-139 1 -205 -118q-52 -93 -53 -244q-1 -145 55 -239q67 -114 203 -115 q192 -2 229 188h115q-11 -133 -116 -211q-97 -73 -234 -74q-191 -1 -292 137q-89 123 -89 320z" />
<glyph unicode="&#xaa;" horiz-adv-x="969" d="M43 1067q0 179 128 295q123 111 304 111q197 0 307 -140v123h103v-770h-103v123q-103 -142 -317 -143q-178 -1 -298 110q-124 115 -124 291zM152 1063q0 -132 92 -218t225 -87q130 -1 221 93t92 224q1 125 -92.5 215.5t-218.5 91.5q-135 1 -227 -91.5t-92 -227.5z" />
<glyph unicode="&#xab;" horiz-adv-x="934" d="M115 549l245 321h138l-248 -321l248 -320h-138zM418 549l246 321h137l-246 -321l246 -320h-137z" />
<glyph unicode="&#xac;" horiz-adv-x="1706" d="M254 758v100h1198v-502h-96v402h-1102z" />
<glyph unicode="&#xad;" horiz-adv-x="659" d="M94 483v133h469v-133h-469z" />
<glyph unicode="&#xae;" horiz-adv-x="1706" d="M121 723q-2 298 219 522q208 211 512 211q310 0 520.5 -211.5t212.5 -521.5q1 -146 -54 -281q-112 -276 -399 -396q-131 -55 -280 -56q-302 -2 -515.5 214.5t-215.5 518.5zM201 723q-1 -196 110.5 -361t293.5 -241q115 -48 247 -49q194 -1 362.5 109t242.5 289 q48 116 48 251q0 279 -187 466t-466 189q-269 2 -459 -190.5t-192 -462.5zM565 313v844h309q347 0 349 -233q1 -90 -53.5 -149t-145.5 -73l188 -389h-145l-178 371h-197v-371h-127zM692 768h158q113 0 162 20q80 33 80 127q0 156 -242 156h-158v-303z" />
<glyph unicode="&#xaf;" d="M256 1346v116h512v-116h-512z" />
<glyph unicode="&#xb0;" horiz-adv-x="674" d="M59 1174q-1 118 80 198t199 80q116 0 196 -81t80 -197q0 -117 -80.5 -197.5t-197.5 -81.5q-118 -1 -197 79.5t-80 199.5zM129 1174q-1 -87 60 -147t149 -60q89 0 148 59t59 148q0 87 -60 147t-147 61t-147.5 -59.5t-61.5 -148.5z" />
<glyph unicode="&#xb1;" horiz-adv-x="1706" d="M254 51v99h1198v-99h-1198zM254 723v98h551v348h98v-348h549v-98h-549v-348h-98v348h-551z" />
<glyph unicode="&#xb2;" horiz-adv-x="764" d="M88 582v84l340 295q82 71 110 105q55 67 56 136q1 87 -62 141q-59 51 -147 52q-93 1 -149 -56t-56 -151v-25h-92v13q0 134 85.5 216.5t219.5 82.5q122 0 207 -79t86 -200q1 -132 -149 -258l-324 -272h471v-84h-596z" />
<glyph unicode="&#xb3;" horiz-adv-x="764" d="M72 848h96v-8q0 -88 58.5 -144.5t146.5 -56.5q92 0 154 56t63 147q2 202 -254 202h-45v72q10 0 16 -2h25q190 0 190 143q0 61 -41 100t-102 40q-146 2 -152 -148h-88q6 106 71.5 165t172.5 59q95 0 164 -60q73 -62 74 -156q1 -99 -95 -161q159 -78 160 -246 q1 -126 -91 -207q-88 -77 -216 -78q-139 -1 -220 71q-84 74 -87 212z" />
<glyph unicode="&#xb4;" d="M387 1247l209 350h152l-269 -350h-92z" />
<glyph unicode="&#xb5;" horiz-adv-x="1110" d="M-111 -426l316 1491h139l-125 -592q-15 -73 -16 -139q-2 -244 225 -244q257 0 348 418l121 557h139l-164 -770q-11 -52 -22 -133q-2 -66 68 -66h16q12 0 20 2l-20 -110q-41 -11 -86 -11q-137 0 -137 146v14q-89 -162 -299 -162q-191 0 -269 156l-114 -557h-140z" />
<glyph unicode="&#xb6;" d="M84 1130q-1 166 115 261q108 88 278 88h463v-70h-127v-1409h-82v1409h-186v-1409h-84v782q-166 7 -267 93q-109 92 -110 255z" />
<glyph unicode="&#xb7;" horiz-adv-x="567" d="M161 735q0 52 35.5 88t87.5 36t87.5 -36t35.5 -88q0 -51 -36 -87.5t-87 -36.5t-87 36.5t-36 87.5z" />
<glyph unicode="&#xb8;" d="M272 -342q79 -17 238 -35q129 -2 129 90q0 105 -143 105h-29q-12 0 -18 -2v184h63v-111h20q220 0 220 -172q0 -174 -228 -176q-106 -1 -252 39v78z" />
<glyph unicode="&#xb9;" horiz-adv-x="764" d="M178 1380v76h268v-874h-100v798h-168z" />
<glyph unicode="&#xba;" horiz-adv-x="932" d="M41 1071q0 171 123 290t295 120q174 1 301 -111q131 -117 131 -289q0 -177 -123 -295.5t-301 -119.5q-176 -1 -299 113q-127 117 -127 292zM152 1071q0 -135 89.5 -222.5t225.5 -88.5q135 -1 224 88.5t89 224.5q0 139 -90.5 225.5t-230.5 87.5q-131 1 -219 -91t-88 -224z " />
<glyph unicode="&#xbb;" horiz-adv-x="934" d="M133 229l248 320l-248 321h137l246 -321l-246 -320h-137zM438 229l246 320l-246 321h135l248 -321l-248 -320h-135z" />
<glyph unicode="&#xbc;" horiz-adv-x="1800" d="M170 1386v70h256v-815h-96v745h-160zM387 -29l905 1514h119l-903 -1514h-121zM1126 158v69l416 588h103v-588h100v-69h-100v-158h-89v158h-430zM1221 227h338l4 494z" />
<glyph unicode="&#xbd;" horiz-adv-x="1800" d="M170 1386v70h256v-815h-96v745h-160zM387 -29l905 1514h119l-903 -1514h-121zM1155 0v80l326 272q156 130 157 228q1 81 -59 132q-56 47 -139 48q-90 1 -143.5 -52t-53.5 -143v-22h-88v12q0 127 83 204q80 75 208 75q115 0 197 -73.5t83 -187.5q1 -124 -143 -241 l-309 -252h450v-80h-569z" />
<glyph unicode="&#xbe;" horiz-adv-x="1800" d="M68 889h92v-6q0 -83 56 -136t140 -53q87 0 146.5 51.5t60.5 137.5q2 190 -244 190h-43l1 68q9 0 15 -2h25q181 0 183 133q1 58 -39 94t-99 37q-65 1 -105 -36t-40 -101h-84q6 98 72 153q63 53 162 54q88 1 155 -55q70 -59 70 -146q0 -92 -88 -152q148 -68 149 -229 q1 -119 -88 -194q-84 -71 -205 -72q-131 -1 -209 67t-83 197zM387 -29l905 1514h119l-903 -1514h-121zM1126 158v69l416 588h103v-588h100v-69h-100v-158h-89v158h-430zM1221 227h338l4 494z" />
<glyph unicode="&#xbf;" horiz-adv-x="948" d="M45 399q-1 188 167 338q7 6 24 21q146 135 151 300l143 1q0 -189 -153 -354q-24 -26 -54 -54q-126 -118 -126 -252q0 -129 67 -203q70 -77 197 -77q265 0 280 325h148q-3 -206 -115 -335q-118 -137 -321 -138q-186 -1 -299 122q-108 118 -109 306zM387 1190v266h143v-266 h-143z" />
<glyph unicode="&#xc4;" horiz-adv-x="1769" d="M86 133l2 -14l8 -21q42 -13 76 -12l98 2l60 16q40 11 55 21q125 64 274 266l138 187l22 6l25 2q25 2 104 -19l62 -10l358 4l2 -57l-16 -150l-19 -268q-1 -18 45 -20q20 -1 35 20l78 489l293 127q182 79 266 168l8 35q0 6 -4 10q0 6 -8 17l-49 10l-213 -113l-107 -45 l-143 -51l-16 15l108 968q4 35 -10 49q-11 18 -45 27q-44 -21 -113 -111l-59 -77l-637 -861q-31 0 -78 23l-80 29q-10 -5 -28 -35q0 -58 36 -80l41 -25q19 -6 31 -24q-142 -229 -285 -357q-38 -53 -163 -77l-99 -19q-25 -5 -43 -10zM891 700l596 854h8l2 -30l-4 -33 l-18 -113q0 -31 -13 -147l-28 -250l-13 -162q-6 -69 -26 -119l-33 -12l-84 -29l-72 -10l-71 -4q-64 -4 -164 21l-49 12q-20 5 -31 22zM1292 1917q0 -75 88 -78q34 -1 60 21.5t26 56.5q0 32 -27 56t-59 24q-33 0 -57 -23q-25 -19 -31 -57zM1655 1917q0 -74 88 -78 q61 -2 88 78q0 34 -26.5 57t-61.5 23q-33 0 -57 -23q-25 -18 -31 -57z" />
<glyph unicode="&#xd0;" horiz-adv-x="1380" d="M-4 668v127h154v661h438q330 0 530.5 -201.5t200.5 -531.5q0 -379 -295 -598q-107 -80 -235 -106q-92 -19 -261 -19h-378v668h-154zM291 137h336q256 0 402 174q136 163 136 424q0 266 -149 422q-152 160 -416 160h-309v-522h358v-127h-358v-531z" />
<glyph unicode="&#xd6;" horiz-adv-x="1257" d="M92 780q0 -117 21 -207q42 -180 80 -262q45 -96 192 -180q31 -18 76 -31l112 -16h76l90 10q49 0 74 15q53 11 163 95q107 82 138 132l57 92l60 109l41 94l35 102l26 98l23 103l10 84l4 86q6 130 -51 328q-70 243 -348 346q-70 18 -146 18q-72 0 -110 -10l-72 -19l-59 -24 q-155 -63 -316 -279l-37 -63l-41 -86q-98 -312 -98 -535zM213 623v114q0 191 14 289q6 39 25 119q7 30 20 61l27 66q58 143 125 221q59 70 203 149q110 37 196 39q62 1 117 -14q176 -48 255 -237q16 -39 42 -142l12 -84l4 -84q4 -84 -14 -174l-37 -186q-48 -151 -127 -289 q-62 -109 -205 -213q-141 -74 -241 -76q-89 -1 -232 68q-63 46 -125 166q-10 25 -59 207zM565 1917q0 -74 88 -78q60 -2 88 78q0 33 -27 56.5t-61 23.5q-33 0 -57 -23q-25 -19 -31 -57zM930 1917q-1 -34 25 -55.5t61 -22.5q61 -2 88 78q0 34 -26.5 57t-61.5 23 q-83 0 -86 -80z" />
<glyph unicode="&#xd7;" horiz-adv-x="1706" d="M305 129l481 481l-481 482l70 69l481 -481l481 481l70 -69l-481 -482l481 -481l-70 -70l-481 482l-481 -482z" />
<glyph unicode="&#xd8;" horiz-adv-x="1612" d="M63 739q-2 310 228 535q214 209 522 211q242 2 428 -142l172 207l96 -75l-178 -213q217 -208 217 -525q0 -327 -208 -544q-212 -220 -537 -220q-230 0 -426 140l-207 -250l-94 78l207 247q-218 236 -220 551zM215 735q0 -261 162 -432l770 928q-154 114 -330 115 q-253 1 -427.5 -178t-174.5 -433zM469 223q165 -112 334 -112q260 0 431 183q166 179 167 441q1 232 -164 412z" />
<glyph unicode="&#xdc;" horiz-adv-x="1778" d="M113 379q-14 -241 225 -293l37 -8l39 -2q102 -5 274 110q96 64 236 207l57 58l49 63l8 4l2 -10l-22 -139l-4 -62q-3 -39 8 -76q8 -27 39 -61q28 -46 113 -84l32 -2q69 -4 158 59q51 36 129 119l530 563q25 27 25 49q0 25 -29 25q-21 0 -71 -37l-672 -667l-35 -9 q-53 0 -92 39q-12 20 -25 58l-8 63q0 46 12 98l25 109l266 1192l-12 35l-37 14q-31 0 -43 -31l-246 -1028l-30 -53q-30 -53 -82 -100l-138 -125q-76 -68 -204 -170q-56 -34 -123 -62q-68 -17 -119 -20q-42 8 -70 16q-39 12 -63 41q-49 59 -49 162q0 36 8 78l238 1245 q2 4 2 8q0 12 -13 23q-12 15 -43 18q-33 0 -39 -29l-221 -1140l-16 -146zM647 1917q0 -75 88 -78q34 -1 60 21.5t26 56.5q0 32 -27 56t-59 24q-33 0 -57 -23q-25 -19 -31 -57zM1010 1917q0 -74 88 -78q61 -2 88 78q0 34 -26.5 57t-61.5 23q-77 0 -88 -80z" />
<glyph unicode="&#xdf;" horiz-adv-x="1386" d="M27 -655q0 -41 49 -52q20 0 33 11q11 6 14 32l362 1684q15 72 52 166l26 67l43 88l92 125q84 114 183 179l59 20l45 6q50 0 80 -33q30 -24 45 -106q0 -155 -119 -279l-133 -139q-47 -49 -104 -80q-105 -57 -140 -86q12 -31 66 -69l80 -56q40 -20 102 -94q22 -26 64 -123 q-31 -35 -84 -82l-150 -131q-74 -65 -74 -166q0 -36 11 -57q22 -43 51 -72l31 -12l49 -10l31 -2q45 -3 86 22q151 91 184 275l33 184l518 276l2 7l8 18q0 25 -16 41q-2 4 -33 10l-529 -252q-22 62 -127 169q-103 104 -106 116q6 15 102 103q105 97 123 120l88 109 q42 53 68 117q20 72 18 131l-2 55q-1 24 -16 59q-14 47 -47 76l-33 29l-41 24q-44 19 -82 21q-31 1 -80 -12q-30 -8 -106 -50l-92 -88l-86 -94q-48 -53 -127 -199l-52 -127l-40 -112l-46 -178l-8 -52q-10 -67 -33 -67q-9 0 -24 43l-19 53l-30 12l-29 -18q-19 -12 -18 -29 l2 -43l14 -57l21 -96l8 -84l4 -97v-75l-8 -47zM735 225l4 33q23 75 109 133l92 62l16 -7l5 -22q0 -27 -23 -86l-16 -41q-14 -35 -29 -51q-18 -32 -47 -49l-58 -15q-50 0 -53 43z" />
<glyph unicode="&#xe4;" horiz-adv-x="1180" d="M8 371l25 -119l24 -66l37 -45q32 -30 45 -30q18 -18 47 -27l58 -8l67 6l33 8l37 21l27 14q35 18 61 45l47 49q0 -17 29 -57l24 -33l11 -12q12 -19 38 -31l50 -10q85 0 129 43l243 235q145 140 240 254l106 127l103 135l14 33q0 22 -35 23q-37 1 -51 -23l-203 -217 l-227 -231l-188 -199l-60 -49q-22 -18 -67 -21l-17 7q-13 10 -18 28l-4 43v39l80 633l-31 4q-26 0 -37 -16l-6 -29l-4 -12l-8 -15l-15 -4h-14q-8 2 -27 28.5t-41 31.5l-49 10l-61 4q-72 5 -129 -20q-33 -15 -107 -72q-42 -44 -84 -101q-20 -27 -57 -120l-14 -35l-15 -53 l-6 -97v-69zM104 399q-6 79 5 103l6 37l12 32q8 21 27 56q89 184 163 202q53 18 95 21l55 -6q24 -6 49 -31l37 -57q19 -80 20 -111q2 -96 -51 -217q-42 -96 -96 -156l-37 -34l-37 -31q-37 -31 -94 -25q-67 0 -102 35l-45 94zM377 1255q-1 -29 22 -57q10 -6 58 -22 q34 0 58 22.5t24 56.5q0 28 -27 55t-55 27q-77 0 -80 -82zM705 1264q0 -34 22 -60q23 -20 59 -22q35 -2 57.5 22.5t22.5 59.5q0 32 -24 55.5t-56 23.5q-18 0 -59 -24q-5 -5 -22 -55z" />
<glyph unicode="&#xe9;" horiz-adv-x="918" d="M-8 309l4 -33q24 -107 151 -190q30 -15 86 -16q69 -2 99 16l80 33q31 13 82 51l155 143l291 277l291 284l8 19l-6 12l-12 13l-37 14l-33 -12l-227 -226l-228 -219l-227 -205l-66 -47l-61 -33q-67 -24 -113 -24q-99 0 -145 170v61q0 27 16 43l33 -6q13 0 53 -33l35 -2 q99 -6 207 105q36 37 78 133q23 97 26 162q-32 139 -155 143q-32 1 -62 -10l-47 -17l-30 -14q-43 -20 -91 -76l-32 -49l-33 -57q-90 -155 -90 -357v-53zM154 596q0 53 34 104q24 47 70 91q55 51 98 53q36 1 78 -64l2 -28q2 -26 -14 -72l-16 -47l-19 -33l-33 -35l-35 -30 q-40 -27 -90 -29q-22 -1 -41 14l-30 45zM384 1105l221 228l84 1l-213 -229h-92z" />
<glyph unicode="&#xf3;" horiz-adv-x="895" d="M-12 436q0 -62 18 -151l43 -88q7 -14 55 -64l66 -35q41 -12 80 -12h131q33 0 83 36q24 17 52 54l33 43l39 68q20 51 43 137l71 272l33 -14l60 -35l57 -14l61 -4h25l27 4l49 16q53 17 100 90l74 115l2 25q1 17 -6 24l-27 12h-20q-33 -22 -93 -106q-39 -55 -116 -88h-41 q-34 3 -45 10l-35 14q-23 9 -37 23q-9 2 -41 49l-10 41l-2 47q-1 27 -12 43h-50q-12 -27 -37 -74q-23 0 -79 37l-50 21l-51 12l-53 4l-37 -2l-51 -6q-36 -4 -61 -20l-82 -64q-111 -108 -154 -301q-12 -54 -12 -119zM88 420l6 76l19 82l28 94q13 44 52 88q75 85 204 88 q40 -5 103 -31q49 -20 84 -65l4 -52l-2 -65q0 -7 -15 -66l-32 -127q-9 -34 -25 -67l-31 -62q-20 -41 -63 -75q-33 -26 -101 -45l-71 6l-103 49q-65 77 -57 172zM384 1105l221 228l84 1l-213 -229h-92z" />
<glyph unicode="&#xf6;" horiz-adv-x="895" d="M-12 436q0 -62 18 -151l43 -88q7 -14 55 -64l66 -35q41 -12 80 -12h131q33 0 83 36q24 17 52 54l33 43l39 68q20 51 43 137l71 272l33 -14l60 -35l57 -14l61 -4h25l27 4l49 16q53 17 100 90l74 115l2 25q1 17 -6 24l-27 12h-20q-33 -22 -93 -106q-39 -55 -116 -88h-41 q-34 3 -45 10l-35 14q-23 9 -37 23q-9 2 -41 49l-10 41l-2 47q-1 27 -12 43h-50q-12 -27 -37 -74q-23 0 -79 37l-50 21l-51 12l-53 4l-37 -2l-51 -6q-36 -4 -61 -20l-82 -64q-111 -108 -154 -301q-12 -54 -12 -119zM88 420l6 76l19 82l28 94q13 44 52 88q75 85 204 88 q40 -5 103 -31q49 -20 84 -65l4 -52l-2 -65q0 -7 -15 -66l-32 -127q-9 -34 -25 -67l-31 -62q-20 -41 -63 -75q-33 -26 -101 -45l-71 6l-103 49q-65 77 -57 172zM291 1257q-1 -17 18 -53q19 -20 56 -22q68 -3 75 75q0 73 -75 76q-70 3 -74 -76zM639 1257q-1 -28 20 -51 q23 -18 56 -24q66 0 76 75q0 73 -76 76q-72 3 -76 -76z" />
<glyph unicode="&#xf7;" horiz-adv-x="1706" d="M254 561v98h1198v-98h-1198zM748 258q0 44 31 75t75 32q45 1 75.5 -30.5t31.5 -76.5t-30.5 -75t-76.5 -31t-75.5 30t-30.5 76zM748 963q0 45 30.5 76t75.5 32q44 1 75 -31t32 -77t-30.5 -75.5t-76.5 -31.5q-46 -1 -76 30t-30 77z" />
<glyph unicode="&#xf8;" horiz-adv-x="1241" d="M31 -57l176 211q-153 163 -154 395q-1 244 161.5 413.5t406.5 170.5q177 1 319 -101l168 201l92 -72l-172 -207q160 -163 160 -399q0 -247 -165 -415q-168 -171 -413 -171q-170 0 -317 105l-178 -211zM201 551q-1 -166 94 -291l557 666q-85 72 -229 73q-187 1 -306 -131 q-115 -128 -116 -317zM381 180q102 -76 227 -76q195 0 315 129q116 125 117 322q1 161 -98 295z" />
<glyph unicode="&#xfc;" horiz-adv-x="1393" d="M98 287q-3 -87 45 -146l43 -35l76 -20l35 -2q64 -4 135 27q84 21 238 198l10 -4l18 -121l23 -71q12 -38 88 -31l70 6q31 6 47 16l467 478l256 276l14 31q0 12 -14 20l-33 9q-32 0 -43 -17l-664 -676q-36 -18 -67 -18q-18 0 -41 20q-7 14 -10 56l2 28l4 29l121 559 q4 17 -9 25l-35 12q-30 0 -43 -25l-81 -243q-53 -159 -220 -365q-90 -111 -208 -117l-29 2q-58 17 -74 39l-14 31l-2 39l2 74l119 532q1 4 1 7q0 11 -14 18l-43 8q-13 0 -39 -12q-29 -94 -49 -199q-26 -109 -71 -332l-9 -53zM367 1255q0 -29 24 -55q26 -20 62 -22 q34 -1 55 18q15 14 33 59q0 30 -28.5 53.5t-59.5 24.5q-33 1 -58 -18q-16 -16 -28 -60zM729 1255q0 -74 88 -77q35 -1 60.5 21t25.5 56q0 31 -27 54t-59 24q-30 1 -59 -18q-14 -14 -29 -60z" />
<glyph unicode="&#x152;" horiz-adv-x="2232" d="M61 737q0 314 228 537q214 210 514 211q374 2 590 -291v262h755v-143h-612v-510h612v-144h-612v-518h612v-141h-755v260q-242 -289 -592 -289q-322 0 -533 223q-207 219 -207 543zM211 735q0 -264 167 -443q171 -183 433 -183q258 0 427 188q163 181 163 442 q0 251 -174.5 429t-425.5 178q-208 0 -367 -136q-223 -190 -223 -475z" />
<glyph unicode="&#x153;" horiz-adv-x="2228" d="M53 549q0 245 164.5 414.5t409.5 169.5q327 0 487 -299q80 140 209 218q133 81 291 81q263 0 417 -186q144 -173 144 -441v-4h-987q12 -175 128.5 -286.5t291.5 -111.5q257 0 374 240h158q-149 -373 -538 -375q-324 -2 -488 299q-157 -299 -491 -299q-243 0 -406.5 168.5 t-163.5 411.5zM201 551q0 -189 116 -316q119 -130 306 -131q185 -1 303 133q114 129 114 316q0 191 -120 318.5t-310 127.5q-181 0 -298 -136q-111 -129 -111 -312zM1192 625h831q-35 171 -136 268q-108 105 -277 106q-167 1 -281.5 -103t-136.5 -271z" />
<glyph unicode="&#x2c6;" d="M236 1247l200 350h152l200 -350h-92l-184 264l-184 -264h-92z" />
<glyph unicode="&#x2dc;" d="M223 1290q43 185 195 185q24 0 53 -9l96 -30q35 -11 56 -11q62 0 96 74h82q-51 -181 -191 -184q-32 -1 -65 10l-97 31q-10 2 -28 6q-7 1 -25 2q-59 1 -92 -74h-80z" />
<glyph unicode="&#x2000;" />
<glyph unicode="&#x2001;" horiz-adv-x="2048" />
<glyph unicode="&#x2002;" />
<glyph unicode="&#x2003;" horiz-adv-x="2048" />
<glyph unicode="&#x2004;" horiz-adv-x="682" />
<glyph unicode="&#x2005;" horiz-adv-x="512" />
<glyph unicode="&#x2006;" horiz-adv-x="341" />
<glyph unicode="&#x2007;" horiz-adv-x="341" />
<glyph unicode="&#x2008;" horiz-adv-x="256" />
<glyph unicode="&#x2009;" horiz-adv-x="409" />
<glyph unicode="&#x200a;" horiz-adv-x="113" />
<glyph unicode="&#x2010;" horiz-adv-x="659" d="M94 483v133h469v-133h-469z" />
<glyph unicode="&#x2011;" horiz-adv-x="659" d="M94 483v133h469v-133h-469z" />
<glyph unicode="&#x2012;" horiz-adv-x="659" d="M94 483v133h469v-133h-469z" />
<glyph unicode="&#x2013;" d="M-12 508v129h1048v-129h-1048z" />
<glyph unicode="&#x2014;" horiz-adv-x="2048" d="M-12 508v129h2072v-129h-2072z" />
<glyph unicode="&#x2018;" horiz-adv-x="397" d="M78 1456h141l156 -428h-144z" />
<glyph unicode="&#x2019;" horiz-adv-x="397" d="M25 1028l153 428h144l-156 -428h-141z" />
<glyph unicode="&#x201a;" horiz-adv-x="397" d="M25 -162l153 428h144l-156 -428h-141z" />
<glyph unicode="&#x201c;" horiz-adv-x="692" d="M78 1456h141l156 -428h-144zM371 1456h143l154 -428h-142z" />
<glyph unicode="&#x201d;" horiz-adv-x="692" d="M25 1028l153 428h144l-156 -428h-141zM317 1028l156 428h141l-153 -428h-144z" />
<glyph unicode="&#x201e;" horiz-adv-x="692" d="M25 -162l153 428h144l-156 -428h-141zM317 -162l156 428h141l-153 -428h-144z" />
<glyph unicode="&#x2022;" horiz-adv-x="1208" d="M307 762q-1 125 85.5 209.5t211.5 85.5q122 1 208.5 -86t86.5 -209q0 -124 -86.5 -210.5t-210.5 -86.5q-125 0 -209.5 86t-85.5 211z" />
<glyph unicode="&#x2026;" horiz-adv-x="2048" d="M218 96q0 52 35.5 88t87.5 36t87.5 -36t35.5 -88q0 -51 -36 -87.5t-87 -36.5t-87 36.5t-36 87.5zM901 96q0 52 35.5 88t87.5 36t87.5 -36t35.5 -88q0 -51 -36 -87.5t-87 -36.5t-87 36.5t-36 87.5zM1584 96q0 52 35.5 88t87.5 36q51 0 87 -36.5t36 -87.5t-36 -87.5 t-87 -36.5t-87 36.5t-36 87.5z" />
<glyph unicode="&#x202f;" horiz-adv-x="409" />
<glyph unicode="&#x2039;" horiz-adv-x="514" d="M75 542l222 546h148l-223 -546l223 -542h-148z" />
<glyph unicode="&#x203a;" horiz-adv-x="514" d="M70 0l223 545l-223 543h148l222 -543l-222 -545h-148z" />
<glyph unicode="&#x205f;" horiz-adv-x="512" />
<glyph unicode="&#x20ac;" horiz-adv-x="2159" d="M4 764l66 174h229l-4 86l2 82h-293l72 172l252 2q64 266 268 467q133 131 322 219q106 49 194 62l98 14l109 6q188 10 398 -85q193 -87 339 -230l-74 -177q-189 221 -477 295q-85 22 -186 23q-150 2 -330 -68l-71 -37l-74 -43q-57 -33 -125 -102q-129 -131 -211 -344 h1358l-72 -174h-1321l-4 -82l4 -86h1243l-67 -172l-1139 -2q130 -377 477 -524q152 -64 332 -66q393 -3 661 318l5 6l-3 -250q-165 -140 -311 -185l-78 -24l-114 -27q-51 -12 -160 -12q-413 0 -723 301q-177 172 -268 463h-324z" />
<glyph unicode="&#x2122;" horiz-adv-x="2048" d="M12 1376v137h758v-137h-305v-725h-150v725h-303zM936 651v862h243l267 -597l282 597h238v-862h-150v710l-321 -710h-99l-311 710v-710h-149z" />
<glyph unicode="&#x25fc;" horiz-adv-x="945" d="M0 0v945h945v-945h-945z" />
</font>
</defs>
</svg>
