<?xml version="1.0" standalone="no"?>
<!DOCTYPE svg PUBLIC "-//W3C//DTD SVG 1.1//EN" "http://www.w3.org/Graphics/SVG/1.1/DTD/svg11.dtd" >
<svg>
<metadata>
Created by FontForge 20110222 at Fri Sep 19 06:41:44 2014
 By Orthosie Webhosting
Copyright (c) 1996-2010 www.will-software.com
</metadata>
<defs>
<font id="VAPe2Normal" horiz-adv-x="167" >
  <font-face 
    font-family="VAPe2Normal"
    font-weight="400"
    font-stretch="normal"
    units-per-em="1000"
    panose-1="0 0 0 0 0 0 0 0 0 0"
    ascent="800"
    descent="-200"
    x-height="365"
    cap-height="692"
    bbox="-450 -389 1296 879"
    underline-thickness="30"
    underline-position="15"
    unicode-range="U+0020-2122"
  />
<missing-glyph horiz-adv-x="500" 
d="M31 0v800h438v-800h-438zM438 31v738h-376v-738h376z" />
    <glyph glyph-name=".notdef" horiz-adv-x="500" 
d="M31 0v800h438v-800h-438zM438 31v738h-376v-738h376z" />
    <glyph glyph-name=".null" horiz-adv-x="0" 
 />
    <glyph glyph-name="nonmarkingreturn" horiz-adv-x="400" 
 />
    <glyph glyph-name="space" unicode=" " horiz-adv-x="400" 
 />
    <glyph glyph-name="exclam" unicode="!" horiz-adv-x="324" 
d="M314 644q0 -10 -10 -10t-10 10t10 10t10 -10zM306 603q0 -10 -10 -10t-10 10t10 10t10 -10zM297 563q0 -10 -10 -10t-10 10t10 10t10 -10zM289 522q0 -10 -10 -10t-10 10t10 10t10 -10zM280 482q0 -10 -10 -10t-10 10t10 10t10 -10zM272 442q0 -10 -10 -10t-10 10t10 10
t10 -10zM263 401q0 -10 -10 -10t-10 10t10 10t10 -10zM247 320q0 -10 -10 -10t-10 10t10 10t10 -10zM324 353h-74l-5 -2l-6 2h-249v12h246q4 6 9 6t9 -6h70v-12zM238 280q0 -10 -10 -10t-10 10t10 10t10 -10zM230 239q0 -10 -10 -10t-10 10t10 10t10 -10zM221 199
q0 -10 -10 -10t-10 10t10 10t10 -10zM213 158q0 -10 -10 -10t-10 10t10 10t10 -10zM187 23q0 -10 -10 -10t-10 10t10 10t10 -10zM324 -1h-334v12h334v-12z" />
    <glyph glyph-name="quotedbl" unicode="&#x22;" 
d="M229 644q0 -10 -10 -10t-10 10t10 10t10 -10zM221 603q0 -10 -10 -10t-10 10t10 10t10 -10zM151 644q0 -10 -10 -10t-10 10t10 10t10 -10zM212 563q0 -10 -10 -10t-10 10t10 10t10 -10zM143 603q0 -10 -10 -10t-10 10t10 10t10 -10zM204 522q0 -10 -10 -10t-10 10t10 10
t10 -10zM134 563q0 -10 -10 -10t-10 10t10 10t10 -10zM126 522q0 -10 -10 -10t-10 10t10 10t10 -10zM167 353h-177v12h177v-12zM167 -1h-177v12h177v-12z" />
    <glyph glyph-name="numbersign" unicode="#" horiz-adv-x="40" 
d="M40 353h-50v12h50v-12zM40 -1h-50v12h50v-12zM23 14l-1 1z" />
    <glyph glyph-name="percent" unicode="%" horiz-adv-x="622" 
d="M599 612q0 -10 -10 -10t-10 10t10 10t10 -10zM574 580q0 -10 -10 -10t-10 10t10 10t10 -10zM549 548q0 -10 -10 -10t-10 10t10 10t10 -10zM524 516q0 -10 -10 -10t-10 10t10 10t10 -10zM500 485q0 -10 -10 -10t-10 10t10 10t10 -10zM341 605q0 -10 -10 -10t-10 10t10 10
t10 -10zM308 629q0 -10 -10 -10t-10 10t10 10t10 -10zM362 569q0 -10 -10 -10t-10 10t10 10t10 -10zM475 453q0 -10 -10 -10t-10 10t10 10t10 -10zM268 637q0 -10 -10 -10t-10 10t10 10t10 -10zM370 529q0 -10 -10 -10t-10 10t10 10t10 -10zM450 421q0 -10 -10 -10t-10 10
t10 10t10 -10zM227 630q0 -10 -10 -10t-10 10t10 10t10 -10zM367 488q0 -10 -10 -10t-10 10t10 10t10 -10zM589 250q0 -10 -10 -10t-10 10t10 10t10 -10zM556 274q0 -10 -10 -10t-10 10t10 10t10 -10zM609 214q0 -10 -10 -10t-10 10t10 10t10 -10zM425 389q0 -10 -10 -10
t-10 10t10 10t10 -10zM354 449q0 -10 -10 -10t-10 10t10 10t10 -10zM192 611q0 -10 -10 -10t-10 10t10 10t10 -10zM516 283q0 -10 -10 -10t-10 10t10 10t10 -10zM617 174q0 -10 -10 -10t-10 10t10 10t10 -10zM334 415q0 -10 -10 -10t-10 10t10 10t10 -10zM475 276
q0 -10 -10 -10t-10 10t10 10t10 -10zM614 133q0 -10 -10 -10t-10 10t10 10t10 -10zM162 582q0 -10 -10 -10t-10 10t10 10t10 -10zM376 326q0 -10 -10 -10t-10 10t10 10t10 -10zM439 256q0 -10 -10 -10t-10 10t10 10t10 -10zM601 94q0 -10 -10 -10t-10 10t10 10t10 -10z
M305 386q0 -10 -10 -10t-10 10t10 10t10 -10zM141 547q0 -10 -10 -10t-10 10t10 10t10 -10zM622 353h-224q-1 -3 -4 -4t-4 -1q-8 3 -9 5h-391v12h179q-3 6 0 10.5t9 4.5t9.5 -4.5t-1.5 -10.5h23q5 8 9 8t9 -8h22q-2 5 1.5 8.5t8.5 3.5q13 0 10 -12h114l7 3l6 -3h226v-12z
M351 294q0 -10 -10 -10t-10 10t10 10t10 -10zM128 508q0 -10 -10 -10t-10 10t10 10t10 -10zM409 228q0 -10 -10 -10t-10 10t10 10t10 -10zM581 61q0 -10 -10 -10t-10 10t10 10t10 -10zM124 467q0 -10 -10 -10t-10 10t10 10t10 -10zM326 262q0 -10 -10 -10t-10 10t10 10
t10 -10zM388 193q0 -10 -10 -10t-10 10t10 10t10 -10zM552 31q0 -10 -10 -10t-10 10t10 10t10 -10zM132 427q0 -10 -10 -10t-10 10t10 10t10 -10zM154 393q0 -10 -10 -10t-10 10t10 10t10 -10zM301 230q0 -10 -10 -10t-10 10t10 10t10 -10zM375 154q0 -10 -10 -10t-10 10
t10 10t10 -10zM371 113q0 -10 -10 -10t-10 10t10 10t10 -10zM277 199q0 -10 -10 -10t-10 10t10 10t10 -10zM379 73q0 -10 -10 -10t-10 10t10 10t10 -10zM401 38q0 -10 -10 -10t-10 10t10 10t10 -10zM252 167q0 -10 -10 -10t-10 10t10 10t10 -10zM227 135q0 -10 -10 -10
t-10 10t10 10t10 -10zM622 -1h-150l-7 -3l-7 3h-468v12h119q2 8 9 8t9 -8h289q-6 14 9 14q5 0 9.5 -4.5t-0.5 -9.5h23q1 3 3.5 4t4.5 1q8 -3 8 -5h23q-3 4 1 8t9 4q14 0 9 -12h107v-12zM202 104q0 -10 -10 -10t-10 10t10 10t10 -10zM177 72q0 -10 -10 -10t-10 10t10 10
t10 -10zM153 40q0 -10 -10 -10t-10 10t10 10t10 -10z" />
    <glyph glyph-name="quotesingle" unicode="'" horiz-adv-x="90" 
d="M151 644q0 -10 -10 -10t-10 10t10 10t10 -10zM143 603q0 -10 -10 -10t-10 10t10 10t10 -10zM134 563q0 -10 -10 -10t-10 10t10 10t10 -10zM126 522q0 -10 -10 -10t-10 10t10 10t10 -10zM90 353h-100v12h100v-12zM90 -1h-100v12h100v-12z" />
    <glyph glyph-name="parenleft" unicode="(" horiz-adv-x="331" 
d="M342 633q0 -10 -10 -10t-10 10t10 10t10 -10zM308 612q0 -10 -10 -10t-10 10t10 10t10 -10zM276 589q0 -10 -10 -10t-10 10t10 10t10 -10zM245 564q0 -10 -10 -10t-10 10t10 10t10 -10zM216 536q0 -10 -10 -10t-10 10t10 10t10 -10zM189 507q0 -10 -10 -10t-10 10t10 10
t10 -10zM165 475q0 -10 -10 -10t-10 10t10 10t10 -10zM144 442q0 -10 -10 -10t-10 10t10 10t10 -10zM331 353h-341v12h101l-2 6q0 10 10 10t10 -10l-3 -6h225v-12zM125 407q0 -10 -10 -10t-10 10t10 10t10 -10zM97 333q0 -10 -10 -10t-10 10t10 10t10 -10zM88 294
q0 -10 -10 -10t-10 10t10 10t10 -10zM82 255q0 -10 -10 -10t-10 10t10 10t10 -10zM80 215q0 -10 -10 -10t-10 10t10 10t10 -10zM82 175q0 -10 -10 -10t-10 10t10 10t10 -10zM87 136q0 -10 -10 -10t-10 10t10 10t10 -10zM95 97q0 -10 -10 -10t-10 10t10 10t10 -10zM331 -1
h-341v12h341v-12zM106 59q0 -11 -10 -11t-10 11q0 10 10 10t10 -10zM121 22q0 -10 -10 -10t-10 10t10 10t10 -10zM138 -15q0 -10 -10 -10t-10 10t10 10t10 -10z" />
    <glyph glyph-name="parenright" unicode=")" horiz-adv-x="331" 
d="M199 639q0 -10 -10 -10t-10 10t10 10t10 -10zM217 603q0 -10 -10 -10t-10 10t10 10t10 -10zM232 566q0 -10 -10 -10t-10 10t10 10t10 -10zM243 528q0 -10 -10 -10t-10 10t10 10t10 -10zM251 488q0 -10 -10 -10t-10 10t10 10t10 -10zM256 449q0 -10 -10 -10t-10 10t10 10
t10 -10zM258 409q0 -10 -10 -10t-10 10t10 10t10 -10zM250 329q0 -10 -10 -10t-10 10t10 10t10 -10zM331 353h-341v12h246q-4 4 0 9t9 5t9.5 -4.5t-0.5 -9.5h77v-12zM241 290q0 -10 -10 -10t-10 10t10 10t10 -10zM228 252q0 -10 -10 -10t-10 10t10 10t10 -10zM213 215
q0 -10 -10 -10t-10 10t10 10t10 -10zM194 180q0 -10 -10 -10t-10 10t10 10t10 -10zM173 146q0 -10 -10 -10t-10 10t10 10t10 -10zM149 114q0 -10 -10 -10t-10 10t10 10t10 -10zM123 84q0 -10 -10 -10t-10 10t10 10t10 -10zM331 -1h-303l-7 -3l-7 3h-24v12h22q2 3 4.5 4
t4.5 1q8 -3 8 -5h302v-12zM94 56q0 -11 -10 -11t-10 11q0 10 10 10t10 -10zM64 30q0 -10 -10 -10t-10 10t10 10t10 -10zM-3 -15q0 -10 -10 -10t-10 10t10 10t10 -10z" />
    <glyph glyph-name="asterisk" unicode="*" horiz-adv-x="169" 
d="M169 353h-23q15 -10 15 -27q0 -15 -9 -26t-24 -11q-14 0 -25 10t-11 24q0 19 15 30h-117v12h179v-12zM169 -1h-179v12h179v-12z" />
    <glyph glyph-name="plus" unicode="+" horiz-adv-x="442" 
d="M252 449q0 -10 -10 -10t-10 10t10 10t10 -10zM459 242q0 -10 -10 -10t-10 10t10 10t10 -10zM252 408q0 -10 -10 -10t-10 10t10 10t10 -10zM418 242q0 -10 -10 -10t-10 10t10 10t10 -10zM376 242q0 -10 -10 -10t-10 10t10 10t10 -10zM442 353h-452v12h242q-2 11 10 11
q11 0 10 -11h190v-12zM252 325q0 -10 -10 -10t-10 10t10 10t10 -10zM335 242q0 -10 -10 -10t-10 10t10 10t10 -10zM252 284q0 -10 -10 -10t-10 10t10 10t10 -10zM294 242q0 -10 -10 -10t-10 10t10 10t10 -10zM252 243q0 -10 -10 -10t-10 10t10 10t10 -10zM211 242
q0 -10 -10 -10t-10 10t10 10t10 -10zM252 201q0 -10 -10 -10t-10 10t10 10t10 -10zM170 242q0 -10 -10 -10t-10 10t10 10t10 -10zM252 160q0 -10 -10 -10t-10 10t10 10t10 -10zM128 242q0 -10 -10 -10t-10 10t10 10t10 -10zM252 118q0 -10 -10 -10t-10 10t10 10t10 -10z
M87 242q0 -10 -10 -10t-10 10t10 10t10 -10zM252 77q0 -10 -10 -10t-10 10t10 10t10 -10zM46 242q0 -10 -10 -10t-10 10t10 10t10 -10zM252 36q0 -10 -10 -10t-10 10t10 10t10 -10zM442 -1h-452v12h452v-12z" />
    <glyph glyph-name="comma" unicode="," 
d="M167 353h-177v12h177v-12zM154 40q0 -10 -10 -10t-10 10t10 10t10 -10zM167 -1h-177v12h125q2 8 9 8t9 -8h34v-12zM112 -24q0 -10 -10 -10t-10 10t10 10t10 -10zM91 -56q0 -10 -10 -10t-10 10t10 10t10 -10zM70 -87q0 -10 -10 -10t-10 10t10 10t10 -10z" />
    <glyph glyph-name="hyphen" unicode="-" horiz-adv-x="328" 
d="M328 353h-338v12h338v-12zM289 242q0 -10 -10 -10t-10 10t10 10t10 -10zM250 242q0 -10 -10 -10t-10 10t10 10t10 -10zM209 242q0 -10 -10 -10t-10 10t10 10t10 -10zM167 242q0 -10 -10 -10t-10 10t10 10t10 -10zM126 242q0 -10 -10 -10t-10 10t10 10t10 -10zM85 242
q0 -10 -10 -10t-10 10t10 10t10 -10zM328 -1h-338v12h338v-12z" />
    <glyph glyph-name="period" unicode="." horiz-adv-x="169" 
d="M169 353h-179v12h179v-12zM98 51q0 -10 -10 -10t-10 10t10 10t10 -10zM169 -1h-179v12h77q-3 12 10 12q12 0 10 -12h82v-12z" />
    <glyph glyph-name="slash" unicode="/" horiz-adv-x="408" 
d="M418 609q0 -10 -10 -10t-10 10t10 10t10 -10zM398 574q0 -10 -10 -10t-10 10t10 10t10 -10zM377 538q0 -10 -10 -10t-10 10t10 10t10 -10zM357 503q0 -10 -10 -10t-10 10t10 10t10 -10zM337 468q0 -10 -10 -10t-10 10t10 10t10 -10zM316 432q0 -10 -10 -10t-10 10t10 10
t10 -10zM296 397q0 -10 -10 -10t-10 10t10 10t10 -10zM255 327q0 -10 -10 -10t-10 10t10 10t10 -10zM408 353h-418v12h267q2 8 9 8t9 -8h133v-12zM235 291q0 -10 -10 -10t-10 10t10 10t10 -10zM214 256q0 -10 -10 -10t-10 10t10 10t10 -10zM194 220q0 -10 -10 -10t-10 10
t10 10t10 -10zM174 185q0 -10 -10 -10t-10 10t10 10t10 -10zM153 150q0 -10 -10 -10t-10 10t10 10t10 -10zM133 114q0 -10 -10 -10t-10 10t10 10t10 -10zM408 -1h-418v12h62q5 7 9 7t9 -7h338v-12zM113 79q0 -10 -10 -10t-10 10t10 10t10 -10zM92 44q0 -10 -10 -10t-10 10
t10 10t10 -10z" />
    <glyph glyph-name="zero" unicode="0" horiz-adv-x="494" 
d="M450 582q0 -10 -10 -10t-10 10t10 10t10 -10zM419 607q0 -10 -10 -10t-10 10t10 10t10 -10zM471 549q0 -10 -10 -10t-10 10t10 10t10 -10zM382 619q0 -10 -10 -10t-10 10t10 10t10 -10zM483 511q0 -10 -10 -10t-10 10t10 10t10 -10zM342 619q0 -10 -10 -10t-10 10t10 10
t10 -10zM491 472q0 -10 -10 -10t-10 10t10 10t10 -10zM494 432q0 -10 -10 -10t-10 10t10 10t10 -10zM304 608q0 -10 -10 -10t-10 10t10 10t10 -10zM494 393q0 -10 -10 -10t-10 10t10 10t10 -10zM270 587q0 -10 -10 -10t-10 10t10 10t10 -10zM242 559q0 -10 -10 -10t-10 10
t10 10t10 -10zM487 313q0 -10 -10 -10t-10 10t10 10t10 -10zM480 274q0 -10 -10 -10t-10 10t10 10t10 -10zM219 527q0 -10 -10 -10t-10 10t10 10t10 -10zM471 236q0 -10 -10 -10t-10 10t10 10t10 -10zM198 493q0 -10 -10 -10t-10 10t10 10t10 -10zM458 198q0 -10 -10 -10
t-10 10t10 10t10 -10zM180 458q0 -10 -10 -10t-10 10t10 10t10 -10zM494 353q-2 -4 -3 -5q-4 -5 -8 -5q-8 0 -10 10h-483v12h504v-12zM442 161q0 -10 -10 -10t-10 10t10 10t10 -10zM166 420q0 -10 -10 -10t-10 10t10 10t10 -10zM424 127q0 -10 -10 -10t-10 10t10 10t10 -10z
M154 382q0 -10 -10 -10t-10 10t10 10t10 -10zM401 94q0 -10 -10 -10t-10 10t10 10t10 -10zM144 342q0 -10 -10 -10t-10 10t10 10t10 -10zM139 304q0 -10 -10 -10t-10 10t10 10t10 -10zM375 64q0 -10 -10 -10t-10 10t10 10t10 -10zM136 264q0 -10 -10 -10t-10 10t10 10
t10 -10zM343 40q0 -10 -10 -10t-10 10t10 10t10 -10zM135 224q0 -10 -10 -10t-10 10t10 10t10 -10zM307 23q0 -10 -10 -10t-10 10t10 10t10 -10zM136 185q0 -10 -10 -10t-10 10t10 10t10 -10zM142 146q0 -10 -10 -10t-10 10t10 10t10 -10zM494 -1h-504v12h260l-2 6
q0 10 10 10t10 -10l-2 -6h228v-12zM152 107q0 -10 -10 -10t-10 10t10 10t10 -10zM230 23q0 -10 -10 -10t-10 10t10 10t10 -10zM169 72q0 -10 -10 -10t-10 10t10 10t10 -10zM196 42q0 -10 -10 -10t-10 10t10 10t10 -10z" />
    <glyph glyph-name="one" unicode="1" horiz-adv-x="355" 
d="M333 607q0 -10 -10 -10t-10 10t10 10t10 -10zM326 568q0 -10 -10 -10t-10 10t10 10t10 -10zM302 580q0 -10 -10 -10t-10 10t10 10t10 -10zM318 528q0 -10 -10 -10t-10 10t10 10t10 -10zM273 555q0 -10 -10 -10t-10 10t10 10t10 -10zM310 488q0 -10 -10 -10t-10 10t10 10
t10 -10zM243 530q0 -10 -10 -10t-10 10t10 10t10 -10zM302 448q0 -10 -10 -10t-10 10t10 10t10 -10zM213 505q0 -10 -10 -10t-10 10t10 10t10 -10zM294 408q0 -10 -10 -10t-10 10t10 10t10 -10zM184 480q0 -10 -10 -10t-10 10t10 10t10 -10zM155 456q0 -10 -10 -10t-10 10
t10 10t10 -10zM277 328q0 -10 -10 -10t-10 10t10 10t10 -10zM269 288q0 -10 -10 -10t-10 10t10 10t10 -10zM355 353h-365v12h276q-4 4 0 8.5t9 4.5t9 -4.5t0 -8.5h71v-12zM261 248q0 -10 -10 -10t-10 10t10 10t10 -10zM253 208q0 -10 -10 -10t-10 10t10 10t10 -10zM245 168
q0 -10 -10 -10t-10 10t10 10t10 -10zM237 128q0 -10 -10 -10t-10 10t10 10t10 -10zM229 88q0 -10 -10 -10t-10 10t10 10t10 -10zM221 48q0 -10 -10 -10t-10 10t10 10t10 -10zM355 -1h-365v12h204q2 8 9 8t9 -8h143v-12z" />
    <glyph glyph-name="two" unicode="2" horiz-adv-x="488" 
d="M436 579q0 -10 -10 -10t-10 10t10 10t10 -10zM404 603q0 -10 -10 -10t-10 10t10 10t10 -10zM458 545q0 -10 -10 -10t-10 10t10 10t10 -10zM366 617q0 -10 -10 -10t-10 10t10 10t10 -10zM467 506q0 -10 -10 -10t-10 10t10 10t10 -10zM326 618q0 -10 -10 -10t-10 10t10 10
t10 -10zM464 466q0 -10 -10 -10t-10 10t10 10t10 -10zM287 607q0 -10 -10 -10t-10 10t10 10t10 -10zM452 427q0 -10 -10 -10t-10 10t10 10t10 -10zM253 585q0 -10 -10 -10t-10 10t10 10t10 -10zM433 392q0 -10 -10 -10t-10 10t10 10t10 -10zM226 555q0 -10 -10 -10t-10 10
t10 10t10 -10zM204 521q0 -10 -10 -10t-10 10t10 10t10 -10zM382 329q0 -10 -10 -10t-10 10t10 10t10 -10zM188 483q0 -10 -10 -10t-10 10t10 10t10 -10zM354 299q0 -10 -10 -10t-10 10q0 11 10 11t10 -11zM488 353h-81q-4 -2 -5.5 -3t-2.5 -1q-7 3 -8 4h-401v12h401
q2 2 3.5 2.5l4.5 1.5l7 -4h82v-12zM325 271q0 -10 -10 -10t-10 10t10 10t10 -10zM436 105q0 -10 -10 -10t-10 10t10 10t10 -10zM296 242q0 -10 -10 -10t-10 10t10 10t10 -10zM267 214q0 -10 -10 -10t-10 10t10 10t10 -10zM411 72q0 -10 -10 -10t-10 10t10 10t10 -10zM383 43
q0 -10 -10 -10t-10 10t10 10t10 -10zM238 185q0 -10 -10 -10t-10 10t10 10t10 -10zM349 22q0 -10 -10 -10t-10 10t10 10t10 -10zM209 157q0 -10 -10 -10t-10 10t10 10t10 -10zM308 22q0 -10 -10 -10t-10 10t10 10t10 -10zM180 129q0 -10 -10 -10t-10 10t10 10t10 -10z
M270 33q0 -10 -10 -10t-10 10t10 10t10 -10zM232 47q0 -10 -10 -10t-10 10q0 11 10 11t10 -11zM488 -1h-498v12h55l-3 7q0 10 10 10t10 -10l-3 -7h429v-12zM150 102q0 -10 -10 -10t-10 10t10 10t10 -10zM192 55q0 -10 -10 -10t-10 10t10 10t10 -10zM152 50q0 -10 -10 -10
t-10 10q0 11 10 11t10 -11zM121 74q0 -10 -10 -10t-10 10t10 10t10 -10zM114 37q0 -10 -10 -10t-10 10t10 10t10 -10zM91 46q0 -10 -10 -10t-10 10t10 10t10 -10z" />
    <glyph glyph-name="three" unicode="3" horiz-adv-x="446" 
d="M407 581q0 -10 -10 -10t-10 10t10 10t10 -10zM433 550q0 -10 -10 -10t-10 10t10 10t10 -10zM372 603q0 -10 -10 -10t-10 10t10 10t10 -10zM447 512q0 -10 -10 -10t-10 10t10 10t10 -10zM332 612q0 -10 -10 -10t-10 10t10 10t10 -10zM449 471q0 -10 -10 -10t-10 10t10 10
t10 -10zM292 606q0 -10 -10 -10t-10 10t10 10t10 -10zM438 432q0 -10 -10 -10t-10 10t10 10t10 -10zM255 589q0 -10 -10 -10t-10 10t10 10t10 -10zM415 398q0 -10 -10 -10t-10 10t10 10t10 -10zM222 564q0 -10 -10 -10t-10 10t10 10t10 -10zM194 533q0 -10 -10 -10t-10 10
t10 10t10 -10zM173 498q0 -10 -10 -10t-10 10t10 10t10 -10zM308 340q0 -10 -10 -10t-10 10t10 10t10 -10zM335 298q0 -10 -10 -10t-10 10q0 11 10 11t10 -11zM367 272q0 -10 -10 -10t-10 10t10 10t10 -10zM391 240q0 -10 -10 -10t-10 10t10 10t10 -10zM299 318
q0 -10 -10 -10t-10 10t10 10t10 -10zM405 201q0 -10 -10 -10t-10 10t10 10t10 -10zM268 331q0 -10 -10 -10t-10 10t10 10t10 -10zM446 353h-99q0 -11 -10 -11q-11 0 -10 11h-337v12h376l-3 7q0 10 10 10t10 -10l-3 -7h66v-12zM406 160q0 -10 -10 -10t-10 10t10 10t10 -10z
M397 120q0 -10 -10 -10t-10 10t10 10t10 -10zM377 84q0 -10 -10 -10t-10 10t10 10t10 -10zM350 54q0 -10 -10 -10t-10 10t10 10t10 -10zM316 31q0 -10 -10 -10t-10 10t10 10t10 -10zM446 -1h-456v12h192q-6 4 -6 9q0 10 10 10t10 -10q0 -5 -6 -9h27q-4 4 0 8.5t9 4.5t9 -4.5
t0 -8.5h25l-3 7q0 10 10 10t10 -10l-3 -7h172v-12zM82 132q0 -10 -10 -10t-10 10t10 10t10 -10zM159 38q0 -10 -10 -10t-10 10t10 10t10 -10zM102 96q0 -10 -10 -10t-10 10t10 10t10 -10zM127 65q0 -10 -10 -10t-10 10t10 10t10 -10z" />
    <glyph glyph-name="four" unicode="4" horiz-adv-x="433" 
d="M221 629q0 -10 -10 -10t-10 10t10 10t10 -10zM213 590q0 -10 -10 -10t-10 10t10 10t10 -10zM136 275q0 -10 -10 -10t-10 10t10 10t10 -10zM127 235q0 -10 -10 -10t-10 10t10 10t10 -10zM167 393q0 -10 -10 -10t-10 10t10 10t10 -10zM147 313q0 -10 -10 -10t-10 10t10 10
t10 -10zM203 551q0 -10 -10 -10t-10 10t10 10t10 -10zM194 511q0 -10 -10 -10t-10 10t10 10t10 -10zM185 471q0 -10 -10 -10t-10 10t10 10t10 -10zM177 432q0 -10 -10 -10t-10 10t10 10t10 -10zM273 38q0 -10 -10 -10t-10 10t10 10t10 -10zM264 -1q3 -11 -10 -11
q-4 0 -7.5 3.5t-2.5 7.5h-254v12h443v-12h-169zM304 156q0 -10 -10 -10t-10 10t10 10t10 -10zM294 116q0 -10 -10 -10t-10 10t10 10t10 -10zM284 76q0 -10 -10 -10t-10 10t10 10t10 -10zM340 314q0 -10 -10 -10t-10 10t10 10t10 -10zM331 274q0 -10 -10 -10t-10 10t10 10
t10 -10zM322 234q0 -10 -10 -10t-10 10t10 10t10 -10zM114 195q0 -10 -10 -10t-10 10t10 10t10 -10zM154 195q0 -10 -10 -10t-10 10t10 10t10 -10zM194 195q0 -10 -10 -10t-10 10t10 10t10 -10zM234 195q0 -10 -10 -10t-10 10t10 10t10 -10zM274 195q0 -10 -10 -10t-10 10
t10 10t10 -10zM314 195q0 -10 -10 -10t-10 10t10 10t10 -10zM354 195q0 -10 -10 -10t-10 10t10 10t10 -10zM394 195q0 -10 -10 -10t-10 10t10 10t10 -10zM434 195q0 -10 -10 -10t-10 10t10 10t10 -10zM157 353q3 -11 -10 -11q-10 0 -10 11h-147v12h443v-12h-276z" />
    <glyph glyph-name="five" unicode="5" horiz-adv-x="434" 
d="M483 620q0 -10 -10 -10t-10 10t10 10t10 -10zM448 601q0 -10 -10 -10t-10 10t10 10t10 -10zM411 589q0 -10 -10 -10t-10 10t10 10t10 -10zM373 582q0 -10 -10 -10t-10 10t10 10t10 -10zM334 581q0 -10 -10 -10t-10 10t10 10t10 -10zM295 586q0 -10 -10 -10t-10 10t10 10
t10 -10zM257 597q0 -10 -10 -10t-10 10t10 10t10 -10zM221 612q0 -10 -10 -10t-10 10t10 10t10 -10zM211 576q0 -10 -10 -10t-10 10t10 10t10 -10zM200 538q0 -10 -10 -10t-10 10t10 10t10 -10zM393 311q0 -10 -10 -10t-10 10t10 10t10 -10zM190 500q0 -10 -10 -10t-10 10
t10 10t10 -10zM302 383q0 -10 -10 -10t-10 10t10 10t10 -10zM407 273q0 -10 -10 -10t-10 10t10 10t10 -10zM179 463q0 -10 -10 -10t-10 10t10 10t10 -10zM262 385q0 -10 -10 -10t-10 10t10 10t10 -10zM412 234q0 -10 -10 -10t-10 10t10 10t10 -10zM408 193q0 -10 -10 -10
t-10 10t10 10t10 -10zM221 380q0 -10 -10 -10t-10 10t10 10t10 -10zM168 425q0 -10 -10 -10t-10 10t10 10t10 -10zM434 353h-67l3 -9q0 -10 -10 -10t-10 10l3 9h-206q3 -6 0 -9.5t-9 -3.5q-5 0 -8 4t-1 9h-139v12h173q-2 12 10 12t10 -12h137q-3 4 0 9t9 5q5 0 9.5 -4.5
t-0.5 -9.5h96v-12zM398 154q0 -10 -10 -10t-10 10t10 10t10 -10zM158 388q0 -10 -10 -10t-10 10t10 10t10 -10zM381 118q0 -10 -10 -10t-10 10t10 10t10 -10zM358 85q0 -10 -10 -10t-10 10t10 10t10 -10zM328 58q0 -10 -10 -10t-10 10t10 10t10 -10zM294 36q0 -10 -10 -10
t-10 10t10 10t10 -10zM257 22q0 -10 -10 -10t-10 10t10 10t10 -10zM434 -1h-444v12h168l-2 6q0 10 10 10t10 -10l-3 -6h25l-2 5q0 10 10 10t10 -10l-2 -5h220v-12zM137 26q0 -10 -10 -10t-10 10t10 10t10 -10zM73 73q0 -10 -10 -10t-10 10t10 10t10 -10zM102 45
q0 -10 -10 -10t-10 10q0 11 10 11t10 -11z" />
    <glyph glyph-name="six" unicode="6" horiz-adv-x="454" 
d="M400 632q0 -10 -10 -10t-10 10t10 10t10 -10zM367 608q0 -10 -10 -10t-10 10t10 10t10 -10zM335 583q0 -10 -10 -10t-10 10t10 10t10 -10zM306 556q0 -10 -10 -10t-10 10t10 10t10 -10zM277 527q0 -10 -10 -10t-10 10t10 10t10 -10zM250 497q0 -10 -10 -10t-10 10t10 10
t10 -10zM355 391q0 -10 -10 -10t-10 10t10 10t10 -10zM412 337q0 -10 -10 -10t-10 10t10 10t10 -10zM427 299q0 -10 -10 -10t-10 10t10 10t10 -10zM316 401q0 -10 -10 -10t-10 10t10 10t10 -10zM435 260q0 -10 -10 -10t-10 10t10 10t10 -10zM225 466q0 -10 -10 -10t-10 10
t10 10t10 -10zM276 401q0 -10 -10 -10t-10 10t10 10t10 -10zM436 219q0 -10 -10 -10t-10 10t10 10t10 -10zM202 433q0 -10 -10 -10t-10 10t10 10t10 -10zM236 393q0 -10 -10 -10t-10 10t10 10t10 -10zM429 180q0 -10 -10 -10t-10 10t10 10t10 -10zM454 353h-464v12h153
q4 8 10 8q7 0 9 -8h207q-4 4 0 9t9 5t9.5 -4.5t-0.5 -9.5h67v-12zM181 398q0 -10 -10 -10t-10 10t10 10t10 -10zM200 377q0 -10 -10 -10t-10 10t10 10t10 -10zM417 142q0 -10 -10 -10t-10 10t10 10t10 -10zM399 106q0 -10 -10 -10t-10 10t10 10t10 -10zM147 325
q0 -10 -10 -10t-10 10t10 10t10 -10zM375 73q0 -10 -10 -10t-10 10t10 10t10 -10zM135 286q0 -10 -10 -10t-10 10t10 10t10 -10zM346 46q0 -10 -10 -10t-10 10t10 10t10 -10zM127 247q0 -10 -10 -10t-10 10t10 10t10 -10zM310 27q0 -10 -10 -10t-10 10t10 10t10 -10z
M122 207q0 -10 -10 -10t-10 10t10 10t10 -10zM122 166q0 -10 -10 -10t-10 10t10 10t10 -10zM127 126q0 -10 -10 -10t-10 10t10 10t10 -10zM454 -1h-464v12h224q-2 4 -3 5t-1 3q0 10 10 10q11 0 11 -10q-3 -7 -5 -8h28l-3 7q0 10 10 10t10 -10q-2 -6 -4 -7h187v-12zM138 88
q0 -10 -10 -10t-10 10t10 10t10 -10zM192 30q0 -10 -10 -10t-10 10t10 10t10 -10zM160 54q0 -10 -10 -10t-10 10t10 10t10 -10z" />
    <glyph glyph-name="seven" unicode="7" horiz-adv-x="431" 
d="M489 619q0 -10 -10 -10t-10 10t10 10t10 -10zM453 604q0 -10 -10 -10t-10 10t10 10t10 -10zM469 586q0 -10 -10 -10t-10 10t10 10t10 -10zM416 592q0 -10 -10 -10t-10 10t10 10t10 -10zM448 553q0 -10 -10 -10t-10 10t10 10t10 -10zM379 585q0 -10 -10 -10t-10 10t10 10
t10 -10zM428 520q0 -10 -10 -10t-10 10t10 10t10 -10zM340 584q0 -10 -10 -10t-10 10t10 10t10 -10zM303 591q0 -10 -10 -10t-10 10t10 10t10 -10zM408 486q0 -10 -10 -10t-10 10t10 10t10 -10zM266 601q0 -10 -10 -10t-10 10t10 10t10 -10zM228 609q0 -10 -10 -10t-10 10
t10 10t10 -10zM387 453q0 -10 -10 -10t-10 10t10 10t10 -10zM190 606q0 -10 -10 -10t-10 10t10 10t10 -10zM367 420q0 -10 -10 -10t-10 10t10 10t10 -10zM160 584q0 -10 -10 -10t-10 10t10 10t10 -10zM421 320q0 -10 -10 -10t-10 10t10 10t10 -10zM347 386q0 -10 -10 -10
t-10 10t10 10t10 -10zM383 320q0 -10 -10 -10t-10 10t10 10t10 -10zM136 554q0 -10 -10 -10t-10 10t10 10t10 -10zM344 320q0 -10 -10 -10t-10 10t10 10t10 -10zM113 523q0 -10 -10 -10t-10 10t10 10t10 -10zM305 320q0 -10 -10 -10t-10 10t10 10t10 -10zM267 320
q0 -10 -10 -10t-10 10t10 10t10 -10zM431 353h-106q0 -11 -10 -11t-10 11h-315v12h441v-12zM285 285q0 -10 -10 -10t-10 10t10 10t10 -10zM228 320q0 -10 -10 -10t-10 10t10 10t10 -10zM264 250q0 -10 -10 -10t-10 10t10 10t10 -10zM189 320q0 -10 -10 -10t-10 10t10 10
t10 -10zM242 216q0 -10 -10 -10t-10 10t10 10t10 -10zM221 181q0 -10 -10 -10t-10 10t10 10t10 -10zM200 146q0 -10 -10 -10t-10 10t10 10t10 -10zM179 112q0 -10 -10 -10t-10 10t10 10t10 -10zM158 77q0 -10 -10 -10t-10 10t10 10t10 -10zM431 -1h-441v12h105q2 8 10 8
q9 0 9 -8h317v-12zM137 43q0 -10 -10 -10t-10 10t10 10t10 -10z" />
    <glyph glyph-name="eight" unicode="8" horiz-adv-x="476" 
d="M437 591q0 -10 -10 -10t-10 10t10 10t10 -10zM466 562q0 -10 -10 -10t-10 10t10 10t10 -10zM399 608q0 -10 -10 -10t-10 10t10 10t10 -10zM485 525q0 -10 -10 -10t-10 10t10 10t10 -10zM490 484q0 -10 -10 -10q-11 0 -11 10t11 10q10 0 10 -10zM358 612q0 -10 -10 -10
t-10 10t10 10t10 -10zM480 443q0 -10 -10 -10t-10 10t10 10t10 -10zM316 605q0 -10 -10 -10t-10 10t10 10t10 -10zM278 589q0 -10 -10 -10t-10 10t10 10t10 -10zM457 409q0 -10 -10 -10t-10 10t10 10t10 -10zM245 564q0 -10 -10 -10q-11 0 -11 10t11 10q10 0 10 -10z
M425 381q0 -10 -10 -10t-10 10t10 10t10 -10zM221 530q0 -10 -10 -10t-10 10t10 10t10 -10zM209 490q0 -10 -10 -10t-10 10t10 10t10 -10zM381 283q0 -10 -10 -10t-10 10t10 10t10 -10zM410 255q0 -10 -10 -10t-10 10t10 10t10 -10zM209 449q0 -10 -10 -10t-10 10t10 10
t10 -10zM348 307q0 -10 -10 -10t-10 10t10 10t10 -10zM433 222q0 -10 -10 -10t-10 10t10 10t10 -10zM315 329q0 -10 -10 -10t-10 10t10 10t10 -10zM223 410q0 -10 -10 -10t-10 10t10 10t10 -10zM443 183q0 -10 -10 -10t-10 10t10 10t10 -10zM250 377q0 -10 -10 -10t-10 10
t10 10t10 -10zM476 353h-128l3 -9q0 -10 -10 -10t-10 10l3 9h-52q2 -12 -10 -12t-10 12h-272v12h380q5 7 9 7q7 0 9 -7h88v-12zM276 309q0 -10 -10 -10t-10 10t10 10t10 -10zM439 142q0 -10 -10 -10t-10 10t10 10t10 -10zM239 292q0 -10 -10 -10t-10 10t10 10t10 -10z
M427 104q0 -10 -10 -10t-10 10t10 10t10 -10zM203 274q0 -10 -10 -10t-10 10t10 10t10 -10zM405 71q0 -10 -10 -10t-10 10t10 10t10 -10zM169 252q0 -10 -10 -10t-10 10t10 10t10 -10zM374 44q0 -10 -10 -10t-10 10q0 11 10 11t10 -11zM143 222q0 -10 -10 -10t-10 10t10 10
t10 -10zM337 28q0 -10 -10 -10t-10 10t10 10t10 -10zM128 184q0 -10 -10 -10t-10 10t10 10t10 -10zM125 144q0 -10 -10 -10t-10 10t10 10t10 -10zM476 -1h-486v12h251q-2 4 -3 5t-1 3q0 10 10 10t10 -10q-3 -7 -5 -8h32q-6 4 -6 9q0 10 10 10t10 -10q0 -5 -6 -9h184v-12z
M217 25q0 -10 -10 -10t-10 10t10 10t10 -10zM132 104q0 -10 -10 -10t-10 10t10 10t10 -10zM150 68q0 -10 -10 -10t-10 10t10 10t10 -10zM180 41q0 -10 -10 -10t-10 10t10 10t10 -10z" />
    <glyph glyph-name="nine" unicode="9" horiz-adv-x="454" 
d="M414 577q0 -10 -10 -10t-10 10t10 10t10 -10zM382 601q0 -10 -10 -10t-10 10t10 10t10 -10zM435 544q0 -10 -10 -10t-10 10t10 10t10 -10zM343 612q0 -10 -10 -10t-10 10t10 10t10 -10zM447 505q0 -10 -10 -10t-10 10t10 10t10 -10zM303 613q0 -10 -10 -10t-10 10t10 10
t10 -10zM451 465q0 -10 -10 -10t-10 10t10 10t10 -10zM451 425q0 -10 -10 -10t-10 10t10 10t10 -10zM263 605q0 -10 -10 -10t-10 10t10 10t10 -10zM447 385q0 -10 -10 -10t-10 10t10 10t10 -10zM228 586q0 -10 -10 -10t-10 10t10 10t10 -10zM198 559q0 -10 -10 -10t-10 10
t10 10t10 -10zM426 307q0 -11 -10 -11t-10 11q0 10 10 10t10 -10zM175 526q0 -10 -10 -10t-10 10t10 10t10 -10zM411 269q0 -10 -10 -10t-10 10t10 10t10 -10zM156 490q0 -10 -10 -10t-10 10t10 10t10 -10zM374 252q0 -10 -10 -10t-10 10t10 10t10 -10zM392 233
q0 -10 -10 -10t-10 10t10 10t10 -10zM144 452q0 -10 -10 -10t-10 10t10 10t10 -10zM454 353h-19l3 -8q0 -10 -10 -10t-10 10l3 8h-431v12h131l-3 7q0 10 10 10t10 -10l-3 -7h319v-12zM337 237q0 -10 -10 -10t-10 10t10 10t10 -10zM371 199q0 -10 -10 -10t-10 10t10 10
t10 -10zM137 412q0 -10 -10 -10t-10 10t10 10t10 -10zM297 230q0 -10 -10 -10t-10 10t10 10t10 -10zM348 166q0 -10 -10 -10t-10 10t10 10t10 -10zM257 230q0 -10 -10 -10t-10 10t10 10t10 -10zM146 333q0 -10 -10 -10t-10 10t10 10t10 -10zM218 240q0 -10 -10 -10t-10 10
t10 10t10 -10zM323 134q0 -10 -10 -10t-10 10t10 10t10 -10zM161 295q0 -10 -10 -10t-10 10t10 10t10 -10zM185 263q0 -10 -10 -10t-10 10t10 10t10 -10zM296 105q0 -10 -10 -10t-10 10t10 10t10 -10zM268 76q0 -10 -10 -10t-10 10t10 10t10 -10zM238 49q0 -10 -10 -10
t-10 10t10 10t10 -10zM206 23q0 -10 -10 -10t-10 10t10 10t10 -10zM454 -1h-280q-2 -9 -10 -9t-10 9h-164v12h464v-12z" />
    <glyph glyph-name="colon" unicode=":" horiz-adv-x="194" 
d="M200 309q0 -10 -10 -10t-10 10t10 10t10 -10zM210 347q0 -10 -10 -10t-10 10l2 6h-202v12h204v-10l6 2q10 0 10 -10zM148 51q0 -10 -10 -10t-10 10t10 10t10 -10zM194 -1h-204v12h127q-4 12 10 12q13 0 10 -12h57v-12z" />
    <glyph glyph-name="semicolon" unicode=";" horiz-adv-x="194" 
d="M237 314q0 -10 -10 -10t-10 10t10 10t10 -10zM226 276q0 -10 -10 -10t-10 10t10 10t10 -10zM194 353h-204v12h204v-12zM177 40q0 -10 -10 -10t-10 10t10 10t10 -10zM135 -24q0 -10 -10 -10t-10 10t10 10t10 -10zM194 -1h-204v12h149q2 8 9 8q9 0 9 -8h37v-12zM114 -56
q0 -10 -10 -10t-10 10t10 10t10 -10zM93 -87q0 -10 -10 -10t-10 10t10 10t10 -10z" />
    <glyph glyph-name="less" unicode="&#x3c;" horiz-adv-x="435" 
d="M349 335q0 -10 -10 -10t-10 10t10 10t10 -10zM311 321q0 -10 -10 -10t-10 10t10 10t10 -10zM273 308q0 -10 -10 -10t-10 10t10 10t10 -10zM435 353h-48q2 -13 -10 -13q-13 0 -10 13h-377v12h416q0 9 10 9t10 -9h9v-12zM426 136q0 -10 -10 -10t-10 10t10 10t10 -10z
M388 150q0 -10 -10 -10t-10 10t10 10t10 -10zM235 294q0 -10 -10 -10t-10 10t10 10t10 -10zM349 164q0 -10 -10 -10t-10 10t10 10t10 -10zM311 178q0 -10 -10 -10t-10 10t10 10t10 -10zM197 281q0 -10 -10 -10t-10 10t10 10t10 -10zM273 191q0 -10 -10 -10t-10 10t10 10
t10 -10zM235 206q0 -10 -10 -10t-10 10t10 10t10 -10zM159 266q0 -10 -10 -10t-10 10t10 10t10 -10zM196 220q0 -10 -10 -10t-10 10t10 10t10 -10zM159 235q0 -10 -10 -10t-10 10t10 10t10 -10zM122 251q0 -10 -10 -10t-10 10t10 10t10 -10zM435 -1h-445v12h445v-12z" />
    <glyph glyph-name="equal" unicode="=" horiz-adv-x="435" 
d="M418 291q0 -10 -10 -10t-10 10t10 10t10 -10zM376 291q0 -10 -10 -10t-10 10t10 10t10 -10zM335 291q0 -10 -10 -10t-10 10t10 10t10 -10zM418 169q0 -10 -10 -10t-10 10t10 10t10 -10zM294 291q0 -10 -10 -10t-10 10t10 10t10 -10zM435 353h-445v12h445v-12zM376 169
q0 -10 -10 -10t-10 10t10 10t10 -10zM252 292q0 -10 -10 -10t-10 10t10 10t10 -10zM335 169q0 -10 -10 -10t-10 10t10 10t10 -10zM211 291q0 -10 -10 -10t-10 10t10 10t10 -10zM294 169q0 -10 -10 -10t-10 10t10 10t10 -10zM170 291q0 -10 -10 -10t-10 10t10 10t10 -10z
M128 291q0 -10 -10 -10t-10 10t10 10t10 -10zM252 170q0 -10 -10 -10t-10 10t10 10t10 -10zM211 169q0 -10 -10 -10t-10 10t10 10t10 -10zM87 291q0 -10 -10 -10t-10 10t10 10t10 -10zM170 169q0 -10 -10 -10t-10 10t10 10t10 -10zM46 291q0 -10 -10 -10t-10 10t10 10
t10 -10zM128 169q0 -10 -10 -10t-10 10t10 10t10 -10zM87 169q0 -10 -10 -10t-10 10t10 10t10 -10zM435 -1h-445v12h445v-12zM46 169q0 -10 -10 -10t-10 10t10 10t10 -10z" />
    <glyph glyph-name="greater" unicode="&#x3e;" horiz-adv-x="435" 
d="M436 251q0 -10 -10 -10t-10 10t10 10t10 -10zM399 266q0 -10 -10 -10t-10 10t10 10t10 -10zM361 281q0 -10 -10 -10t-10 10t10 10t10 -10zM399 235q0 -10 -10 -10t-10 10t10 10t10 -10zM323 294q0 -10 -10 -10t-10 10t10 10t10 -10zM285 308q0 -10 -10 -10t-10 10t10 10
t10 -10zM435 353h-264q1 -13 -10 -13t-10 13h-161v12h122q0 9 10 9t10 -9h303v-12zM362 220q0 -10 -10 -10t-10 10t10 10t10 -10zM247 321q0 -10 -10 -10t-10 10t10 10t10 -10zM209 335q0 -10 -10 -10t-10 10t10 10t10 -10zM323 206q0 -10 -10 -10t-10 10t10 10t10 -10z
M285 191q0 -10 -10 -10t-10 10t10 10t10 -10zM247 178q0 -10 -10 -10t-10 10t10 10t10 -10zM209 164q0 -10 -10 -10t-10 10t10 10t10 -10zM170 150q0 -10 -10 -10t-10 10t10 10t10 -10zM132 136q0 -10 -10 -10t-10 10t10 10t10 -10zM435 -1h-445v12h445v-12z" />
    <glyph glyph-name="question" unicode="?" horiz-adv-x="415" 
d="M421 581q0 -10 -10 -10t-10 10t10 10t10 -10zM387 603q0 -10 -10 -10t-10 10t10 10t10 -10zM438 544q0 -10 -10 -10t-10 10t10 10t10 -10zM346 610q0 -10 -10 -10t-10 10t10 10t10 -10zM438 503q0 -10 -10 -10t-10 10t10 10t10 -10zM306 601q0 -10 -10 -10t-10 10t10 10
t10 -10zM425 464q0 -10 -10 -10t-10 10t10 10t10 -10zM270 581q0 -10 -10 -10t-10 10t10 10t10 -10zM403 429q0 -10 -10 -10t-10 10t10 10t10 -10zM236 556q0 -10 -10 -10t-10 10t10 10t10 -10zM375 399q0 -10 -10 -10t-10 10t10 10t10 -10zM283 316q0 -10 -10 -10t-10 10
t10 10t10 -10zM415 353h-104l3 -9q0 -10 -10 -10t-10 10l3 9h-307v12h337l-3 7q0 10 10 10t10 -10l-3 -7h74v-12zM252 288q0 -10 -10 -10t-10 10t10 10t10 -10zM369 166q0 -10 -10 -10t-10 10t10 10t10 -10zM224 259q0 -10 -10 -10t-10 10t10 10t10 -10zM337 140
q0 -10 -10 -10t-10 10t10 10t10 -10zM204 222q0 -10 -10 -10t-10 10t10 10t10 -10zM299 126q0 -10 -10 -10t-10 10t10 10t10 -10zM204 182q0 -10 -10 -10t-10 10t10 10t10 -10zM257 125q0 -10 -10 -10t-10 10t10 10t10 -10zM222 145q0 -10 -10 -10t-10 10t10 10t10 -10z
M228 23q0 -10 -10 -10t-10 10t10 10t10 -10zM415 -1h-425v12h425v-12z" />
    <glyph glyph-name="at" unicode="@" horiz-adv-x="400" 
d="M400 353h-410v12h410v-12zM400 -1h-410v12h410v-12z" />
    <glyph glyph-name="A" unicode="A" horiz-adv-x="636" 
d="M656 699q0 -10 -10 -10t-10 10t10 10t10 -10zM648 657q0 -10 -10 -10t-10 10t10 10t10 -10zM628 666q0 -10 -10 -10t-10 10t10 10t10 -10zM640 617q0 -10 -10 -10t-10 10t10 10t10 -10zM604 631q0 -10 -10 -10t-10 10t10 10t10 -10zM631 576q0 -10 -10 -10t-10 10t10 10
t10 -10zM578 598q0 -10 -10 -10t-10 10t10 10t10 -10zM622 535q0 -10 -10 -10t-10 10t10 10t10 -10zM552 565q0 -10 -10 -10t-10 10t10 10t10 -10zM613 495q0 -10 -10 -10t-10 10t10 10t10 -10zM790 314q0 -10 -10 -10t-10 10t10 10t10 -10zM605 454q0 -10 -10 -10t-10 10
t10 10t10 -10zM526 531q0 -10 -10 -10t-10 10t10 10t10 -10zM759 286q0 -10 -10 -10t-10 10t10 10t10 -10zM597 413q0 -10 -10 -10t-10 10t10 10t10 -10zM500 498q0 -10 -10 -10t-10 10t10 10t10 -10zM722 267q0 -10 -10 -10t-10 10t10 10t10 -10zM474 465q0 -10 -10 -10
t-10 10t10 10t10 -10zM683 250q0 -10 -10 -10t-10 10t10 10t10 -10zM580 332q0 -10 -10 -10t-10 10t10 10t10 -10zM448 431q0 -10 -10 -10t-10 10t10 10t10 -10zM641 232q0 -10 -10 -10t-10 10t10 10t10 -10zM571 291q0 -10 -10 -10t-10 10t10 10t10 -10zM422 398
q0 -10 -10 -10t-10 10t10 10t10 -10zM563 251q0 -10 -10 -10t-10 10t10 10t10 -10zM596 220q0 -10 -10 -10t-10 10t10 10t10 -10zM555 210q0 -10 -10 -10t-10 10t10 10t10 -10zM513 205q0 -10 -10 -10t-10 10t10 10t10 -10zM546 169q0 -10 -10 -10t-10 10t10 10t10 -10z
M370 331q0 -10 -10 -10t-10 10t10 10t10 -10zM636 353h-646v12h385q2 9 10 9t10 -9h177q-2 4 -3 5t-1 3q0 10 10 10t10 -10q-2 -7 -4 -8h52v-12zM538 129q0 -10 -10 -10t-10 10t10 10t10 -10zM467 201q0 -10 -10 -10t-10 10t10 10t10 -10zM344 298q0 -10 -10 -10t-10 10
t10 10t10 -10zM421 201q0 -10 -10 -10t-10 10t10 10t10 -10zM529 88q0 -10 -10 -10t-10 10t10 10t10 -10zM318 264q0 -10 -10 -10t-10 10t10 10t10 -10zM376 205q0 -10 -10 -10t-10 10t10 10t10 -10zM521 47q0 -10 -10 -10t-10 10t10 10t10 -10zM332 215q0 -10 -10 -10
t-10 10t10 10t10 -10zM292 230q0 -10 -10 -10t-10 10t10 10t10 -10zM257 249q0 -10 -10 -10t-10 10t10 10t10 -10zM225 273q0 -10 -10 -10t-10 10t10 10t10 -10zM267 199q0 -10 -10 -10t-10 10t10 10t10 -10zM242 166q0 -10 -10 -10t-10 10t10 10t10 -10zM217 134
q0 -10 -10 -10t-10 10t10 10t10 -10zM636 -1h-126l-7 -3l-7 3h-506v12h11q-2 1 -4 8q0 10 10 10t10 -10q-3 -7 -4 -8h29q-2 1 -4 8q0 10 10 10t10 -10q-3 -7 -4 -8h440q3 5 9 5q8 -3 9 -5h124v-12zM192 102q0 -10 -10 -10t-10 10t10 10t10 -10zM164 72q0 -10 -10 -10t-10 10
t10 10t10 -10zM134 45q0 -10 -10 -10t-10 10t10 10t10 -10zM98 25q0 -10 -10 -10t-10 10t10 10t10 -10z" />
    <glyph glyph-name="B" unicode="B" horiz-adv-x="542" 
d="M469 644q0 -10 -10 -10t-10 10t10 10t10 -10zM433 668q0 -10 -10 -10t-10 10t10 10t10 -10zM493 610q0 -10 -10 -10t-10 10t10 10t10 -10zM503 569q0 -10 -10 -10t-10 10t10 10t10 -10zM393 679q0 -10 -11 -10q-10 0 -10 10t10 10q11 0 11 -10zM350 681q0 -10 -10 -10
t-10 10t10 10t10 -10zM502 526q0 -10 -10 -10t-10 10t10 10t10 -10zM307 681q0 -10 -10 -10t-10 10t10 10t10 -10zM489 486q0 -10 -10 -10t-10 10t10 10t10 -10zM266 681q0 -10 -10 -10t-10 10t10 10t10 -10zM466 449q0 -10 -10 -10t-10 10t10 10t10 -10zM226 681
q0 -10 -10 -10t-10 10t10 10t10 -10zM258 641q0 -10 -10 -10t-10 10t10 10t10 -10zM187 681q0 -10 -10 -10t-10 10t10 10t10 -10zM438 418q0 -10 -10 -10t-10 10t10 10t10 -10zM249 600q0 -10 -10 -10t-10 10t10 10t10 -10zM148 681q0 -10 -10 -10t-10 10t10 10t10 -10z
M240 560q0 -11 -10 -11t-10 11q0 10 10 10t10 -10zM403 394q0 -10 -10 -10t-10 10t10 10t10 -10zM450 320q0 -10 -10 -10t-10 10t10 10t10 -10zM480 290q0 -10 -10 -10t-10 10t10 10t10 -10zM232 519q0 -10 -10 -10t-10 10t10 10t10 -10zM411 339q0 -10 -10 -10t-10 10
t10 10t10 -10zM498 251q0 -10 -10 -10t-10 10t10 10t10 -10zM364 378q0 -10 -10 -10t-10 10t10 10t10 -10zM503 208q0 -10 -10 -10t-10 10t10 10t10 -10zM223 478q0 -10 -10 -10t-10 10t10 10t10 -10zM495 166q0 -10 -10 -10t-10 10t10 10t10 -10zM214 438q0 -10 -10 -10
t-10 10t10 10t10 -10zM542 353h-175l2 -5q0 -10 -10 -10t-10 10l1 5h-154q0 -8 -9 -8t-10 8h-187v12h231l-2 6q0 10 10 10t10 -10l-3 -6h28l-2 6q0 10 10 10t10 -10l-2 -6h27l-3 7q0 10 10 10t10 -10l-3 -7h221v-12zM205 397q0 -10 -10 -10t-10 10t10 10t10 -10zM477 127
q0 -10 -10 -10t-10 10t10 10t10 -10zM451 93q0 -10 -10 -10t-10 10t10 10t10 -10zM188 317q0 -10 -10 -10t-10 10t10 10t10 -10zM419 65q0 -10 -10 -10t-10 10t10 10t10 -10zM181 280q0 -10 -10 -10t-10 10t10 10t10 -10zM381 44q0 -10 -10 -10t-10 10t10 10t10 -10z
M173 243q0 -10 -10 -10t-10 10t10 10t10 -10zM165 206q0 -10 -10 -10t-10 10t10 10t10 -10zM341 29q0 -10 -10 -10t-10 10t10 10t10 -10zM157 169q0 -10 -10 -10q-11 0 -11 10t11 10q10 0 10 -10zM299 22q0 -10 -10 -10t-10 10t10 10t10 -10zM542 -1h-552v12h15q-2 4 -3 5
t-1 3q0 10 10 10t10 -10q-3 -7 -5 -8h23q-4 4 -4 8q0 10 10 10t10 -10q-3 -7 -4 -8h22q-2 4 -3 5t-1 3q0 10 10 10t10 -10q-3 -7 -5 -8h28q-2 4 -3 5t-1 3q0 10 10 10t10 -10q-3 -7 -5 -8h31q-2 4 -3 5t-1 3q0 10 10 10t10 -10q-3 -7 -5 -8h32q-2 4 -3 5t-1 3q0 10 10 10
t10 -10q-3 -7 -4 -8h31q-2 4 -3 5t-1 3q0 10 10 10t10 -10q-3 -7 -5 -8h291v-12zM149 131q0 -10 -10 -10q-11 0 -11 10t11 10q10 0 10 -10zM141 94q0 -10 -10 -10t-10 10t10 10t10 -10zM133 57q0 -10 -10 -10t-10 10t10 10t10 -10z" />
    <glyph glyph-name="C" unicode="C" horiz-adv-x="510" 
d="M604 648q0 -10 -10 -10t-10 10t10 10t10 -10zM574 670q0 -10 -10 -10t-10 10t10 10t10 -10zM537 686q0 -10 -10 -10t-10 10t10 10t10 -10zM499 695q0 -10 -10 -10t-10 10t10 10t10 -10zM459 698q0 -10 -10 -10t-10 10t10 10t10 -10zM419 693q0 -10 -10 -10t-10 10t10 10
t10 -10zM381 682q0 -10 -10 -10t-10 10t10 10t10 -10zM345 665q0 -10 -10 -10t-10 10t10 10t10 -10zM664 314q0 -10 -10 -10t-10 10t10 10t10 -10zM311 643q0 -10 -10 -10t-10 10t10 10t10 -10zM634 286q0 -10 -10 -10t-10 10t10 10t10 -10zM280 617q0 -10 -10 -10t-10 10
t10 10t10 -10zM604 251q0 -10 -10 -10t-10 10t10 10t10 -10zM253 588q0 -10 -10 -10t-10 10t10 10t10 -10zM578 222q0 -10 -10 -10t-10 10t10 10t10 -10zM228 557q0 -11 -10 -11t-10 11q0 10 10 10t10 -10zM550 195q0 -10 -10 -10t-10 10t10 10t10 -10zM207 523
q0 -10 -10 -10t-10 10t10 10t10 -10zM523 168q0 -10 -10 -10t-10 10t10 10t10 -10zM188 487q0 -10 -10 -10t-10 10t10 10t10 -10zM496 141q0 -10 -10 -10t-10 10t10 10t10 -10zM172 450q0 -10 -10 -10t-10 10t10 10t10 -10zM510 353h-520v12h520v-12zM469 114q0 -10 -10 -10
t-10 10t10 10t10 -10zM159 413q0 -10 -10 -10t-10 10t10 10t10 -10zM440 85q0 -10 -10 -10t-10 10t10 10t10 -10zM147 376q0 -10 -10 -10t-10 10t10 10t10 -10zM137 336q0 -10 -10 -10t-10 10t10 10t10 -10zM412 57q0 -10 -10 -10t-10 10t10 10t10 -10zM128 297
q0 -10 -10 -10t-10 10t10 10t10 -10zM379 34q0 -10 -10 -10t-10 10t10 10t10 -10zM121 257q0 -10 -10 -10t-10 10t10 10t10 -10zM118 218q0 -10 -10 -10t-10 10t10 10t10 -10zM119 178q0 -10 -10 -10t-10 10t10 10t10 -10zM510 -1h-520v12h208l-2 6q0 10 10 10t10 -10l-3 -6
h24q2 8 9 8t9 -8h25q2 8 9 8t9 -8h24l-2 5q0 10 10 10t10 -10l-2 -5h172v-12zM123 138q0 -10 -10 -10t-10 10t10 10t10 -10zM134 99q0 -10 -10 -10t-10 10t10 10t10 -10zM152 64q0 -10 -10 -10t-10 10t10 10t10 -10zM180 35q0 -10 -10 -10t-10 10t10 10t10 -10z" />
    <glyph glyph-name="D" unicode="D" horiz-adv-x="627" 
d="M548 624q0 -10 -10 -10t-10 10t10 10t10 -10zM578 595q0 -10 -10 -10t-10 10t10 10t10 -10zM513 646q0 -10 -10 -10t-10 10t10 10t10 -10zM601 561q0 -10 -10 -10t-10 10t10 10t10 -10zM618 523q0 -10 -10 -10t-10 10t10 10t10 -10zM475 663q0 -10 -10 -10t-10 10t10 10
t10 -10zM628 483q0 -10 -10 -10t-10 10t10 10t10 -10zM435 674q0 -10 -10 -10t-10 10t10 10t10 -10zM394 679q0 -10 -10 -10t-10 10t10 10t10 -10zM633 442q0 -10 -10 -10t-10 10t10 10t10 -10zM353 681q0 -10 -10 -10t-10 10t10 10t10 -10zM631 400q0 -10 -10 -10t-10 10
t10 10t10 -10zM311 681q0 -10 -10 -10t-10 10t10 10t10 -10zM267 681q0 -10 -10 -10t-10 10t10 10t10 -10zM616 319q0 -10 -10 -10t-10 10t10 10t10 -10zM228 681q0 -10 -10 -10t-10 10t10 10t10 -10zM256 643q0 -10 -10 -10t-10 10t10 10t10 -10zM601 280q0 -10 -10 -10
t-10 10t10 10t10 -10zM186 681q0 -10 -10 -10t-10 10t10 10t10 -10zM248 604q0 -10 -10 -10t-10 10t10 10t10 -10zM145 681q0 -10 -10 -10t-10 10t10 10t10 -10zM584 242q0 -10 -10 -10t-10 10t10 10t10 -10zM240 565q0 -10 -10 -10t-10 10t10 10t10 -10zM563 206
q0 -10 -10 -10t-10 10t10 10t10 -10zM232 526q0 -10 -10 -10t-10 10t10 10t10 -10zM224 487q0 -10 -10 -10t-10 10t10 10t10 -10zM539 172q0 -10 -10 -10t-10 10t10 10t10 -10zM627 353l-7.5 -3t-3.5 -1q-7 3 -8 4h-618v12h191l-2 5q0 10 10 10t10 -10l-2 -5h411
q2 2 3.5 2.5l4.5 1.5q7 -3 8 -4zM216 448q0 -10 -10 -10t-10 10t10 10t10 -10zM512 141q0 -10 -10 -10q-11 0 -11 10t11 10q10 0 10 -10zM207 409q0 -10 -10 -10t-10 10t10 10t10 -10zM481 113q0 -10 -10 -10t-10 10t10 10t10 -10zM449 87q0 -10 -10 -10t-10 10t10 10
t10 -10zM191 331q0 -10 -10 -10t-10 10t10 10t10 -10zM414 65q0 -10 -10 -10t-10 10t10 10t10 -10zM183 292q0 -10 -10 -10t-10 10t10 10t10 -10zM175 253q0 -10 -10 -10t-10 10t10 10t10 -10zM376 47q0 -10 -10 -10t-10 10t10 10t10 -10zM167 214q0 -10 -10 -10t-10 10
t10 10t10 -10zM337 34q0 -10 -10 -10t-10 10t10 10t10 -10zM159 175q0 -10 -10 -10t-10 10t10 10t10 -10zM627 -1h-637v12h15q-2 4 -3 5t-1 3q0 10 10 10t10 -10q-3 -7 -5 -8h24q-2 4 -3 5t-1 3q0 10 10 10t10 -10q-3 -7 -5 -8h25q-2 4 -3 5t-1 3q0 10 10 10t10 -10
q-3 -7 -5 -8h26q-2 4 -3 5t-1 3q0 10 10 10t10 -10q-3 -7 -5 -8h32q-2 4 -3 5t-1 3q0 10 10 10t10 -10q-3 -7 -4 -8h30q-2 4 -3 5t-1 3q0 10 10 10t10 -10q-3 -7 -5 -8h32q-6 4 -6 9q0 10 10 10t10 -10q0 -5 -6 -9h378v-12zM296 25q0 -10 -10 -10t-10 10t10 10t10 -10z
M150 136q0 -10 -10 -10t-10 10t10 10t10 -10zM142 98q0 -10 -10 -10t-10 10t10 10t10 -10zM134 59q0 -11 -10 -11t-10 11q0 10 10 10t10 -10z" />
    <glyph glyph-name="E" unicode="E" horiz-adv-x="499" 
d="M523 652q0 -10 -10 -10t-10 10t10 10t10 -10zM488 666q0 -10 -10 -10t-10 10t10 10t10 -10zM451 676q0 -10 -11 -10q-10 0 -10 10t10 10q11 0 11 -10zM412 681q0 -10 -10 -10t-10 10t10 10t10 -10zM373 679q0 -10 -10 -10t-10 10t10 10t10 -10zM335 671q0 -10 -10 -10
t-10 10t10 10t10 -10zM653 314q0 -10 -10 -10t-10 10t10 10t10 -10zM300 655q0 -10 -10 -10t-10 10t10 10t10 -10zM623 286q0 -10 -10 -10t-10 10t10 10t10 -10zM269 632q0 -10 -10 -10t-10 10t10 10t10 -10zM244 603q0 -10 -10 -10t-10 10t10 10t10 -10zM593 251
q0 -10 -10 -10t-10 10t10 10t10 -10zM225 569q0 -10 -10 -10t-10 10t10 10t10 -10zM567 222q0 -10 -10 -10t-10 10t10 10t10 -10zM217 531q0 -10 -10 -10t-10 10t10 10t10 -10zM539 195q0 -10 -10 -10t-10 10t10 10t10 -10zM219 492q0 -10 -10 -10t-10 10t10 10t10 -10z
M233 456q0 -10 -10 -10t-10 10t10 10t10 -10zM316 377q0 -10 -10 -10t-10 10t10 10t10 -10zM283 398q0 -10 -10 -10t-10 10t10 10t10 -10zM255 424q0 -10 -10 -10t-10 10t10 10t10 -10zM512 168q0 -10 -10 -10t-10 10t10 10t10 -10zM485 141q0 -10 -10 -10t-10 10t10 10
t10 -10zM499 353h-199q-1 -3 -4 -4t-4 -1q-8 3 -9 5h-20q3 -5 0 -10t-8 -5q-14 0 -9 15h-256v12h295l7 3l6 -3h34q-3 12 10 12q14 0 9 -12h148v-12zM458 114q0 -10 -10 -10t-10 10t10 10t10 -10zM228 334q0 -10 -10 -10t-10 10t10 10t10 -10zM429 85q0 -10 -10 -10t-10 10
t10 10t10 -10zM195 316q0 -10 -11 -10q-10 0 -10 10t10 10q11 0 11 -10zM164 292q0 -10 -10 -10t-10 10t10 10t10 -10zM401 57q0 -10 -10 -10t-10 10t10 10t10 -10zM138 263q0 -10 -10 -10t-10 10t10 10t10 -10zM368 34q0 -10 -10 -10t-10 10t10 10t10 -10zM118 230
q0 -10 -10 -10t-10 10t10 10t10 -10zM105 194q0 -10 -10 -10t-10 10t10 10t10 -10zM499 -1h-509v12h201q-4 4 0 8.5t9 4.5t9 -4.5t0 -8.5h21q2 8 9 8t9 -8h23q2 8 9 8t9 -8h23l-2 5q0 10 10 10t10 -10l-2 -5h171v-12zM100 155q0 -10 -10 -10t-10 10t10 10t10 -10zM104 117
q0 -10 -10 -10t-10 10t10 10t10 -10zM174 28q0 -10 -10 -10t-10 10t10 10t10 -10zM119 81q0 -10 -10 -10t-10 10t10 10t10 -10zM142 50q0 -10 -10 -10t-10 10t10 10t10 -10z" />
    <glyph glyph-name="F" unicode="F" horiz-adv-x="346" 
d="M571 680q0 -10 -10 -10t-10 10t10 10t10 -10zM533 680q0 -10 -10 -10t-10 10t10 10t10 -10zM495 680q0 -10 -10 -10t-10 10t10 10t10 -10zM457 680q0 -10 -10 -10t-10 10t10 10t10 -10zM419 680q0 -10 -10 -10t-10 10t10 10t10 -10zM381 680q0 -10 -10 -10t-10 10t10 10
t10 -10zM343 680q0 -10 -10 -10t-10 10t10 10t10 -10zM305 680q0 -10 -10 -10t-10 10t10 10t10 -10zM267 680q0 -10 -10 -10t-10 10t10 10t10 -10zM229 680q0 -10 -10 -10t-10 10t10 10t10 -10zM258 643q0 -10 -10 -10t-10 10t10 10t10 -10zM191 680q0 -10 -10 -10t-10 10
t10 10t10 -10zM532 334q0 -10 -10 -10t-10 10t10 10t10 -10zM250 603q0 -10 -10 -10t-10 10t10 10t10 -10zM153 680q0 -10 -10 -10t-10 10t10 10t10 -10zM497 316q0 -10 -10 -10t-10 10t10 10t10 -10zM242 564q0 -10 -10 -10t-10 10t10 10t10 -10zM234 524q0 -10 -10 -10
t-10 10t10 10t10 -10zM460 301q0 -10 -10 -10t-10 10t10 10t10 -10zM226 484q0 -10 -10 -10t-10 10t10 10t10 -10zM422 289q0 -10 -10 -10t-10 10t10 10t10 -10zM383 280q0 -10 -10 -10t-10 10t10 10t10 -10zM217 444q0 -10 -10 -10t-10 10t10 10t10 -10zM343 274
q0 -10 -10 -10t-10 10t10 10t10 -10zM209 405q0 -10 -10 -10t-10 10t10 10t10 -10zM303 272q0 -10 -10 -10t-10 10t10 10t10 -10zM346 353h-356v12h191q-2 11 10 11q10 0 10 -11h145v-12zM263 273q0 -10 -10 -10t-10 10t10 10t10 -10zM193 325q0 -10 -10 -10t-10 10t10 10
t10 -10zM223 276q0 -10 -10 -10t-10 10t10 10t10 -10zM183 283q0 -10 -10 -10t-10 10t10 10t10 -10zM143 295q0 -10 -10 -10t-10 10t10 10t10 -10zM176 246q0 -10 -10 -10t-10 10t10 10t10 -10zM106 310q0 -10 -10 -10t-10 10t10 10t10 -10zM72 331q0 -10 -10 -10t-10 10
t10 10t10 -10zM168 206q0 -10 -10 -10t-10 10t10 10t10 -10zM160 166q0 -10 -10 -10t-10 10t10 10t10 -10zM152 127q0 -10 -10 -10t-10 10t10 10t10 -10zM143 87q0 -10 -10 -10t-10 10t10 10t10 -10zM135 47q0 -10 -10 -10t-10 10t10 10t10 -10zM346 -1h-223l-6 -2l-6 2
h-121v12h118q4 6 9 6t9 -6h220v-12z" />
    <glyph glyph-name="G" unicode="G" horiz-adv-x="644" 
d="M635 643q0 -10 -10 -10t-10 10t10 10t10 -10zM600 664q0 -10 -10 -10t-10 10t10 10t10 -10zM562 680q0 -10 -10 -10t-10 10t10 10t10 -10zM522 687q0 -10 -10 -10t-10 10t10 10t10 -10zM481 684q0 -10 -10 -10t-10 10t10 10t10 -10zM442 674q0 -10 -10 -10t-10 10t10 10
t10 -10zM798 314q0 -10 -10 -10t-10 10t10 10t10 -10zM404 658q0 -10 -10 -10t-10 10t10 10t10 -10zM768 286q0 -10 -10 -10t-10 10t10 10t10 -10zM369 637q0 -10 -10 -10t-10 10t10 10t10 -10zM738 251q0 -10 -10 -10t-10 10t10 10t10 -10zM336 612q0 -10 -10 -10t-10 10
t10 10t10 -10zM712 222q0 -10 -10 -10t-10 10t10 10t10 -10zM307 583q0 -10 -10 -10q-11 0 -11 10t11 10q10 0 10 -10zM565 321q0 -10 -10 -10t-10 10t10 10t10 -10zM684 195q0 -10 -10 -10t-10 10t10 10t10 -10zM562 288q0 -11 -10 -11t-10 11q0 10 10 10t10 -10zM279 553
q0 -10 -10 -10t-10 10t10 10t10 -10zM538 290q0 -10 -10 -10t-10 10t10 10t10 -10zM657 168q0 -10 -10 -10t-10 10t10 10t10 -10zM553 249q0 -10 -10 -10t-10 10t10 10t10 -10zM253 521q0 -10 -10 -10t-10 10t10 10t10 -10zM512 258q0 -10 -10 -10t-10 10t10 10t10 -10z
M630 141q0 -10 -10 -10t-10 10t10 10t10 -10zM546 211q0 -10 -10 -10t-10 10t10 10t10 -10zM230 487q0 -10 -10 -10t-10 10t10 10t10 -10zM538 173q0 -10 -10 -10t-10 10t10 10t10 -10zM602 113q0 -10 -10 -10t-10 10t10 10t10 -10zM486 226q0 -10 -10 -10t-10 10t10 10
t10 -10zM644 353h-654v12h654v-12zM531 135q0 -10 -10 -10t-10 10t10 10t10 -10zM209 452q0 -10 -10 -10q-11 0 -11 10t11 10q10 0 10 -10zM459 195q0 -10 -10 -10t-10 10t10 10t10 -10zM572 83q0 -10 -10 -10t-10 10t10 10t10 -10zM523 97q0 -10 -10 -10t-10 10t10 10
t10 -10zM189 416q0 -10 -10 -10t-10 10t10 10t10 -10zM543 54q0 -10 -10 -10t-10 10t10 10t10 -10zM432 164q0 -10 -10 -10t-10 10t10 10t10 -10zM518 59q0 -10 -10 -10q-11 0 -11 10t11 10q10 0 10 -10zM172 379q0 -10 -10 -10t-10 10t10 10t10 -10zM404 134q0 -10 -10 -10
t-10 10t10 10t10 -10zM510 23q0 -10 -10 -10t-10 10t10 10t10 -10zM157 341q0 -10 -10 -10t-10 10t10 10t10 -10zM501 -15q0 -10 -10 -10t-10 10t10 10t10 -10zM376 104q0 -10 -10 -10t-10 10t10 10t10 -10zM144 302q0 -10 -10 -10t-10 10t10 10t10 -10zM492 -53
q0 -10 -10 -10t-10 10t10 10t10 -10zM449 -25q0 -10 -10 -10t-10 10t10 10t10 -10zM346 76q0 -10 -10 -10t-10 10t10 10t10 -10zM133 262q0 -10 -10 -10t-10 10t10 10t10 -10zM481 -91q0 -10 -10 -10t-10 10t10 10t10 -10zM419 -51q0 -10 -10 -10t-10 10t10 10t10 -10z
M314 50q0 -10 -10 -10t-10 10t10 10t10 -10zM125 221q0 -10 -10 -10t-10 10t10 10t10 -10zM470 -129q0 -10 -10 -10t-10 10q0 11 10 11t10 -11zM644 -1h-166q-2 -8 -10 -8t-10 8h-468v12h189q-3 5 0 9.5t9 4.5q5 0 9.5 -4.5t-0.5 -9.5h25l-3 7q0 10 10 10t10 -10l-3 -7h408
v-12zM390 -78q0 -10 -10 -10t-10 10t10 10t10 -10zM278 30q0 -10 -10 -10t-10 10t10 10t10 -10zM120 181q0 -10 -10 -10t-10 10t10 10t10 -10zM457 -166q0 -10 -10 -10t-10 10t10 10t10 -10zM119 140q0 -10 -10 -10t-10 10t10 10t10 -10zM361 -104q0 -10 -10 -10t-10 10
t10 10t10 -10zM444 -202q0 -10 -10 -10t-10 10t10 10t10 -10zM123 99q0 -10 -10 -10t-10 10t10 10t10 -10zM332 -131q0 -10 -10 -10t-10 10t10 10t10 -10zM135 59q0 -10 -10 -10t-10 10t10 10t10 -10zM428 -239q0 -10 -10 -10t-10 10t10 10t10 -10zM160 27q0 -10 -10 -10
t-10 10t10 10t10 -10zM304 -159q0 -10 -10 -10t-10 10t10 10t10 -10zM408 -272q0 -10 -10 -10q-11 0 -11 10t11 10q10 0 10 -10zM280 -190q0 -10 -10 -10t-10 10t10 10t10 -10zM380 -300q0 -10 -10 -10t-10 10t10 10t10 -10zM265 -226q0 -10 -10 -10t-10 10t10 10t10 -10z
M345 -318q0 -10 -10 -10t-10 10t10 10t10 -10zM260 -265q0 -10 -10 -10t-10 10t10 10t10 -10zM307 -320q0 -11 -10 -11q-11 0 -11 11q0 10 11 10q10 0 10 -10zM273 -301q0 -10 -10 -10t-10 10t10 10t10 -10z" />
    <glyph glyph-name="H" unicode="H" horiz-adv-x="629" 
d="M628 691q0 -10 -10 -10t-10 10t10 10t10 -10zM620 652q0 -10 -10 -10t-10 10t10 10t10 -10zM613 614q0 -10 -10 -10t-10 10t10 10t10 -10zM605 575q0 -10 -10 -10t-10 10t10 10t10 -10zM821 334q0 -10 -10 -10t-10 10t10 10t10 -10zM597 536q0 -10 -10 -10t-10 10t10 10
t10 -10zM788 316q0 -10 -10 -10t-10 10t10 10t10 -10zM589 497q0 -10 -10 -10t-10 10t10 10t10 -10zM753 298q0 -10 -10 -10t-10 10t10 10t10 -10zM581 459q0 -10 -10 -10t-10 10t10 10t10 -10zM718 282q0 -10 -10 -10t-10 10t10 10t10 -10zM573 420q0 -10 -10 -10t-10 10
t10 10t10 -10zM682 268q0 -10 -10 -10t-10 10t10 10t10 -10zM254 691q0 -10 -10 -10t-10 10t10 10t10 -10zM565 381q0 -10 -10 -10t-10 10t10 10t10 -10zM646 256q0 -10 -10 -10t-10 10t10 10t10 -10zM246 651q0 -10 -10 -10t-10 10t10 10t10 -10zM556 342q0 -10 -10 -10
t-10 10t10 10t10 -10zM549 304q0 -10 -10 -10q-11 0 -11 10t11 10q10 0 10 -10zM609 245q0 -10 -10 -10t-10 10t10 10t10 -10zM238 611q0 -10 -10 -10t-10 10t10 10t10 -10zM541 265q0 -10 -10 -10t-10 10t10 10t10 -10zM572 235q0 -10 -10 -10t-10 10t10 10t10 -10z
M230 571q0 -10 -10 -10t-10 10t10 10t10 -10zM534 227q0 -10 -11 -10q-10 0 -10 10t10 10q11 0 11 -10zM221 530q0 -10 -10 -10t-10 10t10 10t10 -10zM525 189q0 -10 -10 -10t-10 10t10 10t10 -10zM492 219q0 -10 -10 -10t-10 10t10 10t10 -10zM213 490q0 -10 -10 -10
t-10 10t10 10t10 -10zM629 353h-639v12h180q-6 15 8 15q4 0 8.5 -3.5t-0.5 -11.5h443v-12zM517 153q0 -10 -10 -10t-10 10t10 10t10 -10zM450 214q0 -10 -10 -10t-10 10t10 10t10 -10zM205 450q0 -10 -10 -10t-10 10t10 10t10 -10zM510 117q0 -10 -10 -10t-10 10t10 10
t10 -10zM408 211q0 -10 -10 -10t-10 10t10 10t10 -10zM197 410q0 -10 -10 -10t-10 10t10 10t10 -10zM502 80q0 -10 -10 -10t-10 10t10 10t10 -10zM366 211q0 -10 -10 -10t-10 10t10 10t10 -10zM495 44q0 -10 -10 -10t-10 10t10 10t10 -10zM323 212q0 -10 -10 -10t-10 10
t10 10t10 -10zM180 329q0 -10 -10 -10t-10 10t10 10t10 -10zM281 216q0 -10 -10 -10t-10 10t10 10t10 -10zM239 223q0 -10 -10 -10t-10 10t10 10t10 -10zM172 289q0 -10 -10 -10t-10 10t10 10t10 -10zM198 233q0 -10 -10 -10t-10 10t10 10t10 -10zM162 245q0 -10 -10 -10
t-10 10t10 10t10 -10zM119 262q0 -10 -10 -10t-10 10t10 10t10 -10zM155 209q0 -10 -10 -10t-10 10t10 10t10 -10zM81 281q0 -10 -10 -10t-10 10t10 10t10 -10zM629 -1h-639v12h105q2 7 9 7t9 -7h356q2 7 9 7t9 -7h142v-12zM147 169q0 -10 -10 -10t-10 10t10 10t10 -10z
M139 128q0 -10 -10 -10t-10 10t10 10t10 -10zM130 88q0 -10 -10 -10t-10 10t10 10t10 -10zM122 48q0 -10 -10 -10t-10 10t10 10t10 -10z" />
    <glyph glyph-name="I" unicode="I" horiz-adv-x="442" 
d="M484 682q0 -10 -10 -10t-10 10t10 10t10 -10zM445 682q0 -10 -10 -10t-10 10t10 10t10 -10zM477 643q0 -10 -10 -10t-10 10t10 10t10 -10zM405 682q0 -10 -10 -10t-10 10t10 10t10 -10zM470 604q0 -10 -10 -10t-10 10t10 10t10 -10zM365 682q0 -10 -10 -10t-10 10t10 10
t10 -10zM462 565q0 -10 -10 -10t-10 10t10 10t10 -10zM325 682q0 -10 -10 -10t-10 10t10 10t10 -10zM454 525q0 -10 -10 -10t-10 10t10 10t10 -10zM286 682q0 -10 -10 -10t-10 10t10 10t10 -10zM446 486q0 -10 -10 -10t-10 10t10 10t10 -10zM246 682q0 -10 -10 -10t-10 10
t10 10t10 -10zM206 682q0 -10 -10 -10t-10 10t10 10t10 -10zM439 447q0 -10 -10 -10t-10 10t10 10t10 -10zM431 408q0 -10 -10 -10t-10 10t10 10t10 -10zM415 330q0 -10 -10 -10t-10 10t10 10t10 -10zM408 291q0 -10 -10 -10t-10 10t10 10t10 -10zM399 253q0 -10 -10 -10
t-10 10t10 10t10 -10zM388 214q0 -10 -10 -10t-10 10t10 10t10 -10zM442 353h-452v12h414q-3 6 0.5 10t8.5 4t9.5 -2.5t-0.5 -11.5h20v-12zM375 177q0 -10 -10 -10t-10 10t10 10t10 -10zM360 140q0 -10 -10 -10t-10 10t10 10t10 -10zM341 105q0 -10 -10 -10t-10 10t10 10
t10 -10zM318 73q0 -10 -10 -10t-10 10t10 10t10 -10zM290 45q0 -10 -10 -10t-10 10t10 10t10 -10zM256 25q0 -10 -10 -10t-10 10t10 10t10 -10zM442 -1h-452v12h169q-4 4 0 9t9 5t9.5 -4.5t-0.5 -9.5h21q-4 4 0 9t9 5q4 0 9 -3.5t0 -10.5h226v-12zM139 24q0 -10 -10 -10
t-10 10t10 10t10 -10zM104 42q0 -10 -10 -10t-10 10t10 10t10 -10zM43 92q0 -10 -10 -10t-10 10t10 10t10 -10zM72 66q0 -10 -10 -10t-10 10t10 10t10 -10z" />
    <glyph glyph-name="J" unicode="J" horiz-adv-x="352" 
d="M393 681q0 -10 -10 -10t-10 10t10 10t10 -10zM353 681q0 -10 -10 -10t-10 10t10 10t10 -10zM386 642q0 -10 -10 -10t-10 10t10 10t10 -10zM313 681q0 -10 -10 -10t-10 10t10 10t10 -10zM378 602q0 -10 -10 -10t-10 10t10 10t10 -10zM273 681q0 -10 -10 -10t-10 10t10 10
t10 -10zM370 562q0 -10 -10 -10t-10 10t10 10t10 -10zM234 681q0 -10 -10 -10t-10 10t10 10t10 -10zM362 522q0 -10 -10 -10t-10 10t10 10t10 -10zM194 681q0 -10 -10 -10t-10 10t10 10t10 -10zM154 681q0 -10 -10 -10t-10 10t10 10t10 -10zM354 482q0 -10 -10 -10t-10 10
t10 10t10 -10zM506 314q0 -10 -10 -10t-10 10t10 10t10 -10zM114 681q0 -10 -10 -10t-10 10t10 10t10 -10zM346 443q0 -10 -10 -10t-10 10t10 10t10 -10zM476 286q0 -10 -10 -10t-10 10t10 10t10 -10zM338 403q0 -10 -10 -10t-10 10t10 10t10 -10zM446 251q0 -10 -10 -10
t-10 10t10 10t10 -10zM323 323q0 -10 -10 -10t-10 10t10 10t10 -10zM420 222q0 -10 -10 -10t-10 10t10 10t10 -10zM315 283q0 -10 -10 -10t-10 10t10 10t10 -10zM392 195q0 -10 -10 -10t-10 10t10 10t10 -10zM307 243q0 -10 -10 -10t-10 10t10 10t10 -10zM352 353h-362v12
h321q2 9 10 9t10 -9h21v-12zM365 168q0 -10 -10 -10t-10 10t10 10t10 -10zM299 204q0 -10 -10 -10t-10 10t10 10t10 -10zM337 140q0 -10 -10 -10t-10 10t10 10t10 -10zM291 164q0 -10 -10 -10t-10 10t10 10t10 -10zM308 111q0 -10 -10 -10t-10 10t10 10t10 -10zM284 124
q0 -10 -10 -10t-10 10t10 10t10 -10zM276 84q0 -10 -10 -10t-10 10t10 10t10 -10zM244 60q0 -10 -10 -10t-10 10t10 10t10 -10zM266 38q0 -10 -10 -10t-10 10t10 10t10 -10zM212 33q0 -10 -10 -10t-10 10q0 11 10 11t10 -11zM250 -43q0 -10 -10 -10t-10 10t10 10t10 -10z
M352 -1h-94q1 -11 -10 -11t-10 11h-248v12h172q5 7 9 7t9 -7h172v-12zM241 -83q0 -10 -10 -10t-10 10t10 10t10 -10zM149 -20q0 -10 -10 -10t-10 10t10 10t10 -10zM229 -123q0 -10 -10 -10t-10 10t10 10t10 -10zM119 -47q0 -10 -10 -10t-10 10t10 10t10 -10zM215 -162
q0 -10 -10 -10t-10 10t10 10t10 -10zM90 -77q0 -10 -10 -10t-10 10t10 10t10 -10zM199 -200q0 -10 -10 -10t-10 10t10 10t10 -10zM62 -108q0 -10 -10 -10t-10 10t10 10t10 -10zM180 -236q0 -10 -10 -10t-10 10t10 10t10 -10zM37 -140q0 -10 -10 -10t-10 10t10 10t10 -10z
M156 -270q0 -10 -10 -10t-10 10t10 10t10 -10zM13 -174q0 -10 -10 -10t-10 10t10 10t10 -10zM127 -299q0 -10 -10 -10t-10 10t10 10t10 -10zM-1 -213q0 -10 -10 -10t-10 10q0 11 10 11t10 -11zM90 -317q0 -10 -10 -10t-10 10t10 10t10 -10zM1 -253q0 -10 -10 -10t-10 10
t10 10t10 -10zM49 -317q0 -10 -10 -10t-10 10t10 10t10 -10zM18 -291q0 -10 -10 -10t-10 10t10 10t10 -10z" />
    <glyph glyph-name="K" unicode="K" horiz-adv-x="667" 
d="M646 698q0 -10 -10 -10t-10 10t10 10t10 -10zM614 671q0 -10 -10 -10t-10 10t10 10t10 -10zM582 645q0 -10 -10 -10t-10 10t10 10t10 -10zM550 618q0 -10 -10 -10t-10 10t10 10t10 -10zM821 314q0 -10 -10 -10t-10 10t10 10t10 -10zM518 591q0 -10 -10 -10t-10 10t10 10
t10 -10zM791 286q0 -10 -10 -10t-10 10t10 10t10 -10zM486 564q0 -10 -10 -10t-10 10t10 10t10 -10zM761 251q0 -10 -10 -10t-10 10t10 10t10 -10zM454 538q0 -10 -10 -10t-10 10t10 10t10 -10zM267 691q0 -10 -10 -10t-10 10t10 10t10 -10zM735 222q0 -10 -10 -10t-10 10
t10 10t10 -10zM423 511q0 -10 -10 -10t-10 10t10 10t10 -10zM259 651q0 -10 -10 -10t-10 10t10 10t10 -10zM707 195q0 -10 -10 -10t-10 10t10 10t10 -10zM391 484q0 -10 -10 -10t-10 10t10 10t10 -10zM251 611q0 -10 -10 -10q-11 0 -11 10t11 10q10 0 10 -10zM680 168
q0 -10 -10 -10t-10 10t10 10t10 -10zM359 457q0 -10 -10 -10t-10 10t10 10t10 -10zM243 571q0 -10 -11 -10q-10 0 -10 10t10 10q11 0 11 -10zM653 141q0 -10 -10 -10t-10 10t10 10t10 -10zM234 531q0 -10 -10 -10t-10 10t10 10t10 -10zM327 431q0 -10 -10 -10t-10 10t10 10
t10 -10zM626 114q0 -10 -10 -10t-10 10t10 10t10 -10zM226 490q0 -10 -10 -10t-10 10t10 10t10 -10zM296 404q0 -10 -10 -10t-10 10t10 10t10 -10zM667 353h-435q3 -12 -10 -12q-11 0 -10 12h-222v12h193q-3 5 0 10t8 5q6 0 9.5 -4.5t-1.5 -10.5h468v-12zM598 86
q0 -10 -10 -10t-10 10t10 10t10 -10zM218 450q0 -10 -10 -10t-10 10t10 10t10 -10zM264 377q0 -10 -10 -10t-10 10t10 10t10 -10zM571 59q0 -10 -10 -10t-10 10t10 10t10 -10zM210 410q0 -10 -10 -10t-10 10t10 10t10 -10zM256 320q0 -10 -10 -10t-10 10t10 10t10 -10z
M540 35q0 -10 -10 -10t-10 10t10 10t10 -10zM279 288q0 -10 -10 -10t-10 10t10 10t10 -10zM302 257q0 -10 -10 -10t-10 10t10 10t10 -10zM326 225q0 -10 -10 -10t-10 10t10 10t10 -10zM349 194q0 -10 -10 -10t-10 10t10 10t10 -10zM372 162q0 -10 -10 -10t-10 10t10 10
t10 -10zM193 330q0 -10 -10 -10t-10 10t10 10t10 -10zM395 131q0 -10 -10 -10t-10 10t10 10t10 -10zM418 99q0 -10 -10 -10t-10 10t10 10t10 -10zM442 65q0 -10 -10 -10t-10 10t10 10t10 -10zM468 33q0 -10 -10 -10t-10 10t10 10t10 -10zM185 289q0 -10 -10 -10t-10 10
t10 10t10 -10zM177 249q0 -10 -10 -10t-10 10t10 10t10 -10zM169 209q0 -10 -10 -10t-10 10t10 10t10 -10zM667 -1h-677v12h119q2 8 9 8t9 -8h359l-2 6q0 10 10 10t10 -10l-2 -6h165v-12zM161 169q0 -10 -10 -10t-10 10t10 10t10 -10zM152 129q0 -10 -10 -10t-10 10t10 10
t10 -10zM144 88q0 -10 -10 -10t-10 10t10 10t10 -10zM136 48q0 -10 -10 -10t-10 10t10 10t10 -10z" />
    <glyph glyph-name="L" unicode="L" horiz-adv-x="596" 
d="M377 694q0 -10 -10 -10t-10 10t10 10t10 -10zM750 314q0 -10 -10 -10t-10 10t10 10t10 -10zM339 676q0 -10 -10 -10t-10 10t10 10t10 -10zM720 286q0 -10 -10 -10t-10 10t10 10t10 -10zM305 650q0 -10 -10 -10t-10 10t10 10t10 -10zM690 251q0 -10 -10 -10t-10 10t10 10
t10 -10zM280 617q0 -10 -10 -10t-10 10t10 10t10 -10zM664 222q0 -10 -10 -10t-10 10t10 10t10 -10zM261 579q0 -10 -10 -10t-10 10t10 10t10 -10zM636 195q0 -10 -10 -10t-10 10t10 10t10 -10zM250 538q0 -10 -10 -10t-10 10t10 10t10 -10zM609 168q0 -10 -10 -10t-10 10
t10 10t10 -10zM242 496q0 -10 -10 -10t-10 10t10 10t10 -10zM582 141q0 -10 -10 -10t-10 10t10 10t10 -10zM233 455q0 -10 -10 -10t-10 10t10 10t10 -10zM596 353h-606v12h209q-2 4 -3 5t-1 3q0 10 10 10t10 -10q-3 -7 -5 -8h386v-12zM554 113q0 -10 -10 -10t-10 10t10 10
t10 -10zM224 414q0 -10 -10 -10t-10 10t10 10t10 -10zM525 84q0 -10 -10 -10t-10 10t10 10t10 -10zM497 56q0 -10 -10 -10t-10 10t10 10t10 -10zM206 331q0 -10 -10 -10t-10 10t10 10t10 -10zM465 31q0 -10 -10 -10t-10 10t10 10t10 -10zM197 290q0 -10 -10 -10t-10 10
t10 10t10 -10zM187 249q0 -10 -10 -10t-10 10t10 10t10 -10zM178 208q0 -10 -10 -10t-10 10t10 10t10 -10zM346 29q0 -10 -10 -10t-10 10t10 10t10 -10zM306 37q0 -10 -10 -10q-11 0 -11 10t11 10q10 0 10 -10zM169 166q0 -10 -10 -10t-10 10t10 10t10 -10zM596 -1h-606v12
h96q-2 11 10 11q10 0 10 -11h264q-2 4 -3 5t-1 3q0 10 10 10t10 -10q-3 -7 -5 -8h26q-2 11 10 11q10 0 10 -11h169v-12zM265 40q0 -10 -10 -10t-10 10q0 11 10 11t10 -11zM159 125q0 -10 -10 -10t-10 10t10 10t10 -10zM224 40q0 -10 -10 -10t-10 10t10 10t10 -10zM145 86
q0 -10 -10 -10t-10 10t10 10t10 -10zM183 35q0 -10 -10 -10t-10 10t10 10t10 -10zM126 48q0 -10 -10 -10t-10 10t10 10t10 -10zM144 25q0 -10 -10 -10t-10 10t10 10t10 -10z" />
    <glyph glyph-name="M" unicode="M" horiz-adv-x="1060" 
d="M979 678q0 -10 -10 -10t-10 10t10 10t10 -10zM961 660q0 -10 -10 -10t-10 10t10 10t10 -10zM970 638q0 -10 -10 -10t-10 10t10 10t10 -10zM937 626q0 -10 -10 -10t-10 10t10 10t10 -10zM961 598q0 -10 -10 -10t-10 10t10 10t10 -10zM1214 314q0 -10 -10 -10t-10 10t10 10
t10 -10zM913 594q0 -10 -10 -10t-10 10t10 10t10 -10zM952 557q0 -10 -10 -10t-10 10t10 10t10 -10zM1184 286q0 -10 -10 -10t-10 10t10 10t10 -10zM944 516q0 -10 -10 -10t-10 10t10 10t10 -10zM889 561q0 -10 -10 -10t-10 10t10 10t10 -10zM935 476q0 -10 -10 -10t-10 10
t10 10t10 -10zM1154 251q0 -10 -10 -10t-10 10t10 10t10 -10zM866 528q0 -10 -10 -10t-10 10t10 10t10 -10zM926 435q0 -10 -10 -10t-10 10t10 10t10 -10zM1128 222q0 -10 -10 -10t-10 10t10 10t10 -10zM842 496q0 -10 -10 -10t-10 10t10 10t10 -10zM918 394q0 -10 -10 -10
t-10 10t10 10t10 -10zM1100 195q0 -10 -10 -10t-10 10t10 10t10 -10zM619 670q0 -10 -10 -10t-10 10t10 10t10 -10zM819 463q0 -10 -10 -10t-10 10t10 10t10 -10zM601 651q0 -10 -10 -10t-10 10t10 10t10 -10zM1073 168q0 -10 -10 -10t-10 10t10 10t10 -10zM611 628
q0 -10 -10 -10t-10 10t10 10t10 -10zM795 430q0 -10 -10 -10t-10 10t10 10t10 -10zM900 313q0 -10 -10 -10t-10 10t10 10t10 -10zM577 618q0 -10 -10 -10t-10 10t10 10t10 -10zM602 586q0 -10 -10 -10t-10 10t10 10t10 -10zM1046 141q0 -10 -10 -10t-10 10t10 10t10 -10z
M771 398q0 -10 -10 -10t-10 10t10 10t10 -10zM892 272q0 -10 -10 -10t-10 10t10 10t10 -10zM594 544q0 -10 -10 -10t-10 10q0 11 10 11t10 -11zM552 584q0 -10 -10 -10t-10 10t10 10t10 -10zM1019 114q0 -10 -10 -10t-10 10t10 10t10 -10zM883 232q0 -10 -10 -10t-10 10
t10 10t10 -10zM585 503q0 -10 -10 -10t-10 10t10 10t10 -10zM527 549q0 -10 -10 -10t-10 10t10 10t10 -10zM991 86q0 -10 -10 -10t-10 10t10 10t10 -10zM874 191q0 -10 -10 -10t-10 10t10 10t10 -10zM724 333q0 -10 -10 -10t-10 10t10 10t10 -10zM577 461q0 -10 -10 -10
t-10 10t10 10t10 -10zM964 59q0 -10 -10 -10t-10 10t10 10t10 -10zM502 515q0 -10 -10 -10t-10 10t10 10t10 -10zM866 151q0 -10 -10 -10t-10 10t10 10t10 -10zM700 300q0 -10 -10 -10t-10 10t10 10t10 -10zM568 419q0 -10 -10 -10t-10 10t10 10t10 -10zM933 35
q0 -10 -10 -10t-10 10t10 10t10 -10zM857 110q0 -10 -10 -10t-10 10t10 10t10 -10zM477 481q0 -10 -10 -10t-10 10t10 10t10 -10zM560 378q0 -10 -10 -10t-10 10t10 10t10 -10zM677 267q0 -10 -10 -10t-10 10t10 10t10 -10zM850 68q0 -10 -10 -10t-10 10t10 10t10 -10z
M452 446q0 -10 -10 -10t-10 10t10 10t10 -10zM1060 353h-151q-2 -9 -10 -9t-10 9h-515q2 -2 4 -9q0 -10 -10 -10t-10 10l3 9h-371v12h739q2 10 10 10t10 -10h311v-12zM653 235q0 -10 -10 -10t-10 10t10 10t10 -10zM551 336q0 -10 -10 -10t-10 10t10 10t10 -10zM856 27
q0 -10 -10 -10t-10 10t10 10t10 -10zM428 412q0 -10 -10 -10t-10 10t10 10t10 -10zM543 294q0 -10 -10 -10t-10 10t10 10t10 -10zM629 202q0 -10 -10 -10t-10 10t10 10t10 -10zM534 253q0 -10 -10 -10t-10 10t10 10t10 -10zM403 378q0 -10 -10 -10t-10 10t10 10t10 -10z
M606 169q0 -10 -10 -10t-10 10t10 10t10 -10zM526 211q0 -10 -10 -10t-10 10t10 10t10 -10zM582 137q0 -10 -10 -10t-10 10t10 10t10 -10zM517 169q0 -10 -10 -10t-10 10t10 10t10 -10zM353 310q0 -11 -10 -11t-10 11q0 10 10 10t10 -10zM559 104q0 -10 -10 -10t-10 10
t10 10t10 -10zM509 128q0 -10 -10 -10t-10 10t10 10t10 -10zM328 275q0 -10 -10 -10t-10 10t10 10t10 -10zM535 72q0 -10 -10 -10t-10 10t10 10t10 -10zM500 86q0 -10 -10 -10t-10 10t10 10t10 -10zM513 39q0 -10 -10 -10t-10 10t10 10t10 -10zM1060 -1h-1070v12h12l-3 7
q0 10 10 10t10 -10l-3 -7h30q-2 4 -3 5t-1 3q0 10 10 10t10 -10q-3 -7 -5 -8h412q4 6 9 6t9 -6h391q-3 4 0 9.5t8 5.5q6 0 9 -4t-1 -11h166v-12zM304 241q0 -10 -10 -10t-10 10t10 10t10 -10zM491 44q0 -10 -10 -10t-10 10t10 10t10 -10zM279 207q0 -10 -10 -10t-10 10
t10 10t10 -10zM254 173q0 -10 -10 -10t-10 10t10 10t10 -10zM229 139q0 -10 -10 -10t-10 10t10 10t10 -10zM201 106q0 -10 -10 -10t-10 10t10 10t10 -10zM172 76q0 -10 -10 -10t-10 10t10 10t10 -10zM139 48q0 -10 -10 -10t-10 10t10 10t10 -10zM103 26q0 -10 -10 -10
t-10 10t10 10t10 -10z" />
    <glyph glyph-name="N" unicode="N" horiz-adv-x="680" 
d="M799 691q0 -10 -10 -10t-10 10t10 10t10 -10zM759 683q0 -10 -10 -10t-10 10t10 10t10 -10zM727 660q0 -10 -10 -10t-10 10t10 10t10 -10zM707 625q0 -10 -10 -10t-10 10t10 10t10 -10zM695 587q0 -10 -10 -10t-10 10t10 10t10 -10zM687 548q0 -10 -10 -10t-10 10t10 10
t10 -10zM679 509q0 -10 -10 -10t-10 10t10 10t10 -10zM671 470q0 -10 -10 -10t-10 10t10 10t10 -10zM663 430q0 -10 -10 -10t-10 10t10 10t10 -10zM655 391q0 -10 -10 -10t-10 10t10 10t10 -10zM639 313q0 -10 -10 -10t-10 10t10 10t10 -10zM264 679q0 -10 -10 -10t-10 10
t10 10t10 -10zM281 647q0 -10 -10 -10t-10 10t10 10t10 -10zM298 611q0 -10 -10 -10t-10 10t10 10t10 -10zM631 273q0 -10 -10 -10t-10 10t10 10t10 -10zM256 639q0 -10 -10 -10t-10 10t10 10t10 -10zM314 576q0 -10 -10 -10t-10 10t10 10t10 -10zM330 540q0 -10 -10 -10
t-10 10t10 10t10 -10zM623 234q0 -10 -10 -10t-10 10t10 10t10 -10zM248 599q0 -10 -10 -10t-10 10t10 10t10 -10zM346 504q0 -10 -10 -10t-10 10t10 10t10 -10zM362 468q0 -10 -10 -10t-10 10t10 10t10 -10zM378 432q0 -10 -10 -10t-10 10t10 10t10 -10zM615 195
q0 -10 -10 -10t-10 10t10 10t10 -10zM240 559q0 -10 -10 -10t-10 10t10 10t10 -10zM395 397q0 -10 -10 -10t-10 10t10 10t10 -10zM607 156q0 -10 -10 -10t-10 10t10 10t10 -10zM231 519q0 -10 -10 -10t-10 10t10 10t10 -10zM427 325q0 -10 -10 -10t-10 10t10 10t10 -10z
M443 289q0 -10 -10 -10t-10 10t10 10t10 -10zM459 253q0 -10 -10 -10t-10 10t10 10t10 -10zM599 117q0 -10 -10 -10t-10 10t10 10t10 -10zM223 479q0 -10 -10 -10t-10 10t10 10t10 -10zM680 353h-33q0 -11 -10 -11t-10 11h-431q-4 -4 -8 -4t-8 4h-190v12h190q2 2 3.5 2.5
l4.5 1.5q7 -3 8 -4h195q4 7 9 7t9 -7h271v-12zM476 217q0 -10 -10 -10t-10 10t10 10t10 -10zM492 182q0 -10 -10 -10t-10 10t10 10t10 -10zM591 77q0 -10 -10 -10t-10 10t10 10t10 -10zM215 439q0 -10 -10 -10t-10 10t10 10t10 -10zM508 146q0 -10 -10 -10t-10 10t10 10
t10 -10zM524 110q0 -10 -10 -10t-10 10t10 10t10 -10zM583 38q0 -10 -10 -10t-10 10t10 10t10 -10zM540 74q0 -10 -10 -10t-10 10t10 10t10 -10zM207 399q0 -10 -10 -10t-10 10t10 10t10 -10zM556 38q0 -10 -10 -10t-10 10t10 10t10 -10zM190 319q0 -10 -10 -10t-10 10
t10 10t10 -10zM182 279q0 -10 -10 -10t-10 10t10 10t10 -10zM173 239q0 -10 -10 -10t-10 10t10 10t10 -10zM165 199q0 -10 -10 -10t-10 10t10 10t10 -10zM680 -1h-108q-2 -9 -10 -9t-10 9h-562v12h41l-2 6q0 10 10 10t10 -10l-2 -6h28q-6 4 -6 9q0 10 10 10t10 -10
q0 -5 -6 -9h597v-12zM157 160q0 -10 -10 -10t-10 10t10 10t10 -10zM149 120q0 -10 -10 -10q-11 0 -11 10t11 10q10 0 10 -10zM140 80q0 -10 -10 -10t-10 10t10 10t10 -10zM123 43q0 -10 -10 -10t-10 10t10 10t10 -10z" />
    <glyph glyph-name="O" unicode="O" horiz-adv-x="595" 
d="M521 664q0 -10 -10 -10t-10 10t10 10t10 -10zM549 634q0 -10 -10 -10t-10 10t10 10t10 -10zM485 685q0 -10 -10 -10t-10 10t10 10t10 -10zM571 598q0 -10 -10 -10t-10 10t10 10t10 -10zM585 560q0 -11 -10 -11t-10 11q0 10 10 10t10 -10zM445 694q0 -10 -10 -10t-10 10
t10 10t10 -10zM594 519q0 -10 -10 -10t-10 10t10 10t10 -10zM403 693q0 -10 -10 -10t-10 10t10 10t10 -10zM599 477q0 -10 -10 -10t-10 10t10 10t10 -10zM362 685q0 -10 -10 -10t-10 10t10 10t10 -10zM600 436q0 -10 -10 -10t-10 10t10 10t10 -10zM324 670q0 -10 -10 -10
t-10 10t10 10t10 -10zM597 395q0 -10 -10 -10t-10 10t10 10t10 -10zM287 650q0 -10 -10 -10t-10 10t10 10t10 -10zM581 313q0 -10 -10 -10t-10 10t10 10t10 -10zM255 624q0 -10 -10 -10t-10 10t10 10t10 -10zM568 274q0 -10 -10 -10t-10 10t10 10t10 -10zM226 595
q0 -10 -10 -10t-10 10t10 10t10 -10zM552 235q0 -10 -10 -10t-10 10t10 10t10 -10zM200 562q0 -10 -10 -10t-10 10t10 10t10 -10zM535 197q0 -10 -10 -10t-10 10t10 10t10 -10zM179 527q0 -10 -10 -10t-10 10t10 10t10 -10zM514 161q0 -10 -10 -10t-10 10t10 10t10 -10z
M595 353h-4q-2 -9 -10 -9t-10 9h-581v12h117l-2 5q0 10 10 10t10 -10l-2 -5h472v-12zM161 490q0 -10 -10 -10t-10 10t10 10t10 -10zM491 127q0 -10 -10 -10t-10 10t10 10t10 -10zM146 451q0 -10 -10 -10t-10 10t10 10t10 -10zM464 95q0 -10 -10 -10t-10 10t10 10t10 -10z
M135 411q0 -10 -11 -10q-10 0 -10 10t10 10q11 0 11 -10zM433 67q0 -10 -10 -10t-10 10t10 10t10 -10zM118 329q0 -10 -10 -10t-10 10t10 10t10 -10zM392 41q0 -10 -10 -10t-10 10t10 10t10 -10zM114 288q0 -10 -10 -10t-10 10t10 10t10 -10zM348 25q0 -10 -10 -10t-10 10
t10 10t10 -10zM113 246q0 -10 -10 -10t-10 10t10 10t10 -10zM117 205q0 -10 -10 -10t-10 10t10 10t10 -10zM595 -1h-605v12h297l-3 7q0 10 10 10t10 -10q-2 -6 -4 -7h295v-12zM124 164q0 -10 -10 -10t-10 10t10 10t10 -10zM260 23q0 -10 -10 -10t-10 10t10 10t10 -10z
M138 125q0 -10 -11 -10q-10 0 -10 10t10 10q11 0 11 -10zM220 36q0 -10 -10 -10t-10 10t10 10t10 -10zM158 89q0 -10 -10 -10t-10 10t10 10t10 -10zM185 58q0 -10 -10 -10t-10 10t10 10t10 -10z" />
    <glyph glyph-name="P" unicode="P" horiz-adv-x="467" 
d="M518 641q0 -10 -10 -10t-10 10t10 10t10 -10zM546 609q0 -10 -10 -10t-10 10t10 10t10 -10zM481 664q0 -10 -10 -10t-10 10t10 10t10 -10zM562 569q0 -10 -10 -10t-10 10t10 10t10 -10zM440 676q0 -10 -10 -10t-10 10t10 10t10 -10zM565 525q0 -10 -10 -10t-10 10t10 10
t10 -10zM397 681q0 -10 -10 -10t-10 10t10 10t10 -10zM559 482q0 -10 -10 -10t-10 10t10 10t10 -10zM354 682q0 -10 -10 -10t-10 10t10 10t10 -10zM310 682q0 -10 -10 -10t-10 10t10 10t10 -10zM541 443q0 -10 -10 -10t-10 10t10 10t10 -10zM267 682q0 -10 -10 -10t-10 10
t10 10t10 -10zM514 409q0 -10 -10 -10t-10 10t10 10t10 -10zM225 682q0 -10 -10 -10t-10 10t10 10t10 -10zM256 642q0 -10 -10 -10t-10 10t10 10t10 -10zM187 682q0 -10 -10 -10t-10 10t10 10t10 -10zM481 380q0 -10 -10 -10t-10 10t10 10t10 -10zM248 603q0 -10 -10 -10
t-10 10t10 10t10 -10zM148 682q0 -10 -10 -10t-10 10t10 10t10 -10zM239 564q0 -10 -10 -10t-10 10t10 10t10 -10zM231 524q0 -10 -10 -10t-10 10t10 10t10 -10zM406 341q0 -10 -10 -10t-10 10t10 10t10 -10zM223 485q0 -10 -10 -10t-10 10t10 10t10 -10zM364 332
q0 -10 -10 -10t-10 10t10 10t10 -10zM215 445q0 -10 -10 -10t-10 10t10 10t10 -10zM321 326q0 -10 -10 -10t-10 10t10 10t10 -10zM206 406q0 -10 -10 -10t-10 10t10 10t10 -10zM277 324q0 -10 -10 -10t-10 10t10 10t10 -10zM467 353h-23q0 -8 -9 -8q-7 0 -10 8h-435v12h188
q0 11 10 11t10 -11h269v-12zM234 324q0 -10 -10 -10t-10 10t10 10t10 -10zM190 325q0 -10 -10 -10t-10 10t10 10t10 -10zM181 287q0 -10 -10 -10t-10 10t10 10t10 -10zM173 248q0 -10 -10 -10t-10 10t10 10t10 -10zM165 209q0 -10 -10 -10t-10 10t10 10t10 -10zM157 169
q0 -10 -10 -10t-10 10t10 10t10 -10zM148 130q0 -10 -10 -10t-10 10t10 10t10 -10zM467 -1h-477v12h114q0 11 10 11t10 -11h343v-12zM140 91q0 -10 -10 -10t-10 10t10 10t10 -10zM132 51q0 -10 -10 -10t-10 10t10 10t10 -10z" />
    <glyph glyph-name="Q" unicode="Q" horiz-adv-x="708" 
d="M521 664q0 -10 -10 -10t-10 10t10 10t10 -10zM550 633q0 -10 -10 -10t-10 10t10 10t10 -10zM862 314q0 -10 -10 -10t-10 10t10 10t10 -10zM486 684q0 -10 -10 -10t-10 10t10 10t10 -10zM571 598q0 -10 -10 -10t-10 10t10 10t10 -10zM586 559q0 -10 -10 -10t-10 10t10 10
t10 -10zM445 693q0 -10 -10 -10t-10 10t10 10t10 -10zM595 518q0 -10 -10 -10t-10 10t10 10t10 -10zM832 286q0 -10 -10 -10t-10 10t10 10t10 -10zM404 692q0 -10 -10 -10t-10 10t10 10t10 -10zM600 477q0 -10 -10 -10t-10 10t10 10t10 -10zM363 684q0 -10 -10 -10t-10 10
t10 10t10 -10zM802 251q0 -10 -10 -10t-10 10t10 10t10 -10zM600 435q0 -10 -10 -10t-10 10t10 10t10 -10zM324 669q0 -10 -10 -10t-10 10t10 10t10 -10zM776 222q0 -10 -10 -10t-10 10t10 10t10 -10zM597 394q0 -10 -10 -10t-10 10t10 10t10 -10zM748 195q0 -10 -10 -10
t-10 10t10 10t10 -10zM288 649q0 -10 -10 -10t-10 10t10 10t10 -10zM582 313q0 -10 -10 -10t-10 10t10 10t10 -10zM721 168q0 -10 -10 -10t-10 10t10 10t10 -10zM255 624q0 -10 -10 -10t-10 10t10 10t10 -10zM569 273q0 -10 -10 -10t-10 10t10 10t10 -10zM694 141
q0 -10 -10 -10t-10 10t10 10t10 -10zM226 594q0 -10 -10 -10t-10 10t10 10t10 -10zM553 235q0 -10 -10 -10t-10 10t10 10t10 -10zM666 113q0 -10 -10 -10t-10 10t10 10t10 -10zM201 562q0 -10 -10 -10t-10 10t10 10t10 -10zM535 197q0 -10 -10 -10t-10 10t10 10t10 -10z
M708 353h-116q0 -11 -10 -11t-10 11h-582v12h118q-3 6 0 10.5t8 4.5q6 0 9 -4t-1 -11h584v-12zM637 84q0 -10 -10 -10t-10 10t10 10t10 -10zM179 526q0 -10 -10 -10t-10 10t10 10t10 -10zM515 161q0 -10 -10 -10t-10 10t10 10t10 -10zM609 56q0 -10 -10 -10t-10 10t10 10
t10 -10zM161 489q0 -10 -10 -10t-10 10t10 10t10 -10zM491 127q0 -10 -10 -10t-10 10t10 10t10 -10zM577 31q0 -10 -10 -10t-10 10t10 10t10 -10zM147 450q0 -10 -10 -10t-10 10t10 10t10 -10zM464 95q0 -10 -10 -10t-10 10t10 10t10 -10zM328 221q0 -10 -10 -10t-10 10
t10 10t10 -10zM135 410q0 -10 -10 -10t-10 10t10 10t10 -10zM350 191q0 -10 -10 -10t-10 10t10 10t10 -10zM372 161q0 -10 -10 -10q-11 0 -11 10t11 10q10 0 10 -10zM393 131q0 -10 -10 -10t-10 10t10 10t10 -10zM415 100q0 -10 -10 -10t-10 10t10 10t10 -10zM436 70
q0 -10 -10 -10t-10 10t10 10t10 -10zM463 37q0 -10 -10 -10t-10 10t10 10t10 -10zM119 329q0 -10 -10 -10t-10 10t10 10t10 -10zM396 41q0 -10 -10 -10t-10 10q0 11 10 11t10 -11zM115 287q0 -10 -10 -10t-10 10t10 10t10 -10zM349 24q0 -10 -10 -10t-10 10t10 10t10 -10z
M708 -1h-718v12h298l-3 7q0 10 10 10t10 -10q-2 -6 -4 -7h179l-2 6q0 10 10 10t10 -10l-3 -6h24q-2 11 10 11q10 0 10 -11h169v-12zM114 246q0 -10 -10 -10t-10 10t10 10t10 -10zM117 204q0 -10 -10 -10t-10 10t10 10t10 -10zM125 164q0 -10 -10 -10t-10 10t10 10t10 -10z
M260 23q0 -10 -10 -10t-10 10t10 10t10 -10zM138 125q0 -10 -10 -10t-10 10t10 10t10 -10zM221 35q0 -10 -10 -10t-10 10t10 10t10 -10zM158 88q0 -10 -10 -10t-10 10t10 10t10 -10zM186 58q0 -11 -10 -11t-10 11q0 10 10 10t10 -10z" />
    <glyph glyph-name="R" unicode="R" horiz-adv-x="658" 
d="M812 314q0 -10 -10 -10t-10 10t10 10t10 -10zM477 636q0 -10 -11 -10q-10 0 -10 10t10 10q11 0 11 -10zM442 664q0 -10 -10 -10t-10 10t10 10t10 -10zM500 600q0 -10 -10 -10t-10 10t10 10t10 -10zM401 679q0 -10 -10 -10t-10 10t10 10t10 -10zM511 557q0 -10 -10 -10
t-10 10t10 10t10 -10zM782 286q0 -10 -10 -10t-10 10t10 10t10 -10zM357 682q0 -10 -10 -10t-10 10t10 10t10 -10zM511 513q0 -10 -10 -10t-10 10t10 10t10 -10zM752 251q0 -10 -10 -10t-10 10t10 10t10 -10zM313 682q0 -10 -10 -10t-10 10t10 10t10 -10zM500 471
q0 -10 -10 -10t-10 10t10 10t10 -10zM268 682q0 -10 -10 -10t-10 10t10 10t10 -10zM726 222q0 -10 -10 -10t-10 10t10 10t10 -10zM478 433q0 -10 -10 -10t-10 10t10 10t10 -10zM229 682q0 -10 -11 -10q-10 0 -10 10t10 10q11 0 11 -10zM258 640q0 -10 -10 -10t-10 10t10 10
t10 -10zM698 195q0 -10 -10 -10t-10 10t10 10t10 -10zM188 682q0 -10 -10 -10t-10 10t10 10t10 -10zM249 598q0 -10 -10 -10t-10 10t10 10t10 -10zM447 400q0 -10 -10 -10t-10 10t10 10t10 -10zM671 168q0 -10 -10 -10t-10 10t10 10t10 -10zM148 682q0 -10 -10 -10t-10 10
t10 10t10 -10zM240 556q0 -10 -10 -10q-11 0 -11 10t11 10q10 0 10 -10zM644 141q0 -10 -10 -10t-10 10t10 10t10 -10zM231 514q0 -10 -11 -10q-10 0 -10 10t10 10q11 0 11 -10zM617 114q0 -10 -10 -10t-10 10t10 10t10 -10zM658 353h-290q0 -10 -10 -10t-10 10h-27l2 -7
q0 -10 -10 -10t-10 10l2 7h-31l3 -9q0 -10 -10 -10t-10 10l3 9h-28q4 -4 0 -9t-9 -5t-9.5 4.5t0.5 9.5h-23l3 -8q0 -10 -10 -10t-10 10l3 8h-187v12h402l-3 7q0 10 10 10t10 -10q-2 -6 -4 -7h253v-12zM221 472q0 -10 -10 -10t-10 10t10 10t10 -10zM589 86q0 -10 -10 -10
t-10 10t10 10t10 -10zM212 430q0 -10 -10 -10t-10 10t10 10t10 -10zM562 59q0 -10 -10 -10t-10 10t10 10t10 -10zM203 388q0 -10 -10 -10t-10 10t10 10t10 -10zM247 320q0 -10 -10 -10t-10 10t10 10t10 -10zM531 35q0 -10 -10 -10t-10 10t10 10t10 -10zM270 288
q0 -10 -10 -10t-10 10t10 10t10 -10zM293 257q0 -10 -10 -10t-10 10t10 10t10 -10zM317 225q0 -10 -10 -10t-10 10t10 10t10 -10zM340 194q0 -10 -10 -10t-10 10t10 10t10 -10zM363 162q0 -10 -10 -10t-10 10t10 10t10 -10zM386 131q0 -10 -10 -10t-10 10t10 10t10 -10z
M409 99q0 -10 -10 -10t-10 10t10 10t10 -10zM433 65q0 -10 -10 -10t-10 10t10 10t10 -10zM186 308q0 -10 -10 -10t-10 10t10 10t10 -10zM459 33q0 -10 -10 -10t-10 10t10 10t10 -10zM179 272q0 -10 -10 -10t-10 10t10 10t10 -10zM171 237q0 -10 -10 -10t-10 10t10 10t10 -10
zM164 201q0 -10 -10 -10t-10 10t10 10t10 -10zM658 -1h-668v12h487l-2 6q0 10 10 10t10 -10l-3 -6h166v-12zM156 165q0 -10 -10 -10t-10 10t10 10t10 -10zM148 129q0 -10 -10 -10t-10 10t10 10t10 -10zM141 94q0 -10 -10 -10t-10 10t10 10t10 -10zM133 58q0 -10 -10 -10
t-10 10t10 10t10 -10zM125 22q0 -10 -10 -10t-10 10t10 10t10 -10z" />
    <glyph glyph-name="S" unicode="S" horiz-adv-x="467" 
d="M530 641q0 -10 -10 -10t-10 10t10 10t10 -10zM494 662q0 -10 -10 -10t-10 10t10 10t10 -10zM456 678q0 -10 -10 -10t-10 10t10 10t10 -10zM415 686q0 -10 -10 -10t-10 10t10 10t10 -10zM373 685q0 -10 -10 -10t-10 10t10 10t10 -10zM332 674q0 -10 -10 -10t-10 10t10 10
t10 -10zM295 655q0 -10 -10 -10t-10 10t10 10t10 -10zM263 628q0 -10 -10 -10t-10 10t10 10t10 -10zM240 594q0 -10 -10 -10t-10 10t10 10t10 -10zM227 555q0 -11 -10 -11t-10 11q0 10 10 10t10 -10zM224 513q0 -10 -10 -10t-10 10t10 10t10 -10zM232 472q0 -10 -10 -10
t-10 10t10 10t10 -10zM251 435q0 -10 -10 -10t-10 10t10 10t10 -10zM276 401q0 -10 -10 -10t-10 10t10 10t10 -10zM334 340q0 -10 -10 -10t-10 10t10 10t10 -10zM362 310q0 -11 -10 -11t-10 11q0 10 10 10t10 -10zM388 277q0 -10 -10 -10t-10 10t10 10t10 -10zM409 241
q0 -10 -10 -10t-10 10t10 10t10 -10zM424 202q0 -10 -10 -10t-10 10t10 10t10 -10zM467 353h-477v12h296q-3 4 0 9.5t8 5.5q6 0 9.5 -4.5t-1.5 -10.5h165v-12zM431 160q0 -10 -10 -10t-10 10t10 10t10 -10zM425 120q0 -10 -10 -10t-10 10t10 10t10 -10zM401 85
q0 -10 -10 -10t-10 10t10 10t10 -10zM370 58q0 -10 -10 -10t-10 10t10 10t10 -10zM334 37q0 -10 -10 -10t-10 10t10 10t10 -10zM294 24q0 -10 -10 -10t-10 10t10 10t10 -10zM467 -1h-477v12h202q-6 15 9 15q5 0 9 -3.5t-1 -11.5h27l-3 7q0 10 10 10t10 -10q-2 -6 -4 -7h218
v-12zM169 22q0 -10 -10 -10t-10 10t10 10t10 -10zM129 34q0 -10 -10 -10t-10 10t10 10t10 -10zM92 53q0 -10 -10 -10t-10 10t10 10t10 -10zM58 77q0 -10 -10 -10t-10 10t10 10t10 -10z" />
    <glyph glyph-name="T" unicode="T" horiz-adv-x="393" 
d="M600 682q0 -10 -10 -10t-10 10t10 10t10 -10zM560 682q0 -10 -10 -10t-10 10t10 10t10 -10zM519 682q0 -10 -10 -10t-10 10t10 10t10 -10zM478 682q0 -10 -10 -10t-10 10t10 10t10 -10zM438 682q0 -10 -10 -10t-10 10t10 10t10 -10zM398 682q0 -10 -10 -10t-10 10t10 10
t10 -10zM357 682q0 -10 -10 -10t-10 10t10 10t10 -10zM315 682q0 -10 -10 -10t-10 10t10 10t10 -10zM350 644q0 -10 -10 -10t-10 10t10 10t10 -10zM273 682q0 -10 -10 -10t-10 10t10 10t10 -10zM341 605q0 -10 -10 -10t-10 10t10 10t10 -10zM231 682q0 -10 -10 -10t-10 10
t10 10t10 -10zM333 565q0 -10 -10 -10t-10 10t10 10t10 -10zM189 682q0 -10 -10 -10t-10 10t10 10t10 -10zM325 526q0 -10 -10 -10t-10 10t10 10t10 -10zM147 682q0 -10 -10 -10t-10 10t10 10t10 -10zM317 486q0 -10 -10 -10t-10 10t10 10t10 -10zM105 682q0 -10 -10 -10
t-10 10t10 10t10 -10zM309 447q0 -10 -10 -10t-10 10t10 10t10 -10zM301 407q0 -10 -10 -10q-11 0 -11 10t11 10q10 0 10 -10zM284 329q0 -10 -10 -10t-10 10t10 10t10 -10zM393 353h-403v12h282q-2 5 1.5 9t8.5 4t9 -2.5t0 -10.5h102v-12zM276 289q0 -10 -10 -10t-10 10
t10 10t10 -10zM268 249q0 -10 -10 -10t-10 10t10 10t10 -10zM259 210q0 -10 -10 -10t-10 10t10 10t10 -10zM251 171q0 -10 -10 -10t-10 10t10 10t10 -10zM243 131q0 -10 -10 -10t-10 10t10 10t10 -10zM235 92q0 -10 -10 -10t-10 10t10 10t10 -10zM227 52q0 -10 -10 -10
t-10 10t10 10t10 -10zM393 -1h-403v12h209q-2 12 10 12t10 -12h174v-12z" />
    <glyph glyph-name="U" unicode="U" horiz-adv-x="738" 
d="M632 689q0 -10 -10 -10t-10 10t10 10t10 -10zM622 650q0 -10 -10 -10t-10 10t10 10t10 -10zM613 610q0 -10 -10 -10t-10 10t10 10t10 -10zM892 314q0 -10 -10 -10t-10 10t10 10t10 -10zM604 571q0 -10 -10 -10t-10 10t10 10t10 -10zM862 286q0 -10 -10 -10t-10 10t10 10
t10 -10zM595 531q0 -10 -10 -10t-10 10t10 10t10 -10zM832 251q0 -10 -10 -10t-10 10t10 10t10 -10zM585 491q0 -10 -10 -10t-10 10t10 10t10 -10zM576 452q0 -10 -10 -10t-10 10t10 10t10 -10zM806 222q0 -10 -10 -10t-10 10t10 10t10 -10zM567 412q0 -10 -10 -10t-10 10
t10 10t10 -10zM778 195q0 -10 -10 -10t-10 10t10 10t10 -10zM233 694q0 -10 -10 -10t-10 10t10 10t10 -10zM751 168q0 -10 -10 -10t-10 10t10 10t10 -10zM549 333q0 -10 -10 -10t-10 10t10 10t10 -10zM225 655q0 -10 -10 -10t-10 10t10 10t10 -10zM724 141q0 -10 -10 -10
t-10 10t10 10t10 -10zM538 293q0 -10 -10 -10t-10 10t10 10t10 -10zM217 615q0 -10 -10 -10t-10 10t10 10t10 -10zM697 114q0 -10 -10 -10t-10 10t10 10t10 -10zM208 576q0 -10 -10 -10t-10 10t10 10t10 -10zM527 255q0 -10 -10 -10t-10 10t10 10t10 -10zM669 86
q0 -10 -10 -10t-10 10t10 10t10 -10zM738 353h-748v12h552q-2 4 -3 5t-1 3q0 10 10 10t10 -10q-3 -7 -5 -8h185v-12zM504 241q0 -10 -10 -10t-10 10t10 10t10 -10zM200 537q0 -10 -10 -10t-10 10t10 10t10 -10zM520 215q0 -10 -10 -10t-10 10t10 10t10 -10zM642 59
q0 -10 -10 -10t-10 10t10 10t10 -10zM191 497q0 -10 -10 -10t-10 10t10 10t10 -10zM481 207q0 -10 -10 -10t-10 10t10 10t10 -10zM511 176q0 -10 -10 -10t-10 10t10 10t10 -10zM183 458q0 -10 -10 -10t-10 10t10 10t10 -10zM609 33q0 -10 -10 -10t-10 10t10 10t10 -10z
M504 136q0 -10 -10 -10t-10 10t10 10t10 -10zM457 174q0 -10 -10 -10t-10 10t10 10t10 -10zM175 419q0 -10 -10 -10t-10 10t10 10t10 -10zM500 95q0 -10 -10 -10t-10 10t10 10t10 -10zM432 143q0 -10 -10 -10t-10 10t10 10t10 -10zM505 55q0 -11 -10 -11t-10 11q0 10 10 10
t10 -10zM531 24q0 -10 -10 -10t-10 10t10 10t10 -10zM166 379q0 -10 -10 -10t-10 10t10 10t10 -10zM405 113q0 -10 -10 -10t-10 10t10 10t10 -10zM158 340q0 -10 -10 -10t-10 10t10 10t10 -10zM376 85q0 -10 -10 -10t-10 10t10 10t10 -10zM150 300q0 -10 -10 -10t-10 10
q0 11 10 11t10 -11zM344 61q0 -10 -10 -10t-10 10t10 10t10 -10zM142 261q0 -10 -10 -10t-10 10t10 10t10 -10zM738 -1h-748v12h185l-2 6q0 10 10 10t10 -10l-3 -6h25l-2 6q0 10 10 10t10 -10l-3 -6h324q-4 4 0 9t9 5t9.5 -4.5t-0.5 -9.5h166v-12zM134 222q0 -10 -10 -10
t-10 10t10 10t10 -10zM310 40q0 -10 -10 -10t-10 10t10 10t10 -10zM126 182q0 -10 -10 -10t-10 10t10 10t10 -10zM272 25q0 -10 -10 -10t-10 10t10 10t10 -10zM121 142q0 -10 -10 -10t-10 10t10 10t10 -10zM122 102q0 -10 -10 -10t-10 10t10 10t10 -10zM132 63
q0 -10 -10 -10t-10 10t10 10t10 -10zM155 31q0 -10 -10 -10t-10 10t10 10t10 -10z" />
    <glyph glyph-name="V" unicode="V" horiz-adv-x="523" 
d="M775 693q0 -10 -10 -10t-10 10t10 10t10 -10zM737 682q0 -10 -10 -10t-10 10t10 10t10 -10zM701 663q0 -10 -10 -10t-10 10t10 10t10 -10zM670 637q0 -10 -10 -10t-10 10t10 10t10 -10zM642 607q0 -10 -10 -10t-10 10t10 10t10 -10zM615 577q0 -10 -10 -10t-10 10t10 10
t10 -10zM587 547q0 -10 -10 -10t-10 10t10 10t10 -10zM559 516q0 -10 -10 -10t-10 10t10 10t10 -10zM532 486q0 -10 -10 -10t-10 10t10 10t10 -10zM504 457q0 -10 -10 -10t-10 10t10 10t10 -10zM232 690q0 -10 -10 -10t-10 10t10 10t10 -10zM477 426q0 -10 -10 -10t-10 10
t10 10t10 -10zM224 650q0 -10 -10 -10t-10 10t10 10t10 -10zM449 397q0 -10 -10 -10t-10 10t10 10t10 -10zM216 610q0 -10 -10 -10t-10 10t10 10t10 -10zM207 570q0 -10 -10 -10t-10 10t10 10t10 -10zM199 530q0 -10 -10 -10t-10 10t10 10t10 -10zM394 337q0 -10 -10 -10
t-10 10t10 10t10 -10zM191 490q0 -10 -10 -10t-10 10t10 10t10 -10zM367 306q0 -10 -10 -10t-10 10t10 10t10 -10zM183 450q0 -10 -10 -10t-10 10t10 10t10 -10zM523 353h-533v12h159q-4 5 -1 10t9 5t9 -4t-1 -11h237q-1 4 2 8t8 4q10 0 10 -12h101v-12zM339 276
q0 -10 -10 -10t-10 10t10 10t10 -10zM175 410q0 -10 -10 -10t-10 10t10 10t10 -10zM312 246q0 -10 -10 -10t-10 10t10 10t10 -10zM284 216q0 -10 -10 -10t-10 10t10 10t10 -10zM159 331q0 -10 -10 -10t-10 10t10 10t10 -10zM151 290q0 -10 -10 -10t-10 10t10 10t10 -10z
M257 186q0 -10 -10 -10t-10 10t10 10t10 -10zM143 250q0 -10 -10 -10t-10 10t10 10t10 -10zM229 156q0 -10 -10 -10t-10 10t10 10t10 -10zM135 210q0 -10 -11 -10q-10 0 -10 10t10 10q11 0 11 -10zM202 126q0 -10 -10 -10t-10 10t10 10t10 -10zM126 170q0 -10 -10 -10
t-10 10t10 10t10 -10zM523 -1h-533v12h84q2 9 10 9t10 -9h429v-12zM174 96q0 -10 -10 -10t-10 10t10 10t10 -10zM118 131q0 -10 -10 -10t-10 10t10 10t10 -10zM147 66q0 -10 -10 -10t-10 10t10 10t10 -10zM110 91q0 -10 -10 -10t-10 10t10 10t10 -10zM119 36q0 -10 -10 -10
t-10 10t10 10t10 -10zM102 51q0 -11 -10 -11t-10 11q0 10 10 10t10 -10z" />
    <glyph glyph-name="W" unicode="W" horiz-adv-x="919" 
d="M1161 693q0 -10 -10 -10t-10 10t10 10t10 -10zM1123 682q0 -10 -10 -10t-10 10t10 10t10 -10zM1086 663q0 -10 -10 -10t-10 10t10 10t10 -10zM1056 636q0 -10 -10 -10t-10 10t10 10t10 -10zM1028 607q0 -10 -10 -10t-10 10t10 10t10 -10zM1001 577q0 -10 -10 -10t-10 10
t10 10t10 -10zM973 546q0 -10 -10 -10t-10 10q0 11 10 11t10 -11zM945 516q0 -10 -10 -10t-10 10t10 10t10 -10zM918 486q0 -10 -10 -10q-11 0 -11 10t11 10q10 0 10 -10zM890 456q0 -10 -10 -10t-10 10t10 10t10 -10zM617 690q0 -10 -10 -10t-10 10t10 10t10 -10zM862 426
q0 -10 -10 -10t-10 10t10 10t10 -10zM613 650q0 -10 -10 -10t-10 10t10 10t10 -10zM594 660q0 -10 -10 -10t-10 10t10 10t10 -10zM835 396q0 -10 -10 -10t-10 10t10 10t10 -10zM604 610q0 -10 -10 -10t-10 10t10 10t10 -10zM570 629q0 -10 -10 -10t-10 10t10 10t10 -10z
M595 570q0 -10 -10 -10t-10 10t10 10t10 -10zM546 598q0 -10 -10 -10t-10 10t10 10t10 -10zM587 530q0 -10 -10 -10t-10 10t10 10t10 -10zM780 336q0 -10 -10 -10t-10 10t10 10t10 -10zM522 567q0 -10 -10 -10t-10 10t10 10t10 -10zM579 490q0 -10 -10 -10t-10 10t10 10
t10 -10zM753 306q0 -10 -10 -10t-10 10t10 10t10 -10zM498 536q0 -10 -10 -10t-10 10t10 10t10 -10zM571 450q0 -10 -10 -10t-10 10t10 10t10 -10zM725 276q0 -10 -10 -10t-10 10t10 10t10 -10zM474 505q0 -10 -10 -10t-10 10t10 10t10 -10zM563 410q0 -10 -10 -10t-10 10
t10 10t10 -10zM698 246q0 -10 -10 -10t-10 10t10 10t10 -10zM450 474q0 -10 -10 -10t-10 10t10 10t10 -10zM229 689q0 -10 -10 -10t-10 10t10 10t10 -10zM670 216q0 -10 -10 -10t-10 10t10 10t10 -10zM547 330q0 -10 -10 -10t-10 10t10 10t10 -10zM221 649q0 -10 -10 -10
t-10 10t10 10t10 -10zM426 443q0 -10 -10 -10t-10 10t10 10t10 -10zM539 290q0 -10 -10 -10t-10 10t10 10t10 -10zM643 186q0 -10 -10 -10t-10 10t10 10t10 -10zM213 609q0 -10 -10 -10t-10 10t10 10t10 -10zM919 353h-567q2 -5 -1 -9t-8 -4q-13 0 -10 13h-343v12h154
q-2 4 -0.5 9.5t9.5 5.5q6 0 9.5 -4.5t-1.5 -10.5h375q-3 5 0 10t9 5q5 0 8 -4.5t0 -10.5h234q0 11 10 11q12 0 10 -11h112v-12zM401 412q0 -10 -10 -10t-10 10t10 10t10 -10zM531 250q0 -10 -10 -10t-10 10t10 10t10 -10zM204 570q0 -10 -10 -10t-10 10t10 10t10 -10z
M615 156q0 -10 -10 -10t-10 10t10 10t10 -10zM377 381q0 -10 -10 -10t-10 10t10 10t10 -10zM522 210q0 -10 -10 -10t-10 10t10 10t10 -10zM196 529q0 -10 -10 -10t-10 10t10 10t10 -10zM587 126q0 -10 -10 -10t-10 10t10 10t10 -10zM514 170q0 -10 -10 -10t-10 10t10 10
t10 -10zM188 490q0 -10 -10 -10t-10 10t10 10t10 -10zM560 96q0 -10 -10 -10t-10 10t10 10t10 -10zM329 319q0 -10 -10 -10t-10 10t10 10t10 -10zM506 130q0 -10 -10 -10t-10 10t10 10t10 -10zM179 450q0 -10 -10 -10t-10 10t10 10t10 -10zM533 66q0 -10 -10 -10t-10 10
t10 10t10 -10zM305 288q0 -10 -10 -10t-10 10t10 10t10 -10zM498 90q0 -10 -10 -10t-10 10t10 10t10 -10zM171 410q0 -10 -10 -10t-10 10t10 10t10 -10zM490 50q0 -10 -10 -10t-10 10t10 10t10 -10zM505 36q0 -10 -10 -10t-10 10t10 10t10 -10zM281 257q0 -10 -10 -10
t-10 10t10 10t10 -10zM155 330q0 -10 -11 -10q-10 0 -10 10t10 10q11 0 11 -10zM256 226q0 -10 -10 -10t-10 10t10 10t10 -10zM919 -1h-929v12h78q2 9 10 9t10 -9h372q2 9 10 9t10 -9h439v-12zM146 290q0 -10 -10 -10t-10 10t10 10t10 -10zM232 195q0 -10 -10 -10t-10 10
t10 10t10 -10zM138 250q0 -10 -10 -10t-10 10t10 10t10 -10zM208 164q0 -10 -10 -10t-10 10t10 10t10 -10zM129 210q0 -10 -10 -10t-10 10t10 10t10 -10zM184 133q0 -10 -10 -10t-10 10t10 10t10 -10zM121 170q0 -10 -10 -10t-10 10t10 10t10 -10zM160 102q0 -10 -10 -10
t-10 10t10 10t10 -10zM113 130q0 -10 -10 -10t-10 10t10 10t10 -10zM136 71q0 -10 -10 -10t-10 10t10 10t10 -10zM104 90q0 -10 -10 -10t-10 10t10 10t10 -10zM111 40q0 -10 -10 -10t-10 12l-5 -2q-10 0 -10 10t10 10q8 0 10 -11l6 2q9 0 9 -11z" />
    <glyph glyph-name="X" unicode="X" horiz-adv-x="715" 
d="M705 693q0 -10 -10 -10t-10 10t10 10t10 -10zM677 663q0 -10 -10 -10t-10 10t10 10t10 -10zM649 634q0 -10 -10 -10t-10 10t10 10t10 -10zM621 605q0 -10 -10 -10t-10 10t10 10t10 -10zM869 314q0 -10 -10 -10t-10 10t10 10t10 -10zM594 575q0 -10 -10 -10t-10 10t10 10
t10 -10zM839 286q0 -10 -10 -10t-10 10t10 10t10 -10zM566 546q0 -10 -10 -10t-10 10t10 10t10 -10zM809 251q0 -10 -10 -10t-10 10t10 10t10 -10zM538 516q0 -10 -10 -10t-10 10t10 10t10 -10zM783 222q0 -10 -10 -10t-10 10t10 10t10 -10zM510 487q0 -10 -10 -10t-10 10
t10 10t10 -10zM261 691q0 -10 -10 -10t-10 10t10 10t10 -10zM755 195q0 -10 -10 -10t-10 10t10 10t10 -10zM482 457q0 -10 -10 -10t-10 10t10 10t10 -10zM273 652q0 -10 -10 -10t-10 10t10 10t10 -10zM285 613q0 -10 -10 -10t-10 10t10 10t10 -10zM728 168q0 -10 -10 -10
t-10 10t10 10t10 -10zM454 428q0 -10 -10 -10t-10 10t10 10t10 -10zM298 575q0 -10 -10 -10t-10 10t10 10t10 -10zM310 536q0 -10 -10 -10t-10 10t10 10t10 -10zM701 141q0 -10 -10 -10t-10 10t10 10t10 -10zM426 399q0 -10 -10 -10t-10 10t10 10t10 -10zM323 497
q0 -10 -10 -10t-10 10t10 10t10 -10zM335 458q0 -10 -10 -10t-10 10t10 10t10 -10zM673 113q0 -10 -10 -10t-10 10t10 10t10 -10zM348 419q0 -10 -10 -10t-10 10t10 10t10 -10zM360 380q0 -10 -10 -10t-10 10t10 10t10 -10zM645 85q0 -10 -10 -10t-10 10t10 10t10 -10z
M715 353h-725v12h389q-4 5 -0.5 9.5t9.5 4.5t9.5 -4.5t-0.5 -9.5h318v-12zM372 339q0 -10 -10 -10t-10 10t10 10t10 -10zM386 299q0 -10 -10 -10t-10 10t10 10t10 -10zM616 58q0 -10 -10 -10t-10 10t10 10t10 -10zM343 310q0 -10 -10 -10t-10 10t10 10t10 -10zM399 257
q0 -10 -10 -10t-10 10t10 10t10 -10zM412 215q0 -10 -10 -10t-10 10t10 10t10 -10zM584 35q0 -10 -10 -10t-10 10t10 10t10 -10zM426 174q0 -10 -10 -10t-10 10t10 10t10 -10zM315 281q0 -10 -10 -10t-10 10t10 10t10 -10zM439 132q0 -10 -10 -10t-10 10t10 10t10 -10z
M453 90q0 -10 -10 -10t-10 10t10 10t10 -10zM287 251q0 -10 -10 -10t-10 10t10 10t10 -10zM471 49q0 -10 -10 -10t-10 10t10 10t10 -10zM259 222q0 -10 -10 -10t-10 10t10 10t10 -10zM231 192q0 -10 -10 -10t-10 10t10 10t10 -10zM715 -1h-725v12h55q-3 4 0 9.5t9 5.5
q5 0 9 -5t0 -10h428q-6 4 -6 9q0 10 10 10t10 -10q0 -5 -6 -9h30l-2 6q0 10 10 10t10 -10l-2 -6h170v-12zM203 163q0 -10 -10 -10t-10 10t10 10t10 -10zM175 134q0 -10 -10 -10t-10 10t10 10t10 -10zM147 104q0 -10 -10 -10t-10 10t10 10t10 -10zM119 75q0 -10 -10 -10
t-10 10t10 10t10 -10zM92 45q0 -10 -10 -10t-10 10t10 10t10 -10z" />
    <glyph glyph-name="Y" unicode="Y" horiz-adv-x="632" 
d="M640 695q0 -10 -10 -10t-10 10t10 10t10 -10zM632 656q0 -10 -10 -10t-10 10t10 10t10 -10zM623 616q0 -10 -10 -10t-10 10t10 10t10 -10zM615 577q0 -10 -10 -10t-10 10t10 10t10 -10zM607 538q0 -10 -10 -10t-10 10t10 10t10 -10zM599 499q0 -10 -10 -10t-10 10t10 10
t10 -10zM786 314q0 -10 -10 -10t-10 10t10 10t10 -10zM581 480q0 -10 -10 -10t-10 10t10 10t10 -10zM590 460q0 -10 -10 -10t-10 10t10 10t10 -10zM756 286q0 -10 -10 -10t-10 10t10 10t10 -10zM563 442q0 -10 -10 -10t-10 10t10 10t10 -10zM582 421q0 -10 -10 -10t-10 10
t10 10t10 -10zM726 251q0 -10 -10 -10t-10 10t10 10t10 -10zM574 382q0 -10 -10 -10t-10 10t10 10t10 -10zM543 406q0 -10 -10 -10t-10 10t10 10t10 -10zM700 222q0 -10 -10 -10t-10 10t10 10t10 -10zM214 693q0 -10 -10 -10t-10 10t10 10t10 -10zM566 342q0 -10 -10 -10
t-10 10t10 10t10 -10zM672 195q0 -10 -10 -10t-10 10t10 10t10 -10zM205 653q0 -10 -10 -10t-10 10t10 10t10 -10zM557 303q0 -10 -10 -10t-10 10t10 10t10 -10zM502 334q0 -10 -10 -10t-10 10t10 10t10 -10zM549 264q0 -10 -10 -10t-10 10t10 10t10 -10zM645 168
q0 -10 -10 -10t-10 10t10 10t10 -10zM197 612q0 -10 -10 -10t-10 10t10 10t10 -10zM480 299q0 -10 -10 -10t-10 10t10 10t10 -10zM541 225q0 -10 -10 -10t-10 10t10 10t10 -10zM188 572q0 -10 -10 -10t-10 10t10 10t10 -10zM618 141q0 -10 -10 -10t-10 10t10 10t10 -10z
M457 265q0 -10 -10 -10t-10 10t10 10t10 -10zM533 186q0 -10 -10 -10t-10 10t10 10t10 -10zM179 532q0 -10 -10 -10t-10 10t10 10t10 -10zM590 113q0 -10 -10 -10t-10 10t10 10t10 -10zM632 353h-642v12h136l-2 6q0 10 10 10t10 -10l-3 -6h363q-4 4 0 9t9 5t9.5 -4.5
t-0.5 -9.5h110v-12zM525 146q0 -10 -10 -10t-10 10t10 10t10 -10zM433 231q0 -10 -10 -10t-10 10t10 10t10 -10zM170 492q0 -10 -10 -10t-10 10t10 10t10 -10zM560 83q0 -10 -10 -10t-10 10t10 10t10 -10zM516 107q0 -10 -10 -10t-10 10t10 10t10 -10zM161 451
q0 -10 -10 -10t-10 10t10 10t10 -10zM409 198q0 -10 -10 -10t-10 10t10 10t10 -10zM531 54q0 -10 -10 -10t-10 10t10 10t10 -10zM508 68q0 -10 -10 -10t-10 10t10 10t10 -10zM153 411q0 -10 -10 -10t-10 10t10 10t10 -10zM383 165q0 -10 -10 -10t-10 10t10 10t10 -10z
M500 28q0 -10 -10 -10t-10 10t10 10t10 -10zM357 133q0 -10 -10 -10t-10 10t10 10t10 -10zM490 -14q0 -10 -10 -10t-10 10t10 10t10 -10zM136 330q0 -10 -10 -10t-10 10t10 10t10 -10zM330 102q0 -10 -10 -10t-10 10t10 10t10 -10zM480 -52q0 -10 -10 -10t-10 10t10 10
t10 -10zM127 290q0 -10 -10 -10t-10 10t10 10t10 -10zM437 -24q0 -10 -10 -10t-10 10t10 10t10 -10zM470 -90q0 -10 -10 -10t-10 10t10 10t10 -10zM300 73q0 -10 -10 -10t-10 10t10 10t10 -10zM119 249q0 -10 -10 -10t-10 10t10 10t10 -10zM408 -50q0 -10 -10 -10t-10 10
t10 10t10 -10zM458 -128q0 -10 -10 -10t-10 10t10 10t10 -10zM632 -1h-166q-2 -7 -9 -7q-6 0 -10 7h-457v12h184l-2 6q0 10 10 10t10 -10l-3 -6h443v-12zM111 209q0 -10 -10 -10t-10 10t10 10t10 -10zM267 49q0 -10 -10 -10t-10 10t10 10t10 -10zM378 -77q0 -10 -10 -10
t-10 10t10 10t10 -10zM446 -165q0 -10 -10 -10t-10 10t10 10t10 -10zM105 168q0 -10 -10 -10t-10 10t10 10t10 -10zM231 30q0 -10 -10 -10t-10 10t10 10t10 -10zM349 -103q0 -10 -10 -10t-10 10t10 10t10 -10zM432 -201q0 -10 -10 -10t-10 10t10 10t10 -10zM102 127
q0 -10 -10 -10t-10 10t10 10t10 -10zM321 -130q0 -10 -10 -10t-10 10t10 10t10 -10zM106 86q0 -10 -10 -10t-10 10t10 10t10 -10zM417 -237q0 -10 -10 -10t-10 10t10 10t10 -10zM120 48q0 -10 -10 -10t-10 10t10 10t10 -10zM150 22q0 -10 -10 -10t-10 10t10 10t10 -10z
M293 -158q0 -10 -10 -10t-10 10t10 10t10 -10zM396 -271q0 -10 -10 -10t-10 10t10 10t10 -10zM269 -189q0 -10 -10 -10t-10 10t10 10t10 -10zM368 -299q0 -10 -10 -10t-10 10t10 10t10 -10zM253 -225q0 -10 -10 -10t-10 10t10 10t10 -10zM334 -317q0 -10 -10 -10t-10 10
t10 10t10 -10zM249 -264q0 -10 -10 -10t-10 10t10 10t10 -10zM295 -319q0 -10 -10 -10t-10 10t10 10t10 -10zM262 -300q0 -10 -10 -10t-10 10t10 10t10 -10z" />
    <glyph glyph-name="Z" unicode="Z" horiz-adv-x="639" 
d="M630 681q0 -10 -10 -10t-10 10t10 10t10 -10zM589 681q0 -10 -10 -10t-10 10t10 10t10 -10zM611 653q0 -10 -10 -10t-10 10t10 10t10 -10zM547 681q0 -10 -10 -10t-10 10t10 10t10 -10zM584 621q0 -10 -10 -10t-10 10t10 10t10 -10zM506 681q0 -10 -10 -10t-10 10t10 10
t10 -10zM558 589q0 -10 -10 -10t-10 10t10 10t10 -10zM465 681q0 -10 -10 -10t-10 10t10 10t10 -10zM793 314q0 -10 -10 -10t-10 10t10 10t10 -10zM424 681q0 -10 -10 -10t-10 10t10 10t10 -10zM532 557q0 -10 -10 -10t-10 10t10 10t10 -10zM382 681q0 -10 -10 -10t-10 10
t10 10t10 -10zM763 286q0 -10 -10 -10t-10 10t10 10t10 -10zM506 525q0 -10 -10 -10t-10 10t10 10t10 -10zM341 681q0 -10 -10 -10t-10 10t10 10t10 -10zM733 251q0 -10 -10 -10t-10 10t10 10t10 -10zM299 681q0 -10 -10 -10t-10 10t10 10t10 -10zM479 493q0 -10 -10 -10
t-10 10t10 10t10 -10zM258 681q0 -10 -10 -10t-10 10t10 10t10 -10zM707 222q0 -10 -10 -10t-10 10t10 10t10 -10zM453 462q0 -10 -10 -10t-10 10t10 10t10 -10zM217 681q0 -10 -10 -10t-10 10t10 10t10 -10zM679 195q0 -10 -10 -10t-10 10t10 10t10 -10zM427 430
q0 -10 -10 -10t-10 10t10 10t10 -10zM652 168q0 -10 -10 -10t-10 10t10 10t10 -10zM401 398q0 -10 -10 -10t-10 10t10 10t10 -10zM625 141q0 -10 -10 -10t-10 10t10 10t10 -10zM597 113q0 -10 -10 -10t-10 10t10 10t10 -10zM639 353h-649v12h364q0 11 10 11q11 0 10 -11h265
v-12zM348 334q0 -10 -10 -10t-10 10t10 10t10 -10zM568 84q0 -10 -10 -10t-10 10t10 10t10 -10zM322 302q0 -10 -10 -10t-10 10t10 10t10 -10zM540 56q0 -10 -10 -10t-10 10t10 10t10 -10zM295 270q0 -10 -10 -10t-10 10t10 10t10 -10zM508 31q0 -10 -10 -10t-10 10t10 10
t10 -10zM269 238q0 -10 -10 -10t-10 10t10 10t10 -10zM243 207q0 -10 -10 -10t-10 10t10 10t10 -10zM217 175q0 -10 -10 -10t-10 10t10 10t10 -10zM352 27q0 -10 -10 -10t-10 10t10 10t10 -10zM315 35q0 -10 -10 -10t-10 10t10 10t10 -10zM639 -1h-649v12h78q-4 4 0 9t9 5
q6 0 9.5 -4.5t-0.5 -9.5h288l-3 7q0 10 10 10t10 -10l-3 -7h22q2 9 10 9t10 -9h20q-1 4 2 8t8 4t8.5 -3.5t0.5 -8.5h170v-12zM190 143q0 -10 -10 -10t-10 10t10 10t10 -10zM277 40q0 -10 -10 -10t-10 10q0 11 10 11t10 -11zM239 41q0 -10 -10 -10t-10 10q0 11 10 11t10 -11z
M164 111q0 -10 -10 -10t-10 10t10 10t10 -10zM200 39q0 -10 -10 -10t-10 10t10 10t10 -10zM138 79q0 -10 -10 -10t-10 10t10 10t10 -10zM162 34q0 -10 -10 -10t-10 10t10 10t10 -10zM112 47q0 -10 -10 -10t-10 10t10 10t10 -10zM124 25q0 -10 -10 -10t-10 10t10 10t10 -10z
" />
    <glyph glyph-name="bracketleft" unicode="[" horiz-adv-x="120" 
d="M130 -1h-130v366h130v-12h-118v-342h118v-12z" />
    <glyph glyph-name="bracketright" unicode="]" horiz-adv-x="1" 
d="M1 -1h-21v12h9v342h-9v12h21v-366z" />
    <glyph glyph-name="underscore" unicode="_" horiz-adv-x="483" 
d="M483 353h-493v12h493v-12zM468 -16q0 -10 -10 -10t-10 10t10 10t10 -10zM426 -16q0 -10 -10 -10t-10 10t10 10t10 -10zM385 -16q0 -10 -10 -10t-10 10t10 10t10 -10zM343 -16q0 -10 -10 -10t-10 10t10 10t10 -10zM302 -16q0 -10 -10 -10t-10 10t10 10t10 -10zM483 -1
h-493v12h493v-12zM261 -16q0 -10 -10 -10t-10 10t10 10t10 -10zM219 -15q0 -10 -10 -10t-10 10t10 10t10 -10zM178 -16q0 -10 -10 -10t-10 10t10 10t10 -10zM137 -16q0 -10 -10 -10t-10 10t10 10t10 -10zM95 -16q0 -10 -10 -10t-10 10t10 10t10 -10zM54 -16q0 -10 -10 -10
t-10 10t10 10t10 -10zM13 -16q0 -10 -10 -10t-10 10t10 10t10 -10z" />
    <glyph glyph-name="a" unicode="a" horiz-adv-x="496" 
d="M650 314q0 -10 -10 -10t-10 10t10 10t10 -10zM620 286q0 -10 -10 -10t-10 10t10 10t10 -10zM590 251q0 -10 -10 -10t-10 10t10 10t10 -10zM564 222q0 -10 -10 -10t-10 10t10 10t10 -10zM536 195q0 -10 -10 -10t-10 10t10 10t10 -10zM509 168q0 -10 -10 -10t-10 10t10 10
t10 -10zM338 314q0 -10 -10 -10t-10 10t10 10t10 -10zM482 141q0 -10 -10 -10t-10 10t10 10t10 -10zM304 305q0 -10 -10 -10t-10 10t10 10t10 -10zM496 353h-150q4 -4 0 -9t-9 -5q-6 0 -9.5 4.5t0.5 9.5h-338v12h506v-12zM273 332q0 -10 -10 -10t-10 10t10 10t10 -10z
M330 275q0 -10 -10 -10t-10 10t10 10t10 -10zM232 340q0 -10 -10 -10t-10 10t10 10t10 -10zM455 114q0 -10 -10 -10t-10 10t10 10t10 -10zM322 235q0 -10 -10 -10t-10 10t10 10t10 -10zM191 333q0 -10 -10 -10t-10 10t10 10t10 -10zM314 196q0 -10 -10 -10t-10 10t10 10
t10 -10zM427 86q0 -10 -10 -10t-10 10t10 10t10 -10zM154 314q0 -10 -10 -10t-10 10t10 10t10 -10zM305 156q0 -10 -10 -10t-10 10t10 10t10 -10zM400 59q0 -10 -10 -10t-10 10t10 10t10 -10zM123 286q0 -10 -10 -10t-10 10t10 10t10 -10zM297 115q0 -10 -10 -10t-10 10
t10 10t10 -10zM368 34q0 -10 -10 -10t-10 10t10 10t10 -10zM276 125q0 -10 -10 -10t-10 10t10 10t10 -10zM291 75q0 -10 -10 -10t-10 10t10 10t10 -10zM99 251q0 -10 -10 -10t-10 10t10 10t10 -10zM254 90q0 -10 -10 -10t-10 10t10 10t10 -10zM299 35q0 -10 -10 -10t-10 10
t10 10t10 -10zM83 213q0 -10 -10 -10t-10 10t10 10t10 -10zM228 58q0 -10 -10 -10t-10 10t10 10t10 -10zM496 -1h-506v12h148l-2 6q0 10 10 10t10 -10l-2 -6h160q-4 4 0 9t9 5t9.5 -4.5t-0.5 -9.5h164v-12zM72 173q0 -10 -10 -10t-10 10t10 10t10 -10zM195 31q0 -10 -10 -10
t-10 10t10 10t10 -10zM68 131q0 -10 -10 -10t-10 10t10 10t10 -10zM72 89q0 -10 -10 -10t-10 10t10 10t10 -10zM86 51q0 -11 -10 -11t-10 11q0 10 10 10t10 -10zM115 22q0 -10 -10 -10t-10 10t10 10t10 -10z" />
    <glyph glyph-name="b" unicode="b" horiz-adv-x="436" 
d="M392 659q0 -10 -10 -10t-10 10t10 10t10 -10zM360 683q0 -10 -10 -10t-10 10t10 10t10 -10zM395 617q0 -10 -10 -10t-10 10t10 10t10 -10zM321 671q0 -10 -10 -10t-10 10t10 10t10 -10zM386 576q0 -10 -10 -10t-10 10t10 10t10 -10zM294 639q0 -10 -10 -10t-10 10t10 10
t10 -10zM367 538q0 -10 -10 -10t-10 10t10 10t10 -10zM590 314q0 -10 -10 -10t-10 10t10 10t10 -10zM271 603q0 -10 -10 -10t-10 10t10 10t10 -10zM344 502q0 -10 -10 -10t-10 10t10 10t10 -10zM557 288q0 -10 -10 -10t-10 10t10 10t10 -10zM251 566q0 -10 -10 -10t-10 10
t10 10t10 -10zM520 278q0 -10 -10 -10t-10 10t10 10t10 -10zM318 469q0 -10 -10 -10t-10 10t10 10t10 -10zM232 528q0 -10 -10 -10t-10 10t10 10t10 -10zM481 272q0 -10 -10 -10t-10 10t10 10t10 -10zM290 437q0 -10 -10 -10t-10 10t10 10t10 -10zM442 276q0 -10 -10 -10
t-10 10t10 10t10 -10zM215 490q0 -10 -10 -10t-10 10t10 10t10 -10zM403 288q0 -10 -10 -10t-10 10t10 10t10 -10zM375 311q0 -4 -3.5 -8t-7.5 -2q-2 -7 -9 -7q-9 0 -9 11q0 4 3.5 7.5t6.5 1.5q2 7 9 7q10 0 10 -10zM260 407q0 -10 -10 -10t-10 10t10 10t10 -10zM199 450
q0 -10 -10 -10t-10 10t10 10t10 -10zM370 264q0 -10 -10 -10t-10 10t10 10t10 -10zM230 378q0 -10 -11 -10q-10 0 -10 10t10 10q11 0 11 -10zM373 224q0 -10 -10 -10t-10 10t10 10t10 -10zM186 410q0 -10 -10 -10t-10 10t10 10t10 -10zM436 353h-80l3 -8q0 -10 -10 -10
t-10 10l3 8h-145q3 -13 -9 -13q-13 0 -9 13h-189v12h166q-3 4 0 9.5t8 5.5q4 0 8.5 -3.5t-0.5 -11.5h264v-12zM372 183q0 -10 -10 -10t-10 10t10 10t10 -10zM367 143q0 -10 -10 -10t-10 10t10 10t10 -10zM164 328q0 -10 -10 -10t-10 10t10 10t10 -10zM356 104q0 -10 -10 -10
t-10 10t10 10t10 -10zM156 288q0 -10 -10 -10t-10 10t10 10t10 -10zM339 68q0 -10 -10 -10t-10 10t10 10t10 -10zM151 248q0 -10 -10 -10t-10 10t10 10t10 -10zM147 207q0 -10 -10 -10t-10 10t10 10t10 -10zM312 37q0 -10 -10 -10t-10 10t10 10t10 -10zM144 167
q0 -10 -10 -10t-10 10t10 10t10 -10zM145 126q0 -10 -10 -10t-10 10t10 10t10 -10zM151 86q0 -10 -10 -10t-10 10t10 10t10 -10zM436 -1h-446v12h228q-4 5 0 9t9 4t9 -4t0 -9h24l-3 7q0 10 10 10t10 -10l-3 -7h162v-12zM198 23q0 -10 -10 -10t-10 10t10 10t10 -10zM167 49
q0 -10 -10 -10t-10 10t10 10t10 -10z" />
    <glyph glyph-name="c" unicode="c" horiz-adv-x="343" 
d="M497 314q0 -10 -10 -10t-10 10t10 10t10 -10zM467 286q0 -10 -10 -10t-10 10t10 10t10 -10zM437 251q0 -10 -10 -10t-10 10t10 10t10 -10zM299 331q0 -10 -10 -10t-10 10t10 10t10 -10zM411 222q0 -10 -10 -10t-10 10t10 10t10 -10zM383 195q0 -10 -10 -10t-10 10t10 10
t10 -10zM343 353h-84l3 -9q0 -10 -10 -10t-10 10l3 9h-26l3 -9q0 -10 -10 -10t-10 10l3 9h-215v12h353v-12zM356 168q0 -10 -10 -10t-10 10t10 10t10 -10zM183 334q0 -10 -10 -10t-10 10t10 10t10 -10zM329 141q0 -10 -10 -10t-10 10t10 10t10 -10zM150 314q0 -10 -10 -10
t-10 10t10 10t10 -10zM302 114q0 -10 -10 -10t-10 10t10 10t10 -10zM121 286q0 -10 -10 -10t-10 10t10 10t10 -10zM274 86q0 -10 -10 -10t-10 10t10 10t10 -10zM97 254q0 -10 -10 -10t-10 10t10 10t10 -10zM247 59q0 -10 -10 -10t-10 10t10 10t10 -10zM82 217q0 -10 -10 -10
t-10 10t10 10t10 -10zM71 178q0 -10 -10 -10t-10 10t10 10t10 -10zM215 34q0 -10 -10 -10t-10 10t10 10t10 -10zM67 139q0 -10 -10 -10t-10 10t10 10t10 -10zM343 -1h-353v12h131q-4 4 0 9t9 5t9.5 -4.5t-0.5 -9.5h23l-2 6q0 10 10 10t10 -10l-2 -6h165v-12zM68 99
q0 -10 -10 -10t-10 10t10 10t10 -10zM80 61q0 -10 -10 -10t-10 10t10 10t10 -10zM104 31q0 -10 -10 -10t-10 10t10 10t10 -10z" />
    <glyph glyph-name="d" unicode="d" horiz-adv-x="496" 
d="M419 698q0 -10 -10 -10t-10 10t10 10t10 -10zM412 660q0 -10 -10 -10t-10 10t10 10t10 -10zM404 621q0 -10 -10 -10t-10 10t10 10t10 -10zM395 582q0 -10 -10 -10t-10 10t10 10t10 -10zM650 314q0 -10 -10 -10t-10 10t10 10t10 -10zM387 544q0 -10 -10 -10t-10 10t10 10
t10 -10zM620 286q0 -10 -10 -10t-10 10t10 10t10 -10zM379 505q0 -10 -10 -10t-10 10t10 10t10 -10zM590 251q0 -10 -10 -10t-10 10t10 10t10 -10zM371 466q0 -10 -10 -10t-10 10t10 10t10 -10zM363 428q0 -10 -10 -10t-10 10t10 10t10 -10zM564 222q0 -10 -10 -10t-10 10
t10 10t10 -10zM355 389q0 -10 -10 -10t-10 10t10 10t10 -10zM536 195q0 -10 -10 -10t-10 10t10 10t10 -10zM509 168q0 -10 -10 -10t-10 10t10 10t10 -10zM339 312q0 -10 -10 -10t-10 10t10 10t10 -10zM482 141q0 -10 -10 -10t-10 10t10 10t10 -10zM276 333q0 -10 -10 -10
t-10 10t10 10t10 -10zM306 305q0 -10 -10 -10t-10 10t10 10t10 -10zM496 353h-151q4 -5 1 -10t-9 -5q-5 0 -7 2q-6 5 -1 13h-339v12h506v-12zM331 273q0 -10 -10 -10t-10 10t10 10t10 -10zM235 341q0 -10 -10 -10t-10 10t10 10t10 -10zM455 114q0 -10 -10 -10t-10 10t10 10
t10 -10zM323 234q0 -10 -10 -10t-10 10t10 10t10 -10zM194 334q0 -10 -11 -10q-10 0 -10 10t10 10q11 0 11 -10zM315 195q0 -10 -10 -10t-10 10t10 10t10 -10zM427 86q0 -10 -10 -10t-10 10t10 10t10 -10zM156 315q0 -10 -10 -10t-10 10t10 10t10 -10zM305 156
q0 -10 -10 -10t-10 10t10 10t10 -10zM400 59q0 -10 -10 -10t-10 10t10 10t10 -10zM126 286q0 -10 -10 -10t-10 10t10 10t10 -10zM297 115q0 -10 -10 -10t-10 10t10 10t10 -10zM368 34q0 -10 -10 -10t-10 10t10 10t10 -10zM277 126q0 -10 -10 -10t-10 10t10 10t10 -10z
M291 75q0 -10 -10 -10t-10 10t10 10t10 -10zM102 252q0 -10 -10 -10t-10 10t10 10t10 -10zM256 90q0 -10 -10 -10t-10 10t10 10t10 -10zM299 35q0 -10 -10 -10t-10 10t10 10t10 -10zM85 214q0 -10 -10 -10t-10 10t10 10t10 -10zM230 58q0 -11 -10 -11t-10 11q0 10 10 10
t10 -10zM496 -1h-506v12h151l-3 7q0 10 10 10t10 -10q-2 -6 -4 -7h160q-4 4 0 9t9 5t9.5 -4.5t-0.5 -9.5h164v-12zM75 173q0 -10 -10 -10t-10 10t10 10t10 -10zM198 32q0 -10 -10 -10q-11 0 -11 10t11 10q10 0 10 -10zM71 132q0 -10 -10 -10t-10 10t10 10t10 -10zM74 90
q0 -10 -10 -10t-10 10t10 10t10 -10zM89 51q0 -10 -10 -10t-10 10t10 10t10 -10zM118 22q0 -10 -10 -10t-10 10t10 10t10 -10z" />
    <glyph glyph-name="e" unicode="e" horiz-adv-x="376" 
d="M530 314q0 -10 -10 -10t-10 10t10 10t10 -10zM500 286q0 -10 -10 -10t-10 10t10 10t10 -10zM470 251q0 -10 -10 -10t-10 10t10 10t10 -10zM444 222q0 -10 -10 -10t-10 10t10 10t10 -10zM416 195q0 -10 -10 -10t-10 10t10 10t10 -10zM257 328q0 -10 -10 -10t-10 10t10 10
t10 -10zM270 290q0 -10 -10 -10t-10 10t10 10t10 -10zM389 168q0 -10 -10 -10t-10 10t10 10t10 -10zM376 353h-155l2 -7q0 -10 -10 -10t-10 10l2 7h-215v12h386v-12zM183 338q0 -10 -10 -10t-10 10t10 10t10 -10zM264 250q0 -10 -10 -10t-10 10t10 10t10 -10zM362 141
q0 -10 -10 -10t-10 10t10 10t10 -10zM153 314q0 -10 -10 -10t-10 10t10 10t10 -10zM250 214q0 -10 -10 -10t-10 10t10 10t10 -10zM335 114q0 -10 -10 -10t-10 10t10 10t10 -10zM124 286q0 -10 -10 -10t-10 10t10 10t10 -10zM229 182q0 -10 -10 -10t-10 10t10 10t10 -10z
M307 86q0 -10 -10 -10t-10 10t10 10t10 -10zM198 159q0 -10 -10 -10t-10 10t10 10t10 -10zM100 251q0 -10 -10 -10t-10 10t10 10t10 -10zM280 59q0 -10 -10 -10t-10 10t10 10t10 -10zM158 154q0 -10 -10 -10t-10 10t10 10t10 -10zM106 210q0 -10 -10 -10q-7 0 -9 7
q-3 -6 -9 -6q-10 0 -10 10t10 10q7 0 9 -7q3 6 9 6q10 0 10 -10zM124 174q0 -10 -10 -10t-10 10t10 10t10 -10zM248 35q0 -10 -10 -10t-10 10t10 10t10 -10zM76 170q0 -10 -10 -10t-10 10t10 10t10 -10zM376 -1h-386v12h161q-1 3 1 7.5t9 4.5q12 0 10 -12h25q-2 4 -3 5t-1 3
q0 10 10 10t10 -10q-3 -7 -5 -8h169v-12zM72 126q0 -10 -10 -10t-10 10t10 10t10 -10zM79 85q0 -10 -10 -10t-10 10t10 10t10 -10zM130 23q0 -10 -10 -10t-10 10t10 10t10 -10zM98 48q0 -10 -10 -10t-10 10t10 10t10 -10z" />
    <glyph glyph-name="f" unicode="f" horiz-adv-x="320" 
d="M363 661q0 -10 -10 -10t-10 10t10 10t10 -10zM329 680q0 -10 -10 -10t-10 10t10 10t10 -10zM371 621q0 -10 -10 -10t-10 10t10 10t10 -10zM291 666q0 -10 -10 -10t-10 10t10 10t10 -10zM365 580q0 -10 -10 -10t-10 10t10 10t10 -10zM264 636q0 -10 -10 -10t-10 10t10 10
t10 -10zM350 542q0 -10 -10 -10t-10 10t10 10t10 -10zM242 600q0 -10 -10 -10t-10 10t10 10t10 -10zM331 506q0 -10 -10 -10t-10 10t10 10t10 -10zM225 563q0 -10 -10 -10t-10 10t10 10t10 -10zM474 314q0 -10 -10 -10t-10 10t10 10t10 -10zM308 471q0 -10 -10 -10t-10 10
t10 10t10 -10zM211 524q0 -10 -10 -10t-10 10t10 10t10 -10zM444 286q0 -10 -10 -10t-10 10t10 10t10 -10zM283 438q0 -10 -10 -10t-10 10t10 10t10 -10zM200 484q0 -10 -10 -10t-10 10t10 10t10 -10zM414 251q0 -10 -10 -10t-10 10t10 10t10 -10zM257 407q0 -10 -10 -10
t-10 10t10 10t10 -10zM192 444q0 -10 -10 -10t-10 10t10 10t10 -10zM388 222q0 -10 -10 -10t-10 10t10 10t10 -10zM228 377q0 -10 -10 -10t-10 10t10 10t10 -10zM185 403q0 -10 -10 -10t-10 10t10 10t10 -10zM360 195q0 -10 -10 -10t-10 10t10 10t10 -10zM320 353h-124l2 -5
q0 -10 -10 -10t-10 10l1 5h-189v12h167q2 8 10 8q9 0 9 -8h144v-12zM334 167q0 -10 -10 -10t-10 10t10 10t10 -10zM167 321q0 -10 -10 -10t-10 10t10 10t10 -10zM305 138q0 -10 -10 -10t-10 10t10 10t10 -10zM161 282q0 -10 -10 -10t-10 10t10 10t10 -10zM153 241
q0 -10 -10 -10q-11 0 -11 10t11 10q10 0 10 -10zM276 112q0 -10 -10 -10t-10 10t10 10t10 -10zM144 201q0 -10 -10 -10t-10 10t10 10t10 -10zM244 90q0 -10 -10 -10t-10 10t10 10t10 -10zM136 160q0 -10 -10 -10t-10 10t10 10t10 -10zM204 74q0 -10 -10 -10t-10 10t10 10
t10 -10zM127 120q0 -10 -10 -10t-10 10t10 10t10 -10zM161 71q0 -10 -10 -10t-10 10t10 10t10 -10zM118 79q0 -10 -10 -10t-10 10t10 10t10 -10zM75 92q0 -10 -10 -10t-10 10t10 10t10 -10zM320 -1h-219q-2 -9 -10 -9t-10 9h-91v12h330v-12zM110 39q0 -10 -10 -10t-10 10
t10 10t10 -10zM36 111q0 -10 -10 -10t-10 10t10 10t10 -10zM92 -40q0 -10 -10 -10t-10 10t10 10t10 -10zM84 -80q0 -10 -10 -10t-10 10t10 10t10 -10zM75 -119q0 -10 -10 -10t-10 10t10 10t10 -10zM66 -158q0 -10 -10 -10t-10 10t10 10t10 -10zM57 -198q0 -10 -10 -10
t-10 10t10 10t10 -10zM49 -237q0 -10 -10 -10t-10 10t10 10t10 -10zM40 -277q0 -10 -10 -10t-10 10t10 10t10 -10zM32 -317q0 -10 -10 -10t-10 10q0 11 10 11t10 -11z" />
    <glyph glyph-name="g" unicode="g" horiz-adv-x="486" 
d="M640 314q0 -10 -10 -10t-10 10t10 10t10 -10zM610 286q0 -10 -10 -10t-10 10t10 10t10 -10zM580 251q0 -10 -10 -10t-10 10t10 10t10 -10zM554 222q0 -10 -10 -10t-10 10t10 10t10 -10zM526 195q0 -10 -10 -10t-10 10t10 10t10 -10zM499 168q0 -10 -10 -10t-10 10t10 10
t10 -10zM335 309q0 -10 -10 -10t-10 10t10 10t10 -10zM472 141q0 -10 -10 -10t-10 10t10 10t10 -10zM300 305q0 -10 -10 -10t-10 10t10 10t10 -10zM269 332q0 -10 -10 -10t-10 10t10 10t10 -10zM486 353h-145l2 -8q0 -10 -10 -10t-10 10l2 8h-335v12h496v-12zM326 268
q0 -10 -10 -10t-10 10t10 10t10 -10zM228 340q0 -10 -10 -10t-10 10t10 10t10 -10zM445 114q0 -10 -10 -10t-10 10t10 10t10 -10zM318 228q0 -10 -10 -10t-10 10t10 10t10 -10zM187 333q0 -10 -10 -10t-10 10t10 10t10 -10zM310 188q0 -10 -10 -10t-10 10t10 10t10 -10z
M416 85q0 -10 -10 -10t-10 10t10 10t10 -10zM150 314q0 -10 -10 -10t-10 10t10 10t10 -10zM301 148q0 -10 -10 -10t-10 10t10 10t10 -10zM388 57q0 -10 -10 -10t-10 10t10 10t10 -10zM120 286q0 -10 -10 -10t-10 10t10 10t10 -10zM293 108q0 -10 -10 -10t-10 10t10 10
t10 -10zM272 125q0 -10 -10 -10t-10 10t10 10t10 -10zM355 31q0 -10 -10 -10t-10 10t10 10t10 -10zM285 67q0 -10 -10 -10t-10 10t10 10t10 -10zM96 251q0 -10 -10 -10q-11 0 -11 10t11 10q10 0 10 -10zM250 90q0 -10 -10 -10t-10 10t10 10t10 -10zM277 27q0 -10 -10 -10
t-10 10t10 10t10 -10zM79 213q0 -10 -10 -10t-10 10t10 10t10 -10zM224 58q0 -10 -10 -10t-10 10t10 10t10 -10zM293 -21q0 -10 -10 -10t-10 10t10 10t10 -10zM268 -13q0 -10 -10 -10t-10 10t10 10t10 -10zM486 -1h-164q-4 -2 -5.5 -2.5t-2.5 -1.5q-7 3 -8 4h-316v12h144
q-7 16 8 16q6 0 9.5 -4.5t-1.5 -11.5h156q2 2 3.5 2.5l4.5 1.5l7 -4h165v-12zM68 173q0 -10 -10 -10t-10 10t10 10t10 -10zM191 31q0 -10 -10 -10t-10 10t10 10t10 -10zM259 -52q0 -10 -10 -10t-10 10t10 10t10 -10zM64 131q0 -10 -10 -10t-10 10t10 10t10 -10zM68 89
q0 -10 -10 -10t-10 10t10 10t10 -10zM251 -93q0 -10 -10 -10t-10 10t10 10t10 -10zM225 -73q0 -10 -10 -10t-10 10t10 10t10 -10zM82 51q0 -10 -10 -10t-10 10t10 10t10 -10zM112 22q0 -10 -10 -10t-10 10t10 10t10 -10zM242 -133q0 -10 -10 -10t-10 10t10 10t10 -10z
M193 -98q0 -10 -10 -10t-10 10t10 10t10 -10zM232 -173q0 -10 -10 -10t-10 10t10 10t10 -10zM161 -124q0 -10 -10 -10t-10 10t10 10t10 -10zM223 -213q0 -10 -10 -10t-10 10t10 10t10 -10zM130 -152q0 -10 -10 -10t-10 10t10 10t10 -10zM213 -253q0 -10 -10 -10t-10 10
t10 10t10 -10zM103 -182q0 -10 -10 -10t-10 10t10 10t10 -10zM191 -287q0 -10 -10 -10t-10 10t10 10t10 -10zM81 -216q0 -10 -10 -10t-10 10t10 10t10 -10zM157 -310q0 -10 -10 -10t-10 10t10 10t10 -10zM70 -255q0 -10 -10 -10t-10 10t10 10t10 -10zM117 -313
q0 -10 -10 -10t-10 10t10 10t10 -10zM81 -294q0 -10 -10 -10t-10 10t10 10t10 -10z" />
    <glyph glyph-name="h" unicode="h" horiz-adv-x="551" 
d="M343 677q0 -10 -10 -10t-10 10t10 10t10 -10zM705 314q0 -10 -10 -10t-10 10t10 10t10 -10zM363 642q0 -10 -10 -10t-10 10t10 10t10 -10zM304 679q0 -10 -10 -10t-10 10t10 10t10 -10zM365 600q0 -10 -11 -10q-10 0 -10 10t10 10q11 0 11 -10zM675 286q0 -10 -10 -10
t-10 10t10 10t10 -10zM271 655q0 -10 -10 -10t-10 10t10 10t10 -10zM353 560q0 -10 -10 -10t-10 10t10 10t10 -10zM645 251q0 -10 -10 -10t-10 10t10 10t10 -10zM248 620q0 -10 -10 -10t-10 10t10 10t10 -10zM336 523q0 -10 -10 -10t-10 10t10 10t10 -10zM619 222
q0 -10 -10 -10t-10 10t10 10t10 -10zM230 583q0 -10 -10 -10t-10 10t10 10t10 -10zM314 487q0 -10 -10 -10t-10 10t10 10t10 -10zM591 195q0 -10 -10 -10t-10 10t10 10t10 -10zM215 544q0 -10 -10 -10t-10 10t10 10t10 -10zM290 453q0 -10 -10 -10t-10 10t10 10t10 -10z
M564 168q0 -10 -10 -10t-10 10t10 10t10 -10zM383 332q0 -10 -10 -10t-10 10t10 10t10 -10zM203 504q0 -10 -10 -10t-10 10t10 10t10 -10zM264 421q0 -10 -10 -10t-10 10t10 10t10 -10zM343 338q0 -10 -10 -10t-10 10t10 10t10 -10zM389 290q0 -10 -10 -10t-10 10t10 10
t10 -10zM537 141q0 -10 -10 -10t-10 10t10 10t10 -10zM193 464q0 -10 -10 -10t-10 10t10 10t10 -10zM551 353h-561v12h195q4 7 10 7q7 0 9 -7h347v-12zM235 391q0 -10 -10 -10t-10 10t10 10t10 -10zM305 318q0 -10 -10 -10t-10 10t10 10t10 -10zM379 247q0 -10 -10 -10
t-10 10t10 10t10 -10zM510 114q0 -10 -10 -10t-10 10t10 10t10 -10zM185 423q0 -10 -10 -10t-10 10t10 10t10 -10zM368 203q0 -10 -10 -10t-10 10t10 10t10 -10zM482 86q0 -10 -10 -10t-10 10t10 10t10 -10zM272 291q0 -10 -10 -10t-10 10t10 10t10 -10zM177 382
q0 -10 -10 -10t-10 10t10 10t10 -10zM360 160q0 -10 -10 -10t-10 10t10 10t10 -10zM455 59q0 -10 -10 -10t-10 10t10 10t10 -10zM169 342q0 -10 -10 -10t-10 10t10 10t10 -10zM242 261q0 -10 -10 -10t-10 10t10 10t10 -10zM351 117q0 -10 -10 -10t-10 10t10 10t10 -10z
M160 301q0 -10 -10 -10t-10 10t10 10t10 -10zM423 34q0 -10 -10 -10t-10 10t10 10t10 -10zM213 230q0 -10 -10 -10t-10 10t10 10t10 -10zM346 76q0 -10 -10 -10t-10 10t10 10t10 -10zM151 260q0 -10 -10 -10t-10 10t10 10t10 -10zM354 35q0 -10 -10 -10t-10 10t10 10t10 -10
zM185 198q0 -10 -10 -10t-10 10t10 10t10 -10zM142 220q0 -10 -10 -10t-10 10t10 10t10 -10zM157 166q0 -10 -10 -10t-10 10t10 10t10 -10zM133 179q0 -10 -10 -10t-10 10t10 10t10 -10zM551 -1h-561v12h88l-2 6q0 10 10 10t10 -10l-3 -6h276q-4 4 0 9t9 5t9.5 -4.5
t-0.5 -9.5h164v-12zM124 139q0 -10 -10 -10t-10 10t10 10t10 -10zM115 98q0 -10 -11 -10q-10 0 -10 10t10 10q11 0 11 -10zM105 58q0 -10 -10 -10t-10 10t10 10t10 -10z" />
    <glyph glyph-name="i" unicode="i" horiz-adv-x="331" 
d="M485 314q0 -10 -10 -10t-10 10t10 10t10 -10zM455 286q0 -10 -10 -10t-10 10t10 10t10 -10zM209 509q0 -10 -10 -10t-10 10t10 10t10 -10zM425 251q0 -10 -10 -10t-10 10t10 10t10 -10zM198 465q0 -10 -10 -10t-10 10t10 10t10 -10zM399 222q0 -10 -10 -10t-10 10t10 10
t10 -10zM371 195q0 -10 -10 -10t-10 10t10 10t10 -10zM331 353h-164q1 -12 -10 -12t-10 12h-157v12h341v-12zM344 168q0 -10 -10 -10t-10 10t10 10t10 -10zM158 314q0 -10 -10 -10t-10 10t10 10t10 -10zM317 141q0 -10 -10 -10t-10 10t10 10t10 -10zM150 274q0 -10 -10 -10
t-10 10t10 10t10 -10zM290 114q0 -10 -10 -10t-10 10t10 10t10 -10zM142 234q0 -10 -10 -10t-10 10t10 10t10 -10zM262 86q0 -10 -10 -10t-10 10t10 10t10 -10zM134 195q0 -10 -10 -10t-10 10t10 10t10 -10zM235 59q0 -10 -10 -10t-10 10t10 10t10 -10zM125 156
q0 -10 -10 -10t-10 10t10 10t10 -10zM204 35q0 -10 -10 -10t-10 10t10 10t10 -10zM116 118q0 -10 -10 -10t-10 10t10 10t10 -10zM110 81q0 -10 -10 -10t-10 10t10 10t10 -10zM331 -1h-341v12h124q-6 15 8 15q5 0 8 -5t0 -10h22l-2 6q0 10 10 10t10 -10l-3 -6h164v-12z
M109 43q0 -10 -10 -10t-10 10t10 10t10 -10z" />
    <glyph glyph-name="j" unicode="j" horiz-adv-x="316" 
d="M470 314q0 -10 -10 -10t-10 10t10 10t10 -10zM440 286q0 -10 -10 -10t-10 10t10 10t10 -10zM209 509q0 -10 -10 -10t-10 10t10 10t10 -10zM198 465q0 -10 -10 -10t-10 10t10 10t10 -10zM410 251q0 -10 -10 -10t-10 10t10 10t10 -10zM384 222q0 -10 -10 -10t-10 10t10 10
t10 -10zM356 195q0 -10 -10 -10t-10 10t10 10t10 -10zM316 353h-149q3 -12 -10 -12q-12 0 -10 12h-157v12h326v-12zM329 168q0 -10 -10 -10t-10 10t10 10t10 -10zM158 314q0 -10 -10 -10t-10 10t10 10t10 -10zM302 141q0 -10 -10 -10t-10 10t10 10t10 -10zM150 273
q0 -10 -10 -10t-10 10t10 10t10 -10zM275 114q0 -10 -10 -10t-10 10t10 10t10 -10zM142 232q0 -10 -10 -10t-10 10t10 10t10 -10zM246 85q0 -10 -10 -10t-10 10t10 10t10 -10zM134 192q0 -10 -10 -10t-10 10t10 10t10 -10zM125 152q0 -10 -10 -10t-10 10t10 10t10 -10z
M218 57q0 -10 -10 -10t-10 10t10 10t10 -10zM116 113q0 -10 -10 -10t-10 10t10 10t10 -10zM184 30q0 -10 -10 -10t-10 10t10 10t10 -10zM107 74q0 -10 -10 -10t-10 10t10 10t10 -10zM316 -1h-165q-4 -7 -9 -7t-9 7h-44l2 -6q0 -10 -10 -10t-10 10l2 6h-83v12h326v-12zM99 33
q0 -10 -10 -10t-10 10t10 10t10 -10zM120 -23q0 -10 -10 -10t-10 10t10 10t10 -10zM85 -50q0 -10 -10 -10t-10 10t10 10t10 -10zM78 -88q0 -10 -10 -10t-10 10t10 10t10 -10zM53 -79q0 -10 -10 -10t-10 10t10 10t10 -10zM70 -128q0 -10 -10 -10t-10 10t10 10t10 -10z
M21 -103q0 -10 -10 -10t-10 10t10 10t10 -10zM62 -168q0 -10 -10 -10t-10 10t10 10t10 -10zM-12 -128q0 -10 -10 -10t-10 10t10 10t10 -10zM53 -208q0 -10 -10 -10t-10 10t10 10t10 -10zM-43 -155q0 -10 -10 -10t-10 10t10 10t10 -10zM42 -247q0 -10 -10 -10t-10 10t10 10
t10 -10zM-71 -184q0 -10 -10 -10t-10 10t10 10t10 -10zM22 -283q0 -10 -10 -10t-10 10t10 10t10 -10zM-92 -219q0 -10 -10 -10t-10 10t10 10t10 -10zM-10 -307q0 -10 -10 -10t-10 10t10 10t10 -10zM-101 -259q0 -10 -10 -10t-10 10t10 10t10 -10zM-50 -313q0 -10 -10 -10
t-10 10t10 10t10 -10zM-87 -296q0 -10 -10 -10t-10 10t10 10t10 -10z" />
    <glyph glyph-name="k" unicode="k" horiz-adv-x="502" 
d="M362 664q0 -10 -10 -10t-10 10t10 10t10 -10zM327 680q0 -10 -10 -10t-10 10t10 10t10 -10zM372 625q0 -10 -10 -10t-10 10t10 10t10 -10zM656 314q0 -10 -10 -10t-10 10t10 10t10 -10zM290 663q0 -10 -10 -10t-10 10t10 10t10 -10zM367 585q0 -10 -10 -10t-10 10t10 10
t10 -10zM626 286q0 -10 -10 -10t-10 10t10 10t10 -10zM353 547q0 -10 -10 -10t-10 10t10 10t10 -10zM262 634q0 -10 -10 -10t-10 10t10 10t10 -10zM334 510q0 -10 -10 -10t-10 10t10 10t10 -10zM596 251q0 -10 -10 -10t-10 10t10 10t10 -10zM240 599q0 -10 -10 -10t-10 10
t10 10t10 -10zM570 222q0 -10 -10 -10t-10 10t10 10t10 -10zM224 562q0 -10 -10 -10t-10 10t10 10t10 -10zM312 476q0 -10 -10 -10t-10 10t10 10t10 -10zM211 523q0 -10 -10 -10t-10 10t10 10t10 -10zM288 443q0 -10 -10 -10t-10 10t10 10t10 -10zM542 195q0 -10 -10 -10
t-10 10t10 10t10 -10zM388 318q0 -10 -10 -10t-10 10t10 10t10 -10zM352 339q0 -10 -10 -10t-10 10t10 10t10 -10zM202 484q0 -10 -10 -10t-10 10t10 10t10 -10zM515 168q0 -10 -10 -10t-10 10t10 10t10 -10zM399 278q0 -10 -10 -10t-10 10t10 10t10 -10zM262 411
q0 -10 -10 -10t-10 10t10 10t10 -10zM311 333q0 -10 -10 -10t-10 10t10 10t10 -10zM194 443q0 -10 -10 -10t-10 10t10 10t10 -10zM389 238q0 -10 -10 -10t-10 10t10 10t10 -10zM488 141q0 -10 -10 -10t-10 10t10 10t10 -10zM234 381q0 -10 -10 -10t-10 10t10 10t10 -10z
M502 353h-297q0 -10 -10 -10t-10 10h-195v12h167q2 9 10 9t10 -9h325v-12zM186 404q0 -10 -10 -10t-10 10t10 10t10 -10zM273 313q0 -10 -10 -10t-10 10t10 10t10 -10zM461 114q0 -10 -10 -10t-10 10t10 10t10 -10zM356 212q0 -10 -10 -10t-10 10t10 10t10 -10zM240 287
q0 -10 -10 -10t-10 10t10 10t10 -10zM433 86q0 -10 -10 -10t-10 10t10 10t10 -10zM317 196q0 -10 -10 -10t-10 10t10 10t10 -10zM169 324q0 -10 -10 -10t-10 10t10 10t10 -10zM208 259q0 -10 -10 -10t-10 10t10 10t10 -10zM406 59q0 -10 -10 -10t-10 10t10 10t10 -10z
M276 186q0 -10 -10 -10t-10 10t10 10t10 -10zM161 284q0 -10 -10 -10t-10 10t10 10t10 -10zM239 176q0 -10 -10 -10t-10 10t10 10t10 -10zM375 35q0 -10 -10 -10t-10 10t10 10t10 -10zM177 231q0 -10 -10 -10t-10 10t10 10t10 -10zM152 244q0 -10 -10 -10t-10 10t10 10
t10 -10zM253 140q0 -10 -10 -10t-10 10t10 10t10 -10zM269 108q0 -10 -10 -10t-10 10t10 10t10 -10zM289 76q0 -10 -10 -10t-10 10t10 10t10 -10zM340 22q0 -10 -10 -10t-10 10t10 10t10 -10zM312 47q0 -10 -10 -10t-10 10t10 10t10 -10zM144 205q0 -10 -10 -10t-10 10
t10 10t10 -10zM135 165q0 -10 -10 -10t-10 10t10 10t10 -10zM502 -1h-403q-4 -2 -5.5 -2.5t-2.5 -1.5q-7 3 -8 4h-93v12h93q2 2 3.5 2.5l4.5 1.5l7 -4h404v-12zM126 125q0 -10 -10 -10t-10 10t10 10t10 -10zM118 85q0 -10 -10 -10t-10 10t10 10t10 -10zM109 45
q0 -10 -10 -10t-10 10q0 11 10 11t10 -11z" />
    <glyph glyph-name="l" unicode="l" horiz-adv-x="392" 
d="M359 662q0 -10 -10 -10t-10 10t10 10t10 -10zM326 683q0 -10 -10 -10t-10 10t10 10t10 -10zM368 621q0 -10 -10 -10t-10 10t10 10t10 -10zM288 667q0 -10 -10 -10t-10 10t10 10t10 -10zM362 580q0 -10 -10 -10t-10 10t10 10t10 -10zM259 637q0 -10 -10 -10t-10 10t10 10
t10 -10zM347 540q0 -10 -10 -10t-10 10t10 10t10 -10zM546 314q0 -10 -10 -10t-10 10t10 10t10 -10zM237 602q0 -10 -10 -10t-10 10t10 10t10 -10zM327 503q0 -10 -10 -10t-10 10t10 10t10 -10zM516 286q0 -10 -10 -10t-10 10t10 10t10 -10zM222 562q0 -10 -10 -10t-10 10
t10 10t10 -10zM304 468q0 -10 -10 -10t-10 10t10 10t10 -10zM486 251q0 -10 -10 -10t-10 10t10 10t10 -10zM210 522q0 -10 -10 -10t-10 10t10 10t10 -10zM279 434q0 -10 -10 -10t-10 10t10 10t10 -10zM198 482q0 -10 -10 -10t-10 10t10 10t10 -10zM460 222q0 -10 -10 -10
t-10 10t10 10t10 -10zM252 402q0 -10 -10 -10t-10 10t10 10t10 -10zM187 441q0 -10 -10 -10t-10 10t10 10t10 -10zM432 195q0 -10 -10 -10t-10 10t10 10t10 -10zM177 399q0 -10 -10 -10t-10 10t10 10t10 -10zM405 168q0 -10 -10 -10t-10 10t10 10t10 -10zM392 353h-204
q2 -2 4 -9q0 -10 -10 -10t-10 10q2 7 4 9h-8q-5 -7 -9 -7t-9 7h-160v12h216l-3 7q0 10 10 10t10 -10q-2 -6 -4 -7h173v-12zM378 141q0 -10 -10 -10t-10 10t10 10t10 -10zM160 315q0 -10 -10 -10t-10 10t10 10t10 -10zM351 114q0 -10 -10 -10t-10 10t10 10t10 -10zM154 272
q0 -10 -10 -10t-10 10t10 10t10 -10zM323 86q0 -10 -10 -10t-10 10t10 10t10 -10zM149 229q0 -10 -10 -10t-10 10t10 10t10 -10zM296 59q0 -10 -10 -10t-10 10t10 10t10 -10zM146 186q0 -10 -10 -10t-10 10t10 10t10 -10zM265 35q0 -10 -10 -10t-10 10t10 10t10 -10z
M144 143q0 -10 -10 -10t-10 10t10 10t10 -10zM144 99q0 -10 -10 -10t-10 10t10 10t10 -10zM153 55q0 -10 -10 -10t-10 10t10 10t10 -10zM183 25q0 -10 -10 -10t-10 10t10 10t10 -10zM392 -1h-402v12h218l-2 6q0 10 10 10t10 -10l-3 -6h169v-12z" />
    <glyph glyph-name="m" unicode="m" horiz-adv-x="787" 
d="M941 314q0 -10 -10 -10t-10 10t10 10t10 -10zM911 286q0 -10 -10 -10t-10 10t10 10t10 -10zM881 251q0 -10 -10 -10t-10 10t10 10t10 -10zM855 222q0 -10 -10 -10t-10 10t10 10t10 -10zM827 195q0 -10 -10 -10t-10 10t10 10t10 -10zM800 168q0 -10 -10 -10t-10 10t10 10
t10 -10zM625 330q0 -10 -10 -10t-10 10t10 10t10 -10zM591 340q0 -10 -10 -10t-10 10t10 10t10 -10zM626 290q0 -10 -10 -10t-10 10t10 10t10 -10zM773 141q0 -10 -10 -10t-10 10t10 10t10 -10zM555 328q0 -10 -10 -10t-10 10t10 10t10 -10zM615 247q0 -10 -10 -10t-10 10
t10 10t10 -10zM746 114q0 -10 -10 -10t-10 10t10 10t10 -10zM521 305q0 -10 -10 -10t-10 10t10 10t10 -10zM604 203q0 -10 -10 -10t-10 10t10 10t10 -10zM718 86q0 -10 -10 -10t-10 10t10 10t10 -10zM490 278q0 -10 -10 -10t-10 10t10 10t10 -10zM596 160q0 -10 -10 -10
t-10 10t10 10t10 -10zM787 353h-621q0 -11 -10 -11q-11 0 -10 11h-156v12h797v-12zM691 59q0 -10 -10 -10t-10 10t10 10t10 -10zM461 250q0 -10 -10 -10t-10 10t10 10t10 -10zM361 340q0 -10 -10 -10t-10 10t10 10t10 -10zM386 315q0 -10 -10 -10t-10 10t10 10t10 -10z
M587 117q0 -10 -10 -10t-10 10t10 10t10 -10zM659 34q0 -10 -10 -10t-10 10t10 10t10 -10zM384 276q0 -10 -10 -10t-10 10t10 10t10 -10zM434 219q0 -10 -10 -10t-10 10t10 10t10 -10zM582 76q0 -10 -10 -10t-10 10t10 10t10 -10zM321 326q0 -10 -10 -10t-10 10t10 10
t10 -10zM590 35q0 -10 -10 -10t-10 10t10 10t10 -10zM377 238q0 -10 -10 -10t-10 10t10 10t10 -10zM288 303q0 -10 -10 -10t-10 10t10 10t10 -10zM409 187q0 -10 -10 -10t-10 10t10 10t10 -10zM370 200q0 -10 -10 -10t-10 10t10 10t10 -10zM385 154q0 -10 -10 -10t-10 10
t10 10t10 -10zM257 276q0 -10 -10 -10t-10 10t10 10t10 -10zM362 161q0 -10 -10 -10t-10 10t10 10t10 -10zM228 248q0 -10 -10 -10t-10 10t10 10t10 -10zM355 123q0 -10 -10 -10t-10 10t10 10t10 -10zM156 314q0 -10 -10 -10t-10 10t10 10t10 -10zM346 85q0 -10 -10 -10
t-10 10t10 10t10 -10zM147 274q0 -10 -10 -10t-10 10t10 10t10 -10zM201 217q0 -10 -10 -10t-10 10t10 10t10 -10zM787 -1h-797v12h87q2 7 9 7t9 -7h214q2 8 10 8q9 0 9 -8h277q-4 5 -0.5 9.5t9.5 4.5q5 0 9.5 -4.5t-0.5 -9.5h164v-12zM338 47q0 -10 -10 -10t-10 10t10 10
t10 -10zM139 235q0 -10 -10 -10t-10 10t10 10t10 -10zM175 185q0 -10 -10 -10t-10 10t10 10t10 -10zM132 197q0 -10 -10 -10t-10 10t10 10t10 -10zM152 153q0 -10 -10 -10t-10 10t10 10t10 -10zM124 158q0 -10 -10 -10t-10 10t10 10t10 -10zM118 120q0 -10 -10 -10t-10 10
t10 10t10 -10zM110 84q0 -10 -10 -10t-10 10t10 10t10 -10zM103 46q0 -10 -10 -10t-10 10t10 10t10 -10z" />
    <glyph glyph-name="n" unicode="n" horiz-adv-x="551" 
d="M705 314q0 -10 -10 -10t-10 10t10 10t10 -10zM675 286q0 -10 -10 -10t-10 10t10 10t10 -10zM645 251q0 -10 -10 -10t-10 10t10 10t10 -10zM619 222q0 -10 -10 -10t-10 10t10 10t10 -10zM591 195q0 -10 -10 -10t-10 10t10 10t10 -10zM564 168q0 -10 -10 -10t-10 10t10 10
t10 -10zM389 330q0 -10 -10 -10t-10 10t10 10t10 -10zM355 340q0 -10 -10 -10t-10 10t10 10t10 -10zM390 290q0 -10 -10 -10t-10 10t10 10t10 -10zM537 141q0 -10 -10 -10t-10 10t10 10t10 -10zM319 328q0 -10 -10 -10t-10 10t10 10t10 -10zM551 353h-385q0 -11 -10 -11
q-9 0 -10 11h-156v12h561v-12zM379 247q0 -10 -10 -10t-10 10t10 10t10 -10zM510 114q0 -10 -10 -10t-10 10t10 10t10 -10zM289 306q0 -11 -10 -11t-10 11q0 10 10 10t10 -10zM368 203q0 -10 -10 -10t-10 10t10 10t10 -10zM482 86q0 -10 -10 -10t-10 10t10 10t10 -10z
M258 279q0 -10 -10 -10t-10 10t10 10t10 -10zM360 160q0 -10 -10 -10t-10 10t10 10t10 -10zM455 59q0 -10 -10 -10t-10 10t10 10t10 -10zM229 250q0 -10 -10 -10t-10 10t10 10t10 -10zM156 314q0 -10 -10 -10t-10 10t10 10t10 -10zM351 117q0 -10 -10 -10t-10 10t10 10
t10 -10zM423 34q0 -10 -10 -10t-10 10t10 10t10 -10zM147 274q0 -10 -10 -10t-10 10t10 10t10 -10zM202 219q0 -10 -10 -10t-10 10t10 10t10 -10zM346 76q0 -10 -10 -10t-10 10t10 10t10 -10zM354 35q0 -10 -10 -10t-10 10t10 10t10 -10zM139 235q0 -10 -10 -10t-10 10
t10 10t10 -10zM177 187q0 -10 -10 -10t-10 10t10 10t10 -10zM132 197q0 -10 -10 -10t-10 10t10 10t10 -10zM153 154q0 -10 -10 -10t-10 10t10 10t10 -10zM551 -1h-561v12h87q2 7 9 7t9 -7h274q-4 4 0 9t9 5t9.5 -4.5t-0.5 -9.5h164v-12zM124 158q0 -10 -10 -10t-10 10t10 10
t10 -10zM118 120q0 -10 -10 -10t-10 10t10 10t10 -10zM110 84q0 -10 -10 -10t-10 10t10 10t10 -10zM103 46q0 -10 -10 -10t-10 10t10 10t10 -10z" />
    <glyph glyph-name="o" unicode="o" horiz-adv-x="413" 
d="M567 314q0 -10 -10 -10t-10 10t10 10t10 -10zM534 288q0 -10 -10 -10t-10 10t10 10t10 -10zM497 278q0 -10 -10 -10t-10 10t10 10t10 -10zM458 272q0 -10 -10 -10t-10 10t10 10t10 -10zM419 276q0 -10 -10 -10t-10 10t10 10t10 -10zM380 288q0 -10 -10 -10t-10 10t10 10
t10 -10zM353 312q0 -10 -10 -10t-10 10t10 10t10 -10zM332 301q0 -10 -10 -10t-10 10t10 10t10 -10zM301 320q0 -10 -10 -10t-10 10t10 10t10 -10zM345 272q0 -10 -10 -10t-10 10t10 10t10 -10zM265 336q0 -10 -10 -10t-10 10t10 10t10 -10zM338 232q0 -10 -10 -10t-10 10
t10 10t10 -10zM226 341q0 -10 -10 -10t-10 10t10 10t10 -10zM413 353h-60l3 -8q0 -10 -10 -10t-10 10l3 8h-349v12h423v-12zM187 335q0 -10 -10 -10t-10 10t10 10t10 -10zM329 192q0 -10 -10 -10t-10 10t10 10t10 -10zM154 314q0 -10 -10 -10t-10 10t10 10t10 -10zM318 152
q0 -10 -10 -10t-10 10t10 10t10 -10zM305 114q0 -10 -10 -10t-10 10t10 10t10 -10zM124 286q0 -10 -10 -10t-10 10t10 10t10 -10zM286 78q0 -10 -10 -10t-10 10t10 10t10 -10zM105 252q0 -10 -10 -10t-10 10t10 10t10 -10zM88 216q0 -10 -10 -10t-10 10t10 10t10 -10z
M260 47q0 -10 -10 -10t-10 10t10 10t10 -10zM79 180q0 -10 -10 -10t-10 10t10 10t10 -10zM227 24q0 -10 -10 -10t-10 10t10 10t10 -10zM413 -1h-423v12h140q-2 5 0.5 10.5t7.5 5.5q6 0 9 -5.5t-2 -10.5h24q-4 4 0 8.5t9 4.5t9 -4.5t0 -8.5h226v-12zM75 140q0 -10 -10 -10
t-10 10t10 10t10 -10zM77 101q0 -10 -10 -10t-10 10t10 10t10 -10zM89 65q0 -10 -10 -10t-10 10t10 10t10 -10zM114 36q0 -10 -10 -10t-10 10t10 10t10 -10z" />
    <glyph glyph-name="p" unicode="p" horiz-adv-x="552" 
d="M706 314q0 -10 -10 -10t-10 10t10 10t10 -10zM676 286q0 -10 -10 -10t-10 10t10 10t10 -10zM646 251q0 -10 -10 -10t-10 10t10 10t10 -10zM620 222q0 -10 -10 -10t-10 10t10 10t10 -10zM592 195q0 -10 -10 -10t-10 10t10 10t10 -10zM565 168q0 -10 -10 -10t-10 10t10 10
t10 -10zM390 330q0 -10 -10 -10t-10 10t10 10t10 -10zM356 340q0 -10 -10 -10t-10 10t10 10t10 -10zM391 290q0 -10 -10 -10t-10 10t10 10t10 -10zM538 141q0 -10 -10 -10t-10 10t10 10t10 -10zM320 328q0 -10 -10 -10t-10 10t10 10t10 -10zM552 353h-384q4 -5 0 -9t-9 -4
q-6 0 -9.5 3.5t0.5 9.5h-160v12h562v-12zM380 247q0 -10 -10 -10t-10 10t10 10t10 -10zM511 114q0 -10 -10 -10t-10 10t10 10t10 -10zM290 306q0 -11 -10 -11t-10 11q0 10 10 10t10 -10zM369 203q0 -10 -10 -10t-10 10t10 10t10 -10zM483 86q0 -10 -10 -10t-10 10t10 10
t10 -10zM259 279q0 -10 -10 -10t-10 10t10 10t10 -10zM361 160q0 -10 -10 -10t-10 10t10 10t10 -10zM456 59q0 -10 -10 -10t-10 10t10 10t10 -10zM230 250q0 -10 -10 -10t-10 10t10 10t10 -10zM161 312q0 -10 -10 -10t-10 10t10 10t10 -10zM352 117q0 -10 -10 -10t-10 10
t10 10t10 -10zM424 34q0 -10 -10 -10t-10 10t10 10t10 -10zM153 274q0 -10 -10 -10t-10 10t10 10t10 -10zM203 219q0 -10 -10 -10t-10 10t10 10t10 -10zM347 76q0 -10 -10 -10t-10 10t10 10t10 -10zM355 35q0 -10 -10 -10t-10 10t10 10t10 -10zM145 237q0 -10 -10 -10
t-10 10t10 10t10 -10zM178 187q0 -10 -10 -10t-10 10t10 10t10 -10zM137 199q0 -10 -10 -10t-10 10t10 10t10 -10zM154 154q0 -10 -10 -10t-10 10t10 10t10 -10zM129 161q0 -10 -10 -10t-10 10t10 10t10 -10zM552 -1h-562v12h87q0 11 10 11q12 0 10 -11h273q-4 4 0 9t9 5
t9.5 -4.5t-0.5 -9.5h164v-12zM121 124q0 -10 -10 -10t-10 10t10 10t10 -10zM113 86q0 -10 -10 -10t-10 10t10 10t10 -10zM105 48q0 -10 -10 -10t-10 10t10 10t10 -10zM88 -32q0 -10 -10 -10t-10 10t10 10t10 -10zM79 -73q0 -10 -10 -10t-10 10t10 10t10 -10zM70 -115
q0 -10 -10 -10t-10 10t10 10t10 -10zM62 -157q0 -10 -10 -10t-10 10t10 10t10 -10zM53 -198q0 -10 -10 -10t-10 10t10 10t10 -10zM44 -240q0 -10 -10 -10t-10 10t10 10t10 -10zM35 -281q0 -10 -10 -10t-10 10t10 10t10 -10zM26 -323q0 -10 -10 -10t-10 10t10 10t10 -10z" />
    <glyph glyph-name="q" unicode="q" horiz-adv-x="429" 
d="M583 314q0 -10 -10 -10t-10 10t10 10t10 -10zM553 286q0 -10 -10 -10t-10 10t10 10t10 -10zM523 251q0 -10 -10 -10t-10 10t10 10t10 -10zM497 222q0 -10 -10 -10t-10 10t10 10t10 -10zM469 195q0 -10 -10 -10t-10 10t10 10t10 -10zM339 313q0 -10 -10 -10t-10 10t10 10
t10 -10zM303 305q0 -10 -10 -10t-10 10t10 10t10 -10zM442 168q0 -10 -10 -10t-10 10t10 10t10 -10zM331 275q0 -10 -10 -10t-10 10t10 10t10 -10zM272 332q0 -10 -10 -10t-10 10t10 10t10 -10zM429 353h-84q2 -3 0.5 -9.5t-8.5 -6.5q-13 0 -8 16h-339v12h439v-12zM231 340
q0 -10 -10 -10t-10 10t10 10t10 -10zM323 237q0 -10 -10 -10t-10 10t10 10t10 -10zM415 141q0 -10 -10 -10t-10 10t10 10t10 -10zM190 333q0 -10 -10 -10t-10 10t10 10t10 -10zM315 200q0 -10 -10 -10t-10 10t10 10t10 -10zM388 114q0 -10 -10 -10t-10 10t10 10t10 -10z
M153 314q0 -10 -10 -10t-10 10t10 10t10 -10zM307 162q0 -10 -10 -10t-10 10t10 10t10 -10zM359 85q0 -10 -10 -10t-10 10t10 10t10 -10zM299 124q0 -10 -10 -10t-10 10t10 10t10 -10zM123 286q0 -10 -10 -10t-10 10t10 10t10 -10zM275 125q0 -10 -10 -10t-10 10t10 10
t10 -10zM331 57q0 -10 -10 -10t-10 10t10 10t10 -10zM291 86q0 -10 -10 -10t-10 10t10 10t10 -10zM99 251q0 -10 -10 -10t-10 10t10 10t10 -10zM253 90q0 -10 -10 -10t-10 10t10 10t10 -10zM283 49q0 -10 -10 -10t-10 10t10 10t10 -10zM297 30q0 -10 -10 -10t-10 10t10 10
t10 -10zM82 213q0 -10 -10 -10t-10 10t10 10t10 -10zM227 58q0 -10 -10 -10t-10 10t10 10t10 -10zM72 173q0 -10 -10 -10q-11 0 -11 10t11 10q10 0 10 -10zM266 -31q0 -10 -10 -10t-10 10t10 10t10 -10zM429 -1h-439v12h147q-3 5 0 10.5t8 5.5q6 0 9 -5.5t-2 -10.5h102
q2 8 10 8t10 -8h155v-12zM194 31q0 -10 -10 -10t-10 10t10 10t10 -10zM68 131q0 -10 -10 -10q-11 0 -11 10t11 10q10 0 10 -10zM257 -73q0 -10 -10 -10t-10 10t10 10t10 -10zM71 89q0 -10 -10 -10t-10 10t10 10t10 -10zM248 -115q0 -10 -10 -10t-10 10t10 10t10 -10zM86 51
q0 -10 -10 -10t-10 10t10 10t10 -10zM115 22q0 -10 -10 -10t-10 10t10 10t10 -10zM240 -156q0 -10 -10 -10t-10 10t10 10t10 -10zM231 -198q0 -10 -10 -10t-10 10t10 10t10 -10zM222 -239q0 -10 -10 -10t-10 10t10 10t10 -10zM213 -281q0 -10 -10 -10t-10 10t10 10t10 -10z
M204 -322q0 -10 -10 -10t-10 10t10 10t10 -10z" />
    <glyph glyph-name="r" unicode="r" horiz-adv-x="329" 
d="M483 314q0 -10 -10 -10t-10 10t10 10t10 -10zM450 288q0 -10 -10 -10t-10 10t10 10t10 -10zM413 278q0 -10 -10 -10t-10 10t10 10t10 -10zM373 272q0 -10 -10 -10t-10 10t10 10t10 -10zM333 277q0 -10 -10 -10t-10 10t10 10t10 -10zM274 327q0 -10 -10 -10t-10 10t10 10
t10 -10zM302 300q0 -10 -10 -10t-10 10t10 10t10 -10zM237 311q0 -11 -10 -11t-10 11q0 10 10 10t10 -10zM329 353h-159l2 -6q0 -10 -10 -10t-10 10l2 6h-164v12h339v-12zM175 312q0 -10 -10 -10t-10 10t10 10t10 -10zM208 272q0 -10 -10 -10t-10 10t10 10t10 -10zM177 273
q0 -10 -10 -10t-10 10t10 10t10 -10zM176 234q0 -10 -10 -10t-10 10t10 10t10 -10zM169 196q0 -10 -10 -10t-10 10t10 10t10 -10zM159 158q0 -10 -10 -10t-10 10t10 10t10 -10zM148 121q0 -10 -10 -10t-10 10t10 10t10 -10zM137 83q0 -10 -10 -10t-10 10t10 10t10 -10z
M329 -1h-339v12h106q4 8 10 8q7 0 9 -8h214v-12zM126 46q0 -10 -10 -10t-10 10t10 10t10 -10z" />
    <glyph glyph-name="s" unicode="s" horiz-adv-x="328" 
d="M482 314q0 -10 -10 -10t-10 10t10 10t10 -10zM451 286q0 -10 -10 -10t-10 10t10 10t10 -10zM420 260q0 -10 -10 -10t-10 10t10 10t10 -10zM379 239q0 -10 -10 -10t-10 10t10 10t10 -10zM337 223q0 -10 -10 -10t-10 10t10 10t10 -10zM328 353h-338v12h338v-12zM181 338
q0 -10 -10 -10t-10 10t10 10t10 -10zM199 308q0 -10 -10 -10t-10 10t10 10t10 -10zM291 209q0 -10 -10 -10t-10 10t10 10t10 -10zM216 271q0 -10 -10 -10t-10 10t10 10t10 -10zM154 314q0 -10 -10 -10t-10 10t10 10t10 -10zM232 235q0 -10 -9 -10q-10 0 -10 10t10 10
q9 0 9 -10zM247 198q0 -10 -10 -10t-10 10t10 10t10 -10zM262 158q0 -10 -10 -10t-10 10t10 10t10 -10zM124 286q0 -10 -10 -10t-10 10t10 10t10 -10zM208 182q0 -10 -10 -10t-10 10t10 10t10 -10zM269 118q0 -10 -10 -10t-10 10t10 10t10 -10zM266 78q0 -10 -10 -10t-10 10
t10 10t10 -10zM175 159q0 -10 -10 -10t-10 10t10 10t10 -10zM249 41q0 -10 -10 -10t-10 10t10 10t10 -10zM149 128q0 -10 -10 -10t-10 10t10 10t10 -10zM139 90q0 -10 -10 -10t-10 10t10 10t10 -10zM148 49q0 -10 -10 -10t-10 10t10 10t10 -10zM328 -1h-338v12h172
q-6 4 -6 9q0 10 10 10t10 -10q0 -5 -6 -9h29l-3 7q0 10 10 10t10 -10l-3 -7h115v-12z" />
    <glyph glyph-name="t" unicode="t" horiz-adv-x="490" 
d="M418 690q0 -10 -10 -10t-10 10t10 10t10 -10zM410 652q0 -10 -10 -10q-7 3 -8 4q-9 0 -9 10t10 10q8 -3 8 -5q9 2 9 -9zM384 628q0 -10 -10 -10t-10 10t10 10t10 -10zM401 614q0 -10 -10 -10t-10 10t10 10t10 -10zM393 575q0 -10 -10 -10t-10 10t10 10t10 -10zM364 596
q0 -10 -10 -10t-10 10t10 10t10 -10zM644 314q0 -10 -10 -10t-10 10t10 10t10 -10zM385 537q0 -10 -10 -10t-10 10t10 10t10 -10zM344 565q0 -10 -10 -10t-10 10t10 10t10 -10zM614 286q0 -10 -10 -10t-10 10t10 10t10 -10zM377 499q0 -10 -10 -10t-10 10t10 10t10 -10z
M324 536q0 -10 -10 -10t-10 10t10 10t10 -10zM584 251q0 -10 -10 -10t-10 10t10 10t10 -10zM369 460q0 -10 -10 -10t-10 10t10 10t10 -10zM302 504q0 -10 -10 -10t-10 10t10 10t10 -10zM361 422q0 -10 -10 -10t-10 10t10 10t10 -10zM558 222q0 -10 -10 -10t-10 10t10 10
t10 -10zM279 471q0 -10 -10 -10t-10 10t10 10t10 -10zM352 383q0 -10 -10 -10t-10 10t10 10t10 -10zM530 195q0 -10 -10 -10t-10 10t10 10t10 -10zM258 439q0 -10 -10 -10t-10 10t10 10t10 -10zM504 167q0 -10 -10 -10t-10 10t10 10t10 -10zM233 407q0 -10 -10 -10t-10 10
t10 10t10 -10zM336 307q0 -10 -10 -10t-10 10t10 10t10 -10zM475 138q0 -10 -10 -10t-10 10t10 10t10 -10zM490 353h-149l3 -8q0 -10 -10 -10t-10 10l3 8h-337v12h500v-12zM328 268q0 -10 -10 -10t-10 10t10 10t10 -10zM209 376q0 -10 -10 -10t-10 10t10 10t10 -10zM446 112
q0 -10 -10 -10t-10 10t10 10t10 -10zM320 230q0 -10 -10 -10t-10 10t10 10t10 -10zM183 342q0 -10 -10 -10t-10 10t10 10t10 -10zM414 90q0 -10 -10 -10t-10 10t10 10t10 -10zM312 191q0 -10 -10 -10t-10 10t10 10t10 -10zM303 153q0 -10 -10 -10t-10 10t10 10t10 -10z
M374 74q0 -10 -10 -10t-10 10t10 10t10 -10zM295 115q0 -10 -10 -10t-10 10t10 10t10 -10zM331 71q0 -10 -10 -10t-10 10t10 10t10 -10zM288 79q0 -10 -10 -10t-10 10t10 10t10 -10zM245 92q0 -10 -10 -10t-10 10t10 10t10 -10zM280 42q0 -10 -10 -10t-10 10t10 10t10 -10z
M206 111q0 -10 -10 -10t-10 10t10 10t10 -10zM168 133q0 -10 -10 -10t-10 10t10 10t10 -10zM136 160q0 -10 -10 -10t-10 10t10 10t10 -10zM490 -1h-500v12h263q4 6 9 6t9 -6h219v-12z" />
    <glyph glyph-name="u" unicode="u" horiz-adv-x="572" 
d="M726 314q0 -10 -10 -10t-10 10t10 10t10 -10zM696 286q0 -10 -10 -10t-10 10t10 10t10 -10zM666 251q0 -10 -10 -10t-10 10t10 10t10 -10zM640 222q0 -10 -10 -10t-10 10t10 10t10 -10zM612 195q0 -10 -10 -10t-10 10t10 10t10 -10zM585 168q0 -10 -10 -10t-10 10t10 10
t10 -10zM410 311q0 -10 -10 -10t-10 10t10 10t10 -10zM558 141q0 -10 -10 -10t-10 10t10 10t10 -10zM402 272q0 -10 -10 -10q-11 0 -11 10t11 10q10 0 10 -10zM572 353h-157q3 -5 0 -10t-8 -5q-15 0 -8 15h-232q3 -5 0 -10t-8 -5q-14 0 -9 15h-160v12h582v-12zM531 114
q0 -10 -10 -10t-10 10t10 10t10 -10zM394 233q0 -10 -10 -10t-10 10t10 10t10 -10zM503 86q0 -10 -10 -10t-10 10t10 10t10 -10zM386 194q0 -10 -10 -10t-10 10t10 10t10 -10zM476 59q0 -10 -10 -10t-10 10t10 10t10 -10zM377 156q0 -10 -10 -10t-10 10t10 10t10 -10z
M371 115q0 -10 -10 -10t-10 10t10 10t10 -10zM444 34q0 -10 -10 -10t-10 10t10 10t10 -10zM349 126q0 -10 -10 -10t-10 10t10 10t10 -10zM162 312q0 -10 -10 -10t-10 10t10 10t10 -10zM367 75q0 -10 -10 -10t-10 10t10 10t10 -10zM154 273q0 -10 -10 -10t-10 10t10 10
t10 -10zM325 96q0 -10 -10 -10t-10 10t10 10t10 -10zM375 35q0 -10 -10 -10t-10 10t10 10t10 -10zM147 235q0 -10 -10 -10q-11 0 -11 10t11 10q10 0 10 -10zM299 67q0 -10 -10 -10t-10 10t10 10t10 -10zM139 197q0 -10 -10 -10t-10 10t10 10t10 -10zM268 42q0 -10 -10 -10
t-10 10t10 10t10 -10zM572 -1h-582v12h150q-3 5 0 10.5t8 5.5t9 -3.5t-1 -12.5h20q-3 12 10 12q14 0 9 -12h195q-4 4 0 9t9 5t9.5 -4.5t-0.5 -9.5h164v-12zM131 158q0 -10 -10 -10t-10 10t10 10t10 -10zM234 24q0 -10 -10 -10t-10 10t10 10t10 -10zM125 120q0 -10 -10 -10
t-10 10t10 10t10 -10zM122 81q0 -10 -10 -10t-10 10t10 10t10 -10zM129 43q0 -10 -10 -10t-10 10t10 10t10 -10z" />
    <glyph glyph-name="v" unicode="v" horiz-adv-x="438" 
d="M592 314q0 -10 -10 -10t-10 10t10 10t10 -10zM559 288q0 -10 -10 -10t-10 10t10 10t10 -10zM522 278q0 -10 -10 -10t-10 10t10 10t10 -10zM483 272q0 -10 -10 -10t-10 10t10 10t10 -10zM444 276q0 -10 -10 -10t-10 10t10 10t10 -10zM405 288q0 -10 -10 -10t-10 10t10 10
t10 -10zM381 312q0 -10 -10 -10t-10 10t10 10t10 -10zM377 269q0 -10 -10 -10t-10 10t10 10t10 -10zM366 230q0 -10 -10 -10t-10 10t10 10t10 -10zM438 353h-57q0 -11 -10 -11t-10 11h-199q3 -5 0 -9.5t-8 -4.5t-8 4.5t0 9.5h-156v12h448v-12zM355 191q0 -10 -10 -10t-10 10
t10 10t10 -10zM344 153q0 -10 -10 -10t-10 10t10 10t10 -10zM154 311q0 -11 -10 -11t-10 11q0 10 10 10t10 -10zM328 115q0 -10 -10 -10t-10 10t10 10t10 -10zM143 270q0 -10 -10 -10t-10 10t10 10t10 -10zM307 81q0 -10 -10 -10t-10 10t10 10t10 -10zM133 230
q0 -10 -10 -10t-10 10t10 10t10 -10zM280 51q0 -10 -10 -10t-10 10t10 10t10 -10zM126 190q0 -10 -10 -10t-10 10t10 10t10 -10zM248 26q0 -10 -10 -10t-10 10t10 10t10 -10zM120 150q0 -10 -10 -10t-10 10t10 10t10 -10zM438 -1h-448v12h159q-1 4 2.5 7.5t7.5 3.5
q10 0 10 -11h21q0 11 10 11q4 0 7.5 -3.5t2.5 -7.5h228v-12zM118 110q0 -10 -10 -10t-10 10t10 10t10 -10zM120 70q0 -10 -10 -10t-10 10t10 10t10 -10zM135 32q0 -10 -10 -10t-10 10t10 10t10 -10z" />
    <glyph glyph-name="w" unicode="w" horiz-adv-x="600" 
d="M754 314q0 -10 -10 -10t-10 10t10 10t10 -10zM721 288q0 -10 -10 -10t-10 10t10 10t10 -10zM684 278q0 -10 -10 -10t-10 10t10 10t10 -10zM645 272q0 -10 -10 -10t-10 10t10 10t10 -10zM606 276q0 -10 -10 -10t-10 10t10 10t10 -10zM543 312q0 -10 -10 -10t-10 10t10 10
t10 -10zM567 288q0 -10 -10 -10t-10 10t10 10t10 -10zM541 271q0 -10 -10 -10t-10 10t10 10t10 -10zM531 234q0 -10 -10 -10t-10 10t10 10t10 -10zM520 196q0 -10 -10 -10t-10 10t10 10t10 -10zM361 312q0 -10 -10 -10t-10 10t10 10t10 -10zM509 159q0 -10 -10 -10t-10 10
t10 10t10 -10zM600 353h-57q2 -11 -10 -11q-10 0 -10 11h-155q3 -7 0 -10t-9 -3q-13 0 -10 13h-187q3 -5 0 -10t-8 -5q-12 0 -9 15h-155v12h610v-12zM352 274q0 -10 -10 -10t-10 10t10 10t10 -10zM496 121q0 -10 -10 -10t-10 10t10 10t10 -10zM344 235q0 -10 -10 -10t-10 10
t10 10t10 -10zM480 85q0 -10 -10 -10t-10 10t10 10t10 -10zM336 197q0 -10 -10 -10t-10 10t10 10t10 -10zM458 53q0 -11 -10 -11t-10 11q0 10 10 10t10 -10zM328 158q0 -10 -10 -10t-10 10t10 10t10 -10zM154 311q0 -11 -10 -11t-10 11q0 10 10 10t10 -10zM429 27
q0 -10 -10 -10t-10 10t10 10t10 -10zM321 120q0 -10 -10 -10t-10 10t10 10t10 -10zM143 270q0 -10 -10 -10t-10 10t10 10t10 -10zM320 80q0 -10 -10 -10t-10 10t10 10t10 -10zM297 87q0 -10 -10 -10t-10 10t10 10t10 -10zM328 42q0 -10 -10 -10t-10 10t10 10t10 -10z
M133 230q0 -10 -10 -10t-10 10t10 10t10 -10zM270 57q0 -10 -10 -10t-10 10t10 10t10 -10zM126 190q0 -10 -10 -10t-10 10t10 10t10 -10zM600 -1h-610v12h154q-3 12 10 12q15 0 10 -12h19q-2 5 1.5 9t8.5 4q14 0 9 -13h133q-2 3 0 8t9 5q5 0 9 -4t0 -9h20q0 12 10 12
q6 0 10 -3.5t-1 -8.5h208v-12zM120 150q0 -10 -10 -10t-10 10t10 10t10 -10zM239 31q0 -10 -10 -10t-10 10t10 10t10 -10zM118 110q0 -10 -10 -10t-10 10t10 10t10 -10zM120 71q0 -10 -10 -10t-10 10t10 10t10 -10zM133 36q0 -10 -10 -10t-10 10t10 10t10 -10z" />
    <glyph glyph-name="x" unicode="x" horiz-adv-x="438" 
d="M592 314q0 -10 -10 -10t-10 10t10 10t10 -10zM559 288q0 -10 -10 -10t-10 10t10 10t10 -10zM522 278q0 -10 -10 -10t-10 10t10 10t10 -10zM482 272q0 -10 -10 -10t-10 10t10 10t10 -10zM413 304q0 -10 -10 -10t-10 10t10 10t10 -10zM442 278q0 -10 -10 -10t-10 10t10 10
t10 -10zM380 321q0 -10 -10 -10t-10 10t10 10t10 -10zM354 294q0 -10 -10 -10t-10 10t10 10t10 -10zM327 266q0 -10 -10 -10t-10 10t10 10t10 -10zM438 353h-33q3 -5 0 -10t-8 -5q-14 0 -9 15h-232q3 -6 0 -9.5t-9 -3.5q-10 0 -10 13h-147v12h448v-12zM300 239
q0 -10 -10 -10t-10 10t10 10t10 -10zM175 317q0 -10 -10 -10t-10 10t10 10t10 -10zM273 212q0 -10 -10 -10t-10 10t10 10t10 -10zM192 283q0 -10 -10 -10t-10 10t10 10t10 -10zM210 250q0 -10 -10 -10t-10 10t10 10t10 -10zM228 217q0 -10 -10 -10t-10 10t10 10t10 -10z
M246 184q0 -10 -10 -10t-10 10t10 10t10 -10zM265 149q0 -10 -10 -10t-10 10t10 10t10 -10zM284 113q0 -10 -10 -10t-10 10t10 10t10 -10zM303 78q0 -10 -10 -10t-10 10t10 10t10 -10zM217 155q0 -10 -10 -10t-10 10t10 10t10 -10zM322 42q0 -10 -10 -10t-10 10t10 10
t10 -10zM188 126q0 -10 -10 -10t-10 10t10 10t10 -10zM159 96q0 -10 -10 -10t-10 10t10 10t10 -10zM438 -1h-448v12h62q5 7 9 7t9 -7h252q5 7 9 7t9 -7h98v-12zM129 67q0 -10 -10 -10t-10 10t10 10t10 -10zM100 37q0 -10 -10 -10t-10 10t10 10t10 -10z" />
    <glyph glyph-name="y" unicode="y" horiz-adv-x="565" 
d="M719 314q0 -10 -10 -10t-10 10t10 10t10 -10zM689 286q0 -10 -10 -10t-10 10t10 10t10 -10zM659 251q0 -10 -10 -10t-10 10t10 10t10 -10zM633 222q0 -10 -10 -10t-10 10t10 10t10 -10zM605 195q0 -10 -10 -10t-10 10t10 10t10 -10zM578 168q0 -10 -10 -10t-10 10t10 10
t10 -10zM408 312q0 -10 -10 -10t-10 10t10 10t10 -10zM551 141q0 -10 -10 -10t-10 10t10 10t10 -10zM399 272q0 -10 -10 -10t-10 10t10 10t10 -10zM565 353h-149q0 -11 -10 -11t-10 11h-229q2 -5 -1 -9t-8 -4q-12 0 -10 13h-158v12h575v-12zM524 114q0 -10 -10 -10t-10 10
t10 10t10 -10zM391 232q0 -10 -10 -10t-10 10t10 10t10 -10zM495 85q0 -10 -10 -10t-10 10t10 10t10 -10zM383 192q0 -10 -10 -10t-10 10t10 10t10 -10zM374 152q0 -10 -10 -10t-10 10t10 10t10 -10zM467 57q0 -10 -10 -10t-10 10t10 10t10 -10zM348 126q0 -10 -10 -10
t-10 10t10 10t10 -10zM366 112q0 -10 -10 -10t-10 10t10 10t10 -10zM161 312q0 -10 -10 -10t-10 10t10 10t10 -10zM433 30q0 -10 -10 -10t-10 10t10 10t10 -10zM153 274q0 -10 -10 -10t-10 10t10 10t10 -10zM357 72q0 -10 -10 -10t-10 10t10 10t10 -10zM324 96
q0 -10 -10 -10t-10 10t10 10t10 -10zM146 236q0 -10 -10 -10t-10 10t10 10t10 -10zM349 32q0 -10 -10 -10t-10 10t10 10t10 -10zM298 67q0 -10 -10 -10t-10 10t10 10t10 -10zM369 -23q0 -10 -10 -10t-10 10t10 10t10 -10zM138 197q0 -10 -10 -10t-10 10t10 10t10 -10z
M268 43q0 -10 -10 -10q-11 0 -11 10t11 10q10 0 10 -10zM131 159q0 -10 -10 -10t-10 10t10 10t10 -10zM565 -1h-165q-5 -7 -9 -7t-9 7h-45l3 -7q0 -10 -10 -10t-10 10l3 7h-333v12h150q-4 5 -1.5 11t8.5 6q10 0 10 -10q0 -4 -4 -7h23q-3 5 0 9t9 4q5 0 8 -4t1 -9h371v-12z
M332 -51q0 -10 -10 -10t-10 10t10 10t10 -10zM233 24q0 -10 -10 -10t-10 10t10 10t10 -10zM124 120q0 -10 -10 -10t-10 10t10 10t10 -10zM324 -88q0 -10 -10 -10t-10 10t10 10t10 -10zM299 -78q0 -10 -10 -10t-10 10t10 10t10 -10zM121 81q0 -10 -10 -10t-10 10t10 10
t10 -10zM315 -128q0 -10 -10 -10t-10 10t10 10t10 -10zM129 43q0 -10 -10 -10t-10 10t10 10t10 -10zM266 -103q0 -10 -10 -10t-10 10q0 11 10 11t10 -11zM307 -168q0 -10 -10 -10t-10 10t10 10t10 -10zM233 -127q0 -10 -10 -10t-10 10t10 10t10 -10zM298 -208q0 -10 -10 -10
t-10 10t10 10t10 -10zM202 -154q0 -10 -10 -10t-10 10t10 10t10 -10zM287 -247q0 -10 -10 -10t-10 10t10 10t10 -10zM174 -184q0 -10 -10 -10t-10 10t10 10t10 -10zM268 -282q0 -10 -10 -10q-11 0 -11 10t11 10q10 0 10 -10zM153 -219q0 -10 -10 -10t-10 10t10 10t10 -10z
M235 -307q0 -10 -10 -10t-10 10t10 10t10 -10zM144 -258q0 -10 -10 -10t-10 10t10 10t10 -10zM195 -313q0 -10 -10 -10t-10 10t10 10t10 -10zM158 -295q0 -10 -10 -10t-10 10t10 10t10 -10z" />
    <glyph glyph-name="z" unicode="z" horiz-adv-x="395" 
d="M549 314q0 -10 -10 -10t-10 10t10 10t10 -10zM519 286q0 -10 -10 -10t-10 10t10 10t10 -10zM489 251q0 -10 -10 -10t-10 10t10 10t10 -10zM463 222q0 -10 -10 -10t-10 10t10 10t10 -10zM434 194q0 -10 -10 -10t-10 10t10 10t10 -10zM264 329q0 -10 -10 -10t-10 10t10 10
t10 -10zM286 297q0 -10 -10 -10t-10 10t10 10t10 -10zM228 342q0 -10 -10 -10t-10 10t10 10t10 -10zM407 166q0 -10 -10 -10t-10 10t10 10t10 -10zM395 353h-405v12h405v-12zM290 257q0 -10 -10 -10t-10 10t10 10t10 -10zM188 337q0 -10 -10 -10t-10 10t10 10t10 -10z
M380 138q0 -10 -10 -10t-10 10t10 10t10 -10zM280 219q0 -10 -10 -10t-10 10t10 10t10 -10zM154 314q0 -10 -10 -10t-10 10t10 10t10 -10zM351 110q0 -10 -10 -10t-10 10t10 10t10 -10zM259 185q0 -10 -10 -10t-10 10t10 10t10 -10zM124 286q0 -10 -10 -10t-10 10t10 10
t10 -10zM320 80q0 -10 -10 -10t-10 10t10 10t10 -10zM235 156q0 -10 -10 -10t-10 10t10 10t10 -10zM289 49q0 -10 -10 -10t-10 10t10 10t10 -10zM207 130q0 -11 -10 -11t-10 11q0 10 10 10t10 -10zM176 107q0 -10 -10 -10t-10 10t10 10t10 -10zM260 22q0 -10 -10 -10t-10 10
t10 10t10 -10zM183 55q0 -10 -10 -10t-10 10t10 10t10 -10zM211 28q0 -10 -10 -10t-10 10t10 10t10 -10zM143 88q0 -10 -10 -10t-10 10t10 10t10 -10zM148 66q0 -10 -10 -10t-10 10t10 10t10 -10zM395 -1h-169q3 -4 0 -9.5t-8 -5.5q-14 0 -9 15h-219v12h405v-12zM230 -48
q0 -10 -10 -10t-10 10t10 10t10 -10zM110 69q0 -10 -10 -10t-10 10t10 10t10 -10zM196 -33q0 -10 -10 -10t-10 10t10 10t10 -10zM227 -89q0 -10 -10 -10t-10 10t10 10t10 -10zM165 -61q0 -10 -10 -10t-10 10t10 10t10 -10zM220 -130q0 -10 -10 -10t-10 10t10 10t10 -10z
M135 -89q0 -10 -10 -10t-10 10t10 10t10 -10zM210 -169q0 -10 -10 -10t-10 10t10 10t10 -10zM104 -116q0 -10 -10 -10t-10 10t10 10t10 -10zM196 -207q0 -10 -10 -10t-10 10t10 10t10 -10zM179 -244q0 -10 -10 -10t-10 10t10 10t10 -10zM75 -143q0 -10 -10 -10t-10 10t10 10
t10 -10zM156 -276q0 -10 -10 -10t-10 10t10 10t10 -10zM50 -174q0 -10 -10 -10t-10 10t10 10t10 -10zM29 -208q0 -10 -10 -10t-10 10t10 10t10 -10zM126 -302q0 -10 -10 -10t-10 10t10 10t10 -10zM17 -246q0 -10 -10 -10t-10 10t10 10t10 -10zM89 -318q0 -10 -10 -10t-10 10
t10 10t10 -10zM24 -285q0 -10 -10 -10t-10 10t10 10t10 -10zM51 -312q0 -10 -10 -10t-10 10t10 10t10 -10z" />
    <glyph glyph-name="braceleft" unicode="{" horiz-adv-x="62" 
d="M161 259q0 -10 -10 -10t-10 10t10 10t10 -10zM62 353h-72v12h72v-12zM134 232q0 -10 -10 -10t-10 10t10 10t10 -10zM106 204q0 -10 -10 -10t-10 10t10 10t10 -10zM79 177q0 -10 -10 -10t-10 10t10 10t10 -10zM52 150q0 -10 -10 -10t-10 10t10 10t10 -10zM25 123
q0 -10 -10 -10t-10 10t10 10t10 -10zM-2 96q0 -10 -10 -10t-10 10t10 10t10 -10zM-29 69q0 -10 -10 -10t-10 10t10 10t10 -10zM62 -1h-72v12h72v-12zM-55 41q0 -10 -10 -10t-10 10t10 10t10 -10z" />
    <glyph glyph-name="c129" horiz-adv-x="650" 
 />
    <glyph glyph-name="c141" horiz-adv-x="380" 
d="M502 645q0 -10 -10 -10t-10 10t10 10t10 -10zM530 617q0 -10 -10 -10t-10 10t10 10t10 -10zM539 579q0 -10 -10 -10t-10 10t10 10t10 -10zM462 647q0 -10 -10 -10t-10 10t10 10t10 -10zM537 539q0 -10 -10 -10t-10 10t10 10t10 -10zM426 631q0 -10 -10 -10t-10 10t10 10
t10 -10zM530 499q0 -10 -10 -10t-10 10t10 10t10 -10zM394 608q0 -10 -10 -10t-10 10t10 10t10 -10zM520 461q0 -10 -10 -10t-10 10t10 10t10 -10zM367 580q0 -10 -10 -10t-10 10t10 10t10 -10zM507 424q0 -10 -10 -10t-10 10t10 10t10 -10zM343 550q0 -10 -10 -10t-10 10
t10 10t10 -10zM492 387q0 -10 -10 -10t-10 10t10 10t10 -10zM320 517q0 -10 -10 -10t-10 10t10 10t10 -10zM477 350q0 -10 -10 -10t-10 10t10 10t10 -10zM300 483q0 -10 -10 -10t-10 10t10 10t10 -10zM458 315q0 -10 -10 -10t-10 10t10 10t10 -10zM282 447q0 -10 -10 -10
t-10 10t10 10t10 -10zM440 281q0 -10 -10 -10t-10 10t10 10t10 -10zM265 411q0 -10 -10 -10t-10 10t10 10t10 -10zM420 247q0 -10 -10 -10t-10 10t10 10t10 -10zM398 215q0 -10 -10 -10t-10 10t10 10t10 -10zM237 337q0 -10 -10 -10t-10 10t10 10t10 -10zM380 353h-390v12
h244q-2 4 -3 5t-1 3q0 10 10 10t10 -10q-3 -7 -5 -8h135v-12zM375 184q0 -10 -10 -10t-10 10t10 10t10 -10zM225 298q0 -10 -10 -10t-10 10t10 10t10 -10zM350 154q0 -10 -10 -10t-10 10t10 10t10 -10zM217 258q0 -10 -10 -10t-10 10t10 10t10 -10zM322 127q0 -10 -10 -10
t-10 10t10 10t10 -10zM211 218q0 -10 -10 -10t-10 10t10 10t10 -10zM412 18q0 -10 -10 -10t-10 10t10 10t10 -10zM209 178q0 -10 -10 -10t-10 10t10 10t10 -10zM292 101q0 -10 -10 -10t-10 10t10 10t10 -10zM335 22q0 -10 -10 -10t-10 10t10 10t10 -10zM211 139
q0 -10 -10 -10t-10 10t10 10t10 -10zM259 79q0 -10 -10 -10t-10 10t10 10t10 -10zM296 28q0 -10 -10 -10t-10 10t10 10t10 -10zM220 101q0 -10 -10 -10t-10 10t10 10t10 -10zM260 46q0 -10 -10 -10t-10 10t10 10t10 -10zM224 63q0 -10 -10 -10t-10 10t10 10t10 -10zM187 50
q0 -10 -10 -10t-10 10t10 10t10 -10zM380 -1h-390v12h25l-3 7q0 10 10 10t10 -10q-2 -6 -4 -7h330l-3 7q0 10 10 10t10 -10l-3 -7h8v-12zM149 38q0 -10 -10 -10t-10 10t10 10t10 -10zM111 29q0 -10 -10 -10t-10 10t10 10t10 -10zM72 22q0 -10 -10 -10t-10 10t10 10t10 -10z
" />
    <glyph glyph-name="c142" horiz-adv-x="340" 
d="M532 670q0 -10 -10 -10t-10 10t10 10t10 -10zM514 651q0 -10 -10 -10t-10 10t10 10t10 -10zM524 628q0 -10 -10 -10t-10 10t10 10t10 -10zM490 618q0 -10 -10 -10t-10 10t10 10t10 -10zM515 586q0 -10 -10 -10t-10 10t10 10t10 -10zM465 584q0 -10 -10 -10t-10 10t10 10
t10 -10zM507 544q0 -10 -10 -10t-10 10q0 11 10 11t10 -11zM498 503q0 -10 -10 -10t-10 10t10 10t10 -10zM440 549q0 -10 -10 -10t-10 10t10 10t10 -10zM490 461q0 -10 -10 -10t-10 10t10 10t10 -10zM415 515q0 -10 -10 -10t-10 10t10 10t10 -10zM481 419q0 -10 -10 -10
t-10 10t10 10t10 -10zM390 481q0 -10 -10 -10t-10 10t10 10t10 -10zM473 378q0 -10 -10 -10t-10 10t10 10t10 -10zM365 446q0 -10 -10 -10t-10 10t10 10t10 -10zM464 336q0 -10 -10 -10t-10 10t10 10t10 -10zM341 412q0 -10 -10 -10t-10 10t10 10t10 -10zM456 294
q0 -10 -10 -10t-10 10t10 10t10 -10zM447 253q0 -10 -10 -10t-10 10t10 10t10 -10zM316 378q0 -10 -10 -10t-10 10t10 10t10 -10zM439 211q0 -10 -10 -10t-10 10t10 10t10 -10zM430 169q0 -10 -10 -10t-10 10t10 10t10 -10zM266 310q0 -11 -10 -11t-10 11q0 10 10 10t10 -10
zM422 128q0 -10 -10 -10t-10 10t10 10t10 -10zM340 353h-53l4 -9q0 -10 -10 -10t-10 10l4 9h-285v12h350v-12zM241 275q0 -10 -10 -10t-10 10t10 10t10 -10zM413 86q0 -10 -10 -10t-10 10t10 10t10 -10zM220 244q0 -10 -10 -10t-10 10t10 10t10 -10zM404 44q0 -10 -10 -10
t-10 10t10 10t10 -10zM195 210q0 -10 -10 -10t-10 10t10 10t10 -10zM395 7q0 -10 -10 -10t-10 10t10 10t10 -10zM170 175q0 -10 -10 -10t-10 10t10 10t10 -10zM146 141q0 -10 -10 -10t-10 10t10 10t10 -10zM121 107q0 -10 -10 -10t-10 10t10 10t10 -10zM340 -1h-350v12h38
q4 7 10 7q7 0 9 -7h293v-12zM96 74q0 -10 -10 -10t-10 10t10 10t10 -10zM72 41q0 -11 -10 -11t-10 11q0 10 10 10t10 -10z" />
    <glyph glyph-name="c143" horiz-adv-x="776" 
d="M504 640q0 -10 -10 -10t-10 10t10 10t10 -10zM529 611q0 -10 -10 -10t-10 10t10 10t10 -10zM468 657q0 -10 -10 -10t-10 10t10 10t10 -10zM544 575q0 -10 -10 -10t-10 10t10 10t10 -10zM429 665q0 -10 -10 -10t-10 10t10 10t10 -10zM551 536q0 -10 -10 -10t-10 10t10 10
t10 -10zM389 663q0 -10 -10 -10t-10 10t10 10t10 -10zM552 496q0 -10 -10 -10t-10 10t10 10t10 -10zM550 456q0 -10 -10 -10t-10 10t10 10t10 -10zM352 651q0 -10 -10 -10t-10 10t10 10t10 -10zM817 168q0 -10 -10 -10t-10 10t10 10t10 -10zM545 416q0 -10 -10 -10t-10 10
t10 10t10 -10zM319 631q0 -10 -10 -10t-10 10t10 10t10 -10zM798 132q0 -10 -10 -10t-10 10t10 10t10 -10zM539 376q0 -10 -10 -10t-10 10t10 10t10 -10zM288 608q0 -10 -10 -10t-10 10t10 10t10 -10zM772 99q0 -10 -10 -10t-10 10t10 10t10 -10zM530 337q0 -10 -10 -10
t-10 10t10 10t10 -10zM259 583q0 -10 -10 -10t-10 10t10 10t10 -10zM523 297q0 -10 -10 -10t-10 10t10 10t10 -10zM740 73q0 -10 -10 -10t-10 10t10 10t10 -10zM233 555q0 -10 -10 -10t-10 10t10 10t10 -10zM517 257q0 -10 -10 -10t-10 10t10 10t10 -10zM704 55
q0 -10 -10 -10t-10 10t10 10t10 -10zM776 353h-667q-1 -3 -4 -4t-4 -1q-8 3 -8 5h-103v12h104l7 3l6 -3h669v-12zM209 525q0 -10 -10 -10t-10 10t10 10t10 -10zM514 217q0 -10 -10 -10t-10 10t10 10t10 -10zM665 43q0 -10 -10 -10t-10 10t10 10t10 -10zM514 177
q0 -10 -10 -10t-10 10t10 10t10 -10zM187 493q0 -10 -10 -10t-10 10t10 10t10 -10zM625 40q0 -10 -10 -10t-10 10t10 10t10 -10zM518 137q0 -10 -10 -10t-10 10t10 10t10 -10zM531 99q0 -10 -10 -10t-10 10t10 10t10 -10zM585 46q0 -10 -10 -10t-10 10t10 10t10 -10z
M166 461q0 -10 -10 -10t-10 10t10 10t10 -10zM553 67q0 -10 -10 -10t-10 10t10 10t10 -10zM146 428q0 -10 -10 -10t-10 10t10 10t10 -10zM128 394q0 -10 -10 -10t-10 10t10 10t10 -10zM96 322q0 -10 -10 -10t-10 10t10 10t10 -10zM776 -1h-786v12h786v-12zM80 284
q0 -10 -10 -10t-10 10t10 10t10 -10zM64 245q0 -10 -10 -10t-10 10t10 10t10 -10zM53 206q0 -10 -10 -10t-10 10t10 10t10 -10z" />
    <glyph glyph-name="c157" horiz-adv-x="300" 
d="M318 333q0 -10 -10 -10t-10 10t10 10t10 -10zM340 303q0 -10 -10 -10t-10 10t10 10t10 -10zM280 338q0 -10 -10 -10t-10 10t10 10t10 -10zM345 264q0 -10 -10 -10t-10 10t10 10t10 -10zM245 320q0 -10 -10 -10t-10 10t10 10t10 -10zM336 226q0 -10 -10 -10t-10 10t10 10
t10 -10zM300 353h-310v12h310v-12zM217 293q0 -10 -10 -10t-10 10t10 10t10 -10zM320 191q0 -10 -10 -10t-10 10t10 10t10 -10zM300 158q0 -10 -10 -10t-10 10t10 10t10 -10zM194 260q0 -10 -10 -10t-10 10t10 10t10 -10zM275 129q0 -10 -10 -10t-10 10t10 10t10 -10z
M180 221q0 -10 -10 -10t-10 10t10 10t10 -10zM172 181q0 -10 -10 -10t-10 10t10 10t10 -10zM248 102q0 -10 -10 -10t-10 10t10 10t10 -10zM332 18q0 -10 -10 -10t-10 10t10 10t10 -10zM171 140q0 -10 -10 -10t-10 10t10 10t10 -10zM217 79q0 -10 -10 -10t-10 10t10 10
t10 -10zM254 28q0 -10 -10 -10t-10 10t10 10t10 -10zM182 100q0 -10 -10 -10t-10 10t10 10t10 -10zM220 47q0 -10 -10 -10t-10 10t10 10t10 -10zM182 60q0 -10 -10 -10t-10 10t10 10t10 -10zM148 43q0 -10 -10 -10t-10 10t10 10t10 -10zM300 -1h-310v12h25l-3 7q0 10 10 10
t10 -10q-2 -6 -4 -7h30q-6 4 -6 9q0 10 10 10t10 -10q0 -5 -6 -9h211q-2 4 -3 5t-1 3q0 10 10 10t10 -10q-3 -7 -5 -8h12v-12zM111 30q0 -10 -10 -10t-10 10t10 10t10 -10z" />
    <glyph glyph-name="c158" horiz-adv-x="199" 
d="M314 347q0 -10 -10 -10t-10 10t10 10t10 -10zM296 328q0 -10 -10 -10t-10 10t10 10t10 -10zM306 305q0 -10 -10 -10t-10 10t10 10t10 -10zM272 295q0 -10 -10 -10t-10 10t10 10t10 -10zM297 263q0 -10 -10 -10t-10 10t10 10t10 -10zM289 221q0 -10 -10 -10t-10 10
q0 11 10 11t10 -11zM247 261q0 -10 -10 -10t-10 10t10 10t10 -10zM199 353h-209v12h209v-12zM280 180q0 -10 -10 -10t-10 10t10 10t10 -10zM222 226q0 -10 -10 -10t-10 10t10 10t10 -10zM272 138q0 -10 -10 -10t-10 10t10 10t10 -10zM197 192q0 -10 -10 -10t-10 10t10 10
t10 -10zM263 96q0 -10 -10 -10t-10 10t10 10t10 -10zM172 158q0 -10 -10 -10t-10 10t10 10t10 -10zM255 55q0 -10 -10 -10t-10 10t10 10t10 -10zM147 123q0 -10 -10 -10t-10 10t10 10t10 -10zM246 13q0 -10 -10 -10t-10 10t10 10t10 -10zM123 89q0 -10 -10 -10t-10 10t10 10
t10 -10zM98 55q0 -10 -10 -10t-10 10t10 10t10 -10zM199 -1h-209v12h209v-12zM73 22q0 -10 -10 -10t-10 10t10 10t10 -10z" />
    <glyph glyph-name="exclamdown" unicode="&#xa1;" horiz-adv-x="380" 
d="M578 639q0 -10 -10 -10t-10 10t10 10t10 -10zM538 636q0 -10 -10 -10t-10 10t10 10t10 -10zM499 628q0 -10 -10 -10t-10 10t10 10t10 -10zM461 619q0 -10 -10 -10t-10 10t10 10t10 -10zM423 607q0 -10 -10 -10t-10 10t10 10t10 -10zM386 594q0 -10 -10 -10t-10 10t10 10
t10 -10zM350 611q0 -10 -10 -10t-10 10t10 10t10 -10zM314 629q0 -10 -10 -10t-10 10t10 10t10 -10zM390 556q0 -10 -10 -10t-10 10t10 10t10 -10zM351 578q0 -10 -10 -10t-10 10t10 10t10 -10zM399 518q0 -10 -10 -10t-10 10t10 10t10 -10zM275 636q0 -10 -10 -10t-10 10
t10 10t10 -10zM401 479q0 -10 -10 -10t-10 10t10 10t10 -10zM235 639q0 -10 -10 -10t-10 10t10 10t10 -10zM318 556q0 -10 -10 -10t-10 10t10 10t10 -10zM198 639q0 -10 -10 -10t-10 10t10 10t10 -10zM399 439q0 -10 -10 -10t-10 10t10 10t10 -10zM288 530q0 -10 -10 -10
t-10 10t10 10t10 -10zM260 503q0 -10 -10 -10t-10 10t10 10t10 -10zM235 473q0 -10 -10 -10t-10 10t10 10t10 -10zM212 442q0 -10 -10 -10t-10 10t10 10t10 -10zM359 283q0 -10 -10 -10t-10 10t10 10t10 -10zM190 410q0 -10 -10 -10t-10 10t10 10t10 -10zM345 246
q0 -10 -10 -10t-10 10t10 10t10 -10zM170 376q0 -10 -10 -10t-10 10t10 10t10 -10zM328 210q0 -10 -10 -10t-10 10t10 10t10 -10zM152 342q0 -10 -10 -10t-10 10t10 10t10 -10zM310 174q0 -10 -10 -10t-10 10t10 10t10 -10zM133 307q0 -10 -10 -10t-10 10t10 10t10 -10z
M290 140q0 -10 -10 -10t-10 10t10 10t10 -10zM118 270q0 -10 -10 -10t-10 10t10 10t10 -10zM267 107q0 -10 -10 -10t-10 10t10 10t10 -10zM103 233q0 -10 -10 -10t-10 10t10 10t10 -10zM243 77q0 -10 -10 -10t-10 10t10 10t10 -10zM90 196q0 -10 -10 -10t-10 10t10 10
t10 -10zM216 49q0 -10 -10 -10t-10 10t10 10t10 -10zM80 158q0 -10 -10 -10t-10 10t10 10t10 -10zM73 118q0 -10 -10 -10t-10 10t10 10t10 -10zM71 78q0 -10 -10 -10t-10 10t10 10t10 -10zM80 40q0 -10 -10 -10t-10 10t10 10t10 -10zM373 320q0 -10 -10 -10t-10 10t10 10
t10 -10zM367 365q2 2 3.5 2.5l4.5 1.5q10 0 10 -10t-10 -10q-7 3 -8 4h-377v12h377zM393 399q0 -10 -10 -10t-10 10t10 10t10 -10zM128 11q2 9 10 9t10 -9h232v-12h-390v12h98q-1 11 10 11t10 -11h20zM184 26q0 -10 -10 -10t-10 10t10 10t10 -10z" />
    <glyph glyph-name="cent" unicode="&#xa2;" horiz-adv-x="300" 
d="M397 330q0 -10 -10 -10t-10 10t10 10t10 -10zM357 327q0 -10 -10 -10t-10 10t10 10t10 -10zM318 318q0 -10 -10 -10t-10 10t10 10t10 -10zM281 305q0 -10 -10 -10t-10 10t10 10t10 -10zM247 288q0 -10 -10 -10t-10 10t10 10t10 -10zM209 301q0 -10 -10 -10t-10 10t10 10
t10 -10zM175 320q0 -10 -10 -10t-10 10t10 10t10 -10zM247 248q0 -10 -10 -10t-10 10t10 10t10 -10zM212 269q0 -10 -10 -10t-10 10t10 10t10 -10zM258 208q0 -10 -10 -10t-10 10t10 10t10 -10zM136 329q0 -10 -10 -10t-10 10t10 10t10 -10zM97 330q0 -10 -10 -10t-10 10
t10 10t10 -10zM181 246q0 -10 -10 -10t-10 10t10 10t10 -10zM257 167q0 -10 -10 -10t-10 10t10 10t10 -10zM154 219q0 -10 -10 -10t-10 10t10 10t10 -10zM249 127q0 -10 -10 -10t-10 10t10 10t10 -10zM235 88q0 -10 -10 -10t-10 10t10 10t10 -10zM129 190q0 -10 -10 -10
t-10 10t10 10t10 -10zM109 157q0 -10 -10 -10t-10 10t10 10t10 -10zM212 55q0 -10 -10 -10t-10 10t10 10t10 -10zM93 122q0 -10 -10 -10t-10 10t10 10t10 -10zM84 84q0 -10 -10 -10t-10 10t10 10t10 -10zM89 45q0 -10 -10 -10t-10 10t10 10t10 -10zM300 353h-310v12h310v-12
zM129 11q2 9 10 9t10 -9h151v-12h-310v12h102q-4 4 0 9t9 5t9.5 -4.5t-0.5 -9.5h19zM184 28q0 -10 -10 -10t-10 10t10 10t10 -10z" />
    <glyph glyph-name="sterling" unicode="&#xa3;" horiz-adv-x="340" 
d="M532 670q0 -10 -10 -10t-10 10t10 10t10 -10zM514 651q0 -10 -10 -10t-10 10t10 10t10 -10zM524 628q0 -10 -10 -10t-10 10t10 10t10 -10zM490 618q0 -10 -10 -10t-10 10t10 10t10 -10zM515 586q0 -10 -10 -10t-10 10t10 10t10 -10zM465 584q0 -10 -10 -10t-10 10t10 10
t10 -10zM507 544q0 -10 -10 -10t-10 10q0 11 10 11t10 -11zM498 503q0 -10 -10 -10t-10 10t10 10t10 -10zM440 549q0 -10 -10 -10t-10 10t10 10t10 -10zM490 461q0 -10 -10 -10t-10 10t10 10t10 -10zM415 515q0 -10 -10 -10t-10 10t10 10t10 -10zM481 419q0 -10 -10 -10
t-10 10t10 10t10 -10zM390 481q0 -10 -10 -10t-10 10t10 10t10 -10zM473 378q0 -10 -10 -10t-10 10t10 10t10 -10zM365 446q0 -10 -10 -10t-10 10t10 10t10 -10zM464 336q0 -10 -10 -10t-10 10t10 10t10 -10zM341 412q0 -10 -10 -10t-10 10t10 10t10 -10zM456 294
q0 -10 -10 -10t-10 10t10 10t10 -10zM447 253q0 -10 -10 -10t-10 10t10 10t10 -10zM316 378q0 -10 -10 -10t-10 10t10 10t10 -10zM439 211q0 -10 -10 -10t-10 10t10 10t10 -10zM430 169q0 -10 -10 -10t-10 10t10 10t10 -10zM266 310q0 -11 -10 -11t-10 11q0 10 10 10t10 -10
zM422 128q0 -10 -10 -10t-10 10t10 10t10 -10zM340 353h-53l4 -9q0 -10 -10 -10t-10 10l4 9h-285v12h350v-12zM241 275q0 -10 -10 -10t-10 10t10 10t10 -10zM413 86q0 -10 -10 -10t-10 10t10 10t10 -10zM220 244q0 -10 -10 -10t-10 10t10 10t10 -10zM404 44q0 -10 -10 -10
t-10 10t10 10t10 -10zM195 210q0 -10 -10 -10t-10 10t10 10t10 -10zM395 7q0 -10 -10 -10t-10 10t10 10t10 -10zM170 175q0 -10 -10 -10t-10 10t10 10t10 -10zM146 141q0 -10 -10 -10t-10 10t10 10t10 -10zM121 107q0 -10 -10 -10t-10 10t10 10t10 -10zM340 -1h-350v12h38
q4 7 10 7q7 0 9 -7h293v-12zM96 74q0 -10 -10 -10t-10 10t10 10t10 -10zM72 41q0 -11 -10 -11t-10 11q0 10 10 10t10 -10z" />
    <glyph glyph-name="currency" unicode="&#xa4;" horiz-adv-x="199" 
d="M314 347q0 -10 -10 -10t-10 10t10 10t10 -10zM296 328q0 -10 -10 -10t-10 10t10 10t10 -10zM306 305q0 -10 -10 -10t-10 10t10 10t10 -10zM272 295q0 -10 -10 -10t-10 10t10 10t10 -10zM297 263q0 -10 -10 -10t-10 10t10 10t10 -10zM289 221q0 -10 -10 -10t-10 10
q0 11 10 11t10 -11zM247 261q0 -10 -10 -10t-10 10t10 10t10 -10zM199 353h-209v12h209v-12zM280 180q0 -10 -10 -10t-10 10t10 10t10 -10zM222 226q0 -10 -10 -10t-10 10t10 10t10 -10zM272 138q0 -10 -10 -10t-10 10t10 10t10 -10zM197 192q0 -10 -10 -10t-10 10t10 10
t10 -10zM263 96q0 -10 -10 -10t-10 10t10 10t10 -10zM172 158q0 -10 -10 -10t-10 10t10 10t10 -10zM255 55q0 -10 -10 -10t-10 10t10 10t10 -10zM147 123q0 -10 -10 -10t-10 10t10 10t10 -10zM246 13q0 -10 -10 -10t-10 10t10 10t10 -10zM123 89q0 -10 -10 -10t-10 10t10 10
t10 -10zM98 55q0 -10 -10 -10t-10 10t10 10t10 -10zM199 -1h-209v12h209v-12zM73 22q0 -10 -10 -10t-10 10t10 10t10 -10z" />
    <glyph glyph-name="brokenbar" unicode="&#xa6;" horiz-adv-x="10" 
d="M10 353h-20v12h20v-12zM10 -1h-20v12h20v-12z" />
    <glyph glyph-name="macron" unicode="&#xaf;" horiz-adv-x="480" 
d="M480 353h-490v12h490v-12zM480 -1h-490v12h490v-12zM430 -64h-380v36h380v-36z" />
    <glyph glyph-name="paragraph" unicode="&#xb6;" horiz-adv-x="563" 
d="M458 722h-52v-855h-61v855h-72v-855h-60v517q-133 50 -133 198q0 81 54.5 141.5t134.5 60.5h189v-62z" />
    <glyph glyph-name="Adieresis" unicode="&#xc4;" horiz-adv-x="636" 
d="M741 781q0 -10 -10 -10t-10 10t10 10t10 -10zM726 735q0 -10 -10 -10t-10 10t10 10t10 -10zM593 781q0 -10 -10 -10t-10 10t10 10t10 -10zM656 699q0 -10 -10 -10t-10 10t10 10t10 -10zM578 735q0 -10 -10 -10t-10 10t10 10t10 -10zM648 657q0 -10 -10 -10t-10 10t10 10
t10 -10zM628 666q0 -10 -10 -10t-10 10t10 10t10 -10zM640 617q0 -10 -10 -10t-10 10t10 10t10 -10zM604 631q0 -10 -10 -10t-10 10t10 10t10 -10zM631 576q0 -10 -10 -10t-10 10t10 10t10 -10zM578 598q0 -10 -10 -10t-10 10t10 10t10 -10zM622 535q0 -10 -10 -10t-10 10
t10 10t10 -10zM552 565q0 -10 -10 -10t-10 10t10 10t10 -10zM613 495q0 -10 -10 -10t-10 10t10 10t10 -10zM790 314q0 -10 -10 -10t-10 10t10 10t10 -10zM605 454q0 -10 -10 -10t-10 10t10 10t10 -10zM526 531q0 -10 -10 -10t-10 10t10 10t10 -10zM759 286q0 -10 -10 -10
t-10 10t10 10t10 -10zM597 413q0 -10 -10 -10t-10 10t10 10t10 -10zM500 498q0 -10 -10 -10t-10 10t10 10t10 -10zM722 267q0 -10 -10 -10t-10 10t10 10t10 -10zM474 465q0 -10 -10 -10t-10 10t10 10t10 -10zM683 250q0 -10 -10 -10t-10 10t10 10t10 -10zM580 332
q0 -10 -10 -10t-10 10t10 10t10 -10zM448 431q0 -10 -10 -10t-10 10t10 10t10 -10zM641 232q0 -10 -10 -10t-10 10t10 10t10 -10zM571 291q0 -10 -10 -10t-10 10t10 10t10 -10zM422 398q0 -10 -10 -10t-10 10t10 10t10 -10zM563 251q0 -10 -10 -10t-10 10t10 10t10 -10z
M596 220q0 -10 -10 -10t-10 10t10 10t10 -10zM555 210q0 -10 -10 -10t-10 10t10 10t10 -10zM513 205q0 -10 -10 -10t-10 10t10 10t10 -10zM546 169q0 -10 -10 -10t-10 10t10 10t10 -10zM370 331q0 -10 -10 -10t-10 10t10 10t10 -10zM636 353h-646v12h385q2 9 10 9t10 -9h177
q-2 4 -3 5t-1 3q0 10 10 10t10 -10q-2 -7 -4 -8h52v-12zM538 129q0 -10 -10 -10t-10 10t10 10t10 -10zM467 201q0 -10 -10 -10t-10 10t10 10t10 -10zM344 298q0 -10 -10 -10t-10 10t10 10t10 -10zM421 201q0 -10 -10 -10t-10 10t10 10t10 -10zM529 88q0 -10 -10 -10t-10 10
t10 10t10 -10zM318 264q0 -10 -10 -10t-10 10t10 10t10 -10zM376 205q0 -10 -10 -10t-10 10t10 10t10 -10zM521 47q0 -10 -10 -10t-10 10t10 10t10 -10zM332 215q0 -10 -10 -10t-10 10t10 10t10 -10zM292 230q0 -10 -10 -10t-10 10t10 10t10 -10zM257 249q0 -10 -10 -10
t-10 10t10 10t10 -10zM225 273q0 -10 -10 -10t-10 10t10 10t10 -10zM267 199q0 -10 -10 -10t-10 10t10 10t10 -10zM242 166q0 -10 -10 -10t-10 10t10 10t10 -10zM217 134q0 -10 -10 -10t-10 10t10 10t10 -10zM636 -1h-126l-7 -3l-7 3h-506v12h11q-2 1 -4 8q0 10 10 10
t10 -10q-3 -7 -4 -8h29q-2 1 -4 8q0 10 10 10t10 -10q-3 -7 -4 -8h440q3 5 9 5q8 -3 9 -5h124v-12zM192 102q0 -10 -10 -10t-10 10t10 10t10 -10zM164 72q0 -10 -10 -10t-10 10t10 10t10 -10zM134 45q0 -10 -10 -10t-10 10t10 10t10 -10zM98 25q0 -10 -10 -10t-10 10t10 10
t10 -10z" />
    <glyph glyph-name="Odieresis" unicode="&#xd6;" horiz-adv-x="595" 
d="M546 781q0 -10 -10 -10t-10 10t10 10t10 -10zM531 735q0 -10 -10 -10t-10 10t10 10t10 -10zM521 664q0 -10 -10 -10t-10 10t10 10t10 -10zM549 634q0 -10 -10 -10t-10 10t10 10t10 -10zM398 781q0 -10 -10 -10t-10 10t10 10t10 -10zM485 685q0 -10 -10 -10t-10 10t10 10
t10 -10zM571 598q0 -10 -10 -10t-10 10t10 10t10 -10zM585 560q0 -11 -10 -11t-10 11q0 10 10 10t10 -10zM445 694q0 -10 -10 -10t-10 10t10 10t10 -10zM383 735q0 -10 -10 -10t-10 10t10 10t10 -10zM594 519q0 -10 -10 -10t-10 10t10 10t10 -10zM403 693q0 -10 -10 -10
t-10 10t10 10t10 -10zM599 477q0 -10 -10 -10t-10 10t10 10t10 -10zM362 685q0 -10 -10 -10t-10 10t10 10t10 -10zM600 436q0 -10 -10 -10t-10 10t10 10t10 -10zM324 670q0 -10 -10 -10t-10 10t10 10t10 -10zM597 395q0 -10 -10 -10t-10 10t10 10t10 -10zM287 650
q0 -10 -10 -10t-10 10t10 10t10 -10zM581 313q0 -10 -10 -10t-10 10t10 10t10 -10zM255 624q0 -10 -10 -10t-10 10t10 10t10 -10zM568 274q0 -10 -10 -10t-10 10t10 10t10 -10zM226 595q0 -10 -10 -10t-10 10t10 10t10 -10zM552 235q0 -10 -10 -10t-10 10t10 10t10 -10z
M200 562q0 -10 -10 -10t-10 10t10 10t10 -10zM535 197q0 -10 -10 -10t-10 10t10 10t10 -10zM179 527q0 -10 -10 -10t-10 10t10 10t10 -10zM514 161q0 -10 -10 -10t-10 10t10 10t10 -10zM595 353h-4q-2 -9 -10 -9t-10 9h-581v12h117l-2 5q0 10 10 10t10 -10l-2 -5h472v-12z
M161 490q0 -10 -10 -10t-10 10t10 10t10 -10zM491 127q0 -10 -10 -10t-10 10t10 10t10 -10zM146 451q0 -10 -10 -10t-10 10t10 10t10 -10zM464 95q0 -10 -10 -10t-10 10t10 10t10 -10zM135 411q0 -10 -11 -10q-10 0 -10 10t10 10q11 0 11 -10zM433 67q0 -10 -10 -10t-10 10
t10 10t10 -10zM118 329q0 -10 -10 -10t-10 10t10 10t10 -10zM392 41q0 -10 -10 -10t-10 10t10 10t10 -10zM114 288q0 -10 -10 -10t-10 10t10 10t10 -10zM348 25q0 -10 -10 -10t-10 10t10 10t10 -10zM113 246q0 -10 -10 -10t-10 10t10 10t10 -10zM117 205q0 -10 -10 -10
t-10 10t10 10t10 -10zM595 -1h-605v12h297l-3 7q0 10 10 10t10 -10q-2 -6 -4 -7h295v-12zM124 164q0 -10 -10 -10t-10 10t10 10t10 -10zM260 23q0 -10 -10 -10t-10 10t10 10t10 -10zM138 125q0 -10 -11 -10q-10 0 -10 10t10 10q11 0 11 -10zM220 36q0 -10 -10 -10t-10 10
t10 10t10 -10zM158 89q0 -10 -10 -10t-10 10t10 10t10 -10zM185 58q0 -10 -10 -10t-10 10t10 10t10 -10z" />
    <glyph glyph-name="Udieresis" unicode="&#xdc;" horiz-adv-x="738" 
d="M632 689q0 -10 -10 -10t-10 10t10 10t10 -10zM518 781q0 -10 -10 -10t-10 10t10 10t10 -10zM622 650q0 -10 -10 -10t-10 10t10 10t10 -10zM503 735q0 -10 -10 -10t-10 10t10 10t10 -10zM613 610q0 -10 -10 -10t-10 10t10 10t10 -10zM892 314q0 -10 -10 -10t-10 10t10 10
t10 -10zM604 571q0 -10 -10 -10t-10 10t10 10t10 -10zM370 781q0 -10 -10 -10t-10 10t10 10t10 -10zM862 286q0 -10 -10 -10t-10 10t10 10t10 -10zM595 531q0 -10 -10 -10t-10 10t10 10t10 -10zM355 735q0 -10 -10 -10t-10 10t10 10t10 -10zM832 251q0 -10 -10 -10t-10 10
t10 10t10 -10zM585 491q0 -10 -10 -10t-10 10t10 10t10 -10zM576 452q0 -10 -10 -10t-10 10t10 10t10 -10zM806 222q0 -10 -10 -10t-10 10t10 10t10 -10zM567 412q0 -10 -10 -10t-10 10t10 10t10 -10zM778 195q0 -10 -10 -10t-10 10t10 10t10 -10zM233 694q0 -10 -10 -10
t-10 10t10 10t10 -10zM751 168q0 -10 -10 -10t-10 10t10 10t10 -10zM549 333q0 -10 -10 -10t-10 10t10 10t10 -10zM225 655q0 -10 -10 -10t-10 10t10 10t10 -10zM724 141q0 -10 -10 -10t-10 10t10 10t10 -10zM538 293q0 -10 -10 -10t-10 10t10 10t10 -10zM217 615
q0 -10 -10 -10t-10 10t10 10t10 -10zM697 114q0 -10 -10 -10t-10 10t10 10t10 -10zM208 576q0 -10 -10 -10t-10 10t10 10t10 -10zM527 255q0 -10 -10 -10t-10 10t10 10t10 -10zM669 86q0 -10 -10 -10t-10 10t10 10t10 -10zM738 353h-748v12h552q-2 4 -3 5t-1 3q0 10 10 10
t10 -10q-3 -7 -5 -8h185v-12zM504 241q0 -10 -10 -10t-10 10t10 10t10 -10zM200 537q0 -10 -10 -10t-10 10t10 10t10 -10zM520 215q0 -10 -10 -10t-10 10t10 10t10 -10zM642 59q0 -10 -10 -10t-10 10t10 10t10 -10zM191 497q0 -10 -10 -10t-10 10t10 10t10 -10zM481 207
q0 -10 -10 -10t-10 10t10 10t10 -10zM511 176q0 -10 -10 -10t-10 10t10 10t10 -10zM183 458q0 -10 -10 -10t-10 10t10 10t10 -10zM609 33q0 -10 -10 -10t-10 10t10 10t10 -10zM504 136q0 -10 -10 -10t-10 10t10 10t10 -10zM457 174q0 -10 -10 -10t-10 10t10 10t10 -10z
M175 419q0 -10 -10 -10t-10 10t10 10t10 -10zM500 95q0 -10 -10 -10t-10 10t10 10t10 -10zM432 143q0 -10 -10 -10t-10 10t10 10t10 -10zM505 55q0 -11 -10 -11t-10 11q0 10 10 10t10 -10zM531 24q0 -10 -10 -10t-10 10t10 10t10 -10zM166 379q0 -10 -10 -10t-10 10t10 10
t10 -10zM405 113q0 -10 -10 -10t-10 10t10 10t10 -10zM158 340q0 -10 -10 -10t-10 10t10 10t10 -10zM376 85q0 -10 -10 -10t-10 10t10 10t10 -10zM150 300q0 -10 -10 -10t-10 10q0 11 10 11t10 -11zM344 61q0 -10 -10 -10t-10 10t10 10t10 -10zM142 261q0 -10 -10 -10
t-10 10t10 10t10 -10zM738 -1h-748v12h185l-2 6q0 10 10 10t10 -10l-3 -6h25l-2 6q0 10 10 10t10 -10l-3 -6h324q-4 4 0 9t9 5t9.5 -4.5t-0.5 -9.5h166v-12zM134 222q0 -10 -10 -10t-10 10t10 10t10 -10zM310 40q0 -10 -10 -10t-10 10t10 10t10 -10zM126 182q0 -10 -10 -10
t-10 10t10 10t10 -10zM272 25q0 -10 -10 -10t-10 10t10 10t10 -10zM121 142q0 -10 -10 -10t-10 10t10 10t10 -10zM122 102q0 -10 -10 -10t-10 10t10 10t10 -10zM132 63q0 -10 -10 -10t-10 10t10 10t10 -10zM155 31q0 -10 -10 -10t-10 10t10 10t10 -10z" />
    <glyph glyph-name="Thorn" unicode="&#xde;" horiz-adv-x="532" 
d="M512 674q0 -10 -10 -10t-10 10t10 10t10 -10zM536 641q0 -10 -10 -10t-10 10t10 10t10 -10zM472 683q0 -10 -10 -10t-10 10t10 10t10 -10zM542 601q0 -10 -10 -10t-10 10t10 10t10 -10zM432 674q0 -10 -10 -10t-10 10t10 10t10 -10zM538 559q0 -10 -10 -10t-10 10t10 10
t10 -10zM528 519q0 -10 -10 -10t-10 10t10 10t10 -10zM397 652q0 -10 -10 -10t-10 10t10 10t10 -10zM367 624q0 -10 -10 -10t-10 10t10 10t10 -10zM510 482q0 -10 -10 -10t-10 10t10 10t10 -10zM486 449q0 -10 -11 -10q-10 0 -10 10t10 10q11 0 11 -10zM341 592
q0 -10 -10 -10t-10 10t10 10t10 -10zM319 557q0 -10 -10 -10t-10 10t10 10t10 -10zM456 420q0 -10 -10 -10t-10 10t10 10t10 -10zM300 520q0 -10 -10 -10t-10 10t10 10t10 -10zM424 394q0 -10 -10 -10t-10 10t10 10t10 -10zM283 483q0 -10 -10 -10t-10 10t10 10t10 -10z
M425 293q0 -10 -10 -10t-10 10t10 10t10 -10zM268 444q0 -10 -10 -10t-10 10t10 10t10 -10zM397 321q0 -10 -10 -10t-10 10t10 10t10 -10zM449 262q0 -10 -10 -10t-10 10t10 10t10 -10zM470 227q0 -10 -10 -10t-10 10t10 10t10 -10zM486 191q0 -10 -11 -10q-10 0 -10 10
t10 10q11 0 11 -10zM256 405q0 -10 -10 -10t-10 10t10 10t10 -10zM497 153q0 -10 -10 -10q-11 0 -11 10t11 10q10 0 10 -10zM532 353h-173q2 -3 0.5 -9.5t-8.5 -6.5q-15 0 -8 16h-353v12h235q2 10 11 10q8 0 10 -10h127q-3 4 0 9.5t8 5.5t9 -3.5t-1 -11.5h143v-12zM501 113
q0 -10 -10 -10t-10 10t10 10t10 -10zM498 74q0 -11 -10 -11t-10 11q0 10 10 10t10 -10zM236 324q0 -10 -10 -10t-10 10t10 10t10 -10zM480 38q0 -10 -10 -10t-10 10t10 10t10 -10zM227 284q0 -10 -10 -10t-10 10t10 10t10 -10zM176 291q0 -10 -10 -10t-10 10t10 10t10 -10z
M219 243q0 -10 -10 -10t-10 10t10 10t10 -10zM197 261q0 -10 -10 -10t-10 10t10 10t10 -10zM211 203q0 -10 -10 -10t-10 10t10 10t10 -10zM368 28q0 -10 -10 -10t-10 10t10 10t10 -10zM339 54q0 -10 -10 -10t-10 10t10 10t10 -10zM203 163q0 -10 -10 -10t-10 10t10 10
t10 -10zM195 122q0 -10 -10 -10t-10 10t10 10t10 -10zM532 -1h-361q-2 -8 -10 -8t-10 8h-161v12h398q-2 4 -0.5 10t8.5 6q6 0 9 -5.5t-2 -10.5h27q-2 4 -3 5t-1 3q0 10 10 10t10 -10q-3 -7 -5 -8h91v-12zM187 82q0 -10 -10 -10t-10 10t10 10t10 -10zM179 41q0 -10 -10 -10
t-10 10t10 10t10 -10zM163 -40q0 -10 -10 -10t-10 10t10 10t10 -10zM156 -80q0 -10 -10 -10t-10 10t10 10t10 -10zM148 -121q0 -10 -10 -10t-10 10t10 10t10 -10zM140 -161q0 -10 -10 -10t-10 10t10 10t10 -10zM132 -202q0 -10 -10 -10t-10 10t10 10t10 -10zM125 -243
q0 -10 -10 -10t-10 10t10 10t10 -10zM117 -283q0 -10 -10 -10t-10 10t10 10t10 -10zM109 -324q0 -10 -10 -10t-10 10t10 10t10 -10z" />
    <glyph glyph-name="germandbls" unicode="&#xdf;" horiz-adv-x="533" 
d="M505 676q0 -10 -10 -10t-10 10t10 10t10 -10zM532 647q0 -10 -10 -10t-10 10t10 10t10 -10zM465 682q0 -10 -10 -10t-10 10t10 10t10 -10zM541 607q0 -10 -10 -10t-10 10t10 10t10 -10zM539 566q0 -10 -10 -10t-10 10t10 10t10 -10zM426 670q0 -10 -10 -10t-10 10t10 10
t10 -10zM530 526q0 -10 -10 -10t-10 10t10 10t10 -10zM391 647q0 -10 -10 -10t-10 10t10 10t10 -10zM514 488q0 -10 -10 -10t-10 10t10 10t10 -10zM687 314q0 -10 -10 -10t-10 10t10 10t10 -10zM362 618q0 -10 -10 -10t-10 10t10 10t10 -10zM490 455q0 -10 -10 -10t-10 10
t10 10t10 -10zM656 286q0 -10 -10 -10t-10 10t10 10t10 -10zM337 586q0 -10 -10 -10t-10 10t10 10t10 -10zM462 425q0 -10 -10 -10t-10 10t10 10t10 -10zM625 260q0 -10 -10 -10t-10 10t10 10t10 -10zM316 551q0 -10 -10 -10q-11 0 -11 10t11 10q10 0 10 -10zM430 399
q0 -10 -10 -10t-10 10t10 10t10 -10zM588 239q0 -10 -10 -10t-10 10t10 10t10 -10zM297 515q0 -10 -10 -10t-10 10t10 10t10 -10zM550 223q0 -10 -10 -10t-10 10t10 10t10 -10zM280 477q0 -10 -10 -10t-10 10t10 10t10 -10zM513 213q0 -10 -10 -10t-10 10t10 10t10 -10z
M415 303q0 -10 -10 -10t-10 10t10 10t10 -10zM389 327q0 -10 -10 -10t-10 10t10 10t10 -10zM438 275q0 -10 -10 -10t-10 10t10 10t10 -10zM266 438q0 -10 -10 -10t-10 10t10 10t10 -10zM458 245q0 -10 -10 -10t-10 10t10 10t10 -10zM476 216q0 -10 -10 -10t-10 10t10 10
t10 -10zM485 181q0 -10 -10 -10t-10 10t10 10t10 -10zM254 399q0 -10 -10 -10t-10 10t10 10t10 -10zM440 203q0 -10 -10 -10t-10 10t10 10t10 -10zM533 353h-168q2 -12 -10 -12q-13 0 -10 12h-104l-7 -3l-7 3h-237v12h236q1 3 3.5 4t4.5 1q8 -3 8 -5h141q-2 4 -3 5t-1 3
q0 10 10 10t10 -10q-3 -7 -5 -8h139v-12zM488 143q0 -10 -10 -10t-10 10t10 10t10 -10zM405 186q0 -10 -10 -10t-10 10t10 10t10 -10zM484 107q0 -10 -10 -10t-10 10t10 10t10 -10zM235 320q0 -11 -10 -11t-10 11q0 10 10 10t10 -10zM474 71q0 -10 -10 -10t-10 10t10 10
t10 -10zM374 163q0 -10 -10 -10t-10 10t10 10t10 -10zM226 279q0 -10 -10 -10t-10 10t10 10t10 -10zM454 41q0 -10 -10 -10t-10 10t10 10t10 -10zM351 134q0 -10 -10 -10t-10 10t10 10t10 -10zM176 291q0 -10 -10 -10t-10 10t10 10t10 -10zM218 239q0 -10 -10 -10t-10 10
t10 10t10 -10zM197 261q0 -10 -10 -10t-10 10t10 10t10 -10zM338 100q0 -10 -10 -10t-10 10t10 10t10 -10zM210 199q0 -10 -10 -10t-10 10t10 10t10 -10zM339 63q0 -10 -10 -10t-10 10t10 10t10 -10zM356 30q0 -10 -10 -10t-10 10t10 10t10 -10zM202 159q0 -10 -10 -10
t-10 10t10 10t10 -10zM194 119q0 -10 -10 -10t-10 10t10 10t10 -10zM533 -1h-363q1 -11 -10 -11q-10 0 -10 11h-160v12h379q-2 5 1 9t8 4t8.5 -4t0.5 -9h22q-2 4 -3 5t-1 3q0 10 10 10t10 -10q-3 -7 -5 -8h113v-12zM186 78q0 -10 -10 -10t-10 10t10 10t10 -10zM178 38
q0 -10 -10 -10t-10 10t10 10t10 -10zM163 -43q0 -10 -10 -10t-10 10t10 10t10 -10zM155 -83q0 -10 -10 -10t-10 10t10 10t10 -10zM147 -123q0 -10 -10 -10t-10 10t10 10t10 -10zM139 -163q0 -10 -10 -10t-10 10t10 10t10 -10zM132 -204q0 -10 -10 -10t-10 10t10 10t10 -10z
M124 -244q0 -10 -10 -10t-10 10t10 10t10 -10zM116 -285q0 -10 -10 -10t-10 10t10 10t10 -10zM109 -325q0 -10 -10 -10t-10 10t10 10t10 -10z" />
    <glyph glyph-name="adieresis" unicode="&#xe4;" horiz-adv-x="496" 
d="M650 314q0 -10 -10 -10t-10 10t10 10t10 -10zM620 286q0 -10 -10 -10t-10 10t10 10t10 -10zM345 515q0 -10 -10 -10t-10 10t10 10t10 -10zM590 251q0 -10 -10 -10t-10 10t10 10t10 -10zM336 469q0 -10 -10 -10t-10 10t10 10t10 -10zM564 222q0 -10 -10 -10t-10 10t10 10
t10 -10zM217 515q0 -10 -10 -10t-10 10t10 10t10 -10zM536 195q0 -10 -10 -10t-10 10t10 10t10 -10zM208 469q0 -10 -10 -10t-10 10t10 10t10 -10zM509 168q0 -10 -10 -10t-10 10t10 10t10 -10zM338 314q0 -10 -10 -10t-10 10t10 10t10 -10zM482 141q0 -10 -10 -10t-10 10
t10 10t10 -10zM304 305q0 -10 -10 -10t-10 10t10 10t10 -10zM496 353h-150q4 -4 0 -9t-9 -5q-6 0 -9.5 4.5t0.5 9.5h-338v12h506v-12zM273 332q0 -10 -10 -10t-10 10t10 10t10 -10zM330 275q0 -10 -10 -10t-10 10t10 10t10 -10zM232 340q0 -10 -10 -10t-10 10t10 10t10 -10z
M455 114q0 -10 -10 -10t-10 10t10 10t10 -10zM322 235q0 -10 -10 -10t-10 10t10 10t10 -10zM191 333q0 -10 -10 -10t-10 10t10 10t10 -10zM314 196q0 -10 -10 -10t-10 10t10 10t10 -10zM427 86q0 -10 -10 -10t-10 10t10 10t10 -10zM154 314q0 -10 -10 -10t-10 10t10 10
t10 -10zM305 156q0 -10 -10 -10t-10 10t10 10t10 -10zM400 59q0 -10 -10 -10t-10 10t10 10t10 -10zM123 286q0 -10 -10 -10t-10 10t10 10t10 -10zM297 115q0 -10 -10 -10t-10 10t10 10t10 -10zM368 34q0 -10 -10 -10t-10 10t10 10t10 -10zM276 125q0 -10 -10 -10t-10 10
t10 10t10 -10zM291 75q0 -10 -10 -10t-10 10t10 10t10 -10zM99 251q0 -10 -10 -10t-10 10t10 10t10 -10zM254 90q0 -10 -10 -10t-10 10t10 10t10 -10zM299 35q0 -10 -10 -10t-10 10t10 10t10 -10zM83 213q0 -10 -10 -10t-10 10t10 10t10 -10zM228 58q0 -10 -10 -10t-10 10
t10 10t10 -10zM496 -1h-506v12h148l-2 6q0 10 10 10t10 -10l-2 -6h160q-4 4 0 9t9 5t9.5 -4.5t-0.5 -9.5h164v-12zM72 173q0 -10 -10 -10t-10 10t10 10t10 -10zM195 31q0 -10 -10 -10t-10 10t10 10t10 -10zM68 131q0 -10 -10 -10t-10 10t10 10t10 -10zM72 89q0 -10 -10 -10
t-10 10t10 10t10 -10zM86 51q0 -11 -10 -11t-10 11q0 10 10 10t10 -10zM115 22q0 -10 -10 -10t-10 10t10 10t10 -10z" />
    <glyph glyph-name="ograve" unicode="&#xf2;" horiz-adv-x="200" 
d="M361 313q0 -10 -10 -10t-10 10t10 10t10 -10zM334 284q0 -10 -10 -10t-10 10t10 10t10 -10zM307 257q0 -10 -10 -10t-10 10t10 10t10 -10zM181 338q0 -10 -10 -10t-10 10t10 10t10 -10zM199 309q0 -10 -10 -10t-10 10t10 10t10 -10zM278 231q0 -10 -10 -10t-10 10t10 10
t10 -10zM215 277q0 -10 -10 -10t-10 10t10 10t10 -10zM231 244q0 -10 -10 -10t-10 10t10 10t10 -10zM154 314q0 -10 -10 -10t-10 10t10 10t10 -10zM200 353h-210v12h210v-12zM245 213q0 -10 -10 -10t-10 10t10 10t10 -10zM258 172q0 -10 -10 -10t-10 10t10 10t10 -10z
M124 286q0 -10 -10 -10t-10 10t10 10t10 -10zM269 134q0 -10 -10 -10t-10 10t10 10t10 -10zM212 191q0 -10 -10 -10t-10 10t10 10t10 -10zM271 94q0 -10 -10 -10t-10 10t10 10t10 -10zM180 167q0 -10 -10 -10t-10 10t10 10t10 -10zM261 56q0 -10 -10 -10t-10 10t10 10
t10 -10zM154 137q0 -10 -10 -10t-10 10t10 10t10 -10zM236 26q0 -10 -10 -10t-10 10t10 10t10 -10zM141 100q0 -10 -10 -10t-10 10t10 10t10 -10zM144 61q0 -10 -10 -10t-10 10t10 10t10 -10zM162 26q0 -10 -10 -10t-10 10t10 10t10 -10zM200 -1h-210v12h189q-1 4 2 8t8 4
q10 0 10 -12z" />
    <glyph glyph-name="oacute" unicode="&#xf3;" horiz-adv-x="282" 
d="M181 338q0 -10 -10 -10t-10 10t10 10t10 -10zM199 309q0 -10 -10 -10t-10 10t10 10t10 -10zM282 353h-292v12h292v-12zM214 276q0 -10 -10 -10t-10 10t10 10t10 -10zM154 314q0 -10 -10 -10t-10 10t10 10t10 -10zM231 242q0 -10 -10 -10t-10 10t10 10t10 -10zM246 208
q0 -10 -10 -10t-10 10t10 10t10 -10zM259 172q0 -10 -10 -10t-10 10t10 10t10 -10zM124 286q0 -10 -10 -10t-10 10t10 10t10 -10zM268 135q0 -10 -10 -10t-10 10t10 10t10 -10zM270 98q0 -10 -10 -10t-10 10t10 10t10 -10zM262 61q0 -10 -10 -10t-10 10t10 10t10 -10z
M239 32q0 -10 -10 -10t-10 10t10 10t10 -10zM104 57q0 -10 -10 -10t-10 10t10 10t10 -10zM131 31q0 -10 -10 -10t-10 10t10 10t10 -10zM282 -1h-292v12h158l-2 6q0 10 10 10t10 -10l-3 -6h24l-3 7q0 10 10 10t10 -10l-3 -7h81v-12z" />
    <glyph glyph-name="ocircumflex" unicode="&#xf4;" horiz-adv-x="398" 
d="M418 690q0 -10 -10 -10t-10 10t10 10t10 -10zM410 652q0 -10 -10 -10q-7 3 -8 4q-9 0 -9 10t10 10q8 -3 8 -5q9 2 9 -9zM384 628q0 -10 -10 -10t-10 10t10 10t10 -10zM401 614q0 -10 -10 -10t-10 10t10 10t10 -10zM393 575q0 -10 -10 -10t-10 10t10 10t10 -10zM364 596
q0 -10 -10 -10t-10 10t10 10t10 -10zM385 537q0 -10 -10 -10t-10 10t10 10t10 -10zM344 565q0 -10 -10 -10t-10 10t10 10t10 -10zM377 499q0 -10 -10 -10t-10 10t10 10t10 -10zM324 536q0 -10 -10 -10t-10 10t10 10t10 -10zM369 460q0 -10 -10 -10t-10 10t10 10t10 -10z
M302 504q0 -10 -10 -10t-10 10t10 10t10 -10zM361 422q0 -10 -10 -10t-10 10t10 10t10 -10zM279 471q0 -10 -10 -10t-10 10t10 10t10 -10zM352 383q0 -10 -10 -10t-10 10t10 10t10 -10zM258 439q0 -10 -10 -10t-10 10t10 10t10 -10zM233 407q0 -10 -10 -10t-10 10t10 10
t10 -10zM336 307q0 -10 -10 -10t-10 10t10 10t10 -10zM328 268q0 -10 -10 -10t-10 10t10 10t10 -10zM209 376q0 -10 -10 -10t-10 10t10 10t10 -10zM398 353h-57l3 -8q0 -10 -10 -10t-10 10l3 8h-337v12h408v-12zM320 230q0 -10 -10 -10t-10 10t10 10t10 -10zM183 342
q0 -10 -10 -10t-10 10t10 10t10 -10zM312 191q0 -10 -10 -10t-10 10t10 10t10 -10zM303 153q0 -10 -10 -10t-10 10t10 10t10 -10zM295 115q0 -10 -10 -10t-10 10t10 10t10 -10zM287 76q0 -10 -10 -10t-10 10t10 10t10 -10zM280 42q0 -10 -10 -10t-10 10t10 10t10 -10z
M398 -1h-408v12h263q4 6 9 6t9 -6h127v-12z" />
    <glyph glyph-name="otilde" unicode="&#xf5;" horiz-adv-x="490" 
d="M418 688q0 -10 -10 -10t-10 10t10 10t10 -10zM411 652q0 -10 -10 -10t-10 10t10 10t10 -10zM387 662q0 -10 -10 -10t-10 10t10 10t10 -10zM403 613q0 -10 -10 -10t-10 10t10 10t10 -10zM356 637q0 -10 -10 -10t-10 10t10 10t10 -10zM395 575q0 -10 -10 -10t-10 10t10 10
t10 -10zM644 314q0 -10 -10 -10t-10 10t10 10t10 -10zM324 612q0 -10 -10 -10t-10 10t10 10t10 -10zM386 536q0 -10 -10 -10t-10 10t10 10t10 -10zM614 286q0 -10 -10 -10t-10 10t10 10t10 -10zM292 588q0 -10 -10 -10t-10 10t10 10t10 -10zM378 498q0 -10 -10 -10t-10 10
t10 10t10 -10zM584 251q0 -10 -10 -10t-10 10t10 10t10 -10zM370 460q0 -10 -10 -10t-10 10t10 10t10 -10zM260 564q0 -10 -10 -10t-10 10t10 10t10 -10zM362 421q0 -10 -10 -10t-10 10t10 10t10 -10zM558 222q0 -10 -10 -10t-10 10t10 10t10 -10zM228 540q0 -10 -10 -10
t-10 10t10 10t10 -10zM354 383q0 -10 -10 -10t-10 10t10 10t10 -10zM530 195q0 -10 -10 -10t-10 10t10 10t10 -10zM196 517q0 -10 -10 -10t-10 10t10 10t10 -10zM504 167q0 -10 -10 -10t-10 10t10 10t10 -10zM163 494q0 -10 -10 -10t-10 10t10 10t10 -10zM337 306
q0 -10 -10 -10t-10 10t10 10t10 -10zM475 138q0 -10 -10 -10t-10 10t10 10t10 -10zM130 472q0 -10 -10 -10t-10 10t10 10t10 -10zM490 353h-147l3 -8q0 -10 -10 -10t-10 10l3 8h-339v12h500v-12zM328 268q0 -10 -10 -10t-10 10t10 10t10 -10zM446 112q0 -10 -10 -10t-10 10
t10 10t10 -10zM320 230q0 -10 -10 -10t-10 10t10 10t10 -10zM97 449q0 -10 -10 -10t-10 10t10 10t10 -10zM414 90q0 -10 -10 -10t-10 10t10 10t10 -10zM312 191q0 -10 -10 -10t-10 10t10 10t10 -10zM63 427q0 -10 -10 -10t-10 10t10 10t10 -10zM303 153q0 -10 -10 -10
t-10 10t10 10t10 -10zM374 74q0 -10 -10 -10t-10 10t10 10t10 -10zM30 405q0 -10 -10 -10t-10 10t10 10t10 -10zM295 115q0 -10 -10 -10t-10 10t10 10t10 -10zM331 71q0 -10 -10 -10t-10 10t10 10t10 -10zM-4 383q0 -10 -10 -10t-10 10t10 10t10 -10zM288 79q0 -10 -10 -10
t-10 10t10 10t10 -10zM245 92q0 -10 -10 -10t-10 10t10 10t10 -10zM-38 362q0 -10 -10 -10t-10 10t10 10t10 -10zM280 42q0 -10 -10 -10t-10 10t10 10t10 -10zM206 111q0 -10 -10 -10t-10 10t10 10t10 -10zM168 133q0 -10 -10 -10t-10 10t10 10t10 -10zM136 160
q0 -10 -10 -10t-10 10t10 10t10 -10zM-72 341q0 -10 -10 -10t-10 10t10 10t10 -10zM490 -1h-500v12h263q4 6 9 6t9 -6h219v-12zM-140 298q0 -10 -10 -10t-10 10t10 10t10 -10zM-174 277q0 -10 -10 -10t-10 10t10 10t10 -10zM-208 257q0 -10 -10 -10t-10 10t10 10t10 -10z
M-242 237q0 -10 -10 -10t-10 10t10 10t10 -10zM-277 216q0 -10 -10 -10t-10 10t10 10t10 -10zM-311 196q0 -10 -10 -10t-10 10t10 10t10 -10zM-346 176q0 -10 -10 -10t-10 10t10 10t10 -10zM-380 154q0 -10 -10 -10t-10 10t10 10t10 -10zM-410 129q0 -10 -10 -10t-10 10
t10 10t10 -10zM-430 104q0 -10 -10 -10t-10 10t10 10t10 -10z" />
    <glyph glyph-name="odieresis" unicode="&#xf6;" horiz-adv-x="413" 
d="M567 314q0 -10 -10 -10t-10 10t10 10t10 -10zM352 515q0 -10 -10 -10t-10 10t10 10t10 -10zM534 288q0 -10 -10 -10t-10 10t10 10t10 -10zM343 469q0 -10 -10 -10t-10 10t10 10t10 -10zM497 278q0 -10 -10 -10t-10 10t10 10t10 -10zM224 515q0 -10 -10 -10t-10 10t10 10
t10 -10zM458 272q0 -10 -10 -10t-10 10t10 10t10 -10zM419 276q0 -10 -10 -10t-10 10t10 10t10 -10zM215 469q0 -10 -10 -10t-10 10t10 10t10 -10zM380 288q0 -10 -10 -10t-10 10t10 10t10 -10zM353 312q0 -10 -10 -10t-10 10t10 10t10 -10zM332 301q0 -10 -10 -10t-10 10
t10 10t10 -10zM301 320q0 -10 -10 -10t-10 10t10 10t10 -10zM345 272q0 -10 -10 -10t-10 10t10 10t10 -10zM265 336q0 -10 -10 -10t-10 10t10 10t10 -10zM338 232q0 -10 -10 -10t-10 10t10 10t10 -10zM226 341q0 -10 -10 -10t-10 10t10 10t10 -10zM413 353h-60l3 -8
q0 -10 -10 -10t-10 10l3 8h-349v12h423v-12zM187 335q0 -10 -10 -10t-10 10t10 10t10 -10zM329 192q0 -10 -10 -10t-10 10t10 10t10 -10zM154 314q0 -10 -10 -10t-10 10t10 10t10 -10zM318 152q0 -10 -10 -10t-10 10t10 10t10 -10zM305 114q0 -10 -10 -10t-10 10t10 10
t10 -10zM124 286q0 -10 -10 -10t-10 10t10 10t10 -10zM286 78q0 -10 -10 -10t-10 10t10 10t10 -10zM105 252q0 -10 -10 -10t-10 10t10 10t10 -10zM88 216q0 -10 -10 -10t-10 10t10 10t10 -10zM260 47q0 -10 -10 -10t-10 10t10 10t10 -10zM79 180q0 -10 -10 -10t-10 10t10 10
t10 -10zM227 24q0 -10 -10 -10t-10 10t10 10t10 -10zM413 -1h-423v12h140q-2 5 0.5 10.5t7.5 5.5q6 0 9 -5.5t-2 -10.5h24q-4 4 0 8.5t9 4.5t9 -4.5t0 -8.5h226v-12zM75 140q0 -10 -10 -10t-10 10t10 10t10 -10zM77 101q0 -10 -10 -10t-10 10t10 10t10 -10zM89 65
q0 -10 -10 -10t-10 10t10 10t10 -10zM114 36q0 -10 -10 -10t-10 10t10 10t10 -10z" />
    <glyph glyph-name="ucircumflex" unicode="&#xfb;" horiz-adv-x="321" 
d="M475 314q0 -10 -10 -10t-10 10t10 10t10 -10zM445 286q0 -10 -10 -10t-10 10t10 10t10 -10zM415 251q0 -10 -10 -10t-10 10t10 10t10 -10zM389 222q0 -10 -10 -10t-10 10t10 10t10 -10zM360 194q0 -10 -10 -10t-10 10t10 10t10 -10zM190 329q0 -10 -10 -10t-10 10t10 10
t10 -10zM321 353h-208l2 -7q0 -10 -10 -10t-10 10l2 7h-107v12h331v-12zM212 297q0 -10 -10 -10t-10 10t10 10t10 -10zM333 166q0 -10 -10 -10t-10 10t10 10t10 -10zM154 342q0 -10 -10 -10t-10 10t10 10t10 -10zM216 257q0 -10 -10 -10t-10 10t10 10t10 -10zM306 138
q0 -10 -10 -10t-10 10t10 10t10 -10zM206 219q0 -10 -10 -10t-10 10t10 10t10 -10zM74 342q0 -10 -10 -10t-10 10t10 10t10 -10zM277 110q0 -10 -10 -10t-10 10t10 10t10 -10zM34 335q0 -10 -10 -10t-10 10t10 10t10 -10zM185 185q0 -10 -10 -10t-10 10t10 10t10 -10z
M246 80q0 -10 -10 -10t-10 10t10 10t10 -10zM-5 321q0 -10 -10 -10t-10 10t10 10t10 -10zM161 156q0 -10 -10 -10t-10 10t10 10t10 -10zM133 130q0 -11 -10 -11t-10 11q0 10 10 10t10 -10zM215 49q0 -10 -10 -10t-10 10t10 10t10 -10zM-43 304q0 -10 -11 -10q-10 0 -10 10
t10 10q11 0 11 -10zM-81 285q0 -10 -10 -10t-10 10t10 10t10 -10zM102 107q0 -10 -10 -10t-10 10t10 10t10 -10zM186 22q0 -10 -10 -10t-10 10t10 10t10 -10zM109 55q0 -10 -10 -10t-10 10t10 10t10 -10zM137 28q0 -10 -10 -10t-10 10t10 10t10 -10zM321 -1h-169
q3 -4 0 -9.5t-8 -5.5q-15 0 -9 15h-145v12h331v-12zM69 88q0 -10 -10 -10t-10 10t10 10t10 -10zM-116 263q0 -10 -10 -10t-10 10t10 10t10 -10zM74 66q0 -10 -10 -10t-10 10t10 10t10 -10zM156 -48q0 -10 -10 -10t-10 10t10 10t10 -10zM36 69q0 -10 -10 -10t-10 10t10 10
t10 -10zM-151 240q0 -10 -10 -10t-10 10t10 10t10 -10zM122 -33q0 -10 -10 -10t-10 10t10 10t10 -10zM153 -89q0 -10 -10 -10t-10 10t10 10t10 -10zM91 -61q0 -10 -10 -10t-10 10t10 10t10 -10zM146 -130q0 -10 -10 -10t-10 10t10 10t10 -10zM61 -89q0 -10 -10 -10t-10 10
t10 10t10 -10zM136 -169q0 -10 -10 -10t-10 10t10 10t10 -10zM30 -116q0 -10 -10 -10t-10 10t10 10t10 -10zM122 -207q0 -10 -10 -10t-10 10t10 10t10 -10zM105 -244q0 -10 -10 -10t-10 10t10 10t10 -10zM1 -143q0 -10 -10 -10t-10 10t10 10t10 -10zM82 -276q0 -10 -10 -10
t-10 10t10 10t10 -10zM-24 -174q0 -10 -10 -10t-10 10t10 10t10 -10zM-45 -208q0 -10 -10 -10t-10 10t10 10t10 -10zM52 -302q0 -10 -10 -10t-10 10t10 10t10 -10zM-57 -246q0 -10 -10 -10t-10 10t10 10t10 -10zM15 -318q0 -10 -10 -10t-10 10t10 10t10 -10zM-50 -285
q0 -10 -10 -10t-10 10t10 10t10 -10zM-23 -312q0 -10 -10 -10t-10 10t10 10t10 -10z" />
    <glyph glyph-name="udieresis" unicode="&#xfc;" horiz-adv-x="572" 
d="M726 314q0 -10 -10 -10t-10 10t10 10t10 -10zM696 286q0 -10 -10 -10t-10 10t10 10t10 -10zM666 251q0 -10 -10 -10t-10 10t10 10t10 -10zM375 515q0 -10 -10 -10t-10 10t10 10t10 -10zM640 222q0 -10 -10 -10t-10 10t10 10t10 -10zM366 469q0 -10 -10 -10t-10 10t10 10
t10 -10zM612 195q0 -10 -10 -10t-10 10t10 10t10 -10zM247 515q0 -10 -10 -10t-10 10t10 10t10 -10zM585 168q0 -10 -10 -10t-10 10t10 10t10 -10zM410 311q0 -10 -10 -10t-10 10t10 10t10 -10zM238 469q0 -10 -10 -10t-10 10t10 10t10 -10zM558 141q0 -10 -10 -10t-10 10
t10 10t10 -10zM402 272q0 -10 -10 -10q-11 0 -11 10t11 10q10 0 10 -10zM572 353h-157q3 -5 0 -10t-8 -5q-15 0 -8 15h-232q3 -5 0 -10t-8 -5q-14 0 -9 15h-160v12h582v-12zM531 114q0 -10 -10 -10t-10 10t10 10t10 -10zM394 233q0 -10 -10 -10t-10 10t10 10t10 -10zM503 86
q0 -10 -10 -10t-10 10t10 10t10 -10zM386 194q0 -10 -10 -10t-10 10t10 10t10 -10zM476 59q0 -10 -10 -10t-10 10t10 10t10 -10zM377 156q0 -10 -10 -10t-10 10t10 10t10 -10zM371 115q0 -10 -10 -10t-10 10t10 10t10 -10zM444 34q0 -10 -10 -10t-10 10t10 10t10 -10z
M349 126q0 -10 -10 -10t-10 10t10 10t10 -10zM162 312q0 -10 -10 -10t-10 10t10 10t10 -10zM367 75q0 -10 -10 -10t-10 10t10 10t10 -10zM154 273q0 -10 -10 -10t-10 10t10 10t10 -10zM325 96q0 -10 -10 -10t-10 10t10 10t10 -10zM375 35q0 -10 -10 -10t-10 10t10 10t10 -10
zM147 235q0 -10 -10 -10q-11 0 -11 10t11 10q10 0 10 -10zM299 67q0 -10 -10 -10t-10 10t10 10t10 -10zM139 197q0 -10 -10 -10t-10 10t10 10t10 -10zM268 42q0 -10 -10 -10t-10 10t10 10t10 -10zM572 -1h-582v12h150q-3 5 0 10.5t8 5.5t9 -3.5t-1 -12.5h20q-3 12 10 12
q14 0 9 -12h195q-4 4 0 9t9 5t9.5 -4.5t-0.5 -9.5h164v-12zM131 158q0 -10 -10 -10t-10 10t10 10t10 -10zM234 24q0 -10 -10 -10t-10 10t10 10t10 -10zM125 120q0 -10 -10 -10t-10 10t10 10t10 -10zM122 81q0 -10 -10 -10t-10 10t10 10t10 -10zM129 43q0 -10 -10 -10t-10 10
t10 10t10 -10z" />
    <glyph glyph-name="OE" unicode="&#x152;" horiz-adv-x="595" 
d="M521 664q0 -10 -10 -10t-10 10t10 10t10 -10zM549 634q0 -10 -10 -10t-10 10t10 10t10 -10zM485 685q0 -10 -10 -10t-10 10t10 10t10 -10zM571 598q0 -10 -10 -10t-10 10t10 10t10 -10zM585 560q0 -11 -10 -11t-10 11q0 10 10 10t10 -10zM445 694q0 -10 -10 -10t-10 10
t10 10t10 -10zM594 519q0 -10 -10 -10t-10 10t10 10t10 -10zM403 693q0 -10 -10 -10t-10 10t10 10t10 -10zM599 477q0 -10 -10 -10t-10 10t10 10t10 -10zM362 685q0 -10 -10 -10t-10 10t10 10t10 -10zM600 436q0 -10 -10 -10t-10 10t10 10t10 -10zM324 670q0 -10 -10 -10
t-10 10t10 10t10 -10zM597 395q0 -10 -10 -10t-10 10t10 10t10 -10zM287 650q0 -10 -10 -10t-10 10t10 10t10 -10zM581 313q0 -10 -10 -10t-10 10t10 10t10 -10zM255 624q0 -10 -10 -10t-10 10t10 10t10 -10zM568 274q0 -10 -10 -10t-10 10t10 10t10 -10zM226 595
q0 -10 -10 -10t-10 10t10 10t10 -10zM552 235q0 -10 -10 -10t-10 10t10 10t10 -10zM200 562q0 -10 -10 -10t-10 10t10 10t10 -10zM535 197q0 -10 -10 -10t-10 10t10 10t10 -10zM179 527q0 -10 -10 -10t-10 10t10 10t10 -10zM514 161q0 -10 -10 -10t-10 10t10 10t10 -10z
M595 353h-4q-2 -9 -10 -9t-10 9h-581v12h117q-3 5 0 10t8 5q6 0 9.5 -4.5t-1.5 -10.5h472v-12zM161 490q0 -10 -10 -10t-10 10t10 10t10 -10zM491 127q0 -10 -10 -10t-10 10t10 10t10 -10zM146 451q0 -10 -10 -10t-10 10t10 10t10 -10zM464 95q0 -10 -10 -10t-10 10t10 10
t10 -10zM135 411q0 -10 -11 -10q-10 0 -10 10t10 10q11 0 11 -10zM433 67q0 -10 -10 -10t-10 10t10 10t10 -10zM118 329q0 -10 -10 -10t-10 10t10 10t10 -10zM392 41q0 -10 -10 -10t-10 10t10 10t10 -10zM114 288q0 -10 -10 -10t-10 10t10 10t10 -10zM348 25q0 -10 -10 -10
t-10 10t10 10t10 -10zM113 246q0 -10 -10 -10t-10 10t10 10t10 -10zM117 205q0 -10 -10 -10t-10 10t10 10t10 -10zM595 -1h-605v12h297l-3 7q0 10 10 10t10 -10l-3 -7h294v-12zM124 164q0 -10 -10 -10t-10 10t10 10t10 -10zM260 23q0 -10 -10 -10t-10 10t10 10t10 -10z
M138 125q0 -10 -11 -10q-10 0 -10 10t10 10q11 0 11 -10zM220 36q0 -10 -10 -10t-10 10t10 10t10 -10zM158 89q0 -10 -10 -10t-10 10t10 10t10 -10zM185 58q0 -10 -10 -10t-10 10t10 10t10 -10z" />
    <glyph glyph-name="oe" unicode="&#x153;" horiz-adv-x="349" 
d="M294 314q0 -10 -10 -10t-10 10t10 10t10 -10zM316 283q0 -10 -10 -10t-10 10t10 10t10 -10zM258 333q0 -10 -10 -10t-10 10t10 10t10 -10zM325 243q0 -10 -10 -10t-10 10t10 10t10 -10zM218 340q0 -10 -10 -10t-10 10t10 10t10 -10zM349 353h-359v12h359v-12zM322 200
q0 -10 -10 -10t-10 10t10 10t10 -10zM179 335q0 -10 -10 -10t-10 10t10 10t10 -10zM311 158q0 -10 -10 -10t-10 10t10 10t10 -10zM146 314q0 -10 -10 -10t-10 10t10 10t10 -10zM298 118q0 -10 -10 -10t-10 10t10 10t10 -10zM116 286q0 -10 -10 -10t-10 10t10 10t10 -10z
M278 80q0 -10 -10 -10t-10 10t10 10t10 -10zM97 252q0 -10 -10 -10t-10 10t10 10t10 -10zM80 216q0 -10 -10 -10t-10 10t10 10t10 -10zM252 47q0 -10 -10 -10t-10 10t10 10t10 -10zM71 180q0 -10 -10 -10t-10 10t10 10t10 -10zM219 24q0 -10 -10 -10t-10 10t10 10t10 -10z
M67 140q0 -10 -10 -10t-10 10t10 10t10 -10zM349 -1h-359v12h132q-3 6 0 11t8 5q6 0 9 -5.5t-2 -10.5h23q-1 5 2 9t8 4t9 -4t0 -9h170v-12zM69 101q0 -10 -10 -10t-10 10t10 10t10 -10zM81 65q0 -10 -10 -10t-10 10t10 10t10 -10zM106 36q0 -10 -10 -10t-10 10t10 10t10 -10
z" />
    <glyph glyph-name="Scaron" unicode="&#x160;" horiz-adv-x="1204" 
d="M987 682q0 -10 -10 -10t-10 10t10 10t10 -10zM980 644q0 -10 -10 -10t-10 10t10 10t10 -10zM1296 323q0 -10 -10 -10t-10 10t10 10t10 -10zM971 605q0 -10 -10 -10t-10 10t10 10t10 -10zM1281 286q0 -10 -10 -10t-10 10t10 10t10 -10zM963 565q0 -10 -10 -10t-10 10
t10 10t10 -10zM1263 251q0 -10 -10 -10t-10 10t10 10t10 -10zM955 526q0 -10 -10 -10t-10 10t10 10t10 -10zM1244 216q0 -10 -10 -10t-10 10t10 10t10 -10zM947 486q0 -10 -10 -10t-10 10t10 10t10 -10zM1221 183q0 -10 -10 -10t-10 10t10 10t10 -10zM939 447q0 -10 -10 -10
t-10 10t10 10t10 -10zM1197 151q0 -10 -10 -10t-10 10t10 10t10 -10zM931 407q0 -10 -10 -10q-11 0 -11 10t11 10q10 0 10 -10zM1170 122q0 -10 -10 -10t-10 10t10 10t10 -10zM589 682q0 -10 -10 -10t-10 10t10 10t10 -10zM914 329q0 -10 -10 -10l-6 2q-2 -8 -10 -8
q-10 0 -10 10t10 10l6 -2q2 8 10 8q10 0 10 -10zM1142 94q0 -10 -10 -10t-10 10t10 10t10 -10zM582 644q0 -10 -10 -10t-10 10t10 10t10 -10zM906 289q0 -10 -10 -10t-10 10t10 10t10 -10zM573 605q0 -10 -10 -10t-10 10t10 10t10 -10zM1111 69q0 -10 -10 -10t-10 10t10 10
t10 -10zM883 286q0 -10 -10 -10t-10 10t10 10t10 -10zM897 249q0 -10 -10 -10t-10 10t10 10t10 -10zM565 565q0 -10 -10 -10t-10 10t10 10t10 -10zM1077 47q0 -10 -10 -10t-10 10t10 10t10 -10zM865 251q0 -10 -10 -10t-10 10t10 10t10 -10zM888 210q0 -10 -10 -10t-10 10
t10 10t10 -10zM557 526q0 -10 -10 -10t-10 10t10 10t10 -10zM1041 31q0 -10 -10 -10t-10 10t10 10t10 -10zM846 216q0 -10 -10 -10t-10 10t10 10t10 -10zM882 171q0 -10 -10 -10t-10 10t10 10t10 -10zM549 486q0 -10 -10 -10t-10 10t10 10t10 -10zM823 183q0 -10 -10 -10
t-10 10t10 10t10 -10zM880 131q0 -10 -10 -10t-10 10t10 10t10 -10zM541 447q0 -10 -10 -10t-10 10t10 10t10 -10zM1204 353h-1214v12h116q-2 5 1.5 9t8.5 4t8 -4t1 -9h373q2 4 4.5 7.5t5.5 3.5l6 2q10 0 9 -13h374q2 4 4.5 7.5t4.5 3.5l6 2q10 0 10 -13h282v-12zM882 91
q0 -10 -10 -10t-10 10t10 10t10 -10zM799 151q0 -10 -10 -10t-10 10t10 10t10 -10zM895 53q0 -10 -10 -10t-10 10t10 10t10 -10zM924 27q0 -10 -10 -10t-10 10t10 10t10 -10zM533 407q0 -10 -10 -10q-11 0 -11 10t11 10q10 0 10 -10zM772 122q0 -10 -10 -10t-10 10t10 10
t10 -10zM191 682q0 -10 -10 -10t-10 10t10 10t10 -10zM744 94q0 -10 -10 -10t-10 10t10 10t10 -10zM516 329q0 -10 -10 -10l-6 2q-2 -8 -10 -8q-10 0 -10 10t10 10l6 -2q2 8 10 8q10 0 10 -10zM184 644q0 -10 -10 -10t-10 10t10 10t10 -10zM508 289q0 -10 -10 -10t-10 10
t10 10t10 -10zM713 69q0 -10 -10 -10t-10 10t10 10t10 -10zM175 605q0 -10 -10 -10t-10 10t10 10t10 -10zM485 286q0 -10 -10 -10t-10 10t10 10t10 -10zM499 249q0 -10 -10 -10t-10 10t10 10t10 -10zM167 565q0 -10 -10 -10t-10 10t10 10t10 -10zM679 47q0 -10 -10 -10
t-10 10t10 10t10 -10zM467 251q0 -10 -10 -10t-10 10t10 10t10 -10zM490 210q0 -10 -10 -10t-10 10t10 10t10 -10zM159 526q0 -10 -10 -10t-10 10t10 10t10 -10zM643 31q0 -10 -10 -10t-10 10t10 10t10 -10zM448 216q0 -10 -10 -10t-10 10t10 10t10 -10zM484 171
q0 -10 -10 -10t-10 10t10 10t10 -10zM151 486q0 -10 -10 -10t-10 10t10 10t10 -10zM1204 -1h-1214v12h157q-3 5 0 10t9 5q4 0 9 -3.5t0 -11.5h27q-6 3 -6 9q0 10 10 10t10 -10q0 -6 -5 -9h344q-3 5 0 10t9 5t9 -4.5t0 -10.5h27q-6 3 -6 9q0 10 10 10t10 -10q0 -6 -5 -9h344
q-4 4 0 9.5t9 5.5t7 -2q7 -6 2 -13h27q-6 3 -6 9q0 10 10 10t10 -10q0 -6 -5 -9h207v-12zM425 183q0 -10 -10 -10t-10 10t10 10t10 -10zM482 131q0 -10 -10 -10t-10 10t10 10t10 -10zM143 447q0 -10 -10 -10t-10 10t10 10t10 -10zM484 91q0 -10 -10 -10t-10 10t10 10t10 -10
zM401 151q0 -10 -10 -10t-10 10t10 10t10 -10zM497 53q0 -10 -10 -10t-10 10t10 10t10 -10zM526 27q0 -10 -10 -10t-10 10t10 10t10 -10zM135 407q0 -10 -10 -10q-11 0 -11 10t11 10q10 0 10 -10zM374 122q0 -10 -10 -10t-10 10t10 10t10 -10zM118 329q0 -10 -10 -10t-10 10
t10 10t10 -10zM346 94q0 -10 -10 -10t-10 10t10 10t10 -10zM110 289q0 -10 -10 -10t-10 10t10 10t10 -10zM315 69q0 -10 -10 -10t-10 10t10 10t10 -10zM101 249q0 -10 -10 -10t-10 10t10 10t10 -10zM281 47q0 -10 -10 -10t-10 10t10 10t10 -10zM92 210q0 -10 -10 -10t-10 10
t10 10t10 -10zM245 31q0 -10 -10 -10t-10 10t10 10t10 -10zM86 171q0 -10 -10 -10t-10 10t10 10t10 -10zM84 131q0 -10 -10 -10t-10 10t10 10t10 -10zM86 91q0 -10 -10 -10t-10 10t10 10t10 -10zM99 53q0 -10 -10 -10t-10 10t10 10t10 -10zM128 27q0 -10 -10 -10t-10 10
t10 10t10 -10z" />
    <glyph glyph-name="scaron" unicode="&#x161;" horiz-adv-x="761" 
d="M858 233q0 -10 -10 -10t-10 10t10 10t10 -10zM845 190q0 -10 -10 -10t-10 10t10 10t10 -10zM826 152q0 -10 -10 -10t-10 10t10 10t10 -10zM627 312q0 -10 -10 -10t-10 10t10 10t10 -10zM805 115q0 -10 -10 -10t-10 10t10 10t10 -10zM616 269q0 -10 -10 -10t-10 10t10 10
t10 -10zM781 81q0 -10 -10 -10t-10 10t10 10t10 -10zM602 230q0 -10 -10 -10t-10 10t10 10t10 -10zM752 51q0 -10 -10 -10t-10 10t10 10t10 -10zM596 190q0 -10 -10 -10l-6 2l-4 -1q-10 0 -10 10t10 10l6 -2l4 1q10 0 10 -10zM720 26q0 -10 -10 -10t-10 10t10 10t10 -10z
M761 353h-123q0 -11 -10 -11t-10 11h-238q0 -11 -10 -11t-10 11h-242q3 -5 0 -10t-8 -5q-12 0 -9 15h-111v12h771v-12zM592 150q0 -10 -10 -10t-10 10t10 10t10 -10zM567 152q0 -10 -10 -10t-10 10t10 10t10 -10zM590 110q0 -10 -10 -10t-10 10t10 10t10 -10zM369 312
q0 -10 -10 -10t-10 10t10 10t10 -10zM547 115q0 -10 -10 -10t-10 10t10 10t10 -10zM592 70q0 -10 -10 -10t-10 10t10 10t10 -10zM607 32q0 -10 -10 -10t-10 10t10 10t10 -10zM358 269q0 -10 -10 -10t-10 10t10 10t10 -10zM523 81q0 -10 -10 -10t-10 10t10 10t10 -10z
M344 230q0 -10 -10 -10t-10 10t10 10t10 -10zM494 51q0 -10 -10 -10t-10 10t10 10t10 -10zM338 190q0 -10 -10 -10l-6 2l-4 -1q-10 0 -10 10t10 10l6 -2l4 1q10 0 10 -10zM334 150q0 -10 -10 -10t-10 10t10 10t10 -10zM462 26q0 -10 -10 -10t-10 10t10 10t10 -10zM309 152
q0 -10 -10 -10t-10 10t10 10t10 -10zM332 110q0 -10 -10 -10t-10 10t10 10t10 -10zM110 311q0 -11 -10 -11t-10 11q0 10 10 10t10 -10zM289 115q0 -10 -10 -10t-10 10t10 10t10 -10zM334 70q0 -10 -10 -10t-10 10t10 10t10 -10zM761 -1h-771v12h115q-2 11 10 11t10 -11h21
q-2 11 10 11t10 -11h197q-2 11 10 11t10 -11h21q-2 11 10 11q4 0 7.5 -3.5t2.5 -7.5h197q-2 11 10 11t10 -11h21q-1 4 2.5 7.5t7.5 3.5q12 0 10 -11h79v-12zM349 32q0 -10 -10 -10t-10 10t10 10t10 -10zM99 270q0 -10 -10 -10t-10 10t10 10t10 -10zM265 81q0 -10 -10 -10
t-10 10t10 10t10 -10zM89 230q0 -10 -10 -10t-10 10t10 10t10 -10zM236 51q0 -10 -10 -10t-10 10t10 10t10 -10zM82 190q0 -10 -10 -10t-10 10t10 10t10 -10zM204 26q0 -10 -10 -10t-10 10t10 10t10 -10zM76 150q0 -10 -10 -10t-10 10t10 10t10 -10zM74 110q0 -10 -10 -10
t-10 10t10 10t10 -10zM76 70q0 -10 -10 -10t-10 10t10 10t10 -10zM91 32q0 -10 -10 -10t-10 10t10 10t10 -10z" />
    <glyph glyph-name="Ydieresis" unicode="&#x178;" horiz-adv-x="437" 
d="M478 168q0 -10 -10 -10t-10 10t10 10t10 -10zM467 132q0 -10 -10 -10t-10 10t10 10t10 -10zM258 326q0 -10 -10 -10t-10 10t10 10t10 -10zM437 353h-447v12h447v-12zM276 292q0 -10 -10 -10t-10 10t10 10t10 -10zM222 341q0 -10 -10 -10t-10 10t10 10t10 -10zM450 98
q0 -10 -10 -10t-10 10t10 10t10 -10zM183 341q0 -10 -10 -10t-10 10t10 10t10 -10zM277 252q0 -10 -10 -10t-10 10t10 10t10 -10zM427 67q0 -10 -10 -10t-10 10t10 10t10 -10zM270 212q0 -10 -10 -10t-10 10t10 10t10 -10zM145 330q0 -10 -10 -10t-10 10t10 10t10 -10z
M399 40q0 -10 -10 -10t-10 10t10 10t10 -10zM263 172q0 -10 -10 -10t-10 10t10 10t10 -10zM114 306q0 -10 -10 -10t-10 10t10 10t10 -10zM255 132q0 -10 -10 -10t-10 10t10 10t10 -10zM364 22q0 -10 -10 -10t-10 10t10 10t10 -10zM89 277q0 -10 -10 -10t-10 10t10 10t10 -10
zM253 92q0 -10 -10 -10t-10 10t10 10t10 -10zM261 53q0 -10 -10 -10t-10 10t10 10t10 -10zM70 242q0 -10 -10 -10t-10 10t10 10t10 -10zM285 23q0 -10 -10 -10t-10 10t10 10t10 -10zM54 206q0 -10 -10 -10t-10 10t10 10t10 -10zM437 -1h-447v12h315q-3 5 0 9t9 4
q5 0 8.5 -4.5t0.5 -8.5h114v-12zM41 168q0 -10 -10 -10t-10 10t10 10t10 -10z" />
    <glyph glyph-name="florin" unicode="&#x192;" horiz-adv-x="900" 
d="M117 556l22 31h-22v-31zM60 475v253h102v-109l68 99h440l240 -353v-719h-920v719zM150 657h-33v-58h33v58zM117 669h33v47h-33v-47zM72 669h33v47h-33v-47zM105 657h-33v-58h33v58zM898 11v342h-896v-342h896zM898 -342v341h-896v-341h896zM72 492l33 47v48h-33v-95z
M895 365l-232 341h-426l-232 -341h890z" />
    <glyph glyph-name="circumflex" unicode="&#x2c6;" horiz-adv-x="310" 
d="M336 669q0 -10 -10 -10t-10 10t10 10t10 -10zM363 641q0 -10 -10 -10t-10 10t10 10t10 -10zM296 672q0 -10 -10 -10t-10 10t10 10t10 -10zM366 601q0 -10 -10 -10t-10 10t10 10t10 -10zM359 562q0 -10 -10 -10t-10 10t10 10t10 -10zM262 652q0 -10 -10 -10t-10 10t10 10
t10 -10zM344 526q0 -10 -10 -10t-10 10t10 10t10 -10zM236 624q0 -10 -10 -10t-10 10t10 10t10 -10zM323 492q0 -10 -10 -10t-10 10t10 10t10 -10zM214 592q0 -10 -10 -10t-10 10t10 10t10 -10zM299 462q0 -10 -10 -10t-10 10t10 10t10 -10zM201 555q0 -10 -10 -10t-10 10
t10 10t10 -10zM194 515q0 -10 -10 -10t-10 10t10 10t10 -10zM354 353q0 -10 -10 -10t-10 10t10 10t10 -10zM271 435q0 -10 -10 -10t-10 10t10 10t10 -10zM194 475q0 -10 -10 -10t-10 10t10 10t10 -10zM240 412q0 -10 -10 -10t-10 10t10 10t10 -10zM199 435q0 -10 -10 -10
t-10 10t10 10t10 -10zM206 393q0 -10 -10 -10t-10 10t10 10t10 -10zM269 332q0 -10 -10 -10t-10 10t10 10t10 -10zM167 378q0 -10 -10 -10t-10 10t10 10t10 -10zM230 315q0 -10 -10 -10t-10 10t10 10t10 -10zM310 353h-5l4 -8q0 -10 -10 -10t-10 10l3 8h-73q-2 -9 -10 -9
t-10 9h-114q-5 -7 -9 -7t-9 7h-77v12h116q-3 11 10 11q11 0 10 -11h184v-12zM238 275q0 -10 -10 -10t-10 10t10 10t10 -10zM193 292q0 -10 -10 -10t-10 10t10 10t10 -10zM242 235q0 -10 -10 -10t-10 10t10 10t10 -10zM242 195q0 -10 -10 -10t-10 10t10 10t10 -10zM162 268
q0 -10 -10 -10t-10 10t10 10t10 -10zM235 156q0 -10 -10 -10t-10 10t10 10t10 -10zM134 241q0 -10 -10 -10t-10 10t10 10t10 -10zM221 118q0 -10 -10 -10t-10 10t10 10t10 -10zM110 211q0 -10 -10 -10t-10 10t10 10t10 -10zM201 84q0 -10 -10 -10t-10 10t10 10t10 -10z
M90 177q0 -10 -10 -10t-10 10t10 10t10 -10zM175 55q0 -10 -10 -10t-10 10t10 10t10 -10zM75 141q0 -10 -10 -10t-10 10t10 10t10 -10zM141 34q0 -10 -10 -10t-10 10t10 10t10 -10zM69 102q0 -10 -10 -10t-10 10t10 10t10 -10zM310 -1h-320v12h320v-12zM75 62q0 -10 -10 -10
t-10 10t10 10t10 -10zM101 34q0 -10 -10 -10t-10 10t10 10t10 -10z" />
    <glyph glyph-name="tilde" unicode="&#x2dc;" horiz-adv-x="232" 
d="M406 357q0 -10 -10 -10t-10 10t10 10t10 -10zM395 317q0 -10 -10 -10t-10 10t10 10t10 -10zM385 275q0 -10 -10 -10t-10 10t10 10t10 -10zM373 235q0 -10 -10 -10t-10 10t10 10t10 -10zM361 196q0 -10 -10 -10t-10 10t10 10t10 -10zM348 158q0 -10 -10 -10t-10 10t10 10
t10 -10zM232 353h-59q4 -4 0 -9t-9 -5t-9.5 4.5t0.5 9.5h-165v12h242v-12zM164 311q0 -11 -10 -11t-10 11q0 10 10 10t10 -10zM332 120q0 -10 -10 -10t-10 10t10 10t10 -10zM153 270q0 -10 -10 -10t-10 10t10 10t10 -10zM313 85q0 -10 -10 -10t-10 10t10 10t10 -10zM143 230
q0 -10 -10 -10t-10 10t10 10t10 -10zM288 55q0 -10 -10 -10t-10 10t10 10t10 -10zM136 190q0 -10 -10 -10t-10 10t10 10t10 -10zM256 30q0 -10 -10 -10t-10 10t10 10t10 -10zM130 150q0 -10 -10 -10t-10 10t10 10t10 -10zM128 110q0 -10 -10 -10t-10 10t10 10t10 -10z
M130 70q0 -10 -10 -10t-10 10t10 10t10 -10zM145 32q0 -10 -10 -10t-10 10t10 10t10 -10zM232 -1h-242v12h169q0 11 10 11t10 -11h20q0 12 10 12t10 -12h13v-12z" />
    <glyph glyph-name="endash" unicode="&#x2013;" horiz-adv-x="365" 
d="M245 668q0 -10 -10 -10t-10 10t10 10t10 -10zM274 641q0 -10 -10 -10t-10 10t10 10t10 -10zM208 683q0 -10 -10 -10t-10 10t10 10t10 -10zM292 606q0 -10 -10 -10t-10 10t10 10t10 -10zM296 565q0 -10 -10 -10t-10 10t10 10t10 -10zM168 683q0 -10 -10 -10t-10 10t10 10
t10 -10zM291 525q0 -10 -10 -10t-10 10t10 10t10 -10zM131 668q0 -10 -10 -10t-10 10t10 10t10 -10zM276 487q0 -10 -10 -10t-10 10t10 10t10 -10zM102 641q0 -10 -10 -10t-10 10t10 10t10 -10zM255 453q0 -10 -10 -10t-10 10t10 10t10 -10zM84 606q0 -10 -10 -10t-10 10
t10 10t10 -10zM234 419q0 -10 -10 -10t-10 10t10 10t10 -10zM80 565q0 -10 -10 -10t-10 10t10 10t10 -10zM85 525q0 -10 -10 -10t-10 10t10 10t10 -10zM212 385q0 -10 -10 -10t-10 10t10 10t10 -10zM100 487q0 -10 -10 -10t-10 10t10 10t10 -10zM121 453q0 -10 -10 -10
t-10 10t10 10t10 -10zM142 419q0 -10 -10 -10t-10 10t10 10t10 -10zM164 385q0 -10 -10 -10t-10 10t10 10t10 -10zM365 353h-177q-2 -7 -9 -7q-6 0 -10 7h-179v12h375v-12zM212 325q0 -10 -10 -10t-10 10t10 10t10 -10zM234 291q0 -10 -10 -10t-10 10t10 10t10 -10zM255 257
q0 -10 -10 -10t-10 10t10 10t10 -10zM276 223q0 -10 -10 -10t-10 10t10 10t10 -10zM164 325q0 -10 -10 -10t-10 10t10 10t10 -10zM291 185q0 -10 -10 -10t-10 10t10 10t10 -10zM296 145q0 -10 -10 -10t-10 10t10 10t10 -10zM142 291q0 -10 -10 -10t-10 10t10 10t10 -10z
M292 104q0 -10 -10 -10t-10 10t10 10t10 -10zM121 257q0 -10 -10 -10t-10 10t10 10t10 -10zM274 69q0 -10 -10 -10t-10 10t10 10t10 -10zM100 223q0 -10 -10 -10t-10 10t10 10t10 -10zM245 42q0 -10 -10 -10t-10 10t10 10t10 -10zM85 185q0 -10 -10 -10t-10 10t10 10t10 -10
zM208 27q0 -10 -10 -10t-10 10t10 10t10 -10zM80 145q0 -10 -10 -10t-10 10t10 10t10 -10zM168 27q0 -10 -10 -10t-10 10t10 10t10 -10zM84 104q0 -10 -10 -10t-10 10t10 10t10 -10zM365 -1h-375v12h375v-12zM102 69q0 -10 -10 -10t-10 10t10 10t10 -10zM131 42
q0 -10 -10 -10t-10 10t10 10t10 -10z" />
    </font>
</defs>
</svg>
