<?xml version="1.0" encoding="UTF-8" standalone="no"?>
<!-- Created with Inkscape (http://www.inkscape.org/) -->

<svg
   xmlns:dc="http://purl.org/dc/elements/1.1/"
   xmlns:cc="http://creativecommons.org/ns#"
   xmlns:rdf="http://www.w3.org/1999/02/22-rdf-syntax-ns#"
   xmlns:svg="http://www.w3.org/2000/svg"
   xmlns="http://www.w3.org/2000/svg"
   version="1.1"
   width="16"
   height="16"
   id="svg3050">
  <defs
     id="defs3052">
</defs>
  <metadata
     id="metadata3055">
    <rdf:RDF>
      <cc:Work
         rdf:about="">
        <dc:format>image/svg+xml</dc:format>
        <dc:type
           rdf:resource="http://purl.org/dc/dcmitype/StillImage" />
        <dc:title></dc:title>
      </cc:Work>
    </rdf:RDF>
  </metadata>
  <g
     id="layer1">
    <path
       d="M 9.0000002,16 H 1 C 0.5,16 0,15.5 0,15 V 1.0000002 c 0,-0.5 0.5,-1 1,-1 h 8.0000002 v 2 H 3 c -0.6,0 -1,0.4 -1,1 V 13 c 0,0.6 0.4,1 1,1 h 6.0000002 v 2 z M 16,5.2000002 C 16,7.1000002 14.4,8.7 12.5,8.7 12.1,8.7 11.8,8.6 11.5,8.5000002 L 10,10 H 9.0000002 v 1 l 0,0 h -1 v 1 l 0,0 H 5 V 10 L 9.1000002,5.9000002 c -0.1,-0.2 -0.1,-0.4 -0.1,-0.7 0,-1.9 1.5999998,-3.5 3.4999998,-3.5 1.9,0 3.5,1.6 3.5,3.5 z m -1.5,-1.2 c 0,-0.6 -0.4,-1 -1,-1 -0.6,0 -1,0.4 -1,1 0,0.6 0.4,1 1,1 0.5,0 1,-0.4 1,-1 z"
       id="path3062"
       style="fill:#ffffff" />
  </g>
</svg>
