<?xml version="1.0" encoding="utf-8"?>
<!-- Generator: Adobe Illustrator 15.1.0, SVG Export Plug-In . SVG Version: 6.00 Build 0)  -->
<!DOCTYPE svg PUBLIC "-//W3C//DTD SVG 1.1//EN" "http://www.w3.org/Graphics/SVG/1.1/DTD/svg11.dtd">
<svg version="1.1" id="Ebene_1" xmlns="http://www.w3.org/2000/svg" xmlns:xlink="http://www.w3.org/1999/xlink" x="0px" y="0px"
	 width="16px" height="16px" viewBox="0 0 16 16" enable-background="new 0 0 16 16" xml:space="preserve">
<path fill="#FFFFFF" d="M9,16H1c-0.5,0-1-0.5-1-1V1c0-0.5,0.5-1,1-1h8v2H3C2.4,2,2,2.4,2,3v10c0,0.6,0.4,1,1,1h6V16z M15,6.5h-4.7
	l1-1c0.4-0.4,0.4-1,0-1.4l-0.7-0.7C10.2,3,9.6,3,9.2,3.4l-4,4c-0.4,0.4-0.4,1,0,1.4l4,4c0.399,0.4,1,0.4,1.399,0l0.7-0.7
	c0.4-0.399,0.4-1,0-1.399L10.2,9.6H15c0.5,0,1-0.399,1-1v-1C16,7,15.5,6.5,15,6.5z"/>
</svg>
