<?xml version="1.0" encoding="utf-8"?>
<!-- Generator: Adobe Illustrator 15.1.0, SVG Export Plug-In . SVG Version: 6.00 Build 0)  -->
<!DOCTYPE svg PUBLIC "-//W3C//DTD SVG 1.1//EN" "http://www.w3.org/Graphics/SVG/1.1/DTD/svg11.dtd">
<svg version="1.1" id="Ebene_1" xmlns="http://www.w3.org/2000/svg" xmlns:xlink="http://www.w3.org/1999/xlink" x="0px" y="0px"
	 width="16px" height="16px" viewBox="0 0 16 16" enable-background="new 0 0 16 16" xml:space="preserve">
<path fill="#FFFFFF" d="M9,16H1c-0.5,0-1-0.5-1-1V1c0-0.5,0.5-1,1-1h8v2H3C2.4,2,2,2.4,2,3v10c0,0.6,0.4,1,1,1h6V16z M16,5.2
	c0,1.9-1.6,3.5-3.5,3.5c-0.4,0-0.7-0.101-1-0.2L10,10H9v1l0,0H8v1l0,0H5v-2l4.1-4.1C9,5.7,9,5.5,9,5.2c0-1.9,1.6-3.5,3.5-3.5
	S16,3.3,16,5.2z M14.5,4c0-0.6-0.4-1-1-1s-1,0.4-1,1s0.4,1,1,1C14,5,14.5,4.6,14.5,4z"/>
</svg>
