<?xml version="1.0" encoding="UTF-8" standalone="no"?>
<svg
   xmlns:dc="http://purl.org/dc/elements/1.1/"
   xmlns:cc="http://creativecommons.org/ns#"
   xmlns:rdf="http://www.w3.org/1999/02/22-rdf-syntax-ns#"
   xmlns:svg="http://www.w3.org/2000/svg"
   xmlns="http://www.w3.org/2000/svg"
   xmlns:sodipodi="http://sodipodi.sourceforge.net/DTD/sodipodi-0.dtd"
   xmlns:inkscape="http://www.inkscape.org/namespaces/inkscape"
   width="12"
   height="12"
   viewBox="0 0 12 12"
   preserveAspectRatio="xMinYMid meet"
   overflow="visible"
   id="svg2995"
   version="1.1"
   inkscape:version="0.48.2 r9819"
   sodipodi:docname="edit.svg">
  <metadata
     id="metadata3003">
    <rdf:RDF>
      <cc:Work
         rdf:about="">
        <dc:format>image/svg+xml</dc:format>
        <dc:type
           rdf:resource="http://purl.org/dc/dcmitype/StillImage" />
        <dc:title></dc:title>
      </cc:Work>
    </rdf:RDF>
  </metadata>
  <defs
     id="defs3001" />
  <sodipodi:namedview
     pagecolor="#ffffff"
     bordercolor="#666666"
     borderopacity="1"
     objecttolerance="10"
     gridtolerance="10"
     guidetolerance="10"
     inkscape:pageopacity="0"
     inkscape:pageshadow="2"
     inkscape:window-width="1680"
     inkscape:window-height="988"
     id="namedview2999"
     showgrid="false"
     inkscape:zoom="19.666667"
     inkscape:cx="-3.7372881"
     inkscape:cy="6"
     inkscape:window-x="1272"
     inkscape:window-y="-8"
     inkscape:window-maximized="1"
     inkscape:current-layer="svg2995" />
  <path
     d="M11.9 7c.1-.3.1-.7.1-1 0-.3 0-.7-.1-1l-1.6-.3c-.1-.3-.2-.6-.4-.9l.9-1.3c-.3-.5-.8-1-1.3-1.4l-1.4.9c-.2-.1-.5-.2-.8-.3l-.3-1.6c-.3-.1-.7-.1-1-.1-.3 0-.7 0-1 .1l-.3 1.6-.9.3-1.3-.9c-.5.4-1 .9-1.4 1.4l.9 1.3-.3.9-1.6.3c-.1.3-.1.7-.1 1 0 .3 0 .7.1 1l1.6.3c.1.3.2.6.3.8l-.9 1.4c.4.5.9 1 1.4 1.4l1.3-.9.9.4.3 1.5c.3.1.7.1 1 .1.3 0 .7 0 1-.1l.3-1.6c.3-.1.6-.2.9-.4l1.3.9c.5-.4 1-.9 1.4-1.4l-1-1.3.4-.9 1.6-.2zm-5.9.5c-.8 0-1.5-.7-1.5-1.5s.7-1.5 1.5-1.5 1.5.7 1.5 1.5-.7 1.5-1.5 1.5z"
     fill="#2fa4e7"
     id="path2997"
     style="fill:#e6e6e6;fill-opacity:1" />
</svg>
