<?xml version="1.0" encoding="UTF-8" standalone="no"?>
<!-- Created with Inkscape (http://www.inkscape.org/) -->

<svg
   xmlns:dc="http://purl.org/dc/elements/1.1/"
   xmlns:cc="http://creativecommons.org/ns#"
   xmlns:rdf="http://www.w3.org/1999/02/22-rdf-syntax-ns#"
   xmlns:svg="http://www.w3.org/2000/svg"
   xmlns="http://www.w3.org/2000/svg"
   xmlns:sodipodi="http://sodipodi.sourceforge.net/DTD/sodipodi-0.dtd"
   xmlns:inkscape="http://www.inkscape.org/namespaces/inkscape"
   width="16px"
   height="16px"
   id="svg3069"
   version="1.1"
   inkscape:version="0.48.0 r9654"
   sodipodi:docname="withpassword.svg">
  <defs
     id="defs3071">
</defs>
  <sodipodi:namedview
     id="base"
     pagecolor="#ffffff"
     bordercolor="#666666"
     borderopacity="1.0"
     inkscape:pageopacity="0.0"
     inkscape:pageshadow="2"
     inkscape:zoom="22.197802"
     inkscape:cx="8"
     inkscape:cy="8"
     inkscape:current-layer="layer1"
     showgrid="true"
     inkscape:grid-bbox="true"
     inkscape:document-units="px"
     inkscape:window-width="959"
     inkscape:window-height="677"
     inkscape:window-x="275"
     inkscape:window-y="275"
     inkscape:window-maximized="0" />
  <metadata
     id="metadata3074">
    <rdf:RDF>
      <cc:Work
         rdf:about="">
        <dc:format>image/svg+xml</dc:format>
        <dc:type
           rdf:resource="http://purl.org/dc/dcmitype/StillImage" />
        <dc:title></dc:title>
      </cc:Work>
    </rdf:RDF>
  </metadata>
  <g
     id="layer1"
     inkscape:label="Layer 1"
     inkscape:groupmode="layer">
    <path
       id="path3081"
       d="m 3.4,9.0000003 c 0,0 -1.4,-1.8 -1.4,-3.8 0,-2.9 1.8,-5.2 4,-5.2 2.2,0 4,2.3 4,5.2 0,0.1 0,0.1 0,0.2 -1.1999996,0.8 -2,2.2 -2,3.8 0,0.1 0,0.2 0,0.4 L 4,13.6 V 16 H 0 V 12 L 3.2,10.3 C 3.7,10 3.8,9.5000003 3.4,9.0000003 z M 11.8,13.6 10.4,15 H 10 v 0.4 l -0.5999996,0.6 -0.4,0 H 12 V 13.7 C 11.9,13.6 11.8,13.6 11.8,13.6 z M 16,9.2000003 C 16,11.1 14.4,12.7 12.5,12.7 c -0.4,0 -0.7,-0.1 -1,-0.2 L 10,14 H 9.0000004 v 1 l 0,0 H 8 v 1 l 0,0 H 5 V 14 L 9.1000004,9.9000003 c -0.1,-0.3 -0.1,-0.5 -0.1,-0.7 0,-1.9 1.5999996,-3.5 3.4999996,-3.5 1.9,0 3.5,1.5 3.5,3.5 z m -1.5,-1.2 c 0,-0.6 -0.4,-1 -1,-1 -0.6,0 -1,0.4 -1,1 0,0.6 0.4,1 1,1 0.5,0 1,-0.5 1,-1 z"
       style="fill:#ffffff"
       inkscape:connector-curvature="0" />
  </g>
</svg>
