<?xml version="1.0" encoding="utf-8"?>
<!-- Generator: Adobe Illustrator 15.1.0, SVG Export Plug-In . SVG Version: 6.00 Build 0)  -->
<!DOCTYPE svg PUBLIC "-//W3C//DTD SVG 1.1//EN" "http://www.w3.org/Graphics/SVG/1.1/DTD/svg11.dtd">
<svg version="1.1" id="Ebene_1" xmlns="http://www.w3.org/2000/svg" xmlns:xlink="http://www.w3.org/1999/xlink" x="0px" y="0px"
	 width="16px" height="16px" viewBox="0 0 16 16" enable-background="new 0 0 16 16" xml:space="preserve">
<path fill="#FFFFFF" d="M3.4,9C3.4,9,2,7.2,2,5.2C2,2.3,3.8,0,6,0s4,2.3,4,5.2c0,0.1,0,0.1,0,0.2C8.8,6.2,8,7.6,8,9.2
	C8,9.3,8,9.4,8,9.6l-4,4V16H0v-4l3.2-1.7C3.7,10,3.8,9.5,3.4,9z M11.8,13.6L10.4,15H10v0.4L9.4,16H9h3v-2.3
	C11.9,13.6,11.8,13.6,11.8,13.6z M16,9.2c0,1.899-1.6,3.5-3.5,3.5c-0.4,0-0.7-0.101-1-0.2L10,14H9v1l0,0H8v1l0,0H5v-2l4.1-4.1
	C9,9.6,9,9.4,9,9.2c0-1.9,1.6-3.5,3.5-3.5S16,7.2,16,9.2z M14.5,8c0-0.6-0.4-1-1-1s-1,0.4-1,1c0,0.6,0.4,1,1,1C14,9,14.5,8.5,14.5,8
	z"/>
</svg>
