<?xml version="1.0" standalone="no"?>
<!DOCTYPE svg PUBLIC "-//W3C//DTD SVG 1.1//EN" "http://www.w3.org/Graphics/SVG/1.1/DTD/svg11.dtd" >
<svg xmlns="http://www.w3.org/2000/svg">
<metadata></metadata>
<defs>
<font id="schulbuchbayerncompregular" horiz-adv-x="1138" >
<font-face units-per-em="2048" ascent="1522" descent="-526" />
<missing-glyph horiz-adv-x="540" />
<glyph unicode="&#xfb01;" horiz-adv-x="1050" d="M25 801v151h149v248q0 137 66.5 202.5t226.5 65.5q25 0 44 -1t36 -3v-174q-16 2 -33 2h-33q-66 0 -89 -26.5t-23 -110.5v-203h180v-151h-180v-801h-195v801h-149zM707 1122q0 45 32.5 78t77.5 33t78 -33t33 -78t-32.5 -77.5t-78.5 -32.5q-45 0 -77.5 32.5t-32.5 77.5z M717 0v887h201v-887h-201z" />
<glyph unicode="&#xfb02;" horiz-adv-x="1116" d="M25 801v151h149v248q0 137 66.5 202.5t226.5 65.5q25 0 44 -1t36 -3v-174q-16 2 -33 2h-33q-66 0 -89 -26.5t-23 -110.5v-203h180v-151h-180v-801h-195v801h-149zM717 190v1278h195v-1255q0 -49 25.5 -68.5t86.5 -19.5h45v-154q-51 -10 -118 -10q-127 0 -180.5 54.5 t-53.5 174.5z" />
<glyph horiz-adv-x="0" />
<glyph unicode="&#xd;" horiz-adv-x="540" />
<glyph unicode=" "  horiz-adv-x="540" />
<glyph unicode="&#x09;" horiz-adv-x="540" />
<glyph unicode="&#xa0;" horiz-adv-x="540" />
<glyph unicode="!" horiz-adv-x="690" d="M213 131q0 23 7 46.5t23.5 44t41 32.5t61.5 12q51 0 93 -36t42 -99q0 -18 -7 -40.5t-22.5 -42t-42 -34t-63.5 -14.5q-45 0 -89 31.5t-44 99.5zM236 1001v467h219v-467l-56 -643h-108z" />
<glyph unicode="&#x22;" horiz-adv-x="845" d="M152 1468h192l-31 -589h-129zM498 1468h196l-32 -589h-130z" />
<glyph unicode="#" d="M-4 426l33 123h227l92 338h-227l33 123h227l111 403h155l-110 -403h213l112 403h154l-111 -403h228l-33 -123h-228l-94 -338h230l-33 -123h-225l-117 -426h-156l115 426h-213l-115 -426h-155l114 426h-227zM414 549h211l92 338h-213z" />
<glyph unicode="$" d="M66 438h190q2 -63 13.5 -117.5t39 -96.5t77.5 -68.5t130 -34.5v528q-92 20 -170 49t-134 75t-87 115t-31 167q0 57 19.5 126.5t67.5 129t130 100.5t207 45v133h94v-131q82 -6 157 -29.5t132 -70.5t92 -120t39 -175h-186q-8 92 -63.5 159.5t-170.5 71.5v-469 q109 -31 194 -62.5t142.5 -76.5t87 -108.5t29.5 -157.5q0 -90 -20.5 -168t-72.5 -138.5t-139.5 -100.5t-218.5 -54v-195h-96v195q-129 8 -216 47t-139 102.5t-74.5 147.5t-22.5 182zM285 1071q0 -84 51 -141.5t180 -85.5v454q-63 -4 -107 -23.5t-72 -51t-40 -71.5t-12 -81z M612 119q43 2 89.5 13t84 39t61 76t23.5 126q0 33 -6 66.5t-32.5 66.5t-78 62.5t-141.5 56.5v-506z" />
<glyph unicode="%" horiz-adv-x="1824" d="M72 1044q0 74 27.5 137.5t75.5 111.5t111.5 76t137.5 28t137.5 -28t111.5 -76t75.5 -111.5t27.5 -137.5t-27.5 -137t-75.5 -111t-111.5 -76t-137.5 -28t-137.5 28t-111.5 76t-75.5 111.5t-27.5 136.5zM211 1044q0 -43 16.5 -81.5t46 -67.5t68.5 -45t82 -16t82 16t68.5 45 t46 67.5t16.5 81.5t-16.5 82t-46 69t-68.5 46t-82 16t-82 -16t-68.5 -46t-46 -69t-16.5 -82zM455 -39l800 1464h111l-801 -1464h-110zM1049 350q0 74 27.5 137.5t75.5 111.5t111.5 75.5t137.5 27.5t137.5 -27.5t111.5 -75.5t75.5 -111.5t27.5 -137.5t-27.5 -137 t-75.5 -111.5t-111.5 -76t-137.5 -27.5t-137.5 27.5t-111.5 76t-75.5 111.5t-27.5 137zM1188 350q0 -43 16.5 -82t46 -67.5t68.5 -45t82 -16.5t82 16.5t68.5 45t46 67.5t16.5 82t-16.5 82t-46 68.5t-68.5 46t-82 16.5t-82 -16.5t-68.5 -46t-46 -68.5t-16.5 -82z" />
<glyph unicode="&#x26;" horiz-adv-x="1382" d="M100 371q0 76 17.5 134t57.5 109.5t102.5 99.5t152.5 103q-25 29 -51.5 63.5t-50 75.5t-38 86.5t-14.5 94.5q0 72 26 132t73 104t113.5 68.5t146.5 24.5q68 0 127 -19.5t104 -58t72 -94t27 -127.5q0 -43 -6.5 -85t-33 -89t-77.5 -98t-143 -113l260 -311q23 49 37 103.5 t24 127.5h182q-25 -225 -127 -385l265 -317h-250l-131 162q-27 -29 -63 -62.5t-85 -63.5t-116.5 -50.5t-157.5 -20.5q-129 0 -214 40t-135.5 99.5t-72 131t-21.5 135.5zM297 371q0 -51 19.5 -94.5t55.5 -75t83 -49t102 -17.5q76 0 153.5 31t149.5 125l-323 395 q-113 -72 -176.5 -140.5t-63.5 -174.5zM465 1155q0 -25 5 -48.5t20.5 -51t42 -63.5t71.5 -87q86 57 133 116.5t47 133.5q0 20 -6 47t-23.5 50.5t-47 40t-74.5 16.5q-78 0 -123 -41t-45 -113z" />
<glyph unicode="'" horiz-adv-x="491" d="M147 1468h195l-35 -589h-125z" />
<glyph unicode="(" horiz-adv-x="681" d="M135 526q0 119 13.5 222.5t50.5 214t103.5 237.5t174.5 293h129q-55 -109 -105 -207t-87 -206.5t-58.5 -238.5t-21.5 -302q0 -121 10 -224.5t41 -212t84 -233.5t139 -287h-127q-82 117 -146.5 229.5t-108.5 228.5t-67.5 236.5t-23.5 249.5z" />
<glyph unicode=")" horiz-adv-x="681" d="M61 1493h136q70 -111 133 -215t110 -216t75 -236t28 -275q0 -137 -18.5 -252t-58.5 -226.5t-105.5 -229t-159.5 -261.5h-138q66 127 117 229.5t86 209t53.5 228.5t18.5 290q0 143 -17.5 262t-51 229.5t-86 222t-122.5 240.5z" />
<glyph unicode="*" horiz-adv-x="802" d="M82 1204l41 117l215 -78v227h125v-225l215 76l43 -117l-219 -69l135 -191l-102 -74l-132 193l-135 -193l-104 74l137 191z" />
<glyph unicode="+" horiz-adv-x="1196" d="M74 537v182h432v434h184v-434h432v-182h-432v-435h-184v435h-432z" />
<glyph unicode="," horiz-adv-x="577" d="M145 131q0 16 5.5 39t20.5 44.5t41 36.5t67 15q33 0 58 -13t41.5 -32.5t26 -44t9.5 -47.5v-109q0 -135 -53.5 -224t-176.5 -105v96q55 10 86 62.5t33 150.5h-41q-41 0 -79 35t-38 96z" />
<glyph unicode="-" horiz-adv-x="675" d="M82 426v199h512v-199h-512z" />
<glyph unicode="." horiz-adv-x="577" d="M154 131q0 23 7 46.5t23.5 44t41 32.5t61.5 12q51 0 93 -36t42 -99q0 -18 -7 -40.5t-22.5 -42t-42 -34t-63.5 -14.5q-45 0 -89 31.5t-44 99.5z" />
<glyph unicode="/" horiz-adv-x="610" d="M-16 0l479 1468h164l-480 -1468h-163z" />
<glyph unicode="0" d="M74 690q0 369 129 557.5t364 188.5q113 0 205 -41t156.5 -128t100.5 -223.5t36 -326.5q0 -203 -38 -346.5t-105.5 -234.5t-158.5 -133t-198 -42q-111 0 -201 42t-154.5 131t-100 226t-35.5 330zM283 684q0 -549 282 -549q70 0 124 29t91 96.5t56.5 178t19.5 272.5 t-19.5 269t-55.5 169.5t-88 88.5t-118 26t-119 -28t-91.5 -94.5t-60 -178t-21.5 -279.5z" />
<glyph unicode="1" d="M188 1012v147q92 6 157 16.5t110 38t73.5 78.5t49.5 138h153v-1430h-205v1012h-338z" />
<glyph unicode="2" d="M63 0q4 90 19.5 169t53.5 149.5t101.5 133t163.5 121.5l183 107q55 33 103 65.5t82 70.5t53.5 83t19.5 100q0 49 -14.5 96.5t-46 85.5t-82 60.5t-121.5 22.5q-57 0 -107.5 -14.5t-89.5 -53.5t-62.5 -104.5t-25.5 -165.5h-197q2 135 37 231t97.5 159.5t150.5 93.5t197 30 q100 0 187 -28t151.5 -82t101.5 -135t37 -189q0 -68 -17.5 -127.5t-58.5 -114.5t-110.5 -110.5t-176.5 -114.5l-135 -76q-63 -35 -108.5 -68t-77 -65.5t-52 -68.5t-32.5 -79h762v-182h-986z" />
<glyph unicode="3" d="M59 440h203q6 -72 21.5 -128t49.5 -95t88 -60.5t134 -21.5q57 0 111.5 16.5t95.5 49t65.5 83t24.5 117.5q0 45 -9 91.5t-43 83t-100.5 60t-183.5 23.5h-33q-16 0 -32 -2v166q20 -4 38 -4h39q123 0 201 50.5t78 174.5q0 39 -13.5 78t-42 71t-74.5 51.5t-114 19.5 q-57 0 -106 -13.5t-86 -47.5t-59.5 -91t-26.5 -145h-189q0 92 22.5 177t76 150.5t140.5 104.5t214 39q211 0 335 -96.5t124 -286.5q0 -41 -8.5 -82t-28 -79t-55 -73t-91.5 -59q41 -12 83 -37t76 -64.5t55.5 -97t21.5 -139.5q0 -90 -30 -173t-93.5 -147.5t-160.5 -103.5 t-232 -39q-129 0 -220.5 38t-149.5 102.5t-86 152.5t-30 186z" />
<glyph unicode="4" d="M51 344v186l641 906h174v-924h205v-168h-205v-344h-194v344h-621zM223 512h449v643z" />
<glyph unicode="5" d="M59 369h203q12 -119 86 -177.5t193 -58.5q129 0 214 80t85 238q0 68 -21.5 124t-60.5 97t-94.5 63.5t-120.5 22.5q-94 0 -157.5 -38t-104.5 -93l-168 10l106 776h752v-184h-606l-60 -387q68 51 130.5 69.5t146.5 18.5q88 0 172 -30t149.5 -88t105.5 -142t40 -193 q0 -111 -34 -204t-100.5 -162.5t-164 -108.5t-226.5 -39q-86 0 -165.5 23.5t-143 74t-105.5 127t-51 181.5z" />
<glyph unicode="6" d="M74 633q0 397 132 603t388 206q119 0 201 -34t133 -89t73.5 -123t24.5 -135h-192q-16 94 -70.5 153.5t-165.5 59.5q-57 0 -112.5 -22.5t-99.5 -81t-75.5 -160t-40.5 -258.5q63 90 154.5 130t185.5 40q74 0 154 -24t145.5 -77t107.5 -142t42 -218q0 -78 -24.5 -165 t-82 -161t-151.5 -123t-234 -49q-92 0 -180 33t-157.5 109.5t-112.5 205.5t-43 322zM293 446q0 -51 13 -106t47 -101t89.5 -76t139.5 -30q55 0 104 18.5t87 56.5t59.5 96t21.5 140q0 135 -66.5 219.5t-214.5 84.5q-119 0 -199.5 -76t-80.5 -226z" />
<glyph unicode="7" d="M72 1219v194h1001v-168q-84 -82 -175 -214t-172 -296t-144.5 -352t-94.5 -383h-213q20 131 64.5 282.5t116 311.5t171 318.5t228.5 306.5h-782z" />
<glyph unicode="8" d="M74 401q0 131 64.5 222.5t176.5 142.5q-37 16 -71.5 39.5t-61 56.5t-42 79.5t-15.5 109.5q0 66 22.5 134t74.5 124.5t138 92.5t211 36q78 0 157 -19.5t142.5 -63.5t103.5 -114t40 -168q0 -37 -5 -76t-23.5 -77.5t-55.5 -76.5t-101 -75q33 -16 74 -41t76 -65.5t59.5 -104 t24.5 -158.5q0 -88 -32 -167.5t-94.5 -140t-154.5 -96.5t-211 -36q-96 0 -186 25.5t-159.5 80t-110.5 138.5t-41 198zM285 401q0 -37 11 -83t43 -88t88 -69.5t148 -27.5q55 0 106.5 14.5t90.5 46t61.5 81t22.5 120.5q0 123 -73.5 200t-217.5 77q-41 0 -90 -11.5t-91 -42 t-70.5 -83t-28.5 -134.5zM326 1047q0 -37 13 -74t42 -68t75 -50t111 -19q47 0 91 12t78 38.5t54.5 68.5t20.5 100q0 25 -9 61.5t-36 69.5t-75 56.5t-128 23.5q-47 0 -89 -11.5t-75.5 -38t-53 -67.5t-19.5 -102z" />
<glyph unicode="9" d="M84 942q0 84 24.5 172t80 160t145.5 118t221 46q111 0 203 -37t158.5 -119t103.5 -210t37 -312q0 -160 -29 -304.5t-91.5 -255t-162.5 -176t-242 -65.5q-102 0 -182 28.5t-134 81t-83 122t-31 153.5h197q6 -94 61.5 -157.5t167.5 -63.5q49 0 99.5 15.5t95.5 69.5 t81 157.5t58 279.5q-20 -29 -47 -57.5t-65.5 -52t-92 -39t-127.5 -15.5q-78 0 -156.5 23.5t-143 78t-105.5 142.5t-41 217zM285 948q0 -43 7 -95t34.5 -96t83 -75t149.5 -31q45 0 94 13.5t89 47t66 93t26 151.5q0 156 -77 232t-196 76q-123 0 -199.5 -83t-76.5 -233z" />
<glyph unicode=":" horiz-adv-x="636" d="M184 131q0 23 7.5 46.5t23.5 44t41 32.5t61 12q51 0 93.5 -36t42.5 -99q0 -18 -7.5 -40.5t-22.5 -42t-42 -34t-64 -14.5q-45 0 -89 31.5t-44 99.5zM184 756q0 23 7.5 46t23.5 43.5t41 33t61 12.5q51 0 93.5 -36t42.5 -99q0 -18 -7.5 -41t-22.5 -42.5t-42 -33.5t-64 -14 q-45 0 -89 31.5t-44 99.5z" />
<glyph unicode=";" horiz-adv-x="636" d="M184 131q0 16 5.5 39t20.5 44.5t40.5 36.5t66.5 15q33 0 58.5 -13t42 -32.5t26 -44t9.5 -47.5v-109q0 -135 -53.5 -224t-176.5 -105v96q55 10 86 62.5t33 150.5h-41q-41 0 -79 35t-38 96zM184 756q0 23 7.5 46t23.5 43.5t41 33t61 12.5q51 0 93.5 -36t42.5 -99 q0 -18 -7.5 -41t-22.5 -42.5t-42 -33.5t-64 -14q-45 0 -89 31.5t-44 99.5z" />
<glyph unicode="&#x3c;" horiz-adv-x="1196" d="M14 539v178l1168 459v-195l-938 -354l938 -351v-194z" />
<glyph unicode="=" horiz-adv-x="1196" d="M74 317v185h1048v-185h-1048zM74 754v182h1048v-182h-1048z" />
<glyph unicode="&#x3e;" horiz-adv-x="1196" d="M14 84v195l938 350l-938 354v195l1168 -459v-180z" />
<glyph unicode="?" horiz-adv-x="1243" d="M152 1010q0 104 30.5 192t90 151.5t144.5 99.5t195 36q94 0 176 -28.5t142.5 -81t94.5 -127t34 -169.5q0 -47 -7.5 -82.5t-27.5 -70.5t-54 -74t-87 -94l-103 -105q-51 -51 -71.5 -110.5t-20.5 -163.5h-190q0 70 6 123t25.5 100t54 93t94.5 106l78 78q31 31 64.5 77 t33.5 123q0 111 -59.5 173.5t-186.5 62.5q-135 0 -195.5 -78t-68.5 -231h-192zM465 131q0 23 7 46.5t23.5 44t41 32.5t61.5 12q51 0 93 -36t42 -99q0 -18 -7 -40.5t-22.5 -42t-42 -34t-63.5 -14.5q-45 0 -89 31.5t-44 99.5z" />
<glyph unicode="@" horiz-adv-x="2048" d="M211 489q0 160 59.5 305.5t171 257t274.5 178t369 66.5q168 0 306.5 -43t236.5 -122.5t152.5 -195.5t54.5 -261q0 -109 -35 -208t-95 -175t-141 -122t-173 -46q-96 0 -144.5 47t-48.5 115v20v12q-43 -88 -111 -139q-72 -55 -182 -55q-59 0 -109.5 22.5t-87 64.5 t-58 101.5t-21.5 130.5q0 82 29.5 170t85 162t131 122t167.5 48q84 0 155 -47t81 -147l49 161h152l-131 -438q-8 -25 -18.5 -58.5t-10.5 -74.5q0 -29 16.5 -57.5t71.5 -28.5q51 0 103.5 30.5t94.5 86t67.5 134.5t25.5 177q0 119 -44 210t-123 153.5t-188.5 95.5t-238.5 33 q-184 0 -325.5 -54.5t-235.5 -147.5t-142.5 -219t-48.5 -270q0 -115 40 -226.5t126 -199.5t220 -141t323 -53q47 0 107.5 4t132 23.5t154.5 58.5t175 106l68 -92q-45 -37 -110.5 -77t-150.5 -71.5t-185.5 -52t-213.5 -20.5q-184 0 -336.5 55.5t-261 153.5t-169 235 t-60.5 303zM801 436q0 -102 46 -148t103 -46q68 0 121 48t88 116.5t53.5 144.5t18.5 129q0 20 -8.5 48t-25.5 51.5t-46 40t-72 16.5q-59 0 -109 -39t-88 -97.5t-59.5 -129.5t-21.5 -134z" />
<glyph unicode="A" horiz-adv-x="1269" d="M29 0l495 1468h242l475 -1468h-235l-121 369h-502l-133 -369h-221zM446 543h381l-192 692z" />
<glyph unicode="B" horiz-adv-x="1300" d="M154 0v1468h530q225 0 344 -95t119 -269q0 -102 -42 -179t-153 -134q137 -49 199.5 -136.5t62.5 -224.5q0 -94 -34.5 -173t-101 -136.5t-162 -89t-218.5 -31.5h-544zM360 182h338q141 0 222 65.5t81 194.5q0 115 -76.5 176.5t-254.5 61.5h-310v-498zM360 854h281 q156 0 224.5 55.5t68.5 167.5q0 111 -65.5 162t-229.5 51h-279v-436z" />
<glyph unicode="C" horiz-adv-x="1337" d="M82 745q0 154 41 292.5t121 242.5t196.5 164.5t268.5 60.5q104 0 196 -33.5t162 -95t116 -146.5t58 -188h-213q-35 121 -113.5 198t-214.5 77q-90 0 -162.5 -40t-126 -117t-82 -188.5t-28.5 -254.5q0 -137 30.5 -242.5t85 -176.5t129.5 -107.5t161 -36.5q133 0 216 101 t117 261h213q-14 -113 -60 -213t-120 -176t-174 -120t-223 -44q-129 0 -237.5 52.5t-188.5 152.5t-124 245.5t-44 331.5z" />
<glyph unicode="D" horiz-adv-x="1353" d="M154 0v1468h485q137 0 252 -46t197.5 -135t128 -222t45.5 -305t-42 -311.5t-122 -239.5t-195 -154.5t-262 -54.5h-487zM367 182h235q203 0 321.5 137.5t118.5 407.5q0 295 -115.5 428t-326.5 133h-233v-1106z" />
<glyph unicode="E" horiz-adv-x="1189" d="M154 0v1468h915v-190h-704v-426h639v-182h-639v-484h722v-186h-933z" />
<glyph unicode="F" horiz-adv-x="1099" d="M154 0v1468h874v-190h-659v-430h583v-186h-583v-662h-215z" />
<glyph unicode="G" horiz-adv-x="1349" d="M82 717q0 162 43 306t124 250.5t197.5 169t262.5 62.5q113 0 198.5 -37.5t147 -101t100.5 -146.5t55 -176h-211q-31 121 -108.5 197t-194.5 76q-92 0 -165.5 -45t-124 -124t-77 -187.5t-26.5 -235.5q0 -281 109.5 -429.5t296.5 -148.5q92 0 175 45.5t136 133.5v284h-293 v176h479v-786h-184v100q-63 -55 -141 -96t-197 -41q-125 0 -234.5 50t-191.5 147.5t-129 238t-47 318.5z" />
<glyph unicode="H" horiz-adv-x="1341" d="M154 0v1468h217v-600h602v600h215v-1468h-215v682h-602v-682h-217z" />
<glyph unicode="I" horiz-adv-x="524" d="M154 0v1468h217v-1468h-217z" />
<glyph unicode="J" horiz-adv-x="1007" d="M72 326v118h204v-118q0 -92 43 -137.5t150 -45.5q98 0 140 76t42 264v985h213v-1028q0 -240 -101 -359.5t-294 -119.5q-80 0 -152.5 16.5t-127 58.5t-86 111.5t-31.5 178.5z" />
<glyph unicode="K" horiz-adv-x="1308" d="M154 0v1468h211v-591l571 591h268l-688 -690l772 -778h-289l-634 655v-655h-211z" />
<glyph unicode="L" horiz-adv-x="1099" d="M154 0v1468h215v-1282h659v-186h-874z" />
<glyph unicode="M" horiz-adv-x="1617" d="M154 0v1468h307l352 -1077l348 1077h303v-1468h-202v885q0 92 2 175t2 179l-400 -1239h-112l-402 1239q0 -106 3 -191t3 -163v-885h-204z" />
<glyph unicode="N" horiz-adv-x="1417" d="M154 0v1468h247l658 -1167v1167h205v-1468h-236l-672 1169v-1169h-202z" />
<glyph unicode="O" horiz-adv-x="1419" d="M82 729q0 176 47 319.5t131 245t199.5 156.5t251.5 55q135 0 249.5 -55t198.5 -156.5t131 -245t47 -319.5t-45 -317.5t-127 -241.5t-197.5 -154.5t-256.5 -54.5t-258 54.5t-199 154.5t-127 241.5t-45 317.5zM293 719q0 -127 27.5 -231.5t82 -179.5t132 -115.5 t178.5 -40.5q98 0 175 40.5t130 115.5t80.5 179.5t27.5 231.5q0 131 -29.5 240.5t-85 188.5t-132 122t-168.5 43q-94 0 -171 -43t-132.5 -122t-85 -188.5t-29.5 -240.5z" />
<glyph unicode="P" horiz-adv-x="1239" d="M154 0v1468h551q98 0 180 -26.5t140 -80.5t90 -134t32 -185q0 -98 -28.5 -178t-86 -136t-140.5 -88t-192 -32h-331v-608h-215zM369 788h272q152 0 221.5 63.5t69.5 188.5t-68.5 186.5t-222.5 61.5h-272v-500z" />
<glyph unicode="Q" horiz-adv-x="1419" d="M82 729q0 176 47 319.5t131 245t198.5 156.5t252.5 55q135 0 249.5 -55t198.5 -156.5t131 -245t47 -319.5q0 -195 -55 -348.5t-158 -255.5l140 -119l-107 -123l-168 144q-121 -66 -278 -66q-141 0 -258 54.5t-199 154.5t-127 241.5t-45 317.5zM293 719 q0 -127 27.5 -231.5t82 -179.5t132 -115.5t178.5 -40.5q57 0 112 16l-118 102l106 125l162 -139q74 74 112.5 191.5t38.5 271.5q0 131 -29.5 240.5t-85 188.5t-132 122t-168.5 43q-94 0 -171 -43t-132.5 -122t-85 -188.5t-29.5 -240.5z" />
<glyph unicode="R" horiz-adv-x="1271" d="M154 0v1468h557q227 -10 332.5 -116.5t105.5 -280.5q0 -109 -41 -191.5t-110.5 -140t-159.5 -87t-189 -29.5h-65l592 -623h-273l-536 575v-575h-213zM367 801h309q133 0 194.5 62.5t61.5 185.5q0 117 -61.5 178t-178.5 61h-325v-487z" />
<glyph unicode="S" horiz-adv-x="1234" d="M82 426h205q20 -135 107 -210t243 -75q139 0 213 61.5t74 159.5q0 57 -15.5 98.5t-53.5 73t-101.5 58t-157.5 57.5q-115 37 -200 75t-142 86t-85 109.5t-28 147.5q0 90 31 170t92.5 140.5t153.5 95t215 34.5q102 0 188 -33.5t149.5 -93t101.5 -141.5t46 -180h-205 q-16 117 -94 188.5t-201 71.5q-125 0 -196.5 -51t-71.5 -150q0 -59 12.5 -99t46 -72t92 -57.5t152.5 -55.5q115 -37 204 -75t150.5 -86t93.5 -110.5t32 -148.5q0 -92 -31 -174t-92.5 -143.5t-154.5 -98.5t-218 -37q-121 0 -220.5 33t-171 92t-113.5 145t-50 195z" />
<glyph unicode="T" horiz-adv-x="1093" d="M33 1282v186h1028v-186h-406v-1282h-217v1282h-405z" />
<glyph unicode="U" horiz-adv-x="1359" d="M154 598v870h219v-909q0 -197 77.5 -304.5t215.5 -107.5q156 0 238.5 100.5t82.5 311.5v909h219v-870q0 -324 -136 -480.5t-386 -156.5q-254 0 -392 155.5t-138 481.5z" />
<glyph unicode="V" horiz-adv-x="1193" d="M41 1468h235l318 -1232l324 1232h235l-448 -1468h-224z" />
<glyph unicode="W" horiz-adv-x="1886" d="M51 1468h232l215 -931l55 -246l68 248l247 929h150l256 -962l57 -215l49 217l224 960h231l-389 -1468h-221l-271 997l-12 62l-12 -62l-271 -997h-219z" />
<glyph unicode="X" horiz-adv-x="1271" d="M41 0l463 754l-445 714h265l317 -548l317 548h254l-446 -712l465 -756h-264l-334 590l-336 -590h-256z" />
<glyph unicode="Y" horiz-adv-x="1267" d="M20 1468h246l369 -626l364 626h248l-506 -815v-653h-215v653z" />
<glyph unicode="Z" horiz-adv-x="1280" d="M72 0v178l862 1104h-803v186h1049v-198l-838 -1084h856v-186h-1126z" />
<glyph unicode="[" horiz-adv-x="585" d="M129 -401v1882h399v-158h-215v-1569h215v-155h-399z" />
<glyph unicode="\" horiz-adv-x="610" d="M-16 1468h163l480 -1468h-164z" />
<glyph unicode="]" horiz-adv-x="585" d="M47 -246h215v1571h-215v156h399v-1882h-399v155z" />
<glyph unicode="^" horiz-adv-x="1196" d="M162 604l354 864h162l356 -864h-176l-260 647l-260 -647h-176z" />
<glyph unicode="_" d="M-4 -160h1147v-102h-1147v102z" />
<glyph unicode="`" horiz-adv-x="901" d="M199 1321h237l182 -289h-145z" />
<glyph unicode="a" horiz-adv-x="1112" d="M72 426q0 109 28.5 198t83 153.5t130 99t171.5 34.5q104 0 177 -37.5t137 -115.5v129h180v-887h-178v135q-66 -90 -144.5 -132t-189.5 -42q-70 0 -140.5 28.5t-127 86t-92 144.5t-35.5 206zM276 440q0 -63 20.5 -119.5t55.5 -98.5t83 -66.5t102 -24.5q53 0 100 24.5 t83 66.5t56.5 98.5t20.5 119.5t-20.5 119.5t-56.5 98.5t-83 67t-100 25t-101.5 -25t-83.5 -67t-55.5 -98t-20.5 -120z" />
<glyph unicode="b" horiz-adv-x="1112" d="M133 0v1468h180v-710q63 78 136 115.5t178 37.5q94 0 170.5 -34.5t131 -99t83 -153.5t28.5 -198q0 -119 -35.5 -206t-92 -144.5t-127 -86t-140.5 -28.5q-111 0 -189.5 42t-144.5 132v-135h-178zM315 440q0 -63 20.5 -119.5t55.5 -98.5t83 -66.5t101 -24.5t100.5 24.5 t83.5 66.5t56.5 98.5t20.5 119.5t-20.5 119.5t-56.5 98.5t-83.5 67t-100.5 25t-101 -25t-83 -67t-55.5 -98t-20.5 -120z" />
<glyph unicode="c" horiz-adv-x="1064" d="M72 455q0 109 35.5 193.5t98 143t150.5 89t193 30.5q80 0 151.5 -24.5t128 -68.5t95.5 -105.5t55 -134.5h-209q-12 33 -28.5 64.5t-43 56t-62.5 40t-87 15.5q-72 0 -125 -26t-87 -68t-50.5 -96t-16.5 -113q0 -72 16.5 -132.5t49.5 -105.5t83 -69.5t120 -24.5 q92 0 154.5 50t103.5 169h196q-43 -193 -159.5 -285t-309.5 -92q-90 0 -171 27.5t-144.5 88t-100 154t-36.5 224.5z" />
<glyph unicode="d" horiz-adv-x="1112" d="M72 426q0 109 28.5 198t83 153.5t130 99t171.5 34.5q104 0 177 -37.5t137 -115.5v710h180v-1468h-178v135q-66 -90 -144.5 -132t-189.5 -42q-70 0 -140.5 28.5t-127 86t-92 144.5t-35.5 206zM276 440q0 -63 20.5 -119.5t55.5 -98.5t83 -66.5t102 -24.5q53 0 100 24.5 t83 66.5t56.5 98.5t20.5 119.5t-20.5 119.5t-56.5 98.5t-83 67t-100 25t-101.5 -25t-83.5 -67t-55.5 -98t-20.5 -120z" />
<glyph unicode="e" horiz-adv-x="1069" d="M72 436q0 98 28.5 184.5t87 151t145.5 102t202 37.5t201.5 -37.5t145 -102t87 -150.5t28.5 -185v-53h-710q10 -129 70.5 -196.5t177.5 -67.5q168 0 223 143h215q-41 -133 -149.5 -217t-288.5 -84q-117 0 -203 37t-144.5 101.5t-87 151.5t-28.5 185zM291 532h485 q-16 109 -76.5 165.5t-164.5 56.5t-165 -56.5t-79 -165.5z" />
<glyph unicode="f" horiz-adv-x="583" d="M25 801v151h149v248q0 137 66.5 202.5t226.5 65.5q25 0 44 -1t36 -3v-174q-16 2 -33 2h-33q-66 0 -89 -26.5t-23 -110.5v-203h180v-151h-180v-801h-195v801h-149z" />
<glyph unicode="g" horiz-adv-x="1110" d="M72 446q0 119 34.5 206t91 144.5t127 86t140.5 28.5q111 0 189.5 -42t144.5 -132v150h178v-858q0 -111 -12.5 -190t-36 -135t-57 -93t-74.5 -64q-49 -33 -118 -53t-155 -20q-68 0 -137.5 14t-125.5 50t-96 98.5t-48 158.5h200q10 -74 57.5 -118t145.5 -44q74 0 127 20.5 t86 69t48.5 127t15.5 197.5v68q-63 -78 -136 -116t-178 -38q-96 0 -171.5 35t-129 99.5t-82 153.5t-28.5 197zM274 432q0 -63 19.5 -119.5t54.5 -98.5t82 -66.5t100 -24.5t101.5 24.5t84.5 66.5t57.5 98.5t21.5 119.5t-20.5 119.5t-56.5 98.5t-83 66.5t-100 24.5 t-101.5 -24.5t-83.5 -66.5t-55.5 -98t-20.5 -120z" />
<glyph unicode="h" horiz-adv-x="1081" d="M133 0v1468h195v-702q66 82 124 113.5t148 31.5q172 0 260 -100t88 -311v-500h-200v485q0 131 -58.5 191.5t-132.5 60.5q-41 0 -82 -18.5t-73.5 -54t-53 -88t-20.5 -119.5v-457h-195z" />
<glyph unicode="i" horiz-adv-x="466" d="M123 1122q0 45 32.5 78t77.5 33t78 -33t33 -78t-32.5 -77.5t-78.5 -32.5q-45 0 -77.5 32.5t-32.5 77.5zM133 0v887h201v-887h-201z" />
<glyph unicode="j" horiz-adv-x="460" d="M-8 -356h12q61 0 95 26.5t34 102.5v1114h195v-1133q0 -68 -11.5 -120t-43 -87.5t-87 -54t-141.5 -18.5h-29q-12 0 -24 2v168zM121 1122q0 45 32.5 78t77.5 33t78 -33t33 -78t-33 -77.5t-78 -32.5t-77.5 32.5t-32.5 77.5z" />
<glyph unicode="k" horiz-adv-x="1015" d="M133 0v1468h186v-874l373 293h248l-489 -383l557 -504h-246l-443 395v-395h-186z" />
<glyph unicode="l" horiz-adv-x="532" d="M133 190v1278h195v-1255q0 -49 25.5 -68.5t86.5 -19.5h45v-154q-51 -10 -118 -10q-127 0 -180.5 54.5t-53.5 174.5z" />
<glyph unicode="m" horiz-adv-x="1613" d="M133 0v887h182v-103q35 57 98.5 92t143.5 35q111 0 190.5 -40t120.5 -132q39 92 114 132t153 40q80 0 143 -20.5t108.5 -65.5t70 -116.5t24.5 -173.5v-535h-197v512q0 129 -47 179t-145 50t-143.5 -50t-45.5 -179v-512h-196v512q0 129 -47.5 179t-145.5 50t-143 -50 t-45 -179v-512h-193z" />
<glyph unicode="n" horiz-adv-x="1071" d="M133 0v887h182v-103q37 61 107 94t158 33q82 0 148.5 -19.5t112.5 -64.5t71.5 -116.5t25.5 -175.5v-535h-197v512q0 123 -51 176t-149 53q-102 0 -158.5 -51t-56.5 -170v-520h-193z" />
<glyph unicode="o" horiz-adv-x="1069" d="M72 436q0 98 28.5 184.5t87 151t145.5 102t202 37.5t201.5 -37.5t145 -102t87 -150.5t28.5 -185q0 -98 -28.5 -185t-87 -151.5t-145.5 -101.5t-201 -37q-117 0 -203 37t-144.5 101.5t-87 151.5t-28.5 185zM285 436q0 -154 61.5 -235.5t188.5 -81.5t188 82t61 235 q0 154 -61 236t-188 82t-188.5 -82t-61.5 -236z" />
<glyph unicode="p" horiz-adv-x="1112" d="M133 -520v1407h178v-150q66 90 145 132t189 42q70 0 140.5 -28.5t127 -86t92 -144.5t35.5 -206q0 -109 -28.5 -197.5t-83 -153t-131 -99.5t-170.5 -35q-104 0 -177 38t-137 116v-635h-180zM315 432q0 -63 20.5 -119.5t55.5 -98.5t83 -66.5t101 -24.5t100.5 24.5 t83.5 66.5t56.5 98.5t20.5 119.5t-20.5 119.5t-56.5 98.5t-83 66.5t-101 24.5q-53 0 -101 -24.5t-83 -66.5t-55.5 -98t-20.5 -120z" />
<glyph unicode="q" horiz-adv-x="1112" d="M72 446q0 119 35.5 206t92 144.5t127 86t140.5 28.5q111 0 189.5 -42t144.5 -132v150h178v-1407h-180v635q-63 -78 -136 -116t-178 -38q-96 0 -171.5 35t-130 99.5t-83 153.5t-28.5 197zM276 432q0 -63 20.5 -119.5t55.5 -98.5t83.5 -66.5t101.5 -24.5t100 24.5t83 66.5 t56.5 98.5t20.5 119.5t-20.5 119.5t-56.5 98.5t-83 66.5t-100 24.5t-101.5 -24.5t-83.5 -66.5t-55.5 -98t-20.5 -120z" />
<glyph unicode="r" horiz-adv-x="694" d="M133 0v887h178v-180q51 88 123 146t176 58h29q14 0 25 -4v-176q-16 4 -31 4h-31q-100 0 -177 -66.5t-95 -183.5v-485h-197z" />
<glyph unicode="s" horiz-adv-x="987" d="M66 279h194q18 -78 80.5 -120t183.5 -42q84 0 130 40t46 101q0 18 -8 32.5t-33.5 28t-74.5 28.5t-131 38q-113 31 -179.5 58.5t-102.5 59.5t-47 71.5t-11 93.5q0 111 94 177t260 66q201 0 307.5 -75.5t108.5 -204.5h-191q-2 47 -62.5 86t-164.5 39q-90 0 -124 -27 t-34 -55q0 -25 6 -40.5t27.5 -29.5t62.5 -27.5t109 -31.5q115 -31 188.5 -57.5t116.5 -56.5t60.5 -65.5t17.5 -84.5q0 -84 -29.5 -144.5t-82 -99.5t-122 -57.5t-147.5 -18.5q-219 0 -324.5 80t-123.5 238z" />
<glyph unicode="t" horiz-adv-x="595" d="M29 834v155h145v479h197v-479h172v-155h-172v-582q0 -49 24.5 -68.5t85.5 -19.5h33q16 0 29 2v-152q-23 -4 -57.5 -9t-77.5 -5q-127 0 -180.5 54.5t-53.5 174.5v605h-145z" />
<glyph unicode="u" horiz-adv-x="1071" d="M133 338v549h197v-527q0 -123 51 -176t149 -53q102 0 158.5 51t56.5 170v535h193v-887h-182v88q-37 -61 -106.5 -94t-157.5 -33q-82 0 -149 19.5t-113 64.5t-71.5 116.5t-25.5 176.5z" />
<glyph unicode="v" horiz-adv-x="913" d="M25 887h215l219 -676l227 676h203l-332 -887h-207z" />
<glyph unicode="w" horiz-adv-x="1351" d="M33 887h203l170 -649l155 649h244l160 -645l165 645h189l-258 -887h-203l-180 707l-176 -707h-203z" />
<glyph unicode="x" horiz-adv-x="956" d="M25 0l331 483l-274 404h244l159 -248l162 248h232l-279 -402l332 -485h-246l-213 326l-207 -326h-241z" />
<glyph unicode="y" horiz-adv-x="911" d="M25 887h208l254 -608l199 608h201l-453 -1407h-203l166 518z" />
<glyph unicode="z" horiz-adv-x="948" d="M61 0v152l488 565h-447v170h748v-129l-504 -586h531v-172h-816z" />
<glyph unicode="{" horiz-adv-x="749" d="M51 483v115q57 8 106.5 24.5t84 50.5t54 89t19.5 139v178q0 92 17.5 166t63.5 126t126 84t207 40v-121q-49 -4 -92 -20.5t-76 -52t-51 -95t-18 -149.5v-129q0 -104 -20.5 -174t-57.5 -114t-90.5 -66.5t-120.5 -32.5q66 -10 119 -34t91 -69t58.5 -114.5t20.5 -169.5v-164 q0 -135 62 -202t175 -83v-123q-86 8 -161.5 29.5t-131 64.5t-88.5 113t-33 174v219q0 49 -9 98.5t-37.5 90.5t-80 70.5t-137.5 41.5z" />
<glyph unicode="|" horiz-adv-x="636" d="M225 -401v1882h187v-1882h-187z" />
<glyph unicode="}" horiz-adv-x="749" d="M23 -295q31 4 71.5 17.5t77.5 44t61.5 85t24.5 138.5v164q0 63 7 126.5t37 117t87 92t156 51.5q-61 8 -114.5 29.5t-91.5 64.5t-59.5 113.5t-21.5 179.5v129q0 68 -10 122t-36 95t-72 66.5t-117 33.5v121q106 -8 184 -34.5t128 -76t74.5 -125t24.5 -180.5v-178 q0 -59 10.5 -110.5t39 -90t79.5 -64.5t135 -38v-115q-49 -6 -96 -21.5t-85 -48t-60.5 -89t-22.5 -142.5v-219q0 -98 -29.5 -166.5t-84 -112.5t-130 -69t-167.5 -33v123z" />
<glyph unicode="~" horiz-adv-x="1196" d="M33 526l41 78q104 193 288 193q63 0 124 -23.5t119.5 -53.5t114.5 -53.5t111 -23.5q57 0 95.5 26.5t74.5 88.5l23 39l137 -66l-43 -84q-51 -94 -120.5 -140t-151.5 -46q-66 0 -128.5 23.5t-121.5 53t-115.5 53t-109.5 23.5q-59 0 -100.5 -26.5t-77.5 -85.5l-25 -41z" />
<glyph unicode="&#xa1;" horiz-adv-x="690" d="M209 817q0 18 7 41t22.5 42.5t42 33.5t63.5 14q45 0 89 -31.5t44 -99.5q0 -23 -7 -46t-23.5 -43.5t-41 -33t-61.5 -12.5q-51 0 -93 36t-42 99zM236 -53l55 643h108l56 -643v-467h-219v467z" />
<glyph unicode="&#xa2;" d="M104 467q0 109 36 193.5t98.5 143t150.5 89.5t193 31h18q8 0 18 -2l44 153h114l-49 -174q109 -35 185.5 -117t99.5 -194h-209q-16 47 -44 88t-75 65l-166 -608q12 -4 25 -4h28q92 0 154.5 50t103.5 169h197q-43 -193 -159.5 -285t-309.5 -92q-43 0 -80 7l-43 -158h-115 l50 184q-115 45 -190 157.5t-75 303.5zM303 463q0 -94 26.5 -169t86.5 -118l159 590q-72 -2 -123 -27.5t-83.5 -67.5t-49 -96.5t-16.5 -111.5z" />
<glyph unicode="&#xa3;" d="M49 649v107h152q-53 88 -77 166.5t-24 144.5q0 76 31 147.5t92.5 128t153.5 90t215 33.5q82 0 164 -19.5t146.5 -71.5t105.5 -142t43 -234h-197q-2 135 -64.5 217t-211.5 82q-55 0 -105.5 -15t-87.5 -45t-58.5 -75t-21.5 -106q0 -25 5 -49.5t18.5 -57t36 -80t57.5 -114.5 h321v-107h-276q10 -35 13 -66.5t3 -58.5q0 -92 -53 -184t-188 -199q18 8 46.5 21.5t63.5 26t73 20.5t79 8q37 0 84 -10t102 -27q53 -16 90 -24.5t58 -8.5q43 0 78.5 15.5t87.5 50.5l81 -147q-72 -53 -134 -78t-128 -25q-59 0 -205 47q-133 45 -217 45q-47 0 -82.5 -9 t-64.5 -21.5t-52.5 -26.5t-41.5 -23l-103 152q41 27 85 63.5t80 82.5t59.5 101.5t23.5 121.5q0 14 -5 51t-36 102h-215z" />
<glyph unicode="&#xa4;" d="M96 215l135 135q-31 49 -48 117t-17 158t17.5 157.5t47.5 116.5l-135 135l131 129l142 -141q47 23 98 33t102 10t102.5 -10.5t98.5 -32.5l141 141l131 -129l-135 -135q31 -49 48.5 -116.5t17.5 -157.5t-17.5 -158t-48.5 -117l135 -135l-131 -129l-141 141 q-47 -23 -98 -33t-103 -10q-51 0 -102 10.5t-98 32.5l-142 -141zM332 623q0 -92 20.5 -149.5t53 -90.5t75.5 -45t88 -12t89 12t77 45t53.5 90.5t20.5 149.5q0 90 -20.5 147t-53.5 90t-77 45.5t-89 12.5t-88 -12.5t-75.5 -45.5t-53 -90t-20.5 -147z" />
<glyph unicode="&#xa5;" d="M-20 1413h239l352 -674l353 674h237l-463 -807h338v-108h-364v-160h364v-109h-364v-229h-203v229h-358v109h358v160h-358v108h331z" />
<glyph unicode="&#xa6;" horiz-adv-x="636" d="M225 362h187v-763h-187v763zM225 772v709h187v-709h-187z" />
<glyph unicode="&#xa7;" d="M82 602q0 96 54 172t157 137q-29 23 -62.5 73t-33.5 140q0 55 18 117t61 112t114 83.5t175 33.5q80 0 148.5 -19t121 -64.5t83 -116t34.5 -174.5h-186q-8 102 -52 157.5t-143 55.5q-76 0 -130 -37t-54 -121q0 -35 9.5 -58.5t27.5 -43t49 -40t74 -44.5l276 -162 q102 -59 167 -147.5t65 -180.5q0 -37 -6.5 -75t-28 -76.5t-63.5 -81.5t-111 -92q115 -102 115 -236q0 -59 -24 -119.5t-73 -110t-122.5 -80t-174.5 -30.5q-82 0 -152.5 19.5t-122.5 64.5t-85 118.5t-39 182.5h190q4 -47 14.5 -88t32 -69.5t58.5 -45t94 -16.5q39 0 76 6 t65.5 24.5t46 50.5t17.5 81q0 29 -8.5 52t-30 46t-56 48.5t-87.5 60.5l-256 167q-55 37 -99.5 71t-76 73t-49 83t-17.5 99zM268 639q0 -47 23.5 -92t85.5 -84l360 -230q51 29 91 73t40 130q0 27 -6 51.5t-25.5 49t-54 52t-90.5 62.5l-293 176q-57 -31 -94 -70.5t-37 -117.5z " />
<glyph unicode="&#xa8;" horiz-adv-x="901" d="M145 1176q0 45 33 77.5t78 32.5t78 -32.5t33 -77.5t-33 -78t-78 -33t-78 32.5t-33 78.5zM535 1176q0 45 32.5 77.5t77.5 32.5t78 -32.5t33 -77.5t-33 -78t-78 -33t-77.5 32.5t-32.5 78.5z" />
<glyph unicode="&#xa9;" horiz-adv-x="1593" d="M61 705q0 174 63.5 309t168 229t237 143.5t267.5 49.5q80 0 166 -19.5t166.5 -58.5t154.5 -98.5t128 -141.5t87 -185.5t33 -227.5q0 -172 -63.5 -309.5t-167 -232.5t-235.5 -145.5t-269 -50.5q-127 0 -258 47t-237.5 139.5t-173.5 231t-67 320.5zM170 705q0 -104 37 -216 t113.5 -205.5t195.5 -152.5t281 -59q100 0 209.5 37.5t201.5 115.5t151.5 197t59.5 283q0 100 -36.5 211.5t-113.5 203.5t-194 152.5t-278 60.5q-102 0 -213 -38t-203 -115.5t-151.5 -195t-59.5 -279.5zM414 709q0 61 16 136t59 140.5t118 109.5t190 44q51 0 110.5 -12.5 t111.5 -45t89 -92t47 -151.5h-131q-10 72 -59.5 125t-153.5 53q-115 0 -179.5 -85t-64.5 -218q0 -61 15.5 -118.5t46 -101.5t79 -70t113.5 -26q25 0 54.5 4.5t58.5 21.5t53.5 50t40.5 90h129q-12 -74 -44 -128t-78 -90t-102 -53.5t-118 -17.5q-98 0 -173 37t-126 97.5 t-76.5 138.5t-25.5 162z" />
<glyph unicode="&#xaa;" horiz-adv-x="776" d="M61 1010q0 80 19.5 145.5t55.5 113.5t89.5 74.5t120.5 26.5q61 0 107.5 -22.5t78.5 -53.5v72h142v-684h-139v74q-41 -45 -92.5 -66.5t-104.5 -21.5q-51 0 -101.5 20.5t-89 63.5t-62.5 107.5t-24 150.5zM217 1018q0 -117 48 -171t110 -54q59 0 107 54t48 177 q0 104 -45 162.5t-110 58.5q-66 0 -112 -58t-46 -169z" />
<glyph unicode="&#xab;" horiz-adv-x="1095" d="M174 463v194l324 258v-188l-213 -168l213 -166v-188zM594 463v194l328 258v-188l-215 -168l215 -166v-188z" />
<glyph unicode="&#xac;" horiz-adv-x="1196" d="M74 686v182h1032v-589h-184v407h-848z" />
<glyph unicode="&#xad;" horiz-adv-x="675" d="M82 426v199h512v-199h-512z" />
<glyph unicode="&#xae;" horiz-adv-x="1593" d="M61 705q0 160 61.5 295t163 231t234.5 150.5t277 54.5q80 0 166 -19.5t166.5 -58.5t154.5 -98.5t128 -141.5t87 -185.5t33 -227.5q0 -172 -63.5 -309.5t-167 -232.5t-235.5 -145.5t-269 -50.5q-121 0 -250 43t-237.5 133t-178.5 229.5t-70 332.5zM168 705 q0 -113 41 -225.5t121 -204t196.5 -147.5t270.5 -56q102 0 212.5 37.5t203 116.5t151.5 198t59 281q0 102 -37.5 212.5t-114.5 202.5t-196 152.5t-278 60.5q-127 0 -242 -48t-201 -133t-136 -199.5t-50 -247.5zM496 301v809h292q78 0 140.5 -10t107.5 -37t68.5 -72 t23.5 -114q0 -84 -47 -133.5t-149 -67.5q33 -6 65.5 -18.5t59 -36t43 -60.5t16.5 -92v-61q0 -59 2 -77t12 -30h-143q-8 20 -8 49l-2 60q-2 49 -10.5 87t-31 64.5t-65.5 39.5t-114 13h-109v-313h-151zM647 723h123q100 0 154.5 27.5t54.5 113.5q0 72 -48 107t-171 35h-113 v-283z" />
<glyph unicode="&#xaf;" horiz-adv-x="901" d="M127 1077v125h647v-125h-647z" />
<glyph unicode="&#xb0;" horiz-adv-x="835" d="M113 1128q0 63 23.5 120t64.5 99t96 65.5t121 23.5q72 0 128 -27t96 -70t60.5 -97.5t20.5 -111.5q0 -55 -20.5 -109t-59.5 -98t-95 -71t-130 -27q-61 0 -117.5 23.5t-97.5 64.5t-65.5 96.5t-24.5 118.5zM229 1130q0 -29 11.5 -61.5t34 -61t58.5 -47t85 -18.5 q29 0 61.5 10.5t61 32t47 57t18.5 88.5q0 27 -10 60t-31.5 61.5t-58.5 48t-88 19.5q-37 0 -72 -14.5t-60.5 -40t-41 -60.5t-15.5 -74z" />
<glyph unicode="&#xb1;" horiz-adv-x="1196" d="M94 0v182h1008v-182h-1008zM94 700v183h412v413h184v-413h412v-183h-412v-413h-184v413h-412z" />
<glyph unicode="&#xb2;" horiz-adv-x="790" d="M84 621q2 63 12 114t34 94t62.5 80t98.5 72l98 57q66 39 102.5 77t36.5 95q0 53 -31.5 88t-95.5 35q-68 0 -102.5 -47t-38.5 -133h-158q2 86 27 145.5t67 98.5t96 56t116 17q57 0 109 -16t92 -49t63.5 -81t23.5 -110q0 -92 -52 -156.5t-148 -121.5l-97 -57 q-47 -29 -74.5 -51.5t-39.5 -57.5h407v-149h-608z" />
<glyph unicode="&#xb3;" horiz-adv-x="790" d="M78 891h166q4 -68 35.5 -111t109.5 -43q59 0 101 33t42 94q0 20 -5 42t-23.5 39.5t-52 28.5t-91.5 11h-32v135q12 -2 20 -2h19q66 0 103.5 25.5t37.5 83.5q0 41 -27.5 74.5t-91.5 33.5q-72 0 -101.5 -41t-33.5 -104h-152q0 55 16.5 106.5t51.5 90t89 62.5t130 24 q127 0 205 -61.5t78 -168.5q0 -53 -23.5 -98t-77.5 -78q70 -27 100.5 -81t30.5 -118q0 -51 -18 -99t-58 -86t-100.5 -60.5t-144.5 -22.5q-86 0 -143.5 25.5t-93 66.5t-51 93.5t-15.5 105.5z" />
<glyph unicode="&#xb4;" horiz-adv-x="901" d="M281 1032l182 289h237l-274 -289h-145z" />
<glyph unicode="&#xb5;" horiz-adv-x="1071" d="M133 -520v1407h197v-527q0 -125 51 -177t149 -52q102 0 158.5 51t56.5 170v535h193v-887h-182v88q-39 -63 -102.5 -95t-133.5 -32q-68 0 -115 21.5t-75 50.5v-553h-197z" />
<glyph unicode="&#xb6;" horiz-adv-x="1208" d="M61 991q0 88 28 174t88.5 153.5t154.5 108.5t229 41h586v-122h-125v-1711h-156v1711h-227v-1711h-152v887q-111 2 -191.5 44t-132.5 107.5t-77 149.5t-25 168z" />
<glyph unicode="&#xb7;" horiz-adv-x="575" d="M154 522q0 23 7 46.5t23.5 44t41 32.5t61.5 12q51 0 93 -36t42 -99q0 -18 -7 -40.5t-22.5 -42t-42 -34t-63.5 -14.5q-45 0 -89 32t-44 99z" />
<glyph unicode="&#xb8;" horiz-adv-x="901" d="M227 -418l35 80q25 -10 60.5 -20.5t76.5 -10.5q39 0 78 19.5t39 68.5q0 8 -4 21.5t-15.5 26t-31 20.5t-47.5 8q-12 0 -32.5 -3t-47.5 -13l-49 53l141 168h98l-92 -129q31 10 74 10q25 0 53.5 -6t53 -22.5t41 -47t16.5 -79.5q0 -33 -12.5 -67t-42 -60.5t-76.5 -44 t-117 -17.5q-59 0 -107.5 14.5t-91.5 30.5z" />
<glyph unicode="&#xb9;" horiz-adv-x="561" d="M47 1202v111q59 2 97 10t61.5 25.5t37 46t23.5 69.5h125v-843h-160v581h-184z" />
<glyph unicode="&#xba;" horiz-adv-x="763" d="M61 1014q0 76 20.5 143.5t61.5 116.5t101.5 77.5t140.5 28.5q61 0 118.5 -20.5t101.5 -62.5t70.5 -106.5t26.5 -152.5q0 -74 -17 -140.5t-56 -117.5t-101.5 -80.5t-152.5 -29.5q-61 0 -117.5 19.5t-99.5 61.5t-70 106.5t-27 156.5zM215 1016q0 -125 49 -173t117 -48 q92 0 130 68.5t38 172.5q0 121 -47 169t-119 48t-120 -54t-48 -183z" />
<glyph unicode="&#xbb;" horiz-adv-x="1095" d="M174 205v188l211 166l-211 168v188l326 -258v-194zM596 205v188l209 166l-209 168v188l326 -258v-194z" />
<glyph unicode="&#xbc;" horiz-adv-x="1560" d="M47 1161v111q59 2 97 10t61.5 25.5t37 46t23.5 69.5h125v-843h-160v581h-184zM170 -39l881 1473h137l-881 -1473h-137zM856 178v146l369 522h141v-531h117v-137h-117v-178h-162v178h-348zM1008 315h196v281z" />
<glyph unicode="&#xbd;" horiz-adv-x="1622" d="M47 1163v111q59 2 97 10t61.5 25.5t37 46t23.5 69.5h125v-843h-160v581h-184zM170 -39l880 1473h138l-881 -1473h-137zM915 3q2 63 12 114t34 94t62.5 80t98.5 72l98 57q66 39 102.5 77t36.5 95q0 53 -31.5 88t-95.5 35q-68 0 -102.5 -47t-38.5 -133h-158q2 86 27 145.5 t67 98.5t96 56t116 17q57 0 109 -16t92 -49t63.5 -81t23.5 -110q0 -92 -52 -156.5t-148 -121.5l-97 -57q-47 -29 -74.5 -51.5t-39.5 -57.5h407v-149h-608z" />
<glyph unicode="&#xbe;" horiz-adv-x="1789" d="M78 850h166q4 -68 35.5 -111t109.5 -43q59 0 101 33t42 94q0 20 -5 42t-23.5 39.5t-52 28.5t-91.5 11h-32v135q12 -2 20 -2h19q66 0 103.5 25.5t37.5 83.5q0 41 -27.5 74.5t-91.5 33.5q-72 0 -101.5 -41t-33.5 -104h-152q0 55 16.5 106.5t51.5 90t89 62.5t130 24 q127 0 205 -61.5t78 -168.5q0 -53 -23.5 -98t-77.5 -78q70 -27 100.5 -81t30.5 -118q0 -51 -18 -99t-58 -86t-100.5 -60.5t-144.5 -22.5q-86 0 -143.5 25.5t-93 66.5t-51 93.5t-15.5 105.5zM399 -39l881 1473h137l-880 -1473h-138zM1085 178v146l369 522h141v-531h117v-137 h-117v-178h-161v178h-349zM1237 315h197v281z" />
<glyph unicode="&#xbf;" horiz-adv-x="1243" d="M184 -135q0 47 7.5 83t28 70.5t54 73.5t86.5 94l103 105q51 51 71.5 110.5t20.5 163.5h190q0 -72 -6 -124t-25.5 -99t-55 -94t-93.5 -105l-78 -77q-31 -31 -64.5 -77t-33.5 -124q0 -111 59.5 -173.5t186.5 -62.5q135 0 195.5 78t68.5 232h193q0 -104 -31 -192.5 t-90.5 -152t-144.5 -99.5t-195 -36q-96 0 -177 29t-141.5 81t-94.5 127t-34 169zM510 817q0 18 7 41t22.5 42.5t42 33.5t63.5 14q45 0 89 -31.5t44 -99.5q0 -23 -7 -46t-23.5 -43.5t-41 -33t-61.5 -12.5q-51 0 -93 36t-42 99z" />
<glyph unicode="&#xc0;" horiz-adv-x="1269" d="M29 0l495 1468h242l475 -1468h-235l-121 369h-502l-133 -369h-221zM333 1878h238l182 -289h-145zM446 543h381l-192 692z" />
<glyph unicode="&#xc1;" horiz-adv-x="1269" d="M29 0l495 1468h242l475 -1468h-235l-121 369h-502l-133 -369h-221zM446 543h381l-192 692zM536 1589l183 289h237l-274 -289h-146z" />
<glyph unicode="&#xc2;" horiz-adv-x="1269" d="M29 0l495 1468h242l475 -1468h-235l-121 369h-502l-133 -369h-221zM336 1589l209 289h197l209 -289h-172l-136 189l-135 -189h-172zM446 543h381l-192 692z" />
<glyph unicode="&#xc3;" horiz-adv-x="1269" d="M29 0l495 1468h242l475 -1468h-235l-121 369h-502l-133 -369h-221zM297 1608q4 29 14 66.5t32.5 72.5t63.5 59.5t107 24.5q25 0 65.5 -6t114.5 -41q18 -8 43 -18.5t59 -10.5q49 0 70 23.5t29 68.5h108q-6 -43 -20.5 -83t-39 -72.5t-62 -52t-91.5 -19.5q-18 0 -62 11 t-95 30q-43 16 -78 27.5t-68 11.5q-23 0 -49.5 -16.5t-38.5 -75.5h-102zM446 543h381l-192 692z" />
<glyph unicode="&#xc4;" horiz-adv-x="1269" d="M29 0l495 1468h242l475 -1468h-235l-121 369h-502l-133 -369h-221zM295 1718q0 45 33 78t78 33t77.5 -33t32.5 -78t-32.5 -77.5t-77.5 -32.5t-78 32.5t-33 77.5zM446 543h381l-192 692zM774 1718q0 45 33 78t78 33t77.5 -33t32.5 -78t-32.5 -77.5t-77.5 -32.5t-78 32.5 t-33 77.5z" />
<glyph unicode="&#xc5;" horiz-adv-x="1269" d="M29 0l495 1468h242l475 -1468h-235l-121 369h-502l-133 -369h-221zM432 1726q0 43 16 81t46 67t69 45t82 16t82 -16t68.5 -45t46 -67t16.5 -81t-16.5 -80.5t-46 -66.5t-68.5 -45t-82 -16t-82 16t-69 45t-46 66.5t-16 80.5zM446 543h381l-192 692zM520 1726 q0 -53 35.5 -88.5t89.5 -35.5q53 0 89 35.5t36 88.5t-36 89t-89 36t-89 -36t-36 -89z" />
<glyph unicode="&#xc6;" horiz-adv-x="1966" d="M16 0l588 1468h1241v-190h-704v-426h639v-182h-639v-484h723v-186h-934v418h-529l-155 -418h-230zM473 598h457v690h-191z" />
<glyph unicode="&#xc7;" horiz-adv-x="1337" d="M82 745q0 154 41 292.5t121 242.5t196.5 164.5t268.5 60.5q104 0 196 -33.5t162 -95t116 -146.5t58 -188h-213q-35 121 -113.5 198t-214.5 77q-90 0 -162.5 -40t-126 -117t-82 -188.5t-28.5 -254.5q0 -137 30.5 -242.5t85 -176.5t129.5 -107.5t161 -36.5q133 0 216 101 t117 261h213q-14 -113 -60 -213t-120 -176t-174 -120t-223 -44q-129 0 -237.5 52.5t-188.5 152.5t-124 245.5t-44 331.5zM471 -418l35 80q25 -10 60.5 -20.5t76.5 -10.5q39 0 78 19.5t39 68.5q0 8 -4.5 21.5t-15.5 26t-30.5 20.5t-48.5 8q-12 0 -32.5 -3t-47.5 -13l-49 53 l142 168h98l-92 -129q31 10 73 10q25 0 53.5 -6t53.5 -22.5t41 -47t16 -79.5q0 -33 -12 -67t-42 -60.5t-77 -44t-116 -17.5q-59 0 -107.5 14.5t-91.5 30.5z" />
<glyph unicode="&#xc8;" horiz-adv-x="1189" d="M154 0v1468h915v-190h-704v-426h639v-182h-639v-484h722v-186h-933zM307 1878h238l182 -289h-145z" />
<glyph unicode="&#xc9;" horiz-adv-x="1189" d="M154 0v1468h915v-190h-704v-426h639v-182h-639v-484h722v-186h-933zM510 1589l183 289h237l-274 -289h-146z" />
<glyph unicode="&#xca;" horiz-adv-x="1189" d="M154 0v1468h915v-190h-704v-426h639v-182h-639v-484h722v-186h-933zM309 1589l209 289h197l209 -289h-172l-136 189l-135 -189h-172z" />
<glyph unicode="&#xcb;" horiz-adv-x="1189" d="M154 0v1468h915v-190h-704v-426h639v-182h-639v-484h722v-186h-933zM268 1718q0 45 33 78t78 33t77.5 -33t32.5 -78t-32.5 -77.5t-77.5 -32.5t-78 32.5t-33 77.5zM747 1718q0 45 33 78t78 33t77.5 -33t32.5 -78t-32.5 -77.5t-77.5 -32.5t-78 32.5t-33 77.5z" />
<glyph unicode="&#xcc;" horiz-adv-x="524" d="M-50 1878h238l182 -289h-145zM154 0v1468h217v-1468h-217z" />
<glyph unicode="&#xcd;" horiz-adv-x="524" d="M153 1589l183 289h237l-274 -289h-146zM154 0v1468h217v-1468h-217z" />
<glyph unicode="&#xce;" horiz-adv-x="524" d="M-47 1589l209 289h197l209 -289h-172l-136 189l-135 -189h-172zM154 0v1468h217v-1468h-217z" />
<glyph unicode="&#xcf;" horiz-adv-x="524" d="M-88 1718q0 45 33 78t78 33t77.5 -33t32.5 -78t-32.5 -77.5t-77.5 -32.5t-78 32.5t-33 77.5zM154 0v1468h217v-1468h-217zM391 1718q0 45 33 78t78 33t77.5 -33t32.5 -78t-32.5 -77.5t-77.5 -32.5t-78 32.5t-33 77.5z" />
<glyph unicode="&#xd0;" horiz-adv-x="1384" d="M33 680v180h151v608h486q137 0 251.5 -46t197.5 -135t128 -222t45 -305t-42 -311.5t-121.5 -239.5t-194.5 -154.5t-262 -54.5h-488v680h-151zM397 182h236q203 0 321.5 137.5t118.5 407.5q0 295 -115.5 428t-326.5 133h-234v-428h312v-180h-312v-498z" />
<glyph unicode="&#xd1;" horiz-adv-x="1417" d="M154 0v1468h247l658 -1167v1167h205v-1468h-236l-672 1169v-1169h-202zM361 1608q4 29 14 66.5t32.5 72.5t63.5 59.5t107 24.5q25 0 65.5 -6t114.5 -41q18 -8 43 -18.5t59 -10.5q49 0 70 23.5t29 68.5h108q-6 -43 -20.5 -83t-39 -72.5t-62 -52t-91.5 -19.5q-18 0 -62 11 t-95 30q-43 16 -78 27.5t-68 11.5q-23 0 -49.5 -16.5t-38.5 -75.5h-102z" />
<glyph unicode="&#xd2;" horiz-adv-x="1419" d="M82 729q0 176 47 319.5t131 245t199.5 156.5t251.5 55q135 0 249.5 -55t198.5 -156.5t131 -245t47 -319.5t-45 -317.5t-127 -241.5t-197.5 -154.5t-256.5 -54.5t-258 54.5t-199 154.5t-127 241.5t-45 317.5zM293 719q0 -127 27.5 -231.5t82 -179.5t132 -115.5 t178.5 -40.5q98 0 175 40.5t130 115.5t80.5 179.5t27.5 231.5q0 131 -29.5 240.5t-85 188.5t-132 122t-168.5 43q-94 0 -171 -43t-132.5 -122t-85 -188.5t-29.5 -240.5zM399 1898h238l182 -289h-145z" />
<glyph unicode="&#xd3;" horiz-adv-x="1419" d="M82 729q0 176 47 319.5t131 245t199.5 156.5t251.5 55q135 0 249.5 -55t198.5 -156.5t131 -245t47 -319.5t-45 -317.5t-127 -241.5t-197.5 -154.5t-256.5 -54.5t-258 54.5t-199 154.5t-127 241.5t-45 317.5zM293 719q0 -127 27.5 -231.5t82 -179.5t132 -115.5 t178.5 -40.5q98 0 175 40.5t130 115.5t80.5 179.5t27.5 231.5q0 131 -29.5 240.5t-85 188.5t-132 122t-168.5 43q-94 0 -171 -43t-132.5 -122t-85 -188.5t-29.5 -240.5zM602 1609l183 289h237l-274 -289h-146z" />
<glyph unicode="&#xd4;" horiz-adv-x="1419" d="M82 729q0 176 47 319.5t131 245t199.5 156.5t251.5 55q135 0 249.5 -55t198.5 -156.5t131 -245t47 -319.5t-45 -317.5t-127 -241.5t-197.5 -154.5t-256.5 -54.5t-258 54.5t-199 154.5t-127 241.5t-45 317.5zM293 719q0 -127 27.5 -231.5t82 -179.5t132 -115.5 t178.5 -40.5q98 0 175 40.5t130 115.5t80.5 179.5t27.5 231.5q0 131 -29.5 240.5t-85 188.5t-132 122t-168.5 43q-94 0 -171 -43t-132.5 -122t-85 -188.5t-29.5 -240.5zM401 1609l209 289h197l209 -289h-172l-136 189l-135 -189h-172z" />
<glyph unicode="&#xd5;" horiz-adv-x="1419" d="M82 729q0 176 47 319.5t131 245t199.5 156.5t251.5 55q135 0 249.5 -55t198.5 -156.5t131 -245t47 -319.5t-45 -317.5t-127 -241.5t-197.5 -154.5t-256.5 -54.5t-258 54.5t-199 154.5t-127 241.5t-45 317.5zM293 719q0 -127 27.5 -231.5t82 -179.5t132 -115.5 t178.5 -40.5q98 0 175 40.5t130 115.5t80.5 179.5t27.5 231.5q0 131 -29.5 240.5t-85 188.5t-132 122t-168.5 43q-94 0 -171 -43t-132.5 -122t-85 -188.5t-29.5 -240.5zM363 1628q4 29 14 66.5t32.5 72.5t63.5 59.5t107 24.5q25 0 65.5 -6t114.5 -41q18 -8 43 -18.5 t59 -10.5q49 0 70 23.5t29 68.5h108q-6 -43 -20.5 -83t-39 -72.5t-62 -52t-91.5 -19.5q-18 0 -62 11t-95 30q-43 16 -78 27.5t-68 11.5q-23 0 -49.5 -16.5t-38.5 -75.5h-102z" />
<glyph unicode="&#xd6;" horiz-adv-x="1419" d="M82 729q0 176 47 319.5t131 245t199.5 156.5t251.5 55q135 0 249.5 -55t198.5 -156.5t131 -245t47 -319.5t-45 -317.5t-127 -241.5t-197.5 -154.5t-256.5 -54.5t-258 54.5t-199 154.5t-127 241.5t-45 317.5zM293 719q0 -127 27.5 -231.5t82 -179.5t132 -115.5 t178.5 -40.5q98 0 175 40.5t130 115.5t80.5 179.5t27.5 231.5q0 131 -29.5 240.5t-85 188.5t-132 122t-168.5 43q-94 0 -171 -43t-132.5 -122t-85 -188.5t-29.5 -240.5zM360 1738q0 45 33 78t78 33t77.5 -33t32.5 -78t-32.5 -77.5t-77.5 -32.5t-78 32.5t-33 77.5zM839 1738 q0 45 33 78t78 33t77.5 -33t32.5 -78t-32.5 -77.5t-77.5 -32.5t-78 32.5t-33 77.5z" />
<glyph unicode="&#xd7;" horiz-adv-x="1196" d="M125 289l342 342l-342 344l129 129l342 -344l342 344l129 -129l-342 -344l342 -342l-129 -129l-342 342l-342 -342z" />
<glyph unicode="&#xd8;" horiz-adv-x="1419" d="M-12 18l211 230q-55 94 -86 215t-31 266q0 176 47 319.5t131 245t199.5 156.5t251.5 55q135 0 248.5 -54t199.5 -159l199 215l59 -63l-205 -225q59 -96 92 -219t33 -271q0 -176 -45 -317.5t-127 -241.5t-197.5 -154.5t-256.5 -54.5q-139 0 -254 53.5t-199 151.5 l-199 -217zM293 719q0 -180 55 -309l670 729q-55 84 -133 129t-174 45q-94 0 -171 -43t-132.5 -122t-85 -188.5t-29.5 -240.5zM395 319q53 -80 133 -123.5t185 -43.5q98 0 175 40.5t130 115.5t80.5 179.5t27.5 231.5q0 193 -63 336z" />
<glyph unicode="&#xd9;" horiz-adv-x="1359" d="M154 598v870h219v-909q0 -197 77.5 -304.5t215.5 -107.5q156 0 238.5 100.5t82.5 311.5v909h219v-870q0 -324 -136 -480.5t-386 -156.5q-254 0 -392 155.5t-138 481.5zM368 1878h238l182 -289h-145z" />
<glyph unicode="&#xda;" horiz-adv-x="1359" d="M154 598v870h219v-909q0 -197 77.5 -304.5t215.5 -107.5q156 0 238.5 100.5t82.5 311.5v909h219v-870q0 -324 -136 -480.5t-386 -156.5q-254 0 -392 155.5t-138 481.5zM571 1589l183 289h237l-274 -289h-146z" />
<glyph unicode="&#xdb;" horiz-adv-x="1359" d="M154 598v870h219v-909q0 -197 77.5 -304.5t215.5 -107.5q156 0 238.5 100.5t82.5 311.5v909h219v-870q0 -324 -136 -480.5t-386 -156.5q-254 0 -392 155.5t-138 481.5zM370 1589l209 289h197l209 -289h-172l-136 189l-135 -189h-172z" />
<glyph unicode="&#xdc;" horiz-adv-x="1359" d="M154 598v870h219v-909q0 -197 77.5 -304.5t215.5 -107.5q156 0 238.5 100.5t82.5 311.5v909h219v-870q0 -324 -136 -480.5t-386 -156.5q-254 0 -392 155.5t-138 481.5zM330 1718q0 45 33 78t78 33t77.5 -33t32.5 -78t-32.5 -77.5t-77.5 -32.5t-78 32.5t-33 77.5z M809 1718q0 45 33 78t78 33t77.5 -33t32.5 -78t-32.5 -77.5t-77.5 -32.5t-78 32.5t-33 77.5z" />
<glyph unicode="&#xdd;" horiz-adv-x="1267" d="M20 1468h246l369 -626l364 626h248l-506 -815v-653h-215v653zM524 1589l183 289h237l-274 -289h-146z" />
<glyph unicode="&#xde;" horiz-adv-x="1239" d="M154 0v1468h215v-215h336q98 0 180 -26.5t140 -80.5t90 -134t32 -185q0 -98 -28.5 -178t-86 -136t-140.5 -88t-192 -32h-331v-393h-215zM369 573h272q152 0 221.5 63.5t69.5 188.5t-68.5 186.5t-222.5 61.5h-272v-500z" />
<glyph unicode="&#xdf;" horiz-adv-x="1060" d="M133 -520v1569q0 223 82 342.5t283 119.5q80 0 151.5 -23.5t126.5 -71.5t87 -122.5t32 -179.5q0 -37 -5 -78t-22.5 -81t-50.5 -76.5t-86 -63.5q45 -12 87 -39.5t76 -74t54.5 -110t20.5 -149.5q0 -74 -21.5 -157.5t-72 -156.5t-135.5 -120t-212 -47h-36q-18 0 -35 2v168 h30q45 0 95.5 13.5t91.5 47t67.5 92t26.5 150.5q0 55 -14.5 106.5t-47 89.5t-86 61.5t-131.5 23.5h-28v155h26q59 4 100.5 26t67 52.5t36.5 68.5t11 75q0 53 -8 100t-29.5 81t-59.5 53.5t-97 19.5q-47 0 -82 -14.5t-56.5 -48.5t-31.5 -93.5t-10 -147.5v-1562h-195z" />
<glyph unicode="&#xe0;" horiz-adv-x="1112" d="M72 426q0 109 28.5 198t83 153.5t130 99t171.5 34.5q104 0 177 -37.5t137 -115.5v129h180v-887h-178v135q-66 -90 -144.5 -132t-189.5 -42q-70 0 -140.5 28.5t-127 86t-92 144.5t-35.5 206zM220 1321h237l182 -289h-145zM276 440q0 -63 20.5 -119.5t55.5 -98.5t83 -66.5 t102 -24.5q53 0 100 24.5t83 66.5t56.5 98.5t20.5 119.5t-20.5 119.5t-56.5 98.5t-83 67t-100 25t-101.5 -25t-83.5 -67t-55.5 -98t-20.5 -120z" />
<glyph unicode="&#xe1;" horiz-adv-x="1112" d="M72 426q0 109 28.5 198t83 153.5t130 99t171.5 34.5q104 0 177 -37.5t137 -115.5v129h180v-887h-178v135q-66 -90 -144.5 -132t-189.5 -42q-70 0 -140.5 28.5t-127 86t-92 144.5t-35.5 206zM276 440q0 -63 20.5 -119.5t55.5 -98.5t83 -66.5t102 -24.5q53 0 100 24.5 t83 66.5t56.5 98.5t20.5 119.5t-20.5 119.5t-56.5 98.5t-83 67t-100 25t-101.5 -25t-83.5 -67t-55.5 -98t-20.5 -120zM422 1032l183 289h237l-274 -289h-146z" />
<glyph unicode="&#xe2;" horiz-adv-x="1112" d="M72 426q0 109 28.5 198t83 153.5t130 99t171.5 34.5q104 0 177 -37.5t137 -115.5v129h180v-887h-178v135q-66 -90 -144.5 -132t-189.5 -42q-70 0 -140.5 28.5t-127 86t-92 144.5t-35.5 206zM223 1032l209 289h197l209 -289h-173l-135 189l-135 -189h-172zM276 440 q0 -63 20.5 -119.5t55.5 -98.5t83 -66.5t102 -24.5q53 0 100 24.5t83 66.5t56.5 98.5t20.5 119.5t-20.5 119.5t-56.5 98.5t-83 67t-100 25t-101.5 -25t-83.5 -67t-55.5 -98t-20.5 -120z" />
<glyph unicode="&#xe3;" horiz-adv-x="1112" d="M72 426q0 109 28.5 198t83 153.5t130 99t171.5 34.5q104 0 177 -37.5t137 -115.5v129h180v-887h-178v135q-66 -90 -144.5 -132t-189.5 -42q-70 0 -140.5 28.5t-127 86t-92 144.5t-35.5 206zM180 1059q4 29 14.5 66.5t33 72.5t63.5 59.5t106 24.5q25 0 66 -6t114 -41 q18 -8 43 -18.5t60 -10.5q49 0 69.5 23.5t28.5 68.5h109q-6 -43 -20.5 -82.5t-39 -72.5t-62.5 -52.5t-91 -19.5q-18 0 -62.5 11.5t-95.5 29.5q-43 16 -78 27.5t-67 11.5q-23 0 -49.5 -16.5t-39.5 -75.5h-102zM276 440q0 -63 20.5 -119.5t55.5 -98.5t83 -66.5t102 -24.5 q53 0 100 24.5t83 66.5t56.5 98.5t20.5 119.5t-20.5 119.5t-56.5 98.5t-83 67t-100 25t-101.5 -25t-83.5 -67t-55.5 -98t-20.5 -120z" />
<glyph unicode="&#xe4;" horiz-adv-x="1112" d="M72 426q0 109 28.5 198t83 153.5t130 99t171.5 34.5q104 0 177 -37.5t137 -115.5v129h180v-887h-178v135q-66 -90 -144.5 -132t-189.5 -42q-70 0 -140.5 28.5t-127 86t-92 144.5t-35.5 206zM225 1176q0 45 33 77.5t78 32.5t78 -32.5t33 -77.5t-33 -78t-78 -33t-78 32.5 t-33 78.5zM276 440q0 -63 20.5 -119.5t55.5 -98.5t83 -66.5t102 -24.5q53 0 100 24.5t83 66.5t56.5 98.5t20.5 119.5t-20.5 119.5t-56.5 98.5t-83 67t-100 25t-101.5 -25t-83.5 -67t-55.5 -98t-20.5 -120zM614 1176q0 45 33 77.5t78 32.5t78 -32.5t33 -77.5t-33 -78t-78 -33 t-78 32.5t-33 78.5z" />
<glyph unicode="&#xe5;" horiz-adv-x="1112" d="M72 426q0 109 28.5 198t83 153.5t130 99t171.5 34.5q104 0 177 -37.5t137 -115.5v129h180v-887h-178v135q-66 -90 -144.5 -132t-189.5 -42q-70 0 -140.5 28.5t-127 86t-92 144.5t-35.5 206zM276 440q0 -63 20.5 -119.5t55.5 -98.5t83 -66.5t102 -24.5q53 0 100 24.5 t83 66.5t56.5 98.5t20.5 119.5t-20.5 119.5t-56.5 98.5t-83 67t-100 25t-101.5 -25t-83.5 -67t-55.5 -98t-20.5 -120zM317 1243q0 43 16.5 81t46 66.5t68.5 45t82 16.5t82 -16.5t68.5 -45t46 -66.5t16.5 -81t-16.5 -81t-46 -66.5t-68.5 -45t-82 -16.5t-82 16.5t-68.5 45 t-46 66.5t-16.5 81zM405 1243q0 -53 36 -89t89 -36t89 36t36 89t-36 89t-89 36t-89 -36t-36 -89z" />
<glyph unicode="&#xe6;" horiz-adv-x="1564" d="M66 227q0 55 14 102.5t48 83.5t87 58.5t131 28.5q78 12 122 19t66.5 10t29.5 4.5t11 1.5q27 6 50 16v80q0 23 -9 39q-14 31 -49 52t-94 21q-80 0 -125 -37.5t-45 -101.5h-201q2 59 18.5 114.5t58.5 98.5t115 68.5t187 25.5q66 0 136.5 -18.5t123.5 -69.5q53 41 125 64.5 t164 23.5q115 0 202 -37.5t145.5 -102t87 -150.5t28.5 -185v-53h-711q10 -129 70.5 -196.5t177.5 -67.5q168 0 223 143h215q-41 -133 -149.5 -217t-288.5 -84q-115 0 -201 36t-145 101q-49 -55 -120.5 -96t-192.5 -41q-66 0 -121 16.5t-96 50t-64.5 84t-23.5 115.5zM236 221 q0 -35 14 -58.5t36.5 -40t50.5 -23.5t56 -7q25 0 55.5 6t60.5 21.5t55.5 41t41.5 62.5q18 37 19 90v88q-10 -4 -22.5 -6t-33.5 -6q-4 0 -11 -2t-22.5 -5t-44 -7t-77.5 -13q-80 -14 -129 -40.5t-49 -100.5zM786 532h486q-16 109 -76.5 165.5t-165.5 56.5q-104 0 -164.5 -56.5 t-79.5 -165.5z" />
<glyph unicode="&#xe7;" horiz-adv-x="1064" d="M72 455q0 109 35.5 193.5t98 143t150.5 89t193 30.5q80 0 151.5 -24.5t128 -68.5t95.5 -105.5t55 -134.5h-209q-12 33 -28.5 64.5t-43 56t-62.5 40t-87 15.5q-72 0 -125 -26t-87 -68t-50.5 -96t-16.5 -113q0 -72 16.5 -132.5t49.5 -105.5t83 -69.5t120 -24.5 q92 0 154.5 50t103.5 169h196q-43 -193 -159.5 -285t-309.5 -92q-90 0 -171 27.5t-144.5 88t-100 154t-36.5 224.5zM299 -420l35 80q25 -10 60.5 -20.5t76.5 -10.5q39 0 78 19.5t39 68.5q0 8 -4.5 21.5t-15.5 26t-30.5 20.5t-48.5 8q-12 0 -32.5 -3t-47.5 -13l-49 53 l142 168h98l-92 -129q31 10 73 10q25 0 53.5 -6t53.5 -22.5t41 -47t16 -79.5q0 -33 -12 -67t-42 -60.5t-77 -44t-116 -17.5q-59 0 -107.5 14.5t-91.5 30.5z" />
<glyph unicode="&#xe8;" horiz-adv-x="1069" d="M72 436q0 98 28.5 184.5t87 151t145.5 102t202 37.5t201.5 -37.5t145 -102t87 -150.5t28.5 -185v-53h-710q10 -129 70.5 -196.5t177.5 -67.5q168 0 223 143h215q-41 -133 -149.5 -217t-288.5 -84q-117 0 -203 37t-144.5 101.5t-87 151.5t-28.5 185zM224 1321h237 l182 -289h-145zM291 532h485q-16 109 -76.5 165.5t-164.5 56.5t-165 -56.5t-79 -165.5z" />
<glyph unicode="&#xe9;" horiz-adv-x="1069" d="M72 436q0 98 28.5 184.5t87 151t145.5 102t202 37.5t201.5 -37.5t145 -102t87 -150.5t28.5 -185v-53h-710q10 -129 70.5 -196.5t177.5 -67.5q168 0 223 143h215q-41 -133 -149.5 -217t-288.5 -84q-117 0 -203 37t-144.5 101.5t-87 151.5t-28.5 185zM291 532h485 q-16 109 -76.5 165.5t-164.5 56.5t-165 -56.5t-79 -165.5zM426 1032l183 289h237l-274 -289h-146z" />
<glyph unicode="&#xea;" horiz-adv-x="1069" d="M72 436q0 98 28.5 184.5t87 151t145.5 102t202 37.5t201.5 -37.5t145 -102t87 -150.5t28.5 -185v-53h-710q10 -129 70.5 -196.5t177.5 -67.5q168 0 223 143h215q-41 -133 -149.5 -217t-288.5 -84q-117 0 -203 37t-144.5 101.5t-87 151.5t-28.5 185zM227 1032l209 289h197 l209 -289h-173l-135 189l-135 -189h-172zM291 532h485q-16 109 -76.5 165.5t-164.5 56.5t-165 -56.5t-79 -165.5z" />
<glyph unicode="&#xeb;" horiz-adv-x="1069" d="M72 436q0 98 28.5 184.5t87 151t145.5 102t202 37.5t201.5 -37.5t145 -102t87 -150.5t28.5 -185v-53h-710q10 -129 70.5 -196.5t177.5 -67.5q168 0 223 143h215q-41 -133 -149.5 -217t-288.5 -84q-117 0 -203 37t-144.5 101.5t-87 151.5t-28.5 185zM229 1176 q0 45 33 77.5t78 32.5t78 -32.5t33 -77.5t-33 -78t-78 -33t-78 32.5t-33 78.5zM291 532h485q-16 109 -76.5 165.5t-164.5 56.5t-165 -56.5t-79 -165.5zM618 1176q0 45 33 77.5t78 32.5t78 -32.5t33 -77.5t-33 -78t-78 -33t-78 32.5t-33 78.5z" />
<glyph unicode="&#xec;" horiz-adv-x="507" d="M-57 1321h237l182 -289h-145zM153 0v887h201v-887h-201z" />
<glyph unicode="&#xed;" horiz-adv-x="507" d="M145 1032l183 289h237l-274 -289h-146zM153 0v887h201v-887h-201z" />
<glyph unicode="&#xee;" horiz-adv-x="507" d="M-53 1032l209 289h197l209 -289h-173l-135 189l-135 -189h-172zM153 0v887h201v-887h-201z" />
<glyph unicode="&#xef;" horiz-adv-x="507" d="M-52 1176q0 45 33 77.5t78 32.5t78 -32.5t33 -77.5t-33 -78t-78 -33t-78 32.5t-33 78.5zM153 0v887h201v-887h-201zM337 1176q0 45 33 77.5t78 32.5t78 -32.5t33 -77.5t-33 -78t-78 -33t-78 32.5t-33 78.5z" />
<glyph unicode="&#xf0;" horiz-adv-x="1077" d="M72 438q0 98 28.5 184.5t84 151t135 101t180.5 36.5q72 0 133 -23.5t110 -66.5q-25 74 -59.5 142.5t-87.5 132.5l-283 -64l-28 123l217 49q-43 49 -100.5 93t-116.5 81l98 103q78 -45 156.5 -104.5t144.5 -131.5l256 60l29 -123l-193 -45q98 -129 158.5 -287t60.5 -344 q0 -135 -36.5 -237.5t-100 -171t-148.5 -102.5t-180 -34q-94 0 -178 32t-146.5 92t-98 149.5t-35.5 203.5zM276 440q0 -63 18.5 -121.5t51.5 -102.5t80 -70.5t102 -26.5q59 0 107.5 26.5t82.5 71.5t51 104.5t17 127.5q0 55 -16 109t-48 97t-81 70t-115 27q-53 0 -98 -23.5 t-79 -65.5t-53.5 -99.5t-19.5 -123.5z" />
<glyph unicode="&#xf1;" horiz-adv-x="1071" d="M133 0v887h182v-103q37 61 107 94t158 33q82 0 148.5 -19.5t112.5 -64.5t71.5 -116.5t25.5 -175.5v-535h-197v512q0 123 -51 176t-149 53q-102 0 -158.5 -51t-56.5 -170v-520h-193zM184 1059q4 29 14.5 66.5t33 72.5t63.5 59.5t106 24.5q25 0 66 -6t114 -41 q18 -8 43 -18.5t60 -10.5q49 0 69.5 23.5t28.5 68.5h109q-6 -43 -20.5 -82.5t-39 -72.5t-62.5 -52.5t-91 -19.5q-18 0 -62.5 11.5t-95.5 29.5q-43 16 -78 27.5t-67 11.5q-23 0 -49.5 -16.5t-39.5 -75.5h-102z" />
<glyph unicode="&#xf2;" horiz-adv-x="1069" d="M72 436q0 98 28.5 184.5t87 151t145.5 102t202 37.5t201.5 -37.5t145 -102t87 -150.5t28.5 -185q0 -98 -28.5 -185t-87 -151.5t-145.5 -101.5t-201 -37q-117 0 -203 37t-144.5 101.5t-87 151.5t-28.5 185zM224 1321h237l182 -289h-145zM285 436q0 -154 61.5 -235.5 t188.5 -81.5t188 82t61 235q0 154 -61 236t-188 82t-188.5 -82t-61.5 -236z" />
<glyph unicode="&#xf3;" horiz-adv-x="1069" d="M72 436q0 98 28.5 184.5t87 151t145.5 102t202 37.5t201.5 -37.5t145 -102t87 -150.5t28.5 -185q0 -98 -28.5 -185t-87 -151.5t-145.5 -101.5t-201 -37q-117 0 -203 37t-144.5 101.5t-87 151.5t-28.5 185zM285 436q0 -154 61.5 -235.5t188.5 -81.5t188 82t61 235 q0 154 -61 236t-188 82t-188.5 -82t-61.5 -236zM426 1032l183 289h237l-274 -289h-146z" />
<glyph unicode="&#xf4;" horiz-adv-x="1069" d="M72 436q0 98 28.5 184.5t87 151t145.5 102t202 37.5t201.5 -37.5t145 -102t87 -150.5t28.5 -185q0 -98 -28.5 -185t-87 -151.5t-145.5 -101.5t-201 -37q-117 0 -203 37t-144.5 101.5t-87 151.5t-28.5 185zM227 1032l209 289h197l209 -289h-173l-135 189l-135 -189h-172z M285 436q0 -154 61.5 -235.5t188.5 -81.5t188 82t61 235q0 154 -61 236t-188 82t-188.5 -82t-61.5 -236z" />
<glyph unicode="&#xf5;" horiz-adv-x="1069" d="M72 436q0 98 28.5 184.5t87 151t145.5 102t202 37.5t201.5 -37.5t145 -102t87 -150.5t28.5 -185q0 -98 -28.5 -185t-87 -151.5t-145.5 -101.5t-201 -37q-117 0 -203 37t-144.5 101.5t-87 151.5t-28.5 185zM184 1059q4 29 14.5 66.5t33 72.5t63.5 59.5t106 24.5 q25 0 66 -6t114 -41q18 -8 43 -18.5t60 -10.5q49 0 69.5 23.5t28.5 68.5h109q-6 -43 -20.5 -82.5t-39 -72.5t-62.5 -52.5t-91 -19.5q-18 0 -62.5 11.5t-95.5 29.5q-43 16 -78 27.5t-67 11.5q-23 0 -49.5 -16.5t-39.5 -75.5h-102zM285 436q0 -154 61.5 -235.5t188.5 -81.5 t188 82t61 235q0 154 -61 236t-188 82t-188.5 -82t-61.5 -236z" />
<glyph unicode="&#xf6;" horiz-adv-x="1069" d="M72 436q0 98 28.5 184.5t87 151t145.5 102t202 37.5t201.5 -37.5t145 -102t87 -150.5t28.5 -185q0 -98 -28.5 -185t-87 -151.5t-145.5 -101.5t-201 -37q-117 0 -203 37t-144.5 101.5t-87 151.5t-28.5 185zM229 1176q0 45 33 77.5t78 32.5t78 -32.5t33 -77.5t-33 -78 t-78 -33t-78 32.5t-33 78.5zM285 436q0 -154 61.5 -235.5t188.5 -81.5t188 82t61 235q0 154 -61 236t-188 82t-188.5 -82t-61.5 -236zM618 1176q0 45 33 77.5t78 32.5t78 -32.5t33 -77.5t-33 -78t-78 -33t-78 32.5t-33 78.5z" />
<glyph unicode="&#xf7;" horiz-adv-x="1196" d="M74 537v182h1048v-182h-1048zM465 233q0 23 7 46.5t23.5 44t41 33t61.5 12.5q51 0 93 -36.5t42 -99.5q0 -18 -7 -40.5t-22.5 -42t-42 -34t-63.5 -14.5q-45 0 -89 32t-44 99zM465 1024q0 23 7 46.5t23.5 44t41 32.5t61.5 12q51 0 93 -36t42 -99q0 -18 -7 -40.5t-22.5 -42 t-42 -34t-63.5 -14.5q-45 0 -89 31.5t-44 99.5z" />
<glyph unicode="&#xf8;" horiz-adv-x="1069" d="M72 436q0 98 28.5 184.5t87 151t145.5 102t202 37.5q61 0 114 -11t99 -32l77 123l62 -39l-76 -118q92 -66 139 -169.5t47 -228.5q0 -98 -28.5 -185t-87 -151.5t-145.5 -101.5t-201 -37q-72 0 -130.5 14.5t-107.5 38.5l-68 -106l-61 39l68 106q-84 66 -124 165t-40 218z M285 436q0 -143 51 -221l321 510q-50 29 -122 29q-127 0 -188.5 -82t-61.5 -236zM387 160q59 -41 148 -41q127 0 188 81.5t61 235.5q0 80 -17 141.5t-52 102.5z" />
<glyph unicode="&#xf9;" horiz-adv-x="1071" d="M133 338v549h197v-527q0 -123 51 -176t149 -53q102 0 158.5 51t56.5 170v535h193v-887h-182v88q-37 -61 -106.5 -94t-157.5 -33q-82 0 -149 19.5t-113 64.5t-71.5 116.5t-25.5 176.5zM224 1321h237l182 -289h-145z" />
<glyph unicode="&#xfa;" horiz-adv-x="1071" d="M133 338v549h197v-527q0 -123 51 -176t149 -53q102 0 158.5 51t56.5 170v535h193v-887h-182v88q-37 -61 -106.5 -94t-157.5 -33q-82 0 -149 19.5t-113 64.5t-71.5 116.5t-25.5 176.5zM426 1032l183 289h237l-274 -289h-146z" />
<glyph unicode="&#xfb;" horiz-adv-x="1071" d="M133 338v549h197v-527q0 -123 51 -176t149 -53q102 0 158.5 51t56.5 170v535h193v-887h-182v88q-37 -61 -106.5 -94t-157.5 -33q-82 0 -149 19.5t-113 64.5t-71.5 116.5t-25.5 176.5zM227 1032l209 289h197l209 -289h-173l-135 189l-135 -189h-172z" />
<glyph unicode="&#xfc;" horiz-adv-x="1071" d="M133 338v549h197v-527q0 -123 51 -176t149 -53q102 0 158.5 51t56.5 170v535h193v-887h-182v88q-37 -61 -106.5 -94t-157.5 -33q-82 0 -149 19.5t-113 64.5t-71.5 116.5t-25.5 176.5zM229 1176q0 45 33 77.5t78 32.5t78 -32.5t33 -77.5t-33 -78t-78 -33t-78 32.5 t-33 78.5zM618 1176q0 45 33 77.5t78 32.5t78 -32.5t33 -77.5t-33 -78t-78 -33t-78 32.5t-33 78.5z" />
<glyph unicode="&#xfd;" horiz-adv-x="911" d="M25 887h208l254 -608l199 608h201l-453 -1407h-203l166 518zM358 1032l183 289h237l-274 -289h-146z" />
<glyph unicode="&#xfe;" horiz-adv-x="1112" d="M133 -520v1988h180v-727q63 88 142.5 129t189.5 41q70 0 140.5 -28.5t127 -86t92 -144.5t35.5 -206q0 -109 -28.5 -197.5t-83 -153t-131 -99.5t-170.5 -35q-104 0 -177 38t-137 116v-635h-180zM315 432q0 -63 20.5 -119.5t55.5 -98.5t83 -66.5t101 -24.5t100.5 24.5 t83.5 66.5t56.5 98.5t20.5 119.5t-20.5 119.5t-56.5 98.5t-83 66.5t-101 24.5q-53 0 -101 -24.5t-83 -66.5t-55.5 -98t-20.5 -120z" />
<glyph unicode="&#xff;" horiz-adv-x="911" d="M25 887h208l254 -608l199 608h201l-453 -1407h-203l166 518zM161 1176q0 45 33 77.5t78 32.5t78 -32.5t33 -77.5t-33 -78t-78 -33t-78 32.5t-33 78.5zM550 1176q0 45 33 77.5t78 32.5t78 -32.5t33 -77.5t-33 -78t-78 -33t-78 32.5t-33 78.5z" />
<glyph unicode="&#x152;" horiz-adv-x="2095" d="M82 729q0 176 47 319.5t131 245t199.5 156.5t251.5 55q197 0 350 -116v79h913v-190h-704v-426h639v-182h-639v-484h723v-186h-932v70q-72 -53 -160 -81t-190 -28q-141 0 -258 54.5t-199 154.5t-127 241.5t-45 317.5zM293 719q0 -127 27.5 -231.5t82 -179.5t132 -115.5 t178.5 -40.5q123 0 210 61t138 172v676q-53 119 -143.5 185.5t-206.5 66.5q-94 0 -171 -43t-132.5 -122t-85 -188.5t-29.5 -240.5z" />
<glyph unicode="&#x153;" horiz-adv-x="1769" d="M72 436q0 98 28.5 184.5t87 151t145.5 102t202 37.5q117 0 204 -38.5t146 -104.5q57 66 144 104.5t206 38.5q115 0 202 -37.5t145 -102t87 -150.5t29 -185v-53h-711q0 -10 4 -31q14 -113 73.5 -173t170.5 -60q168 0 223 143h215q-41 -133 -149.5 -217t-288.5 -84 q-117 0 -204 39t-146 104q-57 -66 -144.5 -104.5t-205.5 -38.5q-117 0 -203 37t-144.5 101.5t-87 151.5t-28.5 185zM285 436q0 -154 61.5 -235.5t188.5 -81.5t188 82t61 235q0 154 -62 236t-187 82q-127 0 -188.5 -82t-61.5 -236zM991 532h486q-16 109 -77 165.5t-165 56.5 t-164.5 -56.5t-79.5 -165.5z" />
<glyph unicode="&#x178;" horiz-adv-x="1267" d="M20 1468h246l369 -626l364 626h248l-506 -815v-653h-215v653zM283 1718q0 45 33 78t78 33t77.5 -33t32.5 -78t-32.5 -77.5t-77.5 -32.5t-78 32.5t-33 77.5zM762 1718q0 45 33 78t78 33t77.5 -33t32.5 -78t-32.5 -77.5t-77.5 -32.5t-78 32.5t-33 77.5z" />
<glyph unicode="&#x2c6;" horiz-adv-x="901" d="M143 1032l209 289h197l209 -289h-173l-135 189l-135 -189h-172z" />
<glyph unicode="&#x2dc;" horiz-adv-x="901" d="M92 1059q4 29 14.5 66.5t33 72.5t63.5 59.5t106 24.5q25 0 66 -6t114 -41q18 -8 43 -18.5t60 -10.5q49 0 69.5 23.5t28.5 68.5h109q-6 -43 -20.5 -82.5t-39 -72.5t-62.5 -52.5t-91 -19.5q-18 0 -62.5 11.5t-95.5 29.5q-43 16 -78 27.5t-67 11.5q-23 0 -49.5 -16.5 t-38.5 -75.5h-103z" />
<glyph unicode="&#x2000;" horiz-adv-x="967" />
<glyph unicode="&#x2001;" horiz-adv-x="1935" />
<glyph unicode="&#x2002;" horiz-adv-x="967" />
<glyph unicode="&#x2003;" horiz-adv-x="1935" />
<glyph unicode="&#x2004;" horiz-adv-x="645" />
<glyph unicode="&#x2005;" horiz-adv-x="483" />
<glyph unicode="&#x2006;" horiz-adv-x="322" />
<glyph unicode="&#x2007;" horiz-adv-x="322" />
<glyph unicode="&#x2008;" horiz-adv-x="241" />
<glyph unicode="&#x2009;" horiz-adv-x="387" />
<glyph unicode="&#x200a;" horiz-adv-x="107" />
<glyph unicode="&#x2010;" horiz-adv-x="675" d="M82 426v199h512v-199h-512z" />
<glyph unicode="&#x2011;" horiz-adv-x="675" d="M82 426v199h512v-199h-512z" />
<glyph unicode="&#x2012;" horiz-adv-x="675" d="M82 426v199h512v-199h-512z" />
<glyph unicode="&#x2013;" d="M-4 449v157h1147v-157h-1147z" />
<glyph unicode="&#x2014;" horiz-adv-x="2048" d="M-4 449v157h2056v-157h-2056z" />
<glyph unicode="&#x2018;" horiz-adv-x="503" d="M123 1049v108q0 135 53 224t176 106v-96q-55 -10 -85.5 -62.5t-33.5 -150.5h41q41 0 79 -35t38 -96q0 -16 -5 -39t-20.5 -44.5t-41 -37t-66.5 -15.5q-33 0 -58.5 12.5t-42 33t-25.5 45t-9 47.5z" />
<glyph unicode="&#x2019;" horiz-adv-x="503" d="M113 1354q0 16 5 38.5t20.5 44t41 37t66.5 15.5q33 0 58.5 -13.5t41.5 -33t25.5 -44t9.5 -46.5v-109q0 -135 -53.5 -224t-175.5 -106v97q55 10 85.5 62t32.5 151h-41q-41 0 -78.5 34.5t-37.5 96.5z" />
<glyph unicode="&#x201a;" horiz-adv-x="503" d="M113 92q0 16 5 39t20.5 44.5t41 36.5t66.5 15q33 0 58.5 -13t41.5 -32.5t25.5 -44t9.5 -47.5v-108q0 -135 -53.5 -224.5t-175.5 -105.5v96q55 10 85.5 62.5t32.5 150.5h-41q-41 0 -78.5 35t-37.5 96z" />
<glyph unicode="&#x201c;" horiz-adv-x="862" d="M123 1049v108q0 135 53 224t176 106v-96q-55 -10 -85.5 -62.5t-33.5 -150.5h41q41 0 79 -35t38 -96q0 -16 -5 -39t-20.5 -44.5t-41 -37t-66.5 -15.5q-33 0 -58.5 12.5t-42 33t-25.5 45t-9 47.5zM481 1049v108q0 135 53.5 224t176.5 106v-96q-55 -10 -86 -62.5t-33 -150.5 h41q41 0 79 -35t38 -96q0 -16 -5.5 -39t-20.5 -44.5t-41 -37t-67 -15.5q-33 0 -58.5 12.5t-41.5 33t-25.5 45t-9.5 47.5z" />
<glyph unicode="&#x201d;" horiz-adv-x="862" d="M113 1350q0 16 5 38.5t20.5 44t41 37t66.5 15.5q33 0 58.5 -13.5t41.5 -33t25.5 -44t9.5 -46.5v-109q0 -135 -53.5 -224t-175.5 -106v97q55 10 85.5 62t32.5 151h-41q-41 0 -78.5 34.5t-37.5 96.5zM471 1350q0 16 5 38.5t20.5 44t41 37t66.5 15.5q33 0 58.5 -13.5t42 -33 t25.5 -44t9 -46.5v-109q0 -135 -53 -224t-176 -106v97q55 10 86 62t33 151h-41q-41 0 -79 34.5t-38 96.5z" />
<glyph unicode="&#x201e;" horiz-adv-x="862" d="M113 92q0 16 5 39t20.5 44.5t41 36.5t66.5 15q33 0 58.5 -13t41.5 -32.5t25.5 -44t9.5 -47.5v-108q0 -135 -53.5 -224.5t-175.5 -105.5v96q55 10 85.5 62.5t32.5 150.5h-41q-41 0 -78.5 35t-37.5 96zM471 92q0 16 5 39t20.5 44.5t41 36.5t66.5 15q33 0 58.5 -13t42 -32.5 t25.5 -44t9 -47.5v-108q0 -135 -53 -224.5t-176 -105.5v96q55 10 86 62.5t33 150.5h-41q-41 0 -79 35t-38 96z" />
<glyph unicode="&#x2022;" horiz-adv-x="933" d="M246 524q0 45 17.5 86t47 71t69.5 47t87 17q45 0 86 -17t70.5 -47t47 -71t17.5 -86q0 -47 -17.5 -87t-47 -69.5t-70.5 -47t-86 -17.5q-47 0 -87 17.5t-69.5 47t-47 69.5t-17.5 87z" />
<glyph unicode="&#x2026;" horiz-adv-x="2048" d="M207 131q0 23 7 46.5t23.5 44t41 32.5t61.5 12q51 0 93 -36t42 -99q0 -18 -7 -40.5t-22.5 -42t-42 -34t-63.5 -14.5q-45 0 -89 31.5t-44 99.5zM889 131q0 23 7 46.5t23.5 44t41 32.5t61.5 12q51 0 93 -36t42 -99q0 -18 -7 -40.5t-22.5 -42t-42 -34t-63.5 -14.5 q-45 0 -89 31.5t-44 99.5zM1571 131q0 23 7 46.5t23.5 44t41 32.5t61.5 12q51 0 93 -36t42 -99q0 -18 -7 -40.5t-22.5 -42t-42 -34t-63.5 -14.5q-45 0 -89 31.5t-44 99.5z" />
<glyph unicode="&#x202f;" horiz-adv-x="387" />
<glyph unicode="&#x2039;" horiz-adv-x="673" d="M174 463v194l326 258v-188l-215 -168l215 -166v-188z" />
<glyph unicode="&#x203a;" horiz-adv-x="673" d="M174 205v188l213 166l-213 168v188l326 -258v-194z" />
<glyph unicode="&#x205f;" horiz-adv-x="483" />
<glyph unicode="&#x20ac;" d="M0 522v111h113q-2 23 -2 45v92q0 23 2 45h-113v109h123q37 262 168 388t325 126q207 0 314.5 -104.5t126.5 -297.5h-187q-25 115 -88 171.5t-174 56.5q-53 0 -99 -14.5t-84 -52.5t-64.5 -104.5t-38.5 -168.5h479v-109h-488q-2 -23 -2 -45v-92q0 -23 2 -45h488v-111h-477 q14 -104 41.5 -178t65.5 -120t83 -67.5t94 -21.5t92 11.5t78 39t60.5 74.5t40.5 119h186q-25 -197 -134.5 -307.5t-324.5 -110.5q-96 0 -177 33t-143.5 102.5t-104.5 175t-60 250.5h-121z" />
<glyph unicode="&#x2122;" horiz-adv-x="2027" d="M164 1339v129h620v-129h-233v-598h-156v598h-231zM901 741v727h221l178 -503l179 503h221v-727h-141v580l-197 -580h-123l-197 580v-580h-141z" />
<glyph unicode="&#x25fc;" horiz-adv-x="890" d="M0 0v891h891v-891h-891z" />
</font>
</defs>
</svg>
